<?xml version="1.0" encoding="UTF-8"?>
<svg id="Layer_1" xmlns="http://www.w3.org/2000/svg" version="1.1" viewBox="0 0 90 90">
  <!-- Generator: Adobe Illustrator 30.0.0, SVG Export Plug-In . SVG Version: 2.1.1 Build 123)  -->
  <defs>
    <style>
      .st0 {
        fill: #403f3e;
      }
    </style>
  </defs>
  <path class="st0" d="M59.4,35.2c1.3,0,1.5.3,4.4-.7,3-1,4.1-.5,9.5-7.4,5.4-6.9,9.9-16.3,12-24.6.2-.8,0-.8-.8-.8-4.8.8-9.2,2-13.6,3.9-.7.3-2,1-2.6,1.3h0c-.5-.7,0-.2-.5,0-.5.2-1.3,0-.8.7h-.2c-.3-.5-1.8.3-2,.7v.5c0,0,.1,0,.2,0,0,0,0,0,0,0,0,0,0,0,0,0-.4.2-1.4.8-3.4,2.2-5.7,3.9-10.3,9.4-15.3,14.3-2.5,2.6-5.4,4.9-8,7.6h-4.1c-.3,0-.7,0-1,.2h-.5v.2s-.2-.3-.7,0c0,0-.2,0-.2.1,0,0,0,0,0-.1l2.8-3.6c1.6-3.1,4.8-3,1.8-8s-9.2-9.2-14-12.3c-1.6-1-5.3-3.6-7.1-3.8h-.3l-.5-.2s-.3-.3-.3,0-.2-3.6,0,1.8c.2,5.4,3.8,11.8,5.9,16.7,1.5,3.3,2.8,6.6,4.3,9.9,0,0,.1,0,.2,0-2.7.5-6.8,3-8.4,4.9-.7.7-1,1.5-1.6,2.1,0,.1,0,.2.2.4-.1,0-.2-.1-.4-.2-1.1-.7-1.6-1-2.6-1.6-.7-.5-1.5-.7-1.6-1.5,0-.2,0-1.1-.5-1-.5.2-.8.2-.5,1.3.3,1.1,3.1,2.9,4.3,3.6,0,0,.2,0,.3.1,0,0,0,0,0,.1-.3-.1-.6-.3-1.2-.4-3.6-1.3-5.6-2.5-8.4-5.1-.2-.2-.5.2-.7-.3-.2-.5,0-.3-.2-1.3-.2-1-1.1-.8-1.5,0s-.8.2.7,2c1.5,1.8,6.6,4.9,8.5,5.6.6.3,1.3.3,1.9.6,0,0,0,0,0,0-.7,1.5-2.3,5.2-2.5,6.4.1,0,.2,0,.2,0,0,0-.2.1-.2.1v.7l.4,1.5c0,.1,0,.3,0,.4,0,.1,0,.3,0,.5h0l-.2-.2c0-.5-.3-2-.3-2.3h-.3c-.2,2.1.8,6.6,2.3,8.2,1.1,1.1,3.1,1.1,4.4.7.7-.3,3.3-2,3.8-2.6,0,0,0,0,0,0,.1,0,.3-.2.4-.2,0,0,0,0,0,0,0,0,.1,0,.2,0,1-.7,1.8-1.5,2.5-2.3v-.2s0,0,0,0c0,0,0,.1.1.2.8,1.1,1,2.3,1.8,3.3-.3-1.1-1.1-2.3-1.5-3.4,0-.2,0-.3.1-.3,0,0,0,0,0,0s0,.1.1.2c0,0-.1.1-.1.3.5,1.1,1.1,2.3,1.6,3.4.3.3.5.5.8.7h-.1c-.3,0-.3.2-.3.7.2.2-.2.2.3.3.1,0,.2,0,.4.2-.4,2.1-1.1,4.4-.7,6.4,0,.2-.5.7.3,1.3.8.6,1.3-1.1,1.3-1.7,0,0,0-.1,0-.9.1-1.4.9-2.9,1.1-4.3.3,0,.6.1,1.1,0h1c0,0,0-.1,0-.2h.5c.7,1.3.5,3.6.7,5.1.2.3.3,1.5.3,1.5h.8c.2-.4.1-.7,0-1,0-.4-.1-.7-.1-.8v-4.9c.5-.5.5-1.5,0-2.1,0,0,0,0,0,0,.2,0,.4-.3.2-1.1,0,0,.1,0,.2-.1v1.3s0-.1,0-.2h.2c0-.4.1-.8.1-1.2,0-.1,0-.3,0-.5s0-.2,0-.3c.1.4.2.8.2,1v.2s0-.1.1-.1c0,0,0,.2,0,.3-.2.3-.3.6-.3,1-.3-.3-.3-.2-.3,0v2.1h.8c.1,0,.2,0,.3,0,0,0,0,0,0,.1.2.2,1.3,1,1.3,1.1.7.2.7.3.7.7s0,.1.1.2c-.3,1.3-.3,3-.6,4.2-.2.5-.7,1.3-.7,1.6s.3,1.6.3,1.8.7,1.5.8,1.5.2.3.3,0c.2-.3,1-1.8,1.1-2.3.2-.5-.3-1.1-.3-2.1s.5-2.2.6-3.3h.2c0,.5.8.5,1,.5s.3,1.5.3,1.8c0,.8-.3,1.8,0,2.5v3.4c-.5,1.5-1.1,2.5-.5,4.3.3,1.1.7,1,1.5,0,.8-1,1-1.8,1-2.9h.2c-.3-2.6-.3-5.2-.3-7.9.3,0,.7-.1,1,0,.3.2.2.3.7.3h.8c.4.2.8.3,1.2.3,0,0,0,0,.1,0h1.3c.2,0-.8-.2.2-.3,1-.2,1.5-.2,2.5-.8.5-.5.8-1.1,1.3-1.5-.2-.3-.3-.3-.3-.3-.2,0-.3-.1-.5-.2h.5c0,0,.1.1.2.2l.3.5c0,.2-.1.4-.1.6,0,0,0-.2,0-.2h-.3c-.8,1.5-1.8,2.1-3.4,2.1-.3.3-.8.3-1.3.3-.2-.2-2-.5-2-.5-.2,4.6.2,8.9,1.5,13.3,0,.3.2,1.8.7,2,.5.2.5-.7.5-.7,0,0,.8.5.8-.3s.2.5-1-3c-1.1-3.4-.8-6.7,0-10.2,1-.2,2.5.2,3.4-.2.2-.2-.2-.2.2-.3.3-.2.8-.2,1.1-.3l.2.3c0-.3-.1-.6-.2-1,0,.3.2.5.3.6.7,5.7,1.5,11.7,2,17.4.3.8.6,1.5,1.1,2.3,0,0,0,0,0,0,.3.5-1,2,1,.5,2-1.5-.3-3.6-.8-5.1-.2-.3-.3-1.5-.3-1.8v-6.6c.2,0,.3,0,.3-.3,0-1,.5-2,.5-3v-2.5c-.2-.2-.5,0-.5.3.3.4-.3,3.6-.8,3.7.3-.6.4-1.6.4-2.5v1.1l.3-4.1c.3-.3.8-1.1.3-1.5.1-.6.2-1.3.3-2,0,0,.1,0,.2.1-.1.7-.1,1.3-.1,1.8s-.3,1-.3,1.5c.3,0,0-.2.7-.5.5-.3,1.3-.6,1.9-.7,0,0,.3.1.7,0h2.1s0,0,0,0c0,0,0,.1,0,.2h2.6c0,0-.2-.1-.2-.2,0,0,0,0,0,0,.7.2,1.5.5,2.1.5s.2,0,.3,0c.7.3,1.2.4,2,.6h.1c.6.2,1.4.3,2,.5,0,0,.2,0,.2,0-.1,0-.2.2-.2.4.2.2.5.7,1,.7,0,0,0,0,0-.1.5.2,1.4.6,2.4,1,1,.3,2.1-.2,3.3.3.3.2.2.3.3.3-.2-3.6-.5-7.1-1.1-10.7h.2c-.2-1.3-.5-2.8-.8-4.3,0,.2,0,.5,0,.7,0-.3,0-.6-.2-.9l-.3-.5c-.2-.9-.5-1.8-.8-2.7,0-.1,0-.3,0-.4-.5-1.5-1.3-2.6-2.1-3.9,0,.3,0,.7,0,1.1,0-.4-.1-.7-.2-1.1-1.1-1.9-2.3-3.6-3.8-5.1,0,0,0-.2,0-.3-1-1-2.3-2.3-3.1-2.8-.8-.5-1.6-.8-2.4-1.1,0,0,0,.1.1.2-.1,0-.2-.2-.3-.3-1.1-.3-1.6-.5-2.8-.8,0-.5-.8-.5.5-.5ZM68.2,52.2s0,0,0,0c.2-.6.1-.7-.4-.9.2,0,.3,0,.4.1.2,0,.2.5,0,.9ZM66,58.2c0,0-.1,0-.2,0,.2,0,.3,0,.4,0,0,0-.2,0-.2,0ZM68.4,52.8s0,0,0,0c0,0,0,0,0,0h0ZM66.7,59.3s0,0,0,0c0,0,0-.1.1-.2,0,0,0,.1,0,.2ZM67.1,58.2s0,0,0-.1c0,0,0,0,0,0,0,0,0-.1-.1-.1,0,0,0,0,0,0,0,0,.1,0,.2.1,0,0,0,.2-.1.3,0,0,0,0,0,0,0,0,0,0,0,0ZM67.9,55.6s0,0,0-.1c0,0,0,0,0,0,0,0,0,0,0,0,0,.1,0,.3,0,.4,0,0,0,0,0-.1ZM70.3,65.4c0,0,.1,0,.2,0,0,0,0,0-.1.1,0,0,0,0,0-.1ZM69.1,62.6c.2-.3.2-.4.8-.3,0,0,0,0,0,0-.2,0-.5,0-.8.3ZM68.9,62.8c0,0,0,0-.1.1,0,0,0,0-.1,0,.1,0,.2,0,.3-.1ZM70.1,61s0,0,.1,0c0,0,0,.1,0,.2h-.1v-.2ZM71,60.6s0,0,0,0c0,0-.1,0-.2,0,0,0,0,0,0,0,0,0,0,0,0-.1,0,0,.2.2.3.2,0,0,0,0,0,0ZM71.2,64.6c0,0,0-.1,0-.2.2,0,.3,0,.4-.2,0,.1-.1.3-.2.4,0,0-.1.1-.2.2v-.2h0ZM72.3,63.2s0,0,0,0c0,0,0-.1.1-.2h-.1c0,0,0,0,0,0,0,0,.2-.1.3-.2,0,.2-.2.3-.2.5ZM70.4,65.6s0,0,0,0c0,0,0,0,0,0,0,0,0,0,0,0ZM71.2,64.9s0,0,0,0h0s0,0,0,0ZM69.9,59.3c0,.2,0,.4,0,.7,0,0,0,0,0,.1-.9,0-.6.6-1,1.2-.2.2-.2,0-.2,0l-.2-.2c.5-.7.9-1.4,1.3-2.2,0,.2,0,.3.2.4ZM50.8,61c0-.2,0-.5,0-.7,0-.4,0-1,0-1.4,0,0,0,0,.1.1,0,.5.2.8.2,1.1s-.2.7-.2.8c0,0,0,0,0,0ZM49.5,63.1c0,0-.1,0-.2,0,0,0,.2-.1.2-.2.2,0,.4,0,.6,0-.2,0-.5.1-.6.1ZM26.3,52.9v-.4c.1.1.2.3.2.7,0,0,0,0,0,0,0,0,0,0,0,0,0,0,0,0,0,0,0,0,0,0,0,0h0s0,0,0,0c0,0,0,0-.1,0,0,0,0-.1,0-.2ZM26.3,49.8c-.2,0-.7,1.1-.7.5h-.2c.5-.8,1.1-2.1,1.3-3.1.5-.6.6-1.5.5-2.3h.1c0,0,0,0,.1,0-.2.5-.5,1.7-.5,2.4.3-.9.8-1.4.5-2.3.2.1.3.2.4.4-.1.7-.3,1.4-.6,2.1h-.3c-.3.8-.5,1.6-.8,2.3h0ZM22.3,54.1h-.4c.2,0,.3-.1.3-.2.3-.2,0,0,.8-.7,0,0,.1-.1.2-.2v.3c-.3-.2-.8.3-.8.7ZM16.4,50.4c.2-.5.6-2.2.6-2.2h-.2s0,0,0,0c0,0,.1,0,.2,0,0,0,0,0,0,0-.1.5-.3,1-.3,1.5h0c0,.3-.1.5-.2.7,0,0-.2,0-.3,0ZM15.9,53.1v.3c0,0,0-.1,0-.2,0-.1,0-.3,0-.4,0,.1,0,.2,0,.3ZM16.9,43.7c.7.6,1.4-.6,1.3-1.4.3.3.5.3.2,1-.2.3-.3.7-.8.7,0,0,0,0,0,0-.2,0-.3.1-.4.3h0c0-.1-.1-.2-.3-.5,0,0,0,0,0,0,0,0,.1,0,.2-.1ZM20.9,37.6c.2,0,.4-.2.6-.2.2.2.2.3.2.3,0,0,0,0,0,0-.2,0-.4,0-.7,0-.3.2-.5.5-.7.8.2-.3.4-.6.6-.9ZM37.2,59.9c0,0,0-.1,0-.1h0s0,0,.2,0c0,0,0-.2,0-.3,0,0,0,0,0,0l-.2.2h-.1ZM34.9,56.4s0,0,0-.1v-.2s0,0,.2,0h0c0,.2,0,.2,0,.3,0,0,0,0,0,0,0,0-.1,0-.2,0,0,0,0,0,0,0ZM17.4,53.8c0,0,.1,0,.2-.1v.9c-.1-.2-.2-.4-.2-.8ZM18,54.5h0s.2-.1.2-.1c0,0-.1,0-.2.1ZM18.3,47.6s0,0,0,0c0,0,0,0,0,0ZM18.2,48.7s0,0,0,0c0,0,0,0,0,0,0,0,0,0,0,0ZM22.6,41.3c0,0,.1,0,.2,0h0c.2.2.2.3.2.4,0,0,0,0,0,0-.1-.1-.3-.2-.4-.2,0,0,.2,0,.3,0l-.2-.2ZM21.3,42.4s0,0,0,0c0,0,0,0,0,0ZM20.8,42.7s0,0,0,0c0,0,0,0,0,0ZM20.5,42.7s0,0-.1,0c0,0,0,0,.1,0ZM18.3,46.6s-.1,0-.3.1c-.2.2-.3.4-.4.6,0-.2,0-.4,0-.6.5,0,1.1-1.3.8-2s0,0,0,0c.7.3.1,1.1-.2,1.9ZM20.8,54.4c0,0,.2,0,.3,0,0,0,0,.1,0,.2,0,0-.2,0-.2-.1v.2c0,0-.1,0-.2,0,0,0,.2,0,.2,0ZM25.1,39.5c.4,0,.9-.3,1.5-1,.2-.1.8-.4,1.2-.3,0,0,0,.1-.2.2-.3.2-.5,0-1,.3-.5.3-.7,1-1.4,1,0,0,0,0-.1,0,0,0,0,0,0,0ZM53.8,36.8c-.6-.2-2,0-2.4,0h-1.3c0,.1-.3-.3-.3-.3h.1c0,0,.4.2.4.2,1.1,0,2.1,0,3.3-.3h.2s0,0,0,0c0,0,0,.1,0,.2h0s0,.1.2.2ZM36.2,57.2c0,0,0-.1-.1-.1,0-.3.1-.5,0-.7,0,0,0,.2.1.3,0,0,0,.2,0,.5ZM30.7,56.2h.3c0,.1.1.1.2.2,0,0,0,.2.1.2,0,0-.1,0-.2,0,0-.3-.2-.3-.5-.3ZM27.2,52.6c0-.2,0-.3.1-.4,0,.1,0,.3,0,.4,0,0,0,0-.1,0ZM38,41.3s0,0,0-.1v-.2c.1,0,.3.2.3.2h-.3ZM43.1,37.3s0,0,0,0c.3.2.5,0,.1-.4h1.5c.7.3,1.1.3,1.3,0l.2.2v.7c.4.9.7,1.9,1,2.9-.4-1.2-.8-2.4-1.4-3.4l-.2.5c-.2,0-.8-.3-1.1-.3s-.9.2-1.3.3c0,0-.2-.2-.2-.3ZM37.8,46.2s0,0,0,0c.3.2.5.4.5.5h.4c-.2,0-.5.1-.6.3.2-.3,0-.6-.4-.8ZM37.4,50.6c0,.2.2,1.5,0,1.6s0,0,0,0c0-.4,0-1,0-1.6,0,0,0,0,0,0ZM36.4,45.7h.6c0,0,.2.2.3.2-.3-.1-.7-.2-.9-.2ZM30.2,54c0-.2,0-.3,0-.3,0,0,0,0,0,.1,0,.1,0,.2,0,.3,0-.1,0-.3,0-.3,0,0,0,0-.1.2ZM28.2,55.7c0-.1,0-.2-.1-.4l.3-.9c0,.1,0,.2,0,.3,0,.1-.1.5-.1,1ZM29,52.5c0,0,0-.1,0-.2.1,0,0,0,0,0,0,0,0,0,0,.1,0,0,0,0,0,0ZM28.4,51.3s0,0,0,0v.3c0-.1,0-.2,0-.3ZM30.1,53.4s0,0,0,0c0,0,0,0,0,0,0,0,0,0,0,0,0,0,0,0,0,0ZM29.6,47c-.1-.1-.3-.2-.4-.2,0,0,0-.2,0-.3,0,0-.1,0-.2.1,0,0,0,0,0-.1,0,0,.1,0,.2,0,0,0,0,0,0,0,0,0,.2,0,.3.2,0,0,0,.1.1.2ZM27.7,40.6c.3,0,.7-.3,1.1-.6h.3s0,0,0,.1c-.3.2-.6.4-1,.5-.3.2-.5.5-.5,0s0,0,0,0ZM32.7,40.8c.3-.3.5-.6,1-.5-.4,0-.7.2-.9.5,0,0,0,0,0,0ZM43.6,51.6c0,0,0-.1,0-.2,0,0,0,0,.1,0,0,0,0,.2,0,.2,0,0,0,0-.1,0ZM40.4,46h-.2c0-.2.1-.3.2-.3,0,0,0-.1,0-.2,0,0,0,0,0,0,.1.1.3.3.5.4-.1,0-.2,0-.3.1h-.1c0,0,0,0,0,0ZM38.7,44.5c0-.2,0-.4,0-.6,0,0,.1.2.2.2,0,.2,0,.3-.2.4ZM45.6,43.4s0,0-.1,0c0,0,0,0,0,0,0,0,0,0,0,.1ZM48.6,49.8s0,0,0,0c0,0,0,0-.1,0h0ZM45.1,47.2s0,0,0,0c0,0,0,0,0,0,0,0,0,0,0,0ZM45.8,48.2s0,0,0,0h0c0,0,0,0,0,0ZM45.6,44.5s0,0,0,0c0,0,0,0,0,0,0,0,0,0,0,0ZM45.4,44.1s0,0,0,0c0,0,0,0,0,0,0,0,0,0,0,0ZM41.7,46.2c.4.1.8.1,1,0,0,.1.1.3.2.4-.2,0-.4,0-.5.2h-.4c0-.2-.1-.4-.3-.5,0,0,0,0,.1,0ZM45.6,44.6h0c0,0,0,0,.2.2v.5s0,0,0,0c0-.3.1-.6,0-.7ZM44,44.8c0,.1,0,.3.1.4h-.5v-.7c0,.1.1.2.3.3ZM41.9,50.2s0,0,0,.1c0,0,0,0,0-.1ZM48.6,44.5c0,.1,0,.2-.1.4,0,.2,0,.5.1.8,0-.1,0-.3-.1-.4v-.3c0-.4-.2-.8-.3-1.3,0,.2,0,.3.1.5l.3.4ZM45.6,43.8v-.4c0,.1.1.2.2.3,0,0-.1,0-.2,0ZM45.2,41.8s0,0,0,0c0,0,0,0,0,0,0,0,0,0,0-.1ZM43.2,41.8c0,0,0,0,0,.1,0,0,0,.2.1.3,0,0,0,0-.1-.1h-.2v-.2c0,0,0-.1.2-.1ZM32,43.3c0,.1,0,.3,0,.4,0,0,0,0,0,0-.2-.3-.2-.5,0-.3ZM35.8,44.9c0,0,0-.1-.1-.2,0,0,.1,0,.3,0,0,0,0,.1-.1.1ZM33.5,42.6c0,0,0-.1,0-.2,0,0,0,0,.1,0,0,.1,0,.3-.2.3,0,0,0,0,0,0,0,0,0,0,0-.2ZM35.4,44.2v.2s0,0,.1,0c0,0,0,.1,0,.2,0-.1-.2-.2-.4-.4,0,0,.1-.2.1-.3,0,.1,0,.2,0,.3ZM35,42.6c.1,0,.4,0,.7,0-.2,0-.4,0-.7,0ZM34,42.3s0,0,0,0c0,0,0-.2,0-.3,0,0,.1,0,.2.1-.2,0-.2.2-.2.2ZM35,44.7c-.1-.1-.2-.3-.4-.4.1.1.2.2.4.4ZM30.4,44.7c0-.1,0-.3-.2-.5,0-.1,0-.2,0-.3h.1c0-.2,0-.4.1-.6,0,0,.1,0,.2-.1h.2c-.2.4-.5,1.1-.5,1.4,0,0,.2,0,.3.1,0,0-.2,0-.2,0ZM32.6,44.6s0,0,0,0h0s0-.1-.2-.2c0,0,0,0,0-.1,0,0,.1.1.2.1.1,0,.5.5.9,1.1l-1-.9ZM42,54.9v-2.6c.2,1,.2,2.1.2,3.1v.2c0,0,0-.2-.1-.3,0-.1,0-.3,0-.4ZM42.2,51.5h-.2v-.3c0-.3-.1-.6-.1-.8,0,.3,0,.6.4.7,0,.7.2,1.3.2,1.9,0-.5-.2-.9-.4-1.4ZM43.3,54.9s0,0,0,0c0,.2,0,.3,0,.5h-.2c0,0,.1-.2.2-.5ZM43.4,53.3c0-.5,0-1,.2-1.6v.2c.1,0,.2.2.2.2h-.3c0,.4,0,.8-.1,1.2ZM49,44.1c0,0,0-.1,0-.2h.7c-.3.1-.5.1-.7.2ZM49.8,36.4s0,0-.1,0h0c0-.1.1,0,.1,0ZM31.3,40c0,0,0,0,.1,0,0,.3-.6.3-1,.3,0,0,0-.1-.1-.2h0c.3.1.7,0,.9-.2ZM31.2,39.3c0,0,0,0,0,0,0,0,0,0,0,0ZM31.3,37.5c0,0-.1.1-.2.2-.4,0-.1-.1,1.6-.8l.8-.3c-.8.4-1.7.8-2.1,1ZM28.8,42.8c0-.2-.2-.3-.3-.5l.3.5ZM29.4,44.2c-.2.5-.4,1-.6,1.5,0,0,0,0,0-.1.2-.5.4-.9.6-1.4ZM27.6,50.5v.8c0,0-.1-.4-.2-.7,0,0,0-.1,0-.2h0ZM30.2,54.1s0,0,0,0c0,0,0,0,0,0,0,0,0,.2,0,.2,0,0,0-.1,0-.3ZM29.5,45.7c0,0,0-.1,0-.2,0,0,.1,0,.2,0,0,0,0,0,0,0l-.2.2ZM33.1,46c.4,1,.7,2.1.7,3.3,0,0,0,0,0,0-.2-1.1-.4-2.2-.7-3.3ZM35,51.9c0,0,0-.2,0-.3,0-.5.2-1.2.4-1.7,0,0,0,0,0,0,0,0,0-.2,0-.2,0-.2.2-.3.3-.4.2-.2,0-.2.3-.2,0,0,0,.1,0,.2-.6.3-1.2,1.9-.9,2.5-.2.1-.3.3-.3.3,0,0-.1,0-.2.1,0-.1,0-.2,0-.4ZM37.9,57.2s0,0,0,0c0,0,0,.1,0,.2h0c0,0,0-.1,0-.2ZM37.1,48.6c0-.1,0-.3,0-.4v.2c0,0,0,.1,0,.2ZM39.2,46.7h.2s0,0,0,0c0,0-.1,0-.2,0ZM41,49.7h0c0,.1,0,.1,0,.1,0,0,0,0,0,0,0,0-.1,0-.2,0,0,0,0,0,.1-.1ZM42,57c0-.1.1-.3.2-.4v.6l-.2-.2ZM42.7,55.1h.2c0,0,0-.1,0-.2h0c0,.1.1.4.2.5l-.3.3c0-.2,0-.4,0-.6ZM54.2,55.1v.3-.2s0,0,0-.1ZM53.8,45.3c0,0,0-.1,0-.2,0,0,0,0,.1.1,0,0,0,0,0,0ZM43.1,37.4c0,0,.1.1,0,.1,0,0,0,0,0-.1ZM42.3,39h-.2v-.2c0-.1,0-.3,0-.5,0,0,0,0,0,0,0,.2,0,.4,0,.7ZM37.1,39.7c-.2-.4-.2-.7,0-.7,0,.2,0,.5,0,.7ZM38,41.5c0,0,0,.2-.1.3s0,0,0,0c0,0,.1-.2.1-.3ZM36.4,42.2h0s0,0,0,0c0,0,0,0,0,0ZM35.8,37.9c-.4,0-.8,0-1.1.1-.4.1-1.7.6-2.2.9h-.4c-.1.2-.4.4-.6.6,0,0-.1,0-.2,0,0,0,0,0,0-.2-.1-.4,2.9-1.6,4.2-1.7h.5c0,.2,0,.3-.1.4ZM34.9,34.4s0,.1,0,.2c0,0,0-.1,0-.2,0,0,.1,0,.2,0ZM26.6,33.9c0,0,0,.1.1.2h-1v-.2c.3.1.6,0,.9,0ZM27.2,50.6v1s-.1,0-.2,0v-1h.2ZM26.4,53.8s0,0,0,0c0,0,0,0,0,0,0,0,0,0,0,0ZM27.6,57v.3c0-.3,0-.5,0-.3ZM27.6,57.5h0c0,0,0,0,0-.1,0,0,0,0,0,0h0c0,0,0,0,0,.1,0,0,0,0,0,0ZM28.9,58.1c0,0,0-.1,0,0,0,0,0,0,0,0,0,0,0,0,0,0,0-.1.1-.3.2-.5,0,0,0,0,0-.1,0,.1,0,.2.1.3-.3,0,0,.5-.3.5,0,0,0,0,0,0ZM28.9,55.6s0,0,0,0c0,0,0,0,0,0,0,0,0,0,0,0ZM30,56.2c.2-.2.2-.7.3-.7v.2c0,.2-.2.4-.2.7h-.2s0,0,0-.1c0-.1,0-.2,0-.2ZM33.9,50.2c.3,0,.7.1.7.1,0,0,0,0,0,0-.2-.1-.5-.2-.7-.2ZM35,53.1v.2c0,.3,0,1.1,0,1.7v-2ZM36.1,57.4s0,0,0,0c0,0,0,.1,0,.2v-.2ZM36.3,56.8c0,.2,0,.5,0,.7,0,0,0-.4,0-.7ZM38.9,57.4c-.1,0,0,.3-.3.4-.1,0-.2,0-.3,0,.1,0,.3-.3.4-.7h.2c0,0,0,.1,0,.2ZM43,57.3s0,0,0,0c0,0,0,0,0,0,0,0,0,0,0,0ZM44.5,59.7s0,0,0,0c-.3.4-.7.9-1.1,1.3.3-.4.7-1,1-1.3ZM50.6,58.4s0,0,0,0c0-.2,0-.4,0-.6,0-.3,0-.5,0-.6.2.2.2.6.2,1.1v-.7c0,0,0-.3,0-.4.1.1.2.3.3.6-.2.3-.2.6-.2.8,0,0,0,0,0,0ZM53.3,60.9c0,0-.2.1-.3.3,0,0,0,0,0,0,0,0,.2-.2.3-.2ZM53.8,56.6c0-1-.2-1.8-.5-2.6v-.7s0,0,0,0c.2.3.2.6.2,1,.1.4.3.7.4.9,0,.5.2,1.1.3,1.6,0,0,0,0,0,0,0,0,0,.1,0,.2l-.3-.3ZM54.5,55.2s0,0,0,.1c.4-2.1.4-4.3.4-6.3-.2-.5-.3-1.1-.5-1.6v.7c0-.1,0-.3,0-.4,0,0,0-.2,0-.4-.1-1.2-.4-2.4-.7-3.5.5,1.2.9,2.5,1.2,3.8-.2.5-.2.8,0,1,.3,2.1,0,4.6-.3,6.7ZM57.9,50.4s0,0,0,0v-1s0,0,.1,0c0,.3-.1.7-.1,1ZM60.6,55.9c0,0-.2,0-.3,0,0-.3,0-.7.2-.8,0,0,.2,0,.2,0,0,.2-.2.4-.2.8ZM61.2,51.8h0s0,0-.2-.2c0,0,.1-.2.2-.3h0c-.1.4,0,.5,0,.5ZM61.1,50.4s0,0,0,0c0,0,0,0,0,.1,0,0,0-.1,0-.2ZM57.5,57c0,.2,0,.4-.1.5,0-.2,0-.4,0-.5,0-.2.1-.5.2-.7,0,.1.1.3.1.4-.2.4-.2.6-.2.3ZM61,54.4c0,.1,0,.2,0,.4,0,0,0,0,0,0,0-.1,0-.3,0-.4ZM61,54.9h0c0,0,0,.1,0,.2h.2v.2c-.1.2-.2.3-.2.5,0-.2,0-.4,0-.5,0,0,0-.2,0-.3ZM61.2,47.7s0,0,0,0c0,.1,0,.2,0,.3,0,0,0,0,0,0v-.7c0,0,0,.2,0,.4,0,0,0,0,0,0,0,0,0,0,0,0,0,0,0,0,0,0ZM37.7,36.8c0-.1,0-.2,0-.2,0,0,0,0,0,0h1.5c1.1.2,2.3.2,3.4.2,0,0,0,.1.1.2h-3.7c-.3,0-.7-.2-.7,0v.2h0c0,0-.1,0-.2,0h.2c-.5,0-.7-.2-.7.3.5.2.9.4,1.3.7-.4-.2-.9-.4-1.3-.5h-.2c-.2,0-.3-.2-.3-.3s-1.5-.3-1.5-.3c0,0,.3.3,0,.3s-.1,0-.2,0v-.2c-.2-.5,1.1,0,1.5,0h.3c.3-.1.5-.2.6-.3-.2,0-.4,0-.7,0-1-.1-1-.2-1.5-.4v-.4s0,.1.2.1c0,.5,1.1.7,1.6.7ZM36.1,35c-.1.1-.2.3-.3.5-.2.3-.4.3-.7.4.2-.1.3-.3.3-.7.3-.2.5-.7,0-.7,0,0,0,0,0,0,0,0,0,0,0,0h.2c.2,0,.3,0,.3.2-.2.3-.2.7,0,.7,0,0,.1-.2.2-.2,0,0,0,0,0,0ZM35.4,33.9s0,0,0,0c0,0,0,0-.1,0,0,0,0,0,0,0,0,0,0,0-.1,0,.1,0,.2,0,.3,0ZM33.8,34.2h-.2s0,0,0,0c0,0,0,0,0,0,0,0,0,0,.1,0ZM25.6,37.7s0,0,0,0c-.4.2-.8.5-1.1.4,0,0,0,0,0,0,.4,0,.8-.3,1.2-.5ZM22.2,38.2s0,0,0,0c0,0,0,0,0,0,0,0,0,0,0,0ZM14.4,52s0,0-.1.1c0,0,0,0,0,0,0,0,0-.1,0-.2,0,0,0,0,.1,0ZM11.5,51.4s0,0,0,0c0,0,0,0,0,0,0,0,0,0,0,0ZM13.8,46.5c0,0,0,0-.1,0,0,0,0-.1,0-.2h.2c0,0-.1.2-.2.3ZM13.3,51.9c-.2,0-.4,0-.5,0,.2,0,.3,0,.5-.2,0,.1,0,.2,0,.3ZM13.6,42.3s0-.1,0-.1c0,0,0,0,.2,0,0,0,0,0,0,0ZM12.9,47s0,0,0,0c0,0,0,0,0,0ZM13.9,49.7s0,0,.1,0c0,0-.1.1-.1.2,0,0,0,0,0,0-.4-.1-1.1,0-1.6-.2.6,0,1.5.1,1.7,0ZM16.7,47.5c0,0,0,.2,0,.2,0,0,0,0,0,0,0,0,0-.1.1-.2ZM29,54.9v-.3c0,0,0,.2,0,.3,0,0,0,0,0,0ZM30.6,57.7s0,0,0,0c0,.1,0,.2,0,.3h0c0,0,0-.2,0-.3ZM31.7,57.9v.2s0,0,0,0c0,0,0-.1,0-.2ZM33.6,50.6c0-.1,0-.2,0-.3h0c0,0,0,0,.2,0,0,0,0,0,.2-.1v.4h-.2ZM35,55.6h.2c0,0-.1,0-.2.1,0,0,0,0,0-.1h0ZM42.6,63.7c-.1-.6-.1-1.2,0-1.9h0c.1-.1.2-.2.3-.3v.3c-.2.2-.3,0-.3.3v1.3c0,.1,0,.2,0,.3,0,0,0,0,0,0ZM45.9,62.3s0,0,0,0c0,0,0,0,0,0,0,0,0,0,0,.1ZM47.1,65.2c0,0-.1-.1-.2-.2.1,0,.2,0,.2.2ZM46,62.1v.2h0c0-.1,0-.2,0-.2,0,0,0,0,.1-.1v.2s0,0,0,0c0,0,0,0,0,0,.1,0,.3,0,.4,0-.4,0-.6-.1-.6-.1ZM46.9,62.1c0,0,.1,0,.2,0,.2,0,.5.1.7.2-.3,0-.6,0-.7,0,0,0,0,0-.2-.2ZM55.3,60.6c0-.2,0-.3-.1-.5,0,.2.1.3.2.5,0,0,0,0,0,0ZM60.9,56.8c0-.1,0-.2,0-.3,0,0,0,0,0-.2,0,.2,0,.5,0,.7,0,0,0,0,0,0,0,0,0-.1,0-.2h0ZM57.1,35.7s0,0,0,0v.2c0,0,0,0,0-.1ZM60.8,13.7c-.1,0-.3.2-.4.3,0-.3.1-.6.4-.3ZM51.1,23.3s0,0,0,0h0s0,0,0,0ZM37.6,33.2s0,0,0,0c0,0,0,0,0,0h.1ZM32.9,33.3c0,0,0,0-.3,0,0,0,.2,0,.3,0ZM24.8,33.7s0,0,0,0c0,0,0,0,0,0,0,0,0,0,0,0ZM21.2,37.2v-.5c.6-.1,1.1-.4,1.6-.7,0,.2.1.3.4.4h0c0,0,.1,0,.2,0l.4-.2h0s.8-.6.8-.6c0,0,0,.1-.1.2l-.6.4h.3c-.2,0-.4.2-.6.2h-.2c0,.1,0,0,0,0-.5.2-1,.4-1.5.6-.2.2-.4.3-.6.3,0,0,0-.1.1-.1ZM19.5,41.4c0,0,0,.1,0,.2h-.6s0,0,0,0c.2,0,.4,0,.6,0ZM18.3,39.3s0,0-.1,0h.1c0,.1.1.3.2.4-.5.6-1,1.7-.7,2.3,0,0-.1,0-.3,0,0,0,0,0,0,0-.1-.9.2-1.8.7-2.6l-.2.2s0,0-.1,0c0-.1.2-.2.3-.3,0,0,0,.1.1.2ZM16.4,41.6h0c0,0,0,.2-.1.3,0,0,0,0-.1,0-.3,0-.4-.1-.6-.2.3,0,.6,0,.8,0ZM12.5,45.7s0,0,0,0c0,0,0,0,0,0,0,0,0,0,0,0ZM15.9,54.3h0c0,0,0-.1,0-.2v.2ZM16,50.9c0-.1,0-.2,0-.4h.2s0,0,0,.2c0,0-.2.1-.2.2ZM23.1,54.3s0,0,0,0c0,0,.1-.1.2-.2h0c0,0,0,0,0,.2,0,0-.1,0-.2,0ZM24.5,53.2s0,0,0,0h0c0,0,0,0,0,0ZM25.4,54.1h0c0-.5-.2-1.4.2-1.5v-.3h-.2c0-.1,0-.1,0-.2v-.2c.3-.3.5-.6.7-.8,0,.1.3,0,.5-.1-.3.3-.5.6-.6.9l-.4.4.3-.2c-.3.2-.3.3,0,.3v.7c-.5-.2-.5.3-.5,1ZM26.4,54.2c0,0,0-.1,0-.2h0s0,0,0,0c0,0,0,0,0,0,0,0-.1.1-.2.2ZM29.6,58.5s0,0,0-.1c0,0,0,0,0,0,0,.1,0,.3,0,.4,0-.2-.1-.3-.1-.4ZM31.2,59.7c0-.3-.2-.6-.4-.9.1,0,.3-.1.3-.3.2.4.7.9.7,1.2v.3c-.2,0-.4-.2-.6-.4ZM33.6,55.8c0,0,0-.2,0-.2.2,0,.3.3.3.6,0,0,0,0-.2-.1,0-.1,0-.2-.2-.3ZM35.5,60.2h.1v.2c0,0,0-.1-.1-.2ZM47.3,62.4c.4,0,.7,0,1,0v.2c0,0-.5-.2-1-.3ZM51.3,63.1c0-.2-.1-.5-.2-.7,0-.3,0-.7,0-1,.2.4.3.7.3,1.1.1.3,0,.5,0,.6ZM57.9,64.3s0,0,0,0h0s0,0,0,0ZM59.3,62.1c-.2.5-.5,1-.7,1.5,0,0-.2,0-.2.1,0,0,0-.2,0-.3.2-.4.3-.6.2-.7.2-.3.3-.7.5-.9-.3-.3-.2-.6-.3-.9.2,0,.4.2.6.3,0,.5,0,.7.2.8h0c0,.1-.3.1-.3.1ZM61.9,63.6s0,0,0-.1c0,0,0,0,0,0h-.1ZM66.3,64.2c.3-.2.7-.4,1-.7v-.5c.2,0,.3,0,.4-.1,0,0,.1,0,.2,0-.1,0-.3,0-.4.1l.2.2c-.1.2-.2.3-.4.5-.2,0-.4,0-.5.3l-.5.3h0ZM71.2,66.2s0,0,0,0c0,0,0,0,0,0,0,0,0,0,0,0ZM72.5,64.9s0,0,0,0c0,0,.1,0,.2,0,0,0-.1,0-.2,0ZM73.6,61.2h-.2c0-.1,0-.2,0-.2.4-.3.6-.8.8-1.4-.2.5-.4,1.1-.6,1.6ZM70.9,55.2c.2-.6.4-1.3.5-2.1-.1.8-.3,1.6-.5,2.4,0,0-.1,0-.2,0,0,0,0,0,0,0,0,0,0,0-.1,0l.3-.3ZM70.4,56.2s0,0,0,0c0,.1,0,.3,0,.4,0,0,0,0,0,0,0,0,0,0,0,0,0,0,0,0,0-.1v-.3Z"/>
  <path class="st0" d="M61.9,36.5h-.2c0,0,.1,0,.2,0,0,0,0,0,0,0Z"/>
  <path class="st0" d="M13.1,43.1s0,0,0,0c0,0,0,0-.1,0h.2Z"/>
  <path class="st0" d="M28.2,65.4s0,0,0,0c0,0,0-.3,0,0Z"/>
  <path class="st0" d="M13.8,41.9c0,0-.2,0-.3-.1,0,0,0,0,0,0l.3.2Z"/>
  <path class="st0" d="M25.6,52.6l.3.5c0-.2,0-.5-.3-.5Z"/>
  <path class="st0" d="M21.1,56.5s0,0,0,0c0,0,0,0,0,0Z"/>
  <path class="st0" d="M21.5,56.2c0,0-.1,0-.2.1,0,0,.2-.1.2-.1Z"/>
  <path class="st0" d="M21.1,56.5s0,0,0,0h0Z"/>
  <path class="st0" d="M21.3,56.3c0,0-.1,0-.2.1,0,0,0,0,.2-.1Z"/>
  <path class="st0" d="M53.5,36.5h.1c0-.1,0,0-.1,0Z"/>
  <path class="st0" d="M39.1,36.8h-.8s0,0,0,0c.5,0,.6,0,.9,0Z"/>
  <path class="st0" d="M25.9,52.4c-.3,0-.2.2,0,0h0Z"/>
  <path class="st0" d="M17.1,44.1h0c0,.1,0,0,0,0Z"/>
  <path class="st0" d="M17.1,44.1v-.2c0,0,0,.1,0,.2Z"/>
  <path class="st0" d="M32.7,44.6h0s0,0,0,0Z"/>
</svg>