<?xml version="1.0" encoding="UTF-8"?>
<svg id="Layer_1" xmlns="http://www.w3.org/2000/svg" version="1.1" viewBox="0 0 90 68">
  <!-- Generator: Adobe Illustrator 30.0.0, SVG Export Plug-In . SVG Version: 2.1.1 Build 123)  -->
  <defs>
    <style>
      .st0 {
        fill: #403f3e;
      }

      .st1 {
        display: none;
        fill: none;
      }
    </style>
  </defs>
  <rect class="st1" width="90" height="68"/>
  <g>
    <path class="st0" d="M69,7.9c-1.3,5.1-4,10.8-7.3,15s-4,3.9-5.8,4.5-1.9.4-2.7.4-.3,0-.3.3c0,.2-.3.1-.4,0-.3.1-.5.2-.7,0-.5.4-1.2.4-1.8.3,0,0-.2.1-.3.1h-.1c-.7.2-1.3.2-2,.2l-.3-.2c0,0,0,.2,0,.2-.7.2-1.3.3-2,.3l-.2-.2c-.1.2-.4.2-.8,0-.4,0-.7,0-.9,0,.3.4-.1.4-.3,0-.7,0-1.4,0-2.1-.1-.3,0-.6,0-.9,0h0c-.4-.3.1-.5.4-.6.4-.5,1.1-1.5,1.7-1.7s.4,0,.5,0c-.2,0-.3-.3-.1-.5l5.1-5.1c.4,0,.5-.2.4-.3,1.7-2.1,3.9-4.3,6.1-5.9.2.1.3,0,.2-.1,1.2-1,2.6-1.9,4-2.6.5,0,.6,0,.5-.3,2.8-1.7,6-3,9.2-3.9.2-.2.7-.3.9,0Z"/>
    <path class="st0" d="M26.2,9.7s.1,0,.2,0c1.1.1,3.3,1.7,4.3,2.3,2.9,1.9,6.7,4.4,8.5,7.5s-.1,3-1.1,4.9l-1.7,2.2c-.1.4-.7.6-1.1.5v.2c-.4.1-1.6.2-1.8-.1-.2,0-.4-.4-.3-.6-.6-.6-1.1-1.6-1.5-2.4,0-.3,0-.4-.2-.4l-2.2-4.3c0,0,0-.2,0-.3-.3-.2-.7-.7-.5-1,0-.3,0-.4-.3-.5,0,0-.1,0-.2-.1-.4-.3-1.7-3.8-2-4.5s-.4-1.9-.5-2.9,0-.2.1-.3Z"/>
    <path class="st0" d="M69,7.9c-.2.1-.5,0-.7,0s0,.1-.1.2c-1.7.5-3.5,1-5,1.8s-2.8,1.2-4.2,2c0,.2.4.1.5.2.2,0,.8.4,1,.5,1.1.3,1.9.4,3,0s.8-.4,1.1-.5.4,0,.5,0c-.1.3-.5.3-.7.4s0,.1-.2.2c-1.3.6-2.2.8-3.6.3s-.8-.5-1-.5c-.6-.2-1-.3-1.6,0s-1.8,1.1-2.5,1.6-.7.4-1,.7l.9,1.6c.5.3,1.2.5,1.8.4,1-.2,2.1-.9,3.1-1.2s.5-.1.7-.2.3,0,.3,0c-.1,0-.3,0-.4,0-1.2.7-2.1,1.1-3.5,1.4s0,.2-.2.2c-.2,0-1,0-1.2,0s-.1-.1-.2-.2c-1-.5-.9-1-1.5-1.8s-.4,0-.6.2c-1.1.7-1.8,1.5-2.7,2.4s-1.9,2-2.9,3l.5.5c.5.3,1.2.6,1.8.4s.1-.2.2-.3c.9-.5,1.7-.8,2.6-1,1.6-.5,3-1.3,4.5-1.9.8-.6,1.6-1,2.4-1.6,0,0,0,.2-.1.3-1.4,1.2-3,2-4.6,2.7s-.7.3-1.1.5c.2.1.5.3.7.4s.5.5.6.5c.8.4,1.8.3,2.7,0s.5-.3.9-.4.3-.1.3,0c-.2,0-.3.2-.4.3-1,.5-2.4.9-3.5.4s-.8-.7-1.1-.9c-.5-.3-1,0-1.5,0s0,.1-.1.2c-.6.2-.8,0-1.4.4s-.5.2-.7.4l1.2.3h.5c0,.3,0,.2-.2.2-.3,0-2.8-.1-3.2-.2s0-.1-.1-.2c-.5,0-.8-.8-1.2-.7l-5.2,5.2c0,.2,0,.1.2.1,1.1,0,3.2.2,4.3,0s0-.1.1-.2c.5-.1.8-.2,1.3-.3,1-.3,2.1-.7,3.1-1s.5,0,.7,0c.1,0-.2.2-.2.3-.2,0-.6.3-.7.4-.2,0-.6.1-.9.2,0,0,.3.4.4.5.2.2.7.5.9.5.6,0,.7-.4,1.1-.7s.6-.6,1-1c.6-.6.6-.6,1.4-.9s1.1-.4,1.6-.5.9-.2.8.2c-.2,0-.3,0-.5,0-.6.1-1.6.4-2.1.7-.8.4-1.4,1.3-2.1,1.9s-.8.9-1.6.5-.7-.5-.8-.6c-.3-.2-.1-.5-.7-.3-1.6.7-3.4,1.1-5.2,1s-2.1-.5-2.8,0-.8.8-1,1-.3.4-.4.5-.5.1-.5.4c0,0,0,0,0,0-.3,0-1-.1-1-.4-.3-.1-.2-.5,0-.7,0,0,0,0,0,0,0-.2,0-.3.2-.5s.8-.8,1.1-.8c1.6-1.6,3.4-3,4.9-4.6,3-3,5.8-6.3,9.3-8.7s1.8-1,2.1-1.4c.3-.4.8-.6,1.2-.7.1-.3.5-.4.8-.4.4-.2,1.2-.6,1.6-.8,2.7-1.2,5.4-1.9,8.3-2.4.5,0,.6,0,.5.5Z"/>
    <path class="st0" d="M51.8,28.1c.2,0,.6-.2.8-.2s0,.1.3.2c.7.2,1,.3,1.7.5,1.9,1.4,2.5,3.8,2.5,6.1l.2.4c0,.6,0,1.2,0,1.7,0,.6,0,1.2,0,1.8,0,.5-.2.9-.4,1.4v.2c0,.3-.1.5-.3.8.1.4,0,.6-.2.7,0,.4-.2.7-.4,1,.2.2,0,.9-.4.9v.3c-.2.4-.5.8-.9,1.2v.2c-.2.2-.5.3-.7.4-.4,0-.9,0-1.3,0-.8.1-.4-.4,0-.6.1-.3.3-.6.4-.9h.2c0-.1,0-.2,0-.2,0-.6.3-1.1.5-1.7,0-.4,0-.9.3-1.2,0-.4,0-.8.2-1.1,0-.2,0-.6,0-.8,0-.3,0-.7,0-.9v-1.1c0-.5,0-1-.2-1.4.1-.1.2-.3.2-.6-.2-.6-.4-1.3-.5-2v-.2c.1,0,0-.2,0-.2-.3-1.6-.8-3.2-2-4.3v-.3Z"/>
    <path class="st0" d="M43.5,37.8c.2,0,.4.2.6.4l.6,1.2c0-.3,0-.7-.2-1v-.2c.1-.3.3-.3.7,0h.7c.4.5,1,.7,1.6.8.5-1.3,1.8-.4.7.4v.3c0,1.4.5,2.7,1.1,3.9.3-.5,1.1-.5,1.4,0s.2.6-.2.6c-.7-.5-1,.6-1.1,1.1s-.1.5-.1.7c.1,1.1.3,2.2.5,3.3.3,1.6.9-1.5.7-1.8,0-.2.2-.3.3-.2v1.5c0,.6-.3,1.2-.3,1.8,0,.2-.2.2-.4.2-.2,2.3-.3,4.9.7,7.1.2.4.2,1.1-.3.9-.3-.5-.5-1-.7-1.5-.3-3.5-.8-7.1-1.2-10.6-.3-.3-.4-1.2-.2-1.6,0,0,0,0,0,0l-.2-.3c.1,0,.2-.2.1-.4,0-.3-.2-.6-.3-.9,0-.1.1-.3.1-.5,0-.2-.1-.4-.1-.7-.2-.2-.2-.4,0-.8-.2-1.1-1.4-.1-1.7.6h0c0,.3,0,.3-.2.3-.4.6-1.1.7-1.7.4-.5,0-1.1-.9-1.1-1.3-.2-.4-.4-.8-.3-1.2l.2-.2h.2c0-.8,0-1.4.1-2h.2Z"/>
    <path class="st0" d="M46.8,36.7c0,.2.1.5,0,.8.5,0,.9.2,1.2.4.5-.1,1.7.3,1.5.9v.4c.2.5.3,1,.3,1.6l.2.2c.2.6.9,2.4.7,2.9s0-.2,0,0h.2c0,.6-.1,1.1-.2,1.6.3.2,0,.7-.2.9l-.2,2.5c0-.3,0-.8,0-1.1s0-.3,0-.3c0,.5.1,2.6-.7,2.5s-.4-1.1-.4-1.3c-.2-1.6-.8-2.6,0-4.1s0-.3.1-.4.5-.3.6-.3c.1,0,.5.4.5,0s-.5-.5-.8-.5-.4.4-.6.5c-.5-1.1-.9-2.1-1.1-3.3s0-.6,0-.9-.1-.2-.1-.3c0-.3.6-.4.5-.7-.2-.6-.5,0-.7.2s0,.3-.4.2-1.1-.4-1.1-.4c-.1,0-.1-.2-.3-.3s-.5,0-.7,0-.4-.3-.5-.2c-.2,0-.4-.2-.5-.5-.3-.1-.3-.3-.2-.5,0-.3.4-.3.8-.2l.9.3c0,0,0-.2,0-.2-.3-.5.8-.6,1.1-.4Z"/>
    <path class="st0" d="M58,31c1,1,1.8,2.1,2.5,3.3.5,1.8.2,4-.3,5.7l-.2.2c.2,0,0,.4-.1.4v.2c0,.1,0,.4-.2.4,0,.9-.5,1.7-1,2.4v.2c-.1.2-.3.3-.4.5,0,.2,0,.4-.3.4v.3c-.2.2-.5.3-.7.5,0,.3-.3.5-.5.5-.4,0-.9-.2-1.3-.3-.5-.1-.4-.4,0-.5l.6-.6h.2c.1-.2.3-.4.5-.7,0-.4.5-1,.8-1.3h0c.1-.4.3-.7.4-1,0,0,0,0,0,0,.1-.4.2-.8.2-1.3h.2c0-.6.1-1.1.1-1.6l.2-.2c-.2-.4-.1-.8,0-1-.1-.1-.2-.3,0-.4,0-2-.1-3.8-.9-5.7v-.4Z"/>
    <path class="st0" d="M26.2,9.7c0,1.8.5,3.4,1.1,5s.9,2,1.3,2.9c.2,0,.3.2.3.5.3.6.5,1.3,1.3.7s1.8-2.3,3.1-2.6h.7c-1.2.3-2.1,1.1-2.8,2.1,0,0,.6-.1.7-.2s0-.2.2-.2c.7,0,1.6.1,2.2,0s.8-.4,1-.6.7-.3.7-.3c.2.1-.1.2-.2.2-.7.4-1.3,1-2.1,1s-1-.2-2,.2-.8,0-.9,0-.6.6-.7.7c-.2.1-.4,0-.6,0l2.2,4.5c0-.6.9-1.4,1.1-1.8s0-.4,0-.6.3-1.4.4-1.5.2,0,.2,0c-.2.6-.4,1.3-.4,1.9.5-.3,1.2-.2,1.7-.5s.9-.9,1.1-1.1.2-.5.5-.6c0,.3,0,.4-.2.6s-1,1.3-1.2,1.4c-.4.2-1,.1-1.3.2s0,.1-.1.2c-.4.2-.6.3-.9.7s-.7,1.1-.7,1.2c0,.4,1.1,2.1,1.3,2.6.2-.8.6-1.5,1.3-1.9s.3,0,.4-.2c.3-.2,1.3-.9,1.4-1.1s.2-.9.2-1.2c.3,0,0,.6,0,.7l.9-1.1,1.2-2c0,.5-.4,1.1-.6,1.5-.5.9-1.3,2.2-2.1,2.8s-1.8,1-2.2,1.5-.4,1-.5,1.1c0,.2.2.3.2.5-.3.2-.6.2-.9,0,0,.1-.1.1-.4,0,0,.2-.1,0-.2,0-.9-2-1.7-4-2.6-6-1.3-3-3.5-6.9-3.6-10.2s0-.9,0-1.1.2,0,.2,0Z"/>
    <path class="st0" d="M38.6,38c-.4-.4.5-2.3.9-1.4,0,.1.2,1.7.3,1.6s0-.9,0-1c-.3-1-.4-2.2.7-.8.1.2.5.7.3.9,0,.1.1.2,0,.2.6,1.9,1.1,3.9,1.5,5.9.7,0,.6.5.4.9-.6-.2-.6.4-.5.9.5,1.6.4,3.4.2,5-1,1.1,0,3.8,0,.6.3-.3.4-.1.5.2,0,.7-.1,1.2-.6,1.8s-.7.7-.9,0c-.4-1.1,0-1.7.3-2.6,0-.5,0-1,0-1.5,0-.2,0-.4,0-.6v-1.5c0-.2-.1-1.1-.2-1.1s-.7,0-.6-.4c0-.2.2-.2.4-.2.2-.2-.2-1.7-.3-2v-.3c-.3-.5-.4-.9-.3-1.4h-.2s-.3-.8-.3-.8c-.4,0-.8,0-1.2,0v-.2c-.5-.5-.7-1.5-.5-2.1Z"/>
    <path class="st0" d="M48.4,46.7c-.2.1-.5.1-.7.2s0,.1-.1.2c-.6.2-1.5,0-2.1.1-.5,2.1-.7,4.1,0,6.2s.6,1.5.6,1.8c0,.5-.5.2-.5.2s0,.5-.3.4-.4-1-.4-1.2c-.8-2.7-1-5.3-.9-8.1,0,0,0,0,0,0,0,0,1.1.2,1.2.3.3,0,.6,0,.8-.2,1,0,1.6-.4,2.1-1.3h.2c0,.5.1,1.1.2,1.6Z"/>
    <path class="st0" d="M37.8,26.4h1.9c.5.3-.5,1-.7.6-.3,0-.5,0-.8.2-.2-.1-.5,0-.7,0,0,.1,0,.2-.2.1,1.3,0,0,.5-.6.5-.5.3-1.1.5-1.7.6.4.8.6,1.6.7,2.4h-.2c.3.2.2,1.7,0,1.8s0,0-.1,0c.1.2.1.4,0,.7.1.2.2.3,0,.4,0,0,0,0,0,0,0,.2-.1.4-.4.4,0,.3,0,.5-.3.6-.1.4-.2.5-.4.2.4-.8.7-1.7.9-2.5h-.2c0-.6,0-1.2-.2-1.7h-.2c-1.4,1-1.5,0-.5-.9,0-.4-.7-.1-.9,0-.9,1.2-1.8.4-.6-.5-.5.3-1.5.6-.9-.3-.2-.2-.1-.6.2-1l-.7.5c-.3,0-.5-.2-.2-.4,0-.4.5-.9,1-.9,0-.3.3-.2.5-.1h.1c.3,0,.6,0,.9,0,.7,0,1,.1,1.8,0,.4,0,.8-.1,1.2-.4.6,0,.7-.1.4-.1.2-.1.6-.2.9-.2Z"/>
    <path class="st0" d="M62.6,38.9c.2.8.2,1.6,0,2.4s-.4,1.8-.9,2.2c.2.4-.4,1-.7,1.2.1.2,0,.5-.2.5-.1.2-.2.4-.4.4.1.3-.3.7-.6.6.2.2,0,.4-.3.4-.4-.1-.9-.2-1.3-.4,0-.4.4-.6.7-.7,0-.3.4-.8.6-.9,0-.4.2-.5.4-.5-.2-.2,0-.5.3-.5-.2-.2,0-.4.2-.4,0-.2,0-.2,0-.2v-.2c.3-.9.5-1.8.7-2.7l.2-.2c-.2-.3,0-1.1.3-1.3-.3,0-.3-1.2,0-1.3-.3,0,0-.9,0-.9s0,0,.1,0c.3.7.5,1.5.7,2.2Z"/>
    <path class="st0" d="M63.1,41.6c.4,2.2.6,4.3.7,6.5-.1,0,0-.1-.2-.2-.7-.3-1.4,0-2-.2s-1.2-.5-1.5-.6c-.2-.2,0-.5.3-.4,0-.2,0-.2.3-.3.2-.4.4-.6.6-.5,0-.3.2-.7.5-.8.2-.2.3-.4.2-.6h.2c0-.4.1-.6.1-.8l.5-2,.2-.2Z"/>
    <path class="st0" d="M23.8,38.5h.2c0,.9,1.1,2.9,1.8,3s.7-1.7.7-2.1h.2c0-.1,0-.7,0-.7,0-.4-.2-1.3.2-1.5,0-.2.4-.3.4,0,0,0,0,0,.1,0,.2,0,.4,1.6.2,1.7.2,0,.2.1,0,.2,0,.3,0,.5.1.6v1.3c-.1.2-.1.4-.2.6.1,0,.3,0,.4,0,.7-.3,1.2-.7,1.8-1.1h.2s0,0,0,0c0,.1-.1.2-.2.3-.3.4-1.9,1.4-2.3,1.6-.8.3-2,.3-2.7-.4-.9-1-1.5-3.7-1.4-5,0,0,.2,0,.2,0,0,.2.2,1.1.2,1.4Z"/>
    <path class="st0" d="M54.6,28.6c.5.2,1.1.4,1.6.7s1.3,1.1,1.9,1.7c.8,2,1.1,4,.9,6.1h-.1c0-.8-.1-1.6-.2-2.5v-.9c0,0-1.3-.2-1.3-.2,0,.4,0,.7,0,1.1h-.2c-.2-1.4-.4-3-1.2-4.3s-1-1.1-1.3-1.7Z"/>
    <path class="st0" d="M35.1,34.1c.3-.5.8.5.9.8s0,.3,0,.4h.2c.4,1.7.8,3.4,1,5,.2,0,.4,0,.4.2.2.1.2.3,0,.4.2.9-.4.9-.3,0,0,0-.2-.1-.2-.1-.3.2,0,1.8.2,2.1v3.3c.2.2.4.4.2.8,0,0-.5,0-.5,0s-.1-.7-.2-.9c-.1-.9,0-2.3-.4-3.1,0,0,0,0,0,0,0,0,0,0,0,0v-.7c-.1,0,0-.1,0-.1l-.2-1.1.2-.2c-.2-.1-.3-.4-.2-.8-.5-.5-.6-1.3-.6-2-.3-.1-.5-.7-.3-1-.4-.6-1-1.6-.6-2.2.2-.1.4,0,.6.5-.3-.4-.4-.7-.4-1.1Z"/>
    <path class="st0" d="M32.7,27.1c0,.7-.2.1-.3,0-.2-.1-.1.2-.2.2s-.3,0-.5.1-.5.6-.6.7c-.3.3-.7.5-1.2.6v.3c-.1,0-.1.2-.1.2-.6.6-.8,1.3-.8,2.1v.2c-.2.3-.6.2-.6,0,0-.5,0-.9-.3-1.3-.4.4-.7.9-.9,1.5h-.2c-.3.3-1.1-.2-1.1-.5.4-.4.6-.9,1-1.3,1-1.2,3.7-2.8,5.3-3s.3,0,.5,0Z"/>
    <path class="st0" d="M39.8,44.1c.2,0,.3.1.5.3.3.2.5.4.5.6,0,.7-.4,1.6-.4,2.2s.3,1,.2,1.3-.6,1.2-.7,1.4-.1,0-.2,0-.5-.8-.5-.9c0-.1-.2-1-.2-1.1,0-.2.3-.7.4-1,.2-.8.2-1.9.4-2.7v-.3c0-.3.3-.2.2,0Z"/>
    <path class="st0" d="M25,32.6c-.4-.2-.8-.2-1.2-.4-1.2-.4-4.3-2.3-5.2-3.4s-.6-.7-.4-1.2.8-.6.9,0,0,.5.1.8.3.1.4.2c1.7,1.6,2.9,2.3,5.1,3.1s.3.3.5.3c.3.2,0,.7-.3.6Z"/>
    <path class="st0" d="M25.7,32.1c.3.3.6.5,1,.6.3.3.4.6.2,1.2.1-.3.3-.4.5-.5.2-.3.7-.2.9.2s-.2,1.2-.5,1.2c0,.3,0,.8-.4.9-.2,0-.3-.2-.2-.4-.1,0-.3-.1-.4-.2-.2.4-1,.4-.8-.2v-.2c0-.5.2-1,.2-1.5l-.5,1.3c0,0-.1,0-.3,0-.4,1-.8.5-.6-.3,0,.1-.1.1-.2,0-.1.6-.3,1.2-.5,1.8h-.2c0,.3,0,.7-.4.5.1-.8,1.2-3.3,1.6-4.1s.3-.1.3-.6,0,0,0,0c.2-.1.3,0,.3.2Z"/>
    <path class="st0" d="M41.1,35.1c.2.3.2.7.2,1.1.3,1.6.3,1,.2,0,.3-.4.7.3.4.5.1,0,.2.1.3.3.3.6.4,2.1.4,2.8s0,.1,0,.2c.2.3.2.7,0,1.1l.2.2c0,.8,0,1.7.2,2.5v.2c-.1.5-.1.9,0,1.3,0,.3,0,.5-.2.7,0,1.7,0,3.4.2,5.1l-.4-.3c0,.4,0,2-.7,1.6s-.2-1.5,0-1.8.2-.2.3-.4c.2-.4.1-3.2,0-3.8,0-.9-.6-1.5,0-2.4l.3.2.2-.5c-.2-.2-.4-.2-.7-.1-.4-2.2-.9-4.4-1.7-6.5,0-.4.2.2.2.2,0,0,.2,0,.2,0,.3-.7,0-1.5-.4-2.1v-.2c.2-.3.8-.3.8,0Z"/>
    <path class="st0" d="M61.9,36.7h0c0,.3-.1.7-.1.8v1.3c0,.3-.2.9-.3,1.3-.1,0-.3,0-.4-.1-.4.4-.7.5-.9.2.5-1.8.6-4,.4-5.9.5.8,1,1.5,1.3,2.4Z"/>
    <path class="st0" d="M50.3,50.6c0,.2,0,.6,0,.7v3.5c0,.2.1.9.2,1.1.3.9,1.7,2.2.5,3.1s-.4,0-.6-.3c.1,0,.2-.2.3-.3,0-.3-.5-1.4-.6-1.8-.3-1.3-.4-3.3-.4-4.6s.2-1,0-1.4h.6Z"/>
    <path class="st0" d="M33.8,42.2c.2-.2,1,.2,1.1.5,0,1-.6,2-.7,3s.1.3,0,.5c0,.3-.3,1.5-.8,1.1s-.2-.7-.2-.8c-.3-1.4.3-3,.5-4.4Z"/>
    <path class="st0" d="M25.4,31.9c-.7-.4-2.6-1.6-2.8-2.3s0-.7.3-.8.3.5.3.6c.1.5.6.6,1,.9.6.4.9.6,1.6,1s.7.5,1.1.6c.1-.2.7-.1.8,0,.8,0,.2,1.6-.4,1.1-.2.2-.4.1-.7-.4l-1.1-.5h0c0-.2-.2-.3-.3-.3Z"/>
    <path class="st0" d="M32.6,38.4c.2,0,.2.2.2.3.4,0,.6.4.2.4,0,.3,0,.4.2.2-.2-.3,0-.3.3,0,.3.4-.3,0,.1-.2s.2,0,.2.2h.1c0,.4.2.7.3,1,0-.8.2-.9.4-.1,0-.3,0-.4.2-.5h.2c0,.1.3,1.1.3,1.1h.1c0-.5.3-.8.3-.2.2,0,.3,0,.3.2.3,0,.4.5.3.7,0,.1,0,.3-.3.3-.3.4-.3,0-.3-.3-.2,0-.4,0-.5.4-.3.2-.1-.4-.1-.3,0,.7-.5.5-.3-.1-.1-.1-.1-.3,0-.4-.1.2-.3.4-.4.5,0,0-.2,0-.2,0,.1-.1.2.2-.2.2h-.1c-.2-1.6-.1-.4,0,.4,0,0,0,0,0,0-.3-.2-.6-.5-.9-.8-.3-.7-.7-1.4-1-2.1,0-.3.4-.3.3,0h.2c0-.4,0-.7.3-.6Z"/>
    <path class="st0" d="M39.8,42.7c.4-.7,1.1-1,1.3,0s-.1-.2,0,0c.2.8.5,1.6.4,2.5-.1,0-.6,0-.6,0s-.1,0-.2,0-.5-.4-.6-.5-.4-.4-.4-.5c0-.2,0-.3-.4-.4,0-.1-.7-.6-.8-.7-.2-.2,0-.4.2,0v-.2c.4,0,.6,0,.9,0,0,0,0,0,0,0Z"/>
    <path class="st0" d="M44.9,44.1c.2,0,.2,0,0,.2.4.1.2.5,0,.7.8.1,1.3.7.2.7.7.3.8.5.5.7v.2c-.5,0-.9,0-1.3-.2-.2,0-.4,0-.5,0-.3,0-.2-.1-.4-.2s-.5,0-.7,0c0-.2,0-.4,0-.6,0,0,.1-.1.2-.2v-.2c.7-.3,1.2-.6,1.7-1h.2Z"/>
    <path class="st0" d="M37.5,47c0-.6-.3-.5-.4-.5-.1-.2,0-3,0-3.6s-.3-.8-.3-1.6.1-.7.3-.6.3.2.3.2c0,.2-.1.6,0,.6,0-.2,0-.4,0-.6.3-.1.2.6,0,.7.3.4.3,1,0,1.3,0,.3,0,.7,0,.8v2.2c0,.1.2.9,0,1Z"/>
    <path class="st0" d="M63.1,41.6c-.3,1-.4,2-.9,2.9-.3,0-.3-.1,0-.5-.3,0-.5-.1-.4-.3.7-1.5,1-3,.9-4.7.2.9.4,1.8.5,2.6Z"/>
    <path class="st0" d="M33.8,41.6c0-.2.1-.4,0-.6v.4c0,0,.2-.2.2-.2,0,0,.1.1.1.2.1,0,.3,0,.4,0,.1,0,0,.3.1.4.2,0,0-.3.2-.3,0,.2,0,.2,0,.4.2,0,.2,0,.3.3,0-.4,0-.6.3-.6,0,.1.1.2,0,.4l.4-.4c.2,0,.3.2.2.4,0,.1-.1.2-.2.2.2.3.3.6.3.9,0,0,0,0,0,0-.1,0-.4,0-.5,0h-.1c-.4.1-.6,0-1-.1s-.8-.4-1.1-.5-.1-.1-.2-.2h0c0-.3,0-.4.2-.4Z"/>
    <path class="st0" d="M50.9,45.5c0-.4,0-.8.1-1.3.4.1.8.3,1.2.3.5,0,.7,0,.4.5,0,.3-.2.3-.4.6h.4c-.4,0-1.1.3-1.5.5s-.2.3-.4.3c0-.3.2-.6.2-.9Z"/>
    <path class="st0" d="M54.7,45.1l.3-.3c.2-.5.4-.7.6-.5.3-.2.5-.3.8-.3.7-.6.5.2,0,.6h0c-.2.3-.5.7-.7.8s-.6,0-.1.4c-.6,0-1,0-1.6,0,0-.2.2-.2.3-.3s.3-.2.4-.3Z"/>
    <path class="st0" d="M39,41.4c.2.4.2,1.3-.2,1.6,0,0-.2,0-.2,0,0,0-.4-.2-.4-.2,0-.2.1-.2,0-.1-.2.2-.1-1.6,0-1.9s.1,0,.2,0c0-1,.9-.5.6.3.1,0,.1.2,0,.2Z"/>
    <path class="st0" d="M38.5,40.9c-.2.4-.2,1.3-.1,1.8s.2.3-.1.3c-.2,0-.4,0-.5,0,0-.4,0-.9,0-1.3,0-.1,0-.2.2,0,0-.3,0-.5.2-.7.2,0,0,0,0,0,0-.1,0-.4.2-.3.2,0,.3,0,.2.4Z"/>
    <path class="st0" d="M57.4,45.5l.3-.2c.2-.4.7-.2.8.2.2-.4.7-.2.4.1-.2.2-.5.5-.7.7-.5-.1-.8-.2-1.3-.4,0-.3.3-.4.5-.5Z"/>
    <path class="st0" d="M40.3,26.4c-.2.2-.3.3-.5.4s-.8.8-.9,1c0,0,0,0,0,0-.1,0-.1-.2,0-.4,0-.2-.2-.2-.4,0-.1,0-.2,0-.2-.1-.3,0-.5,0-.5-.2.2-.2.5,0,.7,0s0-.2.1-.2c.3,0,.7,0,.9,0s.6-.2.4-.3l-1.9-.2c.8,0,1.6,0,2.5,0Z"/>
    <path class="st0" d="M32.1,38.7c.2-.3.4.4,0,.3-.2-.1-.2-.1-.2.1.2.7.7,1.4.9,2.1-.5-.6-.6-1.3-1.1-2s0,0-.2,0c-.3-.2.3-.8.5-.4Z"/>
    <path class="st0" d="M31.6,39.2c-.4.5-.9,1-1.5,1.4s0,0,0,0c-.5,0-.1-.5.1-.7s.8-.6,1-.5c.2-.4.4-.5.4-.3Z"/>
    <path class="st0" d="M23.9,38c.3,0,.2.5,0,.4l-.4-1.4c0-.1,0-.3,0-.4.2,0,.3-.3.4-.4,0,0,.2,0,.2,0s0,1.2,0,1.4c-.1,0-.2.2,0,.4Z"/>
    <path class="st0" d="M36.9,26.5c0,0,.2,0,.3,0,.1.1-.8.3-.9.4s0,.2-.2.2-.6.1-.7,0c.4-.1.8-.3,1.1-.5s.4,0,.4,0Z"/>
    <path class="st0" d="M59.8,46.4c.3-.2.6,0,.6.4-.1.1-.2.2-.3.4-.3,0-.5-.3-.6-.4,0-.2.2-.2.3-.4Z"/>
    <path class="st0" d="M57.8,11c-.3.1-.5.3-.8.4s-.2.3-.5.3c0,0,0-.2,0-.3.1-.2,1-.7,1.2-.4Z"/>
    <path class="st0" d="M57.8,11c-.3-.4.2-.3.5-.4s0-.4.3,0c-.3.1-.5.3-.8.4Z"/>
    <path class="st0" d="M35.9,43l-.3-.4c.5-.1.5.4.9.4,0,0,0,0,0,0-.2,0-.4,0-.6,0Z"/>
    <path class="st0" d="M39.8,44.1s0,0,0,0c0,.1,0,.3,0,.4,0-.3,0-.4-.2-.6.4-.3.6.4.4.4Z"/>
    <path class="st0" d="M41.7,48.1c-.2-.4,0-1,0-1.5.2.4,0,1,0,1.5Z"/>
    <path class="st0" d="M41.7,50.3v-1.5c.2.4.1,1.1,0,1.5Z"/>
    <path class="st0" d="M49.7,28.6c0,0,.2,0,.2,0,.7.6,1.8,3.5,1.9,4.4s0,.3,0,.6v.2c.3.9.4,1.8.4,2.7,0,.5,0,1.1,0,1.7v.3c.1,0,.2.8,0,.8,0,.2,0,.4,0,.5,0,.4-.2.9-.3,1.3.2.7-.1,1.5-.5,2.2.2.2,0,.7-.3.7-.3.2-.1,0-.2-.1-.2-1-.7-1.9-.9-2.9,0-.4,0-.7.2-1,.2-1.3.4-2.8.2-4.1-.1-.1-.1-.3,0-.6-.5-2.3-1.5-4.5-2.9-6.3v-.2c.2,0,.6,0,.8,0,.3,0,1.4-.2,1.6,0Z"/>
    <path class="st0" d="M49.7,28.6c.3-.6.2-.2.6-.3s1.1-.1,1.2-.1c0,0,0-.2.1-.2.2,0,.1,0,.2.2,1.5,1.5,1.8,2.8,2.3,4.8v.2c-.8,0-1.7,0-2.4.3-.2-1.2-.8-3-1.5-4.1s-.5-.8-.6-.8Z"/>
    <path class="st0" d="M47.3,28.6l1.2,1.7c1,1.6,1.4,3,1.6,4.8,0,.6-.2.4-.2-.2-.2-.3-.3-.7-.1-1-.2-.2-.4-.4-.5-.7-.6-.7-1.1-.8-1.8-.1h-.6c0,.3-.2.4-.3.4l-.2-.3c-.3-1.3-.7-2.7-1.2-3.9v-.4c.5,0,1.8-.2,2.3-.4Z"/>
    <path class="st0" d="M45,29c.7,1.4,1.2,3.1,1.5,4.7v.2c.3.8.4,1.6.3,2.4.2,0,.2.1,0,.2l-.2.2c-.5,0-1.3,0-1.7,0-.3,0-.3-.4,0-.4-.2,0-.2-.2,0-.3v-.5c-.1-.3-.1-.5,0-.6-.2-.2-.2-.4,0-.6-.2-.2-.2-.3,0-.4v-.3c-.3-.3-.3-.5,0-.6-.2-.3-.5-1-.3-1.2-.3,0-.4-.5-.2-.7-.4-.5-.7-1-1.1-1.5v-.3c0,0,.7-.2.9-.2s.6.2.7.2Z"/>
    <path class="st0" d="M37.5,27.1c.2,0,.5,0,.6,0s0,.2.1.3c0-.2.4-.3.4,0,.3,0,.2.3,0,.4,0,.4-.2.5-.7.6l-1,.4c-2.4,1-.1.3,1-.2.2-.2.6-.5.8-.1.5.2.4.2,1.1.3s.7,0,1,0c-.2,0-.3,0-.5,0,0,0-.1.1-.4.2h-.2c-.2,0-1-.3-.9,0v.2c-.5-.2-2.9.7-2.8,1s0,0,0,.1c.7.2-.3.8-.6.4,0-.4-.2-1.1-.3-1.5s-.3-.8-.6-1.3c.3,0,.6,0,.8,0,.4-.1,1-.6,1.5-.5l.8-.2c-1,0-2.5-.2-3.1.7l-.4-.6c.2,0,.3,0,.5,0,.3,0,.9-.3,1-.3.3,0,1.3,0,1.7,0Z"/>
    <path class="st0" d="M41,28.9c.6,0,1.8,0,2.2,0s0,.2,0,.3c.2,0,0-.1,0-.2.5.5.9,1.2,1.1,1.8,0,.2-.1.3-.3.1,0-.2-1.2-1.4-1.3-1.2,0,.2,0,.3-.1.4,0,0-.2,0-.3,0s-.2-.2-.2-.3.1,0,0,0h-.2c-.4-.4-.8-.7-1.4-.7v-.2c0-.1.2,0,.4,0Z"/>
    <path class="st0" d="M28.7,17.6c.2,0,.2-.2.2-.4,0-.6,0-1.2.3-1.9s.7-1.6,1-1.4l-.6.8c-.4,1.1-.6,2.2-.6,3.3,0-.2-.2-.4-.3-.5Z"/>
    <path class="st0" d="M38.9,28.6c-.4-.2-.5.2-.7.3-.5.2-1.1.4-1.7.5s0,.2-.1.2c0,0-.6,0-.6,0-.2-.2.2-.3.3-.4.4-.2,1.5-.7,2-.9s.6,0,.8-.4h0c0,.2,0,.5,0,.7Z"/>
    <path class="st0" d="M54.1,32.9c.2.8.4,1.3.4,2.2,0,1.1-.3.5-.3-.2,0,0-1.8.2-1.9.2.2.6.1,1-.2,1.2-.1-1-.2-1.9-.4-2.9.1-.1,0-.2.2-.3s1.3-.2,1.6-.3.4.1.6,0Z"/>
    <path class="st0" d="M57,34.7s0-.1,0-.2c0-.3-.2-.9,0-1.1s1.4.1,1.5.2c.2,1.1.2,2.2.2,3.3s0,.2,0,.2c0,.1,0,.2,0,.4,0,0-.1,0-.2,0-.5,0-.2-1.1-.2-1.4.1-.2-1-.4-1.1-.4v1.6c0,0-.2.1-.2.1.1.1,0,.2-.1.1v-.8c0-.7,0-1.4,0-2.1Z"/>
    <path class="st0" d="M51.9,40.6c.2,0,.3.1.3.7.4.3.9.4,1.4.3.3.3.4.8.2,1.3-.1.4-.2.7-.3,1.1,0,0,0,.1,0,.2-.2,0-.3-.1-.3-.6-.4-.2-.8-.4-1.2-.5-.4.3-.5.4-.5.2.2-.7.4-1.5.5-2.2,0,.2,0,0,.2-.4Z"/>
    <path class="st0" d="M51.2,43.2h0s0-.4,0-.4c.2,0,0,.1,0,.2s.2-.1.2-.2c.1,0,1.3.5,1.4.5.1.2,0,.5.2.7-.2.3-.3.7-.6,1,0-.1,0-.2,0-.4-.6.2-1.2,0-1.7-.4v1.2c0,0-.2,0-.2,0,0-.5,0-1.2,0-1.6s.2-.5.3-.7Z"/>
    <path class="st0" d="M57.1,36.8c0,.2,0,.5,0,.7,0,0,0,0,0,0,0-.3.9-.1,1.1,0,.4.2.4.2.3.6.1,0,.2.2.2.5,0,.6-.2,1.2-.4,1.8-.3.2-.3-.2-.2-.5-.4-.1-.8-.2-1.2-.2,0,.3-.2.9-.4.4,0-.4.2-1,.3-1.4,0-.6,0-1.2.2-1.8Z"/>
    <path class="st0" d="M52,36.4s0-.1,0-.3c0-.4,0-.7,0-1.1.4,0,2-.4,2.2-.1s0,.6,0,.8c.2,0,0-.4,0-.5v3.1c-.1-.3-.2-.5-.1-.9-.1-.3-.2-.7,0-1.1,0-.2-1.6,0-1.8.2v.8c-.1,0-.3,0-.3,0,.3.2.3.8,0,1,.4.4-.3.4,0-.2,0-.5,0-1.1,0-1.7Z"/>
    <path class="st0" d="M54.1,39.8c.1.1,0,.6,0,.8,0,.6-.1,1.1-.2,1.7-.1.6-.3,1.1-.5,1.7-.2,0,0-.3,0-.4.1-.4.5-1.1.4-1.5s-.1,0-.2-.1,0-.2,0-.2c0,0-.4,0-.5,0s-1-.4-1-.4c0-.2.1-.6-.1-.8-.3-.5.5-.6.9-.5.3.2.6.3,1,.3,0-.6.2-.8.5-.6Z"/>
    <path class="st0" d="M52.1,37.3v-.2c.4,0,1.8-.4,2.1-.1s.1.7,0,.8c.2.3.2.7.1,1.1v.2c0,.2,0,.5,0,.8,0,0-.1,0-.1,0,0-.2-.1-.6-.1-.8-.3-.6-.9-.9-1.5-.6-.2,0-.4,0-.4-.2,0-.3,0-.6,0-1Z"/>
    <path class="st0" d="M52,38c0,.1,0,.2,0,.4h0c0,0,0-.1,0-.2.3.2.9-.1,1.2,0s.8.6.9.7c.1.3,0,.8.1,1.1,0,.4-.1.8-.2,1.1-.1,0-.2,0,0-.4,0-.2,0-.6,0-.8-.5-.1-1-.2-1.5-.4h-.4c-.2.6-.5.3-.3-.3,0-.4,0-.9,0-1.1Z"/>
    <path class="st0" d="M54.5,38.2c0,.2-.2.6,0,.9,0,0,0,0,0-.2,0-.3,0-.7,0-.9s-.4.1-.2-.3.3-.3,0-.6-1.6,0-2,.1c0-.2,0-.9.2-1s1.7-.3,1.9-.3c.4.1.1.9.1,1.2s.2.8.2,1.1Z"/>
    <path class="st0" d="M56.7,40h.1c0-.1,0-.5.2-.6s1.1.2,1.4.3l.2-.4c0,.3-.1.6-.2.8s0,.2,0,.2c0,.5-.2,1-.4,1.4-.3,0-.3-.2,0-.6,0-.3-.9-.4-1.1-.4,0,.3-.3.9-.4.3,0-.3.2-.7.3-1Z"/>
    <path class="st0" d="M56.4,40.9v.2c0-.2.1-.6.3-.6s1.4,0,1.2.4h.2c0,.2-.2.4-.2.6s0,.1,0,.1c0,0,0,0,0,0,0,0,0,0,0,0-.5.2-.9.3-1.5,0,0,.4-.2.7-.5.9,0,0,0,0,0,0,.2-.6.4-1.2.5-1.8Z"/>
    <path class="st0" d="M57.7,42.7c-.4.8-.7,1.4-1.3,2-.2,0,0-.2,0-.3.1-.2.2-.3.3-.4-.1-.2-.2.1-.4.2s-.2,0-.3,0c-.2,0-.7.6-.7.1h0c0,.2-.3.6-.4.7s-.2,0-.2,0c.3-.5.6-1,.9-1.5,0-.1.2-.2.4-.1l.9-.3c.2-.3.7-1,.8-.5Z"/>
    <path class="st0" d="M57.7,42.7c-.2-.2-.2,0-.3.1s-.3.5-.4.5-.8.3-.9.3-.4,0-.5,0c.1-.3.3-.6.4-.9h0l.2-.2h1.1c.1-.4.4-.7.6-.8h0c0,.4-.2.6-.4,1Z"/>
    <path class="st0" d="M54.1,41c0,.4-.2.8-.3,1.2-.3-.5,0-1.2.2-1.7,0,.1,0,.4,0,.4Z"/>
    <path class="st0" d="M45,44.3s0,0,0-.1c0,0,1.3.2,1.4.3.1.2.6.3.9.3.2,0,.5,0,.8,0,0,0,.1,0,.2.2,0,0,0,0,0,0-.3.2-.5.6-.8.9-.6.4-.9.4-1.5.5s0,.2-.1.2c-.1,0-.6,0-.8,0s0-.1-.1-.2c-.3,0-.7,0-1.1-.2,0,0,0-.1,0-.2.5-.2.5.2.5.2h1.3c0-.4-.2-.2-.5-.4-.5-.3-.1-.7.3-.4,0,0,0-.2,0-.2,0,0-.8-.2-.9-.3,0-.4.5-.3.3-.8Z"/>
    <path class="st0" d="M45.9,42.3c.2.2-.4,1.4-.5,1.6l-.3.2c.1.1,0,.2,0,0-.5.6-1.3.9-1.9,1.2-.3,0-.2-.1-.2-.3s0-.6,0-.8.1-.1.2-.2v-.2c.4-.4.7-.8,1-1.2h.2c.3,0,.7.2,1,0l.7-.3Z"/>
    <path class="st0" d="M46.4,41.7c.4.1.9.2,1.4.2.2.1.2,1,.1,1.3s0-.4,0-.4c0,.4.1.9.2,1.4-.1.9-.3,0-.4-.5h-.6c-.7.6-1.2.5-2,.3,0,.2-.1.2-.2,0,.5-.6.6-1.2.9-1.8s.1-.2.2-.3h0c0,0,.1-.3.3-.3Z"/>
    <path class="st0" d="M43,36.9c0,0,.1,0,.2,0,.6.5.2-.4,0-.5-.4-1.6.9-1,1.3,0,.3,0,.5,0,.5.2.3,0,1,0,.8.5,0,.1.1.3.2.4-.2.1-1.6-.6-2-.3.1.2-.1.6-.4.5-.4.8,0,1.4-.2,2.1s-.2.2-.3,0h-.1c0-.9-.1-1.6-.2-2.4-.6-.1-.1-1.3.4-.6Z"/>
    <path class="st0" d="M43.2,41.3c.2.3.4.6.5.8s.4.3.5.5c-.2.1-.6.7-.8,1s-.3.3-.5.4c-.3-.4-.1-1-.2-1.4s-.2-1,0-1.4c0-.4.2-.9.3-.3l.2.4Z"/>
    <path class="st0" d="M45.2,44c.2-.2.5,0,.8,0,.7,0,.8-.4,1.2-.5s.5,0,.8,0c.1,0,.2.9.1,1.1v-.4c.1.2.1.5.2.7,0,0-.1-.1-.2-.2h-.5c-.2,0-.6,0-.7-.2-.4-.1-.8-.2-1.2-.3-.3,0-.4-.1-.5-.3Z"/>
    <path class="st0" d="M46.4,41.7c0-.3.2-.6.5-.7.8-.2.9,0,.8.7s0-.3,0-.4c0,.5.1,1,.2,1.5v.4c0,0-.2-1.1-.2-1.1-.4,0-.8,0-1.2-.1s-.3,0-.2-.2Z"/>
    <path class="st0" d="M43.9,37.3c0,.2.3.2.4.4s.4.6.4.6c0,.2.3,1,.3,1.3s0,.2-.2.1-.6-1.1-.8-1.3-.4-.2-.4-.5c0-.1.2-.5.4-.5Z"/>
    <path class="st0" d="M43,39.9c0,.5,0,.9.2,1.4-.1-.2-.3-.3-.3-.6l-.2.5c0-.4,0-.7,0-1.1,0-.8,0-1.6-.2-2.4h.2c.3.8.3,1.3.4,2.2Z"/>
    <path class="st0" d="M47.8,41.4v.4c0-.6,0-.9-.7-.7s0,.1,0,.1c-.1,0-.3,0-.4.1s-.1.3-.2.4c-.1.2-.4.7-.4.3.1-.2.3-.4.4-.6s.1-.4.2-.5,1,0,1,0c.2,0,.1.4.1.5Z"/>
    <path class="st0" d="M48.1,38c-.2-.2-.6-.3-1.2-.4,0,0-.1-1.1.1-1,.5.1.9,0,1-.2.2-1.1.5-1.8,1.8-1.6,0,.4,0,.7.3.8.3.6.1,3,0,3.8s-.2.9-.5,0c0-.7,0-.7,0,0,0-.3,0-.5-.2-.8-.4-.2-.9-.4-1.3-.6Z"/>
    <path class="st0" d="M46.8,36.2v-.2c0-.9,0-1.2,1-.9,0-.8.7-2.9,1.5-1.4.2,0,.4,0,.5.4.2.5.3,1,.3,1.5v-.4c.1.3.2.7.3,1,0,1.5,0,3.2-.4,4.7-.1-.5-.2-1.1-.3-1.6v-.5c0,0,0,.6,0,.6l.3.7c0-.2,0-.4,0-.7,0-.8.3-2.7,0-3.6s-.2,0-.3-.2,0-.6-.1-.6-1,.2-1.1.3c-.2.2-.3,1.3-.5,1.5s-.8,0-1.1,0c0,.1,0,.8,0,.8s.8,0,.9,0,0,.2.3.2v.2c-.5-.1-.9-.2-1.4-.4,0-.3,0-.6,0-.9-.2-.1-.2-.2,0-.4,0,0,0-.1,0-.2Z"/>
    <path class="st0" d="M46.8,36.4c0,.1,0,.2,0,.4-.3.2-1.1,0-1.1.4-.3-.6-.6-.2-.8-.5,0,0,0,0,0,0,.6-.1,1.2,0,1.8,0Z"/>
    <path class="st0" d="M57.2,37.4v-1.9s1.5.3,1.5.3c.2.6-.4,1.3.2,1.7,0,.3,0,.6,0,1v-.4c-.1,0-.4.4-.4.4,0-.2.2-.8,0-.9s-1.1-.2-1.2-.2Z"/>
    <path class="st0" d="M61.4,40.1c-.2,1.2-.5,2-1,3.1,0,.2-.4-.2-.4-.2,0,0,.1-1.5.3-1.6-.6.4-.6-.3-.3-.7,0,0,0,.2-.1.1,0-.2.1-.5.2-.6.7,0,.8-.9,1.3,0Z"/>
    <path class="st0" d="M58.1,44.7c.2-.1.4-.1.8,0,.4-.6,1.2-.5.7.2-.1.5-.3.5-.6.9-.2-.4-.2,0-.3,0-.4.3-.2-.1-.4-.3s-.3,0-.3-.2c-.1,0,0,.2-.2.3s-.2,0-.3,0c.3-.2.5-.5.7-.8Z"/>
    <path class="st0" d="M59.9,40.9s.1-.3.2-.1c-.3.9-.1.9.4.2.2.4-.2,1-.3,1.2s0,.2,0,.4c0,.2-.3.8,0,.7,0,0,0,.1,0,.2,0,0-.2,0-.2,0-.5.3-.5-.6-.4-1-.2-.1-.2-.4,0-.9v-.2c0-.2,0-.2.2-.4Z"/>
    <path class="st0" d="M59.8,41.3c.2.2-.1.7,0,.8s.2.1.3.2c0,.2-.2.8,0,.9.2.2.3-.2.4-.2l.2.4c0,.1-.1.2-.2.4-.4.3-.9,0-.7-.6h-.1c0,.4-.4,1-.5.5.4-.8.7-1.6,1-2.4Z"/>
    <path class="st0" d="M58.8,43.7s0,.1.1,0c.3-.4,0-.8.8-.7v.6s.5.2.5.2c0,.2-.2.4-.3.5-.1,0-.3,0-.5-.2-.2.1-.4.2-.6,0,0,.3-.6.6-.5.2.2-.2.2-.5.4-.7Z"/>
    <path class="st0" d="M58.4,44.4s0,.1,0,0c.1,0,.2-.4.4-.4s.2,0,.3,0,.2-.1.3-.1c.2,0,.5.2.6.3-.1.2-.2.4-.4.5,0,0,.1-.3,0-.4-.5-.1-.4.1-.6.3s-.7,0-.9,0c0-.1,0-.3.3-.4Z"/>
    <path class="st0" d="M35.6,32.6c.2,0,0,0,0,0,.2-.4.8-.6,1.2-.7s.8,0,.6.4c0,.2,0,.2-.2.2l.6.4v.2c.2.2.5.4.7.7.4,0,.5,0,.7.4.4,0,1.3.4,1.1.8.4.5.8,1.5.6,2.1s-.2.1-.3.1l-.4-.8-.6-.7c0,.5.2,1,.2,1.4s0,1.1-.1,1.2c0,0-.1.1-.2,0-.2-.1-.4-1.7-.4-2-.2,0-.1,0-.2.1-.3.3-.5.9-.5,1.4,0,.1,0,.2-.2.2,0,0,0,0,0,0-.1-.3-.2-.6-.1-1,0,0-.5-.2-.6,0,0,0,0,0,0,0-.3,0-.3-.4,0-.5,0-.2,0-.2.2,0,0-.4.6-.2.9-.2.3-.2-1.5-2.8-1.7-2.9-.3-.1-.4-.4-.4-.7-.1-.1-.1,0,0,.2.2.2.3.5.4.8h-.1c-.1.1-.3.1-.4,0-.3.1-.5.1-.7,0,0-.2-.2-.2-.2-.2,0-.2.2-.6.3-.8Z"/>
    <path class="st0" d="M38.3,40.2v-.3c0-.8,0-1.9.3-.5,0,.3.2.5.4.7.5.2,1.3,0,1.3.1s.3.8.3,1c-.2.6-.5.6-.5,0-.2,0-.4.1-.5.2-.2.3-.5.4-.5,0h0c.2-.5-.2-1.3-.5-.5l-.2-.4c-.2,0-.2-.2,0-.3Z"/>
    <path class="st0" d="M40.2,41.2c0,.2,0,.5.3.4s0-.3.3-.3c.1.4.3.9.4,1.4h-.1c0-.3,0-.5-.5-.4s-.6.4-.8.4c-.2-.1,0-1.2.2-1.4h.2Z"/>
    <path class="st0" d="M39,40.1c-.3-.1-.3-.3-.5-.6l-.2-.8c0,.4,0,.9,0,1.3s0,.2,0,.2h-.2c0-.1,0-1.5,0-1.5,0-.2,0-.4.3-.6,0,0,0-.1.2-.2,0,.4,0,1.2.2,1.6s.3.3.3.5Z"/>
    <path class="st0" d="M39,29.3l-.7-.2c.1-.1.4,0,.6,0s0-.2,0-.2c0,0,.9.1.9.2s.1.2.2.2h.1c.7.2,1.4.6,2.1,1.2-.2-.2-.2-.3-.1-.5,0-.5.3.2.4,0v-.3c0,0,.2.4.2.4h.2s1.3,1.2,1.3,1.2c.2,0,.3,0,.3.2.1.5.2.7.3,1.2-.2.2-.5,0-.8-.5-.1-.1-.7-.6-.8-.3-.3,0-.6,0-.9-.1-.3,0-.6,0-.6-.2-.2,0-.4-.3-.6-.6-.7-1-2.6-1.5-1,.2v.2c.4.5-.7.8-1,.6,0,0,0,0-.2,0-.3-.4-.7-.7-1.2-1s-.6,0-.8.2c.3.1.8.3.8.7,0,.2,0,.3-.3.3,0-.3-.6-.2-.6-.2s-.8.3-.9.4-.5.6-.4.2c0-.5.1-1.2,0-1.7.3,0,.9.1.6-.4,0-.2.3-.3.4-.4l1.5-.4c.3-.3.5-.3.7,0,0-.1.1-.3.2-.5Z"/>
    <path class="st0" d="M31.1,28.3v.3s.9-.6.9-.6h.4s-.5,1-.5,1c.2.1,1-.7.8-.1s-1,.6-.8.7.7-.4.9-.3c.2-.3.4-.4.7,0,0,.2-.3.1-.4.2s-.5.3-.5.4c0,0-.4.6-.3.6.5.1.6-.4.9-.6s.4-.1.6-.2.1-.2.2-.2c.1,0,.6.3.6.5,0,.2-.7.8-.7,1.1s.1.1.3,0c.4-.1.6-.5,1.1-.4.2.1.2,1.6.3,1.9,0,.1-.1.3-.1.5h-.1c-.2.4-.6-.1-.7-.4l-.4-.8c-1.1-.6-2.1-1.2-3.2-1.9h-.2c-.1,0-.2-.2-.2-.4-.3,0-.5-.1-.5-.3,0,0,0-.1-.1-.2-.2,0-.5.4-.6,0,.2,0,.5,0,.7-.2.5-.2.9-.4,1.4-.5Z"/>
    <path class="st0" d="M35.5,33.6c.2,0,.5-.2.7-.2s.4.3.4.3c0,0,.1,0,.1,0,.3.1.7,2.4.7,2.8s0,0,0,0c0,.2,0,.3,0,.5.1.3.2.7,0,1.1,0,0,.1.1.1.2,0,.4,0,1.2,0,1.6s0,.1-.1.2c.1.1.2.2,0,.4-.1,0-.5,0-.5,0-.1,0-.4-2.3-.5-2.7-.2-.7-.7-1.9-.6-2.5,0-.5-.3-1-.7-1.5v-.2c.1,0,.2,0,.2,0Z"/>
    <path class="st0" d="M35.3,32.4c0,.8-.5,1.6-.8,2.4,0,.4.1-.1.3-.1,0,.6.2,1.1.4,1.7s.1.3.2.5c0,0-.2.1-.3,0,0,.2-.1,1.2-.3,1.3s0,0-.1,0c.1.6-.8.4-.4,0v-.6c-.2,0-.2-.2-.1-.4.5-.9-.2-.7-.5,0h-.2s0,.7,0,.7c.2,0,0,.1,0,.1,0,.2,0,.4,0,.7.2.3-.2.6-.4.2,0-.4,0-.6-.3-.6-.1.1-.2,0,0,0,0-.3.1-.6.4-.9-.2.2-.4.2-.3-.2v-.2c.2-.5.4-1.1.6-1.7h.2c.2-.5.3-1,.4-1.5.5-.2.6.5.4.9.2-.6.5-1.2.9-1.7,0-.2,0-.6.3-.5Z"/>
    <path class="st0" d="M35.1,34.1c-.1.1,1,1.5.8,1.9-.2-.1-.9-1.3-1.1-1.3,0-.3.1-.4.3-.6Z"/>
    <path class="st0" d="M35.4,33.6l.7,1.1c.2.2,0,.4,0,.5-.1-.4-.3-.8-.7-1.1s-.2-.2-.3-.1c.1-.3.1-.4.4-.4Z"/>
    <path class="st0" d="M61.7,43.6c0,0,.6.2.6.2,0,0-.1.5-.1.6s0,.1,0,.1c0,.3-.2.6-.4.7-.1-.1-.3-.2-.4-.3-.2.3-.5.4-.4,0,.2-.4.5-.9.7-1.2Z"/>
    <path class="st0" d="M61,44.8c0,.5.1-.2.4-.2s.1.5.6,0c0,.2-.1.4-.2.5-.1.3-.3.5-.5.8-.1,0-.3-.2-.4-.3-.1.3-.2.4-.4.3-.2,0-.2,0,0-.2.2-.3.4-.7.6-1Z"/>
    <path class="st0" d="M60.5,45.9c.4-.1.5.2.2.5,0,.3,0,.1-.3.3-.2-.1-.3-.3-.6-.4.2-.2.4-.4.6-.6,0,0,0,.1,0,.2Z"/>
    <path class="st0" d="M61.3,45.9c-.2.2-.4.4-.6.5,0-.1,0-.3,0-.3s-.1,0-.3-.2l.4-.6c.2.2.3.3.4.6Z"/>
    <path class="st0" d="M25.2,37.9c.2.1.3.3.3.6,0-.3,0-.4.2-.4.1-.2.3,0,.5.3.4,0,.6.4.5.9,0,.4-.2,2-.6,2.3s-.6,0-.8-.2c-1-.7-1.2-1.7-1.5-2.8.1,0,0-.3,0-.4-.1-.4,0-.6.3-.5.4.2.7.3,1.1.3Z"/>
    <path class="st0" d="M27.8,35.4c.3-.3.4.3.3.6.1,0,.2,0,.3.2h.2c0,1,.1.9.4,0h.2s.2.1.2.1c0,.9,0,1.9.6,2.6v.2c.2.2,0,.4-.3.4-.3.3-1.4-.5-1.1-1-.2,0-.2-.1-.2-.3l-.5.7c0,0-.2,0-.3,0,0-.3-.1-1.6-.3-1.7,0-.2,0-.4,0-.6,0-.4.1-.8.2-1.1s0,0,.1,0Z"/>
    <path class="st0" d="M29.7,39.5c0,.2.2.1.3-.2.3,0,.5,0,.6,0,0-.2.3-.5.5-.4.5,0,.3.3,0,.5-.4.2-.9.5-1.1.9s-.2,0,0,.3c-.5.3-1.2.7-1.7,1s-.6.3-.8,0c-.1-.3,0-.4.3-.2l.2-.2c.4,0,.7-.2.9-.5l-1-.8c0-.1,0-.3.2-.4-.2-.2.2-.9.5-.9,0,.4.7.9,1.1,1Z"/>
    <path class="st0" d="M27.4,35.7s0,0,0,0c0,0-.3,1.2-.4,1.4h-.2c-.2.8,0,1.4-.2,2.1,0,0-.1-.6-.1-.6,0,0-.3-.1-.4-.2-.2-.1-.2-.4-.4-.4-.3-.2,0-.6,0-.8.5-.6.8-1.2,1.2-1.8h.2s.2.1.2.3Z"/>
    <path class="st0" d="M27.6,39.1c.1.1.3.3.4.4,0,0,0,.3,0,.3l1.2,1c-.2,0-.4.4-.5.5s-.5.1-.7.2,0,.1-.1.2c-.4.1-.3-.4-.4,0-.1-.2-.1-.3,0-.6l.2-1.9Z"/>
    <path class="st0" d="M27.9,35.1c.2.1.1.3,0,.4,0,.6-.1,1.4-.4,1.8,0,0-.3,0-.4,0,.1-.4.4-1.1.5-1.6s.2-.6.4-.9c.3-.2.2,0,0,.3Z"/>
    <path class="st0" d="M27.6,38.9c.4-.1.5-1,1-.8,0,.1,0,.3,0,.5-.1.3-.4.6-.5.9l-.4.2c0-.2,0-.4,0-.5s0-.1,0-.2Z"/>
    <path class="st0" d="M35.4,36.9c0,.3.2.6.3,1,0,.3,0,.5,0,.8l-.2.2c-.2,0-.4-.2-.5-.4-.3,0-.4,0-.3-.2.2-.3.3-1,.3-1.3s-.4-.7-.4-1.1l.5.8.3.2Z"/>
    <path class="st0" d="M36.3,39.9c0,.4,0,.8-.4.5s-.3-.9-.3-1.2c-.2-.2-.2-.3,0-.4,0-.3,0-.7,0-1,.2.7.4,1.3.6,2Z"/>
    <path class="st0" d="M35.3,39.6c-.2-.5.2-1.2.1-.3s0-.3.1-.2c0,.3.5,1.9.7.7,0,.3.1.4.2.8-.1.1-.4.2-.5,0,0,0-.4,0-.4,0,0,0,0-.3,0-.4-.1,0-.1.3-.2.4-.3-.3-.3-.7,0-1Z"/>
    <path class="st0" d="M36.5,40.7c0,.4.2.9,0,1.2-.2,0-.2,0,0-.2,0,0-.1-.2-.2-.4-.1-.2-.2-.5-.3-.7,0,0,.3-.2.5,0Z"/>
    <path class="st0" d="M36.4,41.7c0,0,0,.1,0,.2.2.5,0,.5,0,.9,0-.4-1.1-1.2,0-1.1Z"/>
    <path class="st0" d="M37.6,40.1c0,0,.1-.2.2-.1.2.5.2,1,.1,1.5,0,0,0,0-.2,0,0-.2,0-.6,0-.7,0-.1,0-.3,0-.4s0-.2,0-.4Z"/>
    <path class="st0" d="M28.1,30.3c.6,0,.4,1,.4,1.4,0,0,.3,0,.4,0,0-.3.1-.5.4-.5.1-.2.4,0,.3.2v.2c.1,0-.2.8-.2.8.4,0,.7-.3,1-.6.2-.2.4-.2.6,0,.3,0,.3.2,0,.6v.2c-.4.4-.6.9-.8,1.3h-.2c-.4.2-.6.5-.8.9h-.2s-.3.4-.3.4c-.1.6-.6.6-.6,0h0c0-.1,0-.3,0-.3.2-.7.9-1.5-.4-1.4-.2,0-.2-.2,0-.3.3,0,.4-.2.5-.4.2-.5,0-.4-.2-.7-.5-.3,0-1.4.4-1.7Z"/>
    <path class="st0" d="M30.6,29.9c0,0,0,.1,0,.2-.6.3-1,.4-1.1,1.1h-.2c0,.2-.1.5-.4.6-.2-.9.2-1.9.9-2.5.4.1.8-.1.8.7Z"/>
    <path class="st0" d="M28.1,30.3c-.3.5-.5,1.1-.4,1.7-.3,0-.5,0-.8,0,.1-.3.3-.6.4-.9s.5-.8.7-.7Z"/>
    <path class="st0" d="M24.5,34.4c0-.1.3-.5.4-.4s-.5,1.7.4.6c0,0,.1,0,.2.1-.3.9-.3,1.2.2.2h.2c0,.3.5.2.8.1.2.2.1.4-.2.7-.2.3-.7.9-1,.9-.1.1-.9,0-1.2,0-.4-.1-.5-.2-.4-.7.2-.5.4-1,.4-1.6Z"/>
    <path class="st0" d="M24.5,34.4c.3.4-.5,1.6-.3,2s1.2.2,1.4.4c0,.2,0,.4-.2.6,0,.2-.1.4-.3.4-.4.4-.9-.1-1.3-.2,0,.1,0,.2,0,.4-.2-.5,0-1.1,0-1.6s0-.1,0-.1c0-.3.5-1.5.7-1.8Z"/>
    <path class="st0" d="M27.2,35.3c-.2.3-.4.7-.6,1-.5.8-.7.7-.9,1.7s0,.8-.4.8c0-.3-.2-.6-.2-1s.2-.7.4-1.1,1-1,1.1-1.7c0,0,.2-.2.3-.2.2,0,0,.3.1.4Z"/>
    <path class="st0" d="M25.4,34.7c.3-.4.5-1.3.7-1.5.4-.3.3.5.2.8s-.2.7-.3,1-.5.9-.7.9c-.4-.3.1-.8.1-1.1Z"/>
    <path class="st0" d="M25.7,32.1c.5.3,1.1.5,1.5,1s.1,0,.2,0c0,0,0,.2,0,.3,0,.2-.4.7-.6.9-.2-.4.2-1,0-1.4s-.4-.1-.5-.2c-.2-.1-.3-.4-.7-.2l.2-.4Z"/>
    <path class="st0" d="M32.6,38.2l.4-.4c0,.3,0,.6,0,.8s0,.3.2.1.2-.7.2-.9c.3,0,.4.1.2.6.4,0,.6.2.7.5.2-.4.4-.3.4.3.2,0,.2.2,0,.3v.7c-.6,0-.4-.2-.4-.7l-.2.6c-.2-.3-.2-.6-.2-1,0,.1-.1,0-.2,0,0,0,0,0,0,0,0,.4.1.6-.4.5v-.4c0,0,0,0,0,0-.2.2-.3,0-.2-.2,0,0,.2-.3-.1-.2s0,.3-.2.3c0-.3,0-.5,0-.8-.2,0-.2-.1,0-.2Z"/>
    <path class="st0" d="M35.3,39.6c0,.3,0,.6,0,1,0,0,0,.3-.2.3-.2-.4-.4-.9-.4-1.3s0-.2,0-.3c0-.2,0-.4-.2-.5,0-.9,1.2-.2.8.3v.5Z"/>
    <path class="st0" d="M33.8,41.6c0,.1,0,.3-.2.4-.3-.5-.3-.9-.3-1.4.6,0,.4.6.4,1.1Z"/>
    <path class="st0" d="M33.1,39.3c-.1.4,0,.9-.2,1.3s0,.3-.1.2c0-.5-.3-1.3.2-1.8,0,0,.1.2.2.2Z"/>
    <path class="st0" d="M35.2,41.7c-.1-.3.3-.7.5-.5s0,.1,0,.2c-.1.2,0,.9-.2.9s-.3-.4-.3-.5Z"/>
    <path class="st0" d="M33.7,39.2c0,0,0-.4.3-.3s0,1,0,1.2c-.1.2-.4-.4-.4-.6s0-.2,0-.4Z"/>
    <path class="st0" d="M32.6,38.2s0,.1,0,.2c-.3.1,0,1-.2,1.1-.2,0-.3-.4-.4-.5s0,0,0-.2c0-.1,0-.1,0-.1-.3-.2.1-.7.4-.6,0,0,0,0,0,0Z"/>
    <path class="st0" d="M34.3,41.4c0-.7,1-1.2.4,0s0,.2-.1.3c-.4,0-.3-.1-.3-.2Z"/>
    <path class="st0" d="M39.6,41.4c.3.2.1.9,0,1.2v.2c0,0,.1.1,0,.2-.3.1-.5,0-.8,0,.1-.5,0-1,.2-1.6s.1-.5.1-.7c.1,0,0,.6,0,.7.2.2.3-.2.4,0Z"/>
    <path class="st0" d="M39.6,41.4s.2-.3.2-.3c.1-.1.3,0,.3.2,0,.5-.2,1-.4,1.5,0,0,0,0,0,0-.3,0-.2-.1-.2-.3,0-.3,0-.8,0-1Z"/>
    <path class="st0" d="M40.7,42.3c.1.1,0,1.2,0,1.4s-.2,0-.3,0c0,0,0-.8,0-1s.2-.6.3-.4Z"/>
    <path class="st0" d="M41.1,43.8c0,.2.2.2.3.3,0,.3,0,.7-.3.7s-.3-1.2,0-1Z"/>
    <path class="st0" d="M45.2,44c.2,0,.5.3.5.3.3,0,1,0,1.3.2s0,.2,0,.3.6-.3,1.1,0c-.2.2-.4,0-.6,0s0,.2,0,.2c-.1,0-.2-.1-.4-.2s-.7,0-.7-.1c0,0,0-.2,0-.3-.3,0-.9-.1-1.3-.2,0,0,0,0,0-.2,0,0,0,0,0,0,0,0,.1,0,.2,0Z"/>
    <path class="st0" d="M34.8,41.8c0,0,.3.4.2.5-.4,0-.7,0-.7-.5.2,0,.4,0,.5,0Z"/>
    <path class="st0" d="M37.6,37.2c0,0,0-.3,0-.3.1,0,.7.2.7.3s0,.1,0,.2c0,.3.1.5,0,.8,0,.2,0,.4-.3.2-.2.7,0,1.4,0,2.1,0,.2,0,.3-.1.4,0,0-.1.6-.2.7,0-.3,0-.5,0-.8s0-.7-.3-.6c0-.6,0-1.3,0-1.9,0-.4,0-.7,0-1.1Z"/>
    <path class="st0" d="M38.1,40.9c0-.3-.2-.9-.3-1.3s0-1.2.2-1.3.3.4.3,0h0c-.2.6,0,1.4,0,2,0,0,0,.2,0,.3,0,.2-.1.3-.2.4h0Z"/>
    <path class="st0" d="M38.3,27.4c0-.3.2-.3.5-.4s.2,0,.2,0l-.3.3c-.1,0-.3,0-.4,0Z"/>
    <path class="st0" d="M32.5,38.1c-.1.2-.4.3-.4.6-.4,0-.4.3-.5.4-.3,0-.2.2-.3.2s-.1,0-.2,0c0-.3.3-.3,0-.4h0c0-.1,0-.3,0-.3.5-.5.9-1,1.3-1.6h.2c0,.4.3-.3.4-.3h.4c-.2.4-.5.9-.9,1.3Z"/>
    <path class="st0" d="M51.9,39.2c0,.1,0,.3,0,.4.2,0,0-.3,0-.4s.7,0,.8,0c.5,0,.8.5,1.3.2,0,.1,0,.2,0,.4-.4,0-.1.7-.4.8s-.9-.3-1.1-.3-.7,0-.7,0,0,.2,0,.3c0,.3-.1.5,0,.8-.2,0,0-.2,0-.4.1-.6,0-1.3.3-1.8Z"/>
    <path class="st0" d="M49.7,34c-.2,0-.1-.1-.2-.2s-.3,0-.4,0,0-.3-.3-.4c-.6-.3-1,1.5-.9,2-.2,0-.4-.2-.6-.2-.7,0-.4.3-.5.8s0,.2,0,.2c0-.8-.1-1.7-.3-2.5.2-.7.4-.4.8-.6s.4-.6,1.2-.5,1.1.8,1.3,1.4Z"/>
    <path class="st0" d="M40.3,31.4h.2c.4.2.9.3,1.4.2,0,0,0-.2,0-.2,0,.4.3.2.6.2s.2.1.3.1.4,0,.4,0,0,.2,0,.3h.1c.3.2.6.5.9.8.3.2.6.4.6.7.2.1,0,.5,0,.7-.2.1-.5,0-.8-.5-.2,0-.4-.1-.4-.2,0,0,0,.3,0,.5,0,.1-1,0-1.1-.2h-.2c-.4-.3-.8-.5-1.2-.7-.2.2-.4.2-.5,0,0,0,0,0,0,0,0,.8,0,.8-.6.3,0,0-.1,0-.2,0-.4-.2-.8-.4-1.2-.5,0,.2,0,.3-.1.4.5.5.5.6,0,.6-.2-.4-.4-.6-.7-.7-.2-.2-.7-.4-.9-.7,0-.1.4,0,.5-.1s0-.3.3-.3c0,0,0-.1.1-.1.4.3,1,.6,1.3.1,0-.1.8-.2,1-.3s0-.2,0-.3Z"/>
    <path class="st0" d="M41.7,34.4c.2-.2.8,0,.8.4h.4c.3,0,.3,0,.3.4h.8c.4-.2.5-.2.4,0h.2c0,.4.2.7.4,1,0,.2,0,.2,0,.4s0,0,0,0c-.8.1-.7,0-1-.7-.2,0-.5-.5-.6-.4s-.2.4-.2.6c0,.4.4.4.4.6.3.8-.4.9-.6.3-.3-.3-.3-.3-.7-.2l-.2-.2c0-.7-.3-1.3-.6-1.9v-.2c0-.1,0-.2.1,0Z"/>
    <path class="st0" d="M43.8,33.4c.1,0,.2.3.3.5.3.2.7.5.9.8,0,.3,0,.8,0,1.1-.1,0-.2-.2-.2-.5-.2,0-.3-.1-.3-.2,0,0,0,0,0,0,0,0,0,.1-.1.2-.6.2-1.3,0-2,.2-.1,0-.3-.4-.2-.5.4,0,.6.3,1,.2,0-.2-.3-.2-.5-.3,0-.1.2-.2.4-.2-.2-.3-.2-.6-.2-.8h1c0,0,0-.4,0-.4,0-.1,0,0,0,0Z"/>
    <path class="st0" d="M42.8,30.1c-.3-1.3.8-.1,1.1.2s.4.7.6.5c.1.3.1.4.2.7h-.4c-.2-.3-1.4-1.2-1.4-1.4Z"/>
    <path class="st0" d="M43.3,31.9c0-.8.4-.2.6,0s.2.1.3.2c.2.2.3.6.6.7,0,.2,0,.4,0,.6s0,.4,0,.4c0-.8,0-.5-.5-.8s-.9-.8-1-1.1Z"/>
    <path class="st0" d="M43.8,33.4c.7-.2.7.5,1.2.7,0,.2,0,.4,0,.6-.4,0-.4-.2-.5-.3-.4-.3-.8-.4-.7-1Z"/>
    <path class="st0" d="M44.9,35.8c0,0,0,.2,0,.3-.4,0-.5-.7-.5-1,.5,0,.5.2.5.7Z"/>
    <path class="st0" d="M39,29.3c.2,0,.1.7-.3.6s0-.3-.2-.2,0,.1,0,.2c-.4.2-1.2.3-1.6.5s-.2.2-.5.3-.2,0-.3,0v-.2c.1,0,.3-.3.5-.4.2-.1,1.2-.5,1.5-.6s.9-.1,1.1,0Z"/>
    <path class="st0" d="M40.4,29c.4,0,.9,0,1.3.4s.4.4.5.5c.2.2.7.9,0,.6s-.5-.4-.7-.5c-.5-.3-.9-.6-1.4-.8,0-.3.1-.2.4-.2Z"/>
    <path class="st0" d="M37.2,28.1c-.1.4-.5.3-.8.5s-.1.2-.2.2c-.2,0-.5.1-.7.2,0-.4.3-.4.6-.5s.1-.2.2-.2c.1,0,.8-.3.9-.2Z"/>
    <path class="st0" d="M56,42.7l.4-1.1c.2,0,.6.2.8.2s.6-.4.7,0c0,.3-.2.4-.4.5s0,.2,0,.2c0,0-1.3.2-1.5.2Z"/>
    <path class="st0" d="M42.3,36.7c.2-.2,0-.5.2-.5,0,.4.2.2.4.4s.1.3.1.3c-.6-.3-.5.2-.4.6v2.3c.1.1,0,.3,0,.3,0-1.1-.3-2.2-.6-3.3,0-.2.1-.3.3,0Z"/>
    <path class="st0" d="M37.9,33.1c.2-.2.2,0,.3.1.1.1.6.7.7.4-.3,0-.2-.2-.3-.4.1-.1.3-.1.5.1,1.1,1.1,1.4,1.2,1,.2v-.2c.2-.2.3.1.4.2.3,0,.2-.3.2-.5,0,0,0,0,0,0,.1.1.3.4.4.6.3.2.5.4.5.6,0,0,0,0,0,0-.2.1-.3.3-.3.6h-.2c-.2,0-.4,0-.7,0,0-.1-.7-.6-.8-.6-.1,0-.3,0-.5,0s-.2-.4-.3-.4-.3.1-.4,0,0-.2-.1-.3-.4-.5-.5-.6Z"/>
    <path class="st0" d="M36.8,33.5l1,.9c.4.8,1.1,1.4.9,2.4-.3,0-.2-.2-.5-.2s-.4,0-.5,0h-.1c0-1.1-.3-1.9-.7-2.8s0-.2,0-.3Z"/>
    <path class="st0" d="M36.8,33.5c.5,1,.6,2,.8,3.1,0,0-.1,0-.2,0-.1-.9-.3-2.1-.8-2.9.2-.4-.3-.2-.3-.8-.2,0-.2-.1,0-.2.1.2.3.5.4.7Z"/>
    <path class="st0" d="M37.6,38.2c0-.3,0-.7,0-1.1h0c0,.3.2.8,0,1.1Z"/>
    <path class="st0" d="M36.4,32.8c0,0,0,.1,0,.2h-.5c0-.2.3-.2.5-.4,0,0,0,.1,0,.2Z"/>
    <path class="st0" d="M41.6,34.4c.4.7.8,1.5.7,2.3,0,0-.2,0-.3,0l-.3-.6c0,.5.2,1.2-.3,1.6-.2-.9-.4-1.7-.4-2.6s0-.7.2-.8.2,0,.2,0Z"/>
    <path class="st0" d="M40.3,31.4c0,0-.3-.1-.3-.2-.3-.3-.9-1.3,0-1.3s1.7,1.1,2,1.7c0,.1,0,.4-.2.4,0-.3-.5-.2-.7-.2s-.5-.2-.7-.3Z"/>
    <path class="st0" d="M37.8,32c-.4-.2-.5-.5-1-.4,0-.5.5-.7.9-.7s.5.4.9.5l.6.6c0,.1,0,.4-.1.4s-.7-.1-.8-.1-.4-.2-.5-.3Z"/>
    <path class="st0" d="M35.1,32.9c-.4.9-.8,1.9-1.2,2.8-.2,0-.1-.2-.1-.3,0-.3.4-1.1.3-1.3s-.2-.3-.4-.4c0,0,0,0,0,0h-.2c.3-1.7-1.3-2.4-2.4-1.4h-.2c-.3-.2.4-.4,0-.7,0,0,0-.2,0-.2,1-.3-.5-.7-.9-.3-.1.2-.3.5-.5.2l-.3-.2c.1-.3.2-.7.5-.9s.7-.3.8-.4,0-.3.1-.3c.2,0,.7.5,1,.6.5.3,2.2,1,2.5,1.4s.4,1.2.9,1.3Z"/>
    <path class="st0" d="M30.8,32.2c.5-.5.8-.7,1.5-.6s.7.2.9.4c.5.5.4,1,.4,1.6.1.5,0,1.1-.3,1.5-.1.6-.5,1.4-.8,1.9s-1,1.4-1.5,1.8-.3.3-.5.4c0,.1-.8.3-.7,0,0,0-.3-.5-.4-.6-.4-.7-.3-1.6-.3-2.4-.1-.4,0-1.2.2-1.6,0-.3.2-.5.4-.6.2-.6.6-1.2,1.1-1.7Z"/>
    <path class="st0" d="M33.5,37.1h.2c0,.4.1.8.3.3.2-.1.3,0,.3.4v.4c.2.3.3.4.5,0l.7.4v-.5c0,0,.2.7.2.7,0,.1,0,.2,0,.4s0,0,0,.2.1.3,0,.5c-.3-.2-.1-.6-.2-.9-.2,0,0,.5,0,.6-.2-.2,0-1-.3-1.1s-.3.5-.3.8v-.4c-.3.1,0,.4-.5.3s0-.2-.2-.3-.6-.2-.6-.2.2-.5,0-.7c0-.2,0-.6,0-.8Z"/>
    <path class="st0" d="M33.5,37.1c0,0,.3-.6.3-.7,0,0,.2,0,.3,0,0,0,0-.5.3-.4,0,.2.2.4.2.6s-.2.5-.3.7,0,.6,0,.8c0-.3-.1-.4,0-.7-.2,0,0,.3,0,.4s-.4,0-.5,0v-.7Z"/>
    <path class="st0" d="M33.8,33.7c.2.6-.1.9-.3,1.5h0c0-.4.2-1.2.3-1.5,0,0,0,0,0,0Z"/>
    <path class="st0" d="M29.8,33.9c-.3.7-.4,1.6-.6,2.3s-.4.9-.5,1c-.3,0-.3-.8-.3-1-.2-.1,0-1,.1-1.2l.3-.3c.2-.5.3-.8.9-.9h0Z"/>
    <path class="st0" d="M27.9,35.1l.4-.4c0,.3-.4.6,0,.8v-.4c.1,0,.6-.3.6-.3-.1.3-.4,1.2-.4,1.5h-.4c0,0,.1-.7-.2-.8,0-.1,0-.3,0-.4Z"/>
    <path class="st0" d="M30.6,39.3c.3.3-.3.1-.5.3s-.1.3-.3.4c-.3.1-.2-.2-.1-.3s.2-.2.2-.4c.1.1.5.1.7,0Z"/>
    <path class="st0" d="M30.9,31.6c-.5.1-.7.5-1.1.7s-.3,0-.4.1-.2.7-.5.5.5-1.5.5-1.6.2,0,.3-.1.1-.2.2-.3c.4-.2,1.6-.3,1.4.4s-.3.2-.5.2Z"/>
    <path class="st0" d="M40.8,33.1c0,0,.6-.2.5-.4.1,0,0,.1.1.1.4.3.9.4,1.3.8s.3.5.3.5c.2.5-.2.5-.6.4-.3,0-.6-.2-.8-.4s-.6-.4-.6-.5c-.2-.2-.3-.5-.3-.7Z"/>
    <path class="st0" d="M38.6,33.3c0-.2-.1-.6.2-.6s.4.2.5.3c.4.1.7,0,.9.4s.5,1,0,1.1-1.1-1-1.6-1.1Z"/>
    <path class="st0" d="M42.5,31.7s0,.1,0,.2c.4.3.7.4.6,1.1-.2.2-.8-.5-.9-.7s0-.7.2-.5Z"/>
    <path class="st0" d="M30.4,38.3c.3.2.2.2.7.1,0,.4-.2.4-.6.4-.8,0-1-1.1-1-1.8.6.1.3.7.9,1.2Z"/>
    <path class="st0" d="M31.4,32.4c.7-.6,1.2.6.5,1s-.9-.6-.5-1Z"/>
  </g>
</svg>