<?xml version="1.0" encoding="UTF-8"?>
<svg id="Layer_1" xmlns="http://www.w3.org/2000/svg" version="1.1" viewBox="0 0 91 90">
  <!-- Generator: Adobe Illustrator 30.0.0, SVG Export Plug-In . SVG Version: 2.1.1 Build 123)  -->
  <defs>
    <style>
      .st0 {
        fill: #403f3e;
      }
    </style>
  </defs>
  <path class="st0" d="M49.4,30.5c.6-.1,1.1-.2,1.6-.3.6,0,1.1-.2,1.7-.2.2,0,.4,0,.6,0,3.6,3.7,5.7,8,6.4,13.1,3.3,0,5.9,1,7.9,3-3.7-1.6-6.7-2.4-9.1-2.1-.4,0-.8.1-1.1.3-1,.4-1.6,1.2-1.9,2.4-1,4.3.1,7.2,3.5,8.6.1,0,.2,0,.3.1.1,0,.2,0,.3.1.3,0,.6,0,.8,0l7.5-3.8c-.8.6-1.5,1.2-2.3,1.8-1.8,1.8-3.8,3.5-6,5.1-.3,0-.6.1-1,.2l-.4.9c3-.3,6.2-.8,9.5-1.5.9-.2,1.8-.4,2.7-.7,1.3-.4,2.5-.8,3.7-1.2-4.9-8.4-5.1-16.8-.6-25.2-1.5-.5-3.2-.9-4.9-1.1-2.6-5.3-7.2-7.3-13.9-5.8-3.1,1-5.6,2.8-7.5,5.3,1.3.5,2,.9,2.3,1.2ZM20.3,40.7c-.5,0-1-.2-1.5-.3-1.7-.4-3.5-1.1-5.3-2.1-1.9-1.1-3.9-1.8-5.9-2.2-1.9,0-3.2.6-3.8,1.7-3.1,5.9-2.6,12.4,1.6,19.4.6.8,2,1,4.4.4,1.8-.9,3.6-1.9,5.4-3.1,1.7-1.1,3.5-2.1,5.2-3,.1,0,.2-.1.4-.2.7-3.6.6-7.1-.4-10.6ZM30.6,30.5c-2.7.3-5.1,1.9-7.1,4.9-.2.4,0,.9.6,1.6.6.7,1.3,1.4,2.3,1.9.3,0,.5.1.8.1l-.4.2c3.3,3.5,3.8,7.8,1.5,12.8,0,0,.2,0,.3.1.9.4,1.8.9,2.6,1.5,1.5.9,3.1,1.7,4.8,2.3,2.3,1.2,4.8,2.1,7.5,2.7.2,0,.4,0,.6.1.5.1,1.1.2,1.6.3,3.9-9.6,2.6-18.4-4-26.5-.2-.2-.4-.4-.6-.6-3.2-1.4-6.7-1.9-10.5-1.5ZM89.6,45.2c.3-.2.3-.5,0-.7-1.2.9-2.6,1.1-4.2.8,1.4.2,2.7-.1,3.9-1,.2-.2.5-.4.7-.6.1-.6,0-1.1-.3-1.5-3.2-3.5-6.9-6.5-11.1-8.8-2.8,7-3.1,14.1-.8,21.1,4.3-1.9,7.9-4.7,10.8-8.2.4-.2.8-.5,1.1-1ZM79.9,39.5c.4,0,.8.1,1.1.4.3.3.4.7.4,1.1s-.1.8-.4,1.1c-.3.3-.7.4-1.1.4s-.8-.1-1.1-.4c-.3-.3-.4-.7-.4-1.1s.1-.8.4-1.1c.3-.3.7-.4,1.1-.4Z"/>
  <path class="st0" d="M51.5,23.7c-1.6.8-2.9,1.9-3.8,3.1-.9,1.3-1.1,2.1-.5,2.4,1.9-2.5,4.4-4.3,7.5-5.3,6.7-1.5,11.3.5,13.9,5.8-.4-3.2-2.5-5.5-6.3-7-3.1-1.2-6.6-.9-10.7,1ZM73.8,31c-.1,0-.3,0-.4-.1-4.5,8.3-4.3,16.7.6,25.2.2,0,.4-.2.7-.3-4.6-8.4-4.8-16.6-.5-24.6-.1,0-.2-.1-.4-.2ZM53.3,29.8c-.2,0-.4,0-.6,0,3.3,4,5.1,8.4,5.5,13-.4,0-.8,0-1.2.2-1,.2-1.7.8-2.3,1.9-.9,1.9-1.1,4.1-.4,6.8.4,1.7,1.2,3.1,2.4,4.1.3.3.6.5,1,.7.3.2.7.4,1,.5.2,0,.3,0,.5,0,.2,0,.5,0,.7-.2,2-1.1,3.9-2.3,5.8-3.7.8-.6,1.5-1.1,2.3-1.8l-7.5,3.8c-.2,0-.5,0-.8,0,0,0-.2,0-.3-.1-.1,0-.2,0-.3-.1-3.4-1.4-4.5-4.3-3.5-8.6.3-1.2.9-2,1.9-2.4.3-.1.7-.2,1.1-.3,2.4-.2,5.5.5,9.1,2.1-2-1.9-4.7-2.9-7.9-3-.7-5-2.9-9.4-6.4-13.1ZM7.6,36c-1-.2-2-.3-3-.3-1,0-1.8.4-2.4.9-2,3.2-2.7,7-1.9,11.4.8,4.4,2.3,8,4.6,10.7.6.4,1.3.4,2.2,0,.9-.4,1.7-.7,2.6-1.2-2.3.6-3.8.4-4.4-.4-4.2-7-4.7-13.5-1.6-19.4.7-1.1,1.9-1.7,3.8-1.7ZM57.5,59.4c.2,0,.4,0,.6,0l.4-.9c-.5-.2-.9-.5-1.3-1.1l-.9,2.1c.4,0,.7,0,1.1,0ZM25.4,54.7c-.1,0-.2.1-.2.3-.3,1.1.3,2.6,1.9,4.4,1.7,1.9,4.4,2.9,8.2,2.8,3.8,0,6.7-1.2,8.7-3.4-.2,0-.4,0-.6-.1-2.2,1.7-4.8,2.5-7.7,2.6-3,0-5.3-.6-6.9-1.8-1.6-1.3-2.5-2.3-2.7-3.3-.2-.9,0-1.7.5-2.3-.4.3-.9.6-1.4.8ZM20.9,40.7c-.2,0-.4,0-.6,0,1,3.4,1.1,6.9.4,10.6.2,0,.4-.2.5-.2,1.3-3.4,1.1-6.8-.4-10.3ZM26.7,39.4c-.1,0-.2.1-.3.2,2.8,3.7,3.3,7.8,1.5,12.4.1,0,.2,0,.3.1,2.3-5,1.8-9.2-1.5-12.8ZM42.3,32.5c-.2,0-.4.1-.6.2,6.6,8,8,16.9,4,26.5.3,0,.5,0,.8.1,4.1-11.2,2.7-20.1-4.2-26.8ZM22.4,35.3c-.1.5,0,1,.3,1.3,1.2,1.3,2.5,2.1,3.8,2.4-.9-.6-1.7-1.2-2.3-1.9-.6-.7-.8-1.3-.6-1.6,2-3,4.4-4.7,7.1-4.9,3.7-.4,7.2.1,10.5,1.5-1.9-1.8-4.8-2.7-8.9-2.9-4.2.2-7.5,2.2-9.8,6.2ZM78.5,33.3c-.2,0-.3-.2-.5-.3-3.4,7.1-3.7,14.4-.9,21.7.2,0,.3-.2.5-.3-2.3-7.1-2-14.1.8-21.1Z"/>
  <path class="st0" d="M59.8,56.9c-.2.1-.5.2-.7.2l-.6,1.3c.4,0,.7,0,1-.2,2.2-1.6,4.3-3.3,6-5.1-1.9,1.4-3.9,2.6-5.8,3.7ZM58.1,59.3c-.5.8-1,1.6-1.5,2.3-.6.8-.8,1.7-.8,2.7s0,.6.2.8c.2.3.5.4.9.4.9-.1,1.9-.3,2.8-.6.9-.3,1.7-.6,2.5-1,.8-.4,1.6-.8,2.4-1.2.8-.5,1.7-1,2.5-1.6.6-.4,1.1-.8,1.6-1.3.7-.8,1.3-1.7,1.6-2.6-.9.2-1.8.5-2.7.7-3.3.7-6.4,1.2-9.5,1.5ZM57.3,57.3l.3-.8c-.4-.2-.7-.4-1-.7.2.6.4,1.1.7,1.5ZM31.2,53.7c-.9-.5-1.7-1-2.6-1.5-.6.6-1.2,1.2-1.8,1.6h0c-.5.6-.7,1.4-.5,2.3.2.9,1.1,2,2.7,3.3,1.6,1.3,3.9,1.9,6.9,1.8,2.9,0,5.5-.9,7.7-2.6-2.7-.6-5.2-1.5-7.5-2.7-1.7-.6-3.3-1.4-4.8-2.3ZM89.5,44.4l-.3-.2c-1.2.9-2.5,1.2-3.9,1,1.5.4,2.9.1,4.2-.8Z"/>
  <path class="st0" d="M56.6,61.6c.5-.8,1-1.5,1.5-2.3-.2,0-.4,0-.6,0-.7,1-1.4,2.1-1.9,3.4,0,.2-.2.4-.3.6-.1.3-.2.6-.3.9-.2.5,0,1,.4,1.4,0,0,.1.1.2.2.3.2.8.3,1.3.2.2,0,.4,0,.6-.1.8-.2,1.5-.5,2.2-.7.3,0,.5-.2.8-.3,3.7-1.4,6.4-3.1,8.2-5-.5.5-1,.9-1.6,1.3-.8.6-1.6,1.1-2.5,1.6-.8.5-1.6.9-2.4,1.2-.8.4-1.7.7-2.5,1-.9.3-1.8.5-2.8.6-.4,0-.8,0-.9-.4-.1-.2-.2-.4-.2-.8,0-1,.3-1.9.8-2.7ZM57.6,56.5l-.3.8c.4.6.8,1,1.3,1.1l.6-1.3c-.2,0-.3,0-.5,0-.4-.2-.7-.3-1-.5Z"/>
  <path class="st0" d="M26,51.1c.7.3,1.3.6,2,.9,1.8-4.6,1.3-8.8-1.5-12.4-1.9.9-3.7,1.3-5.5,1.2,1.5,3.4,1.6,6.9.4,10.3,1.5-.6,3.1-.5,4.7.1ZM51.1,30.1c-.5,0-1.1.2-1.6.3-2.1.4-4.4,1.1-7.1,2,6.9,6.7,8.3,15.6,4.2,26.8,1.6.2,3.3.3,5,.3,1.6,0,3.2,0,4.9-.1l.9-2.1c-.2-.4-.5-.9-.7-1.5-1.2-1-1.9-2.4-2.4-4.1-.6-2.6-.5-4.9.4-6.8.5-1.1,1.3-1.7,2.3-1.9.4,0,.8-.1,1.2-.2-.4-4.7-2.2-9-5.5-13-.5,0-1.1.2-1.7.2ZM80,40.7c0,.2,0,.3.2.4.1.1.2.2.4.2s.3,0,.4-.2c.1-.1.2-.2.2-.4s0-.3-.2-.4c-.1-.1-.2-.2-.4-.2s-.3,0-.4.2c-.1.1-.2.2-.2.4ZM78.1,33c-1.2-.7-2.5-1.3-3.8-1.9-4.2,8-4.1,16.2.5,24.6.8-.3,1.6-.7,2.4-1.1-2.8-7.3-2.5-14.5.9-21.7Z"/>
  <path class="st0" d="M81,39.9c-.3-.3-.7-.4-1.1-.4s-.8.1-1.1.4c-.3.3-.4.7-.4,1.1s.1.8.4,1.1c.3.3.7.4,1.1.4s.8-.1,1.1-.4c.3-.3.4-.7.4-1.1s-.1-.8-.4-1.1ZM80.1,41.1c-.1-.1-.2-.2-.2-.4s0-.3.2-.4c.1-.1.2-.2.4-.2s.3,0,.4.2c.1.1.2.2.2.4s0,.3-.2.4c-.1.1-.2.2-.4.2s-.3,0-.4-.2Z"/>
</svg>