<?xml version="1.0" encoding="UTF-8"?>
<svg id="Layer_1" xmlns="http://www.w3.org/2000/svg" version="1.1" viewBox="0 0 91 90">
  <!-- Generator: Adobe Illustrator 30.0.0, SVG Export Plug-In . SVG Version: 2.1.1 Build 123)  -->
  <defs>
    <style>
      .st0, .st1 {
        fill: #403f3e;
      }

      .st1 {
        stroke: #212226;
        stroke-linecap: round;
        stroke-linejoin: round;
        stroke-width: .2px;
      }
    </style>
  </defs>
  <path class="st0" d="M23.2,53.2c1.1.2,2.1.3,3.2.2.7,0,1.4,0,2-.2,2.1-.3,3.9-.9,5.3-2,1.6.9,3.4,1.4,5.3,1.3.2-.2.4-.5.6-.7-.7-.7-1.4-1.6-2-2.6.3,1.2,0,1.8-1.1,1.7l-2.8-.9c-1.3,1.2-3.1,1.8-5.6,1.9-2,0-3.9-.4-5.7-1l-17.6,1.9,14.6-.9c1.2.6,2.5,1,3.7,1.3ZM53.6,46.9c-.1-.4-.2-.9-.3-1.6-1,1.1-2.5,2.1-4.4,3-1.3.6-2.7.8-4,.7.3.8.5,1.6.5,2.3,1.9-.5,3.6-1.2,5.2-2.2,1.1-.6,2-1.4,3-2.2ZM83,55.1c3-1.1,5.2-2.8,6.6-4.9.3-.9.4-1.7.3-2.4-.2,1.3-.8,2.4-1.6,3.3-2,2.1-5.2,3.7-9.7,4.8,1.4,0,2.9-.3,4.5-.8ZM81.8,48.6h-2.9c-4-.2-8.1-1-12.3-2.4-2.2-.6-4.2-1.6-5.8-3-.2.7-.5,1.4-.9,2-.4.7-.2,1.3.6,1.8.2.1.3.2.4.3,8.2,2.1,13.8,2.9,16.8,2.4l2.4-.4c1.3-.3,2.1,0,2.4.9.3-.2.6-.5.8-.7.1-.5-.4-.9-1.4-1.1Z"/>
  <path class="st0" d="M23.2,53.2v.9c-1.4.2-2.7.7-3.8,1.7-.3.4-.3.7,0,.8.4.2.7,0,1.1-.5-.2.4-.2.7,0,1,.4.3.9.2,1.6-.5-.2.7-.2,1.1.3,1.2.4,0,.9-.1,1.5-.7-.2.6,0,.9.5.9,1.1.1,2.1-.6,3-2.1.6-.9.9-1.9,1.1-2.8-.6,0-1.3.2-2,.2-1.1,0-2.1,0-3.2-.2ZM48.1,52.5c1.2-1,2-2.1,2.5-3.4-1.6.9-3.3,1.7-5.2,2.2,0,.5,0,.9,0,1.3.5.1.9,0,1.2-.5-.1.7,0,1,.5,1.1.5,0,.9-.2,1.1-.7ZM20.1,39c-.7.2-1.3.6-1.6,1.3.4-.4,1-.7,1.6-.9.7,0,1.3.2,1.9.5-.6-.7-1.3-1-1.9-1ZM2.8,48c0,0,.2.1.3.1s.2,0,.3-.1c0,0,.1-.2.1-.3s0-.2-.1-.3c0,0-.2-.1-.3-.1s-.2,0-.3.1c0,0-.1.2-.1.3s0,.2.1.3ZM4.8,48.8c.1,0,.2,0,.3-.1,0,0,.1-.2.1-.3s0-.2-.1-.3c0,0-.2-.1-.3-.1s-.2,0-.3.1c0,0-.1.2-.1.3s0,.2.1.3c0,0,.2.1.3.1Z"/>
  <path class="st0" d="M20.7,47.2c0,.6.1.9.4.9.2,0,.3-.4.2-1.3-.2.1-.4.3-.6.4ZM22.2,46c-.2.2-.3.4-.5.5,0,.6,0,.9.3.8.2,0,.3-.5.2-1.4ZM19.3,47.7c-.1-.5-.3-.8-.5-.8-.2,0-.3.3-.3.9.3,0,.5,0,.8,0ZM19.6,47.6c.1.6.3.9.5.9.3,0,.4-.4.2-1.1-.2,0-.5.2-.7.2ZM17.3,47.8c.3,0,.6,0,.8,0,0-.6-.1-.9-.4-.9-.3,0-.4.4-.4.9ZM7.3,51c-.2,0-.5,0-.7.1,0,.7.1,1,.4,1,.2-.2.3-.6.3-1.1ZM5.2,52.1c.3,0,.4-.4.4-.9-.3,0-.6,0-.9,0,0,.5.2.8.6,1ZM8.1,51.8c.3-.2.5-.5.5-1.2-.3.1-.6.2-.9.3,0,.7.2,1,.4.9ZM9.9,50.1c-.4.2-.7.3-1.1.4,0,.7.1,1.1.5,1.2.4-.1.6-.7.6-1.6ZM12,49.7c-.3,0-.6,0-.9,0,0,.6.2,1,.4,1,.2,0,.4-.4.4-1.1ZM12.8,50.6c.3,0,.4-.5.4-1.1-.3,0-.6.1-.9.1,0,.6.3.9.6.9ZM14.6,50.7c.3,0,.4-.6.2-1.7-.4.2-.8.3-1.2.4.3.9.7,1.4,1,1.3ZM3.9,51.1c-.3,0-.6,0-.9-.2,0,.6.2,1,.4,1.1.4,0,.6-.4.5-.9ZM16.9,47.7c-.2.2-.5.4-.8.6,0,.4.1.6.3.8.3.1.4-.4.4-1.4Z"/>
  <path class="st0" d="M43.4,43.9c-.9.5-1.2,1.2-.8,2.1,1,.9,1.8,1.9,2.3,3,1.3.1,2.7-.1,4-.7,2-.9,3.4-1.9,4.4-3,0-.6,0-1.3,0-2.2,0-1-.4-1.6-1.4-1.7l-8.4,2.5ZM4.6,51.2c-.2,0-.4,0-.7,0,0,.5,0,.9-.5.9-.2,0-.3-.5-.4-1.1-.5-.1-1-.3-1.5-.4.5,1.6,1.5,2.3,3.3,2.3l17.6-1.9c1.8.6,3.7.9,5.7,1,2.4,0,4.3-.7,5.6-1.9l2.8.9c1.1.1,1.4-.4,1.1-1.7-.5-.8-1-1.7-1.4-2.8-.5-1-1.3-1.4-2.4-1.4-2.6.3-4.9,0-7.1-.6-1,1.1-2.4,1.5-4.3,1.2,0,.1-.2.2-.3.3.1.8,0,1.3-.2,1.4-.3,0-.4-.3-.3-.8-.1.1-.3.2-.4.3,0,.9,0,1.3-.2,1.3-.2,0-.3-.3-.4-.9-.1,0-.2.1-.4.2.2.8,0,1.2-.2,1.1-.2,0-.4-.3-.5-.9-.1,0-.2,0-.3,0-.3,0-.5,0-.8,0-.1,0-.2,0-.3,0-.3,0-.5,0-.8,0-.1,0-.3,0-.4,0,0,1-.1,1.5-.4,1.4-.2-.1-.3-.4-.3-.8-.4.3-.8.5-1.3.7.2,1.1,0,1.6-.2,1.7-.3,0-.7-.4-1-1.3-.1,0-.3,0-.4,0,0,.6,0,1-.4,1.1-.3,0-.5-.3-.6-.9,0,0-.2,0-.3,0,0,.7-.2,1.1-.4,1.1-.2,0-.3-.4-.4-1-.1,0-.3,0-.4,0-.3.1-.5.3-.8.4,0,1-.2,1.5-.6,1.6-.3,0-.5-.5-.5-1.2-.1,0-.2,0-.3.1,0,.6-.2,1-.5,1.2-.2.1-.3-.2-.4-.9-.1,0-.2,0-.3,0,0,.5,0,.9-.3,1.1-.3,0-.4-.3-.4-1-.3,0-.7,0-1,0,0,.5,0,.9-.4.9-.4-.2-.6-.5-.6-1ZM89.9,47.8c-.2-.8-.6-1.5-1.3-2.1.5,1.4.3,2.6-.6,3.6-3,3.5-7.5,5.7-13.4,6.5,1.2.2,2.6.2,3.9.1,4.5-1.1,7.8-2.7,9.7-4.8.8-.9,1.4-2,1.6-3.3ZM84.1,48.4c.6-1.6-.8-2.7-4.2-3.1-4.4,0-7-.3-7.9-.5-3-.6-6.1-1.8-9.2-3.3-.7-.1-1.2.1-1.7.8,0,.3-.1.6-.2,1,1.6,1.4,3.6,2.4,5.8,3,4.2,1.3,8.3,2.1,12.3,2.4h2.9c1,.2,1.5.5,1.4,1.1.4-.4.7-.8.9-1.2Z"/>
  <path class="st0" d="M11.8,40.1c.3-.1.5-.3.8-.4.2-.3.5-.6.7-.8-.9,0-1.5.5-1.5,1.3ZM19.8,40.3c-.2.1-.3.3-.3.5s0,.3.3.5c.2.1.4.2.7.2s.5,0,.7-.2c.2-.1.3-.3.3-.5s0-.3-.3-.5c-.2-.1-.4-.2-.7-.2s-.5,0-.7.2Z"/>
  <path class="st0" d="M79.9,45.3c3.4.4,4.8,1.5,4.2,3.1-.2.4-.5.8-.9,1.2-.2.2-.5.5-.8.7-2,1.5-5.4,3.1-10.3,4.8.8.3,1.7.5,2.5.6,5.9-.8,10.4-2.9,13.4-6.5,1-1,1.2-2.2.6-3.6-.3-.3-.6-.5-1-.7-1.6-.9-3.5-1.6-5.7-2.3l-11-3.7c-1.6-.4-2.9-1.2-3.9-2.4-1.7-2.2-4.6-4-8.4-5.5-3.3-2.2-7.7-3-13.3-2.4-5.1.9-9.1,2.6-12.1,5.1-3.7.7-6.6,2.2-8.8,4.5l-8.1.4c-1.1-.6-2.1-.5-2.9.2,0,0,0,0,0,0-.3.2-.5.5-.7.8-.3.1-.5.3-.8.4-1.9,1.1-3.3,2.4-4.1,4.1l-2.9,1.9c-1.7,0-3,.9-3.8,2.8-.2.9,0,1.5.7,1.7.5.2,1,.3,1.5.4.3,0,.6.1.9.2.2,0,.4,0,.7,0,.3,0,.6,0,.9,0,.3,0,.7,0,1,0,.2,0,.5,0,.7-.1.1,0,.2,0,.3,0,.3,0,.6-.2.9-.3.1,0,.2,0,.3-.1.4-.1.7-.3,1.1-.4.3-.1.5-.2.8-.4.2,0,.3,0,.4,0,.3,0,.6,0,.9,0,0,0,.2,0,.3,0,.3,0,.6,0,.9-.1.2,0,.3,0,.4,0,.4-.1.8-.2,1.2-.4.5-.2.9-.4,1.3-.7.3-.2.5-.4.8-.6.2,0,.3,0,.4,0,0-.5.1-.8.4-.9.3,0,.4.4.4.9.1,0,.2,0,.3,0,0-.6.1-.9.3-.9.2,0,.4.3.5.8.1,0,.2,0,.3,0,.3,0,.5-.1.7-.2.1,0,.3-.1.4-.2.2-.1.4-.2.6-.4.1,0,.3-.2.4-.3.2-.2.4-.3.5-.5,0-.1.2-.2.3-.3,1.8.3,3.2-.1,4.3-1.2,2.2.7,4.6.9,7.1.6,1.1,0,1.9.5,2.4,1.4.5,1,.9,2,1.4,2.8.6,1.1,1.3,1.9,2,2.6-.2.2-.4.5-.6.7-.9,1.1-1.5,2.3-2,3.8-1.3.6-2.4,1.4-3.4,2.3-.3.3-.3.6,0,.8.3.3.7.2,1.2-.3-.2.4,0,.8.2,1.1.3.3.9,0,1.6-.6,0,.7.2,1.1.6,1.1.4.1.8-.1,1.4-.7,0,.5,0,.8.5,1,.6.1,1-.1,1.3-.7.8-1.2,1.2-2.3,1.3-3.5,1.2-.6,2.3-1.6,3.2-3.2.2-.4.4-.8.5-1.2,0-.4.1-.8,0-1.3,0-.7-.2-1.5-.5-2.3-.5-1.1-1.2-2.1-2.3-3-.3-.9,0-1.6.8-2.1l8.4-2.5c1,.2,1.4.8,1.4,1.7,0,.8,0,1.6,0,2.2,0,.7.1,1.2.3,1.6,0,.1,0,.2.1.3.6,1.8,1.7,3.2,3.1,4.2.8.9.8,1.7,0,2.6-.9.5-1.5,1.1-1.9,2-.3.5-.3.8,0,1,.4.2.7,0,1.1-.6,0,.7.1,1.1.6,1.1.5.2.9-.1,1.2-.9.4.7.8,1.1,1.3,1,.5,0,.8-.3.8-1.2.4.9.9,1.2,1.4.7,1-2.2,1.4-4.5,1.3-6.8,0-1.2-.6-2.2-1.7-3.1-.1-.1-.3-.2-.4-.3-.7-.5-.9-1.1-.6-1.8.4-.6.7-1.3.9-2,0-.3.2-.6.2-1,.5-.7,1-.9,1.7-.8,3.2,1.6,6.3,2.7,9.2,3.3.9.3,3.5.4,7.9.5ZM5.1,48.6c0,0-.2.1-.3.1s-.2,0-.3-.1c0,0-.1-.2-.1-.3s0-.2.1-.3c0,0,.2-.1.3-.1s.2,0,.3.1c0,0,.1.2.1.3s0,.2-.1.3ZM3.1,48.1c-.1,0-.2,0-.3-.1,0,0-.1-.2-.1-.3s0-.2.1-.3c0,0,.2-.1.3-.1s.2,0,.3.1c0,0,.1.2.1.3s0,.2-.1.3c0,0-.2.1-.3.1ZM18.5,40.3c.4-.7.9-1.1,1.6-1.3.6,0,1.3.3,1.9,1-.6-.3-1.3-.5-1.9-.5-.6.2-1.2.5-1.6.9ZM19.5,40.8c0-.2,0-.3.3-.5.2-.1.4-.2.7-.2s.5,0,.7.2c.2.1.3.3.3.5s0,.3-.3.5c-.2.1-.4.2-.7.2s-.5,0-.7-.2c-.2-.1-.3-.3-.3-.5Z"/>
  <path class="st0" d="M20.5,38.3h1.3c0-.4-.2-.5-.6-.5-.5,0-.8.2-.8.5ZM18.6,38.4h1.1c0-.4-.1-.5-.6-.5-.4,0-.5.2-.5.5ZM23.9,38.1c0-.3-.3-.5-.7-.5-.4,0-.5.2-.5.6h1.2ZM42.7,29.3s0,0,0,0c.4-.1.7-.2,1.1-.3,0-.3-.2-.5-.6-.5-.5.1-.7.4-.6.8ZM82.5,42.7c.1,0,.2,0,.3.1,0-.5,0-.8-.5-1-.6-.1-1,0-1.3.5l1.4.4ZM83.4,43.1c.5,0,1,.2,1.4.4.1-.5,0-.9-.5-.9-.4,0-.7.2-.9.6ZM73.8,40.4c.3-.4.1-.9-.6-1.3-.4,0-.8.2-1,.6.6.2,1.1.5,1.7.7ZM51.8,29.8c0-.3-.2-.5-.6-.4-.4,0-.6.2-.5.5.4,0,.8,0,1.2,0ZM48.2,30.5c.3-.1.7-.2,1-.3,0-.3-.2-.4-.6-.3-.5.2-.6.4-.4.6ZM46.6,31c0-.4-.2-.5-.6-.4-.3.2-.5.4-.3.7.3-.1.6-.2.9-.4ZM44.2,32c0-.4-.3-.5-.7-.4-.5.3-.6.6-.4.9.3-.2.7-.3,1-.5ZM41.5,32.7c-.4.2-.5.5-.3.8.3-.2.6-.3.9-.5-.1-.4-.3-.5-.6-.3ZM39.8,34.4c-.3-.3-.6-.3-.9-.2-.4.2-.4.5,0,.8.3-.2.6-.4.9-.6ZM38.2,35.6c-.2-.3-.5-.3-.9-.2-.3.4-.3.6,0,.8.3-.2.6-.5.9-.7ZM36.3,36.9c-.2-.3-.4-.4-.7-.3-.3,0-.4.3-.3.5.3,0,.6-.2,1-.2ZM34.5,37.4c-.1-.3-.3-.4-.6-.3-.3,0-.5.3-.5.7.3-.1.7-.2,1.1-.4ZM31.9,37.9c-.5.1-.6.3-.3.7.4-.2.7-.3,1.1-.5-.2-.2-.5-.3-.7-.2ZM31,38.9c-.2-.2-.4-.3-.8-.2-.4.3-.5.6-.3.9.3-.2.7-.5,1.1-.7ZM29.2,40c-.3-.3-.6-.3-.9-.1-.3.3-.3.6,0,.9.3-.3.6-.5.9-.8ZM26.7,41.4h.8c0-.4-.2-.6-.4-.5-.3,0-.4.2-.4.5ZM25.6,41.4h.8c0-.4-.2-.6-.4-.5-.3,0-.5.2-.4.5ZM73.2,54.1c-.4.1-.5.4-.4.9.5-.1,1-.3,1.5-.4-.4-.4-.7-.6-1.1-.5ZM75.1,53.4c-.4.2-.6.6-.4,1,.5-.2,1-.3,1.4-.5-.2-.5-.6-.7-1-.5ZM77.5,52.3c-.5.2-.6.6-.4,1.4.5-.2,1.1-.5,1.6-.7-.3-.4-.7-.6-1.2-.6ZM80.7,51.8c-.2-.4-.5-.5-1-.5-.5.5-.6.9-.3,1.2.5-.2.9-.5,1.4-.8ZM81.6,50.3c-.3.4-.4.8-.3,1.1.1,0,.3-.2.4-.2.3-.2.6-.4.8-.6-.2-.4-.5-.5-.9-.3ZM83,49.2c-.2.3-.3.7,0,1,.4-.3.7-.7,1-1-.3-.2-.6-.2-1,0ZM84.8,48.1c0-.1.2-.3.2-.4-.3-.5-.5-.6-.8-.3-.2.3-.2.8,0,1.5.2-.2.4-.5.5-.8ZM86.8,46.7c0,0,0-.1.1-.2-.3-.4-.6-.3-.9.2v.9c.3-.3.5-.6.8-.9ZM85.8,44.6c-.3-.2-.6-.2-.7,0,.3.4.4.9.4,1.4.3-.4.4-.9.3-1.4ZM86.2,43.4c-.3-.2-.5,0-.8.4.4.2.8.5,1.2.8,0-.4,0-.8-.4-1.2ZM80.2,42.1c.1-.4,0-.7-.4-.9-.4-.2-.7,0-.8.5l1.3.3ZM76.6,40.2c-.7-.2-1.1,0-1.1.7.1,0,.2,0,.3,0l1.3.3c.3-.4.1-.8-.4-1.1ZM71.8,39.5c.1-.4,0-.8-.5-1.2-.5,0-.9,0-1.1.4.5.3,1,.6,1.6.8ZM68.1,36.3c-.4-.3-.8-.3-1.2,0,.4.4.8.7,1.2,1.1,0,0,.1,0,.2.1.3-.3.3-.7-.1-1.2ZM66.1,35.7c.3-.4.2-.9-.3-1.3-.4-.1-.8,0-1.1.3.5.3.9.7,1.3,1ZM63.5,32.8c-.4-.2-.8-.1-1.2.3.5.3.9.5,1.3.8.2-.4.2-.8-.2-1.1ZM61.8,32.7c.2-.3.1-.7-.2-1-.4-.2-.7,0-.9.4.4.2.8.4,1.2.6ZM59.9,31.7c.3-.3.2-.6-.2-.9-.6-.2-1-.1-1.2.2.5.2,1,.4,1.5.7ZM57.7,30.7c0,0,.2,0,.2,0,.3-.4.2-.7-.3-.8-.3-.2-.6,0-1,.3.3.1.6.3.9.4,0,0,0,0,.1,0ZM55.9,29.9c0-.3-.1-.5-.5-.8-.3,0-.6,0-.8.3.5.1.9.3,1.3.4ZM53.1,29.1c0-.3-.1-.5-.4-.6-.5,0-.8,0-.9.4.4,0,.9.1,1.3.2ZM50.7,28.8c.2-.4,0-.6-.6-.7-.6-.1-.9,0-.8.6.1,0,.2,0,.3,0,0,0,0,0,0,0,.3,0,.7,0,1,0ZM47.7,28c-.6,0-.8.1-.7.6.5,0,.9,0,1.4,0,0-.3-.2-.5-.7-.6ZM45.5,28.7c0-.2-.1-.4-.6-.5-.4,0-.5.3-.4.6.4,0,.7-.1,1-.1ZM41.3,29.5c-.1-.4-.4-.5-.8-.5-.4.1-.5.4-.4.7.4-.1.8-.2,1.1-.3ZM38.6,30.3c-.2-.3-.5-.4-.9-.3-.4.2-.6.5-.3.8.4-.2.8-.3,1.2-.5ZM36.3,31.3c-.2-.3-.4-.4-.7-.2-.4.2-.5.5-.3.8.3-.2.6-.4,1-.6ZM33.5,32.5c-.3.2-.3.5,0,.7.3-.2.6-.5.9-.7-.3-.3-.5-.3-.9,0ZM30.8,34.2c.4-.1.7-.2,1.1-.3,0-.4-.2-.5-.7-.3-.3.2-.4.4-.4.7ZM28.9,34.5c-.5.2-.6.4-.2.7.3-.2.6-.3,1-.4,0-.3-.3-.4-.7-.2ZM27.7,35.6c-.2-.3-.4-.4-.7-.2-.6.2-.7.5-.3.9.3-.2.7-.5,1.1-.7ZM26,36.8c-.2-.3-.4-.4-.7,0-.3.3-.4.6-.3.9.3-.3.6-.5,1-.8ZM87.4,44.3l-.3.6c.2.2.3.4.3.7v-1.3Z"/>
  <path class="st1" d="M83.4,43.1c.5,0,1,.2,1.4.4.1-.5,0-.9-.5-.9-.4,0-.7.2-.9.6ZM83.4,43.1h0c.8.4,1.4.9,1.7,1.5.1-.2.4-.2.7,0,.2.5,0,1-.3,1.4,0,.5-.1,1.1-.4,1.7,0,.1-.2.3-.2.4-.2.3-.3.5-.5.8-.1.1-.2.3-.3.4.8-.5,1.5-1,2.1-1.6v-.9c.3-.5.6-.5.9-.2.2-.3.3-.6.3-.8,0,0,0,0,0-.1,0-.3,0-.5-.3-.7-.1-.1-.3-.2-.4-.3-.4-.3-.8-.6-1.2-.8-.2-.1-.4-.2-.6-.3M83.4,43.1h0,0M82.9,42.9c.2,0,.3.2.5.2M78.9,41.8c.2-.5.5-.7.8-.5.4.2.6.5.4.9l1,.3M78.9,41.8l1.3.3M85.4,43.8c.3-.5.5-.6.8-.4.3.4.5.8.4,1.2M87.1,44.9l.3-.6v1.3M87,46.5c0,0,0,.1-.1.2-.2.3-.5.6-.8.9M85.1,44.6c.3.4.4.9.4,1.4M85.1,47.6c-.3-.5-.5-.6-.8-.3-.2.3-.2.8,0,1.5M72.2,39.7c.3-.4.6-.6,1-.6.8.4,1,.9.6,1.3.5.2,1.1.4,1.6.5,0-.7.4-.9,1.1-.7.5.3.7.7.4,1.1l1.9.5M75.4,40.9c.1,0,.2,0,.3,0l1.3.3M66.9,36.3c.4-.3.8-.3,1.2,0,.4.5.4.9.1,1.2.6.4,1.3.8,1.9,1.2.2-.4.6-.5,1.1-.4.4.4.6.8.5,1.2.1,0,.3.1.4.2.5.2,1.1.5,1.7.7M66.9,36.3c.4.4.8.7,1.2,1.1,0,0,.1,0,.2.1M70.2,38.7c.5.3,1,.6,1.6.8M72.8,55c.5-.1,1-.3,1.5-.4-.4-.4-.7-.6-1.1-.5-.4.1-.5.4-.4.9ZM72.8,55c-.2,0-.4.1-.7.1M76.2,54c-.2-.5-.6-.7-1-.5-.4.2-.6.6-.4,1,.5-.2,1-.3,1.4-.5ZM76.2,54c.3-.1.6-.2.9-.4-.2-.7,0-1.2.4-1.4.4,0,.8.2,1.2.6.2-.1.4-.2.7-.3-.2-.4-.1-.8.3-1.2.5,0,.8.1,1,.5.2-.1.4-.2.6-.4-.1-.4,0-.8.3-1.1.5-.2.8,0,.9.3.1-.1.3-.2.4-.3-.2-.3-.1-.7,0-1,.4-.2.7-.2,1,0h0M74.7,54.5c-.1,0-.3,0-.4.1M84,49.2c-.3.3-.6.7-1,1M82.5,50.6c-.3.2-.5.4-.8.6-.1,0-.3.2-.4.2M80.7,51.8c-.5.3-.9.5-1.4.8M78.7,52.9c-.5.3-1.1.5-1.6.7M33.5,33.2c-.3-.2-.3-.5,0-.7.3-.2.6-.2.9,0,.3-.2.6-.4.9-.6-.2-.3-.1-.5.2-.8.3-.2.6-.1.7.2.4-.2.7-.4,1.1-.5-.2-.3-.1-.5.3-.8.4,0,.7,0,.9.3,0,0,0,0,0,0,.5-.2,1.1-.3,1.6-.5-.1-.4,0-.6.4-.7.4,0,.6,0,.8.5.5-.1.9-.2,1.3-.3h0c-.1-.4,0-.7.6-.8.3,0,.5.2.6.5.2,0,.4,0,.6-.1-.1-.4,0-.6.4-.6.5,0,.7.2.6.5.5,0,1,0,1.5-.1-.1-.4.1-.6.7-.6.5,0,.7.3.7.6.3,0,.7,0,1,.1,0-.6.2-.8.8-.6.5,0,.7.3.6.7.4,0,.7,0,1.1,0,0-.3.4-.5.9-.4.3.1.4.3.4.6,0,0,0,0,0,0,.4.1.9.2,1.3.3.2-.3.5-.4.8-.3.4.2.5.5.5.8.3.1.6.2.8.3.3-.4.6-.5.9-.3.5.1.6.4.3.8.2,0,.3.1.5.2.2-.4.6-.5,1.2-.2.4.3.5.6.2.9.1,0,.2.1.4.2.1,0,.2.1.4.2.3-.4.6-.5.9-.4.4.3.5.7.2,1,.2.1.4.2.6.3.3-.4.7-.5,1.2-.3.4.3.4.7.2,1.1.4.2.7.5,1.1.8.3-.3.6-.4,1.1-.3.5.4.6.9.3,1.3.3.2.5.4.8.7M31.9,33.9c.4,0,.7-.2,1.1-.2.2-.2.4-.3.6-.5.3-.2.6-.5.9-.7M40.2,29.8c.4-.1.8-.2,1.2-.3M37.4,30.8c.4-.2.8-.3,1.2-.5M41.2,33.5c-.1-.3,0-.6.3-.8.3-.2.5,0,.6.3.4-.2.7-.4,1.1-.6-.2-.3-.1-.6.4-.9.4-.1.6,0,.7.4.5-.2.9-.4,1.4-.6-.1-.3,0-.5.3-.7.3-.1.5,0,.6.4.5-.2,1-.4,1.5-.5-.2-.3,0-.5.4-.6.4-.1.6,0,.6.3.3,0,.5-.1.8-.2.2,0,.5,0,.7,0,0-.3.1-.4.5-.5.4,0,.6.1.6.4,2.1,0,4,.2,5.7.8-.3-.1-.6-.3-.9-.4M35.3,31.9c.3-.2.6-.4,1-.6M42.7,29.3s0,0,0,0c.4-.1.7-.2,1.1-.3M43.2,32.5c.3-.2.7-.3,1-.5M45.7,31.4c.3-.1.6-.2.9-.4M44.5,28.8c.4,0,.7-.1,1.1-.1M51.8,28.9c.4,0,.9.1,1.3.2M49.3,28.7c.1,0,.2,0,.3,0,0,0,0,0,0,0,.3,0,.7,0,1,0M48.2,30.5c.3-.1.7-.2,1-.3M50.7,29.9c.4,0,.8,0,1.2,0M47,28.6c.5,0,.9,0,1.4,0M23.9,40.2h2.9c2.4-2.4,5.4-4,8.9-4.8,3.1-2.8,6.6-4.8,10.6-6,1.1-.3,2.2-.5,3.3-.6M54.5,29.4c.5.1.9.3,1.3.4M58.5,31c.5.2,1,.4,1.5.7M57.6,30.6s0,0,.1,0c0,0,.2,0,.2,0M60.6,32.1c.4.2.8.4,1.2.6M41.2,33.5c.3-.2.6-.4.9-.5M64.8,34.6c.5.3.9.7,1.3,1M39,35c-.4-.3-.4-.6,0-.8.2-.2.5-.1.9.2.4-.3.9-.6,1.3-.8M39,35c.3-.2.6-.4.9-.6M37.3,36.3c-.3-.2-.3-.5,0-.8.3-.2.6-.1.9.2.3-.2.5-.4.8-.6M35.3,37.2c0-.3,0-.4.3-.5.3-.2.5,0,.7.3,0,0,.2,0,.3,0,.2-.2.5-.4.7-.6.3-.2.6-.5.8-.7M33.4,37.8c0-.3.2-.6.5-.7.2,0,.4,0,.6.3.3,0,.6-.2.9-.2.3,0,.6-.2,1-.2M30.8,34.2c.4-.1.7-.2,1.1-.3,0-.4-.2-.5-.7-.4-.3.2-.4.4-.4.7ZM30.8,34.2c-.4.1-.8.3-1.2.4-.3.1-.6.3-1,.4-.3.2-.6.3-.9.5-.4.2-.7.4-1.1.7-.2.2-.5.3-.7.5-.3.3-.7.5-1,.8-.1.1-.2.2-.4.3M31.6,38.6c-.3-.4-.2-.6.3-.7.3,0,.5,0,.7.2.3-.1.5-.2.8-.3.3-.1.7-.2,1.1-.4M29.9,39.6c-.2-.3,0-.6.3-.9.3,0,.6,0,.8.2.2-.1.4-.2.6-.3.4-.2.7-.3,1.1-.5M29.9,39.6c.3-.2.7-.5,1.1-.7M28.7,35.1c-.4-.2-.3-.4.2-.7.4-.2.6,0,.7.2M26.7,36.3c-.4-.3-.2-.6.3-.9.3-.2.6-.1.7.2M25,37.6c-.1-.3,0-.6.3-.9.3-.3.5-.3.7,0M22.7,38.2c0-.4.2-.6.5-.6.4,0,.6.2.7.5h.7M28.3,40.8c-.3-.3-.3-.6,0-.9.3-.2.6-.2.9.1.2-.2.4-.3.6-.5M28.3,40.8c.3-.3.6-.5.9-.8M19.7,38.4h-1.1c0-.3.2-.5.5-.4.4,0,.6.1.6.4ZM19.7,38.4h.7c0-.3.2-.5.8-.6.4,0,.6.2.6.4h.9s1.2-.1,1.2-.1M21.8,38.2h-1.3M27.5,41.4h.2c.2-.2.4-.4.6-.6M26.4,41.4h.3M25.3,41.4h.3M22,38.7h3.5c2.1-2.3,4.9-3.8,8.6-4.3,2-2.2,4.9-3.9,8.5-5M62.4,33c.4.3.9.5,1.3.8M82.5,42.7c.1,0,.2,0,.3.1,0-.5,0-.8-.5-1-.6-.1-1,0-1.3.5l1.4.4ZM27.1,40.8c-.3,0-.4.2-.4.5h.8c0-.4-.2-.6-.4-.5ZM26,40.9c-.3,0-.5.2-.4.5h.8c0-.4-.2-.6-.4-.5Z"/>
  <path class="st1" d="M20.5,41.1c0-.3,0-.6-.2-.8"/>
</svg>