<?xml version="1.0" encoding="UTF-8"?>
<svg id="Layer_1" xmlns="http://www.w3.org/2000/svg" version="1.1" viewBox="0 0 78 90">
  <!-- Generator: Adobe Illustrator 30.0.0, SVG Export Plug-In . SVG Version: 2.1.1 Build 123)  -->
  <defs>
    <style>
      .st0 {
        fill: #403f3e;
      }
    </style>
  </defs>
  <path class="st0" d="M37,90c0-.1.1-.3.1-.5-1.1-.3-2.5-.3-4.3,0,2,0,3.4.2,4.2.5ZM22.7,83.7c0-.2,0-.3.1-.5l-3.3.5h3.2ZM56.3,88.3c0,.2-.1.5-.2.7,1.1.2,2.1.5,3,.8-.4-.7-1.3-1.2-2.7-1.4ZM42.3,83.3c-.8-.3-1.7-.5-2.5-.7,0,.2,0,.4-.1.6.3,0,.5,0,.7,0,.4,0,1.1,0,1.9,0Z"/>
  <path class="st0" d="M36.9,86.9v-.4c-.9.2-1.5.4-2,.7-.4.2-.7.5-.8.9-.3.2-.6.5-.8.8-.2.2-.3.4-.4.7,1.8-.3,3.3-.4,4.3,0,0-.6,0-1.4-.4-2.6,0,0,0,0,.1,0,0,0,0,0,0,0ZM33.4,89c.4-.5,1-.9,1.8-1.2.2,0,.4-.2.7-.2.1,0,0,.2-.1.3-.5,0-1.3.4-2.3,1.1ZM22.8,81l-.2-.4c-.9,0-1.7.6-2.5,1.6-.4.4-.6.9-.6,1.6l3.3-.5c.2-1,.1-1.7-.3-2.2.1,0,.2,0,.3,0ZM21.6,81.5c.2,0,.2,0,0,.2-.5.1-1,.5-1.6,1,0-.3.4-.7,1.5-1.2ZM39.8,82.7c.9.1,1.7.3,2.5.7-.3-.6-1.2-1.1-2.6-1.6.1.3.2.7.1,1ZM40.2,82.4c0,0,0-.1,0-.2.5,0,.9.2,1.1.5-.3-.2-.7-.3-1.1-.3ZM59.1,89.7c.1,0,.2,0,.1-.2-.2-1.3-1.2-2.3-3.1-3,.3.7.3,1.2.2,1.8,1.5.2,2.4.7,2.7,1.4ZM58.4,88.4c-.3-.3-.8-.5-1.3-.7-.2-.3-.2-.4,0-.4.6.3,1.1.7,1.3,1.1Z"/>
  <path class="st0" d="M35.2,87.8c-.8.3-1.4.7-1.8,1.2,1-.6,1.7-1,2.3-1.1.2-.2.3-.3.1-.3-.2,0-.5.1-.7.2ZM21.7,81.7c.2-.1.1-.2,0-.2-1.1.5-1.6.9-1.5,1.2.5-.6,1-.9,1.6-1ZM40.2,82.2c0,0,0,.1,0,.2.4,0,.8.2,1.1.3-.3-.3-.7-.5-1.1-.5ZM57.1,87.7c.5.2,1,.4,1.3.7-.3-.4-.7-.8-1.3-1.1-.2,0-.2.1,0,.4Z"/>
  <path class="st0" d="M22.7,80.6l.2.4c1.9-.4,3.6-.8,5-1.3-2.1.3-3.8.5-5.2.8ZM41,85.7c.9-.3,1.8-.7,2.7-1,.4-.2.8-.4,1.1-.6-1.9.8-3.7,1.5-5.4,1.9-1,.2-1.8.4-2.5.4v.4c.4-.1.8-.2,1.2-.3,1-.2,2-.5,2.9-.9ZM50.3,72.8h-.1s.1,0,.1,0c0,0,0,0,0,0Z"/>
  <path class="st0" d="M56.1,89c.1-.2.2-.4.2-.7-3.8-1-10.2-.6-19.2,1.2,0,.2,0,.4-.1.5l8.7-1.2c2.3-.3,4.4-.4,6.3-.3,1.5,0,2.9.2,4.2.4ZM39.7,83.3c0-.2,0-.4.1-.6-1.8-.5-3.9-.9-6.2-1.2-3.5.3-7.1.9-10.8,1.7,0,.2,0,.3-.1.5,3.6-.6,6.8-.9,9.6-1,2.8,0,4.7,0,5.5.2.9.2,1.5.3,1.9.3ZM49.4,80.5c-.1.3-.2.6-.3,1,0,.3-.1.5-.1.8,0,.4,0,.7,0,1,0,.3.1.6.2.9.1.3.2.5.2.8,0,.2,0,.4,0,.6,0,.2,0,.3-.1.5,0,.3-.2.5-.3.7,0,0,0,0,0,0,.2-.2.5-.4.7-.5.2-.2.5-.4.6-.6.1-.1.2-.3.2-.5,0-.4,0-.7-.2-1-.1-.3-.3-.6-.4-.9,0-.3-.2-.6-.2-.9,0-.3,0-.7,0-1,0-.3,0-.6,0-.9,0-.3,0-.7.1-1-.1.3-.3.7-.4,1ZM45.4,66.4c-.1,0-.2,0-.4,0l.2,2.6c2.2.4,4,.4,5.5-.1,0,1.2-.1,2.4-.5,3.8h.1c.5-1.3.8-2.6.9-4,.7-.3,1.2-.7,1.7-1.2.1-.4.2-.6.4-.8-2.9.6-4.9.3-6.3-.8-.5.2-1.1.3-1.6.4ZM35.9,76.4c.2-.5.3-.9.4-1.3-.4.3-.6.7-.7,1.2-.1.4-.2.8-.2,1.3,0,.3,0,.6,0,.9,0,.2,0,.4,0,.6,0,.2,0,.4-.1.6,0,.2-.2.3-.3.5h0c.3,0,.5-.1.6-.5.1-.3.2-.6.1-1,0-.3,0-.7,0-1.1,0-.4.1-.8.3-1.2ZM33.7,66.6c0,.5,0,1.1,0,1.6,1.2.5,2.5.7,3.8.7,0,.4-.1.7-.4,1.1.5-.2.8-.6,1-1.2.3,0,.6,0,1-.2.1-.5.3-.9.5-1.4-2,0-3.9-.2-5.8-.7Z"/>
  <path class="st0" d="M59.9,62.4c2.6-.7,4.8-1.5,6.5-2.5-3.7,1.1-7.5.9-11.5-.5,1.1,1.6,2.7,2.6,5,3ZM59.9,57.2c1.1.7,2.7,1.4,4.7,1.9l4.8-1.7c-2.4.7-5.6.7-9.6-.1ZM49.4,62.5c1.4,1.4,3,2.2,4.7,2.4,2-.1,4-.5,6-1.2-4,.6-7.6.2-10.7-1.2ZM26.1,59.1c-.2-.1-.3-.2-.5-.3-3.1-2.4-6.2-5.6-9.2-9.7,1.3,3.8,3,7,5.4,9.7.5.6,1.1,1.2,1.7,1.7.8.9,1.7,1.6,2.6,2.3,2.4,1.9,4.9,3.1,7.6,3.9,1.8.5,3.8.7,5.8.7,1.8,0,3.6-.3,5.6-.8.1,0,.2,0,.4,0,.5-.1,1.1-.3,1.6-.4-3.9-3.2-5.3-8.8-4.1-16.8-1.5,6.1-1.6,10.7-.3,13.8-5.6,1.3-11.1,0-16.5-3.9ZM17.8,17.8c0,.2-.2.5-.2.7,0,.7.5,1.2,1.7,1.5,1.1.3,2.5-.6,4.2-2.5.2-.8.4-1.5.5-2.3,0-.3.2-.7.3-1-.2.3-.5.6-.7.9-.6.6-1.2,1-1.9,1.4-.4.2-.7.3-1.1.5-.4.1-.7.3-1.1.4-.5.1-1,.3-1.6.4Z"/>
  <path class="st0" d="M52.9,67.6c-.5.5-1,.9-1.7,1.2-.1,1.4-.4,2.7-.9,4,0,0,0,0,0,0h-.1c.4-1.4.6-2.6.5-3.8-1.4.5-3.2.5-5.5.1l.7,8.9c.1,1,.2,1.8.2,2.6,0,.8,0,1.5-.4,2.1-.3.6-.7,1.1-1.1,1.4-.3.3-.7.5-1.1.6-.9.3-1.8.7-2.7,1-1,.4-1.9.6-2.9.9-.4,0-.8.2-1.2.3,0,0,0,0,0,0,0,0,0,0-.1,0,.3,1.1.4,2,.4,2.6,9-1.8,15.5-2.2,19.2-1.2.1-.5,0-1.1-.2-1.8-1.1-.7-2.4-1.3-3.9-1.8-.6-.2-1.1-1.5-1.4-3.9.8-6.9,1.4-11.3,2.1-13.2ZM49.1,81.4c0-.3.2-.6.3-1,.1-.3.2-.7.4-1,0,.3,0,.7-.1,1,0,.3,0,.6,0,.9,0,.3,0,.7,0,1,0,.3.1.6.2.9.1.3.2.6.4.9.1.3.2.7.2,1,0,.2,0,.3-.2.5-.2.2-.4.4-.6.6-.2.2-.5.4-.7.5,0,0,0,0,0,0,.1-.2.2-.5.3-.7,0-.2,0-.3.1-.5,0-.2,0-.4,0-.6,0-.3,0-.6-.2-.8-.1-.3-.2-.6-.2-.9,0-.3,0-.7,0-1,0-.3,0-.5.1-.8ZM37.1,70c.3-.4.5-.7.4-1.1-1.3,0-2.6-.1-3.8-.7,0,2.7-.2,5.6-.5,8.5-.8,1.1-2.6,2.1-5.4,3,0,0,0,0,0,0-1.4.5-3.1.9-5,1.3-.1,0-.2,0-.3,0,.4.5.5,1.2.3,2.2,3.7-.8,7.3-1.4,10.8-1.7,2.3.2,4.3.6,6.2,1.2,0-.3,0-.6-.1-1-1.5-.8-2.4-2.2-2.7-4.2.3-2.5,1-5.5,2-8.8-.3,0-.6.1-1,.2-.2.6-.5,1-1,1.2ZM36.2,75.1c0,.4-.2.8-.4,1.3-.2.5-.3.9-.3,1.2,0,.4,0,.7,0,1.1,0,.3,0,.7-.1,1-.1.3-.3.5-.6.5h0c.1-.2.2-.4.3-.5,0-.2.1-.4.1-.6,0-.2,0-.4,0-.6,0-.3,0-.6,0-.9,0-.4.1-.8.2-1.3.1-.5.4-.9.7-1.2Z"/>
  <path class="st0" d="M67.2,34.3c0,0-.2-.2-.2-.2l-3.1-2.4-.6.4c.4.3.8.6,1.2.9.5.4.9.8,1.4,1.2.4.4.9.8,1.3,1.3.4.4.8.9,1.2,1.4.4.5.8,1,1.1,1.5.3.5.7,1.1,1,1.6.3.5.6,1.1.8,1.6.2.5.5,1.1.7,1.7.2.6.4,1.2.6,1.8l.5-1.5c-.3-.5-.5-1.1-.8-1.6-.3-.5-.6-1-.9-1.6-.3-.5-.6-1-.9-1.5-.3-.5-.6-1-1-1.5-.3-.5-.7-1-1.1-1.4-.4-.5-.8-.9-1.3-1.4ZM75.6,42.6c.3.2.6.4.8.6,0-1.8-.2-3.3-.9-4.7.2,1.4.2,2.7,0,4Z"/>
  <path class="st0" d="M32.4,36.4c-.5-.3-.8-.7-.8-1,2.1-1.5,3-3.6,2.9-6.3-2.5,1.2-4.7,2.8-6.6,4.8.9,2,2.4,2.8,4.5,2.5Z"/>
  <path class="st0" d="M19.2,20c-1.1-.3-1.7-.8-1.7-1.5-2.9,8.4-3.7,16.5-2.6,24,.4,2.3.9,4.5,1.5,6.6,3,4.1,6.1,7.3,9.2,9.7.2.1.3.2.5.3,5.4,4,10.9,5.3,16.5,3.9-1.3-3.1-1.2-7.7.3-13.8-1.2,8,.1,13.6,4.1,16.8,1.3,1.1,3.4,1.4,6.3.8.8-.2,1.7-.4,2.7-.7-.3-.5-1-.9-1.9-1.1-1.7-.2-3.3-1-4.7-2.4,3.1,1.4,6.7,1.8,10.7,1.2.4-.1.8-.3,1.2-.5-.3-.3-.8-.6-1.5-.8-2.3-.4-3.9-1.4-5-3,4,1.4,7.8,1.6,11.5.5,0-.5-.6-.8-1.7-.9-2.1-.5-3.6-1.1-4.7-1.9,4,.8,7.2.9,9.6.1,0,0,0,0,0,0,.7-.2,1.4-.5,2-.9-.2-.3-.5-.5-1.1-.7.9-.6,1.6-1.3,2.1-2.1,0,0,0,0,0,0,.6-1.1.9-2.4.9-4v-.5c-.1-1.2-.4-1.9-1-2.3-.5,1-.8,1.5-.9,1.5-.1,0-.2,0-.3-.2.1-1.4,0-2.4-.4-2.9-.2-.2-.3-.3-.5-.1-.6.4-1,.9-1.3,1.6,0,0,0,.1,0,.2,0,.2-.2.5-.3.7,0,.2-.2.3-.2.4-.2,0-.3,0-.3-.1,0-.1,0-.3,0-.5,0-.2,0-.4,0-.6,0-3.1-2.5-5.7-7.5-7.8-.1,1,0,1.9.4,2.6-4-5-9-6.9-15.1-5.7-1.8.5-3.3,1.3-4.7,2.5-2,1.6-4.1,2.8-6.5,3.7-2.4.9-4.8,1-7.2.2-2.4-.8-4.1-2.4-5-4.8-.9-2.4-1.2-4.8-1.1-7.4.3-4.2,1-8.3,1.9-12.3-1.7,2-3.1,2.8-4.2,2.5Z"/>
  <path class="st0" d="M9.2,16.6s0,0,0,0c0,0,0,0,0,0-.6.1-1.1.2-1.5.4-.4.2-.9.4-1.2.7-.4.3-.7.6-1.1,1-.3.4-.5.8-.7,1.2-.2.5-.4,1-.6,1.4.7.3,1.4.5,2,.5.7,0,1.5.1,2.3.1.2,0,.4,0,.7,0,1.1-1.9,1.2-3.7.2-5.3Z"/>
  <path class="st0" d="M7.9,16.2c0,0,.1-.3.1-.8-.2,0-.4.1-.6.2,0,0,0,0,0,0-.7.3-1.4.7-2,1.2-.6.5-1.1,1.1-1.5,1.8-.4.6-.6,1.3-.7,2-.1.6-.2,1.3-.3,1.9.2-.5.4-1,.6-1.6,0-.2.1-.4.2-.6.3-.7.6-1.4,1.1-2.1.3-.4.5-.7.9-1,0,0,0,0,.1-.1.2-.2.4-.3.7-.5.3-.2.6-.4,1-.5,0,0,.1,0,.2,0,0,0,.2,0,.3,0Z"/>
  <path class="st0" d="M8.5,16.1c-.2,0-.4,0-.6.1,0,0-.2,0-.3,0,0,0-.1,0-.2,0-.3.1-.6.3-1,.5-.2.1-.5.3-.7.5,0,0,0,0-.1.1-.3.3-.6.6-.9,1-.5.6-.8,1.3-1.1,2.1,0,.2-.1.4-.2.6.2,0,.3.1.4.2.2-.5.4-1,.6-1.4.2-.4.4-.8.7-1.2.3-.4.7-.7,1.1-1,.4-.3.8-.5,1.2-.7.4-.2.9-.3,1.5-.4,0,0,0,0,0,0,0,0,0,0,0,0-.1-.2-.3-.3-.7-.5Z"/>
  <path class="st0" d="M7.4,11c-.3-1-.9-1.7-1.6-2.1-.3-.1-.6-.2-.9-.3-.7.4-1.3.9-1.9,1.4-.6.5-1.1,1.1-1.6,1.7-.4.6-.8,1.3-1,2.1C.2,14.6,0,15.5,0,16.4c0,1,.1,1.8.4,2.6.3.8.7,1.5,1.2,2.1.4.5.9,1,1.4,1.5,0-.7.2-1.3.3-1.9.1-.7.4-1.4.7-2,.4-.7.9-1.3,1.5-1.8.6-.5,1.3-.9,2-1.2,0,0,0,0,0,0,.2,0,.4-.1.6-.2,0-.4,0-.8,0-1.4,0,0,0-.1,0-.2,0-.1,0-.3,0-.4,0-.8-.2-1.6-.5-2.4Z"/>
  <path class="st0" d="M16.3,14.7c-.3.1-.5.2-.8.3-.6.2-1.2.4-1.8.5-.1,0-.2,0-.3,0-.5.1-1.1.2-1.7.2-.2,0-.5,0-.7,0,0,0,0,0,0,0,0,0,0,0,0,0,0,0,0,0,0,0-.6,0-1.3.1-1.9.2,0,0,0,0-.1,0,0,0,0,0-.1,0,0,0-.1,0-.2,0,.4.1.6.3.7.5,1.8,0,4.2-.7,7.1-1.9Z"/>
  <path class="st0" d="M20.5,12.3c-.7.4-1.5.8-2.3,1.1-.7.3-1.5.6-2.2.8-.7.2-1.5.4-2.3.6-.8.1-1.5.2-2.3.3-.3,0-.6,0-.9,0,0,0-.2,0-.2,0-.5,0-.9,0-1.4.2,0,0,0,0,0,0-.3,0-.6,0-.9.2,0,.4,0,.7-.1.8.2,0,.4-.1.6-.1,0,0,.1,0,.2,0,0,0,0,0,.1,0,0,0,0,0,.1,0,.6,0,1.3-.1,1.9-.2,0,0,0,0,0,0,0,0,0,0,0,0,0,0,0,0,0,0,.3,0,.5,0,.7,0,.6,0,1.2-.1,1.7-.2.1,0,.2,0,.3,0,.6-.1,1.2-.3,1.8-.5.3,0,.5-.2.8-.3h.3c0-.1,0-.1.1-.2.3-.1.6-.3.9-.4.7-.3,1.3-.7,2-1.1.3-.2.6-.4.9-.7Z"/>
  <path class="st0" d="M13.4,4.4c-.1,0-.3-.1-.4-.1-.3,0-.5.1-.7.3-.2.2-.3.5-.3.8s0,.6.3.8c0,0,0,0,0,0,.3-.4.5-.7.7-1.1.1-.2.2-.4.3-.7ZM12.2,5.1c.1.3.2.6.2.8h0c-.2-.1-.2-.4-.1-.8ZM12.5,5c0-.2,0-.4.1-.5.2-.1.3,0,.3,0,0,.3-.2.4-.4.4ZM22,5.8c.3-.3.4-.6.4-.9s-.1-.7-.4-.9c-.3-.3-.6-.4-.9-.4s-.7.1-.9.4c-.3.3-.4.6-.4.9s.1.7.4.9c.3.3.6.4.9.4s.7-.1.9-.4ZM21.9,4.6c0,0-.2,0-.3-.1-.2-.1-.2-.3-.2-.5,0,0,0,0,0-.1.2,0,.4.2.5.5,0,0,0,.1,0,.2,0,0-.1,0-.2,0ZM21.2,5.9c-.2,0-.4,0-.6-.1-.2,0-.3-.2-.4-.4,0-.1-.1-.2-.1-.3.6.6,1.3.7,2,.2,0,.2-.2.4-.4.5-.1.1-.3.2-.5.2Z"/>
  <path class="st0" d="M12.6,4.5c-.2.2-.2.3-.1.5.3,0,.4-.2.4-.4,0-.2-.2-.2-.3,0ZM21.6,4.5c0,0,.2,0,.3.1,0,0,.1,0,.2,0,0,0,0-.1,0-.2,0-.3-.2-.4-.5-.5,0,0,0,0,0,.1,0,.2,0,.4.2.5Z"/>
  <path class="st0" d="M12.4,5.8c0-.2,0-.4-.2-.8,0,.3,0,.6.1.9h0ZM20.6,5.8c.2,0,.4.1.6.1.2,0,.4,0,.5-.2.2-.1.3-.3.4-.5-.8.5-1.5.4-2-.2,0,.1,0,.2.1.3,0,.2.2.3.4.4Z"/>
  <path class="st0" d="M9,7.6c0,0-.1,0-.2,0-.8.1-1.6.3-2.5.5-.5.1-1,.3-1.5.5.3,0,.6.1.9.3.8.4,1.3,1.1,1.6,2.1.3.8.4,1.6.5,2.4,0,.1,0,.3,0,.4,0,0,0,.1,0,.2,0,.6,0,1.1,0,1.4.3,0,.6-.1.9-.2,0,0,0,0,0,0,.5,0,.9-.1,1.4-.2,0,0,.2,0,.2,0,.3,0,.6,0,.9,0,.8,0,1.5-.1,2.3-.3.8-.1,1.5-.3,2.3-.6.8-.2,1.5-.5,2.2-.8.8-.3,1.5-.7,2.3-1.1-.3.3-.6.5-.9.7-.6.4-1.3.8-2,1.1-.3.2-.6.3-.9.4,0,0,0,0-.1,0h-.3c-2.9,1.3-5.2,1.9-7.1,2,.9,1.6.9,3.4-.2,5.3.6-.1,1.1-.4,1.6-.8.3-.3.7-.6,1-.8.3-.3.6-.5.9-.8.2-.2.4-.3.6-.4.2-.1.5-.3.7-.3.3,0,.5-.2.8-.2.8-.1,1.5-.3,2.3-.5.2,0,.3,0,.5-.1.1,0,.3,0,.4,0,.5-.1,1-.3,1.6-.4.4-.1.8-.2,1.1-.4.4-.1.7-.3,1.1-.5.7-.4,1.3-.8,1.9-1.4.3-.3.5-.6.7-.9.3-.4.5-.7.7-1.1.2-.5.4-1,.6-1.5,1.3-3.3.7-6.3-1.8-8.8-2.1-1.9-4.5-2.4-6.9-1.5-.4.1-.7.3-1.1.5-.2.1-.3.3-.5.4-.5.4-.9.9-1.3,1.4-.2.2-.3.4-.4.7,0,0,0,.1,0,.2-.1.2-.2.4-.3.7-.2.4-.4.8-.7,1.1,0,0-.1.2-.2.2,0,0,0,.1-.1.2-.3.3-.6.5-1,.7,0,0-.1,0-.2,0,0,0,0,0,0,0,0,0,0,0,0,0-.1,0-.3,0-.4.1-.5,0-.9,0-1.4,0ZM22.4,4.9c0,.4-.1.7-.4.9-.3.3-.6.4-.9.4s-.7-.1-.9-.4c-.3-.3-.4-.6-.4-.9s.1-.7.4-.9c.3-.3.6-.4.9-.4s.7.1.9.4c.3.3.4.6.4.9ZM8,11.2c0,0,0-.1,0-.2,0,0,0,0,0,0,0-.1,0-.2.1-.3.1-.2.3-.3.5-.3s.1,0,.2.2c0,0,0,.2,0,.3,0,.2,0,.5-.2.7-.1.2-.3.4-.5.4,0,0,0-.2-.1-.3,0-.1,0-.3,0-.4Z"/>
  <path class="st0" d="M8,11c0,0,0,.1,0,.2,0,.2,0,.3,0,.4,0,0,0,.2.1.3.2,0,.4-.2.5-.4.1-.2.2-.5.2-.7,0-.1,0-.2,0-.3,0-.1-.1-.2-.2-.2-.2,0-.4,0-.5.3,0,0-.1.2-.1.3,0,0,0,0,0,0Z"/>
  <path class="st0" d="M57.4,29.1c-3.9-1.4-7.9-2.2-12.2-2.4-4,.2-7.6,1-10.7,2.5.1,2.7-.8,4.8-2.9,6.3,0,.3.3.6.8,1-2.1.3-3.6-.5-4.5-2.5-1.3-2.9-1.3-8.2,0-16,.2-1.2.4-2,.5-2.4.2-.6.3-1.1.5-1.7.1-.6.3-1.1.4-1.7.1-.6.2-1.2.3-1.7,0-.6,0-1.2,0-1.8,0-.6-.2-1.1-.3-1.7-.2-.5-.4-1.1-.6-1.6-.2-.5-.5-1-.9-1.5-.4-.5-.7-.9-1.2-1.4-.4-.4-.8-.8-1.3-1.1-.5-.4-1-.7-1.6-.9-.6-.2-1.1-.4-1.7-.5-.6,0-1.2,0-1.9,0-.6,0-1.2.2-1.7.4-.6.2-1.1.4-1.6.7-.3.2-.7.4-1,.7.4-.2.7-.3,1.1-.5,2.5-.9,4.8-.4,6.9,1.5,2.4,2.5,3,5.5,1.8,8.8-.1.5-.3,1-.6,1.5-.2.4-.4.8-.7,1.1,0,.3-.2.7-.3,1-.2.7-.4,1.5-.5,2.3-.9,4-1.5,8.1-1.9,12.3-.2,2.5.2,5,1.1,7.4.9,2.4,2.5,4,5,4.8,2.4.8,4.8.7,7.2-.2,2.4-.9,4.5-2.2,6.5-3.7,1.4-1.1,3-2,4.7-2.5,6.1-1.3,11.2.6,15.1,5.7-.4-.8-.5-1.6-.4-2.6,5.1,2.1,7.6,4.7,7.5,7.8,0,.2,0,.4,0,.6,0,.2,0,.4,0,.5,0,.1.1.2.3.1,0,0,.1-.2.2-.4,0-.2.2-.4.3-.7,0,0,0-.1,0-.2.2-.6.7-1.2,1.3-1.6.2-.1.4,0,.5.1.4.6.5,1.5.4,2.9,0,.2.1.3.3.2.1,0,.5-.6.9-1.5.5.4.8,1.1.9,2.3,0-.8-.2-1.6-.4-2.4-.1-.5-.3-1.1-.4-1.7-.2-.6-.4-1.2-.6-1.8-.2-.6-.5-1.1-.7-1.7-.2-.5-.5-1.1-.8-1.6-.3-.5-.6-1.1-1-1.6-.3-.5-.7-1-1.1-1.5-.4-.5-.8-.9-1.2-1.4-.4-.4-.9-.9-1.3-1.3-.4-.4-.9-.8-1.4-1.2-.4-.3-.8-.6-1.2-.9-1.7-1.2-3.7-2.2-5.9-2.9Z"/>
  <path class="st0" d="M76.4,43.2c.3.4.6.9.7,1.5,1.3-4.9.9-8.6-1.3-11.1-2.6-2.5-5.3-3.6-8.2-3.3-.6,0-1.2.2-1.9.4,0,0,0,0,0,0,0,0,0,0,0,0-.6.2-1.2.5-1.8.8l3.1,2.4c0,0,.2.2.2.2.5.4.9.9,1.3,1.4.4.5.7.9,1.1,1.4.3.5.7,1,1,1.5.3.5.6,1,.9,1.5.3.5.6,1,.9,1.6.3.5.5,1,.8,1.6,1,.4,1.5,1.3,1.5,2.8.5-1.1.9-2.3,1.1-3.5.2-1.3.2-2.6,0-4,.6,1.3.9,2.9.9,4.7Z"/>
</svg>