<?xml version="1.0" encoding="UTF-8"?>
<svg id="Layer_1" xmlns="http://www.w3.org/2000/svg" version="1.1" xmlns:xlink="http://www.w3.org/1999/xlink" viewBox="0 0 91 90">
  <!-- Generator: Adobe Illustrator 30.0.0, SVG Export Plug-In . SVG Version: 2.1.1 Build 123)  -->
  <defs>
    <style>
      .st0 {
        stroke-width: 1.6px;
      }

      .st0, .st1, .st2, .st3, .st4, .st5, .st6, .st7, .st8 {
        stroke: #403f3e;
      }

      .st0, .st1, .st2, .st3, .st4, .st6, .st7, .st8 {
        fill: #403f3e;
      }

      .st0, .st2, .st3, .st5, .st6, .st8 {
        stroke-linecap: round;
        stroke-linejoin: round;
      }

      .st9 {
        mask: url(#mask-5);
      }

      .st10 {
        mask: url(#mask-1);
      }

      .st1 {
        fill-opacity: .3;
      }

      .st1, .st4, .st7 {
        stroke-miterlimit: 10;
      }

      .st11 {
        fill: #fff;
      }

      .st12 {
        mask: url(#mask);
      }

      .st13 {
        mask: url(#mask-2);
      }

      .st2 {
        stroke-width: 0px;
      }

      .st3 {
        stroke-opacity: 0;
      }

      .st3, .st8 {
        stroke-width: 0px;
      }

      .st4 {
        fill-opacity: .4;
      }

      .st5 {
        fill: none;
        stroke-width: 2.3px;
      }

      .st6 {
        stroke-width: .3px;
      }

      .st14 {
        mask: url(#mask-4);
      }

      .st15 {
        mask: url(#mask-3);
      }
    </style>
    <mask id="mask" x="-.3" y="4" width="90.5" height="60.5" maskUnits="userSpaceOnUse">
      <g id="mask0_1808_2963">
        <path class="st11" d="M69.9,57.3c0-.8-.2-1.4-.3-2.1-.2,0-.4.1-.5.2-.5.2-1,.5-1.6,1-.6.4-.9.7-1.1.8-.2.1-.6.3-1.3.6-.3.1-.6.3-1,.4,1,.7,1.9,1.1,2.7,1.4h.5c.4.1.8.1,1.1,0,1-.2,1.6-1,1.6-2.4ZM69.2,52.8l.2,1c0,.4.2.9.2,1.5,1.3-.5,2.5-.4,3.6.2,2,1.1,6.9,3.8,14.7,8.2h.3c.3.3.6.4.9.6.2.1.4.2.6.1.2,0,.4-.2.4-.4,0-.6-.6-1.7-2-3.1-1-1-2.5-2.4-4.5-4.2-2.4-2.2-4.8-4.3-7.2-6.3-6.7-5.6-11.6-9-14.8-10.4-2.1-2.7-3.5-4.4-4.2-5.3-1.9-2.3-3.7-4.3-5.4-6-4.7-4.7-9.1-7.6-13.3-8.6-.9-.5-1.4-.7-1.6-.8-.4-.2-.7-.5-1.1-.8-.3-.3-.8-.9-1.4-1.7-1-1.2-1.9-2.3-2.7-3.3-1.2-1.6-2.5-3-3.9-4.1-1.7-1.3-3.4-2.2-5.2-2.7-4.5-1.2-8.9.5-13.4,4.9-.5.7-.9,1.2-1.1,1.6-.2.4-.2.8-.2,1.2,0,.2.1.7.3,1.5.2.9.4,1.8.5,2.7.3,2.5.5,4.4.6,5.7,0,1.6,0,2.9-.3,4.1-1.2,5.2-1.2,10-.1,14.6,1,4.1,2.9,7.6,5.6,10.7,3.4,3.8,8,6.7,13.9,8.7,3.3,1.2,7.2,1.6,11.8,1.4,3.7-.2,7.7-.8,12-1.9,3.2-.8,6.4-1.8,9.5-3,.7-.3,1.4-.5,2-.8,0,0,0,0,0,0-.3-.2-.6-.4-.9-.7l-.4-.3,6.4-4.5ZM69.4,53.8l-.2-1-6.4,4.5.4.3c.3.2.6.5.9.7,0,0,0,0,0,0,.3-.1.7-.3,1-.4.7-.3,1.2-.5,1.3-.6.2-.1.5-.4,1.1-.8.6-.4,1.1-.7,1.6-1,.2,0,.4-.2.5-.2,0-.6-.2-1.1-.2-1.5Z"/>
      </g>
    </mask>
    <mask id="mask-1" x="8.3" y="6.4" width="81.9" height="58" maskUnits="userSpaceOnUse">
      <g id="mask1_1808_2963">
        <path class="st11" d="M69.9,57.3c0-.8-.2-1.4-.3-2.1-.2,0-.4.1-.5.2-.5.2-1,.5-1.6,1-.6.4-.9.7-1.1.8-.2.1-.6.3-1.3.6-.3.1-.6.3-1,.4,1,.7,1.9,1.1,2.7,1.4h.5c.4.1.8.1,1.1,0,1-.2,1.6-1,1.6-2.4ZM69.2,52.8l.2,1c0,.4.2.9.2,1.5,1.3-.5,2.5-.4,3.6.2,2,1.1,6.9,3.8,14.7,8.2h.3c.3.3.6.4.9.6.2.1.4.2.6.1.2,0,.4-.2.4-.4,0-.6-.6-1.7-2-3.1-1-1-2.5-2.4-4.5-4.2-2.4-2.2-4.8-4.3-7.2-6.3-6.7-5.6-11.6-9-14.8-10.4-2.1-2.7-3.5-4.4-4.2-5.3-1.9-2.3-3.7-4.3-5.4-6-4.7-4.7-9.1-7.6-13.3-8.6-.9-.5-1.4-.7-1.6-.8-.4-.2-.7-.5-1.1-.8-.3-.3-.8-.9-1.4-1.7-1-1.2-1.9-2.3-2.7-3.3-1.2-1.6-2.5-3-3.9-4.1-1.7-1.3-3.4-2.2-5.2-2.7-4.5-1.2-8.9.5-13.4,4.9-.5.7-.9,1.2-1.1,1.6-.2.4-.2.8-.2,1.2,0,.2.1.7.3,1.5.2.9.4,1.8.5,2.7.3,2.5.5,4.4.6,5.7,0,1.6,0,2.9-.3,4.1-1.2,5.2-1.2,10-.1,14.6,1,4.1,2.9,7.6,5.6,10.7,3.4,3.8,8,6.7,13.9,8.7,3.3,1.2,7.2,1.6,11.8,1.4,3.7-.2,7.7-.8,12-1.9,3.2-.8,6.4-1.8,9.5-3,.7-.3,1.4-.5,2-.8,0,0,0,0,0,0-.3-.2-.6-.4-.9-.7l-.4-.3,6.4-4.5ZM69.4,53.8l-.2-1-6.4,4.5.4.3c.3.2.6.5.9.7,0,0,0,0,0,0,.3-.1.7-.3,1-.4.7-.3,1.2-.5,1.3-.6.2-.1.5-.4,1.1-.8.6-.4,1.1-.7,1.6-1,.2,0,.4-.2.5-.2,0-.6-.2-1.1-.2-1.5Z"/>
      </g>
    </mask>
    <mask id="mask-2" x="8" y="3.8" width="91.3" height="69.9" maskUnits="userSpaceOnUse">
      <g id="mask2_1808_2963">
        <path class="st11" d="M69.9,57.3c0-.8-.2-1.4-.3-2.1-.2,0-.4.1-.5.2-.5.2-1,.5-1.6,1-.6.4-.9.7-1.1.8-.2.1-.6.3-1.3.6-.3.1-.6.3-1,.4,1,.7,1.9,1.1,2.7,1.4h.5c.4.1.8.1,1.1,0,1-.2,1.6-1,1.6-2.4ZM69.2,52.8l.2,1c0,.4.2.9.2,1.5,1.3-.5,2.5-.4,3.6.2,2,1.1,6.9,3.8,14.7,8.2h.3c.3.3.6.4.9.6.2.1.4.2.6.1.2,0,.4-.2.4-.4,0-.6-.6-1.7-2-3.1-1-1-2.5-2.4-4.5-4.2-2.4-2.2-4.8-4.3-7.2-6.3-6.7-5.6-11.6-9-14.8-10.4-2.1-2.7-3.5-4.4-4.2-5.3-1.9-2.3-3.7-4.3-5.4-6-4.7-4.7-9.1-7.6-13.3-8.6-.9-.5-1.4-.7-1.6-.8-.4-.2-.7-.5-1.1-.8-.3-.3-.8-.9-1.4-1.7-1-1.2-1.9-2.3-2.7-3.3-1.2-1.6-2.5-3-3.9-4.1-1.7-1.3-3.4-2.2-5.2-2.7-4.5-1.2-8.9.5-13.4,4.9-.5.7-.9,1.2-1.1,1.6-.2.4-.2.8-.2,1.2,0,.2.1.7.3,1.5.2.9.4,1.8.5,2.7.3,2.5.5,4.4.6,5.7,0,1.6,0,2.9-.3,4.1-1.2,5.2-1.2,10-.1,14.6,1,4.1,2.9,7.6,5.6,10.7,3.4,3.8,8,6.7,13.9,8.7,3.3,1.2,7.2,1.6,11.8,1.4,3.7-.2,7.7-.8,12-1.9,3.2-.8,6.4-1.8,9.5-3,.7-.3,1.4-.5,2-.8,0,0,0,0,0,0-.3-.2-.6-.4-.9-.7l-.4-.3,6.4-4.5ZM69.4,53.8l-.2-1-6.4,4.5.4.3c.3.2.6.5.9.7,0,0,0,0,0,0,.3-.1.7-.3,1-.4.7-.3,1.2-.5,1.3-.6.2-.1.5-.4,1.1-.8.6-.4,1.1-.7,1.6-1,.2,0,.4-.2.5-.2,0-.6-.2-1.1-.2-1.5Z"/>
      </g>
    </mask>
    <mask id="mask-3" x="8.3" y="6.4" width="81.9" height="58" maskUnits="userSpaceOnUse">
      <g id="mask3_1808_2963">
        <path class="st11" d="M69.9,57.3c0-.8-.2-1.4-.3-2.1-.2,0-.4.1-.5.2-.5.2-1,.5-1.6,1-.6.4-.9.7-1.1.8-.2.1-.6.3-1.3.6-.3.1-.6.3-1,.4,1,.7,1.9,1.1,2.7,1.4h.5c.4.1.8.1,1.1,0,1-.2,1.6-1,1.6-2.4ZM69.2,52.8l.2,1c0,.4.2.9.2,1.5,1.3-.5,2.5-.4,3.6.2,2,1.1,6.9,3.8,14.7,8.2h.3c.3.3.6.4.9.6.2.1.4.2.6.1.2,0,.4-.2.4-.4,0-.6-.6-1.7-2-3.1-1-1-2.5-2.4-4.5-4.2-2.4-2.2-4.8-4.3-7.2-6.3-6.7-5.6-11.6-9-14.8-10.4-2.1-2.7-3.5-4.4-4.2-5.3-1.9-2.3-3.7-4.3-5.4-6-4.7-4.7-9.1-7.6-13.3-8.6-.9-.5-1.4-.7-1.6-.8-.4-.2-.7-.5-1.1-.8-.3-.3-.8-.9-1.4-1.7-1-1.2-1.9-2.3-2.7-3.3-1.2-1.6-2.5-3-3.9-4.1-1.7-1.3-3.4-2.2-5.2-2.7-4.5-1.2-8.9.5-13.4,4.9-.5.7-.9,1.2-1.1,1.6-.2.4-.2.8-.2,1.2,0,.2.1.7.3,1.5.2.9.4,1.8.5,2.7.3,2.5.5,4.4.6,5.7,0,1.6,0,2.9-.3,4.1-1.2,5.2-1.2,10-.1,14.6,1,4.1,2.9,7.6,5.6,10.7,3.4,3.8,8,6.7,13.9,8.7,3.3,1.2,7.2,1.6,11.8,1.4,3.7-.2,7.7-.8,12-1.9,3.2-.8,6.4-1.8,9.5-3,.7-.3,1.4-.5,2-.8,0,0,0,0,0,0-.3-.2-.6-.4-.9-.7l-.4-.3,6.4-4.5ZM69.4,53.8l-.2-1-6.4,4.5.4.3c.3.2.6.5.9.7,0,0,0,0,0,0,.3-.1.7-.3,1-.4.7-.3,1.2-.5,1.3-.6.2-.1.5-.4,1.1-.8.6-.4,1.1-.7,1.6-1,.2,0,.4-.2.5-.2,0-.6-.2-1.1-.2-1.5Z"/>
      </g>
    </mask>
    <mask id="mask-4" x="7.1" y="6.4" width="83.1" height="63.1" maskUnits="userSpaceOnUse">
      <g id="mask4_1808_2963">
        <path class="st11" d="M69.9,57.3c0-.8-.2-1.4-.3-2.1-.2,0-.4.1-.5.2-.5.2-1,.5-1.6,1-.6.4-.9.7-1.1.8-.2.1-.6.3-1.3.6-.3.1-.6.3-1,.4,1,.7,1.9,1.1,2.7,1.4h.5c.4.1.8.1,1.1,0,1-.2,1.6-1,1.6-2.4ZM69.2,52.8l.2,1c0,.4.2.9.2,1.5,1.3-.5,2.5-.4,3.6.2,2,1.1,6.9,3.8,14.7,8.2h.3c.3.3.6.4.9.6.2.1.4.2.6.1.2,0,.4-.2.4-.4,0-.6-.6-1.7-2-3.1-1-1-2.5-2.4-4.5-4.2-2.4-2.2-4.8-4.3-7.2-6.3-6.7-5.6-11.6-9-14.8-10.4-2.1-2.7-3.5-4.4-4.2-5.3-1.9-2.3-3.7-4.3-5.4-6-4.7-4.7-9.1-7.6-13.3-8.6-.9-.5-1.4-.7-1.6-.8-.4-.2-.7-.5-1.1-.8-.3-.3-.8-.9-1.4-1.7-1-1.2-1.9-2.3-2.7-3.3-1.2-1.6-2.5-3-3.9-4.1-1.7-1.3-3.4-2.2-5.2-2.7-4.5-1.2-8.9.5-13.4,4.9-.5.7-.9,1.2-1.1,1.6-.2.4-.2.8-.2,1.2,0,.2.1.7.3,1.5.2.9.4,1.8.5,2.7.3,2.5.5,4.4.6,5.7,0,1.6,0,2.9-.3,4.1-1.2,5.2-1.2,10-.1,14.6,1,4.1,2.9,7.6,5.6,10.7,3.4,3.8,8,6.7,13.9,8.7,3.3,1.2,7.2,1.6,11.8,1.4,3.7-.2,7.7-.8,12-1.9,3.2-.8,6.4-1.8,9.5-3,.7-.3,1.4-.5,2-.8,0,0,0,0,0,0-.3-.2-.6-.4-.9-.7l-.4-.3,6.4-4.5ZM69.4,53.8l-.2-1-6.4,4.5.4.3c.3.2.6.5.9.7,0,0,0,0,0,0,.3-.1.7-.3,1-.4.7-.3,1.2-.5,1.3-.6.2-.1.5-.4,1.1-.8.6-.4,1.1-.7,1.6-1,.2,0,.4-.2.5-.2,0-.6-.2-1.1-.2-1.5Z"/>
      </g>
    </mask>
    <mask id="mask-5" x="7.1" y="6.4" width="83.1" height="58" maskUnits="userSpaceOnUse">
      <g id="mask5_1808_2963">
        <path class="st11" d="M69.9,57.3c0-.8-.2-1.4-.3-2.1-.2,0-.4.1-.5.2-.5.2-1,.5-1.6,1-.6.4-.9.7-1.1.8-.2.1-.6.3-1.3.6-.3.1-.6.3-1,.4,1,.7,1.9,1.1,2.7,1.4h.5c.4.1.8.1,1.1,0,1-.2,1.6-1,1.6-2.4ZM69.2,52.8l.2,1c0,.4.2.9.2,1.5,1.3-.5,2.5-.4,3.6.2,2,1.1,6.9,3.8,14.7,8.2h.3c.3.3.6.4.9.6.2.1.4.2.6.1.2,0,.4-.2.4-.4,0-.6-.6-1.7-2-3.1-1-1-2.5-2.4-4.5-4.2-2.4-2.2-4.8-4.3-7.2-6.3-6.7-5.6-11.6-9-14.8-10.4-2.1-2.7-3.5-4.4-4.2-5.3-1.9-2.3-3.7-4.3-5.4-6-4.7-4.7-9.1-7.6-13.3-8.6-.9-.5-1.4-.7-1.6-.8-.4-.2-.7-.5-1.1-.8-.3-.3-.8-.9-1.4-1.7-1-1.2-1.9-2.3-2.7-3.3-1.2-1.6-2.5-3-3.9-4.1-1.7-1.3-3.4-2.2-5.2-2.7-4.5-1.2-8.9.5-13.4,4.9-.5.7-.9,1.2-1.1,1.6-.2.4-.2.8-.2,1.2,0,.2.1.7.3,1.5.2.9.4,1.8.5,2.7.3,2.5.5,4.4.6,5.7,0,1.6,0,2.9-.3,4.1-1.2,5.2-1.2,10-.1,14.6,1,4.1,2.9,7.6,5.6,10.7,3.4,3.8,8,6.7,13.9,8.7,3.3,1.2,7.2,1.6,11.8,1.4,3.7-.2,7.7-.8,12-1.9,3.2-.8,6.4-1.8,9.5-3,.7-.3,1.4-.5,2-.8,0,0,0,0,0,0-.3-.2-.6-.4-.9-.7l-.4-.3,6.4-4.5ZM69.4,53.8l-.2-1-6.4,4.5.4.3c.3.2.6.5.9.7,0,0,0,0,0,0,.3-.1.7-.3,1-.4.7-.3,1.2-.5,1.3-.6.2-.1.5-.4,1.1-.8.6-.4,1.1-.7,1.6-1,.2,0,.4-.2.5-.2,0-.6-.2-1.1-.2-1.5Z"/>
      </g>
    </mask>
  </defs>
  <path class="st7" d="M8.9,28.7c-.6.9-1.1,1.9-1.4,2.9-.8,2.7-.4,5.2,1.1,7.5,1.5,2.2,2.9,4.1,4.1,5.7.6.8,1.1,1.3,1.4,1.7l-1.2-19.6h-2.4c-.6.6-1.1,1.2-1.6,1.9Z"/>
  <path class="st7" d="M10.5,12.1v-.9c-.9,0-1.5.2-1.9.5-.1.1-.3.2-.4.4-.1.2-.2.3-.2.3-.1.2,0,.4.3.8.2.2.4.4.5.5l1.7-1.6Z"/>
  <path class="st8" d="M10.5,26.9c-.6.4-1.1,1-1.6,1.8-.6.9-1.1,1.9-1.4,2.9-.8,2.7-.4,5.2,1.1,7.5,1.5,2.2,2.9,4.1,4.1,5.7.6.8,1.1,1.3,1.4,1.7l-1.2-19.6h-2.4Z"/>
  <path class="st8" d="M10.6,11.1c-.9,0-1.6.2-2,.5-.1.1-.3.2-.4.4-.1.2-.2.3-.2.3-.1.2,0,.4.3.8.2.2.4.4.5.5l1.7-1.6v-.9Z"/>
  <path class="st5" d="M47.6,61.7l-12.7,15.4,7.9-2.9M23.4,81.2l11.4-4.1"/>
  <path class="st5" d="M27.7,77h7.1c0,.1-1.4,6.8-1.4,6.8"/>
  <path class="st5" d="M36,56.2l-12.7,15.4,7.9-2.9M11.9,75.8l11.4-4.1"/>
  <path class="st5" d="M16.2,71.6h7.1c0,.1-1.4,6.8-1.4,6.8"/>
  <path class="st7" d="M69.4,53.8c0,.4.2.9.2,1.5,1.3-.5,2.5-.4,3.6.2,2,1.1,6.9,3.8,14.7,8.2h.3c.3.3.6.4.9.6.2.1.4.2.6.1.2,0,.4-.2.4-.4,0-.6-.6-1.7-2-3.1-1-1-2.5-2.4-4.5-4.2-2.4-2.2-4.8-4.3-7.2-6.3-6.7-5.6-11.6-9-14.8-10.4-2.1-2.7-3.5-4.4-4.2-5.3-1.9-2.3-3.7-4.3-5.4-6-4.7-4.7-9.1-7.6-13.3-8.6-.9-.5-1.4-.7-1.6-.8-.4-.2-.7-.5-1.1-.8-.3-.3-.8-.9-1.4-1.7-1-1.2-1.9-2.3-2.7-3.3-1.2-1.6-2.5-3-3.9-4.1-1.7-1.3-3.4-2.2-5.2-2.7-4.5-1.2-8.9.5-13.4,4.9-.5.7-.9,1.2-1.1,1.6-.2.4-.2.8-.2,1.2,0,.2.1.7.3,1.5.2.9.4,1.8.5,2.7.3,2.5.5,4.4.6,5.7,0,1.6,0,2.9-.3,4.1-1.2,5.2-1.2,10-.1,14.6,1,4.1,2.9,7.6,5.6,10.7,3.4,3.8,8,6.7,13.9,8.7,3.3,1.2,7.2,1.6,11.8,1.4,3.7-.2,7.7-.8,12-1.9,3.2-.8,6.4-1.8,9.5-3,.7-.3,1.4-.5,2-.8,0,0,0,0,0,0-.3-.2-.6-.4-.9-.7l-.4-.3,6.4-4.5.2,1ZM69.1,55.5c.2,0,.4-.2.5-.2,0-.6-.2-1.1-.2-1.5l-.2-1-6.4,4.5.4.3c.3.2.6.5.9.7,0,0,0,0,0,0,.3-.1.7-.3,1-.4.7-.3,1.2-.5,1.3-.6.2-.1.5-.4,1.1-.8.6-.4,1.1-.7,1.6-1ZM69.9,57.3c0-.8-.2-1.4-.3-2.1-.2,0-.4.1-.5.2-.5.2-1,.5-1.6,1-.6.4-.9.7-1.1.8-.2.1-.6.3-1.3.6-.3.1-.6.3-1,.4,1,.7,1.9,1.1,2.7,1.4h.5c.4.1.8.1,1.1,0,1-.2,1.6-1,1.6-2.4Z"/>
  <path class="st2" d="M69.7,55.3c0,.6.2,1.3.3,2.1,0,1.3-.6,2.1-1.6,2.4-.3,0-.7,0-1.1,0h-.5c-.8-.3-1.7-.8-2.7-1.4.3-.1.7-.3,1-.4.7-.3,1.2-.5,1.3-.6.2-.1.5-.4,1.1-.8.6-.4,1.1-.7,1.6-1,.2,0,.4-.2.5-.2Z"/>
  <g class="st12">
    <g>
      <path class="st7" d="M28.1,24c.9-.9,2-1.6,3.1-2.1.6-.3,1.1-.4,1.5-.5L24.2,4.5l-14.6.7L.2,21l4,19.1,5.2,5c2.9,4,5.1,6.4,6.8,7.3.6.4,1.3.5,2,.6.4,0,1,0,1.8,0,.7,0,1.4-.3,1.9-.8.7-.6,1.3-1.4,1.7-2.6,1.1-2.9,1.4-7.2.8-13.2-.3-3,0-5.6.8-7.9.6-1.8,1.6-3.3,2.9-4.5Z"/>
      <path class="st2" d="M9.4,45.1c2.9,4,5.1,6.4,6.8,7.3.6.4,1.3.5,2,.6.4,0,1,0,1.8,0,.7,0,1.4-.3,1.9-.8.7-.6,1.3-1.4,1.7-2.6,1.1-2.9,1.4-7.2.8-13.2-.3-3,0-5.6.8-7.9.6-1.8,1.6-3.3,2.9-4.5.9-.9,2-1.6,3.1-2.1.6-.3,1.1-.4,1.5-.5L24.2,4.5l-14.6.7L.2,21l4,19.1,5.2,5Z"/>
    </g>
  </g>
  <g class="st10">
    <g>
      <path class="st4" d="M50.4,54c.2,0,.4,0,.7.3.3.2,1.4.7,3.3,1.6,2,.9,3.4,1.5,4.2,1.8.7.3,1.3.2,1.8-.2.3-.3.6-.7.8-1.4.1-.4-5.3-4.2-16.3-11.5-3.4-2.3-7.2-4.8-11.3-7.5l-5.2-3.4-4.5,2c14.8,11.7,22.7,18,23.7,18.7.7.5,1.2.7,1.6.6.3,0,.5-.3.7-.7.1-.3.3-.4.5-.4Z"/>
      <path class="st7" d="M18,12.8c-.5.5-.7,1-.7,1.7s.2,1.2.7,1.7c.5.5,1,.7,1.7.7s1.2-.2,1.7-.7c.5-.5.7-1,.7-1.7s-.2-1.2-.7-1.7c-.5-.5-1-.7-1.7-.7s-1.2.2-1.7.7Z"/>
    </g>
  </g>
  <g class="st13">
    <g>
      <path class="st7" d="M68.2,51.1c1.8.8,2.9,1.3,3.3,1.5,2,1,3.9,1.9,5.7,2.9,5.4,3,9.2,5.8,11.6,8.6,2.3,2.7,4.6,5,6.9,6.8,1.2.9,2.1,1.5,2.8,1.9l-6.4-50.2L38.2,4.7l-29.1.5-.3,4.8c.9,0,2.3.2,3.9.6,1.7.4,3,.8,3.9,1.3.6-.3,1.2-.5,2-.7.9-.1,1.7,0,2.4.1.8.3,1.4.8,1.8,1.6.4.9.6,2.1.3,3.6,2.2,1.4,3.6,3,4,4.7.5,2-.2,3.9-2.1,6-1.5,1.6-2.2,3.2-2.3,4.8,0,2,1,3.8,3.3,5.4,2.2,1.6,6.3,4.5,12.2,8.6,5.5,3.8,8.6,6,9.4,6.5.7.4,1.3.6,1.7.3.6-.3.8-1,.7-2.1,1,.5,3.9,2,8.9,4.6,4.6,2.4,7.2,3.7,7.8,3.9.3.1.7.2,1,.2.4,0,.7-.1,1-.3.7-.4,1-1.1.9-2,0-.8-.3-1.9-.6-3.1-.4-1.4-.7-2.3-.8-2.8Z"/>
      <path class="st0" d="M8.8,10c.9,0,2.3.2,3.9.6,1.7.4,3,.8,3.9,1.3.6-.3,1.2-.5,2-.7.9-.1,1.7,0,2.4.1.8.3,1.4.8,1.8,1.6.4.9.6,2.1.3,3.6,2.2,1.4,3.6,3,4,4.7.5,2-.2,3.9-2.1,6-1.5,1.6-2.2,3.2-2.3,4.8,0,2,1,3.8,3.3,5.4,2.2,1.6,6.3,4.5,12.2,8.6,5.5,3.8,8.6,6,9.4,6.5.7.4,1.3.6,1.7.3.6-.3.8-1,.7-2.1,1,.5,3.9,2,8.9,4.6,4.6,2.4,7.2,3.7,7.8,3.9.3.1.7.2,1,.2.4,0,.7-.1,1-.3.7-.4,1-1.1.9-2,0-.8-.3-1.9-.6-3.1-.4-1.4-.7-2.3-.8-2.8,1.8.8,2.9,1.3,3.3,1.5,2,1,3.9,1.9,5.7,2.9,5.4,3,9.2,5.8,11.6,8.6,2.3,2.7,4.6,5,6.9,6.8,1.2.9,2.1,1.5,2.8,1.9l-6.4-50.2L38.2,4.7l-29.1.5-.3,4.8Z"/>
    </g>
  </g>
  <g class="st15">
    <g>
      <path class="st7" d="M66.6,60.9l4.3-1.9-1.2-3.8-5.6,3.1,2.5,2.6Z"/>
      <path class="st2" d="M64.1,58.3l5.6-3.1,1.2,3.8-4.3,1.9-2.5-2.6Z"/>
    </g>
  </g>
  <g class="st14">
    <path class="st1" d="M10.2,42.2c-.4-1.6-.8-3.5-1.1-5.8-.3-2.4-.6-4.2-.7-5.3l-.8,21,29.8,16.9,1-.2c.9-.1,1.8-.3,2.8-.5,3.1-.6,5.9-1.2,8.5-1.9,3.6-1,6.6-2.1,8.8-3.2,2.8-1.4,4.4-3,4.7-4.6-12.6,2.2-23,2.7-31,1.5-6.9-1-12.1-3.3-15.8-6.9-1.6-1.5-2.9-3.3-3.9-5.3-.9-1.7-1.6-3.6-2.2-5.8Z"/>
  </g>
  <g class="st9">
    <path class="st1" d="M12.8,21.1c1-1,1.6-2.3,1.7-3.9l-6.6-.6c-.2,1-.3,1.9-.3,2.9,0,1.9.6,2.9,1.7,3,.6,0,1.3,0,1.9-.3.6-.2,1.1-.6,1.6-1.1Z"/>
  </g>
  <path class="st7" d="M13.9,15.5c-.3,0-.8-.4-1.4-.9-.6-.5-1-.8-1.3-1.1-.4-.4-.6-.6-.6-.7-.3-.3-.7-.4-1-.4-3.8-.2-6.8.3-9.1,1.5-.3.1-.4.3-.3.5,0,.2.3.4.7.6.9.5,2.4.8,4.4,1.1.8.4,1.5.6,1.9.8.7.2,1.3.4,1.9.5,1.4.3,2.9.3,4.7,0,.3,0,.6-.2.7-.4.1-.2.2-.4.1-.6,0-.2-.1-.4-.3-.6-.1-.2-.3-.3-.5-.3Z"/>
  <path class="st3" d="M9.6,12.4c-3.8-.2-6.8.3-9.1,1.5-.3.1-.4.3-.3.5,0,.2.3.4.7.6.9.5,2.4.8,4.4,1.1.8.4,1.5.6,1.9.8.7.2,1.3.4,1.9.5,1.4.3,2.9.3,4.7,0,.3,0,.6-.2.7-.4.1-.2.2-.4.1-.6,0-.2-.1-.4-.3-.6-.1-.2-.3-.3-.5-.3-.3,0-.8-.4-1.4-.9-.6-.5-1-.8-1.3-1.1-.4-.4-.6-.6-.6-.7-.3-.3-.7-.4-1-.4Z"/>
  <path class="st7" d="M20.7,12.8c-.5-.3-.8-.4-.9-.2,0,0-.1.1-.1.2v.2c-.1,0,0,.2,0,.2.3.1.5.2.5.2,0,0,.2.1.4.2.2.1.4.2.5.4.4.4.5.8.3,1.3,0,.1,0,.2,0,.3s0,0,0,0c0-.1.2-.4.2-.6.2-1-.1-1.7-.9-2.1Z"/>
  <path class="st8" d="M20.7,12.8c-.5-.3-.8-.4-.9-.2,0,0-.1.1-.1.2v.2c-.1,0,0,.2,0,.2.3.1.5.2.5.2,0,0,.2.1.4.2.2.1.4.2.5.4.4.4.5.8.3,1.3,0,.1,0,.2,0,.3s0,0,0,0c0-.1.2-.4.2-.6.2-1-.1-1.7-.9-2.1Z"/>
  <path class="st6" d="M5.3,16.1c1.5,0,3.2,0,5.1-.2.9,0,1.5-.2,1.6-.2"/>
</svg>