<?xml version="1.0" encoding="UTF-8"?>
<svg id="Layer_1" xmlns="http://www.w3.org/2000/svg" version="1.1" viewBox="0 0 90 90">
  <!-- Generator: Adobe Illustrator 30.0.0, SVG Export Plug-In . SVG Version: 2.1.1 Build 123)  -->
  <defs>
    <style>
      .st0 {
        fill: #403f3e;
      }
    </style>
  </defs>
  <path class="st0" d="M39.1,89.1c0,.1,0,.2,0,.3,0,.3.4.4.9.5.6,0,1,0,1.3-.4,0-.2,0-.3,0-.5h0c-.1-1.4-.5-2.3-1-2.7-.7.3-1.1,1.2-1.2,2.8ZM36.6,88.8c0,.2,0,.4,0,.6.4.3.8.5,1.1.4.3,0,.6-.2.9-.4,0-.1,0-.2,0-.3,0-1.3-.4-2.3-1.2-2.9-.4.6-.7,1.5-.8,2.7ZM34.7,84.7c-.2,0-.4.2-.7.7-.1.5-.1,1,0,1.4,0,0,0,0,0,0,0,.1,0,.2,0,.3.5.3.8.4,1.2.5.3,0,.5,0,.7-.3,0,0,0-.2,0-.4,0-.3-.1-.9-.4-1.6-.2-.3-.4-.5-.8-.6ZM31.2,85.7c0-.3,0-.6-.2-.8-.2-.2-.4-.2-.6,0,0,0-.2.1-.2.2-.3.3-.5.6-.6,1.1,0,0,0,0,0,0,0,.2,0,.4,0,.6,0,.2.2.4.5.5h.6c.2,0,.4-.1.5-.5,0,0,0,0,0,0,0,0,0-.1,0-.2,0-.3,0-.5,0-.7ZM32.2,84.7c-.4.3-.6.6-.6,1,0,.4,0,.7,0,1,0,.2,0,.4.1.6.2.2.5.2.9.1.4,0,.6-.2.8-.4,0,0,0-.2,0-.3,0-.3,0-.7,0-1.1,0-.3-.2-.6-.4-.8-.2-.2-.5-.3-.8-.2ZM54,87.9c-.1-.7-.3-1.3-.6-1.8-.3-.7-.8-1.1-1.4-1.3-.2.8-.4,1.7-.4,2.5,0,.1,0,.2,0,.3,0,.2,0,.3.2.4.7.4,1.3.5,1.8.3.2,0,.3-.2.3-.4ZM48.7,88c.2.4.7.6,1.3.6s.4,0,.6,0c.2,0,.3-.2.3-.2,0-.2,0-.4,0-.6,0-.1,0-.2,0-.3,0,0,0,0,0,0-.1-.9-.5-1.8-1-2.6-.8.7-1.2,1.7-1.2,3,0,0,0,.1,0,.2ZM43.7,88.8c0,0,0-.2,0-.3-.3-1-.7-1.9-1.2-2.6-.5.9-.7,1.9-.6,3,0,0,0,.1,0,.2.3.2.6.3.8.3.2,0,.4,0,.6,0,.2-.1.4-.3.5-.6ZM45.8,87.8c0,0,0,.2,0,.2.2.6.8.8,1.9.7.2,0,.3-.2.4-.3,0-.2,0-.4,0-.6,0-1.2-.2-2.4-.7-3.4-.8.7-1.3,1.7-1.5,2.9,0,.1,0,.2,0,.4Z"/>
  <path class="st0" d="M69.9,77.9c-.4-.4-.9-.7-1.4-1-.5-.3-1-.5-1.5-.7-.5-.2-1.1-.3-1.6-.5.3.3.6.7.9,1h-.1c-.9,0-1.8.4-2.7.9.5,0,1.1,0,1.6,0,.6,0,1.2.2,1.7.4.5.2,1.1.4,1.6.6.5.3,1,.6,1.4.9.5.4.6.9.5,1.5-.1.7-.5.9-1.2.7-.2-.1-.5-.4-.7-.7,0,.5.2.8.3.9.3.6.9.9,1.7,1h0c.5,0,.8-.3,1-.8.2-.4.3-1,.2-1.5-.1-.6-.3-1.1-.6-1.6-.3-.5-.6-.9-1-1.3ZM37.1,35.9c-.5-.4-1.2-.9-2-1.4-.3-.3-.7-.5-1.1-.8-.2.5-.3.9-.5,1.4.1,0,.3.1.4.2,1,.5,1.9,1.1,2.9,1.9.9.8,1.8,1.6,2.5,2.4.8.8,1.6,1.5,2.6,2.2.9.6,2,.7,3.2.3,1.2-.4,2.1-1,2.8-1.8.7-.8,1.5-1.6,2.5-2.5s1.8-1.8,2.6-2.7c-.1-.3-.3-.6-.5-.8,0,0-.2.1-.2.2-.8.5-1.4,1-2,1.4-.5.4-1.2.9-1.9,1.6-.7.6-1.6,1.3-2.6,1.9-.2.1-.4.2-.6.3,0,0,0,0-.1,0,0,0,0,0,0,0-.8.4-1.7.4-2.6,0,0,0,0,0,0,0,0,0,0,0,0,0-.2,0-.4-.2-.6-.3-1.1-.6-2.1-1.2-2.8-1.9-.7-.6-1.4-1.2-1.9-1.6Z"/>
  <path class="st0" d="M52.8,67.6c0-.5-.2-.8-.5-.9-1.5,8-1.6,13.3-.3,16.1.6-.7,1.2-1.4,1.8-2.1,2.3-1.3,4.3-2.1,6.1-2.5,1.3-.3,2.4-.5,3.5-.5.9-.5,1.8-.8,2.7-.8h.1c-.3-.4-.5-.8-.9-1.1,0,0-.1-.1-.2-.2-2.8-.8-5.5-.6-8.1.7.9-1.4,1.8-2.9,2.7-4.5-1,.5-2.1,1.3-3.4,2.5.3-.8.3-1.4,0-1.9-.3.8-.7,1.3-1.1,1.7-1.6-1.3-2.5-3.4-2.5-6.5ZM42.7,67.7c0,.8.1,1.7,0,2.6,0,5.2.1,9.7.5,13.6.4.2.8.1,1.2,0-.3-3.5,0-9.1,1.2-16.7.1-1.3.2-2.5.2-3.7-1,.4-1.9.4-3,0-.1,1.3-.2,2.7-.3,4.2ZM35.8,68.5h0c-.8-4-2.2-7.6-4.1-10.6,1.5,3.6,2.7,7.4,3.6,11.4-.8,1.2-1.6,2.7-2.4,4.5-1.1,2.5-2.2,3.2-3.5,2.3-.5,1-1,1.7-1.6,2.3-.2,2.8.5,4.9,2.1,6.2,0-.3.2-.5.4-.8.1,0,.3,0,.4,0,.5,0,1.1.2,1.6.2.5,0,1.7,0,3.5-.3-.5,0-.5,0,0-.1.3,0,.6,0,.8,0,.5-5.6.2-10.6-.7-15.1ZM15.2,62.2c0,.2.2.4.3.6,1.6,3.5,4.4,6.1,8.4,7.8l.4,1.4,3.2-7.8-1.9,3.7h0s-.2,0-.2,0c-3.9-5.1-4.8-11.2-2.6-18.5-4.1,3-6.7,7.3-7.6,12.9ZM28.2,5.1c-.5.6-.8,1.5-1,2.7.7,3.3,2.1,6.8,4.2,10.7.3-.7.7-1.3,1.1-2-1.7-1.9-3.1-5.7-4.2-11.4ZM34.1,4.2c-.2,0-.3-.1-.5-.2-1.1-.4-2.3-.5-3.6-.6.4.3.7.5,1.1.8,3.2,2.5,5.3,5.2,6.2,8,.8-.4,1.7-.8,2.7-1.1-1.5-2.7-3.3-4.9-5.3-6.7-.2,0-.4-.2-.6-.3ZM47.4,11.2c1,.3,1.9.6,2.7,1.1.9-3,3.2-5.8,6.7-8.4-1.8.4-3.8,1.2-6,2.4-1.3,1.4-2.4,3-3.5,4.9ZM60.4,7c-.1-1-.5-1.9-1.1-2.5-1.1,6-2.5,10-4.3,12,.4.6.8,1.3,1.1,2,2.2-4.1,3.6-8,4.3-11.5Z"/>
  <path class="st0" d="M52.5,34.3c.2.3.3.5.5.8l.5-.8c0-.2-.2-.4-.3-.5-.2.1-.4.3-.7.5ZM15.2,62.2c0,.3,0,.5-.1.8,0,7.1,3.7,13.7,11.1,19.8,1.2.8,2.4,1.4,3.7,1.8-1.6-1.3-2.3-3.4-2.1-6.2-.5-.6-1-1.2-1.4-2-.5-.7-.8-1.4-1.2-2.2-.3-.7-.5-1.2-.6-1.5s-.2-.5-.2-.7l-.4-1.4c-4-1.7-6.8-4.3-8.4-7.8,0-.2-.2-.4-.3-.6Z"/>
  <path class="st0" d="M35.8,68.5h0c.9,4.5,1.1,9.5.7,15.1-.2,0-.5,0-.8,0-.6.2-.6.2,0,.1-1.8.3-3,.4-3.5.3-.5,0-1.1-.1-1.6-.2-.1,0-.3,0-.4,0-.1.3-.3.5-.4.8l.3.5c0,0,.2-.1.2-.2.2-.2.4-.1.6,0,0,.3.1.6.2.8h.4c0-.4.2-.7.6-1,.3,0,.6,0,.8.2.2.2.3.4.4.8,0,.5,0,.8,0,1.1h.5c0-.5,0-.9,0-1.5.3-.5.5-.7.7-.7.4.1.7.3.8.6.2.7.4,1.2.4,1.6h.3c0,.8,0,1.4,0,1.7.2.2.3.3.4.3,0-1.2.4-2.1.8-2.7.8.6,1.2,1.6,1.2,2.9h.5c.1-1.5.5-2.5,1.2-2.8.5.4.9,1.3,1,2.7h.4c0-1.1.1-2.2.6-3.1.5.7,1,1.5,1.2,2.6h.3c.2-.2.2-.7,0-1.6,0-.3-.1-.5-.2-.7.4.1.8,0,1.2,0,.1.5.3.9.5,1.2h.5c.2-1.2.7-2.2,1.5-2.9.6,1,.8,2.1.7,3.4.2,0,.4,0,.6,0,0-1.3.4-2.4,1.2-3,.6.8.9,1.7,1,2.6,0,0,0,0,0,0,0,0,0,.2,0,.3.2,0,.4,0,.6,0,0,0,0-.2,0-.3,0-.9.2-1.7.4-2.5.6.2,1,.6,1.4,1.3,0-.5-.3-1.3-.9-2.4-.2-.3-.4-.6-.5-.9-1.2-2.8-1.1-8.2.3-16.1.1-.7.3-1.5.4-2.2-.4-1.9-.9-3.4-1.3-4.4-3.1,2.3-5,4.7-5.8,7.1-1.1,7.6-1.5,13.2-1.2,16.7-.4.2-.8.2-1.2,0-.4-3.9-.6-8.4-.5-13.6,0-.9,0-1.8,0-2.6-.3-3.2-1.4-5.7-3.3-7.3-2,1.5-3.2,4.2-3.7,8.1Z"/>
  <path class="st0" d="M33.2,41.1c-.2-1.7-.1-3.4.2-5-2.4,5.8-5.9,10.2-10.6,13.3-2.2,7.3-1.3,13.5,2.6,18.5h.2c0,0,1.9-3.6,1.9-3.6l-3.2,7.8c0,.1.1.3.2.7,0,.3.3.8.6,1.5.3.7.7,1.4,1.2,2.2.5.7.9,1.4,1.4,2,.6-.6,1.1-1.3,1.6-2.3,1.3,1,2.5.2,3.5-2.3.7-1.8,1.5-3.3,2.4-4.5-.8-4-2-7.9-3.6-11.4,1.9,3.1,3.3,6.6,4.1,10.6.4-3.9,1.6-6.6,3.7-8.1,1.9,1.6,3,4.1,3.3,7.3,0-1.5.1-2.8.3-4.2,1,.4,2,.4,3,0,0,1.2-.1,2.4-.2,3.7.8-2.4,2.7-4.8,5.8-7.1.4,1,.9,2.5,1.3,4.4-.2.8-.3,1.5-.4,2.2.3,0,.4.4.5.9,0,3.1.8,5.3,2.5,6.5.4-.4.8-1,1.1-1.7.3.5.3,1.1,0,1.9,1.3-1.2,2.4-2,3.4-2.5-.9,1.6-1.8,3.1-2.7,4.5,2.6-1.3,5.3-1.5,8.1-.7-.4-.4-.9-.7-1.4-1,1.6-.7,3.2-1.1,4.7-1.1-1-1.4-2.3-2.7-3.9-3.7,1.4-.5,2.6-.8,3.8-.9-1.3-1.7-3-2.8-4.8-3.3,1.1-.4,1.9-.5,2.6-.3,0-.5-.3-.9-.6-1.3-.1-.1-.3-.3-.4-.4-2.9-1.4-6.3-2.3-10.2-2.5-.4-.3-.7-.6-1.1-.9,1.1-5,1.8-10.2,2-15.8,0-3.9-.8-7.3-2.4-10.2l-.5.8c.3.7.6,1.4.8,2.2.6,2.3.5,5.1-.3,8.7-.3-1.6-.8-2.7-1.3-3.5,1,3,.5,6.7-1.5,10.9-.2-.6-.5-1-.8-1.3.3,2.1-.3,4.1-1.8,6.2,0-.4,0-.8-.1-1.3-.1.4-.3.8-.4,1.1-.5,1.1-1.1,2-1.9,2.6-.8-1.2-1.6-2.6-2.5-4.3,0,.6,0,1.4.3,2.3-1.5-1-2.5-2.7-3.2-5.1-.3.7-.6,1.7-.7,2.9-1-1.6-1.7-3.4-2-5.2-.2.6-.3,1.4-.4,2.3-1.7-2.9-2.1-7.1-1.1-12.6-.7.6-1.2,2.2-1.7,4.6-.5-1.6-.9-3.1-1-4.6ZM50.1,12.2c-.8-.4-1.7-.8-2.7-1.1-1.1-.3-2.4-.5-3.7-.5s-2.6.2-3.7.5c-1,.3-1.9.6-2.7,1.1-.5.2-.9.5-1.3.8,0,0-.2.1-.3.2-.7.5-1.3,1-1.9,1.6-.5.5-1,1.1-1.4,1.7-.4.6-.8,1.3-1.1,1.9,0,.2-.2.4-.3.7-.9,2.4-2,4.4-3.4,6.1v.2c0,0,.1,0,.1,0,0,0,0,0,0,0,.5,0,1,0,1.4,0,.6,0,1.2.1,1.7.2.6.1,1.2.3,1.7.5.5.2,1.1.5,1.6.7.5.3,1,.6,1.5.9.5.3.9.7,1.4,1.1.4.3.7.6,1.1,1,.4.4.8.9,1.2,1.3.3.4.7.9.9,1.3.3.5.5,1,.7,1.5,0,0,0-.2,0-.2,0,0,.1-.2.2-.3,0,0,0,0,0,0,0,0,0,0,0,0,.6-.6,1.4-.9,2.3-.9.5,0,.9,0,1.3.2,0,0,0,0,0,0,.4.2.8.4,1.1.7,0,0,0,0,0,0,0,0,.1.2.2.3,0,0,0,.2,0,.2.2-.5.4-1,.7-1.5.3-.5.6-.9.9-1.3.4-.5.8-.9,1.2-1.3.3-.4.7-.7,1.1-1,.4-.4.9-.7,1.4-1.1.5-.3,1-.7,1.5-.9.5-.3,1-.5,1.6-.7.5-.2,1.1-.4,1.7-.5.6-.1,1.2-.2,1.7-.2.5,0,.9,0,1.4,0h.2s0,0,0,0v-.2c-1.4-1.7-2.5-3.7-3.4-6.1,0-.2-.2-.4-.3-.7-.3-.7-.7-1.3-1.1-1.9-.4-.6-.9-1.2-1.4-1.7-.6-.6-1.2-1.1-1.9-1.6,0,0-.2-.1-.3-.2-.4-.3-.9-.5-1.3-.8ZM51,20.9c.6,0,1.1.2,1.6.7.4.5.6,1,.6,1.6,0,0,0,.1,0,.2,0,.7-.2,1.3-.6,1.8s-.9.7-1.6.7-.5,0-.8-.1c-.3-.1-.5-.3-.8-.6-.4-.5-.7-1.1-.7-1.8s0-.8.2-1.2c0,0,0,0,0,0,0,0,0,0,0,0,0-.2.2-.4.4-.6.4-.5.9-.7,1.5-.7ZM36.4,20.9c.6,0,1.1.2,1.5.7.2.2.3.4.4.6,0,0,0,0,0,0,.2.4.2.7.2,1.2,0,.7-.2,1.3-.6,1.8-.2.3-.5.5-.8.6-.2,0-.5.1-.8.1-.6,0-1.1-.2-1.6-.7-.4-.5-.6-1.1-.6-1.8s0-.1,0-.2c0-.6.2-1.2.6-1.6.4-.5.9-.7,1.6-.7Z"/>
  <path class="st0" d="M41.9,41.8c-.9-.6-1.8-1.4-2.6-2.2-.8-.8-1.6-1.6-2.5-2.4-.9-.8-1.9-1.4-2.9-1.9-.1,0-.3-.1-.4-.2,0,.3-.2.6-.2,1-.3,1.6-.4,3.3-.2,5,.2,1.5.5,3,1,4.6.5-2.4,1-3.9,1.7-4.6-1,5.5-.6,9.7,1.1,12.6,0-.9.2-1.7.4-2.3.3,1.8.9,3.5,2,5.2,0-1.2.3-2.1.7-2.9.7,2.4,1.8,4.1,3.2,5.1-.2-.9-.3-1.7-.3-2.3.9,1.7,1.8,3.1,2.5,4.3.8-.6,1.4-1.5,1.9-2.6.2-.3.3-.7.4-1.1.2.5.2,1,.1,1.3,1.5-2.1,2.1-4.2,1.8-6.2.4.3.7.7.8,1.3,2-4.3,2.5-7.9,1.5-10.9.5.7,1,1.9,1.3,3.5.8-3.5.9-6.4.3-8.7-.2-.8-.4-1.5-.8-2.2-.8.9-1.7,1.8-2.6,2.7-1,.9-1.8,1.7-2.5,2.5-.7.8-1.6,1.4-2.8,1.8-1.2.4-2.2.3-3.2-.3ZM50.3,28.8c-.4.3-.7.6-1.1,1-.4.4-.8.9-1.2,1.3-.3.4-.7.9-.9,1.3-.3.5-.5,1-.7,1.5,0,.2-.2.4-.5.7-.3.3-.7.6-1.1.8-.4.2-.7.4-.9.4v1.3c.8,0,1.6-.2,2.6-.5-.7.6-1.6,1-2.5,1h0c0,0-.1,0-.2,0s-.1,0-.2,0h0c-1,0-1.8-.4-2.5-1,1,.4,1.8.6,2.6.5v-1.3c-.2,0-.5-.1-.9-.3-.4-.2-.7-.4-1.1-.8-.3-.4-.5-.6-.5-.8-.2-.5-.4-1-.7-1.5-.3-.5-.6-.9-.9-1.3-.4-.5-.8-.9-1.2-1.3-.3-.4-.7-.7-1.1-1-.4-.4-.9-.7-1.4-1.1-.5-.3-1-.7-1.5-.9-.5-.3-1-.5-1.6-.7-.5-.2-1.1-.4-1.7-.5-.6-.1-1.2-.2-1.7-.2-.5,0-.9,0-1.4,0,0,0,0,0,0,0,0,0,0,0-.1,0,0,0,0,0,0,0h-.1c-1.5,1-2.5,2.6-3,4.6h0c.8-.8,2-1.3,3.6-1.6-1.3.9-1.9,2.1-1.8,3.7.7-.6,1.4-.8,2-.7,2.3.6,4.2,1.4,5.8,2.4.4.2.8.5,1.1.8.8.5,1.4,1,2,1.4.5.4,1.2.9,1.9,1.6.7.6,1.7,1.3,2.8,1.9.2.1.4.2.6.3,0,0,0,0,0,0,0,0,0,0,0,0,.9.4,1.7.4,2.6,0,0,0,0,0,0,0,0,0,0,0,.1,0,.2,0,.4-.2.6-.3,1-.6,1.9-1.2,2.6-1.9.7-.6,1.4-1.2,1.9-1.6.5-.4,1.2-.9,2-1.4,0,0,.1-.1.2-.2.2-.2.4-.3.7-.5,0,0,.2,0,.2-.1,1.5-1,3.5-1.7,5.8-2.4.6,0,1.3.2,2,.7,0-1.6-.5-2.8-1.8-3.7,1.3.2,2.5.8,3.6,1.7h0c-.5-2.1-1.5-3.6-3-4.7,0,0-.1,0-.2,0h-.2c-.5,0-1,0-1.4,0-.6,0-1.2.1-1.7.2-.6.1-1.2.3-1.7.5-.5.2-1.1.5-1.6.7-.5.3-1,.6-1.5.9-.5.3-.9.7-1.4,1.1ZM37.7,22c0,0-.2,0-.2,0-.2,0-.3,0-.5.2-.1.1-.1.2,0,.2.1,0,.3.1.4.2.1.1.2.3.2.4,0,.2.1.2.2,0,.1-.1.2-.3.2-.5s0-.2,0-.2c0,0,0-.1-.1-.2,0,0-.1-.1-.2-.1ZM51.6,21.6c-.2,0-.3,0-.5.2,0,0-.1.1-.1.2,0,0,0,.1.2.2.1,0,.3.1.4.3.1.1.2.2.3.3s.1,0,.3,0c.1-.1.2-.3.2-.5s0-.3-.2-.5c-.1-.1-.3-.2-.5-.2Z"/>
  <path class="st0" d="M41.6,34.8c.3.4.7.6,1.1.8.4.2.7.3.9.3v1.3c-.8,0-1.6-.2-2.6-.5.7.6,1.6,1,2.5,1h0c0,0,.1,0,.2,0s.1,0,.2,0h0c1,0,1.8-.4,2.5-1-1,.4-1.8.6-2.6.5v-1.3c.2,0,.5-.1.9-.4.4-.2.7-.5,1.1-.8.3-.3.5-.6.5-.7,0,0,0-.2,0-.2,0,0-.1-.2-.2-.3,0,0,0,0,0,0-.3-.3-.7-.6-1.1-.7,0,0,0,0,0,0-.4-.1-.8-.2-1.3-.2-1,0-1.8.3-2.3.9,0,0,0,0,0,0,0,0,0,0,0,0,0,0-.1.2-.2.3,0,0,0,.2,0,.2,0,.2.2.5.5.8ZM44.9,32.9c0,0,.2,0,.3.1.2.1.3.2.3.3s0,.1-.1.1c0,0,0,0-.1,0-.2,0-.3,0-.4,0-.1,0-.3,0-.5,0-.2,0-.3,0-.3-.2s0-.2.2-.2c.1,0,.3,0,.4,0s.2,0,.3,0ZM45.4,33.8c0,0,.2,0,.2,0-.7.3-1.2.7-1.5,1.3.2-.8.6-1.2,1.3-1.3ZM43.2,35.1c-.3-.5-.8-.9-1.5-1.3.8,0,1.3.4,1.5,1.3ZM33.6,4v-.4c-2-1.7-4.4-2.9-7-3.7-.3,2.4-.1,5,.5,7.8.2-1.1.5-2,1-2.7-.2-1-.4-2.1-.6-3.2.9.5,1.6,1,2.4,1.6,1.3,0,2.6.2,3.6.6ZM59.4,4.5c.6.6.9,1.5,1.1,2.5.5-2.5.6-4.8.3-7-3.8,1.1-7.1,3.2-9.9,6.3,2.2-1.2,4.2-2,6-2.4.9-.7,1.9-1.3,3-2-.1.9-.3,1.8-.4,2.6Z"/>
  <path class="st0" d="M41.7,33.8c.7.3,1.2.8,1.5,1.3-.3-.8-.8-1.3-1.5-1.3ZM45.7,33.8c0,0-.2,0-.2,0-.6,0-1,.5-1.3,1.3.3-.5.8-1,1.5-1.3ZM37.9,21.6l-.2.4c0,0,.1,0,.2.1,0,0,.1.1.1.2h.3c0,0,0-.1,0-.1-.1-.2-.2-.4-.4-.6Z"/>
  <path class="st0" d="M45.2,33c0,0-.2-.1-.3-.1,0,0-.2,0-.3,0-.2,0-.3,0-.4,0-.1,0-.2.1-.2.2s0,.1.3.2c.2,0,.3,0,.5,0,.1,0,.3,0,.4,0,0,0,0,0,.1,0,0,0,.1,0,.1-.1s0-.2-.3-.3Z"/>
  <path class="st0" d="M27.6,25.4s0,0,0,0v-.2c0,0-.1.1-.2.2h.1ZM59.8,25.2v.2s0,0,.2,0c0,0-.1-.1-.2-.2Z"/>
  <path class="st0" d="M35.7,13.2c0,0,.2-.1.3-.2-.9-1.6-2-2.7-3.5-3.4,0,1.4.4,3.1,1.3,5.3.6-.6,1.2-1.1,1.9-1.6ZM51.7,13.2c.7.5,1.3,1,1.9,1.6.9-1.9,1.4-3.7,1.3-5.3-1.5.8-2.7,1.9-3.5,3.4l.3.2Z"/>
  <path class="st0" d="M31.1,4.3c-.3-.3-.7-.5-1.1-.8-.7-.5-1.5-1.1-2.4-1.6.2,1.1.4,2.2.6,3.2,1.1,5.7,2.5,9.5,4.2,11.4.4-.6.9-1.2,1.4-1.7-1-2.1-1.4-3.9-1.3-5.3,1.5.7,2.7,1.9,3.5,3.4.4-.3.9-.5,1.3-.8-.9-2.8-3-5.5-6.2-8ZM59.4,4.5c.1-.8.3-1.7.4-2.6-1.1.6-2.1,1.3-3,2-3.5,2.6-5.8,5.4-6.7,8.4.5.2.9.5,1.3.8h0c.8-1.6,2-2.7,3.5-3.5,0,1.6-.4,3.4-1.3,5.3.5.5,1,1.1,1.4,1.7,1.8-2,3.2-6,4.3-12Z"/>
  <path class="st0" d="M35.4,25c.4.3.9.4,1.5.2-1-.3-1.8-1-2.2-2,0,.9.3,1.4.7,1.8ZM52,25c.4-.3.6-.9.7-1.8-.4,1-1.2,1.7-2.2,2,.6.1,1.1,0,1.5-.2Z"/>
  <path class="st0" d="M34.7,23.3h-.6s0,0,0,.1c0,.7.2,1.3.6,1.8s.9.7,1.6.7.5,0,.8-.1l-.2-.5c-.6.1-1.1,0-1.5-.2-.4-.3-.6-.9-.7-1.8ZM50.5,25.3l-.2.5c.2,0,.5.1.8.1.6,0,1.1-.2,1.6-.7s.6-1.1.6-1.8,0-.1,0-.2h-.6c0,.9-.3,1.5-.7,1.8-.4.3-.9.4-1.5.2Z"/>
  <path class="st0" d="M37.9,21.6c-.4-.5-.9-.7-1.5-.7s-1.1.2-1.6.7c-.4.5-.6,1-.6,1.6h.6c.4,1.1,1.2,1.7,2.2,2l.2.5c.3-.1.5-.3.8-.6.4-.5.6-1.1.6-1.8s0-.8-.2-1.2h-.3c0,.2,0,.2,0,.3,0,.2,0,.3-.2.5-.1.1-.2.1-.2,0,0-.2-.1-.3-.2-.4-.1-.1-.3-.2-.4-.2-.1,0-.2-.1,0-.2.1-.1.3-.2.5-.2s.2,0,.2,0l.2-.4ZM52.6,21.6c-.4-.5-.9-.7-1.6-.7s-1.1.2-1.5.7c-.2.2-.3.4-.4.6,0,0,0,0,0,0,0,0,0,0,0,0-.2.4-.2.7-.2,1.2,0,.7.2,1.3.7,1.8.2.3.5.5.8.6l.2-.5c1-.3,1.8-1,2.2-2h.6c0-.7-.2-1.2-.6-1.7ZM51.2,21.8c.1-.1.3-.2.5-.2s.3,0,.5.2c.1.1.2.3.2.5s0,.3-.2.5c-.1.1-.2.2-.3,0s-.1-.2-.3-.3c-.1-.1-.3-.2-.4-.3-.1,0-.2-.1-.2-.2,0,0,0-.1.1-.2Z"/>
  <path class="st0" d="M75.5,79.4c.2-.7.4-1.3.4-1.8,0-.5,0-.9,0-1.4-1-4.8-4.4-8.9-10.2-12.2h-.2c.4.5.6,1,.6,1.4-.6-.2-1.5-.1-2.6.3,1.9.6,3.5,1.7,4.8,3.3-1.2,0-2.5.4-3.8.9,1.5,1,2.8,2.2,3.9,3.7-1.5,0-3.1.3-4.7,1.1.5.3,1,.6,1.4,1,0,0,.1.1.2.2.5.1,1.1.3,1.6.5.5.2,1.1.4,1.5.7.5.3,1,.6,1.4,1,.4.4.8.8,1,1.3.3.5.5,1,.6,1.6.1.6,0,1.1-.2,1.5-.2.4-.5.7-1,.8.6,0,1.1,0,1.6-.2.6-.2,1.1-.4,1.5-.8.5-.3.8-.7,1.2-1.1.3-.4.6-1,.8-1.7Z"/>
</svg>