<?xml version="1.0" encoding="UTF-8"?>
<svg id="Layer_1" xmlns="http://www.w3.org/2000/svg" version="1.1" viewBox="0 0 91 90">
  <!-- Generator: Adobe Illustrator 30.0.0, SVG Export Plug-In . SVG Version: 2.1.1 Build 123)  -->
  <defs>
    <style>
      .st0 {
        fill: #403f3e;
      }
    </style>
  </defs>
  <path class="st0" d="M74,25.7c.3-.2.5-.6.5-1.1v-1.1c0-.2,0-.4,0-.6,0-.7,0-1.1.4-1.4.2-.3.4-.6.4-.9v-.3c-.1-.3-.1-.5-.4-.7v.7c0,.1,0,.2-.2.4h0c0,.2-.2.3-.3.4,0,0,0,0,0,.1-.2,0-.4,0-.5,0-.3,0-.6,0-.7-.1.4,0,.8,0,1.1-.3,0,0,.2-.2.3-.3v-.7s-.2,0-.3-.2c0,0,0,0-.2,0-1.5-.8-3-1.5-4.5-2.1-1.7-.7-3.5-1.4-5.2-1.9-1.8-.5-3.6-1-5.5-1.3l.4-.2c-1.9-.3-3.8-.5-5.6-.6-1.9,0-3.7,0-5.6.2-1.2.1-2.5.4-3.8.7l-1.1,1.1c-1.4.5-2.9,1-4.2,1.5-.9.3-1.6.6-2.2.9-.8.4-1.4.7-2,1.1,0,0-.2.2-.2.3,0,0,0,.1.2.1h.2c.7-.3,1.8-.7,3.2-1.3,1.2-.5,2.3-.9,3.3-1.2.1,0,.2,0,.4-.1,0,0,0,0,0,0l-.8.8c.5-.2,1.1-.3,1.6-.5,0,0,0,0,0,0-.5.1-1.1.3-1.6.5-1.5.5-2.9,1-4.3,1.6,0,0,0,0-.1,0,0,0,0,0,0,0-.9.4-1.9.8-2.8,1.3-.6.3-1.2.7-1.8,1-.2-.1-.4-.2-.6-.3.2-.1.4-.3.5-.4,0,0,.2-.2,0-.3h-.2c-.3.1-.6.3-1,.4,0,0-.2,0-.2-.1,0,0,.1,0,.2.1-.6.3-1.1.6-1.7.9.4-.3.9-.6,1.3-.9,2.3-1.6,4.7-3,7.2-4.2.7-.4,1.4-.7,2.1-1-.9.3-1.8.6-2.7,1-1.7.7-3.4,1.6-5.1,2.5-1.6.9-3.2,1.9-4.7,3s-3.1,2.2-4.5,3.4c-11,8.2-15.2,22.5-12.5,42.8,0,0,0,0,0,0v1c0,.6.6.8,1.5.6.8-.2,1.4-.6,1.8-1,0,0,0,0,.1-.1,0,0,0,0,0,0h.1l.3-.3c.2-.2.3-.3.3-.4,0,0,0,0,.1,0h0v-.2s0,0,0,0c0,0,0,0,0,0,0,0,0,0,0,0h0c0,0,0,0,0,0,.1,0,.4,0,.6,0s.4,0,.6,0c0,0,0,0,.2.1.7.6,1.4.6,1.9-.2,0-.2.2-.3.3-.5.2-.6.5-1,.8-1.2.4-.3.8-.6,1.1-.8.4-.2.9-.4,1.3-.4.7,0,1.4-.3,2.3-.8s1.5-1.1,1.8-1.6c.3-.4.6-.7,1-.8h2.6c.5-.1.9-.4,1.2-1,1-1.7,1.8-2.7,2.3-3.1.3-.2.6-.3,1-.3h1.2c.6,0,1,0,1.3-.2.3-.2.5-.5.6-1.1,0-.5.3-.9.4-1,.2-.2.4-.4.7-.5.5-.3,1-.4,1.5-.5.9,0,1.5-.4,2-1,.4-.6.7-.9,1-1,.2,0,.6-.1,1.2-.1s1,0,1.5-.2c.4-.2,1-.9,1.6-2.1.3-.6.8-1.2,1.6-1.7.4-.3,1-.4,1.9-.4s1.5-.4,1.9-1.4c.2-.5.6-.7,1.3-.7h1.4c.4-.2.7-.5.9-1,.2-.4.3-.9.3-1.4s.4-.8,1.1-1c0,0,.3-.1.8-.2.3,0,.6-.2.8-.4s.4-.6.4-1.3.4-1.1,1-1.2c.6,0,1.1-.2,1.4-.2s.6-.3.9-.7c.3-.4.4-.8.4-1.3s.5-.8,1.7-.9c1.1,0,2-.5,2.6-1.1s.8-1.2.5-1.7c-.3-.6.1-1.3,1.4-1.9,1.2-.7,1.9-1.4,2-2.2,0-.8.2-1.3.5-1.6.3-.4.6-.6.8-.7.5-.2.9-.3,1.2-.3s.6,0,.8-.3ZM19.3,55.4c0,0,.3-.2.5-.3-.4.4-.6.9-.7,1.4,0,0,0,0,0,.1,0-.6,0-1.1.2-1.2ZM30.7,57.7s-.1,0-.2-.1c0,0,0,0,.2.1ZM30.9,57.5v-.3h0s0,0,0,0h0v.4h0ZM34.2,41.8v-.2c-.3,0-.5.1-.7.3-.2.2-.3.3-.3.6h0q0,0,0,0h0c-.2.1-.3.3-.4.4-.4.3-.8.5-1.2.6-.1,0-.2,0-.3,0,.2-.4.4-.7.5-1.2.2-.4.4-.8.7-1.1s.4-.3.7-.4c.4,0,.8,0,1.2,0h.3s0,0,0,.1c-.1.3-.3.5-.5.8ZM69.3,22.4c-.2,0-.4.3-.6.4,0,0-.2.2-.2.3,0,0-.2,0-.3-.2-.1,0-.3-.1-.4-.2,0,0,0,0,0,0,.2-.2.4-.3.6-.4.4-.2.8-.3,1.2-.2.3,0,.7,0,1.2-.5.4-.4.8-.7,1-.7s.4,0,.8.1c-.2,0-.5.3-.9.7s-.8.6-1.2.5c-.4,0-.7,0-1.2.2ZM66.5,25.5c-.5,0-1,.2-1.5.3-.2,0-.3,0-.5.2-.4.2-.7.4-1,.8,0,0,0-.1,0-.1v-.2s0-.1.1-.2c0,0,0-.2,0-.2h0c0,0,0-.2,0-.3,0,0,.1,0,.2-.1.5-.1,1-.2,1.5-.3.5-.1.9-.4,1.2-.7s0,0,0,0h0q0,0,0-.2h.1q0-.1,0-.2h0q0-.1.1-.2h0q0,0,.1,0h.4s0,0,0,0c0,.3-.2.5-.3.7-.3.4-.7.6-1.2.7ZM59.9,29.5c-.3,0-.6,0-.9,0-.1,0-.2,0-.3.1h0v-.2h0c.1,0,.2,0,.3,0h1.3c.2,0,.4-.2.6-.4,0-.2.3-.4.5-.6.2-.3.5-.6.7-.9h1c0-.1,0-.1,0-.1-.2.4-.5.8-.9,1.1-.2.2-.3.4-.5.6-.2.2-.4.3-.6.4h-1.3ZM26.5,24.5c-.9.6-1.8,1.3-2.7,2,0,0,0,0,0-.1,0-.1.2-.2.3-.3,1.4-1.1,2.7-2.1,3.9-2.9,0,.1,0,.2.1.3-.5.3-1,.6-1.5.9ZM23.7,26.5s0,0,0,.1c-.1.1-.3.2-.4.3.1-.2.3-.3.4-.4ZM23.4,49.3c0-.4.3-.8.6-1,.4-.2.8-.4,1.2-.4s.7,0,1.1-.1c-.2.2-.3.4-.5.5-.3.3-.6.5-1,.7-.3.2-.7.3-1.1.4-.1,0-.2,0-.3,0,0,0,0,0,0-.1ZM39.6,37.1s0,0,0,0c0,0,0,0,.2,0h.6s.2,0,.2-.1h.6c-.1,0-.3.1-.4.1-.4,0-.8.1-1.3.2ZM50.6,33.6c0,0,.2,0,.4.1,1,0,1.8-.3,2.6-1,.3-.3.6-.6.9-.9.4-.4.8-.7,1.2-1,.2-.1.3-.3.5-.4h1.1c-.2.2-.5.3-.7.5-.4.3-.8.7-1.2,1l-.9.9c-.7.7-1.6,1-2.6,1h-.6c0,0-.3,0-.4,0-.1,0-.2,0-.3-.1,0,0,0,0,0,0ZM56.8,15.2c2.6,0,5.2.5,7.8,1.1,2.6.6,5.1,1.6,7.5,2.8.6.3,1.3.7,1.9,1.1l-.2.2s0,0-.2,0h-1.2c0,0,0-.2-.2-.2,0,0,0,0-.2,0h-.7q0,0-.1.2h0q0,0,0,.2h-.1q0,.1,0,.2h-.1q0,.1,0,.1h-1.7s-.2,0-.2,0h-.2q0,0,0,.2s-.1,0-.2.2c0,0,0,0-.2.2h0q0,.1,0,.2s0,.1,0,.2c0,0,0,.2-.1.2h0c0,0,0,.3,0,.3,0,0,0,0,0,0-2.1-1-4.2-1.8-6.5-2.4,0,0,.2-.1.3-.2.3-.2.6-.6.8-.9.2,0,.4.2.6.3,0,0,0,0,0,.2v.3s0,.2.2.2h.4l.2-.2s0,0,0-.1c.9.4,1.7.9,2.5,1.3h.5c.3,0,.5,0,.5-.2h0c0-.2-.2-.4-.5-.7-1.5-.7-2.8-1.3-4.2-1.9h0c0-.2,0-.4-.2-.6h0c0-.1-.3-.2-.5-.3-.2,0-.4-.1-.6-.1s-.5,0-.7.2c-2.8-1.1-5.3-1.8-7.6-2.2,1.4,0,2.8,0,4.2,0ZM43.1,16.7c1.8-.5,3.6-.9,5.5-1.1.8-.1,1.5-.2,2.3-.3,3,.7,5.8,1.5,8.6,2.6-.1.1-.2.2-.2.3v.7c0,.3,0,.6.1.8,0,0,0,0,0,0-2.2-.4-4.3-.7-6.5-.8-1.2,0-2.4,0-3.6,0-1-.5-2-.9-3-1.2l2.2-2.2c-1.8.3-3.7.7-5.5,1.1,0,0,0,0,0,0ZM47.1,19.1c-.8,0-1.6.1-2.4.3l1-1c.5.2,1,.5,1.4.7ZM30.2,21.7c.4-.2.7-.4,1-.6.2.1.3.2.5.3-1.2.7-2.4,1.4-3.6,2.1,0-.1-.1-.2-.2-.3.1,0,.3-.2.4-.3,0,0,.7-.4,1.8-1.1h0ZM11.4,69.2h0c0-.2-.1-.4-.1-.6,0,0,0,0,.1,0h0c.4,0,.8-.6,1.1-1.7.1-.6.2-1,.3-1.3,0-.5.3-1,.4-1.3.1-.2.4-.4,1-.5.3,0,.6-.1.8-.3,0-.4-.1-.7-.2-1.1,0,0,.1,0,.2-.2.2-.2.3-.7.1-1.5-.1-.7,0-1.2.2-1.5.2-.2.8-.5,1.8-.8.4-.3.5-.6.5-1.1v-1.2c0-.4,0-.8.2-1.2.2-.4.4-.8.7-1.1.4-.3.8-.5,1.2-.6.4,0,.7-.2,1.1-.4.3-.1.5-.3.7-.4v1.1s0,0,0,0c.6-.4,1.1-.8,1.6-1.1.2-.2.6-.6,1.2-1.4.6-.7.9-1.1,1-1.3.3-.2.7-.4,1.3-.7.3-.1.7-.3,1.2-.5.8-.4,1.6-1,2.2-1.6.4-.4.8-.8,1.2-1.2.6-.6,1.2-1.3,1.7-2.1.2-.3.5-.6.8-.8.8-.5,1.6-.8,2.5-.9.5,0,1-.2,1.5-.4.5-.2.8-.5,1-1,0-.2.2-.4.3-.7.4-.8,1-1.4,1.7-1.8.7-.5,1.6-.7,2.5-.7s.7,0,1-.2c.6-.2,1-.6,1.4-1,.4-.4.7-.9,1.1-1.3.6-.7,1.4-1.1,2.2-1.2.3,0,.7,0,1,0-.2,0-.5,0-.7,0-.9.1-1.6.5-2.2,1.2-.4.4-.7.9-1.1,1.3-.4.5-.9.8-1.4,1-.3.1-.7.2-1,.2-.9,0-1.7.2-2.5.7-.7.5-1.3,1.1-1.7,1.8,0,.2-.2.4-.3.7-.2.5-.5.8-1,1s-1,.3-1.5.4c-.9.2-1.7.5-2.5.9-.3.2-.6.4-.8.8-.5.7-1.1,1.4-1.7,2.1-.4.4-.8.8-1.2,1.2-.6.6-1.2,1.1-1.9,1.4,0,0,0,0,0,0h-.3c-.1.1-.2.2-.3.3-.4.1-.7.2-.9.4-.6.2-1.1.5-1.3.7s-.5.5-1,1.3c-.6.7-1,1.2-1.2,1.4-.4.4-1,.8-1.6,1.1-.2.1-.3.2-.4.3,0,0,0-.2,0-.3h0c-.5.2-.9.5-1.2.7-.9.6-1.4,1.3-1.6,2.2,0,.3-.2.7-.5,1.3-.2.6-.5,1-.6,1.1-.3.2-.5.4-.7.5,0,0,0,0,0,0,.2-.1.5-.2.7-.3-.4.3-.6.5-.7.6-.3.3-.5.6-.6,1,0,.5-.2.9-.3,1.1,0,.2-.1.5-.3.9,0-.2,0-.3,0-.5,0-.3,0-.6,0-.9,0,.2,0,.3,0,.4-.1.3-.3.8-.6,1.5,0,.1-.1.3-.2.4,0,0,0,.2,0,.2-.1,0-.3.1-.5.2-.5,0-.9.2-1,.5-.2.3-.3.8-.4,1.3,0,.3-.2.7-.3,1.3-.3,1.1-.7,1.7-1.1,1.7h0c0,.1,0,.2,0,.4-.1,0-.2,0-.3.1ZM19.5,65.1h-.3s-.1,0-.1-.2v-.2h.1c0,0,0,.3,0,.3h.3,0ZM19.9,64.9c0,0-.1,0-.2,0h0v-.3s0,0,0,0h0v-.3s0,0,0,0h0v.5s.2,0,.3,0c0,0,0,.1-.2.1Z"/>
  <path class="st0" d="M16.3,59.8c0,.2-.2.6-.3,1.4,0-.2.2-.4.2-.7,0-.4.3-.7.6-1s.1-.1.2-.2c-.4,0-.6.3-.7.5Z"/>
  <path class="st0" d="M44,14.3l.7-.7c-1.7.6-3.3,1.2-5,1.9.9-.3,1.7-.6,2.6-.8.6-.2,1.1-.3,1.7-.4Z"/>
  <path class="st0" d="M15.9,60.3s.2,0,.2-.2v-.2h0c0-.1-.2-.1-.3-.1s0,.2,0,.3h0q0,.1,0,.1h.1Z"/>
  <path class="st0" d="M34.6,72.5s.1-.2.2-.4v-.4l-.3.2c0-.2-.2-.3-.4-.3h-.3c0,0-.2.2-.3.3v.4s0,.2.2.3c0,0,.2.1.3.1h.3s.2,0,.3-.2Z"/>
  <path class="st0" d="M35.4,78h-.7c-.2,0-.3.2-.3.4s0,.3,0,.5c0,.2.2.3.4.3h.3c.2,0,.3-.1.3-.2h0v-.7c0,0,0-.2-.2-.3Z"/>
  <path class="st0" d="M36.1,73.2h0c0,0-.2,0-.3.2,0,.1-.1.2-.1.4v.2s.1,0,.2.2h.3c.2,0,.3-.1.4-.3v-.5s0,0-.2-.2h-.2Z"/>
  <path class="st0" d="M68.2,63.9s.2-.1.2-.2h0v-.3c0-.1,0-.2,0-.3,0,0-.2,0-.3,0h-.5c0,0-.2.2-.2.4v.3s0,.2.2.2h.6Z"/>
  <path class="st0" d="M52.3,81.3c0-.2-.3-.3-.5-.3s-.4,0-.7.4h.1c-.2.2-.3.4-.3.6v.5c0,0,.2.2.3.3,0,0,.3.1.4.2.3,0,.5,0,.7-.3.2-.2.3-.5.2-.8,0-.2,0-.4-.2-.6Z"/>
  <path class="st0" d="M40.4,87.6h-.6c-.2,0-.3.2-.4.3,0,.2-.1.4-.1.6s0,.4.2.6c0,.2.3.3.4.3h.5c.2,0,.4-.2.5-.4v-.7c-.1-.4-.3-.6-.5-.7Z"/>
  <path class="st0" d="M19.8,67.6c0,0-.3,0-.5.2-.2,0-.3.2-.3.3v.3h0c0,0,0,.2.1.3,0,0,.2.2.4.2h.4c.2,0,.3,0,.4-.2v-.3c0-.2,0-.4-.1-.5,0-.2-.3-.3-.5-.3Z"/>
  <path class="st0" d="M63.4,42h.6c.2,0,.4-.2.5-.3,0-.2.2-.4.2-.6s0-.4-.2-.5c0-.2-.3-.3-.5-.3h-.5c-.2,0-.3.1-.4.2h0c0,0-.2.3-.2.5s0,.4.1.6c0,.2.3.3.5.4Z"/>
  <path class="st0" d="M52.3,79.4h-.3c0,0-.2,0-.3.2v.4c0,0,0,.2.2.3,0,0,.2.1.4,0,.1,0,.2,0,.3,0,0,0,.1-.1.1-.2s0-.3-.1-.4c0,0-.2-.2-.3-.2Z"/>
  <path class="st0" d="M75.4,69.6c-.1-.2-.2-.3-.4-.4h-.5c-.2,0-.4,0-.5.2,0,.1-.2.2-.3.4v.5c0,.2,0,.3.3.4,0,0,.3.2.5.3.3,0,.6,0,.8-.2.1,0,.2-.2.3-.3,0,0,0-.3,0-.4,0-.2,0-.3-.2-.5Z"/>
  <path class="st0" d="M64.3,42.8v.3s0,.2.2.2.2.1.4,0c0,0,.3,0,.4-.2.1,0,.2-.2.2-.4v.2c0-.2,0-.3-.3-.4,0,0-.3,0-.5,0,0,0-.2,0-.3,0,0,0-.1.1-.1.2Z"/>
  <path class="st0" d="M69.1,63.9v.2c-.2,0-.4,0-.5,0h-.4c-.1,0-.3.2-.3.3s-.1.3-.1.5,0,.3.1.4c0,0,.2.3.3.3s.3,0,.5,0c.2,0,.3,0,.4-.2.2-.2.3-.4.3-.6v-.4c0-.2-.2-.3-.3-.4Z"/>
  <path class="st0" d="M44.5,5.7s0,0,0,0c0,0,0,0,0,0Z"/>
  <path class="st0" d="M67.9,6.7s0,0,0,0c0,0,0,0,0,.1,0,0,0,0,0,0,0,0,0,0,0,0h.4c0,0,.2,0,.3-.1v-.2c0,0,0-.1,0-.2h0c.2,0,.2.2.2.4h0c0,.2-.1.2-.2.2,0,0-.2,0-.3,0h.6c.1,0,.2-.2.3-.3,0,0,.2-.2.3-.4v-.3c0,0,0-.3-.2-.4,0,0,0-.1-.2-.2h-.1c-.1,0-.3-.2-.5-.2s-.4,0-.5.2c0,0,0,0,0,0-.2,0-.3.1-.3.3h0v.2h0v.5s0,0,0,0h0c0,.1,0,.1,0,.1,0,0,0,0,0,0ZM68.1,6.4h0v-.2h0q0-.1,0-.1v.3h0ZM69.2,5.7c0,0,.1.2.2.3h-.1c0-.1,0-.2-.1-.3h0Z"/>
  <path class="st0" d="M44.4,5.7s0-.1-.1-.2c0,0,.2.2.2.2h.7c.2,0,.4-.2.6-.4.1-.2.2-.4.2-.7s0-.4-.2-.5c0,0-.2-.3-.4-.3s-.4,0-.5,0h0c.2-.2.5-.2.8-.1.2,0,.3.2.4.3,0,0,.2.3.2.5s0,.3,0,.4c0,0-.2.2-.2.3,0,0-.2,0-.2.2,0,.2-.3.4-.6.4.2,0,.4,0,.7-.2.5-.2.9-.7,1.1-1.3.2-.6.2-1.2,0-1.7,0-.3-.3-.5-.5-.7-.2-.2-.5-.3-.8-.4-.3,0-.7,0-1.2.2s-.8.4-1,.6c-.2.3-.3.7-.3,1.3s0,.9.2,1.2c.2.4.6.7,1,.9ZM44.4,5.3s0,0,0,0c0,0,0,0-.1-.2h.1ZM45.2,4.5s.1,0,.2.1c0,0,0,0,0,0h-.5c0,0-.2.2-.3.3h0c0-.1,0-.1,0-.1,0,0,0,0,0,0h0c0-.2.1-.2.2-.3h.5ZM45.2,2.4c-.1,0-.2,0-.3,0,.1,0,.2,0,.3,0ZM44.8,2.3s0,0,0,0c0,0,0,0,0,0,0,0,0,0,0,0ZM46,2.4s0,0,.1.1c0,0,0,0,0,0h-.1c0-.1,0-.2,0-.2,0,0-.1-.1-.2-.2,0,0,0,0,0,0,0,0,.2.1.3.3ZM43.5,3.2h0v-.5s0-.2.2-.2c0,0,0-.2.2-.2,0,0,.2,0,.3-.2h0s0,0-.1.1c0,0,0,0-.2.2,0,0-.1.2-.2.2v.4h0q0,0,0,0s0,0,.2-.3c0,0,.2-.2.3-.3,0,0,.1,0,.2,0,0,0,0,0,0,0,0,0-.2.2-.3.3,0,.2-.2.3-.2.3h-.1c0,.2,0,.4,0,.6,0,.2.2.6.5.9,0,0,0,.2,0,.3l-.2-.2c-.3-.4-.4-.7-.5-.9v-.6Z"/>
  <path class="st0" d="M87.1,26.1c0-.3,0-.6-.2-.8-.1-.3-.4-.6-.7-.7h0c-.3-.3-.7-.3-1-.3s-.5.1-.7.2c-.2.2-.4.4-.4.8v.2h0v.7c0,.3,0,.6.2.8,0,.3.3.5.4.7.2,0,.3.2.5.2h.6c.2,0,.4-.2.6-.4s.4-.4.5-.6c0-.2.2-.5,0-.8ZM86.1,24.6c-.1,0-.2,0-.3,0h-.2c.2,0,.4,0,.5,0ZM84.4,25.8h0v-.2h0c0,0,0,0,.1,0h0v.3h0ZM85.5,27.2c0-.1,0-.2.3-.3-.2,0-.3,0-.5-.1,0,0-.3-.2-.4-.3-.2-.2-.2-.5-.3-.7,0,0,0,0,0-.2h0c0,0-.1,0-.2,0,0,0,0-.2,0-.2h.3c0,0,0-.2-.2-.2,0,0,0,0,0,0,0,0,.1,0,.1,0,0,0,0,0,0,.2,0-.2,0-.4.2-.6,0,.2-.2.3-.2.6v.2c0,.4,0,.7.3.9,0,0,.2.2.4.3,0,0,.2,0,.4,0,0,0,0,0,0,0,0,0-.2.2-.3.3.2,0,.4,0,.6,0-.3.2-.5.2-.7,0Z"/>
  <path class="st0" d="M89.3,52c-.3-.2-.5-.3-.8-.3s-.6,0-.8,0c-.2,0-.3.3-.4.5,0,.1,0,.4-.2.6,0,.3-.2.6-.2.8v.8c0,.3.3.6.6.9.6.6,1.1.8,1.6.7.4,0,.7-.3,1-.7.2-.3.3-.6.4-.9v-1c0-.6-.5-1.1-1.2-1.5ZM87.2,53.8h.3s0,0,0-.2,0,0,0,0h.1c0,0,.2.2.2.3,0,0,0,0,0,.1h0c0,0,0,0-.2,0h-.2s0,0,0,0h-.1s0,0,0-.1ZM89.1,53.4c0,0-.2-.2-.2-.3,0,0,0,0,0,0h.1s0,.2.2.3c.3.2.4.4.4.7s0,.4-.3.6c0,.1-.2.2-.2.2,0,0-.2.2-.2.3,0,0,.2,0,.4,0,0,0,0,0-.1,0-.2.1-.3.2-.5.1,0,0,.1-.2.2-.3,0,0,0-.1.2-.2.2-.2.3-.4.3-.6,0-.3,0-.5-.4-.7ZM90.3,54.4c0-.4,0-.7-.2-1-.2-.3-.4-.5-.7-.6-.2,0-.5,0-.8,0s-.5,0-.6.2h-.5c0,0-.2,0-.3.2v-.2c0-.1,0-.2.3-.2h.5c.2,0,.4-.1.6-.2.3,0,.6,0,.8,0,.3.1.5.3.7.6.2.3.2.6.2,1v.2Z"/>
  <path class="st0" d="M45.2,5.8s0,0,0,0c0,0,0,0-.1,0h.1Z"/>
  <path class="st0" d="M6.9,45.4h0c-.1-.1-.2-.1-.4-.1s-.2.1-.3.2v.2c-.2,0-.2,0-.3.2-.1.2-.1.4,0,.6,0,0,0,.2.2.3.2.2.4.3.7.2.3,0,.5,0,.6-.3,0-.1,0-.3,0-.4s0-.3,0-.4c-.1-.3-.3-.4-.5-.5ZM6.8,46.4s.1,0,.2,0c0,0-.2,0-.2,0ZM7.3,46.5s0,0,.1,0c0,0,0,0-.1,0Z"/>
  <path class="st0" d="M5.3,29.2h0s0,0,0,0Z"/>
  <path class="st0" d="M4,46.3c0,0-.3,0-.4.1,0,0-.2.2-.3.3v.5c0,0,0,.2.1.3,0,.2.3.3.6.4.2,0,.3,0,.5-.1.2,0,.3-.2.4-.4,0-.1,0-.3,0-.4,0-.2,0-.4-.3-.6-.2-.1-.4-.2-.7-.1ZM4.7,47.5s-.2,0-.3,0h-.2s-.2,0-.2-.2v-.2c0,0,0,.2.2.3h.2s.2,0,.3,0c0,0,.2-.2.2-.3,0,0,0,0,0,0,0,0,0,.2-.2.3Z"/>
  <path class="st0" d="M3.6,43.8c.1-.2.2-.4.3-.5,0-.2,0-.4,0-.6,0-.5-.3-.9-.7-1.2-.5-.3-.9-.5-1.4-.4-.3,0-.5,0-.7.2h-.1c-.2.1-.4.3-.5.6,0,.2,0,.4,0,.6,0,.2,0,.4.2.6.1.3.4.6.8,1,.5.4,1,.6,1.4.4.2,0,.4-.3.6-.7ZM3.2,43.2s-.1,0-.1,0v-.2s0,0,0-.2h-.3s0,0,0-.1h.3s0,.1.1.2v.2ZM2.3,42.1c0,.1-.2.2-.3.4h0c0,0,0-.2.3-.4s.3-.2.4-.2,0,0,0,0c0,0-.2,0-.3.2ZM2.3,43.6c0,0,.3,0,.5,0,0,0,0,0,0,0-.2,0-.3,0-.5-.1-.2,0-.3-.3-.4-.5v-.3h.1v.3c0,.2.2.4.4.5ZM2.8,41.5c.3,0,.6.3.7.5.2.3.3.6.3.9s0,.4-.3.6,0,0,0,0c.1-.1.2-.2.2-.4,0,0,0,0,0,0v-.6c0-.2-.2-.4-.4-.5,0,0,0,0,0,0-.2-.2-.3-.3-.6-.4-.3,0-.6,0-.9,0h0c0,0,0,0,.1,0h.9ZM1.4,41.6h0c0,0,0,0-.1.1,0,0-.1.1-.2.2,0-.1.1-.2.3-.3Z"/>
  <path class="st0" d="M12.9,81.1h-.4c-.2,0-.4.1-.6.3-.2.2-.3.3-.3.4,0,.2,0,.4.1.6,0,.2.3.4.4.4.2.1.4.1.6.1s.4-.1.5-.3c0,0,0,0,0-.1,0,0-.1,0-.2.1h-.4s0,0-.1,0h.3c0,0,.2-.1.3-.4,0,0,0,0,0,0h0s0,0,0,0c0,0,.1-.2,0-.3,0-.1,0-.2-.2-.3h0s0,.2.2.3h0c0-.1,0,0,0,0,0-.2,0-.3-.2-.4,0,0-.2-.2-.4-.2ZM12.6,82.1s0,0,0,0h0v-.4h0c0,0,0,.1,0,.2,0,.1,0,.2.2.3h-.1Z"/>
  <path class="st0" d="M41.1,61.5c-.2,0-.4-.3-.8-.4-.5-.2-1-.2-1.4,0-.1,0-.3,0-.5.2h-.1c-.3.2-.4.3-.5.5-.2.2-.2.6,0,1.1v.4c0,0-.2.3-.2.4v.7c0,.2.2.4.4.6.2.2.4.4.6.5.4.2.8.3,1.2.3s.9,0,1.2-.3c.2-.1.4-.2.5-.4,0,0,0-.2.3-.4.1-.2.2-.3.2-.4v-1.4c0-.2,0-.4-.3-.6-.2-.3-.4-.5-.6-.7ZM38.4,63.8s-.1,0-.1-.2v.2ZM41.3,62.7c-.2-.1-.5-.2-.8-.3v.3c0,.3-.3.4-.5.4h-.2l-.2-.3c0,0-.3,0-.4,0,0,0-.1,0-.2-.2,0,0,0,0,0,0,.1,0,.2,0,.4.1h.2c.2,0,.4-.1.5-.3v-.3c.5,0,.9.3,1.1.6ZM40.1,62.2s0,0-.1,0c0,0,0,0,.1,0ZM38.3,62.4c.1,0,.3-.2.5-.2h0c-.1,0-.2.1-.4.2-.2,0-.3.3-.4.5,0,.1,0,.2,0,.4h-.1s0-.2,0-.4c0-.2.2-.4.4-.5ZM38.9,65.1c-.2,0-.4-.2-.7-.4-.2-.2-.3-.3-.4-.4,0-.2,0-.4,0-.5v-.3s0,0,0,0h0v.4c0,0,0-.1,0-.2h0v.6c0,0,.2.3.4.4.2.2.5.4.7.4.4,0,.8,0,1.3,0,0,0-.1,0-.2,0-.5.2-1,.2-1.3,0Z"/>
  <path class="st0" d="M13.3,82.5c0,0,.1-.2.1-.4,0,.1,0,.3-.1.4Z"/>
  <path class="st0" d="M86.2,43.2c0-.2-.2-.3-.3-.4,0,0-.1,0-.2-.2h-.2c-.2-.3-.4-.4-.5-.5-.2,0-.4,0-.6,0h-.6c-.2,0-.4,0-.6.2-.4.2-.7.5-.8.8,0,.3-.2.5-.2.8,0,0,0-.1.2-.2,0-.2.2-.3.3-.3,0,0,.2,0,.3.2v.2c0,0-.2-.2-.4-.2,0,0-.1,0-.2.2-.1,0-.2.2-.2.3v.3h0q0,.1,0,.2h.2v1.2s0,.2.2.3c.2.2.4.4.6.5.1,0,.3.1.6.2h.5c0,0,.3,0,.5,0,.6-.3,1-.7,1.4-1.2.1-.2.2-.4.2-.5v-1.3h0s-.1-.2-.2-.4ZM85.3,43.2s.2.2.3.4c.1.2.2.4.2.6v.3c0,0,0-.3-.3-.6,0-.2-.2-.3-.3-.4,0,0-.1,0-.2,0v-.4h0q0,0,.2.2ZM82.6,44.5h0c.1,0,.2,0,.3-.2h.1q0,0,.1-.2l.2-.2v-.4s.2.2.2.3v.4s0,0-.2.2c0,0,0,0-.1,0h0c0,0-.2,0-.2,0h-.4s0,0,0,0ZM86.3,44.5c0,.3,0,.6-.3.9-.2.2-.3.4-.5.4,0,0,0,0,0,0h0c0-.1,0-.2,0-.2.2,0,.4-.2.4-.4.2-.3.3-.6.3-.9v-.3c0-.2,0-.4-.1-.5h0c0,.1-.3-.4-.3-.4,0-.1-.2-.3-.4-.4,0,0-.1,0-.2,0-.3-.2-.5-.2-.8-.2,0,0,0,0,0,0,.3,0,.6,0,.9.2,0,0,.1,0,.2,0l.4.4.3.5s0,.2,0,.5v.3Z"/>
  <path class="st0" d="M65.4,81.8h.2c-.2,0-.4-.2-.5-.2h-.6c-.2,0-.4.1-.5.3-.3.2-.5.5-.7.9-.2.5-.3,1-.3,1.4s.2,1,.5,1.3.6.4,1,.6c.3,0,.5,0,.6,0h.2s.1,0,.2-.1c0,0,.2,0,.5-.3.2,0,.4-.2.5-.3.2-.2.4-.5.4-.8v-.9c-.1-.5-.5-1-1-1.5s-.3-.3-.5-.4ZM65,82s0,0,.2.1c0,0,0,0,0,0,0,0,0,0-.1,0h0c0,0,0,0,0,0h-.4c.1,0,.3,0,.4,0ZM66.5,83.8v.8c0,0,0,.2-.1.3,0,0,0,0-.2,0h-.3c-.2,0-.5.2-.8.4h-.3v.2s0,.2.1.2c0,0,0,.1.2.1s.3,0,.5-.1l.4-.2s0,0,0,0c0,0,0,0-.1.1l-.4.2c-.2,0-.4.2-.5,0,0,0,0,0-.2,0,0,0,0-.1,0-.2v-.2s-.2,0-.2,0c0,0,0,0-.2-.1,0,0,0,0,.2,0h0c.3-.2.6-.3.8-.4h.2s.1,0,.2,0c0,0,.2-.3.2-.4v-.8c0-.5-.2-.8-.4-1.1,0-.1-.2-.2-.3-.3.1,0,.2,0,.3,0,.2,0,.3.2.5.4.2.3.4.6.4,1.1Z"/>
  <path class="st0" d="M82.2,43.8s0,0,0,.1c0,0,0,0,0-.1Z"/>
  <path class="st0" d="M17.3,11c.2.2.4.3.6.4h-.1c0-.1-.2-.3-.2-.4s0-.3,0-.4c0,0-.2-.2-.3-.4,0-.1-.1-.2-.2-.4h0s0,0-.1-.2v-.7c.1,0,.1.2.1.2v.3s0,.2,0,.2h.2v-.3l.2-.4c0-.1.2-.3.2-.3,0,0,0,0,.1-.2h0c0-.1,0-.1,0-.1h0s0,0,0,.2c0,0-.1.2-.2.3l-.2.4v.2h0q0,0,0,0c0,0,0,.2.2.4,0,0,0,.1,0,.2v.3c0,0,0,.2,0,.4,0,.1.1.2.2.3h.1c.2.2.4.3.6.3.3,0,.6-.2.7-.4,0,0,0-.2,0-.2.1-.2.1-.4.1-.6,0-.3-.2-.5-.4-.6-.2,0-.4-.2-.6-.2-.2,0-.3,0-.5,0,0,0,0,0,0,0,0,0,.1-.1.2-.1.2-.1.4-.1.6-.1s.4,0,.6.2.1.1.2.2c0,0,0,0,0,0h0c.1,0,.2.2.2.3,0-.2,0-.4,0-.6v-.3c0-.4-.3-.6-.5-.8-.2-.3-.5-.6-.7-.7-.3-.1-.6-.1-1,0-.4,0-.7.4-.9.7-.2.3-.3.7-.3,1.1s.3,1,.9,1.5ZM18.1,10.8h.1c0,0,0,0,0,0v-.3s.2-.2.3-.2h.2s0,0,0,.1h-.2c0,0-.2,0-.3.2,0,0,0,.2,0,.4h0c0,0,0,0,0,0h-.1v-.2Z"/>
  <path class="st0" d="M18.4,9.4s0,0,0,0c0,0,0,0,0,0h0Z"/>
  <path class="st0" d="M8.4,30.3v-.5h.2c0,0-.1-.2-.2-.3h0c0-.3-.3-.6-.6-.9-.2-.3-.4-.5-.6-.6-.2,0-.4-.2-.7-.2l.5.2h-1.1c-.2,0-.4.2-.5.3-.3.2-.6.5-.8.7,0,.2-.2.3-.3.4v1.3c0,.2.1.4.3.6,0,0,.2.2.6.5,0,0,.2.2.6.5.2.2.4.4.6.5,0,0,.3.1.4.2h1c.2,0,.4-.2.5-.4,0,0,.2-.3.3-.6h0c0,0,.2-.2.2-.4v-.3h0v-.2h0v-.2h0v-.2c0-.2-.1-.3-.3-.4ZM7.9,29.9h0c.1,0,.2.2.3.3h-.9s-.1,0-.2,0c0,0,0,0,0,0,.2-.2.4-.3.6-.4,0,0,0,0,0,0ZM7.1,30.8h0s0,0,0,0c0,0,0,0,0,.1h0ZM7.9,30.4c-.1,0-.3,0-.4,0h0s0,0,.2,0c.2,0,.3-.1.5,0h-.2ZM5.5,31.9c-.2-.2-.3-.5-.4-.7,0-.2,0-.4,0-.7v-.6l.3-.6s0,0,0,0c-.1.1-.2.3-.3.5v1.3h-.2s0,0,0,0h0v-.7c0-.3,0-.5,0-.6,0-.2.1-.4.3-.5h.1c0-.1,0-.1,0-.1h0q0,0,0,0h.1v-.2h.5l-.3.2h0v.3l-.3.7v.6c0,.3,0,.5,0,.7,0,.2.2.4.4.7.1.2.3.3.4.4h0c-.2,0-.4-.2-.6-.5Z"/>
  <path class="st0" d="M78.5,37.8c0-.2-.2-.3-.4-.3-.1,0-.2,0-.4,0h-.2c-.2,0-.4,0-.5,0v-.2c0,0-.2.2-.4.4,0,0-.1.3-.2.6,0,0,0,0,0,0h0s0,0,0,.1v.5c0,.2.2.3.3.5,0-.2,0-.4,0-.7h0c0-.1,0-.2.2-.3h.1c-.1,0-.2,0-.2.3h0c0,0,0,.2,0,.2h0c0,.2,0,.3,0,.4,0,0,0,.1,0,.2.2,0,.3.2.6.2h.3s-.1,0-.2,0h0c.1,0,.2,0,.4-.2,0,0,0,0,0,0,.2,0,.3-.3.4-.5,0-.2.1-.4.1-.6s0-.4-.1-.5c0,0,0-.1-.1-.2ZM77.4,38.7h0q0,0-.1.2h-.2,0v-.6s-.1-.2-.2-.2h-.3c0,0,.3-.1.5-.2,0,0-.1,0-.2.1h0c0,0,.1,0,.2,0,0,0,0,.1.2.2v.4ZM77.1,38.4s0,0,0,0c0,0,0,0,0,0Z"/>
  <path class="st0" d="M82.6,43.5s0,0,0,0c0,0,0,0,0,0h-.1Z"/>
</svg>