<?xml version="1.0" encoding="UTF-8"?>
<svg id="Layer_1" xmlns="http://www.w3.org/2000/svg" version="1.1" viewBox="0 0 91 90">
  <!-- Generator: Adobe Illustrator 30.0.0, SVG Export Plug-In . SVG Version: 2.1.1 Build 123)  -->
  <defs>
    <style>
      .st0 {
        fill-opacity: .5;
      }

      .st0, .st1, .st2 {
        fill: #403f3e;
      }

      .st1 {
        fill-opacity: .6;
      }
    </style>
  </defs>
  <path class="st2" d="M75.1,20.3c0-.3,0-.5-.3-.7,0,.2,0,.4,0,.5,0,0,0,.1,0,.2,0,.1,0,.2-.2.4,0,0,0,0-.1.1-.1.1-.2.2-.3.3-.4.5-.6,1.1-.6,1.7s0,.5,0,.7c0,.3,0,.5,0,.6,0,.4-.1.7-.4.7-.5,0-1,.2-1.6.4-.6.2-1,.4-1.2.7,0,0-.1.4-.2,1,0,.4-.2.8-.5,1.3-.3.7-.6,1.1-1,1.3-.8.4-1.2.7-1.2.7-.6.4-.9.6-.9.8s0,0,0,0c0,0,0,0,0,0,0,0,0,.2,0,.4,0,.8,0,1.4-.2,1.7-.2.6-.8,1-1.6,1.3-.3.1-.7.2-1.1.2-.4,0-.7.1-.9.1-.3,0-.5.2-.6.3-.1.1-.2.3-.3.5-.2.7-.4,1.1-.5,1.3-.3.4-.9.7-1.8.9-.7.2-1.1.4-1.2.7,0,.4-.2.8-.4,1.2,0,0,0,0,0,0,0,.1,0,.2-.2.4-.1.2-.4.3-.8.6-.6.3-1.1.6-1.4.8-.6.4-1,.8-1.1,1.1-.2.7-.5,1.2-.8,1.4-.3.2-1,.4-2,.6-.3,0-.6.2-.8.5-.2.3-.4.6-.5.7-.2.2-.3.4-.4.5-.2.1-.4.2-.7.2-.8.1-1.4.2-1.6.3-.6.2-1,.6-1.3,1.2,0,0,0,0,0,0-.1.5-.4,1-.8,1.5-.5.6-.9.9-1.3,1.1-.2,0-.6,0-1.3,0-1.1,0-1.9.4-2.4,1.2-.3.5-.5.8-.6.8-.2.2-.5.4-.9.4-.1,0-.3,0-.4,0-.5,0-.9,0-1.2.1-.4.1-.7.3-.9.6,0,0-.2.3-.4.9-.2.4-.4.7-.5.8-.2.1-.4.2-.8.2-.5,0-.9,0-1.2,0-.8,0-1.3,0-1.3.1-.3,0-.5.2-.7.5-.2.2-.3.4-.4.8,0,.2-.1.4-.2.6h0c-.2.5-.5,1-.9,1.6-.4.6-.8.9-1.1,1.1-.4.1-.7.1-1.1,0-.3,0-.6,0-.8-.1-.2,0-.3,0-.4,0-.6,0-1,.2-1.3.5,0,0-.3.4-.7,1.1-.3.5-.7.8-1.1,1.1-.6.3-1.3.5-2.2.4-.8,0-1.7.2-2.5.9-.8.6-1.3,1.4-1.7,2.3-.3.9-.9,1.1-1.7.7-.9-.5-1.5-.4-1.9.3-.2.3-.4.5-.6.8-.5.5-1,.8-1.7,1,0,0,0,0,0-.1,0,0,0,0,0,0,0,0,0,0,0,0h0c-.1-.2-.2-.5-.1-.7-.6.2-1,0-1.2-.3,0,.2,0,.4,0,.7,0,.1,0,.2,0,.3.1.6.6.8,1.5.6.8-.2,1.4-.6,1.8-1,.4-.4.6-.8.9-1,.1-.2.4-.2.7-.2s.4,0,.6.1c0,0,.1,0,.2.1.7.6,1.4.6,1.9-.2.1-.2.2-.3.3-.5.2-.6.5-1,.8-1.2.4-.3.8-.6,1.1-.8.4-.2.9-.4,1.3-.4.7,0,1.4-.3,2.3-.8.9-.5,1.5-1.1,1.8-1.6.3-.4.6-.7,1-.8.2,0,.7,0,1.3,0,.6,0,1,0,1.3,0,.5-.1.9-.4,1.2-1,1-1.7,1.8-2.7,2.3-3.1.3-.2.6-.3,1-.3.2,0,.6,0,1.2,0,.6,0,1,0,1.3-.2.3-.2.5-.5.6-1.1.1-.5.3-.9.4-1,.2-.2.4-.4.7-.5.5-.3,1-.4,1.5-.5.9,0,1.5-.4,2-1,.4-.6.7-.9,1-1,.2,0,.6-.1,1.2-.1.5,0,1,0,1.5-.2.4-.2,1-.9,1.6-2.1.3-.6.8-1.2,1.6-1.7.4-.3,1-.4,1.9-.4.9,0,1.5-.4,1.9-1.4.2-.5.6-.7,1.3-.7.8,0,1.2,0,1.4,0,.4-.2.7-.5.9-1,.2-.4.3-.9.3-1.4,0-.5.4-.8,1.1-1,0,0,.3-.1.8-.2.3,0,.6-.2.8-.4.2-.2.4-.6.4-1.3,0-.7.4-1.1,1-1.2.6,0,1.1-.2,1.4-.2.3,0,.6-.3.9-.7.3-.4.4-.8.4-1.3,0-.5.5-.8,1.7-.9,1.1-.1,2-.5,2.6-1.1.6-.6.8-1.2.5-1.7-.3-.6.1-1.3,1.4-1.9,1.2-.7,1.9-1.4,2-2.2,0-.8.2-1.3.5-1.6.3-.4.6-.6.8-.7.5-.2.9-.3,1.2-.3.3,0,.6,0,.8-.3.3-.2.5-.6.5-1.1,0-.4,0-.8,0-1.1,0-.2-.1-.4-.1-.6,0-.7.1-1.1.4-1.4.2-.3.4-.6.4-.9,0,0,0,0,0,0ZM74,23.2v.4c0,.1,0,.3,0,.4h0c0,.2,0,.2,0,.2,0,0,0,0-.1,0,0,0,0,0,0,0,0,0,0,0,0,0,0,0,0-.1,0-.2h0c0-.4,0-.5,0-.6h0c0-.2,0-.2,0-.2,0,0,0,0,.1,0,0,0,0,0,0,.1ZM14.2,67.5s0,0,.1,0c0,0,.1,0,.1.1,0,0,0,0,0,0,0,0,0,0,0,.1,0,0,0,0-.1.1,0,0-.1.1-.3.4-.1.1-.2.2-.3.3,0,0,0,0-.1,0,0,0-.1,0-.1-.1,0,0,0-.1,0-.2,0-.1.2-.3.4-.6.1-.1.2-.2.2-.2,0,0,.1,0,.1,0ZM19.7,64.4c0,0,0-.1,0-.2h0c0,0,0,0,0,0,0,0,.1,0,.2,0,0,0,.1,0,.2.1,0,0,0,0,0,.2h0c0,.1,0,.2,0,.2,0,.1-.1.2-.2.2-.1,0-.2,0-.3-.1,0,0,0-.1,0-.2h0ZM19.2,64.6s0,0,.1,0h0c0,0,.1,0,.2,0,0,0,.1,0,.1.1,0,0,0,0,0,.2h0c0,0,0,.1,0,.1,0,0,0,0-.1.1,0,0,0,0-.1,0,0,0-.2,0-.2,0,0,0-.1-.1-.1-.2h0c0,0,0-.2,0-.2,0,0,0,0,0,0h0Z"/>
  <path class="st2" d="M19.3,64.5s0,0-.1,0h0c0,0,0,0,0,.1h0c0,.1,0,.2,0,.2,0,0,0,.2.1.2,0,0,.2,0,.2,0,0,0,0,0,.1,0,0,0,0,0,.1-.1h0c0,0,0-.1,0-.1,0,0,0-.1,0-.2,0,0,0,0-.1-.1,0,0-.1,0-.2,0h0ZM19.8,64.2c0,0,0,.1,0,.2h0c0,.2,0,.2,0,.3,0,0,.2.1.3.1.1,0,.2,0,.2-.2,0,0,0,0,0-.2h0c0-.1,0-.2,0-.2,0,0,0,0-.2-.1,0,0-.1,0-.2,0h0s0,0,0,0ZM14.3,67.5c0,0-.1,0-.1,0,0,0,0,0-.1,0,0,0,0,.1-.2.2-.2.3-.3.5-.4.6,0,0,0,.1,0,.2,0,0,0,.1.1.1,0,0,0,0,.1,0,0,0,.2-.2.3-.3.2-.2.3-.3.3-.4,0,0,0-.1.1-.1,0,0,0,0,0-.1,0,0,0,0,0,0,0,0,0-.1-.1-.1ZM74,23.6v-.4c0,0,0-.1-.1-.1,0,0,0,0-.1,0,0,0,0,0,0,.1h0c0,.2,0,.4,0,.6h0c0,.2,0,.3,0,.4,0,0,0,0,0,0,0,0,0,0,0,0,0,0,0,0,.1,0,0,0,0,0,0-.1h0c0-.2,0-.4,0-.5ZM30.5,57.6c0,0,.1,0,.2.1,0,0,.2,0,.2,0,0,0,0-.1,0-.2h0c0-.2,0-.3,0-.3,0,0,0,0-.2,0,0,0,0,0-.2,0,0,0,0,0-.1,0,0,0,0,.1,0,.2,0,0,0,.1,0,.2Z"/>
  <path class="st1" d="M51.3,33.8c-.1,0-.3,0-.4-.1-.5-.2-1-.2-1.5-.1-.9.1-1.6.5-2.2,1.2-.4.4-.7.9-1.1,1.3-.4.5-.9.8-1.4,1-.3.1-.7.2-1,.2-.9,0-1.7.2-2.5.7-.7.5-1.3,1.1-1.7,1.8-.1.2-.2.4-.3.7-.2.5-.5.8-1,1-.5.2-1,.3-1.5.4-.9.2-1.7.5-2.5.9-.3.2-.6.4-.8.8-.5.7-1.1,1.4-1.7,2.1-.4.4-.8.8-1.2,1.2-.7.7-1.4,1.2-2.2,1.6-.5.2-.9.3-1.2.5-.6.2-1.1.5-1.3.7-.1.1-.5.5-1,1.3-.6.7-1,1.2-1.2,1.4-.4.4-1,.8-1.6,1.1-.6.4-1.1.7-1.3.8-.9.6-1.4,1.3-1.6,2.2,0,.3-.2.7-.5,1.3-.3.6-.5,1-.6,1.1-.5.3-.8.6-.9.7-.3.3-.5.6-.6,1,0,.5-.2.9-.3,1.1,0,.3-.3.8-.6,1.5-.2.4-.5.6-1,.7-.5,0-.9.2-1,.5-.2.3-.3.8-.4,1.3,0,.3-.2.7-.3,1.3-.3,1.1-.7,1.7-1.1,1.7,0,0,0,0-.1,0h0c0,.2,0,.5.1.7h0s0,0,0,0c0,0,0,0,0,0,0,0,0,0,0,.1.6-.2,1.2-.5,1.7-1,.2-.2.4-.5.6-.8.4-.6,1-.7,1.9-.3.9.4,1.4.2,1.7-.7.3-.9.9-1.7,1.7-2.3.8-.6,1.6-.9,2.5-.9.8,0,1.6,0,2.2-.4.4-.2.8-.6,1.1-1.1.4-.7.6-1,.7-1.1.3-.3.7-.5,1.3-.5s.2,0,.4,0c.2,0,.5,0,.8.1.3,0,.7,0,1.1,0,.4-.1.7-.5,1.1-1.1.4-.6.7-1.1.9-1.6,0,0,0,0,0,0,0-.2.1-.4.2-.6.1-.4.3-.6.4-.8.2-.2.5-.4.7-.5,0,0,.5,0,1.3-.1.3,0,.7,0,1.2,0,.3,0,.6,0,.8-.2.2-.1.3-.4.5-.8.2-.5.4-.8.4-.9.2-.3.5-.5.9-.6.3,0,.7-.1,1.2-.1s.2,0,.4,0c.3,0,.6-.1.9-.4,0,0,.2-.3.6-.8.5-.8,1.3-1.2,2.4-1.2s1.1,0,1.3,0c.4-.1.9-.5,1.3-1.1.4-.5.7-1,.8-1.5,0,0,0,0,0,0,.2-.6.7-1,1.3-1.2.2,0,.8-.2,1.6-.3.3,0,.5-.1.7-.2.1-.1.3-.3.4-.5.1-.1.3-.4.5-.7.2-.3.5-.4.8-.5,1-.2,1.7-.4,2-.6.3-.2.6-.7.8-1.4,0-.3.4-.7,1.1-1.1.3-.2.8-.5,1.4-.8.4-.2.7-.4.8-.6,0-.1.1-.2.2-.4,0,0,0,0,0,0,.2-.4.3-.8.4-1.2.1-.3.5-.5,1.2-.7.9-.2,1.5-.5,1.8-.9.1-.2.3-.6.5-1.3,0-.2.2-.4.3-.5.1-.1.3-.2.6-.3.1,0,.4,0,.9-.1.4,0,.8-.1,1.1-.2.9-.3,1.4-.7,1.6-1.3.1-.3.2-.9.2-1.7s0-.3,0-.4c0,0,0,0,0,0,0,0,0,0,0,0,0-.2.3-.4.9-.8,0,0,.4-.2,1.2-.7.4-.2.7-.6,1-1.3.2-.5.4-.9.5-1.3.1-.6.2-.9.2-1,.2-.3.6-.5,1.2-.7.5-.2,1.1-.3,1.6-.4.3,0,.4-.3.4-.7s0-.3,0-.6c0-.3,0-.5,0-.7,0-.7.2-1.2.6-1.7,0,0,.2-.2.3-.3,0,0,0,0,.1-.1.1-.1.2-.3.2-.4s0-.1,0-.2c0,0,0,.1,0,.2,0,.1-.1.2-.3.3-.4.3-.9.4-1.3.3-.5,0-.8-.1-.9-.2-.2,0-.6.3-1,.7-.4.4-.8.6-1.2.5-.4,0-.7,0-1.2.2-.2.1-.4.3-.6.4-.4.4-.7.8-.7,1.3,0,.3-.2.5-.3.7-.3.4-.7.6-1.2.7-.5.1-1,.2-1.5.3,0,0,0,0,0,0-.2,0-.3,0-.5.2-.5.2-.8.5-1.1,1-.3.6-.6,1.1-1.1,1.5-.2.2-.3.4-.5.6-.2.2-.4.3-.6.4-.4,0-.9,0-1.3,0-.3,0-.6,0-.9.1-.9.3-1.7.7-2.4,1.3-.4.3-.8.7-1.2,1-.3.3-.6.6-.9.9-.7.7-1.6,1-2.6,1ZM30.7,57.7c0,0-.1,0-.2-.1,0,0,0-.1,0-.2,0,0,0-.1,0-.2,0,0,0,0,.1,0,0,0,.1,0,.2,0,0,0,.1,0,.2,0,0,0,0,0,0,.1h0c0,.2,0,.3,0,.3,0,0-.1,0-.2,0Z"/>
  <path class="st2" d="M59,14c-1.9-.3-3.8-.5-5.6-.6-1.9,0-3.7,0-5.6.2-1.8.2-3.7.6-5.5,1.1-1.8.5-3.6,1.1-5.3,1.8-1.7.7-3.4,1.6-5.1,2.5-1.6.9-3.2,1.9-4.7,3-1.5,1.1-3.1,2.2-4.5,3.4-11,8.2-15.2,22.5-12.5,42.9.2.4.6.5,1.2.3h0s0,0,.1,0c.4,0,.8-.6,1.1-1.7.1-.6.2-1,.3-1.3.1-.5.3-1,.4-1.3.1-.2.4-.4,1-.5.5,0,.9-.3,1-.7.3-.7.5-1.2.6-1.5,0-.2.2-.6.3-1.1,0-.4.3-.7.6-1,.2-.2.5-.4.9-.7.1-.1.4-.5.6-1.1.3-.6.4-1,.5-1.3.2-.9.7-1.6,1.6-2.2.3-.2.7-.5,1.3-.8.6-.4,1.1-.8,1.6-1.1.2-.2.6-.6,1.2-1.4.6-.7.9-1.1,1-1.3.3-.2.7-.4,1.3-.7.3-.1.7-.3,1.2-.5.8-.4,1.6-1,2.2-1.6.4-.4.8-.8,1.2-1.2.6-.6,1.2-1.3,1.7-2.1.2-.3.5-.6.8-.8.8-.5,1.6-.8,2.5-.9.5,0,1-.2,1.5-.4.5-.2.8-.5,1-1,0-.2.2-.4.3-.7.4-.8,1-1.4,1.7-1.8.7-.5,1.6-.7,2.5-.7.4,0,.7,0,1-.2.6-.2,1-.6,1.4-1,.4-.4.7-.9,1.1-1.3.6-.7,1.4-1.1,2.2-1.2.5,0,1,0,1.5.1.1,0,.2,0,.4.1,1,0,1.8-.3,2.6-1,.3-.3.6-.6.9-.9.4-.4.8-.7,1.2-1,.7-.6,1.5-1,2.4-1.3.3,0,.6-.1.9-.1.4,0,.8,0,1.3,0,.2,0,.4-.2.6-.4.1-.2.3-.4.5-.6.4-.5.8-1,1.1-1.5.2-.5.6-.8,1.1-1,.2,0,.3-.1.5-.2,0,0,0,0,0,0,.5-.1,1-.2,1.5-.3.5-.1.9-.4,1.2-.7.2-.2.3-.5.3-.7,0-.5.3-1,.7-1.3.2-.2.4-.3.6-.4.4-.2.8-.3,1.2-.2.3,0,.7,0,1.2-.5.4-.4.8-.7,1-.7.1,0,.5,0,.9.2.5,0,.9,0,1.3-.3.1,0,.2-.2.3-.3,0,0,0-.1,0-.2,0-.1,0-.3,0-.5,0,0-.2-.1-.3-.2,0,0-.1,0-.2-.1h0s0,0,0,0h0c-1.5-.8-3-1.5-4.5-2.1-1.7-.7-3.5-1.4-5.2-1.9-1.8-.5-3.6-1-5.5-1.3ZM40.8,17.4c2.5-.8,5.1-1.4,7.8-1.8,2.7-.4,5.5-.5,8.2-.4,2.6.1,5.2.5,7.8,1.1,2.6.6,5.1,1.6,7.5,2.8.6.3,1.3.7,1.9,1.1,0,0,0,0,0,0,0,0,0,0,0,0,0,0-.1.1-.2.2,0,0-.1,0-.2.1,0,0,0,0-.1,0,0,0-.1,0-.2,0,0,0-.2,0-.3,0s-.2,0-.2,0c0,0-.1,0-.2,0,0,0,0,0-.1,0,0,0,0,0-.1-.1,0,0-.1-.1-.2-.1,0,0-.1,0-.2-.1,0,0-.2,0-.3,0,0,0,0,0-.1,0,0,0,0,0-.1,0,0,0,0,0-.1,0,0,0,0,0-.1.1,0,0,0,0-.1.1,0,0,0,0-.1.1,0,0,0,0-.1.1,0,0,0,0-.1.1,0,0,0,0-.1.1,0,0,0,0-.1.1,0,0,0,0-.1,0,0,0,0,0-.1,0,0,0,0,0-.1,0,0,0,0,0-.1,0,0,0-.1,0-.2,0,0,0-.1,0-.2,0,0,0-.1,0-.2,0,0,0-.1,0-.2,0,0,0-.1,0-.2,0,0,0-.1,0-.2,0,0,0-.2,0-.2,0,0,0-.2,0-.2.1,0,0,0,0-.1,0,0,0,0,0-.1.1,0,0,0,0-.1.1,0,0-.1.1-.2.2,0,0-.1.1-.2.2,0,0,0,0,0,.1,0,0,0,0-.1.1,0,0,0,.1-.1.2,0,0,0,.2-.1.2h0s0,0,0,.1c0,0,0,.2-.1.2,0,0,0,.1-.1.2,0,0,0,.1,0,.2,0,0,0,.2-.1.2,0,0,0,.1-.1.2,0,0,0,0-.1.1,0,0,0,0,0,.1,0,0,0,0-.1.1,0,0,0,0-.1,0,0,0,0,0-.1.1,0,0,0,0-.1,0,0,0,0,0-.1,0,0,0,0,0-.1,0,0,0-.1,0-.2,0,0,0-.1,0-.2,0,0,0-.1,0-.2,0,0,0-.1,0-.2,0,0,0-.1,0-.2,0,0,0-.2,0-.3,0,0,0,0,0-.1,0,0,0-.1,0-.1,0,0,0,0,0-.1,0,0,0,0,0-.1,0,0,0,0,0-.1,0,0,0-.1,0-.2,0,0,0-.1,0-.2,0,0,0-.1,0-.2,0h-.3c0,0-.2,0-.2,0,0,0-.1,0-.2,0,0,0,0,0-.1,0,0,0-.1,0-.2,0,0,0,0,0-.1,0,0,0,0,0-.1,0,0,0,0,0-.1.1,0,0,0,0-.1.1,0,0,0,.2-.1.2,0,0,0,.2-.1.2,0,0,0,.1,0,.2,0,0,0,.1,0,.2,0,0,0,.1,0,.2,0,0,0,.1,0,.2,0,0,0,.1,0,.2,0,0,0,.1,0,.2,0,0,0,.1,0,.2,0,0,0,0,0,.1,0,0,0,0,0,.1,0,0,0,0,0,.1,0,0,0,0,0,.1,0,0,0,0,0,.1,0,0,0,0,0,.1,0,0,0,0-.1.1,0,0,0,0-.1.1,0,0,0,0-.1.1,0,0,0,0-.1,0,0,0,0,0-.1,0,0,0,0,0-.1,0,0,0,0,0-.1,0,0,0,0,0-.1,0,0,0,0,0-.1,0,0,0-.1,0-.1,0,0,0-.1,0-.2,0,0,0-.1,0-.2,0h-.3c0,0-.1,0-.2,0,0,0-.1,0-.2,0,0,0-.1,0-.2,0,0,0-.2,0-.3,0,0,0-.2,0-.2,0,0,0-.1,0-.2,0,0,0-.1,0-.2,0,0,0-.1,0-.2,0,0,0-.1,0-.2,0,0,0-.1,0-.2,0,0,0-.1,0-.2,0,0,0-.1,0-.2,0,0,0-.1,0-.2,0,0,0-.1,0-.2,0,0,0-.2,0-.2.1,0,0-.2,0-.2.1,0,0,0,0-.1,0,0,0,0,0-.1,0,0,0,0,0-.1,0,0,0,0,0-.1,0,0,0,0,0-.1,0,0,0,0,0-.1,0,0,0,0,0-.1,0,0,0,0,0-.1.1,0,0,0,0-.1.1,0,0,0,0,0,.1,0,0,0,0,0,.1,0,0,0,0,0,.1,0,0,0,0-.1.1,0,0,0,0,0,.1,0,0,0,0,0,.1,0,0,0,0-.1.1,0,0,0,0,0,.1,0,0,0,0-.1.1,0,0,0,0,0,.1,0,0,0,0,0,.1,0,0,0,.1,0,.2,0,0,0,0-.1.1,0,0,0,.1-.1.2,0,0,0,.1-.1.2,0,0,0,0-.1.1,0,0,0,0,0,.1,0,0,0,0,0,.1,0,0,0,0-.1.1,0,0,0,0-.1.1,0,0,0,0-.1.1s0,0-.1.1c0,0,0,0-.1.1,0,0,0,0-.1,0,0,0,0,0-.1,0,0,0,0,0-.1,0,0,0,0,0-.1,0,0,0-.1,0-.1,0,0,0-.1,0-.2,0,0,0-.1,0-.2,0,0,0-.1,0-.2,0,0,0,0,0,0,0-.2,0-.4,0-.7,0,0,0,0,0,0,0,0,0-.2,0-.3,0,0,0-.2,0-.2,0,0,0-.1,0-.2,0,0,0-.1,0-.2,0,0,0-.1,0-.2,0,0,0-.1,0-.2,0,0,0-.2,0-.2,0s-.1,0-.2,0c0,0-.2,0-.3,0,0,0-.1,0-.2,0,0,0-.1,0-.2,0,0,0-.1,0-.2.1,0,0-.1,0-.2.1,0,0-.2.1-.2.2,0,0-.1.1-.2.2,0,0-.1.1-.2.2,0,0-.1.1-.2.2,0,0-.1.1-.2.2,0,0-.1.1-.2.2,0,0-.1.1-.2.2,0,0-.1.1-.2.2,0,0-.1.1-.2.2,0,0-.1.2-.2.2,0,0-.1.1-.2.2,0,0-.1.1-.2.2,0,0-.1.1-.2.2,0,0-.1.1-.2.2,0,0-.1,0-.2.1,0,0-.1,0-.2.1,0,0-.1,0-.2.1,0,0-.2,0-.2.1,0,0,0,0-.1,0,0,0,0,0-.1,0,0,0,0,0-.1,0,0,0,0,0-.1,0,0,0,0,0-.1,0,0,0,0,0-.1,0h-.1c0,0-.2,0-.2,0s-.2,0-.2,0c0,0-.1,0-.2,0,0,0-.1,0-.2,0h-.2c0,0-.1,0-.2,0,0,0-.1,0-.1,0,0,0-.1,0-.1,0,0,0,0,0-.1,0,0,0-.2,0-.3,0,0,0-.1,0-.2,0,0,0-.2,0-.2.1,0,0,0,0-.1,0,0,0,0,0-.1,0,0,0-.1,0-.2,0,0,0-.1,0-.2,0,0,0-.1,0-.2.1,0,0-.2,0-.2.1,0,0,0,0-.1,0,0,0-.1.1-.2.2,0,0-.1.1-.2.2,0,0-.1.1-.2.2,0,0-.1,0-.1.2,0,0,0,.1-.1.2,0,0,0,.1-.1.2,0,0-.1.2-.1.2,0,0,0,.2-.1.2,0,0,0,0,0,.1,0,0,0,.2,0,.2,0,0,0,.1,0,.2,0,0,0,.1,0,.2,0,0,0,.2,0,.2,0,0,0,.2-.1.2-.4.6-.8.9-1.2.9-.6.1-1.1.2-1.7.2-.3,0-.6,0-.8,0-.4,0-.8,0-1.2.1-.3,0-.5.2-.7.4-.3.3-.5.7-.7,1.1-.2.4-.4.8-.6,1.3-.2.4-.3.7-.5,1-.2.4-.5.7-.8,1.1-.3.3-.7.6-1,.9-.4.3-.8.5-1.2.6-.4.1-.8.2-1.2.3-.5,0-.9.1-1.4.2-.4,0-.8.2-1.2.4-.4.2-.6.6-.6,1,0,.2,0,.5-.1.7-.1.4-.3.8-.5,1.1-.3.4-.6.7-.9,1-.3.3-.6.5-1,.7-.3.2-.7.3-1.1.4-.5,0-.9.3-1.2.6-.3.3-.6.6-.7,1.1-.2.4-.2.8-.2,1.2,0,.4,0,.8,0,1.2,0,.4-.2.8-.5,1.1-1,.3-1.6.6-1.8.8-.2.2-.3.7-.2,1.5.1.7,0,1.2-.1,1.5-.2.2-.5.4-.8.5-.3.1-.7.2-1.1.4-.4,0-.7.3-.8.5-.1.2-.3,1-.4,2.3,0,1.1-.3,1.8-.7,2.1-1.7-9.3-1.3-17.7,1-25,1-2.4,2.1-4.8,3.4-7.1,1.2-2.3,2.8-4.3,4.6-6.2,1.9-1.9,3.9-3.7,6.2-5.2,2.3-1.6,4.7-3,7.2-4.2,2.3-1.2,4.7-2.1,7.1-2.9Z"/>
  <path class="st0" d="M48.6,15.6c-2.6.4-5.2,1-7.8,1.8-2.5.8-4.8,1.8-7.1,2.9-2.5,1.3-4.9,2.7-7.2,4.2-2.2,1.5-4.3,3.2-6.2,5.2-1.8,1.9-3.3,3.9-4.6,6.2-1.3,2.3-2.4,4.7-3.4,7.1-2.3,7.3-2.7,15.6-1,25,.4-.3.6-.9.7-2.1.1-1.3.3-2.1.4-2.3.1-.2.4-.4.8-.5.4-.1.8-.2,1.1-.4.3-.1.6-.3.8-.5.2-.2.3-.7.1-1.5-.1-.7,0-1.2.2-1.5.2-.2.8-.5,1.8-.8.4-.3.5-.6.5-1.1,0-.4,0-.8,0-1.2,0-.4,0-.8.2-1.2.2-.4.4-.8.7-1.1.4-.3.8-.5,1.2-.6.4,0,.7-.2,1.1-.4.4-.2.7-.4,1-.7.3-.3.6-.6.9-1,.2-.3.4-.7.5-1.1,0-.2,0-.4.1-.7,0-.4.3-.8.6-1,.4-.2.8-.4,1.2-.4.5,0,.9-.1,1.4-.2.4,0,.8-.2,1.2-.3.4-.1.8-.3,1.2-.6.4-.3.7-.5,1-.9.3-.3.6-.7.8-1.1.2-.3.4-.7.5-1,.2-.4.4-.8.6-1.3.2-.4.4-.8.7-1.1.2-.2.4-.3.7-.4.4-.1.8-.1,1.2-.1.3,0,.5,0,.8,0,.5,0,1.1,0,1.7-.2.4,0,.8-.3,1.2-.9,0,0,0-.2.1-.2,0,0,0-.2,0-.2,0,0,0-.1,0-.2,0,0,0-.1,0-.2,0,0,0-.2,0-.2,0,0,0,0,0-.1,0,0,0-.2.1-.2,0,0,0-.1.1-.2,0,0,0-.1.1-.2,0,0,0-.1.1-.2,0,0,0-.1.1-.2,0,0,.1-.1.2-.2,0,0,.1-.1.2-.2,0,0,.1-.1.2-.2,0,0,0,0,.1,0,0,0,.2,0,.2-.1,0,0,.1,0,.2-.1,0,0,.1,0,.2,0,0,0,.1,0,.2,0,0,0,0,0,.1,0,0,0,0,0,.1,0,0,0,.2,0,.2-.1,0,0,.1,0,.2,0,0,0,.2,0,.3,0,0,0,0,0,.1,0,0,0,0,0,.1,0,0,0,0,0,.1,0,0,0,.1,0,.2,0h.2c0,0,.1,0,.2,0,0,0,.1,0,.2,0,0,0,.2,0,.2,0s.2,0,.2,0h.1s0,0,.1,0c0,0,0,0,.1,0,0,0,0,0,.1,0,0,0,0,0,.1,0,0,0,0,0,.1,0,0,0,0,0,.1,0,0,0,.2,0,.2-.1,0,0,.1,0,.2-.1,0,0,.1,0,.2-.1,0,0,.1,0,.2-.1,0,0,.1-.1.2-.2,0,0,.1-.1.2-.2,0,0,.1-.1.2-.2,0,0,.1-.1.2-.2,0,0,.1-.1.2-.2,0,0,.1-.2.2-.2,0,0,.1-.1.2-.2,0,0,.1-.1.2-.2,0,0,.1-.1.2-.2,0,0,.1-.1.2-.2,0,0,.1-.1.2-.2,0,0,.1-.1.2-.2,0,0,.1-.1.2-.2,0,0,.1-.1.2-.2,0,0,.1,0,.2-.1,0,0,.1,0,.2-.1,0,0,.1,0,.2,0s.1,0,.2,0c0,0,.2,0,.3,0,0,0,.1,0,.2,0s.2,0,.2,0c0,0,.1,0,.2,0,0,0,.1,0,.2,0,0,0,.1,0,.2,0,0,0,.1,0,.2,0,0,0,.2,0,.2,0,0,0,.2,0,.3,0,0,0,0,0,0,0,.3,0,.5,0,.7,0,0,0,0,0,0,0,0,0,.1,0,.2,0,0,0,.1,0,.2,0,0,0,.1,0,.2,0,0,0,0,0,.1,0,0,0,0,0,.1,0,0,0,0,0,.1,0,0,0,0,0,.1,0,0,0,0,0,.1,0,0,0,0,0,.1-.1,0,0,0,0,.1-.1,0,0,0,0,.1-.1,0,0,0,0,.1-.1,0,0,0,0,.1-.1,0,0,0,0,0-.1,0,0,0,0,0-.1,0,0,0,0,.1-.1,0,0,0-.1.1-.2,0,0,.1-.1.1-.2,0,0,0,0,.1-.1,0,0,0-.1,0-.2,0,0,0,0,0-.1,0,0,0,0,0-.1,0,0,0,0,.1-.1,0,0,0,0,0-.1,0,0,0,0,.1-.1,0,0,0,0,0-.1,0,0,0,0,0-.1,0,0,0,0,.1-.1,0,0,0,0,0-.1,0,0,0,0,0-.1,0,0,0,0,0-.1,0,0,0,0,.1-.1,0,0,0,0,.1-.1,0,0,0,0,.1,0,0,0,0,0,.1,0,0,0,0,0,.1,0s0,0,.1,0c0,0,0,0,.1,0,0,0,0,0,.1,0,0,0,0,0,.1,0,0,0,.1,0,.2-.1,0,0,.1,0,.2-.1,0,0,.1,0,.2,0,0,0,.1,0,.2,0,0,0,.1,0,.2,0,0,0,.1,0,.2,0,0,0,.1,0,.2,0,0,0,.1,0,.2,0,0,0,.1,0,.2,0,0,0,.1,0,.2,0,0,0,.1,0,.2,0,0,0,.2,0,.2,0,0,0,.2,0,.3,0,0,0,.1,0,.2,0,0,0,.1,0,.2,0,0,0,.1,0,.2,0h.3c0,0,.1,0,.2,0,0,0,.1,0,.2,0,0,0,0,0,.1,0,0,0,0,0,.1,0,0,0,0,0,.1,0,0,0,0,0,.1,0,0,0,0,0,.1,0,0,0,0,0,.1,0,0,0,0,0,.1,0,0,0,0,0,.1-.1,0,0,0,0,.1-.1,0,0,0,0,.1-.1,0,0,0,0,0-.1,0,0,0,0,0-.1,0,0,0,0,0-.1,0,0,0,0,0-.1,0,0,0-.1,0-.1,0,0,0,0,0-.1,0,0,0-.1,0-.2,0,0,0-.1,0-.2,0,0,0-.1,0-.2,0,0,0-.1,0-.2,0,0,0-.1,0-.2,0,0,0-.1,0-.2,0,0,0-.1,0-.2,0,0,0-.2.1-.2,0,0,0-.2.1-.2,0,0,0,0,.1-.1,0,0,0,0,.1-.1,0,0,0,0,.1,0,0,0,0,0,.1,0,0,0,.1,0,.2,0s0,0,.1,0c0,0,.1,0,.2,0,0,0,.2,0,.2,0h.3c0,0,.1,0,.2,0,0,0,.1,0,.2,0,0,0,.1,0,.2,0,0,0,0,0,.1,0,0,0,0,0,.1,0,0,0,0,0,.1,0,0,0,0,0,.1,0,0,0,0,0,.1,0,0,0,.2,0,.3,0,0,0,.1,0,.2,0,0,0,.1,0,.2,0,0,0,.1,0,.2,0,0,0,.1,0,.2,0,0,0,.1,0,.2,0,0,0,0,0,.1,0,0,0,0,0,.1,0,0,0,0,0,.1,0,0,0,0,0,.1-.1,0,0,0,0,.1,0,0,0,0,0,.1-.1,0,0,0,0,0-.1,0,0,0,0,.1-.1,0,0,.1-.1.1-.2,0,0,0-.2.1-.2,0,0,0-.1,0-.2,0,0,0-.1.1-.2,0,0,0-.2.1-.2,0,0,0,0,0-.1h0c0,0,0-.1.1-.2,0,0,0-.1.1-.2,0,0,0,0,.1-.1,0,0,0,0,0-.1,0,0,.1-.1.2-.2,0,0,.1-.1.2-.2,0,0,0,0,.1-.1,0,0,0,0,.1-.1,0,0,0,0,.1,0,0,0,.1,0,.2-.1,0,0,.2,0,.2,0,0,0,.1,0,.2,0,0,0,.1,0,.2,0,0,0,.1,0,.2,0,0,0,.1,0,.2,0,0,0,.1,0,.2,0,0,0,.1,0,.2,0,0,0,0,0,.1,0,0,0,0,0,.1,0,0,0,.1,0,.1,0,0,0,0,0,.1,0,0,0,0,0,.1-.1,0,0,0,0,.1-.1,0,0,0,0,.1-.1,0,0,0,0,.1-.1,0,0,0,0,.1-.1,0,0,0,0,.1-.1,0,0,0,0,.1-.1,0,0,0,0,.1,0,0,0,0,0,.1,0,0,0,0,0,.1,0,0,0,.2,0,.3,0,0,0,.1,0,.2.1,0,0,.2,0,.2.1,0,0,0,0,.1.1,0,0,0,0,.1,0,0,0,.1,0,.2,0,0,0,.2,0,.2,0s.2,0,.3,0c0,0,.1,0,.2,0,0,0,0,0,.1,0,0,0,.1,0,.2-.1,0,0,.1-.1.2-.2,0,0,0,0,0,0,0,0,0,0,0,0-.6-.4-1.2-.7-1.9-1.1-2.4-1.2-4.9-2.2-7.5-2.8-2.6-.6-5.2-1-7.8-1.1-2.8,0-5.5,0-8.2.4Z"/>
  <path class="st2" d="M11.9,47.7c-1,4.7-.6,9.6,1.2,14.7-.8-4.6-1.2-9.5-1.2-14.7ZM15.1,55.8c.6,2.4.9,2.6.8.4-1.3-8.1-1.3-15.7.1-22.8-2.3,6.4-2.6,13.9-.9,22.5ZM21.3,50.3c.4,1.5.7,1.4.9-.3-2.1-9.5-2.5-17-1-22.4-2.6,4.2-2.5,11.8.1,22.7ZM35.4,38.2c.3.5.6.8,1,.9.2,0,.4,0,.6-.2,0,0,0-.1.1-.2,0,0,0-.1,0-.2,0-.2-.1-.5-.4-.9-2.9-4.4-5.9-9.3-9-14.9,1.8,4.8,4.3,10,7.7,15.4ZM24.3,29.2c.2.7.6,2.2,1.2,4.4.6,2.2,2.1,5.7,4.5,10.5.5.7.7.5.6-.6-2-5.9-4.3-11.7-7-17.3.4,1.4.6,2.4.8,3.1ZM67,20.9c0-.2-.2-.4-.5-.7-7.6-3.7-13.9-5.5-18.8-5.5,6.6,1.1,12.8,3.3,18.4,6.4.2,0,.3,0,.5,0,.3,0,.5,0,.5-.2ZM52,30.9v-.2c0-.2-.3-.6-.7-1.2-7-6.7-11.9-10.2-14.9-10.5,4.3,1.8,9.1,5.5,14.3,11.2.7.5,1.2.7,1.4.7ZM58.5,26.4c1.8,1,2,.8.7-.6-5.5-5.1-11.7-8.3-18.5-9.6,7.7,3.2,13.6,6.6,17.7,10.2ZM43.3,33.2c.8.7,1.1.5.8-.4-4-5.9-8.5-9.9-13.5-12.2,5.1,3.4,9.4,7.6,12.7,12.6Z"/>
  <path class="st2" d="M34.4,40.3v-.3c-.2-.3-.7-.5-1.3-.6-.6,0-1.4,0-2.3,0-1.8.2-3.7.8-5.8,1.7-2.3,1-4.1,2.2-5.5,3.6-.3.3-.6.6-.8.9-.2.3-.3.7-.2.9,0,.4.4.7,1,.9.5.2,1,.3,1.6.4.4,0,.9,0,1.7,0,.2,0,.4,0,.5,0,0,0,.1,0,.1,0,0,0,0,0,0-.1,0,0,0,0-.2-.1-.9,0-1.5-.1-2-.2-.7,0-1.2-.2-1.6-.4-.3-.1-.5-.3-.5-.5,0,0,0-.2.2-.4.4-.5,1-1,1.6-1.4.5-.3,1.1-.7,1.9-1,1.6-.8,3.1-1.4,4.5-1.8,1.6-.5,3.2-.9,4.7-1.1.7,0,1.1-.1,1.2-.2.5,0,.8-.2,1.2-.3ZM47.9,26.3c-.4.3-.8.6-1.2.9-.3.2-.6.5-.8.7-.2.2-.4.3-.5.5-.3.3-.6.6-.8.8-.3.3-.6.7-.9,1-.5.6-1,1.2-1.4,1.9-.5.8-.9,1.6-1.1,2.5l.2.2c.1-.1.3-.2.4-.4.1-.1.3-.3.4-.5.1-.2.3-.3.4-.5.1-.2.3-.4.4-.5.1-.2.3-.3.5-.5.1-.1.2-.3.4-.4.1-.2.3-.3.4-.5.1-.2.3-.3.4-.5.2-.2.3-.3.5-.5.2-.2.3-.3.5-.5.2-.2.3-.3.5-.5.2-.1.3-.3.5-.4.2-.1.3-.3.5-.4.2-.1.3-.3.5-.4.2-.1.4-.3.6-.4,0,0,.2-.1.2-.2.2-.1.4-.3.5-.4.2-.1.3-.2.5-.4.2-.1.3-.2.5-.3.2-.1.3-.2.5-.3.2-.1.3-.2.5-.3.2-.1.3-.2.5-.3.2,0,.3-.2.5-.3.2,0,.3-.2.5-.3.2-.1.4-.2.6-.3.2-.1.4-.2.6-.3.1,0,.2,0,.3-.1.2,0,.4-.2.6-.2,0,0,.1,0,.2,0,.1,0,.3,0,.4,0,0,0,0,0,0,0,0,.2,0,.3,0,.5,0,.2,0,.5-.1.7,0,.2-.1.4-.2.6,0,.2-.2.4-.3.6-.1.2-.2.4-.3.6-.1.2-.2.4-.4.6-.1.2-.2.3-.3.5-.1.2-.2.4-.4.5-.1.2-.3.4-.4.6-.1.2-.2.4-.3.5-.1.2-.2.4-.3.5,0,.2-.2.4-.3.6,0,0,0,.1,0,.1,0,0,.1,0,.2,0,.1-.1.3-.2.4-.4.2-.2.4-.5.6-.7.2-.3.4-.6.7-.9.2-.3.4-.5.6-.8.1-.2.3-.4.4-.6.2-.3.4-.6.6-.9.1-.3.3-.5.4-.8.1-.2.2-.5.3-.7.1-.3.2-.7.2-1.1,0-.3,0-.5,0-.8,0-.3-.3-.6-.6-.7-.2,0-.4-.1-.7-.1-.4,0-.7,0-1,.2-.4.1-.9.3-1.3.5-.9.4-1.7.8-2.6,1.3-.7.5-1.5.9-2.1,1.5Z"/>
  <path class="st2" d="M35.5,48.4c.3-.3.5-.7.7-1,.1-.2.3-.4.4-.6.1-.2.3-.5.5-.9,0-.2.2-.3.2-.5,0,0,0-.2,0-.2,0,0,0-.1-.3-.1h-.2c-.2.2-.6.4-1.2.8-.8.6-1.6,1.4-2.2,2.1-.7.8-1.4,1.6-2,2.5-.6.8-1.2,1.6-1.7,2.5-.5.9-1.1,1.7-1.8,2.4-.8.8-1.7,1.2-2.8,1.1,0-.1,0-.2,0-.4,0-.2,0-.4.1-.6,0-.1,0-.2.1-.3,0-.2.2-.5.2-.7.2-.5.5-1.2,1-2.2.5-1,1-1.9,1.5-2.7.6-.8.8-1.2.6-1.3-.1,0-.2,0-.3,0-.3.3-.5.5-.7.8-.4.6-.8,1.3-1.2,1.9-.3.5-.6,1-.8,1.5-.2.5-.5,1-.7,1.5-.2.5-.4,1.1-.6,1.7,0,.3,0,.6,0,.9,0,.1.1.2.2.3.3,0,.6.1.9.1.2,0,.4,0,.6,0,.8-.2,1.5-.6,2.1-1.1.6-.5,1.1-.9,1.6-1.5.6-.6,1.1-1.1,1.7-1.7.4-.4.8-.9,1.2-1.3.4-.4.8-.9,1.2-1.3.5-.6,1-1.2,1.5-1.8ZM56.4,34.3c-1.1.2-2.1.5-3.2.8-.2,0-.4.1-.6.2-.2,0-.4.1-.6.2-1,.2-2,.6-2.9,1v.2c.2,0,.4,0,.6-.1.3,0,.6-.1,1-.2.7-.2,1.3-.3,2-.5.9-.2,1.8-.4,2.7-.7.2,0,.4,0,.7-.1.9-.2,1.9-.4,2.9-.5.2,0,.4,0,.6.1,0,0,0,0,0,0,0,0,0,.1-.1.1-.3.2-.6.5-1,.6-.6.3-1.2.6-1.9.8-.6.2-1.2.4-1.9.6-.9.2-1.9.5-2.8.6-.6.1-1.3.2-1.9.4-.1,0-.3,0-.4,0-1.5.3-2.9.5-4.4.8-.4,0-.8.2-1.1.3-.2,0-.4.2-.6.3h-.2c0,.1,0,.1,0,.2,0,.2,0,.3.2.5.2.2.8.2,1.8,0,1-.1,2.1-.3,3.2-.5,1.3-.2,2.6-.4,3.9-.6,1.1-.2,2.1-.5,3.1-.9.8-.3,1.5-.6,2.2-.9.8-.3,1.5-.8,2.1-1.3.2-.2.4-.4.5-.6,0-.2.1-.4.1-.6,0-.1,0-.2-.1-.3-.1-.2-.4-.3-.6-.3-.3,0-.6,0-1,0-.7,0-1.5.2-2.2.3Z"/>
  <path class="st2" d="M12.8,64.1s0,.1,0,.2c0,.2-.1.4,0,.6,0,.1,0,.2.1.2,0,0,.1-.1.1-.2h0c0-.2,0-.4,0-.6,0,0,0,0,0-.1,0,0,0,0,0-.1,0,0-.1,0-.2,0ZM13.4,63.3s0,0-.1,0c0,0-.1,0-.2,0,0,0,0,0-.1.2,0,0,0,.1,0,.2,0,0,.1,0,.2,0,.1,0,.2,0,.3,0,0,0,.1-.2,0-.3,0,0-.1-.1-.2-.1ZM15.9,60.3c0,0,.2,0,.2-.2,0,0,0,0,0-.2,0,0,0,0,0-.1,0,0-.2,0-.3,0-.1,0-.1.2-.1.3,0,0,0,.1,0,.1,0,0,0,0,.1,0h0ZM34.1,41.6c-.2,0-.4.1-.6.3-.2.2-.3.3-.3.6,0,0,0,0,0,.1,0,0,0,0,.1,0,0,0,.2,0,.3,0,0,0,.2,0,.3-.2,0,0,.2,0,.3,0,.1,0,.2,0,.3-.1,0,0,.1-.1.2-.2,0,0,0-.1,0-.2,0,0,0-.1-.1-.1-.1,0-.2,0-.4,0ZM39.6,38.4c-.1,0-.2.2-.2.2l-.2.3s0,0,0,.1c0,0,0,0,0,0,0,0,0,0,.1,0,0,0,0,0,.2-.2,0,0,.1-.1.2-.2,0,0,.2-.2.2-.3,0,0,0-.1,0-.2,0,0-.1,0-.2,0,0,0-.1,0-.2.1ZM30.2,21.7c.7-.4,1.3-.8,1.7-1.1.1,0,.2-.2.1-.3,0,0-.1,0-.2,0-1.2.5-2.3,1.1-3.6,1.8-1,.6-2.1,1.4-3.3,2.3-.6.5-1.1.9-1.4,1.2-.3.3-.6.6-.9.9-.2.2-.2.3-.1.5,0,0,.2,0,.4,0,2.1-1.7,3.9-3.1,5.5-4.1.1,0,.7-.4,1.8-1.1ZM17.4,31.1c-.3.4-.7,1-1.1,1.7-.8,1.2-1.4,2.3-1.9,3.2-.1.3-.2.5-.3.7,0,.2-.2.5-.2.7,0,0,0,.1,0,.2,0,0,0,0,.1.1,0,0,.1,0,.2-.2.9-1.6,1.6-2.8,2.2-3.7.8-1.3,1.6-2.5,2.3-3.6.2-.3.3-.4.4-.6.1-.2.2-.4.2-.6-.2,0-.5.3-.8.6-.4.4-.8,1-1.3,1.6ZM62.1,26.3c0,.2,0,.3,0,.4s0,.2,0,.3c0,0,0,0,0,0,0,0,0,0,0,0,0,0,.2-.2.2-.3v-.2c.2-.2.2-.4.2-.5v-.2c.2-.2.3-.3.4-.4.1,0,.2-.2.2-.2,0,0,0-.1,0-.2,0,0,0,0-.1-.1-.1,0-.2,0-.3,0,0,0-.1,0-.2.1-.1.1-.2.2-.3.3,0,0-.1.2-.2.3,0,.1,0,.3-.1.4ZM47,14.4c.1,0,.2-.1.2-.2,0,0-.1,0-.2,0-.9.1-2,.4-3.4.9-1.6.5-3.3,1.1-4.9,1.7-.9.3-1.6.6-2.2.9-.8.4-1.4.7-2,1.1-.1,0-.2.2-.2.3,0,0,0,.1.2.1,0,0,.2,0,.2,0,.7-.3,1.8-.7,3.2-1.3,1.2-.5,2.3-.9,3.3-1.2.7-.2,1.6-.6,3-1,1.2-.4,2.1-.8,2.9-1.1Z"/>
  <path class="st2" d="M19.1,68.3c0,.2,0,.3.1.4,0,0,.2.2.4.2.2,0,.3,0,.4,0,.2,0,.3,0,.4-.2,0,0,0-.2,0-.3,0-.2,0-.4-.1-.5-.1-.2-.3-.3-.5-.3-.1,0-.3,0-.5.2-.2,0-.3.2-.3.3,0,0,0,.2,0,.3ZM35.6,78.9c0,0,0-.2,0-.3,0-.1,0-.2,0-.3,0-.1,0-.2-.2-.3,0,0-.2,0-.3,0-.2,0-.3,0-.4,0-.2,0-.3.2-.3.4,0,.2,0,.3.1.5.1.2.2.3.4.3,0,0,.2,0,.3,0,.2,0,.3-.1.3-.2ZM39.8,87.6c-.2,0-.3.2-.4.3,0,.2-.1.4-.1.6,0,.2,0,.4.2.6.1.2.3.3.4.3.1,0,.3,0,.5,0,.2,0,.4-.2.5-.4,0-.2,0-.4,0-.7-.1-.4-.3-.6-.5-.7-.1,0-.3,0-.5,0ZM52.6,79.6c0-.1-.2-.2-.3-.2-.1,0-.2,0-.3,0-.1,0-.2.1-.3.2,0,.1,0,.3,0,.4,0,.1.1.2.2.3.1,0,.2.1.4,0,.1,0,.2,0,.3-.1,0,0,.1-.1.1-.2,0-.1,0-.3-.1-.4ZM51.2,81.4c-.2.2-.3.4-.3.6,0,.2,0,.3,0,.5,0,.1.2.2.3.3.1,0,.3.1.4.2.3,0,.5,0,.7-.3.2-.2.3-.5.2-.8,0-.2,0-.4-.2-.6-.1-.2-.3-.3-.5-.3-.2,0-.4.1-.7.4ZM69,64.1c-.1,0-.3-.1-.4-.1-.2,0-.3,0-.4,0-.1,0-.3.2-.3.3,0,.1-.1.3-.1.5,0,.2,0,.3.1.4,0,.1.2.3.3.3.1,0,.3.1.5,0,.2,0,.3,0,.4-.2.2-.2.3-.4.3-.6,0-.1,0-.3,0-.4,0-.2-.2-.3-.3-.4ZM68.5,63.7c0,0,0-.2,0-.3,0-.1,0-.2-.1-.3,0,0-.2-.1-.3-.1-.2,0-.3,0-.5,0-.1,0-.2.2-.2.4,0,.1,0,.2,0,.3,0,0,.1.2.2.2,0,0,.2,0,.3,0,0,0,.2,0,.3,0,0,0,.2-.1.2-.2ZM75.6,70.1c0-.2,0-.3-.2-.5-.1-.2-.2-.3-.4-.4-.1,0-.3,0-.5,0-.2,0-.4,0-.5.2-.1.1-.2.2-.3.4,0,.2,0,.3,0,.5,0,.2.1.3.3.4.1.1.3.2.5.3.3,0,.6,0,.8-.2.1,0,.2-.2.3-.3,0-.1.1-.3,0-.4ZM50,46.8s0,0,.1-.1c0,0,0-.2,0-.2s0-.2-.1-.3c0,0-.2-.1-.2-.1s-.1,0-.2,0c-.1,0-.2,0-.2.1,0,.1,0,.2,0,.4,0,0,0,.1.1.2,0,0,.1,0,.2,0,0,0,.1,0,.2,0ZM47.1,46.5c-.1-.2-.3-.4-.5-.6l-.6-.2h-.2c.3.5.7.9,1.2,1.2v-.2c.1,0,0,0,0-.1ZM49,44.5c0-.2-.1-.3-.2-.5-.1-.1-.3-.2-.4-.3-.2,0-.3,0-.5,0-.2,0-.3.1-.4.3-.1.1-.2.3-.2.5,0,.2,0,.4.1.5,0,.1.2.3.4.3.3.1.5.1.7,0,.2,0,.3-.2.4-.4,0-.2,0-.3,0-.5ZM65.4,42.9c0-.2,0-.3-.2-.4-.1-.1-.3-.1-.5,0-.1,0-.2,0-.3.1,0,0-.1.1-.1.2,0,0,0,.2,0,.3,0,0,0,.2.2.2.1,0,.2.1.4,0,.1,0,.3,0,.4-.2.1-.1.2-.2.2-.4ZM63,40.5c-.1.1-.2.3-.2.5,0,.2,0,.4.1.6.1.2.3.3.5.4.2,0,.4,0,.6,0,.2,0,.4-.2.5-.3.1-.2.2-.4.2-.6,0-.2,0-.4-.2-.5-.1-.2-.3-.3-.5-.3-.2,0-.3,0-.5,0-.2,0-.3.1-.4.2ZM36,73.2c-.1,0-.2,0-.3.2,0,.1-.1.2-.1.4s0,.2,0,.2c0,0,.1.1.2.2,0,0,.2,0,.3,0,.2,0,.3-.1.4-.3,0-.2,0-.3,0-.5,0,0-.1-.1-.2-.2,0,0-.2,0-.2,0ZM34.5,71.9c0-.2-.2-.3-.4-.3,0,0-.2,0-.3,0-.1,0-.2.2-.3.3,0,.1,0,.3,0,.4,0,0,0,.2.2.3,0,0,.2.1.3.1s.2,0,.3,0c0,0,.2,0,.3-.2,0,0,.1-.2.2-.4,0-.1,0-.3,0-.4ZM12.2,58.1c-.2,0-.3.2-.4.3,0,.1-.1.3-.2.5,0,.1,0,.3,0,.5,0,.3,0,.5,0,.5,0,0,0,.2,0,.5,0,.2,0,.4,0,.5,0,.4.2.7.5.8.1,0,.3,0,.5,0,.2,0,.3-.1.5-.2.2-.1.3-.3.4-.6.1-.2.1-.5.1-.7,0-.2,0-.4-.2-.8-.1-.5-.3-.8-.5-1-.1-.2-.3-.3-.4-.4-.2,0-.4-.1-.5,0ZM12.9,57.1c0,0,0,.1,0,.2,0,0,0,.1,0,.2,0,.1.2.2.5.2,0,0,0,0,0,0,0,0,.2-.2.2-.3s0-.2-.1-.3c0,0-.1,0-.2,0h0c-.1,0-.3,0-.3.2ZM16.3,50.9c0-.2-.2-.3-.3-.4-.1-.1-.3-.2-.4-.2-.3,0-.7,0-1,.1-.2.2-.4.4-.6.7-.1.3-.2.5-.3.8,0,.3,0,.6.1.8.1.3.3.5.5.6.3.2.6.3,1,.3s.5,0,.7-.2c.2,0,.3-.2.4-.4,0-.2.1-.4.1-.6,0-.2,0-.4,0-.6,0-.1,0-.3-.1-.6,0-.2-.1-.4-.2-.5ZM17.8,41.4c0,0-.2-.1-.4-.2,0,0,0,0,0,0h0c0,0-.1,0-.2,0-.3.2-.4.3-.5.5,0,0,0,.2,0,.3,0,0,0,.2.2.2.1.1.3.1.5.1.1,0,.2,0,.2-.1,0,0,.1-.2.2-.3,0-.2,0-.4,0-.5ZM31.8,56.2c-.2,0-.4,0-.6,0-.1,0-.2.2-.3.3,0,.2,0,.4,0,.6,0,.1.2.2.3.3.1,0,.2.1.4.1.1,0,.3,0,.4-.1.1,0,.2-.2.2-.3,0-.1,0-.3,0-.4,0-.2-.2-.4-.4-.5ZM19,40.3c.2-.1.3-.3.3-.5,0-.2,0-.4,0-.6,0-.2-.1-.4-.2-.6-.1-.2-.3-.3-.4-.4-.3,0-.6,0-1,.2-.3.1-.5.3-.6.4,0,.1-.1.3-.1.6,0,.3,0,.6.2.7.2.3.6.4,1.2.4.3,0,.5,0,.6-.2ZM31.9,33.4c0,0,0,.1,0,.2,0,0,.2.2.3.2.1,0,.2,0,.3-.1,0,0,0-.1,0-.2,0,0,0-.2,0-.2,0-.2-.2-.2-.4-.3,0,0,0,0,0,0h0s0,0-.2,0c0,0-.2.1-.2.2,0,0,0,.2,0,.2ZM32.2,28.7c0-.2,0-.3,0-.5-.1-.1-.3-.2-.5-.2,0,0,0,0,0,0,0,0-.1,0-.2,0,0,0-.1,0-.1.2,0,.1,0,.3,0,.4,0,.1.2.2.3.3,0,0,.2,0,.2,0,0,0,.2,0,.2,0,0,0,.1-.1.1-.2ZM28.3,30.9c-.4,0-.7.2-.9.3-.2.2-.3.5-.3.8,0,.3.1.6.3.9.2.3.5.5.8.6.3,0,.6,0,.9-.2.2-.1.5-.3.6-.5.2-.2.3-.5.3-.7,0-.2,0-.5-.1-.7,0-.2-.2-.3-.4-.4-.3-.2-.7-.2-1.2-.2ZM63,19.4s0,0,0,0c0,0-.2,0-.2,0,0,0-.1.1-.1.2,0,0,0,.2,0,.3,0,0,0,.2.2.2.1,0,.2,0,.4,0,0,0,0,0,.2-.2,0,0,.1-.1.1-.2,0,0,0-.2,0-.2,0-.2-.2-.2-.4-.3ZM43.3,31.2c0-.4,0-.7-.1-1.1-.1-.4-.3-.7-.6-.9-.3-.2-.5-.4-.8-.4-.3,0-.6.1-.9.4-.2.2-.3.3-.4.4,0,0,0,.2,0,.5,0,.7,0,1.2.2,1.5.1.2.3.5.5.6.2.2.4.3.7.3.2,0,.4,0,.5,0,.2,0,.3-.2.5-.3.2-.2.4-.6.5-1ZM50.2,21.7c0-.2-.1-.5-.4-.8-.2-.2-.3-.3-.5-.4-.3-.2-.6-.2-.9-.1-.1,0-.3.1-.4.2-.1,0-.2.2-.3.4,0,.1,0,.3-.1.5,0,.3,0,.6.2.9.1.2.3.4.6.5.3.1.5.1.9,0,.3-.1.5-.3.7-.5.1-.2.2-.4.2-.6ZM62,17.8c-.1-.2-.3-.3-.5-.4-.2,0-.4-.1-.6-.1-.4,0-.7.1-1.1.4-.3.2-.5.4-.5.6,0,.2,0,.4,0,.7,0,.3,0,.6.1.8.1.3.3.5.5.6.2.1.5.1.8,0,.2,0,.4-.2.7-.4.4-.3.7-.7.9-1.1,0-.2,0-.4,0-.6,0-.2-.1-.4-.2-.6ZM52.1,21.8c0-.1,0-.2-.1-.3-.1-.1-.3-.2-.5-.2,0,0,0,0-.1,0,0,0-.2,0-.2.1,0,0-.1.1-.1.2,0,.2,0,.3.1.5,0,0,.1,0,.2.1,0,0,0,0,.1,0h.1c0,0,.1,0,.1,0,0,0,.2,0,.2-.2,0,0,.1-.2.1-.3Z"/>
  <path class="st2" d="M65.6,81.8c-.2-.1-.4-.2-.5-.2-.2,0-.4,0-.6,0-.2,0-.4.1-.5.3-.3.2-.5.5-.7.9-.2.5-.3,1-.3,1.4,0,.5.2,1,.5,1.3.2.2.6.4,1,.6.3.1.5.1.6,0,0,0,.1,0,.2,0,0,0,.1,0,.2-.1,0,0,.2-.1.5-.3.2-.1.4-.2.5-.3.2-.2.4-.5.4-.8,0-.3,0-.6,0-.9-.1-.5-.5-1-1-1.5-.2-.2-.3-.3-.5-.4ZM64.6,81.9c.1,0,.3,0,.4.1,0,0,.1,0,.2.2.1,0,.3,0,.4.1.2,0,.3.2.5.4.2.3.4.6.4,1.1,0,.3,0,.6,0,.8,0,.1-.1.3-.2.4,0,0,0,0,0,.1,0,.1-.2.2-.4.4l-.4.2c-.2.1-.4.2-.5.1,0,0-.1,0-.2-.1,0,0,0-.1-.1-.2,0,0,0-.1,0-.2,0,0-.2,0-.2-.1-.1,0-.3-.3-.4-.6-.1-.2-.2-.4-.2-.5,0-.2,0-.4,0-.5,0-.3.2-.6.6-.9,0-.1,0-.2,0-.3,0-.1,0-.2.2-.3,0,0,.2-.1.3-.1ZM38.3,61.3c-.3.1-.4.2-.5.4-.2.2-.2.6,0,1.1,0,.1,0,.2,0,.2,0,0,0,.1,0,.2,0,.1-.2.3-.2.4,0,.3,0,.5,0,.7,0,.2.2.4.4.6.2.2.4.4.6.5.4.2.8.3,1.2.3.4,0,.9,0,1.2-.3.2-.1.4-.2.5-.4,0,0,.1-.2.3-.4.1-.2.2-.3.2-.4,0,0,0-.2,0-.5,0-.2,0-.3,0-.4,0-.2,0-.4,0-.5,0-.2-.1-.4-.3-.6-.2-.3-.4-.5-.6-.7-.2-.1-.4-.3-.8-.4-.5-.2-1-.2-1.4-.1-.1,0-.3,0-.5.2ZM39.1,61.6c0,0,.1,0,.2,0,0-.1.2-.2.4-.2.1,0,.2,0,.3,0,0,0,.2.1.2.2,0,0,0,.2,0,.3,0,0,0,0,0,0,0,0,0,.2,0,.2.6.1,1,.3,1.2.7.1.2.2.4.2.7,0,.3-.1.5-.3.7,0,.1-.2.2-.4.3,0,0,0,.1-.1.2-.2.1-.4.2-.6.3-.5.2-1,.2-1.3.1-.2,0-.4-.2-.7-.4-.2-.2-.3-.3-.4-.4,0-.2-.1-.4,0-.5,0,0,0-.2,0-.3,0-.2,0-.4.1-.6,0-.2.2-.4.4-.5.1,0,.3-.2.5-.2h0c0-.1,0-.2,0-.2,0-.1,0-.2.2-.3ZM13.5,81.7c0-.2-.1-.3-.2-.4,0-.1-.2-.2-.4-.2-.1,0-.3,0-.4,0-.2,0-.4.1-.6.3-.2.2-.3.3-.3.4,0,.2,0,.4.1.6.1.2.3.4.4.4.2.1.4.1.6.1.2,0,.4-.1.5-.3.1-.1.2-.3.2-.5,0-.2,0-.3,0-.5ZM13.2,81.4c0,0,.1.2.2.3,0,.1,0,.2,0,.3,0,0,0,0,0,.1,0,.3-.1.4-.3.5,0,0-.2,0-.3,0h-.1c-.1,0-.2-.2-.2-.3,0,0,0-.2,0-.4,0-.2,0-.3,0-.3,0,0,0,0,.2-.1,0,0,0,0,0,0,0,0,.2-.1.3-.1.1,0,.2,0,.3,0ZM11.9,81.6c0,0,0,0,.1,0v.2c.2,0,.2.1.2.2,0,0,0,0,0,.1h0c0,0-.1,0-.2,0h0c0-.2,0-.2-.1-.3,0,0,0-.1,0-.2,0,0,0,0,0,0h0ZM4.7,46.4c-.2-.1-.4-.2-.7-.1-.1,0-.3,0-.4.1-.1,0-.2.2-.3.3,0,.2,0,.3,0,.5,0,.1,0,.2.1.3.1.2.3.3.6.4.2,0,.3,0,.5-.1.2,0,.3-.2.4-.4,0-.1.1-.3.1-.4,0-.2-.1-.4-.3-.6ZM4,47s0,0,0,0c0,0,.1-.1.2-.2,0,0,.2,0,.3,0,0,0,.2,0,.3.1,0,0,.1.2.1.3s0,.2-.2.3c0,0-.2.1-.3.1,0,0-.2,0-.2,0,0,0,0,0,0,0,0,0-.2,0-.2-.2,0-.1,0-.3,0-.4ZM6.9,45.3c-.1,0-.2,0-.4,0-.1,0-.2.1-.3.2v.2c-.2,0-.2.1-.3.2-.1.2-.1.4,0,.6,0,.1,0,.2.2.3.2.2.4.3.7.2.3,0,.5-.1.6-.3,0-.1.1-.3.1-.4,0-.1,0-.3-.1-.4-.1-.3-.3-.4-.5-.5ZM7.2,45.9c0,0,.1,0,.2.1,0,0,0,.2,0,.2s0,.2,0,.2c0,0-.1.1-.2.1,0,0-.2,0-.2,0,0,0-.2,0-.2-.1,0,0,0,0,0-.1,0,0,0,0,0,0,0,0,0,0,0,0,0,0,0,0,0-.1,0,0,0,0,0-.1,0,0,0,0,0,0,0,0,.1,0,.2-.1,0,0,.2,0,.2,0ZM1.1,41.3c-.2.1-.4.3-.5.6,0,.2-.1.4,0,.6,0,.2,0,.4.2.6.1.3.4.6.8,1,.5.4,1,.6,1.4.4.2,0,.4-.3.6-.7.1-.2.2-.4.3-.5,0-.2.1-.4.1-.6,0-.5-.3-.9-.7-1.2-.5-.3-.9-.5-1.4-.4-.3,0-.5,0-.7.2ZM1.4,41.7c.1-.1.3-.2.5-.2.3,0,.6,0,.9,0,.3.1.6.3.7.5.2.3.3.6.3.9,0,.2-.1.4-.3.6-.2.2-.4.3-.6.3-.2,0-.3,0-.4,0-.2,0-.4,0-.5,0-.3,0-.5-.1-.6-.4-.1-.2-.2-.4-.3-.7,0-.3,0-.5,0-.7,0-.2.1-.3.3-.4ZM77.1,37.3c-.2,0-.3.2-.5.4,0,.1-.2.4-.2.7,0,.2,0,.4,0,.5,0,.2.2.3.3.5,0-.2-.1-.4-.1-.7h0c0,0,0-.1,0-.1,0,0,0-.2,0-.2,0,0,0-.1.1-.2,0,0,0,0,0,0,0,0,0,0,0-.1.1-.1.4-.2.7-.3.1,0,.2,0,.3,0,0,0,.1,0,.2,0,.2,0,.3.1.4.3,0,.2.1.3.1.5,0,.2,0,.4-.1.6,0,.2-.2.3-.4.5,0,0-.1,0-.2.1,0,0,0,0,0,0,0,0,0,0,0,0,0,0,0,0,.1,0,.2,0,.3-.1.5-.3.1-.1.2-.3.3-.5.1-.4,0-.8-.1-1.1,0-.2-.2-.3-.4-.4-.1,0-.2-.1-.4-.1,0,0-.1,0-.2,0-.2,0-.4,0-.5.1ZM7,28c-.4,0-.8,0-1.1,0-.2,0-.4.2-.5.3-.3.2-.6.5-.8.7-.1.2-.2.3-.3.4,0,.1,0,.3,0,.5,0,0,0,.2,0,.4,0,.2,0,.3,0,.4,0,.2.1.4.3.6,0,0,.2.2.6.5,0,0,.2.2.6.5.2.2.4.4.6.5.1,0,.3.1.4.2,0,0,.2,0,.3,0,.3,0,.5,0,.7,0,.2,0,.4-.2.5-.4,0-.1.2-.3.3-.6h0c0,0-.1,0-.2,0,0,0,0,0-.1,0,0,0-.1,0-.2,0,0,0,0,0-.1.1-.2.2-.4.3-.7.3-.1,0-.3,0-.6,0s-.4,0-.6,0c-.2,0-.4-.2-.6-.5-.2-.2-.3-.5-.4-.7,0-.2-.1-.4-.1-.7s0-.3,0-.6c0,0,0,0,0,0l.3-.7c0,0,0-.1,0-.2h.1c0-.2,0-.2,0-.2.2,0,.4,0,.6,0,.6,0,1.1.2,1.4.5.2.2.4.4.5.6,0,0,0,0,.1,0,.2.1.3.3.4.5,0,.1,0,.3,0,.5,0,0,0,.1,0,.2,0,0,0,0,0,0,0-.1,0-.4,0-.7s0-.7,0-.9c0-.3-.3-.6-.6-.9-.2-.3-.4-.5-.6-.6-.2,0-.4-.2-.7-.2ZM5.1,29s0,0,.1,0c0,0,0,0,.1,0,0,0,0,0,0,0,0,0,0,.1,0,.2,0,0,0,.1-.1.1-.1.1-.2.3-.3.5,0,.1,0,.3,0,.6v.3c0,0,0,.2,0,.2,0,0,0,.1,0,.2,0,0,0,0-.1,0,0,0,0,0-.1,0,0,0-.1-.2-.1-.3,0,0,0-.2,0-.3,0-.5.1-.9.3-1.2,0,0,.1-.1.2-.2h.2ZM19.4,8.5c-.2-.4-.5-.7-.8-.8-.3-.1-.6-.1-1,0-.4.1-.7.4-.9.7-.2.3-.3.7-.3,1.1,0,.5.3,1,.9,1.5.2.2.4.3.6.4,0,0,0,0-.1-.1,0,0-.2-.2-.2-.3,0-.1-.1-.3-.1-.4-.1-.1-.2-.2-.3-.4,0-.1-.1-.2-.2-.4,0,0,0,0-.1,0,0,0,0-.1-.1-.2,0,0,0-.2,0-.3v-.2c0,0,.3-.5.3-.5,0-.1.2-.3.3-.3,0,0,.1,0,.2,0,0,0,0,0,0,0,0,0,0,0,0,0,.2,0,.4-.1.6,0,.2,0,.4.1.6.2.3.2.5.6.7,1,0,.1,0,.2,0,.3,0-.3,0-.7-.3-1.1ZM44.4,2c.2,0,.4-.1.7-.1.2,0,.4,0,.6.2,0,0,.2.1.3.3,0,0,0,0,0,0,0,0,0,0,0,0,.3.2.5.6.6,1.1,0,.3,0,.6,0,.8,0,.3-.3.6-.6.9,0,0-.2.1-.2.2,0,0,0,0,0,0-.1.2-.3.4-.6.4,0,0,0,0-.1,0,.3,0,.5,0,.8-.2.5-.2.9-.7,1.1-1.3.2-.6.2-1.2,0-1.7-.1-.3-.3-.5-.5-.7-.2-.2-.5-.3-.8-.4-.3,0-.7,0-1.2.2-.5.2-.8.4-1,.6-.2.3-.3.7-.3,1.3,0,.5,0,.9.2,1.2.2.4.6.7,1.1.9,0,0,0,0,.1,0,0,0,0,0-.1,0-.1,0-.2-.2-.3-.4,0-.1,0-.2,0-.4,0,0-.1-.1-.2-.2-.3-.4-.4-.7-.5-.9,0-.2,0-.4,0-.6,0,0,0,0,0-.1,0-.2,0-.3,0-.4,0,0,0-.2.2-.2,0-.1.1-.2.2-.2,0,0,.2-.1.3-.2ZM69.5,6.4s0,0,0,0c0,.1-.1.3-.3.4-.1.1-.3.2-.4.2,0,0,0,0,0,0,0,0-.2.1-.3.1,0,0,0,0,0,0,0,0,.2,0,.3,0,.1,0,.2,0,.3,0,.2-.1.4-.3.4-.6,0,0,0-.1,0-.1ZM69.2,5.5s0,0,0,0c-.1-.1-.3-.2-.5-.2s-.4,0-.5.2c-.1.1-.3.3-.3.4,0,.2,0,.4,0,.6,0,.2,0,.3.1.4,0,0,0,0,0,0,0,0,0-.2.1-.2,0,0,0,0,0,0,0,0,0,0,0,0,0-.1,0-.3,0-.4,0,0,0,0,0,0,0,0,0,0,0,0,0,0,0,0,0-.1,0,0,0-.1,0-.2,0-.2.2-.3.4-.3.1,0,.2,0,.4,0,0,0,.2,0,.3,0,0,0,.1,0,.2,0ZM90.1,55.4c.2-.3.3-.6.4-.9,0-.3,0-.6,0-1-.1-.6-.5-1.1-1.2-1.5-.3-.2-.5-.3-.8-.3-.3,0-.6,0-.8.1-.2,0-.3.3-.4.5,0,.1-.1.4-.2.6-.1.3-.2.6-.2.8,0,.3,0,.6,0,.8,0,.3.3.6.6.9.6.6,1.1.8,1.6.7.4,0,.7-.3,1-.7ZM90.3,54.4c0,.4-.2.7-.4.9-.2.1-.4.2-.6.3-.2,0-.4,0-.7,0-.3,0-.5-.1-.7-.3-.2-.1-.3-.4-.4-.7,0-.2-.1-.5-.1-.7,0,0,0,0-.1,0,0,0-.1,0-.1-.1,0,0,0,0,0-.2h0c0-.1,0-.2,0-.3,0-.1,0-.3,0-.4,0-.1.1-.2.3-.2.1,0,.3,0,.4,0,0,0,0,0,.1,0,.2,0,.4-.1.6-.2.3,0,.6,0,.8.1.3.1.5.3.7.6.2.3.2.6.2,1ZM86.4,43.7c0-.1-.1-.3-.2-.5,0-.2-.2-.3-.3-.4,0,0-.1-.1-.2-.2,0,0-.2-.1-.2-.1-.2-.2-.4-.3-.5-.4-.2,0-.4-.1-.6-.1-.2,0-.4,0-.6,0-.2,0-.4.1-.6.2-.4.2-.7.5-.8.8-.1.3-.2.6-.2.9,0-.1,0-.2.2-.3,0,0,0,0,0,0,0-.2.2-.3.4-.3,0,0,.1,0,.2,0,.2-.2.3-.4.5-.5.3-.2.6-.3.9-.3.3,0,.6,0,.9.2,0,0,0,0,0,0,0,0,.1,0,.2.1.1.1.3.3.4.4l.3.5c0,0,0,.2.1.5,0,.1,0,.2,0,.3,0,.3,0,.6-.3.9-.2.2-.3.4-.5.4,0,0,0,0,0,0h0c-.2.2-.4.3-.6.4-.3.1-.5.1-.8,0-.3,0-.6-.2-.9-.5-.2-.2-.4-.4-.5-.7,0-.2-.1-.4-.1-.6,0,0,0,0,0,0,0,0,0,0-.1-.1,0,0,0,.2,0,.3v.2c0,0,0,.1,0,.2s0,.3,0,.4c0,.1,0,.2,0,.3,0,0,0,.2.2.3.2.2.4.4.6.5.1,0,.3.1.6.2.2,0,.3,0,.5,0,.1,0,.3,0,.5-.1.6-.3,1-.7,1.4-1.2.1-.2.2-.4.2-.5,0-.1,0-.3,0-.5,0-.3,0-.6,0-.8ZM86.3,24.5c-.3-.2-.7-.2-1-.2-.3,0-.5.1-.7.2-.2.2-.4.4-.4.8,0,.2,0,.5,0,.9,0,.3.1.6.2.8.1.3.3.5.4.7.2.1.3.2.5.2.2,0,.4,0,.6,0,.2,0,.4-.2.6-.4.2-.2.4-.4.5-.6.1-.2.2-.5.1-.8,0-.3,0-.6-.2-.8-.1-.3-.4-.6-.7-.7ZM84.5,25.1c0,0,.2,0,.2.1,0,0,0,.1.1.2,0-.2,0-.4.2-.6.2-.2.4-.3.6-.3.2,0,.5,0,.6.2.1.1.2.3.3.5,0,.1,0,.3.1.6,0,0,0,0,0,0,0,0,0,0,.1.2.1.3.2.5.1.6,0,.2-.2.3-.5.5-.3.2-.6.2-.8.1,0-.1.1-.2.3-.3h0c-.2,0-.3,0-.5-.1-.1,0-.3-.2-.4-.3-.2-.3-.3-.6-.3-.9,0,0,0,0,0,0,0,0,0,0,0,0,0,0,0,0,0,0,0,0,0,.1-.1.2h0c0,0-.1,0-.1,0,0,0,0,0-.1,0,0,0,0-.1,0-.2,0,0,0,0,0,0,0,0,0,0,0,0,0-.1,0-.2,0-.3,0-.1.2-.2.3-.2Z"/>
  <path class="st2" d="M65.9,84.8c-.2,0-.5.2-.8.4,0,0-.1,0-.1,0,0,0,0,0,0,0,0,0,0,0,0,0,0,0-.2,0-.2,0,0,0,0,0,0,0,0,0,0,.1,0,.2,0,0,0,.2.1.2,0,0,.1.1.2.1.1,0,.3,0,.5-.1l.4-.2c.2-.1.4-.2.4-.4,0,0,0-.1,0-.1,0,0,0,0,0,0,0,0,0,0-.2-.1,0,0-.1,0-.2,0ZM38,63.7s0,0,0,0c0,.2,0,.3,0,.5,0,.1.2.3.4.4.2.2.5.4.7.4.4.1.8,0,1.3-.1.2,0,.4-.2.6-.3,0,0,.1-.1.1-.2,0,0,0,0,0-.1-.1,0-.3,0-.5,0,0,0-.2,0-.5.1-.1,0-.3,0-.5,0-.1,0-.2,0-.3,0-.2,0-.3,0-.5-.2-.1,0-.2-.2-.4-.4,0,0-.1-.1-.1-.2,0,0,0-.2,0-.2,0,0,0-.1-.1-.2,0,0-.1,0-.2,0,0,0-.1.1-.2.2ZM39.2,61.6s0,0,0,0c0,0-.1,0-.2,0-.1,0-.2.2-.2.3,0,0,0,.1,0,.2h0c0,.1,0,.2,0,.2,0,.1.1.2.3.3.1,0,.2,0,.4.1h.2c.2,0,.4-.1.5-.3h0c0-.2,0-.3,0-.4,0,0,0-.2,0-.2,0,0,0,0,0,0h0c0,.1,0,.2,0,.3,0,0-.1.2-.2.2,0,0-.2,0-.3,0-.2,0-.3-.1-.4-.2,0,0,0-.2,0-.3,0,0,0-.2,0-.3ZM12,81.6s0,0-.1,0h0s0,0,0,.1c0,0,0,0,0,.2,0,0,0,.2.1.2h0c0,.1.1.1.2.1h0c0,0,0-.1,0-.2,0,0,0-.1,0-.2v-.2ZM13.3,82h0c0-.1.1-.2,0-.3,0-.1,0-.2-.2-.3,0,0-.2,0-.3,0-.1,0-.2,0-.3.1,0,0,0,0,0,0,0,0,0,0,0,.1,0,0,0,0,0,0,0,0,.2,0,.3,0,0,0,.2,0,.2.1,0,0,0,.2,0,.3,0,0,0,.2-.1.2.1,0,.2,0,.3-.1ZM1.9,42.5c0,0,0,.1,0,.3,0,0,0,.2,0,.3,0,.2.2.4.4.5.1,0,.3.1.5.1.2,0,.3,0,.5-.1.2-.1.3-.3.4-.5,0-.2,0-.4,0-.6,0-.2-.2-.4-.4-.5-.2-.1-.4-.2-.6-.1-.1,0-.2,0-.4.2-.1.1-.2.2-.3.4ZM2.9,42.8c.1,0,.2,0,.2,0,0,0,0,.1.1.2,0,0,0,.2,0,.2,0,0-.1,0-.1.1-.1,0-.2,0-.3,0,0,0,0,0-.1,0h0c0,0,0-.2,0-.2h0c0-.2,0-.2.1-.3,0,0,.1,0,.2,0h0ZM76.5,38.4c0,0,0,.2,0,.2,0,0,0,0,0,0,0,0,0,.1.1.2,0,0,0,0,0-.1,0-.1,0-.2.2-.3,0,0,0,0,.1,0s.1,0,.2,0c0,0,.1.1.1.3s0,.1,0,.1c0,0,0,0,0-.1,0-.1,0-.2,0-.4,0,0-.1-.2-.2-.2,0,0-.2,0-.3,0,0,0-.1,0-.2,0,0,0,0,0,0,0,0,0,0,.1-.1.2ZM7,31.1c0-.2,0-.3.2-.4.1-.1.2-.2.4-.3.2,0,.3-.1.5,0,.2,0,.3.1.4.2.1.1.2.3.2.4,0,0,0,.1,0,.2,0-.2,0-.4,0-.5,0-.2-.2-.4-.4-.5,0,0,0,0-.1,0-.2,0-.4,0-.5,0-.2,0-.5.2-.8.4-.1.1-.2.2-.2.3,0,0,0,.2,0,.3,0,.2,0,.4,0,.5,0,0,.1.2.3.4.1.1.3.2.3.3.1,0,.3.1.4.1,0,0,.1,0,.2,0,0,0,.2,0,.2,0,0,0,0,0,.1,0,0,0,0,0,0,0-.2,0-.4,0-.6,0-.2,0-.4-.2-.5-.3,0-.1-.1-.3-.1-.5,0,0,0-.1,0-.2ZM5.2,28.9c0,0-.1,0-.1,0h-.2c0,.1-.1.2-.2.3-.2.3-.2.7-.3,1.2,0,.1,0,.2,0,.3,0,.1,0,.2.1.3,0,0,0,0,.1,0,0,0,0,0,.1,0,0,0,0,0,0-.2,0,0,0-.1,0-.2v-.3c0-.3,0-.5.1-.6,0-.2.1-.4.3-.5,0,0,0,0,.1-.1,0,0,0-.1,0-.2,0,0,0,0,0,0,0,0,0,0-.1,0ZM18.5,9.4c-.2,0-.4,0-.6.1-.1,0-.2.2-.3.2,0,0,0,.2-.1.3,0,.2,0,.3,0,.4,0,0,0,0,0,0,0,.1,0,.2.1.4,0,.1.1.2.2.3,0,0,0,0,.1.1.2.1.4.2.6.2.3,0,.6-.2.7-.4,0,0,0-.2.1-.2.1-.2.1-.4.1-.6h0c0-.3-.2-.5-.4-.6-.2-.1-.4-.2-.6-.2ZM18.2,10.9s0,0,0,0c0-.1,0-.3,0-.4,0,0,.2-.2.3-.2,0,0,.2,0,.2,0,0,0,0,0,.1.2,0,0,0,.2,0,.2,0,.1,0,.2-.2.3-.1,0-.2,0-.4,0,0,0,0,0-.1,0h0c0,0,0-.1,0-.2ZM17.6,8.1s0,0,0,0c0,0-.1,0-.2,0-.1,0-.2.2-.3.3l-.2.5v.2c0,.1,0,.2,0,.3,0,0,0,.2.1.2,0,0,0,0,.1,0h0c0,0,0,0,.1,0,0,0,0,0,0-.1h0c0,0,0-.2,0-.2l.2-.4c0-.1.2-.3.2-.3,0,0,0-.1.1-.2,0,0,0,0,0-.1,0-.1,0-.2,0-.3,0,0,0,0-.1,0ZM44.4,4.1c0,0,0,.1-.1.2v.2c0,.1-.1.2-.1.4s0,0,0,0c0,.1,0,.2,0,.4,0,.1.2.3.3.4,0,0,0,0,.1,0,.2,0,.3,0,.5,0,0,0,0,0,.1,0,.2,0,.4-.2.6-.4,0,0,0,0,0,0,.1-.2.2-.4.2-.7,0-.2,0-.4-.2-.5,0-.1-.2-.3-.4-.3-.3,0-.5,0-.8.1,0,0-.1,0-.2.2ZM44.4,5.3c0-.2,0-.3,0-.5,0-.1.2-.2.3-.3,0,0,.1,0,.2,0s.2,0,.3,0c0,0,.2.1.2.2,0,0,0,.2,0,.3,0,.1,0,.2-.1.3h-.1c-.1.2-.3.2-.5.2-.2,0-.3-.1-.4-.3ZM45.1,1.9c-.2,0-.5,0-.7.1-.1,0-.2.1-.3.2,0,0-.1.1-.2.2,0,0-.1.2-.2.2,0,0,0,.2,0,.4,0,0,0,0,0,0,0,0,0,0,0,.1,0,0,0,0,0,0,0,0,0,0,.1,0,0,0,0-.1.2-.3,0-.1.2-.2.3-.3.2-.1.3-.2.5-.2.2,0,.4,0,.5.1l.4.2c.2,0,.3.2.5.2,0-.1-.2-.3-.3-.5,0,0,0,0,0,0-.1-.1-.2-.2-.3-.3-.2-.1-.4-.2-.6-.2ZM69.3,6.1s0,0,0-.1c0-.2-.2-.4-.4-.5,0,0-.1,0-.2,0-.1,0-.2,0-.4,0-.2,0-.4.1-.4.3,0,0,0,.1,0,.2,0,0,0,.1,0,.1,0,0,0,0,0,0,0,0,0,0,.1,0,0,0,0,0,.1,0,.1,0,.3,0,.5,0,0,0,.1,0,.2.1,0,0,.2,0,.2,0,0,0,0,0,.1,0ZM88,52.9s0,0-.1,0c-.1,0-.3,0-.4,0-.1,0-.2.1-.3.2,0,.1,0,.2,0,.4,0,0,0,.2,0,.2,0,0,0,0,0-.1,0,0,0-.1.1-.1,0,0,.1,0,.2,0,0,0,.1,0,.2,0,.1,0,.2.2.2.3,0,0,0,.2-.1.2,0,0,0,0,0,0,0,0,.1,0,.2,0,0,0,.2,0,.2-.2,0,0,0-.2.1-.3,0-.1,0-.3,0-.4,0,0,0-.2-.1-.2ZM89.8,54.7c.1-.1.2-.3.2-.5,0-.2,0-.4,0-.5,0-.2-.1-.3-.2-.5-.1-.1-.3-.2-.4-.3,0,0-.2,0-.2,0,0,0-.1,0-.1.1,0,0,0,.2.2.3.3.2.4.4.4.7,0,.2-.1.4-.3.6,0,.1-.2.2-.2.2,0,0-.2.2-.2.3,0,0,0,0,0,0,0,0,0,0,0,0,.1,0,.3,0,.5-.1.2-.1.4-.2.5-.4ZM83.6,43.7c0-.1,0-.2-.2-.3,0,0-.2-.1-.3-.2,0,0-.1,0-.2,0,0,0-.1,0-.2,0-.2,0-.4.2-.4.3,0,0,0,0,0,0,0,0,0,0,0,0,.1-.1.2-.2.3-.2.1,0,.3,0,.4.2,0,0,0,.1,0,.2,0,0,0,.1,0,.2,0,.2-.2.3-.3.4,0,0,0,0-.1,0,0,0,.1,0,.2,0,0,0,.2,0,.2,0,0,0,0,0,.1-.1,0,0,0,0,.1-.1,0,0,.2-.2.2-.2,0-.1,0-.2,0-.4ZM86.1,43.7l-.3-.5c0-.1-.2-.3-.4-.4,0,0-.1,0-.2-.1,0,0,0,0,0,0,0,0,0,0-.1,0,0,0,0,0,0,.2,0,0,0,.1,0,.2,0,0,0,0,.2.1,0,0,.2.2.3.4.1.2.2.4.2.6v.3s0,0,0,.2c0,.2-.2.5-.4.8,0,0,0,.1,0,.2h0s0,0,0,0c.2,0,.4-.2.5-.4.2-.3.3-.6.3-.9,0,0,0-.1,0-.3,0-.2,0-.4-.1-.5ZM86.8,26.1c0,0,0-.1-.1-.2,0,0,0,0-.1,0,0,0-.1,0-.1.2,0,0,0,.1,0,.2,0,.1,0,.3-.2.4,0,0-.1,0-.2.1-.1,0-.2.1-.2.1,0,0,0,0,0,0-.1,0-.2.2-.3.3.2,0,.5,0,.8-.1.3-.1.4-.3.5-.5,0-.1,0-.4-.1-.6ZM84.7,25.2c0,0-.1-.1-.2-.1-.1,0-.2,0-.3.2,0,.1,0,.2,0,.3,0,0,0,0,0,0,0,0,0,0,0-.1,0,0,0,0,.1,0h0c0,0,.1,0,.2,0,0,0,0,0,0,.2,0,0,0,0,0,0,0,0,0,0,0,0,0,0,0,0,0,0,0,0,0-.1,0-.2h0c0,0,0-.2-.1-.2Z"/>
  <path class="st0" d="M65.3,83c0,.1-.2.2-.3.2-.1,0-.2,0-.4,0-.1,0-.2,0-.3-.2-.1-.1-.2-.3-.2-.5h0c-.4.3-.6.6-.6.9,0,.2,0,.3,0,.5,0,.1.1.3.2.5.2.3.3.5.4.6,0,0,.2.1.2.1,0,0,0,0,0,0,0,0,.1-.1.2,0,0,0,0,0,0,0,0,0,0,0,0,0,0,0,0,0,.1,0,.3-.2.6-.3.8-.4,0,0,.2,0,.2,0,0,0,.1,0,.2.1,0,0,0,0,0,0,.1-.1.2-.3.2-.4,0-.2,0-.5,0-.8,0-.5-.2-.8-.4-1.1-.1-.2-.3-.3-.5-.4-.1,0-.3,0-.4-.1,0,0,0,0,.1.2,0,.1.1.2.1.4,0,.1,0,.2,0,.3ZM39.6,62.8c-.1,0-.3,0-.4-.1-.1,0-.2-.2-.3-.3,0,0,0-.1,0-.2-.2,0-.3.1-.5.2-.2.1-.3.3-.4.5,0,.2-.1.4-.1.6,0,0,0,.2,0,.3,0,0,0,0,0,0,0-.1,0-.2.2-.2,0,0,.1,0,.2,0,0,0,0,0,.1.2,0,0,0,.1,0,.2,0,0,0,.1.1.2.2.2.3.3.4.4.2.1.3.2.5.2,0,0,.2,0,.3,0,.2,0,.3,0,.5,0,.3,0,.4-.1.5-.1.2,0,.3,0,.5,0,0,0,0,0,0,.1.1,0,.3-.2.4-.3.2-.2.3-.4.3-.7,0-.3,0-.5-.2-.7-.2-.4-.6-.6-1.2-.7,0,0,0,.2,0,.3h0c-.1.3-.3.4-.5.4h-.2ZM13.3,82h0c0,.1-.2.1-.3.1,0,0,0,0-.1,0,0,0-.2,0-.3,0-.1,0-.2-.2-.2-.3,0-.1,0-.2.1-.3,0,0,0,0,0-.1,0,0-.2,0-.2.1,0,0,0,.2,0,.3,0,.2,0,.3,0,.4,0,.2.1.3.2.3h.1c.1,0,.2,0,.3,0,.1,0,.2-.2.3-.5,0,0,0,0,0-.1ZM3.9,47.4c0,0,.1.2.2.2,0,0-.2-.2-.2-.3,0-.1,0-.2,0-.3-.1.1-.1.3,0,.4ZM6.7,46.1s0,0,0,.1c0,0,0,0,0,.1,0,0,0,0,0,0,0,0,0,0,0,0,0,0,0,0,0-.1,0,0,0-.2,0-.2,0,0,0,0,0,0,0,0,0,0,0,0ZM1.8,41.5c-.2,0-.3.1-.5.2-.1.1-.2.2-.3.4,0,.2,0,.4,0,.7,0,.3.1.6.3.7.2.3.4.4.6.4.1,0,.3,0,.5,0,0,0,.2,0,.4,0,.2,0,.4-.1.6-.3.2-.2.3-.4.3-.6,0-.3,0-.6-.3-.9-.2-.2-.4-.4-.7-.5-.3-.1-.6-.1-.9,0ZM1.9,42.8c0-.1,0-.2,0-.3,0-.1.1-.2.3-.4.1-.1.3-.2.4-.2.2,0,.4,0,.6.1.2.1.3.3.4.5,0,.2,0,.4,0,.6,0,.2-.2.4-.4.5-.1,0-.3.1-.5.1-.2,0-.3,0-.5-.1-.2-.1-.3-.3-.4-.5,0-.1,0-.2,0-.3ZM76.9,38.1c.1,0,.2,0,.3,0,0,0,.1.1.2.2,0,.1,0,.2,0,.4,0,0,0,0,0,.1,0,0,0,0-.1.1,0,0,0,0,0,0-.1,0-.2,0-.3,0,0,0-.1,0-.1-.1,0,0,0,0-.1-.2h0c0,.3,0,.6.1.7,0,0,0,.1.1.2.2.1.3.2.6.2.1,0,.2,0,.4,0,0,0,0,0,0,0,0,0,.1,0,.2-.1.2-.1.3-.3.4-.5,0-.2.1-.4.1-.6,0-.2,0-.4-.1-.5-.1-.2-.2-.3-.4-.3,0,0-.1,0-.2,0,0,0-.2,0-.3,0-.3,0-.6.2-.7.3,0,0,0,0,0,.1,0,0,.1,0,.2,0ZM5.6,29s0,0,0,0h-.1c0,.2,0,.2,0,.3l-.3.7s0,0,0,0c0,.3,0,.5,0,.6,0,.3,0,.5.1.7,0,.2.2.4.4.7.2.3.4.4.6.5.1,0,.3,0,.6,0s.4,0,.6,0c.2,0,.5-.1.7-.3,0,0,0,0,.1-.1,0,0-.1,0-.2,0-.2,0-.3,0-.4-.1,0,0-.2-.1-.3-.3-.2-.2-.3-.3-.3-.4,0-.1,0-.3,0-.5s0-.2,0-.3c0,0,.1-.2.2-.3.3-.3.5-.4.8-.4.2,0,.4,0,.5,0-.1-.2-.3-.4-.5-.6-.4-.3-.8-.4-1.4-.5-.3,0-.5,0-.6,0ZM18.3,7.9c-.2,0-.4,0-.6,0,0,0,0,0,0,0,0,0,0,0,.1,0,0,0,0,.2,0,.3,0,0,0,.1,0,.1,0,0,0,0-.1.2,0,0-.1.2-.2.3l-.2.4h0v.2s0,0,0,.1c0,0,0,0-.1,0h0c0,.1.1.2.2.4.1.2.2.3.3.4,0,0,0,0,0,0,0,0,0-.2,0-.4,0-.1,0-.2.1-.3,0,0,.1-.2.3-.2.2-.1.4-.1.6-.1.2,0,.4,0,.6.2.2.2.4.4.4.6,0,0,0,0,0,0,.1-.2.1-.4.1-.6,0-.1,0-.2,0-.3-.1-.5-.4-.8-.7-1-.2-.1-.4-.2-.6-.2ZM45.4,2.4c-.2,0-.4-.1-.5-.1-.2,0-.4,0-.5.2,0,0-.2.2-.3.3-.1.2-.2.3-.2.3,0,0,0,0-.1,0,0,0,0,0,0,0,0,0,0,0,0-.1,0,0,0,0,0,0,0,0,0,0,0,.1,0,.2-.1.4,0,.6,0,.2.2.6.5.9,0,0,.1.2.2.2,0,0,0,0,0,0,0-.1,0-.2,0-.4v-.2c0,0,.1-.1.2-.2,0,0,.1-.1.2-.2.2-.2.5-.2.8-.1.2,0,.3.2.4.3.1.1.2.3.2.5,0,.2,0,.5-.2.7,0,0,.2-.1.2-.2.4-.3.6-.6.6-.9,0-.2,0-.5,0-.8-.1-.5-.3-.9-.6-1.1,0,0,0,0,0,0,.1.2.3.3.3.5-.2,0-.3-.1-.5-.2l-.4-.2ZM69.3,6s0,0,0,.1c0,0,0,0-.1,0,0,0-.1,0-.2,0,0,0-.2,0-.2-.1-.2,0-.3-.1-.5,0,0,0-.1,0-.1,0,0,0,0,0-.1,0,0,0,0,0,0,0,0,.1,0,.3,0,.4,0,0,0,0,0,0,0,0,0,0,.2,0,.2,0,.3,0,.5,0,.2,0,.2.2.2.4,0,0,0,.1,0,.2.2,0,.3,0,.4-.2.1,0,.2-.2.3-.4,0,0,0,0,0,0,0-.1,0-.2,0-.3,0-.1,0-.3-.2-.4,0,0-.1-.1-.2-.2,0,0-.1,0-.2,0,0,0-.2,0-.3,0,0,0,.1,0,.2,0,.2.1.3.3.4.5ZM89.9,55.3c.3-.2.4-.5.4-.9,0-.4,0-.7-.2-1-.2-.3-.4-.5-.7-.6-.2,0-.5-.1-.8-.1-.3,0-.5,0-.6.2,0,0,.1.1.1.2,0,.1,0,.2,0,.4,0,.1,0,.2-.1.3,0,0-.1.1-.2.2,0,0-.1,0-.2,0,0,0-.1,0-.2,0,0,.2,0,.4.1.7,0,.3.2.5.4.7.2.2.4.3.7.3.2,0,.4,0,.7,0,.2,0,.4-.2.6-.3ZM90,54.2c0,.2-.1.3-.2.5,0,.1-.2.2-.5.4-.2.1-.3.2-.5.1,0,0,0,0,0,0,0,0,0,0,0,0,0,0,.1-.2.2-.3,0,0,.1-.1.2-.2.2-.2.3-.4.3-.6,0-.3-.1-.5-.4-.7-.1,0-.2-.2-.2-.3,0,0,0-.1.1-.1,0,0,.1,0,.2,0,.2,0,.3.2.4.3.1.1.2.3.2.5,0,.2,0,.3,0,.5ZM85.2,42.7c-.3-.2-.6-.2-.9-.2-.3,0-.6.1-.9.3-.1.1-.3.3-.5.5,0,0,.1,0,.2,0,.1,0,.2,0,.3.2,0,0,.2.2.2.3,0,.1,0,.3,0,.4,0,0,0,.1-.2.2,0,0,0,.1-.1.1,0,0,0,0-.1.1,0,0-.2,0-.2,0,0,0-.1,0-.2,0-.1,0-.2,0-.3,0,0,.2,0,.4.1.6.1.2.3.5.5.7.3.3.6.4.9.5.3,0,.5,0,.8,0,.2,0,.5-.2.6-.4,0,0,0,0,0-.2.2-.4.3-.6.4-.8,0,0,0-.1,0-.2v-.3c0-.1-.1-.3-.3-.6-.1-.2-.2-.3-.3-.4,0,0-.1-.1-.2-.1,0,0,0-.1,0-.2,0,0,0-.1,0-.2,0,0,0,0,.1,0ZM85.6,24.5c-.2,0-.5.1-.6.3-.1.2-.2.3-.2.6h0c0,0,0,.1,0,.2,0,.4,0,.7.3.9,0,.1.2.2.4.3.1,0,.3.1.5.1h0s0,0,0,0c0,0,0,0,.2-.1,0,0,.1,0,.2-.1.1-.1.2-.3.2-.4,0-.1,0-.2,0-.2,0-.1,0-.2.1-.2,0,0,0,0,.1,0,0,0,0,0,0,0,0-.3,0-.4-.1-.6,0-.2-.2-.4-.3-.5-.2-.2-.4-.2-.6-.2Z"/>
  <path class="st2" d="M65,82c-.1,0-.3-.1-.4-.1-.1,0-.2,0-.3.1,0,0-.2.2-.2.3,0,0,0,.2,0,.3h0c0,.2.1.4.2.5,0,0,.2.1.3.2.1,0,.2,0,.4,0,.1,0,.2-.1.3-.2,0-.1,0-.2,0-.3,0-.1,0-.2-.1-.4,0,0,0-.1-.1-.2,0,0-.1-.1-.2-.2ZM39.3,61.5s0,0,0,0c0,0,0,.2,0,.3,0,0,0,.2,0,.3,0,.1.2.2.4.2.1,0,.2,0,.3,0,0,0,.2-.1.2-.2,0,0,0-.2,0-.3h0c0-.1,0-.2,0-.3,0,0-.1-.2-.2-.2-.1,0-.2,0-.3,0-.2,0-.3.1-.4.2ZM13.1,81.9c0,0,0-.2,0-.3,0,0-.1-.1-.2-.1,0,0-.2,0-.3,0,0,0,0,0,0,0,0,0-.1.2-.1.3,0,.1,0,.2.2.3,0,0,.2,0,.3,0,0,0,0,0,.1,0,0,0,.1-.1.1-.2ZM4,46.9s0,0,0,0c0,0,0,.2,0,.3,0,.1,0,.2.2.3,0,0,0,0,0,0,0,0,.2,0,.2,0,0,0,.2,0,.3-.1.1-.1.2-.2.2-.3s0-.2-.1-.3c0,0-.2-.1-.3-.1,0,0-.2,0-.3,0,0,0-.1,0-.2.2ZM7.4,46c0,0,0-.1-.2-.1,0,0-.2,0-.2,0,0,0-.1,0-.2.1,0,0,0,0,0,0,0,0,0,.1,0,.2s0,0,0,.1c0,0,0,0,0,.1,0,0,.1.1.2.1,0,0,.2,0,.2,0,0,0,.1,0,.2-.1,0,0,0-.1,0-.2s0-.2,0-.2ZM3.1,42.9s0,0-.2,0h0c0,0-.1,0-.2,0,0,0,0,0-.1.1h0c0,.1,0,.2,0,.2h0c0,.1,0,.1.1.2,0,0,.1,0,.3,0,0,0,0,0,.1-.1,0,0,0-.1,0-.2,0,0,0-.1-.1-.2ZM76.9,38.4c-.1,0-.2.1-.2.3,0,0,0,.1,0,.1,0,0,0,.1.1.1,0,0,.2,0,.3,0,0,0,0,0,0,0,0,0,0,0,.1-.1,0,0,0,0,0-.1,0-.1,0-.2-.1-.3,0,0-.1,0-.2,0s-.1,0-.1,0ZM7.4,30.5c-.2,0-.3.2-.3.4,0,.1,0,.3,0,.4s0,.4.1.5c0,.1.2.2.5.3.3,0,.5,0,.6,0,0,0,0,0,0,0,0,0,.1,0,.2-.1h0c0-.1.2-.2.2-.4,0-.1,0-.2,0-.3,0,0,0-.2,0-.2,0,0,0-.1,0-.2,0,0,0,0,0-.1-.1-.2-.2-.3-.4-.4-.1,0-.3,0-.4,0-.1,0-.3,0-.4.1ZM18.2,10.9s0,0,0,0c0,0,0,0,0,0h0s0,0,0,0c0,0,0,0,0,0,0,0,0,0,0,0,0,0,0,.2,0,.2h0s0,0,.1,0c.1,0,.3,0,.4,0,.1,0,.2-.2.2-.3s0-.2,0-.2c0,0,0-.1-.1-.2,0,0-.1,0-.2,0-.1,0-.2,0-.3.2,0,0-.1.2,0,.4ZM68.2,6.4c0,0-.1,0-.2,0,0,0,0,0,0,0,0,0-.1.2-.1.2,0,0,0,0,0,0,0,0,0,0,0,.1,0,0,0,.1.2.2.1,0,.3,0,.4,0,0,0,0,0,0,0,.1,0,.2,0,.3-.1,0,0,0,0,0,0,0,0,0-.1,0-.2,0-.2,0-.3-.2-.4-.1,0-.3,0-.5,0ZM87.4,53.3c0,0-.1,0-.2,0,0,0,0,0-.1.1,0,0,0,0,0,.1h0c0,.1,0,.2,0,.2,0,0,0,0,.1.1,0,0,0,0,.1,0,0,0,.2,0,.2,0,0,0,0,0,0,0,0,0,.1-.1.1-.2,0-.2,0-.3-.2-.3,0,0-.1,0-.2,0ZM82.7,43.5c-.1,0-.2,0-.3.2,0,0,0,0,0,0-.1,0-.2.2-.2.3,0,0,0,.2,0,.3,0,0,0,0,0,.1,0,0,0,0,.1.1,0,0,0,0,0,0,0,0,.2,0,.3,0,0,0,0,0,.1,0,.2,0,.3-.2.3-.4,0,0,0-.1,0-.2,0,0,0-.1,0-.2-.1-.1-.2-.2-.4-.2ZM84.7,25.7s0,0,0,0c0,0,0-.1,0-.2,0,0-.1,0-.2,0h0s0,0-.1,0c0,0,0,0,0,.1,0,0,0,0,0,0,0,0,0,.1,0,.2,0,0,0,0,.1,0,0,0,0,0,.1,0h0c0,0,.1-.1.1-.2,0,0,0,0,0,0Z"/>
  <path class="st2" d="M7.2,30.6c-.1.1-.2.3-.2.4,0,0,0,.2,0,.2,0-.2,0-.3,0-.4,0-.1.2-.3.3-.4.1,0,.3-.1.4-.1.1,0,.3,0,.4,0,.1,0,.3.2.4.4,0,0,0,0,0,.1,0-.2,0-.3-.2-.4-.1-.1-.2-.2-.4-.2-.1,0-.3,0-.5,0-.1,0-.3.2-.4.3ZM44.4,4.8c0,.2,0,.3,0,.5,0,.2.2.3.4.3.2,0,.3,0,.5-.1h.1c0-.2,0-.3.1-.4,0-.1,0-.2,0-.3,0,0-.1-.2-.2-.2,0,0-.2,0-.3,0s-.2,0-.2,0c-.1,0-.2.2-.3.3Z"/>
  <path class="st2" d="M18.2,10.8s0,0,0,0c0,0,0,.1,0,.2h0s0,0,0,0c0,0,0-.1,0-.2,0,0,0,0,0,0,0,0,0,0,0,0h0s0,0,0,0Z"/>
</svg>