<?xml version="1.0" encoding="UTF-8"?>
<svg id="Layer_1" xmlns="http://www.w3.org/2000/svg" version="1.1" xmlns:xlink="http://www.w3.org/1999/xlink" viewBox="0 0 91 90">
  <!-- Generator: Adobe Illustrator 30.0.0, SVG Export Plug-In . SVG Version: 2.1.1 Build 123)  -->
  <defs>
    <style>
      .st0 {
        mask: url(#mask-5);
      }

      .st1 {
        mask: url(#mask-1);
      }

      .st2 {
        stroke-width: 0px;
      }

      .st2, .st3, .st4 {
        stroke-linecap: round;
        stroke-linejoin: round;
      }

      .st2, .st3, .st4, .st5 {
        fill: #403f3e;
        stroke: #403f3e;
      }

      .st6 {
        mask: url(#mask-6);
      }

      .st7 {
        mask: url(#mask-7);
      }

      .st8 {
        fill: #fff;
      }

      .st9 {
        mask: url(#mask);
      }

      .st10 {
        mask: url(#mask-2);
      }

      .st3 {
        stroke-width: .2px;
      }

      .st4 {
        stroke-width: .1px;
      }

      .st11 {
        mask: url(#mask-4);
      }

      .st5 {
        stroke-miterlimit: 10;
      }

      .st12 {
        mask: url(#mask-3);
      }
    </style>
    <mask id="mask" x="32.6" y="1" width="41" height="88.1" maskUnits="userSpaceOnUse">
      <g id="mask0_1853_6988">
        <path class="st8" d="M73.6,1h-20.7s-18.5,88-18.5,88h20.1c0,0,19-88,19-88Z"/>
      </g>
    </mask>
    <mask id="mask-1" x="21.9" y="30.9" width="36.7" height="46.2" maskUnits="userSpaceOnUse">
      <g id="mask1_1853_6988">
        <path class="st8" d="M50.6,50.7s0,0,0,0c0,0,.2,0,.4.4.2.3.5.5.7.6.3,0,.6-.1.9-.5,0-.3,0-.5-.2-.7-.2-.3-.4-.4-.7-.5-.3,0-.5,0-.8.1-.2.1-.4.3-.4.6ZM50.6,50.6s0,0,0,0l1,1.7,1.1-.8c0-.2,0-.3,0-.5-.3.4-.7.5-.9.5-.2,0-.4-.2-.7-.6-.2-.3-.3-.4-.4-.4ZM30.1,33.7c0,.4-.3,1-.8,1.7-.1.2-.6.9-1.6,2.1-1,1.4-2,2.9-2.7,4.5-2.4,4.9-3.4,10.2-3,15.7.3,3.2,1.1,6.1,2.4,8.7,1.2,2.4,2.8,4.4,4.8,6.1,1.8,1.6,3.8,2.8,6,3.6,2.1.8,4,1.1,5.9,1,3.2-.1,5.8-1.6,7.7-4.4.7-1,1.3-2.2,1.7-3.4.4-1,.5-1.9.6-2.7.5-.4.9-.6,1.2-.9.5-.4.9-.9,1.2-1.4,1-1.5,1.7-3.8,2.1-7.2.2-.9.4-1.5.8-1.8,0,0,.3-.2.5-.3.2-.1.4-.2.5-.4.3-.1.6-.4.8-.8.2-.4.3-.8.3-1.2,0-.4-.2-.7-.5-.9-.4-.2-.9-.1-1.5.2-.6.3-.9.5-1.1.6-.2.1-.4.5-.7,1-.1.2-.2.3-.2.2,0,0,0-.3.1-.6.2-.8.4-1.4.7-1.9.1-.2.1-.5,0-.8,0-.3-.2-.6-.5-.7-.3-.2-.6-.2-.9-.1-.4.1-.8.5-1.2,1.1,0,0-.1.2-.2.2,0,.1,0,.3,0,.5l-1.1.8-1-1.7c0,.1-.1.6-.2,1.3,0,1.2,0,2.2.4,2.9.1.2.1.4.1.4,0,.1-.2.3-.5.6-.4.2-.8,0-1.2-.6-.1-.2-.3-.4-.4-.6v-.3c-.6-.6-1.1-1.1-1.6-1.7-1.1-1.2-2-1.9-2.5-2l.8-14.2,1-4.6-17-.9c.5,1.1.7,2.1.5,2.8Z"/>
      </g>
    </mask>
    <mask id="mask-2" x="17.2" y="26.4" width="41.4" height="54.7" maskUnits="userSpaceOnUse">
      <g id="mask2_1853_6988">
        <path class="st8" d="M50.6,50.7s0,0,0,0c0,0,.2,0,.4.4.2.3.5.5.7.6.3,0,.6-.1.9-.5,0-.3,0-.5-.2-.7-.2-.3-.4-.4-.7-.5-.3,0-.5,0-.8.1-.2.1-.4.3-.4.6ZM50.6,50.6s0,0,0,0l1,1.7,1.1-.8c0-.2,0-.3,0-.5-.3.4-.7.5-.9.5-.2,0-.4-.2-.7-.6-.2-.3-.3-.4-.4-.4ZM30.1,33.7c0,.4-.3,1-.8,1.7-.1.2-.6.9-1.6,2.1-1,1.4-2,2.9-2.7,4.5-2.4,4.9-3.4,10.2-3,15.7.3,3.2,1.1,6.1,2.4,8.7,1.2,2.4,2.8,4.4,4.8,6.1,1.8,1.6,3.8,2.8,6,3.6,2.1.8,4,1.1,5.9,1,3.2-.1,5.8-1.6,7.7-4.4.7-1,1.3-2.2,1.7-3.4.4-1,.5-1.9.6-2.7.5-.4.9-.6,1.2-.9.5-.4.9-.9,1.2-1.4,1-1.5,1.7-3.8,2.1-7.2.2-.9.4-1.5.8-1.8,0,0,.3-.2.5-.3.2-.1.4-.2.5-.4.3-.1.6-.4.8-.8.2-.4.3-.8.3-1.2,0-.4-.2-.7-.5-.9-.4-.2-.9-.1-1.5.2-.6.3-.9.5-1.1.6-.2.1-.4.5-.7,1-.1.2-.2.3-.2.2,0,0,0-.3.1-.6.2-.8.4-1.4.7-1.9.1-.2.1-.5,0-.8,0-.3-.2-.6-.5-.7-.3-.2-.6-.2-.9-.1-.4.1-.8.5-1.2,1.1,0,0-.1.2-.2.2,0,.1,0,.3,0,.5l-1.1.8-1-1.7c0,.1-.1.6-.2,1.3,0,1.2,0,2.2.4,2.9.1.2.1.4.1.4,0,.1-.2.3-.5.6-.4.2-.8,0-1.2-.6-.1-.2-.3-.4-.4-.6v-.3c-.6-.6-1.1-1.1-1.6-1.7-1.1-1.2-2-1.9-2.5-2l.8-14.2,1-4.6-17-.9c.5,1.1.7,2.1.5,2.8Z"/>
      </g>
    </mask>
    <mask id="mask-3" x="41.3" y="7.3" width="13.6" height="14.2" maskUnits="userSpaceOnUse">
      <g id="mask3_1853_6988">
        <path class="st8" d="M49.1,8.5c-.7-.2-1.3-.3-1.8-.1-1,.3-1.8.7-2.3,1.4-.6.8-1,2-1.3,3.6l.3,1c.3.8.6,1.6.8,2.3.9,2.3,1.6,3.5,2,3.8.7.3,1.6.6,2.8.9,1.3.2,2.3.3,2.9,0,.3-.1.7-.4,1-.8.3-.4.6-1,.8-1.6.5-1.5.5-3.1,0-4.9-.3-.9-.7-1.8-1.3-2.6-.6-.7-1.2-1.4-2-1.9-.7-.5-1.4-.9-2.2-1.1Z"/>
      </g>
    </mask>
    <mask id="mask-4" x="18.3" y="15.1" width="14.2" height="15.5" maskUnits="userSpaceOnUse">
      <g id="mask4_1853_6988">
        <path class="st8" d="M21.3,16.9c-.5.2-.9.5-1.3,1.1-.4.6-.8,1.3-1.1,2.1-.3.9-.5,1.8-.5,2.7,0,1,.1,2,.4,2.9.6,1.7,1.6,3,2.9,3.9.5.4,1.1.6,1.6.8.5.1.9.2,1.3,0,.6-.2,1.4-.7,2.3-1.7.8-.9,1.4-1.6,1.7-2.3.2-.5,0-1.9-.6-4.3-.2-.7-.4-1.5-.7-2.4l-.3-1c-1.1-1.2-2.2-1.9-3.1-2.1-.8-.2-1.7-.1-2.6.2Z"/>
      </g>
    </mask>
    <mask id="mask-5" x="25.6" y="11.6" width="23.4" height="24.2" maskUnits="userSpaceOnUse">
      <g id="mask5_1853_6988">
        <path class="st8" d="M48.4,22.3c-.4-1.3-.9-2.3-1.5-3,.2-.9.3-1.9,0-2.9-.2-1.2-.7-2.1-1.5-2.9-.9-.9-2.2-1.5-3.8-1.8-1.8-.3-4.1,0-6.7.6-2.6.7-4.7,1.7-6.3,2.9-1.4,1.1-2.3,2.4-2.8,3.8-.4,1.3-.4,2.5,0,3.7.4,1.2,1,2,2,2.7.4,3,1.4,5.3,2.9,7.1,2.4,2.8,6,3.5,10.7,2.2,2.5-.7,4.4-1.8,5.7-3.4,1.1-1.3,1.7-2.8,1.8-4.6,0-1.4-.1-2.9-.6-4.5Z"/>
      </g>
    </mask>
    <mask id="mask-6" x="28" y="26.7" width="36.4" height="27.2" maskUnits="userSpaceOnUse">
      <g id="mask6_1853_6988">
        <path class="st8" d="M60.6,27.9c0-.3-.2-.6-.5-.8-.3-.2-.6-.4-.9-.4-.4,0-.7.1-1,.4-.4.5-.9,1-1.4,1.6-.5.7-.9,1.2-1.2,1.4-.4.4-.8.5-1.2.4-.1,0-.3-.1-.4-.2h-.2c-.5-.6-1.1-1.1-1.8-1.7-.4-.3-.8-.5-1.2-.5-.4,0-.6.1-.9.4-.2.2-.3.5-.3.8,0,.3.2.6.5.9,1.8,1.4,2.3,2.3,1.4,2.9-2.9,2-5.9,3.2-9,3.6-2,.2-3.8.2-5.5-.3-1.2-.3-2.2-.4-3-.2-1.1.2-2.2,1-3.4,2.2l-.5.8c-.4.7-.6,1.4-.8,2.1-.4,2.3.5,4.3,2.9,6,7.3,4.4,13.1,4.3,17.6-.2,1.3-1.3,2.5-3.1,3.8-5.5.8-1.4,1.2-2.1,1.2-2.2.4-.6.6-1,.9-1.1.8-.3,1.6-.8,2.4-1.4.4-.3.7-.6.9-.8l1.2-.3c1-.2,2-.4,2.9-.5.5,0,.9-.2,1.1-.5.2-.3.2-.6,0-1-.1-.3-.3-.6-.6-.9-.3-.3-.6-.4-.9-.3-.5,0-1.2.1-2.1.2h-1.2c0,.1,1-.3,1-.3.8-.3,1.5-.6,2.2-1,.4-.2.6-.5.7-.8,0-.3,0-.6-.1-1-.2-.3-.4-.6-.7-.7-.3-.2-.7-.1-1,0-.6.3-1.4.7-2.3,1.3l-1.2.8-.2-.3,2.4-2.3c.3-.3.4-.6.3-.9Z"/>
      </g>
    </mask>
    <mask id="mask-7" x="29.3" y="26.7" width="35" height="24.9" maskUnits="userSpaceOnUse">
      <g id="mask7_1853_6988">
        <path class="st8" d="M60.6,27.9c0-.3-.2-.6-.5-.8-.3-.2-.6-.4-.9-.4-.4,0-.7.1-1,.4-.4.5-.9,1-1.4,1.6-.5.7-.9,1.2-1.2,1.4-.4.4-.8.5-1.2.4-.1,0-.3-.1-.4-.2h-.2c-.5-.6-1.1-1.1-1.8-1.7-.4-.3-.8-.5-1.2-.5-.4,0-.6.1-.9.4-.2.2-.3.5-.3.8,0,.3.2.6.5.9,1.8,1.4,2.3,2.3,1.4,2.9-2.9,2-5.9,3.2-9,3.6-2,.2-3.8.2-5.5-.3-1.2-.3-2.2-.4-3-.2-1.1.2-2.2,1-3.4,2.2l-.5.8c-.4.7-.6,1.4-.8,2.1-.4,2.3.5,4.3,2.9,6,7.3,4.4,13.1,4.3,17.6-.2,1.3-1.3,2.5-3.1,3.8-5.5.8-1.4,1.2-2.1,1.2-2.2.4-.6.6-1,.9-1.1.8-.3,1.6-.8,2.4-1.4.4-.3.7-.6.9-.8l1.2-.3c1-.2,2-.4,2.9-.5.5,0,.9-.2,1.1-.5.2-.3.2-.6,0-1-.1-.3-.3-.6-.6-.9-.3-.3-.6-.4-.9-.3-.5,0-1.2.1-2.1.2h-1.2c0,.1,1-.3,1-.3.8-.3,1.5-.6,2.2-1,.4-.2.6-.5.7-.8,0-.3,0-.6-.1-1-.2-.3-.4-.6-.7-.7-.3-.2-.7-.1-1,0-.6.3-1.4.7-2.3,1.3l-1.2.8-.2-.3,2.4-2.3c.3-.3.4-.6.3-.9Z"/>
      </g>
    </mask>
  </defs>
  <path class="st5" d="M73.6,1h-20.7s-18.5,88-18.5,88h20.1c0,0,19-88,19-88Z"/>
  <path class="st2" d="M34.5,89L52.9,1h20.7s-19,88.1-19,88.1h-20.1Z"/>
  <g class="st9">
    <g>
      <path class="st5" d="M55.1,62.5c.5-2.4.8-4.7.8-6.8-4.1,5.3-6.2,8.1-6.3,8.3,0,.1-.5.9-1.5,2.4-.5.8-.9,1.5-1.4,2.2l-10.4,4.7-3.4,5.5v.5c.2.4.4.8.5,1.1.6,1,1.4,1.5,2.5,1.2.4,0,1.2-.2,2.5-.4,1.2-.2,2.2-.4,3.1-.7,2.6-.7,4.5-1.9,5.6-3.5,1-1.4,2.1-3.1,3.4-5.2,1.2-2,2.1-3.2,2.5-3.8.8-.7,1.5-2.6,2.1-5.7ZM40.8,49.9l-.4.9c-.2.7-.3,1.3-.2,1.7.3,1.5,2.2,1.5,5.5,0,3.4-1.4,6.1-3.9,7.9-7.4.6-1.2,1.2-2.5,1.7-4,.5-1.5.8-2.5.9-3v-1.8c0,0-5.1,2.7-5.1,2.7l-4.7,6.1-5.7,4.7Z"/>
      <path class="st2" d="M56.4,38.2c-.2.5-.5,1.5-.9,3-.5,1.5-1.1,2.8-1.7,4-1.9,3.5-4.5,5.9-7.9,7.4-3.4,1.4-5.2,1.4-5.5,0,0-.5,0-1,.2-1.7l.4-.9,5.7-4.7,4.7-6.1,5.2-2.7v1.8ZM56,55.8c0,2.1-.4,4.3-.8,6.8-.6,3.1-1.3,5-2.1,5.7-.4.6-1.2,1.8-2.5,3.8-1.3,2.1-2.4,3.8-3.4,5.2-1.1,1.6-3,2.8-5.6,3.5-.9.2-1.9.5-3.1.7-1.2.2-2,.3-2.5.4-1.1.2-1.9-.2-2.5-1.2-.2-.3-.3-.7-.4-1.1v-.5c-.1,0,3.3-5.5,3.3-5.5l10.4-4.7c.4-.7.9-1.5,1.4-2.2.9-1.5,1.4-2.3,1.5-2.4,0-.2,2.2-2.9,6.3-8.3Z"/>
    </g>
  </g>
  <path class="st5" d="M50.6,50.7s0,0,0,0c0,0,.2,0,.4.4.2.3.5.5.7.6.3,0,.6-.1.9-.5,0-.3,0-.5-.2-.7-.2-.3-.4-.4-.7-.5-.3,0-.5,0-.8.1-.2.1-.4.3-.4.6ZM50.6,50.6s0,0,0,0l1,1.7,1.1-.8c0-.2,0-.3,0-.5-.3.4-.7.5-.9.5-.2,0-.4-.2-.7-.6-.2-.3-.3-.4-.4-.4ZM30.1,33.7c0,.4-.3,1-.8,1.7-.1.2-.6.9-1.6,2.1-1,1.4-2,2.9-2.7,4.5-2.4,4.9-3.4,10.2-3,15.7.3,3.2,1.1,6.1,2.4,8.7,1.2,2.4,2.8,4.4,4.8,6.1,1.8,1.6,3.8,2.8,6,3.6,2.1.8,4,1.1,5.9,1,3.2-.1,5.8-1.6,7.7-4.4.7-1,1.3-2.2,1.7-3.4.4-1,.5-1.9.6-2.7.5-.4.9-.6,1.2-.9.5-.4.9-.9,1.2-1.4,1-1.5,1.7-3.8,2.1-7.2.2-.9.4-1.5.8-1.8,0,0,.3-.2.5-.3.2-.1.4-.2.5-.4.3-.1.6-.4.8-.8.2-.4.3-.8.3-1.2,0-.4-.2-.7-.5-.9-.4-.2-.9-.1-1.5.2-.6.3-.9.5-1.1.6-.2.1-.4.5-.7,1-.1.2-.2.3-.2.2,0,0,0-.3.1-.6.2-.8.4-1.4.7-1.9.1-.2.1-.5,0-.8,0-.3-.2-.6-.5-.7-.3-.2-.6-.2-.9-.1-.4.1-.8.5-1.2,1.1,0,0-.1.2-.2.2,0,.1,0,.3,0,.5l-1.1.8-1-1.7c0,.1-.1.6-.2,1.3,0,1.2,0,2.2.4,2.9.1.2.1.4.1.4,0,.1-.2.3-.5.6-.4.2-.8,0-1.2-.6-.1-.2-.3-.4-.4-.6v-.3c-.6-.6-1.1-1.1-1.6-1.7-1.1-1.2-2-1.9-2.5-2l.8-14.2,1-4.6-17-.9c.5,1.1.7,2.1.5,2.8ZM51.5,32.5c-.3,0-.5,0-.8,0-.2.1-.4.3-.5.5-.1.2-.1.5,0,.8.2.5.4.9.8,1.2.2.1.3.2.5.3l.8-2.6c-.2-.2-.5-.3-.8-.3Z"/>
  <path class="st4" d="M52.3,32.8c-.2-.2-.5-.3-.8-.3-.3,0-.5,0-.8,0-.2.1-.4.3-.5.5-.1.2-.1.5,0,.8.2.5.4.9.8,1.2.2.1.3.2.5.3l.8-2.6Z"/>
  <g class="st1">
    <g>
      <path class="st5" d="M43.3,65.8c-.5-.2-1-.5-1.6-.8-.6-.4-1-.6-1.2-.7.2.4.4.7.8,1.1.5.4,1,.8,1.7,1.1,1.6.8,3.5,1.1,5.6.8,2.1-.3,3.8-1.2,5.1-2.6,1-1.2,1.7-2.9,2.2-5-.5.9-1.3,1.9-2.2,2.9-1.8,2-3.6,3.2-5.4,3.6-1.8.4-3.5.3-4.9-.3Z"/>
      <path class="st4" d="M55.9,59.6c-.4,2.1-1.2,3.8-2.2,5-1.2,1.5-2.9,2.3-5.1,2.6-2.1.3-3.9,0-5.6-.8-.6-.3-1.2-.7-1.7-1.1-.4-.4-.7-.8-.8-1.1.2.1.6.4,1.2.7.6.3,1.1.6,1.6.8,1.5.6,3.1.7,4.9.3,1.8-.4,3.6-1.6,5.4-3.6.9-1,1.6-2,2.2-2.9Z"/>
    </g>
  </g>
  <g class="st10">
    <g>
      <path class="st5" d="M49.7,69.1c.3,0,.6,0,.9,0,1.4.1,2.5.2,3.5.1.8-1.2,1.5-2.2,2.1-3.1l-.4-2.2c-1,.7-2.4,1.9-4.2,3.6-.6.6-1.2,1.1-1.8,1.5ZM57.1,63.2c-.3,0-.8.3-1.4.8l.4,2.2c.1-.2.2-.4.4-.6,1-1.7,1.2-2.5.7-2.4ZM41.6,72.1c-3,0-6-.9-9-2.9-2.6-1.8-5-4.2-7.1-7.2-1.9-2.8-3.3-5.6-4.2-8.4l-3.5,10.7,9,13.5,21.4,2.8,3.1-7.6c1-1.3,1.9-2.5,2.7-3.6-.9,0-2.1,0-3.5-.1-.3,0-.6,0-.9,0-2.6,1.9-5.3,2.9-8.1,3ZM42.4,66.6c1,.9,2.1,1.6,3.5,2l1.4.3c.8.1,1.6.3,2.4.3.6-.5,1.2-1,1.8-1.5,1.8-1.7,3.2-2.9,4.2-3.6l-.4-2.4c-1,1-2.1,1.9-3.2,2.6-1.4.9-2.8,1.5-4.2,1.7-3.6.6-6.8-1.2-9.4-5.2,1.5,2.7,2.8,4.7,4,5.8ZM29.3,30.9c-.2,0-.4.1-.6.3-.5.6-.5,1.8,0,3.7.5,1.9,1.6,3.3,3.3,4.1.9.4,1.7.6,2.4.7l12.7-.7,2.9-11.9-20.5,3.8c0,0-.2,0-.3,0Z"/>
      <path class="st4" d="M55.7,64l-.4-2.4c-1,1-2.1,1.9-3.2,2.6-1.4.9-2.8,1.5-4.2,1.7-3.6.6-6.8-1.2-9.4-5.2,1.5,2.7,2.8,4.7,4,5.8,1,.9,2.1,1.6,3.5,2l1.4.3c.8.1,1.6.3,2.4.3.6-.5,1.2-1,1.8-1.5,1.8-1.7,3.2-2.9,4.2-3.6ZM55.7,64c.7-.5,1.2-.8,1.4-.8.5,0,.3.7-.7,2.4-.1.2-.2.4-.4.6l.4,2.4c-.4.4-1.3.7-2.5.7-.8,1.1-1.7,2.3-2.7,3.6l-3.1,7.6-21.4-2.8-9-13.5,3.5-10.7c.8,2.8,2.2,5.6,4.2,8.4,2.1,3,4.5,5.5,7.1,7.2,3,2,6,3,9,2.9,2.8,0,5.5-1.1,8.1-3,.3,0,.6,0,.9,0,1.4.1,2.5.2,3.5.1.8-1.2,1.5-2.2,2.1-3.1l-.4-2.2ZM29.6,30.9l20.5-3.8-2.9,11.9-12.7.7c-.8,0-1.6-.3-2.4-.7-1.7-.8-2.8-2.2-3.3-4.1-.5-1.9-.5-3.2,0-3.7.1-.2.3-.3.6-.3.1,0,.2,0,.3,0Z"/>
    </g>
  </g>
  <path class="st5" d="M52.1,7.6c-1.8-1.1-3.6-1.6-5.5-1.3-1.7.2-3.2.9-4.7,2.1-1.3,1.1-2.3,2.3-2.9,3.6l9.2,10.6,1.6.6c1.3.5,2.6,1,3.9,1.4.6-.5,1.1-1.3,1.4-2.4.1-.3.2-.6.3-1v-.4c0,0,.3,0,.3,0,.2,0,.4,0,.6,0,.7,0,1.2,0,1.5-.4.2-1.1,0-2.4-.6-3.8-.2-.4-.4-.9-.6-1.3l-.3-.5.4-.3c.3-.2.6-.4.9-.6-1.6-3.1-3.4-5.4-5.5-6.7Z"/>
  <path class="st5" d="M49.1,8.5c-.7-.2-1.3-.3-1.8-.1-1,.3-1.8.7-2.3,1.4-.6.8-1,2-1.3,3.6l.3,1c.3.8.6,1.6.8,2.3.9,2.3,1.6,3.5,2,3.8.7.3,1.6.6,2.8.9,1.3.2,2.3.3,2.9,0,.3-.1.7-.4,1-.8.3-.4.6-1,.8-1.6.5-1.5.5-3.1,0-4.9-.3-.9-.7-1.8-1.3-2.6-.6-.7-1.2-1.4-2-1.9-.7-.5-1.4-.9-2.2-1.1Z"/>
  <g class="st12">
    <g>
      <path class="st5" d="M49.3,8h-2.4c0-.1-4.7,2.5-4.7,2.5l.2,5.5-.3.9c-.2.7-.2,1.4-.1,1.9.3,1.7,2.1,2,5.4,1,1.8-.6,3.2-1.5,4.1-2.7.8-1,1.1-2.2,1.1-3.6,0-1.2-.4-2.3-1-3.4-.6-1-1.3-1.8-2.1-2.2Z"/>
      <path class="st4" d="M49.3,8c.8.4,1.5,1.2,2.1,2.2.6,1.1,1,2.2,1,3.4,0,1.3-.3,2.5-1.1,3.6-.9,1.2-2.2,2.1-4.1,2.7-3.3,1-5.1.7-5.4-1-.1-.5,0-1.2.1-1.9l.3-.9-.2-5.5,4.7-2.7h2.4Z"/>
    </g>
  </g>
  <path class="st5" d="M20.7,14.8c-1.7.9-3,2.3-3.7,4.3-.9,2.3-1.1,5.1-.5,8.6.3,0,.7,0,1.1,0h.5s0,.6,0,.6c0,.5.1,1,.3,1.4.4,1.5.9,2.6,1.8,3.4.4,0,.9-.2,1.4-.6.2-.1.3-.3.5-.4l.2-.2.3.3c.2.2.5.4.8.6.9.6,1.7,1,2.5,1.1.8-1.1,1.5-2.3,2.3-3.4l.9-1.4,1.2-14c-1.3-.7-2.8-1.1-4.5-1.2-1.9,0-3.6.2-5.1,1Z"/>
  <path class="st5" d="M21.3,16.9c-.5.2-.9.5-1.3,1.1-.4.6-.8,1.3-1.1,2.1-.3.9-.5,1.8-.5,2.7,0,1,.1,2,.4,2.9.6,1.7,1.6,3,2.9,3.9.5.4,1.1.6,1.6.8.5.1.9.2,1.3,0,.6-.2,1.4-.7,2.3-1.7.8-.9,1.4-1.6,1.7-2.3.2-.5,0-1.9-.6-4.3-.2-.7-.4-1.5-.7-2.4l-.3-1c-1.1-1.2-2.2-1.9-3.1-2.1-.8-.2-1.7-.1-2.6.2Z"/>
  <g class="st11">
    <g>
      <path class="st5" d="M21.3,16.2l-1.8,1.5c-.4.8-.5,1.8-.4,3,.1,1.2.5,2.4,1.2,3.3.7,1.1,1.7,1.9,2.9,2.3,1.4.5,3,.4,4.8-.2,3.2-1.1,4.5-2.4,3.8-3.9-.2-.5-.6-1-1.2-1.5l-.8-.6-3.1-4.5-5.4.6Z"/>
      <path class="st4" d="M19.4,17.7c-.4.8-.5,1.8-.4,3,.1,1.2.5,2.4,1.2,3.3.7,1.1,1.7,1.9,2.9,2.3,1.4.5,3,.4,4.8-.2,3.2-1.1,4.5-2.4,3.8-3.9-.2-.5-.6-1-1.2-1.5l-.8-.6-3.1-4.5-5.4.6-1.8,1.5Z"/>
    </g>
  </g>
  <path class="st5" d="M48.4,22.3c-.4-1.3-.9-2.3-1.5-3,.2-.9.3-1.9,0-2.9-.2-1.2-.7-2.1-1.5-2.9-.9-.9-2.2-1.5-3.8-1.8-1.8-.3-4.1,0-6.7.6-2.6.7-4.7,1.7-6.3,2.9-1.4,1.1-2.3,2.4-2.8,3.8-.4,1.3-.4,2.5,0,3.7.4,1.2,1,2,2,2.7.4,3,1.4,5.3,2.9,7.1,2.4,2.8,6,3.5,10.7,2.2,2.5-.7,4.4-1.8,5.7-3.4,1.1-1.3,1.7-2.8,1.8-4.6,0-1.4-.1-2.9-.6-4.5Z"/>
  <path class="st4" d="M27.9,25.5c.4,3,1.4,5.3,2.9,7.1,2.4,2.8,6,3.5,10.7,2.2,2.5-.7,4.4-1.8,5.7-3.4,1.1-1.3,1.7-2.8,1.8-4.6,0-1.4-.1-2.9-.6-4.5-.4-1.3-.9-2.3-1.5-3,.2-.9.3-1.9,0-2.9-.2-1.2-.7-2.1-1.5-2.9-.9-.9-2.2-1.5-3.8-1.8-1.8-.3-4.1,0-6.7.6-2.6.7-4.7,1.7-6.3,2.9-1.4,1.1-2.3,2.4-2.8,3.8-.4,1.3-.4,2.5,0,3.7.4,1.2,1,2,2,2.7Z"/>
  <g class="st0">
    <g>
      <path class="st5" d="M36.7,27.5l-.5.7c0,2.1.3,3.8,1,5.1.8,1.3,1.8,2,3,2,1.1,0,1.8,0,2-.2.2,0,.4-.3.6-.7.2-.2.4-.6.6-1,.2-.5.4-1.1.4-1.7.1-1.7-.5-3.2-1.8-4.7-1.3-1.4-2.7-1.7-4.1-.7-.4.3-.9.7-1.3,1.2Z"/>
      <path class="st4" d="M36.3,28.2c0,2.1.3,3.8,1,5.1.8,1.3,1.8,2,3,2,1.1,0,1.8,0,2-.2.2,0,.4-.3.6-.7.2-.2.4-.6.6-1,.2-.5.4-1.1.4-1.7.1-1.7-.5-3.2-1.8-4.7-1.3-1.4-2.7-1.7-4.1-.7-.4.3-.9.7-1.3,1.2l-.5.7Z"/>
    </g>
  </g>
  <path class="st5" d="M41.6,30.8c.4-.6.6-1.5.6-2.6,0-1.9-.8-2.3-2.5-1-.9.7-1.8,1.5-2.6,2.5.5.7,1,1.2,1.6,1.6.6.4,1.1.5,1.7.4.6,0,1-.4,1.4-1Z"/>
  <path class="st4" d="M37,29.8c.5.7,1,1.2,1.6,1.6.6.4,1.1.5,1.7.4.6,0,1-.4,1.4-1,.4-.6.6-1.5.6-2.6,0-1.9-.8-2.3-2.5-1-.9.7-1.8,1.5-2.6,2.5Z"/>
  <path class="st5" d="M41.5,25.3c-.3-.6-.6-1.1-1-1.6-.9-1-2-1.3-3-.8-1.3.4-1.8,1.6-1.6,3.5,0,.7.3,1.3.5,2.1.2.6.4,1,.6,1.3.3.5.7.8,1.3.9.6,0,1.1,0,1.8-.3.2,0,.5-.2.9-.4.3-.1.6-.3.8-.5.5-.5.6-1.2.4-2.3-.1-.6-.3-1.3-.6-1.9Z"/>
  <path class="st4" d="M37.5,22.9c-1.3.4-1.8,1.6-1.6,3.5,0,.7.3,1.3.5,2.1.2.6.4,1,.6,1.3.3.5.7.8,1.3.9.6,0,1.1,0,1.8-.3.2,0,.5-.2.9-.4.3-.1.6-.3.8-.5.5-.5.6-1.2.4-2.3-.1-.6-.3-1.3-.6-1.9-.3-.6-.6-1.1-1-1.6-.9-1-2-1.3-3-.8Z"/>
  <path class="st5" d="M44.5,22.2c0-.4-.1-.7-.4-1-.3-.3-.6-.4-1-.4s-.7.1-1,.4c-.3.3-.4.6-.4,1s.1.7.4,1c.3.3.6.4,1,.4s.7-.1,1-.4c.3-.3.4-.6.4-1Z"/>
  <path class="st5" d="M34.1,25.3c0-.4-.1-.7-.4-1s-.6-.4-1-.4-.7.1-1,.4c-.3.3-.4.6-.4,1s.1.7.4,1,.6.4,1,.4.7-.1,1-.4c.3-.3.4-.6.4-1Z"/>
  <path class="st5" d="M60.6,27.9c0-.3-.2-.6-.5-.8-.3-.2-.6-.4-.9-.4-.4,0-.7.1-1,.4-.4.5-.9,1-1.4,1.6-.5.7-.9,1.2-1.2,1.4-.4.4-.8.5-1.2.4-.1,0-.3-.1-.4-.2h-.2c-.5-.6-1.1-1.1-1.8-1.7-.4-.3-.8-.5-1.2-.5-.4,0-.6.1-.9.4-.2.2-.3.5-.3.8,0,.3.2.6.5.9,1.8,1.4,2.3,2.3,1.4,2.9-2.9,2-5.9,3.2-9,3.6-2,.2-3.8.2-5.5-.3-1.2-.3-2.2-.4-3-.2-1.1.2-2.2,1-3.4,2.2l-.5.8c-.4.7-.6,1.4-.8,2.1-.4,2.3.5,4.3,2.9,6,7.3,4.4,13.1,4.3,17.6-.2,1.3-1.3,2.5-3.1,3.8-5.5.8-1.4,1.2-2.1,1.2-2.2.4-.6.6-1,.9-1.1.8-.3,1.6-.8,2.4-1.4.4-.3.7-.6.9-.8l1.2-.3c1-.2,2-.4,2.9-.5.5,0,.9-.2,1.1-.5.2-.3.2-.6,0-1-.1-.3-.3-.6-.6-.9-.3-.3-.6-.4-.9-.3-.5,0-1.2.1-2.1.2h-1.2c0,.1,1-.3,1-.3.8-.3,1.5-.6,2.2-1,.4-.2.6-.5.7-.8,0-.3,0-.6-.1-1-.2-.3-.4-.6-.7-.7-.3-.2-.7-.1-1,0-.6.3-1.4.7-2.3,1.3l-1.2.8-.2-.3,2.4-2.3c.3-.3.4-.6.3-.9Z"/>
  <path class="st4" d="M30.7,38.5c1.2-1.2,2.3-2,3.4-2.2.8-.2,1.7-.1,3,.2,1.7.4,3.5.5,5.5.3,3.1-.4,6.1-1.6,9-3.6.9-.6.5-1.5-1.4-2.9-.3-.3-.5-.6-.5-.9,0-.3,0-.6.3-.8.2-.2.5-.4.9-.4.4,0,.8.2,1.2.5.7.6,1.3,1.1,1.8,1.6h.2c.1.2.3.3.4.3.4.1.8,0,1.2-.4.3-.3.6-.8,1.2-1.4.5-.6,1-1.2,1.4-1.6.3-.3.6-.4,1-.4.3,0,.7.1.9.4.3.2.5.5.5.8,0,.3,0,.6-.3.9l-2.4,2.3.2.3,1.2-.8c.9-.6,1.7-1,2.3-1.3.3-.2.7-.2,1,0,.3.1.5.4.7.7.2.3.2.6.1,1,0,.4-.3.6-.7.8-.7.3-1.4.6-2.2,1l-1,.4h1.2c.9-.2,1.6-.3,2.1-.3.3,0,.6,0,.9.3.3.2.5.5.6.9.1.4,0,.7,0,1-.2.3-.6.5-1.1.5-1,0-1.9.2-2.9.5l-1.2.3c-.2.2-.5.5-.9.8-.8.6-1.6,1.1-2.4,1.4-.2,0-.5.4-.9,1.1,0,0-.4.8-1.2,2.2-1.3,2.4-2.6,4.2-3.8,5.5-4.4,4.5-10.3,4.6-17.6.2-2.3-1.7-3.3-3.7-2.9-6,.1-.7.4-1.4.8-2.1l.5-.8Z"/>
  <g class="st6">
    <path class="st5" d="M61.5,35.8c-2.7.3-4.6.6-5.5,1-.4.2-.7.4-1,.7-.4.4-.7.6-.9.8-.3.3-.7.8-1.2,1.6-.9,1.5-1.4,2.3-1.5,2.4-1.5,2.2-3.1,3.8-4.9,4.7-2,1-4.2,1.5-6.8,1.6-1,0-2.1,0-3.3,0-.6,0-1.7-.1-3.3-.3-1.8-.2-3.1,0-3.9.4-.3.1-.4.3-.6.5,0,0-.1.2-.1.2l3.5,3.2,13.1.9,5-2.8,8.2-7.9,3.1-6.9Z"/>
  </g>
  <g class="st7">
    <g>
      <path class="st5" d="M44.4,49.6c-1.4.8-2.5,1.1-3.3,1.1l6.6.5,9.4-9.8c.2-.5.3-1,.2-1.4-.1-.9-.8-1.1-2.1-.8-.6,1.1-1.6,2.3-2.8,3.7-1.2,1.4-2.5,2.6-3.9,3.8-1.5,1.3-2.8,2.2-4.1,2.9Z"/>
      <path class="st4" d="M41,50.6h0c.8,0,1.9-.3,3.3-1.1,1.3-.7,2.6-1.7,4.1-2.9,1.4-1.2,2.7-2.5,3.9-3.8,1.2-1.4,2.2-2.6,2.8-3.7,1.3-.4,1.9-.1,2.1.8,0,.4,0,.9-.2,1.4l-9.4,9.8-6.6-.5"/>
    </g>
  </g>
  <path class="st5" d="M41.8,28.6c0,0-.2-.1-.3,0-.2,0-.3,0-.5.2-.2.1-.3.3-.4.4,0,.1-.1.3,0,.4,0,0,.2.1.3,0,.2,0,.4,0,.5-.2.2-.1.3-.3.4-.4,0-.1.1-.3,0-.4Z"/>
  <path class="st5" d="M37.8,29.6c-.2,0-.2.2-.2.3,0,.1,0,.2.2.3.2,0,.3.1.6,0,.2,0,.4,0,.6-.1.2,0,.2-.2.2-.3,0-.1,0-.2-.2-.3-.2,0-.3,0-.6,0-.2,0-.4,0-.6.1Z"/>
  <path class="st5" d="M42.9,21.1c-.2,0-.3.1-.3.2,0,0,0,.1,0,.2.2.2.5.2.9.2.3,0,.5.1.7.6,0,0,0,.2,0,.3,0,0,0,0,0-.2,0-.4-.2-.7-.5-.9-.3-.2-.5-.3-.8-.3Z"/>
  <path class="st4" d="M42.9,21.1c.3,0,.6,0,.8.3.3.2.5.5.5.9,0,.2,0,.2,0,.2,0,0,0-.2,0-.3-.2-.4-.4-.6-.7-.6-.4,0-.7,0-.9-.2,0,0-.1-.1,0-.2,0,0,.2-.1.3-.2Z"/>
  <path class="st5" d="M32.4,24.3c-.2,0-.3.1-.3.2,0,0,0,.1,0,.2.2.2.5.2.9.2.3,0,.5.1.7.6,0,0,0,.2,0,.3,0,0,0,0,0-.2,0-.4-.2-.7-.5-.9-.3-.2-.5-.3-.8-.3Z"/>
  <path class="st4" d="M32.4,24.3c.3,0,.6,0,.8.3.3.2.5.5.5.9,0,.2,0,.2,0,.2,0,0,0-.2,0-.3-.2-.4-.4-.6-.7-.6-.4,0-.7,0-.9-.2,0,0-.1-.1,0-.2,0,0,.2-.1.3-.2Z"/>
  <path class="st3" d="M42,22.2c0,.4.2.6.4.8.2.2.4.3.8.4"/>
  <path class="st3" d="M31.4,25.3c0,.4.2.6.4.8.2.2.4.3.8.4"/>
</svg>