<?xml version="1.0" encoding="UTF-8"?>
<svg id="Layer_1" xmlns="http://www.w3.org/2000/svg" version="1.1" viewBox="0 0 90 90">
  <!-- Generator: Adobe Illustrator 30.0.0, SVG Export Plug-In . SVG Version: 2.1.1 Build 123)  -->
  <defs>
    <style>
      .st0 {
        fill: #403f3e;
      }
    </style>
  </defs>
  <path class="st0" d="M35,54.9v-.4c-.4-.2-.7-.4-1-.6.1.6.3,1.1.4,1.6-.4,0-.9,0-1.4-.2-1.1-.3-2-.8-2.6-1.4,0,.2,0,.3.1.5.1.5.3,1.1.4,1.7-.4,0-.8-.3-1.3-.5-1-.4-1.7-.9-2.1-1.4,0,.7,0,1.3.1,1.7-.2-.1-.4-.3-.6-.5-.5-.4-.8-.9-1.1-1.3l.2.6c.2.5.5.9.8,1.4,1,1.4,2.2,2.5,3.8,3.3.1-.4.3-.8.4-1.2v-.5c.1,0,.4.3.4.3.2.2.5.4.7.6.9.6,1.8.9,2.8.9,0-.3.1-.6.2-1v-.4s.3.2.3.2c.2.2.5.3.7.3-.4-.8-.7-1.6-.9-2.4-.1-.4-.2-.8-.2-1.2ZM67.1,40.3c.3-.3.5-.6.7-1l-2.4-.3c0,.2-.2.4-.4.5-.3.4-.7.6-1,.6h0s0,0,0,0c-.1.4-.3.6-.4.9l.3.4c.2.4.4.6.6.8.5-.3.9-.9,1.2-1.7l.2-1.1.4.2c.3.2.7.4,1,.6,0,0,0,0,0,0Z"/>
  <path class="st0" d="M26.9,50.4l-.4.7c-1.4-1.8-2.1-3.8-2.2-6.1,0-.7,0-1.4.1-2.1l.2-.8c-.4.3-.8.6-1.1.8-.4-.6-.6-1.5-.4-2.7,0-.7.3-1.7.7-3,0,0-.3,0-.6.3-.1,0-.3.2-.4.3v-2.9c-.8,2.3-1.3,5.2-1.3,8.5,0,1.7.1,3.1.3,4.3l.8-1c0,2.4.4,4.4,1.2,6,.4.8.8,1.3,1.3,1.6l.5-.7c0,.2.2.3.3.5.3.5.7.9,1.1,1.3.2.2.4.4.6.5,0-.5,0-1.1-.1-1.7.4.5,1.1,1,2.1,1.4.5.2.9.4,1.3.5-.1-.6-.3-1.2-.4-1.7-.9,0-1.8-.7-2.7-2-.3-.4-.5-.8-.7-1.3l-.2-.6ZM47.4,54.9v-.8c-2-.2-3.4-.5-4.3-.9,0,.5,0,1-.1,1.5-.4,0-.8,0-1.3-.2-.5,0-.9-.2-1.3-.3-.2,1.1-.2,2.4,0,3.7,0,.4.2.7.2,1,.4,0,.9,0,1.5-.2.5-.1,1-.3,1.5-.5l-.4-1.6c.7.3,1.7.5,2.9.4.6,0,1.2-.1,1.6-.2-.2-.6-.3-1.2-.4-1.8ZM47,50.4c-.9-1.6-1.6-2.9-2-3.9-.8-2.1-1.2-4.3-1.3-6.6,0,3.5.6,6.8,1.9,10,.7,1.8,1.5,3.3,2.2,4.3.5,0,.9,0,1.3.1l.2-.6c-.6-.7-1.1-1.4-1.7-2.3l-.6-1.1ZM26.2,32.8c0-.3,0-.6-.1-1l-.6,6.5.6-.3v.5c-.2.4-.2.8-.2,1.3,0,1.4.4,2.6,1.2,3.6.2-.2.5-.4.7-.7v.6c.3.5.4.9.6,1.3.6,1.3,1.4,2.1,2.3,2.5,0-.2,0-.4,0-.7v-.4s.9.5.9.5c.7.4,1.4.7,1.9.9-.6-.2-1.3-.6-2-1.2l-1-.8v1.2c-.3-.2-.7-.5-1-1-.7-1-1.2-2.2-1.5-3.8l-.8,1.1c-.3-.4-.5-.9-.6-1.5-.3-1.3-.3-2.5.2-3.8l-.8.3.3-4.9ZM63.9,40.2s0,0,0,0l-.7-1-.4,1.1c-.3.8-.6,1.3-.8,1.6,0-.2-.3-.5-.8-.9l-.7-.5-1.8-5.4,2.1,7.6c0-.3,0-.6-.1-.9v-.4c0,0,.1.2.1.2.2.2.3.5.4.7.3.6.5,1.2.7,1.9.5-.3.9-1,1.2-2l.2-1.4h0c.2,0,.3-.4.4-.7Z"/>
  <path class="st0" d="M41.2,60c-.1-.1-.2-.4-.3-.7-1.3-.8-2.4-.9-3.1-.3-.4.3-.6.6-.7,1,0,.1.1.2.2.3,0,1.4,0,2.5.1,3.3.2.9.5,1.8.9,2.8.1,2.9.4,7.3.8,13.2l-.7,1.7c-.7,1.3-1.4,2.4-2.2,3.2-.7.3-1.2.4-1.5.5-.3.2-.6.3-.7.5-.2.3-.6.7-1.2,1.3v.3c0,.2,0,.5.1.7.3.6.9.9,2,.8,1.3-.1,2.4-.3,3.1-.6.8-.3,1.4-.8,1.6-1.3.5-1,.9-1.8,1.2-2.5.5-1.2.8-2.2.7-2.9,0-.7-.1-3.1-.2-7.1v-5.8c0-.5.2-1.1.4-1.9.4-1.5.5-3,.4-4.4,0-.6-.2-1.1-.4-1.6-.1-.2-.3-.5-.6-.8ZM49.2,58.7l-.3.5c.3.5.6,1,1,1.3-.1.8,0,1.7.4,2.7.3.9.7,1.6,1.2,2.2,0,1.3.4,6.7.9,16.4l-.3.3c-.2.3-.4.6-.6.9-.5,1-.8,2.1-.8,3.2-.6.5-1,.9-1.2,1.4-.4.7-.3,1.3.2,1.9.5.6,1.3.6,2.3.3.4-.1.7-.3,1.1-.6.3-.2.5-.4.6-.6.4.4.8.6,1.3.6.4,0,.7,0,1.1-.2.5-.3.8-.7,1-1.2.3-.8,0-1.5-.8-2.2,0-.8-.1-1.5-.3-2.1-.2-.7-.6-1.3-1.1-1.6v-17.3c.2-.3.3-.8.3-1.5,0-1.3-.4-2.8-1.3-4.4v-.6c-1.3-.9-2.5-1-3.6-.3-.4.2-.7.5-1,.9ZM30,.2c-.2,0-.4.2-.5.3-1.3-.4-2.2-.3-2.7.3-.2.2-.3.4-.3.7,0,.1,0,.3,0,.4h.7c.6,0,1,.2,1.4.5.4.4.7.6,1,.7.2,0,.3.1.5.1.2,0,.5,0,.7,0,.2,0,.3.2.3.3,0,.2-.1.3-.4.4l-.3.7c-.2.5-.4.8-.5.9-.1,0,0,0,.5,0,.2,0,.5-.2.8-.3v.5c-.1.4-.2.8-.3,1.2-.4,1.2-1,2-1.9,2.3,0,.2,0,.4,0,.7,0,.4-.3,1.4-.6,2.9-.3,1.2-.5,2.2-.6,2.8-.2,1.3-.4,2.7-.5,4.4-.2,2.6-.5,6.1-1,10.7,0,.3,0,.7,0,1.2,0,.3,0,.7.1,1,0,.3.1.5.2.7.2.7.7,1.4,1.3,2.3.1,0,.2-.2.2-.4l.3.3c.3.2.6.3.9.4.1,0,.1-.2,0-.4l-.3-.3.6.2c.4.1.7.2.8.1.1,0,.2-.2,0-.5l-.2-.4.6.4h0c0,0,.1,0,.2,0,.2-.2.3-.6.3-1.2.1.2.2.3.3.3.1,0,.2,0,.3-.1,0-.2,0-.4,0-.8v-.5c.2,0,.5,0,.5-.2,0-.1-.2-.4-.7-.7h.3c.2-.2.2-.2.2-.3,0,0,0-.1-.2-.1-.2,0-.3,0-.4,0-.2,0-.5-.3-.8-.7-.4-.5-.6-.9-.6-1.4s0-.7,0-.9v-.2s.9-10.7.9-10.7c.2-.8.4-1.5.6-2.1.5-1.4.9-2.4,1.1-3.1.6-1.9.9-3.6.9-5.2,0-1.8,0-3,0-3.6,0-.6-.4-1.1-.8-1.4-.3-1.3-.9-1.9-1.7-2-.3,0-.6,0-.9.2ZM29.9,1.2s0,0,.1-.1c.1-.1.3-.2.4-.2.4-.2.8,0,1.1.5-.2-.3-.5-.4-1-.4-.3,0-.5.1-.7.2ZM29.2,1.7c.3-.1.5-.2.8-.2.8-.2,1.4,0,1.7.5h-2.8c0,0,.3-.2.3-.2Z"/>
  <path class="st0" d="M40.4,54.2c-.3,0-.6-.2-.9-.3,0,.4.1.8.2,1.3-.4,0-.9.1-1.5.1-1.2,0-2.2-.3-3.2-.8v.4c0,.4.1.8.3,1.2.2.8.5,1.6.9,2.4.2.5.5,1,.8,1.5,0,0,0,0,0,0,0-.4.3-.8.7-1,.7-.6,1.8-.5,3.1.3,0,0,0-.2,0-.3,0,0,0-.1,0-.2,0-.3-.2-.6-.2-1-.3-1.3-.3-2.6,0-3.7ZM49.4,53.7l-.2.6c-.3,0-.8,0-1.3-.1h-.6c0,0,.1.7.1.7.1.6.3,1.2.4,1.8.3.9.6,1.8,1,2.5l.3-.5c.3-.4.6-.6,1-.9,1.1-.7,2.3-.6,3.6.3l-.2-2.8c-.2-.1-.4-.3-.6-.4l-.4-.3c-.2.4-.4.9-.7,1.4-.8-.4-1.7-1.2-2.6-2.2ZM27.7,4.4v.5c.2.4.5.7,1,1,.2,1.1.3,2.2.2,3.3.9-.3,1.5-1.1,1.9-2.3.1-.4.2-.8.3-1.2v-.5c-.2,0-.5.2-.7.3-.5.2-.7.2-.5,0,.1,0,.3-.4.5-.9l.3-.7c-.2,0-.4.2-.6.3-.7.2-1.5.3-2.3.1ZM30,1.5c-.3,0-.5.1-.8.2h-.3c0,.1,2.8.2,2.8.2-.3-.5-.9-.7-1.7-.5ZM30,1.1c0,0-.1,0-.1.1.2-.1.4-.2.7-.2.4,0,.7,0,1,.4-.3-.5-.7-.7-1.1-.5-.1,0-.3.1-.4.2Z"/>
  <path class="st0" d="M60,44.2l-.3-.4v.5c.2.4.2.9.2,1.3,0,1.4-.3,2.4-.9,3-.2-.1-.4-.3-.6-.6l-.3-.3.2,1.6c-.2.1-.4.2-.7.2-.6,0-1.1,0-1.5-.4.3.7.5,1.2.6,1.5-.3,0-.6.1-1.1.1-.9,0-1.7-.4-2.5-1,.1.7.2,1.3.4,1.8-.4,0-.7,0-1.1-.2-.8-.3-1.3-.9-1.6-1.8l-.7,1.5c-.3,0-.6-.2-1-.5-.5-.4-.8-.9-1.1-1.4l-.8,1.3.6,1.1c.5.8,1.1,1.6,1.7,2.3.9,1,1.8,1.8,2.6,2.2.3-.5.5-.9.7-1.4l.4.3c.2.2.4.3.6.4.1,0,.3.2.4.2,1.1.6,2.1.8,3,.5,0-.3,0-.7-.1-1v-.4c0,0,.3.2.3.2.3.1.6.3.9.3,1,.3,1.7.1,2.2-.4l-.2-1,.5.7c.2-.1.4-.5.5-1,.3-1.1.3-2.7,0-4.8.3.4.5.7.7,1.1.1-.2.3-.5.3-1,.2-1,.2-2.3,0-3.9,0-.3-.1-.5-.2-.8-.2-.7-.4-1.3-.7-1.9-.1-.3-.3-.5-.4-.7l-.2-.2v.4c.1.3.2.6.2.9.1,1.1,0,1.9-.3,2.5-.2-.2-.4-.5-.7-.8ZM65.6,29.1h-.5c.5-.9.7-1.2.5-1-.2.2-.5.4-.9.5-.5.2-1,.3-1.4.3-.3,0-.8,0-1.2-.1-.5-.1-.9-.2-1.3-.1-.7,0-1.2.1-1.7.3h.3c.2.2.4.3.5.5.9-.3,1.8-.3,2.8-.2l-.5.6h1.1c.8.1,1.4.3,1.7.7-.4.7-.7,1.3-.9,1.6h.9c.7.2,1.2.5,1.5.9-.3.2-.6.4-1,.6l-.4.2.2.4c.2.3.3.7.4,1,.3,1.2.2,2.3-.4,3.4-.2-.1-.4-.3-.6-.5l-.3-.3v1.1c-.2.3-.2.7-.3.9.4,0,.7-.2,1-.6.2-.2.3-.4.4-.5l2.4.3c.1-.3.2-.7.2-1.2,0-.3,0-.6,0-.9v-.3c0,0,.4.1.4.1.4,0,.8,0,1.2-.1,0-1.3-.3-2.5-.9-3.7-.2-.4-.4-.7-.6-1.1l-.3-.4h1.1c-.2-1.1-.8-1.9-1.9-2.3-.4-.1-.7-.2-1.1-.3Z"/>
  <path class="st0" d="M26,4s.3,0,.7.2c.4.1.7.2.9.2.8.2,1.6.1,2.3-.1.3,0,.5-.2.6-.3.2-.1.4-.3.4-.4-.4,0-.8.1-1.1.1s-.4,0-.9,0c-.5,0-1,0-1.3,0s-.8,0-1.2.2l-.5.2ZM27.2,3c.1,0,.2-.1.2-.2s0-.1-.2-.2c-.1,0-.2,0-.4,0s-.3,0-.4,0c-.1,0-.2.1-.2.2s0,.1.2.2c.1,0,.2,0,.4,0s.3,0,.4,0Z"/>
  <path class="st0" d="M25.2,2.7c-.3,0-.5.1-.6.3-.2.2-.2.3-.2.5,0,.4.6.6,1.6.5l.5-.2c.4-.1.8-.2,1.2-.2s.8,0,1.3,0c.5,0,.8,0,.9,0,.3,0,.6,0,1.1-.1,0-.1-.1-.3-.3-.3-.2,0-.4,0-.7,0-.1,0-.3,0-.5-.1-.2-.1-.5-.4-1-.7-.4-.3-.8-.5-1.4-.6h-.7c-.2,0-.4.2-.6.5-.2.3-.4.4-.6.4ZM27.4,2.8c0,0,0,.1-.2.2-.1,0-.2,0-.4,0s-.3,0-.4,0c-.1,0-.2-.1-.2-.2s0-.1.2-.2c.1,0,.2,0,.4,0s.3,0,.4,0c.1,0,.2.1.2.2Z"/>
  <path class="st0" d="M66.3,33.2c-.3-.4-.8-.7-1.5-.9h-.9c.2-.4.5-.9.9-1.7-.4-.3-1-.5-1.7-.6h-1.1s.5-.7.5-.7c-1-.1-1.9,0-2.8.2,0-.2-.3-.4-.5-.5h-.3c-.3,0-.6.2-.9.4-.8-.6-1.2-.9-1.3-1-.8-.5-1.6-1-2.4-1.4-2.5-1.2-5.4-1.8-8.7-1.9-3.2,0-6.3.4-9.5,1.4-.9.3-1.9.6-2.9,1-.8.3-1.3.5-1.4.5-.3,0-.7,0-1.1,0h-.5s0,.1,0,.1c0,.2,0,.5,0,.9s.2.9.6,1.4c.3.4.6.6.8.7,0,0,.2,0,.4,0,.1,0,.2,0,.2.1,0,0,0,.2-.2.2h-.3c.5.4.7.7.7.8,0,.1-.2.2-.6.2v.5c.2.4.2.7.2.8,0,.2-.2.2-.3.1,0,0-.2-.2-.3-.3,0,.6,0,1.1-.3,1.2,0,0-.1,0-.2,0h0s-.6-.4-.6-.4l.2.4c0,.3,0,.4,0,.5-.1,0-.4,0-.8-.1l-.6-.2.3.3c.2.2.2.4,0,.4-.3,0-.6-.2-.9-.4l-.3-.3c0,.2-.1.3-.2.4-.6-.9-1-1.6-1.3-2.3,0-.2-.1-.5-.2-.7l-.3,4.9.8-.3c-.4,1.3-.5,2.6-.2,3.8.2.6.4,1.1.6,1.5l.8-1.1c.3,1.5.8,2.8,1.5,3.8.4.5.7.8,1,1v-1.2s1.1.8,1.1.8c.8.6,1.5,1,2,1.2-.6-.2-1.2-.5-1.9-.9l-.9-.5v.4c0,.3,0,.5,0,.7-.9-.3-1.7-1.2-2.3-2.5-.2-.4-.3-.8-.5-1.3v-.6c-.4.3-.6.5-.8.7-.8-1-1.2-2.2-1.2-3.6,0-.4,0-.9,0-1.3v-.5c.1,0-.5.3-.5.3l.6-6.5c0-.5,0-.9,0-1.2-1.3,1.1-2.4,2.5-3.1,4.3v2.9c0-.1.1-.2.3-.3.3-.2.5-.3.6-.3-.4,1.3-.6,2.2-.7,3-.1,1.2,0,2,.4,2.7.3-.2.7-.5,1.1-.8l-.2.8c0,.7-.1,1.4-.1,2.1,0,2.3.8,4.4,2.2,6.1l.4-.7.2.6c.2.5.5.9.7,1.3.8,1.3,1.7,1.9,2.7,2,0-.2,0-.3-.1-.5.7.7,1.6,1.1,2.6,1.4.5.1,1,.2,1.4.2-.2-.5-.3-1-.4-1.6.3.2.6.4,1,.6,1,.5,2.1.8,3.2.8.6,0,1.1,0,1.5-.1,0-.4-.1-.9-.2-1.3.2.1.5.2.9.3.4.1.8.2,1.3.3.5,0,.9.1,1.3.2,0-.5,0-1,.1-1.5.9.4,2.3.7,4.2.9h.6c-.8-1-1.5-2.4-2.2-4.2-1.2-3.2-1.9-6.5-1.9-10,0,2.3.5,4.5,1.3,6.6.4,1,1,2.3,2,3.9l.8-1.3c.2.6.6,1.1,1.1,1.4.4.3.7.5,1,.5l.7-1.5c.3.9.8,1.5,1.6,1.8.4.2.8.2,1.1.2-.1-.5-.2-1.1-.4-1.8.8.6,1.6,1,2.5,1,.4,0,.8,0,1.1-.1-.1-.3-.3-.9-.6-1.5.4.4,1,.5,1.5.4.3,0,.5-.1.7-.2l-.2-1.6.3.3c.2.2.4.4.6.6.6-.7.9-1.7.9-3,0-.4,0-.9,0-1.3v-.5c0,0,.2.4.2.4.2.3.4.6.7.8.3-.5.4-1.4.3-2.5l-2.1-7.6,1.8,5.4.7.5c.5.4.7.7.8.9.2-.2.5-.8.8-1.6l.4-1.1.7,1h0c0-.3.2-.6.2-.9v-1.1c.1,0,.4.3.4.3.2.2.4.4.6.5.6-1.1.8-2.3.4-3.4,0-.4-.2-.7-.4-1l-.2-.4.4-.2c.3-.2.7-.4,1-.6Z"/>
  <path class="st0" d="M50.1,88.2c0,.3,0,.5.2.5.5-.2.9-.4,1.2-.7.7-.5.6-1,0-1.3-.7-.4-1.2-.2-1.3.6,0,.3,0,.6,0,.9ZM34.3,85.9c-.4-.2-1-.2-1.6.1-.5.3-.9.6-1.1,1h2.4c.2-.2.4-.3.5-.4.3-.2.2-.5-.2-.7ZM31,1.7h-.5c-.2,0-.3,0-.5,0-.3,0-.4.2-.3.5.1.3.4.4.7.4.4,0,.6-.1.7-.4.1-.2,0-.4-.3-.5Z"/>
  <path class="st0" d="M29.9,2.1h0c0,.3.2.3.4.3,0-.1-.1-.2-.2-.3h-.2Z"/>
  <path class="st0" d="M31,1.8h-.3c-.1,0-.2,0-.2,0,0,0,0,.1.2.1.3,0,.4,0,.4.2.1-.2.1-.4,0-.4Z"/>
</svg>