<?xml version="1.0" encoding="UTF-8"?>
<svg id="Layer_1" xmlns="http://www.w3.org/2000/svg" version="1.1" viewBox="0 0 91 90">
  <!-- Generator: Adobe Illustrator 30.0.0, SVG Export Plug-In . SVG Version: 2.1.1 Build 123)  -->
  <defs>
    <style>
      .st0 {
        fill: #403f3e;
      }
    </style>
  </defs>
  <path class="st0" d="M77.3,21.7c-1-1.1-2.4-1.8-4.1-2,.5-.7.7-1.5.5-2.2-.3-1.7-1.4-2.7-3.4-2.9,0-.4,0-.8,0-1.2-.3-1.4-1.2-2.4-2.5-3.1-1.1-.6-2.3-.7-3.5-.3-.6-1.9-2.1-3.2-4.3-3.8-2.2-.6-4.4-.4-6.5.4,0,0,0-.1-.1-.2-.9-1.4-2.2-2.3-3.8-2.9-1.2-.4-2.3-.6-3.3-.6-1.4,0-2.7.4-3.9,1.2-1-1.2-2.2-1.9-3.7-2-1.7,0-3.4.5-4.9,1.7-.4-.4-1.1-.8-2-1.1-1.1-.4-2.2-.5-3.3-.3-.6.1-1,.2-1.2.3-.1,0-.2,0-.4,0-1,.2-2,1-3.1,2.3-1.1,1.3-1.7,2.4-1.8,3.5-.1-.1-.3-.2-.5-.3-.3,0-.5-.1-.8,0-1.2.2-2.2.7-3.1,1.7-.4.4-.9,1.1-1.5,2.2,0,0,0,0,0,0-2.9.4-4.5,2.9-4.7,7.3-.4-.2-.9-.1-1.3.1-.5.3-.9.8-1.2,1.6-1.3-1.2-2.6-1.2-3.9-.1-1.9,1.6-2.7,4.1-2.4,7.4-.3.2-.6.5-.9.8C.6,30.6,0,32.2,0,33.9c0,.3,0,.7,0,1,.1,1.1.5,2.2,1.1,3.4-.2,1-.3,1.9-.1,2.7.2,1.2.8,2.2,1.9,3,0,.2,0,.3,0,.4.3,1.4,1.2,2.2,2.6,2.5,0,0,0,0,0,0-.3.8-.4,1.7-.3,2.6,0,.9.5,1.5,1.2,2,0,.8.3,1.5.8,2.4.5.8,1,1.3,1.7,1.2.6,0,1,.4,1.1,1.3,0,.9.6,1.6,1.6,2,.9.4,1.7.5,2.2.3.1.4.3.7.5,1,0,0,.2.2.2.3,0,0,0,0,0,0,.6.6,1.6,1,3,1.2,0,.1,0,.3,0,.6-.2,1.1.7,1.9,2.5,2.5-.3.2-.5.3-.8.5-.8.4-.9.9-.3,1.3,0,0,0,0,0,0,7.2.3,14.2,1,21,2.2.2,0,.5,0,.7,0,.9,0,1.7-.1,2.4-.4.5.1,1.1.2,1.7.2.8,0,1.4-.2,1.9-.6,0,0,0,0,0,0,.6.1,1.3.2,1.9.2.9,0,1.8-.1,2.6-.4.7.4,1.4.6,2.2.6.7,0,1.3-.1,1.8-.3.2.1.5.2.8.3.4.1.7.2,1,.2.5,0,.8-.2,1.1-.4,0,0,0,0,0,0,0,0,0,0,0,0,0,0,.1,0,.2,0,.6,0,1.2,0,1.7-.1.5-.1.9-.3,1.2-.6.4-.3.6-.7.8-1.2.1,0,.3.2.5.2,0,0,.1,0,.2,0,.5.1,1,0,1.5-.1.5-.2.8-.5,1-.9.4,0,.9,0,1.3,0,.6,0,1.2-.2,1.7-.5.4-.3.7-.6,1-.9.3-.4.5-.9.6-1.4.4,0,.8-.2,1.2-.4.7-.4,1.2-.8,1.5-1.4.2-.4.3-.8.4-1.2.2,0,.5-.2.7-.3.6-.3,1.2-.8,1.6-1.4.4-.6.7-1.2.8-1.9,1-.2,1.9-.7,2.7-1.5.4-.5.7-.9,1-1.4.6-1.1.9-2.2.7-3.3.5-.5.9-1.1,1.3-1.6.3-.5.6-1.1.8-1.5.3-1,.3-1.9-.1-2.6.3-.3.5-.6.7-1,.2-.4.4-.8.4-1.1,0-.2,0-.4,0-.6,0-.6-.2-1.1-.6-1.5.2-.5.2-.9.3-1.4,0-.4,0-.8,0-1.1,0-1.4-.5-2.3-1.4-2.9,0-.1,0-.2,0-.3.4-2.1-.3-3.2-1.9-3.3,0,0,0,0,0,0,0,0,0,0,0,0,0,0,0,0,0,0,.5-.4.8-.9.8-1.5,0-.9-.2-1.7-.5-2.5-.5-1.2-1.5-1.9-2.9-2.2.5-1.1.4-2-.3-2.9Z"/>
  <path class="st0" d="M42.1,69.1h.3c8.5-6.1,19.2-10,32.1-11.5-12.7,1.1-23.4,4.8-32.1,11.1l-.2.4ZM41.8,68c.2,0,.3,0,.5,0,9.8-9.3,23.6-16.8,41.4-22.6-19,5.2-33,12.8-41.9,22.6ZM42,66.5h0c12.5-14,27.7-22.4,45.7-25-17.9,1.8-33,9.8-45.4,23.9,0,.5-.2.9-.4,1.2ZM41.9,63.5c0,.3,0,.5,0,.7,10.9-16,27-25.8,48.1-29.3-21.1,2.2-37.2,11.7-48.1,28.6ZM25.8,60.8h1c-6-20.2-12.9-31.7-20.8-34.4,7.2,3,13.8,14.5,19.8,34.4ZM36.1,58.7c.3-.2.6-.2.8-.2.2-10.2,3.6-19.1,10.1-26.6,6.6-7.6,15.8-13.2,27.8-17-12.1,3.2-21.5,8.5-28.2,16.2-6.7,7.6-10.2,16.8-10.5,27.7ZM24.3,60.6c0,.2,0,.4.1.6-4.6-3.9-9.7-7.5-15.3-10.7,5.6,3.6,10.7,7.5,15.4,11.6l.4-.5h0s0,0,0,0l.2-.7c-4.7-19.4-12.7-28-24.1-25.9,11.4-.7,19.1,7.6,23.2,24.9-4-6.6-7.6-10.8-10.8-12.6-2.1-1.1-4.8-1.9-8.1-2.2,3.1.7,5.9,1.9,8.5,3.7,2.6,1.8,6.1,5.7,10.6,11.9ZM24.5,61.2h0s0,0,0,0h0s0,0,0,0ZM30.8,51.5c-.4-1.3-.7-2.5-1-3.7-2.1-20.5,1.3-34.7,10-42.6-8.5,6.7-12.1,20-10.7,40-5.3-20.2-4.3-33.3,2.8-39.4-8.1,6.2-8.9,20.4-2.6,42.7.3,3.4.7,7.1,1.3,10.9h.2c.1-.1.3-.3.4-.4-.4-2.7-.8-5.3-1.1-7.7.3,1,.6,2.1.9,3.2.2,1.4.4,2.8.6,4.2.2-.1.4-.2.6-.2,0,0,0,0,0,.2l.5-.2c-.1-.4-.3-.8-.4-1.2-3.3-20.9,2.1-39.5,16.4-55.8-13.6,14.8-19.6,31.5-18.1,50.1ZM11.1,17.4c3.7,4.4,7,9.7,9.8,15.8,1.3,7.3,3.5,16.2,6.8,26.7l.7-.6c-2.9-9.1-5.1-17-6.4-23.8,2.8,6.8,5.1,14.7,6.7,23.6h.9c-2.5-10.7-5.2-19.4-8.1-26.1-2.1-11.5-1.4-19.5,2.1-24-3.6,3.9-4.6,11.3-3,22.1-3.1-6.6-6.2-11.2-9.4-13.7ZM70.6,8.8c-12.5,3.7-21.9,10-28.2,18.9-6.2,8.7-8.6,19.3-7.2,31.7l.5-.3c-.6-12.1,2.1-22.5,8.2-31.2,6.2-8.8,15.1-15.1,26.8-19ZM50.5,10.6c.7-.7,1.4-1.5,2.1-2.2,1.7-1.8,3.5-3.5,5.4-5.2-1.9,1.6-3.7,3.2-5.4,4.8-.7.7-1.4,1.3-2.1,2-16.5,16.8-21.8,33.3-16,49.7.2,0,.3.2.4.3-1.1-3.8-1.7-7.6-1.8-11.3,0,0,0-.1,0-.2-.1-12.6,5.7-25.2,17.4-38ZM76.1,30.6c-.5.1-.9.3-1.4.4-18.8,6.3-30.2,16.2-34.2,29.5.1.2.2.4.3.7,3.1-11.9,14.4-21.7,34-29.5.4-.2.9-.4,1.4-.5,2.8-1.1,5.9-2.2,9.2-3.2-3.3.8-6.3,1.7-9.2,2.6ZM80.2,20.7s0,0,0,0c-12.1,1.9-21.7,6.1-28.9,12.5-7.3,6.5-11.9,15-13.7,25.4.4,0,.6.2.7.3,3.6-20.6,17.6-33.3,41.7-38.2,0,0,0,0,0,0Z"/>
  <path class="st0" d="M67.2,60c1-.7,1.8-1.4,2.2-2.1-1.8-.7-3.2-.8-4.2-.3-1,.5-1.5,1.2-1.3,2.2,1.2.9,2.3.9,3.4.3ZM68.8,58.1c-.4.6-1,1.2-1.8,1.7-.8.6-1.8.5-2.7-.2-.1-.8.3-1.4,1.1-1.8.8-.4,2-.3,3.5.3Z"/>
  <path class="st0" d="M66.9,59.8c.9-.6,1.5-1.1,1.8-1.7-1.5-.6-2.6-.7-3.5-.3-.8.4-1.2,1-1.1,1.8,1,.7,1.9.8,2.7.2ZM65.2,59.9c-.2,0-.4-.1-.6-.3-.1-.2-.2-.4-.2-.6,0-.2.1-.4.3-.6.2-.1.4-.2.6-.2.2,0,.4.1.6.3.1.2.2.4.2.6,0,.2-.1.4-.3.6-.2.1-.4.2-.6.2Z"/>
  <path class="st0" d="M64.7,59.6c.1.2.3.3.6.3.2,0,.4,0,.6-.2.2-.1.3-.3.3-.6,0-.2,0-.4-.2-.6-.1-.2-.3-.3-.6-.3-.2,0-.4,0-.6.2-.2.1-.3.3-.3.6,0,.2,0,.4.2.6Z"/>
  <path class="st0" d="M56.7,61.7c.6.6,1.3.7,2.3.3,1-.4,1.6-1.2,1.8-2.3-.9-.4-1.8-.4-2.8,0-1,.3-1.4,1-1.2,2ZM58.9,61.9c-.8.3-1.4.2-1.9-.3-.1-.8.2-1.4,1-1.7.8-.3,1.6-.3,2.3,0-.2,1-.7,1.6-1.5,1.9Z"/>
  <path class="st0" d="M57,61.6c.5.5,1.1.6,1.9.3.8-.3,1.3-1,1.5-1.9-.7-.3-1.5-.3-2.3,0-.8.3-1.2.8-1,1.7ZM58.2,62c-.3,0-.5,0-.7-.2-.2-.2-.3-.4-.4-.6,0-.3,0-.5.2-.7.2-.2.4-.3.6-.4.3,0,.5,0,.7.2.2.2.3.4.4.6,0,.3,0,.5-.2.7-.2.2-.4.3-.6.4Z"/>
  <path class="st0" d="M57.5,61.8c.2.2.5.2.7.2.3,0,.5-.2.6-.4.2-.2.2-.5.2-.7,0-.3-.2-.5-.4-.6-.2-.2-.5-.2-.7-.2-.3,0-.5.2-.6.4-.2.2-.2.5-.2.7,0,.3.2.5.4.6Z"/>
  <path class="st0" d="M52.6,64.6c.9-.8,1.6-1.4,2-1.9-1.6-.6-2.9-.6-3.9,0-1,.5-1.4,1.2-1.3,2.1,1.2.6,2.2.6,3.2-.2ZM54.1,62.9c-.3.4-.9.9-1.7,1.6-.8.6-1.7.7-2.7.2-.1-.7.2-1.3,1.1-1.8.9-.4,2-.4,3.3,0Z"/>
  <path class="st0" d="M52.4,64.4c.8-.6,1.4-1.2,1.7-1.6-1.3-.4-2.4-.4-3.3,0-.9.4-1.2,1-1.1,1.8,1,.5,1.9.4,2.7-.2ZM50.8,64.8c-.2,0-.4,0-.6-.3-.2-.2-.2-.4-.2-.6,0-.2,0-.4.2-.6.2-.2.4-.2.6-.2.2,0,.4,0,.6.2.2.2.2.4.2.6,0,.2,0,.4-.3.6-.2.2-.4.2-.6.2Z"/>
  <path class="st0" d="M50.2,64.6c.2.2.4.3.6.3s.4,0,.6-.2c.2-.2.2-.4.3-.6,0-.2,0-.4-.2-.6-.2-.2-.4-.2-.6-.2-.2,0-.4,0-.6.2-.2.2-.2.4-.2.6,0,.2,0,.4.2.6Z"/>
  <path class="st0" d="M53.1,58.9c.5.6,1.3.6,2.4,0,1.1-.6,1.8-1.5,2.1-2.8-1.6,0-2.9.2-3.7.9-.9.7-1.1,1.3-.8,1.9ZM55.4,58.7c-.9.5-1.6.5-2,0-.3-.5,0-1,.6-1.6.7-.6,1.8-.8,3.1-.7-.2,1.1-.8,1.8-1.7,2.3Z"/>
  <path class="st0" d="M53.4,58.7c.4.5,1.1.5,2,0,.9-.5,1.5-1.2,1.7-2.3-1.3,0-2.4.2-3.1.7-.7.6-.9,1.1-.6,1.6ZM54.3,59c-.2,0-.4,0-.6,0-.2-.1-.3-.3-.4-.5,0-.2,0-.4,0-.6.1-.2.3-.3.5-.4.2,0,.4,0,.6,0,.2.1.3.3.4.5,0,.2,0,.4,0,.6-.1.2-.3.3-.5.4Z"/>
  <path class="st0" d="M53.7,58.9c.2.1.4.1.6,0,.2,0,.4-.2.5-.4.1-.2.1-.4,0-.6,0-.2-.2-.4-.4-.5-.2,0-.4-.1-.6,0-.2,0-.4.2-.5.4-.1.2-.1.4,0,.6,0,.2.2.4.4.5Z"/>
  <path class="st0" d="M71.5,49.9s0,0-.1,0c-1-.3-1.9-.3-2.8,0-.7.2-1.1.6-1.2,1.1,0,.1,0,.3,0,.4.3.7,1,.8,2,.5,1-.4,1.7-1,2.1-1.9ZM70.7,50.1s0,0,.1,0c-.4.7-.9,1.2-1.7,1.5-.8.3-1.3.2-1.6-.4,0-.1,0-.2,0-.4,0-.4.4-.7.9-.9.7-.2,1.5-.2,2.3,0Z"/>
  <path class="st0" d="M70.9,50.1s0,0-.1,0c-.8-.2-1.5-.2-2.3,0-.6.2-.9.5-.9.9,0,.1,0,.2,0,.4.3.5.8.7,1.6.4.8-.3,1.4-.8,1.7-1.5ZM68.9,50.4s0,0,.1.1c0,.1.1.2.1.4,0,.2,0,.4-.2.5-.1.2-.3.2-.5.3-.2,0-.4,0-.5-.2-.2-.1-.2-.3-.2-.5,0,0,0,0,0-.1,0-.2,0-.3.2-.4.1-.2.3-.2.5-.2.2,0,.4,0,.5.2Z"/>
  <path class="st0" d="M69.1,50.5s0,0-.1-.1c-.2-.1-.3-.2-.5-.2-.2,0-.4,0-.5.2-.1.1-.2.3-.2.4,0,0,0,0,0,.1,0,.2,0,.4.2.5.2.1.3.2.5.2.2,0,.4,0,.5-.3.1-.2.2-.3.2-.5,0-.1,0-.3-.1-.4Z"/>
  <path class="st0" d="M48.1,55.6c.7.4,1.5.3,2.3-.3.8-.6,1.2-1.6,1.1-2.8-1-.1-1.9.1-2.8.7-.9.6-1.1,1.4-.6,2.4ZM50.1,55.2c-.7.5-1.3.6-1.9.3-.4-.8-.2-1.4.5-1.9.7-.5,1.5-.7,2.3-.6,0,1-.2,1.7-.9,2.3Z"/>
  <path class="st0" d="M48.2,55.4c.6.4,1.2.3,1.9-.3.7-.5,1-1.3.9-2.3-.8,0-1.5.1-2.3.6-.7.5-.9,1.1-.5,1.9ZM49.5,55.5c-.2.1-.5.1-.7,0-.3,0-.4-.3-.6-.5-.1-.2-.1-.5,0-.7,0-.3.3-.4.5-.5.2-.1.5-.1.7,0,.3,0,.4.3.6.5.1.2.1.5,0,.7,0,.3-.3.4-.5.5Z"/>
  <path class="st0" d="M48.7,55.6c.3,0,.5,0,.7,0,.2-.1.4-.3.5-.5s0-.5,0-.7c-.1-.2-.3-.4-.6-.5-.3,0-.5,0-.7,0s-.4.3-.5.5c0,.3,0,.5,0,.7.1.2.3.4.5.5Z"/>
  <path class="st0" d="M63.7,42.7c.3.6,1.1.8,2.2.6,1.2-.2,2-.9,2.6-2-1.4-.5-2.7-.5-3.6,0-1,.4-1.4.9-1.2,1.5ZM65.8,43.1c-1,.2-1.6,0-1.8-.5-.2-.5.2-.9,1-1.3.8-.3,1.8-.3,3,0-.5.9-1.2,1.5-2.1,1.7Z"/>
  <path class="st0" d="M64,42.7c.3.5.9.7,1.8.5,1-.2,1.7-.8,2.1-1.7-1.2-.4-2.2-.4-3,0-.8.3-1.1.8-1,1.3ZM64.8,43.1c-.2,0-.4,0-.5-.2-.1-.1-.2-.3-.2-.5,0-.2,0-.4.2-.5.1-.1.3-.2.5-.2.2,0,.4,0,.5.2.1.1.2.3.2.5,0,.2,0,.4-.2.5-.1.1-.3.2-.5.2Z"/>
  <path class="st0" d="M64.3,42.9c.1.1.3.2.5.2.2,0,.4,0,.5-.2.1-.1.2-.3.2-.5,0-.2,0-.4-.2-.5-.1-.1-.3-.2-.5-.2-.2,0-.4,0-.5.2-.1.1-.2.3-.2.5,0,.2,0,.4.2.5Z"/>
  <path class="st0" d="M48.2,59.8s0,0-.1,0c-.9,0-1.6.4-2.2.9-.5.4-.7.8-.6,1.2,0,.1,0,.2.2.3.5.4,1,.3,1.7-.2.6-.6,1-1.3,1.1-2.1ZM47.6,60.2s0,0,.1,0c0,.7-.3,1.3-.9,1.7-.5.5-1,.5-1.3.2,0,0-.1-.2-.1-.3,0-.3,0-.6.5-.9.5-.4,1.1-.6,1.7-.7Z"/>
  <path class="st0" d="M47.7,60.2s0,0-.1,0c-.7,0-1.3.3-1.7.7-.4.3-.5.6-.5.9,0,0,0,.2.1.3.4.3.8.3,1.3-.2.5-.5.8-1,.9-1.7ZM46.3,61s0,0,.1,0c0,0,.2.1.2.3,0,.2,0,.3,0,.5,0,.2-.2.3-.3.3-.2,0-.3,0-.5,0s-.3-.2-.4-.3c0,0,0,0,0,0,0-.1,0-.3,0-.4,0-.2.2-.3.3-.3.2,0,.3,0,.5,0Z"/>
  <path class="st0" d="M46.5,61.1s0,0-.1,0c-.2,0-.3,0-.5,0-.2,0-.3.2-.3.3,0,.1,0,.3,0,.4,0,0,0,0,0,0,0,.2.2.3.4.3.2,0,.3,0,.5,0,.2,0,.3-.2.3-.3,0-.2,0-.3,0-.5,0-.1-.1-.2-.2-.3Z"/>
  <path class="st0" d="M33.1,14.6s0,0-.1,0c-.9.5-1.6,1.2-2,2-.3.7-.4,1.2,0,1.6,0,.1.2.2.3.3.7.2,1.3-.1,1.7-1.1.4-.9.5-1.9.2-2.9ZM32.7,15.3s0,0,.1,0c.3.8.2,1.5-.1,2.3-.3.8-.8,1-1.4.9-.1,0-.2-.1-.3-.2-.2-.3-.2-.7,0-1.3.3-.7.9-1.2,1.6-1.6Z"/>
  <path class="st0" d="M32.8,15.2s0,0-.1,0c-.7.4-1.3.9-1.6,1.6-.3.5-.3,1,0,1.3,0,0,.2.2.3.2.6.2,1-.1,1.4-.9.3-.8.4-1.5.1-2.3ZM31.6,16.8c0,0,.1,0,.2,0,.1,0,.3,0,.4.2.2.1.2.3.2.5,0,.2,0,.4-.2.5-.1.2-.3.2-.5.2-.2,0-.4,0-.5-.2,0,0,0,0,0,0-.1-.1-.2-.3-.2-.4,0-.2,0-.4.2-.5.1-.2.3-.2.5-.2Z"/>
  <path class="st0" d="M31.8,16.8c0,0-.1,0-.2,0-.2,0-.4,0-.5.2-.1.2-.2.3-.2.5,0,.2,0,.3.2.4,0,0,0,0,0,0,.2.1.3.2.5.2.2,0,.4,0,.5-.2.1-.2.2-.3.2-.5,0-.2,0-.4-.2-.5-.1,0-.2-.2-.4-.2Z"/>
  <path class="st0" d="M56.9,49.2c.9-.6,1.6-1.2,1.9-1.8-1.6-.6-2.8-.7-3.7-.3-.9.4-1.3,1.1-1.2,1.9,1,.8,2,.8,2.9.2ZM58.3,47.5c-.3.5-.8,1-1.6,1.5-.7.5-1.5.4-2.4-.2,0-.7.2-1.2,1-1.6.7-.4,1.7-.3,3,.2Z"/>
  <path class="st0" d="M56.7,49.1c.7-.5,1.3-1,1.6-1.5-1.3-.5-2.3-.6-3-.2-.7.4-1.1.9-1,1.6.9.6,1.7.7,2.4.2ZM55.2,49.1c-.2,0-.4-.1-.5-.3-.1-.2-.2-.3-.2-.5,0-.2.1-.4.3-.5.2-.1.3-.2.5-.2.2,0,.4.1.5.3.1.2.2.3.2.5,0,.2-.1.4-.3.5-.2.1-.3.2-.5.2Z"/>
  <path class="st0" d="M54.7,48.8c.1.2.3.2.5.3.2,0,.4,0,.5-.2.2-.1.2-.3.3-.5,0-.2,0-.4-.2-.5-.1-.2-.3-.2-.5-.3-.2,0-.4,0-.5.2-.2.1-.2.3-.3.5,0,.2,0,.4.2.5Z"/>
  <path class="st0" d="M80.3,36.5s0,0-.1,0c-1-.3-1.9-.3-2.8,0-.7.2-1.1.6-1.2,1.1,0,.1,0,.3,0,.4.3.7,1,.8,2,.5,1-.4,1.7-1,2.1-1.9ZM79.6,36.7s0,0,.1,0c-.4.7-.9,1.2-1.7,1.5-.8.3-1.3.2-1.6-.4,0-.1,0-.2,0-.4,0-.4.4-.7.9-.9.7-.2,1.5-.2,2.3,0Z"/>
  <path class="st0" d="M79.7,36.7s0,0-.1,0c-.8-.2-1.5-.2-2.3,0-.6.2-.9.5-.9.9,0,.1,0,.2,0,.4.3.5.8.7,1.6.4.8-.3,1.4-.8,1.7-1.5ZM77.8,37s0,0,.1.1c0,.1.1.2.1.4,0,.2,0,.4-.2.5-.1.2-.3.2-.5.3-.2,0-.4,0-.5-.2-.2-.1-.2-.3-.2-.5,0,0,0,0,0-.1,0-.2,0-.3.2-.4.1-.2.3-.2.5-.2.2,0,.4,0,.5.2Z"/>
  <path class="st0" d="M77.9,37.1s0,0-.1-.1c-.2-.1-.3-.2-.5-.2-.2,0-.4,0-.5.2-.1.1-.2.3-.2.4,0,0,0,0,0,.1,0,.2,0,.4.2.5.2.1.3.2.5.2.2,0,.4,0,.5-.3.1-.2.2-.3.2-.5,0-.1,0-.3-.1-.4Z"/>
  <path class="st0" d="M44.9,52.8c0,0-.1,0-.1,0-1,.2-1.8.7-2.4,1.4-.5.6-.7,1.1-.5,1.5,0,.1.1.3.2.4.6.4,1.3.2,1.9-.6.7-.8,1-1.7.9-2.7ZM44.3,53.3s0,0,.1,0c0,.8-.2,1.5-.7,2.2-.5.6-1,.8-1.6.5,0,0-.2-.2-.2-.3-.1-.4,0-.8.4-1.2.5-.6,1.2-.9,2-1.1Z"/>
  <path class="st0" d="M44.4,53.3s0,0-.1,0c-.8.2-1.5.6-2,1.1-.4.5-.5.9-.4,1.2,0,.1.1.2.2.3.5.3,1,.2,1.6-.5.5-.6.8-1.4.7-2.2ZM42.9,54.5c0,0,.1,0,.2,0,.1,0,.2.1.3.3.1.2.1.4.1.6,0,.2-.1.4-.3.5-.2.1-.4.1-.6.1-.2,0-.4-.1-.5-.3,0,0,0,0,0,0,0-.1,0-.3,0-.5,0-.2.1-.4.3-.5.2-.1.4-.1.6-.1Z"/>
  <path class="st0" d="M43.1,54.5c0,0-.1,0-.2,0-.2,0-.4,0-.6.1-.2.1-.3.3-.3.5,0,.2,0,.3,0,.5,0,0,0,0,0,0,.1.2.3.3.5.3.2,0,.4,0,.6-.1.2-.1.3-.3.3-.5,0-.2,0-.4-.1-.6,0-.1-.2-.2-.3-.3Z"/>
  <path class="st0" d="M41.7,10.9s0,0-.1,0c-.8.3-1.5.8-1.9,1.5-.4.6-.5,1-.2,1.4,0,.1.1.2.3.3.6.3,1.1,0,1.6-.7.5-.8.6-1.6.4-2.5ZM41.2,11.4s0,0,0,0c.1.7,0,1.4-.4,2-.4.6-.8.8-1.3.6,0,0-.2-.1-.2-.2-.2-.3-.1-.7.2-1.1.4-.5.9-.9,1.6-1.2Z"/>
  <path class="st0" d="M41.3,11.4s0,0,0,0c-.7.3-1.2.7-1.6,1.2-.3.4-.4.8-.2,1.1,0,0,.1.2.2.2.5.2.9,0,1.3-.6.4-.6.5-1.3.4-2ZM40.1,12.6c0,0,.1,0,.2,0,.1,0,.2,0,.3.2.1.1.2.3.2.5,0,.2,0,.3-.2.4-.1.1-.3.2-.5.2-.2,0-.3,0-.4-.2,0,0,0,0,0,0,0-.1-.1-.3-.1-.4,0-.2,0-.3.2-.4.1-.1.3-.2.5-.2Z"/>
  <path class="st0" d="M40.3,12.6s0,0-.2,0c-.2,0-.3,0-.5.2-.1.1-.2.3-.2.4,0,.1,0,.3.1.4,0,0,0,0,0,0,.1.1.3.2.4.2.2,0,.3,0,.5-.2.1-.1.2-.3.2-.4,0-.2,0-.3-.2-.5,0,0-.2-.2-.3-.2Z"/>
  <path class="st0" d="M70.4,33c0,0-.1,0-.2,0-1.2-.4-2.3-.4-3.4,0-.9.3-1.3.7-1.4,1.3,0,.2,0,.3,0,.5.4.8,1.2,1,2.4.6,1.2-.4,2-1.2,2.6-2.3ZM69.5,33.2s0,0,.1,0c-.4.9-1.1,1.5-2.1,1.8-.9.3-1.6.2-1.9-.4,0-.2,0-.3,0-.4,0-.5.4-.8,1.1-1,.9-.3,1.8-.3,2.7,0Z"/>
  <path class="st0" d="M69.6,33.2s0,0-.1,0c-.9-.3-1.8-.3-2.7,0-.7.2-1.1.6-1.1,1,0,.1,0,.3,0,.4.3.6,1,.8,1.9.4.9-.4,1.6-1,2.1-1.8ZM67.3,33.5c0,0,.1.1.1.2,0,.1.1.3.2.5,0,.2,0,.5-.2.6-.2.2-.4.3-.6.3-.2,0-.5,0-.6-.2-.2-.2-.3-.4-.3-.6,0,0,0,0,0-.1,0-.2,0-.4.2-.5.2-.2.4-.3.6-.3.2,0,.5,0,.6.2Z"/>
  <path class="st0" d="M67.5,33.7c0,0,0-.1-.1-.2-.2-.2-.4-.2-.6-.2-.2,0-.5.1-.6.3-.1.1-.2.3-.2.5,0,0,0,0,0,.1,0,.2.1.4.3.6.2.2.4.2.6.2.2,0,.4-.1.6-.3.2-.2.2-.4.2-.6,0-.2,0-.3-.2-.5Z"/>
  <path class="st0" d="M58.1,39.2c0,0-.1,0-.2,0-1.2,0-2.3.3-3.3.9-.8.5-1.1,1-1,1.6,0,.2,0,.3.2.5.6.7,1.4.6,2.4,0,1-.7,1.7-1.7,1.9-2.9ZM57.2,39.7s0,0,.1,0c-.2,1-.7,1.8-1.5,2.3-.8.6-1.5.6-2,0,0-.1-.1-.3-.1-.4,0-.5.2-.9.8-1.3.8-.5,1.6-.7,2.6-.7Z"/>
  <path class="st0" d="M57.4,39.7s0,0-.1,0c-1,0-1.9.2-2.6.7-.6.4-.9.8-.8,1.3,0,.1,0,.3.1.4.5.5,1.1.5,2,0,.8-.6,1.3-1.4,1.5-2.3ZM55.2,40.6c0,0,.1,0,.2.1.1.1.2.2.3.4,0,.2,0,.5,0,.7-.1.2-.3.4-.5.5-.2,0-.5,0-.7,0-.2-.1-.4-.3-.5-.5,0,0,0,0,0-.1,0-.2,0-.4,0-.6.1-.2.3-.4.5-.4.2,0,.5,0,.7,0Z"/>
  <path class="st0" d="M55.4,40.7c0,0-.1,0-.2-.1-.2-.1-.5-.1-.7,0-.2,0-.4.2-.5.4,0,.2-.1.4,0,.6,0,0,0,0,0,.1,0,.2.2.4.5.5.2.1.5.1.7,0,.2,0,.4-.2.5-.5.1-.2.1-.5,0-.7,0-.2-.1-.3-.3-.4Z"/>
  <path class="st0" d="M49.6,46c0,0-.1,0-.1,0-1,.2-1.8.7-2.4,1.4-.5.6-.7,1.1-.5,1.5,0,.1.1.3.2.4.6.4,1.3.2,1.9-.6.7-.8,1-1.7.9-2.7ZM49,46.5s0,0,.1,0c0,.8-.2,1.5-.7,2.2-.5.6-1,.8-1.6.5,0,0-.2-.2-.2-.3-.1-.4,0-.8.4-1.2.5-.6,1.2-.9,2-1.1Z"/>
  <path class="st0" d="M49.1,46.5s0,0-.1,0c-.8.2-1.5.6-2,1.1-.4.5-.5.9-.4,1.2,0,.1.1.2.2.3.5.3,1,.2,1.6-.5.5-.6.8-1.4.7-2.2ZM47.6,47.7c0,0,.1,0,.2,0,.1,0,.2.1.3.3.1.2.1.4.1.6,0,.2-.1.4-.3.5-.2.1-.4.1-.6.1-.2,0-.4-.1-.5-.3,0,0,0,0,0,0,0-.1,0-.3,0-.5,0-.2.1-.4.3-.5.2-.1.4-.1.6-.1Z"/>
  <path class="st0" d="M47.8,47.7c0,0-.1,0-.2,0-.2,0-.4,0-.6.1-.2.1-.3.3-.3.5,0,.2,0,.3,0,.5,0,0,0,0,0,0,.1.2.3.3.5.3.2,0,.4,0,.6-.1.2-.1.3-.3.3-.5,0-.2,0-.4-.1-.6,0-.1-.2-.2-.3-.3Z"/>
  <path class="st0" d="M42,49.6c.1-1.1,0-2-.1-2.7-1.5.8-2.4,1.7-2.7,2.7-.2,1,0,1.7.7,2.2,1.3-.3,2-1,2.1-2.1ZM41.6,47.4c.2.6.2,1.3.1,2.2-.1.9-.7,1.5-1.7,1.7-.6-.4-.8-1-.6-1.8.2-.8.9-1.5,2.2-2.2Z"/>
  <path class="st0" d="M41.7,49.6c.1-.9,0-1.6-.1-2.2-1.3.6-2,1.4-2.2,2.2-.2.8,0,1.4.6,1.8,1-.2,1.6-.8,1.7-1.7ZM40.7,50.8c-.1.1-.3.2-.5.2-.2,0-.4,0-.5-.2-.1-.1-.2-.3-.2-.5,0-.2,0-.4.2-.5.1-.1.3-.2.5-.2.2,0,.4,0,.5.2.1.1.2.3.2.5,0,.2,0,.4-.2.5Z"/>
  <path class="st0" d="M40.2,51c.2,0,.4,0,.5-.2.1-.1.2-.3.2-.5,0-.2,0-.4-.2-.5-.1-.1-.3-.2-.5-.2-.2,0-.4,0-.5.2-.1.1-.2.3-.2.5,0,.2,0,.4.2.5.1.1.3.2.5.2Z"/>
  <path class="st0" d="M44.3,42.6c.8.3,1.5,0,2.1-.8.7-.8.8-1.8.4-2.9-1,.1-1.8.6-2.5,1.4-.7.8-.7,1.6,0,2.4ZM46.3,41.6c-.5.7-1.1.9-1.8.7-.5-.7-.5-1.3,0-2,.6-.7,1.3-1,2-1.1.3.9.2,1.7-.3,2.4Z"/>
  <path class="st0" d="M44.5,42.3c.7.2,1.2,0,1.8-.7.5-.7.6-1.5.3-2.4-.8.1-1.5.5-2,1.1-.6.7-.6,1.3,0,2ZM45.7,42.1c-.2.2-.4.2-.7.2-.3,0-.5-.1-.6-.3-.2-.2-.2-.4-.2-.7,0-.3.1-.5.3-.7.2-.2.4-.2.7-.2.3,0,.5.1.7.3.2.2.2.4.2.7,0,.3-.1.5-.3.7Z"/>
  <path class="st0" d="M45,42.3c.3,0,.5,0,.7-.2.2-.2.3-.4.3-.7,0-.3,0-.5-.2-.7-.2-.2-.4-.3-.7-.3-.3,0-.5,0-.7.2-.2.2-.3.4-.3.7,0,.3,0,.5.2.7.2.2.4.3.6.3Z"/>
  <path class="st0" d="M39.7,36.2c.1-1.2.1-2,0-2.6-1.4.7-2.3,1.6-2.7,2.6-.3,1-.1,1.8.6,2.3,1.2-.4,1.9-1.1,2-2.3ZM39.6,34c0,.5,0,1.2,0,2.2-.1,1-.7,1.6-1.7,1.9-.6-.4-.8-1-.5-1.9.3-.9,1-1.6,2.2-2.2Z"/>
  <path class="st0" d="M39.5,36.2c.1-1,.1-1.7,0-2.2-1.2.6-1.9,1.3-2.2,2.2-.3.9-.1,1.5.5,1.9,1-.3,1.6-1,1.7-1.9ZM38.7,37.5c-.2.2-.3.2-.6.2-.2,0-.4,0-.5-.2-.2-.2-.2-.3-.2-.6,0-.2,0-.4.2-.6.2-.2.3-.2.6-.2.2,0,.4,0,.6.2.1.2.2.3.2.6,0,.2,0,.4-.2.6Z"/>
  <path class="st0" d="M38.1,37.7c.2,0,.4,0,.6-.2.2-.2.2-.3.2-.6,0-.2,0-.4-.2-.6-.2-.2-.3-.2-.6-.2-.2,0-.4,0-.6.2-.2.2-.2.3-.2.6,0,.2,0,.4.2.6.1.2.3.2.5.2Z"/>
  <path class="st0" d="M59.2,27.7c.5.6,1.3.6,2.4,0,1.1-.6,1.8-1.5,2.1-2.8-1.6,0-2.9.2-3.7.9-.9.7-1.1,1.3-.8,1.9ZM61.5,27.5c-.9.5-1.6.5-2,0-.3-.5,0-1,.6-1.6.7-.6,1.8-.8,3.1-.7-.2,1.1-.8,1.8-1.7,2.3Z"/>
  <path class="st0" d="M59.5,27.5c.4.5,1.1.5,2,0,.9-.5,1.5-1.2,1.7-2.3-1.3,0-2.4.2-3.1.7-.7.6-.9,1.1-.6,1.6ZM60.4,27.8c-.2,0-.4,0-.6,0-.2-.1-.3-.3-.4-.5,0-.2,0-.4,0-.6.1-.2.3-.3.5-.4.2,0,.4,0,.6,0,.2.1.3.3.4.5,0,.2,0,.4,0,.6-.1.2-.3.3-.5.4Z"/>
  <path class="st0" d="M59.8,27.7c.2.1.4.1.6,0,.2,0,.4-.2.5-.4.1-.2.1-.4,0-.6,0-.2-.2-.4-.4-.5-.2,0-.4-.1-.6,0-.2,0-.4.2-.5.4-.1.2-.1.4,0,.6,0,.2.2.4.4.5Z"/>
  <path class="st0" d="M46.5,32.2c0,0-.1,0-.1,0-1,.2-1.8.7-2.4,1.4-.5.6-.7,1.1-.5,1.5,0,.1.1.3.2.4.6.4,1.3.2,1.9-.6.7-.8,1-1.7.9-2.7ZM45.9,32.7s0,0,.1,0c0,.8-.2,1.5-.7,2.2-.5.6-1,.8-1.6.5,0,0-.2-.2-.2-.3-.1-.4,0-.8.4-1.2.5-.6,1.2-.9,2-1.1Z"/>
  <path class="st0" d="M46,32.7s0,0-.1,0c-.8.2-1.5.6-2,1.1-.4.5-.5.9-.4,1.2,0,.1.1.2.2.3.5.3,1,.2,1.6-.5.5-.6.8-1.4.7-2.2ZM44.5,33.9c0,0,.1,0,.2,0,.1,0,.2.1.3.3.1.2.1.4.1.6,0,.2-.1.4-.3.5-.2.1-.4.1-.6.1-.2,0-.4-.1-.5-.3,0,0,0,0,0,0,0-.1,0-.3,0-.5,0-.2.1-.4.3-.5.2-.1.4-.1.6-.1Z"/>
  <path class="st0" d="M44.7,34c0,0-.1,0-.2,0-.2,0-.4,0-.6.1-.2.1-.3.3-.3.5,0,.2,0,.3,0,.5,0,0,0,0,0,0,.1.2.3.3.5.3.2,0,.4,0,.6-.1.2-.1.3-.3.3-.5,0-.2,0-.4-.1-.6,0-.1-.2-.2-.3-.3Z"/>
  <path class="st0" d="M50.2,34.3c.7.4,1.5.3,2.3-.3.8-.6,1.2-1.6,1.1-2.8-1-.1-1.9.1-2.8.7-.9.6-1.1,1.4-.6,2.4ZM52.2,34c-.7.5-1.3.6-1.9.3-.4-.8-.2-1.4.5-1.9.7-.5,1.5-.7,2.3-.6,0,1-.2,1.7-.9,2.3Z"/>
  <path class="st0" d="M50.3,34.2c.6.4,1.2.3,1.9-.3.7-.5,1-1.3.9-2.3-.8,0-1.5.1-2.3.6-.7.5-.9,1.1-.5,1.9ZM51.6,34.3c-.2.1-.5.1-.7,0-.3,0-.4-.3-.6-.5-.1-.2-.1-.5,0-.7,0-.3.3-.4.5-.5.2-.1.5-.1.7,0,.3,0,.4.3.6.5.1.2.1.5,0,.7,0,.3-.3.4-.5.5Z"/>
  <path class="st0" d="M50.8,34.3c.3,0,.5,0,.7,0,.2-.1.4-.3.5-.5s0-.5,0-.7c-.1-.2-.3-.4-.6-.5-.3,0-.5,0-.7,0-.2.1-.4.3-.5.5s0,.5,0,.7c.1.2.3.4.5.5Z"/>
  <path class="st0" d="M43.3,27.2c.6.3,1.3,0,2.1-.8.8-.9,1.1-1.9,1-3.1-1.5.4-2.5,1.1-3,2-.6.9-.6,1.5,0,1.9ZM45.2,26.4c-.7.7-1.3.9-1.8.6-.4-.3-.4-.9,0-1.6.5-.7,1.3-1.3,2.5-1.6.1,1-.1,1.9-.8,2.6Z"/>
  <path class="st0" d="M43.4,27c.5.3,1.1,0,1.8-.6.7-.7.9-1.6.8-2.6-1.2.4-2,.9-2.5,1.6-.5.7-.5,1.3,0,1.6ZM44.3,27c-.2.1-.3.2-.5.1-.2,0-.3-.1-.5-.3-.1-.2-.2-.3-.1-.5,0-.2.1-.3.3-.5.2-.1.3-.1.5-.1.2,0,.4.1.5.3.1.2.1.3.1.5,0,.2-.1.4-.3.5Z"/>
  <path class="st0" d="M43.8,27.1c.2,0,.4,0,.5-.1.2-.1.3-.3.3-.5,0-.2,0-.4-.1-.5-.1-.2-.3-.3-.5-.3-.2,0-.4,0-.5.1-.2.1-.3.3-.3.5,0,.2,0,.4.1.5.1.2.3.3.5.3Z"/>
  <path class="st0" d="M32.5,51.7s0,0,0,.1c-.4.8-.5,1.5-.3,2.3.1.6.4,1,.7,1.1.1,0,.2,0,.4,0,.6-.2.8-.7.6-1.6-.2-.8-.6-1.5-1.3-2ZM32.6,52.4s0,0,0,0c.6.4.9.9,1.1,1.6.1.7,0,1.1-.5,1.3-.1,0-.2,0-.3,0-.3,0-.5-.4-.6-.9-.1-.6,0-1.2.3-1.9Z"/>
  <path class="st0" d="M32.6,52.3s0,0,0,0c-.3.6-.4,1.2-.3,1.9,0,.5.3.8.6.9,0,0,.2,0,.3,0,.5-.2.6-.6.5-1.3-.1-.7-.5-1.2-1.1-1.6ZM32.6,53.9s0,0,.1,0c0,0,.2,0,.3,0,.2,0,.3,0,.4.2.1.1.2.3.1.4,0,.2,0,.3-.2.4-.1.1-.3.2-.5.1,0,0,0,0,0,0-.1,0-.2,0-.3-.2-.1-.1-.2-.3-.1-.5,0-.2,0-.3.2-.4Z"/>
  <path class="st0" d="M32.7,53.9s0,0-.1,0c-.1.1-.2.2-.2.4,0,.2,0,.3.1.5,0,.1.2.2.3.2,0,0,0,0,0,0,.2,0,.3,0,.5-.1.1-.1.2-.2.2-.4,0-.2,0-.3-.1-.4-.1-.1-.3-.2-.4-.2-.1,0-.2,0-.3,0Z"/>
  <path class="st0" d="M55,23.5c0,0-.1,0-.2,0-1,0-1.9.2-2.7.7-.6.4-.9.9-.9,1.3,0,.1,0,.3.1.4.5.6,1.2.5,2,0,.8-.6,1.4-1.4,1.6-2.4ZM54.3,23.8s0,0,.1,0c-.2.8-.6,1.4-1.3,1.9-.7.5-1.2.5-1.6,0,0-.1-.1-.2-.1-.3,0-.4.2-.7.7-1.1.6-.4,1.4-.6,2.2-.6Z"/>
  <path class="st0" d="M54.4,23.8s0,0-.1,0c-.8,0-1.6.2-2.2.6-.5.3-.7.7-.7,1.1,0,.1,0,.2.1.3.4.4.9.4,1.6,0,.7-.5,1.1-1.1,1.3-1.9ZM52.6,24.6c0,0,.1,0,.2,0,.1,0,.2.2.2.3,0,.2,0,.4,0,.6,0,.2-.2.3-.4.4-.2,0-.4,0-.6,0-.2,0-.3-.2-.4-.4,0,0,0,0,0-.1,0-.2,0-.3,0-.5,0-.2.2-.3.4-.4.2,0,.4,0,.6,0Z"/>
  <path class="st0" d="M52.8,24.7s0,0-.2,0c-.2,0-.4-.1-.6,0-.2,0-.3.2-.4.4,0,.1,0,.3,0,.5,0,0,0,0,0,.1,0,.2.2.3.4.4.2,0,.4.1.6,0,.2,0,.3-.2.4-.4,0-.2.1-.4,0-.6,0-.1-.1-.2-.2-.3Z"/>
  <path class="st0" d="M36.6,47.7c-.2-1-.5-1.8-.9-2.4-1.1,1.2-1.6,2.2-1.6,3.2,0,.9.5,1.5,1.3,1.7,1-.6,1.5-1.5,1.2-2.5ZM35.6,45.8c.3.5.6,1.1.8,1.9.2.8-.2,1.5-1,2-.6-.2-1-.6-1-1.4,0-.8.4-1.6,1.3-2.6Z"/>
  <path class="st0" d="M36.4,47.8c-.2-.8-.4-1.5-.8-1.9-.9.9-1.3,1.8-1.3,2.6,0,.8.4,1.2,1,1.4.8-.5,1.2-1.2,1-2ZM35.9,49.1c0,.2-.2.3-.4.3-.2,0-.4,0-.5,0-.2,0-.3-.2-.3-.4,0-.2,0-.4,0-.5,0-.2.2-.3.4-.3.2,0,.4,0,.5,0,.2,0,.3.2.3.4,0,.2,0,.4,0,.5Z"/>
  <path class="st0" d="M35.5,49.4c.2,0,.3-.2.4-.3,0-.2.1-.3,0-.5,0-.2-.2-.3-.3-.4-.2,0-.4-.1-.5,0-.2,0-.3.2-.4.3,0,.2-.1.3,0,.5,0,.2.2.3.3.4.2,0,.3.1.5,0Z"/>
  <path class="st0" d="M50.9,10c0,0-.1,0-.1,0-1,.2-1.8.7-2.4,1.4-.5.6-.7,1.1-.5,1.5,0,.1.1.3.2.4.6.4,1.3.2,1.9-.6.7-.8,1-1.7.9-2.7ZM50.3,10.5s0,0,.1,0c0,.8-.2,1.5-.7,2.2-.5.6-1,.8-1.6.5,0,0-.2-.2-.2-.3-.1-.4,0-.8.4-1.2.5-.6,1.2-.9,2-1.1Z"/>
  <path class="st0" d="M50.4,10.5s0,0-.1,0c-.8.2-1.5.6-2,1.1-.4.5-.5.9-.4,1.2,0,.1.1.2.2.3.5.3,1,.2,1.6-.5.5-.6.8-1.4.7-2.2ZM48.9,11.7c0,0,.1,0,.2,0,.1,0,.2.1.3.3.1.2.1.4.1.6,0,.2-.1.4-.3.5-.2.1-.4.1-.6.1-.2,0-.4-.1-.5-.3,0,0,0,0,0,0,0-.1,0-.3,0-.5,0-.2.1-.4.3-.5.2-.1.4-.1.6-.1Z"/>
  <path class="st0" d="M49,11.8c0,0-.1,0-.2,0-.2,0-.4,0-.6.1-.2.1-.3.3-.3.5,0,.2,0,.3,0,.5,0,0,0,0,0,0,.1.2.3.3.5.3.2,0,.4,0,.6-.1.2-.1.3-.3.3-.5,0-.2,0-.4-.1-.6,0-.1-.2-.2-.3-.3Z"/>
  <path class="st0" d="M66.2,17.6s0,0-.1,0c-1-.3-1.9-.3-2.8,0-.7.2-1.1.6-1.2,1.1,0,.1,0,.3,0,.4.3.7,1,.8,2,.5,1-.4,1.7-1,2.2-2ZM65.4,17.8s0,0,.1,0c-.4.7-.9,1.3-1.7,1.6-.8.3-1.3.2-1.6-.4,0-.1,0-.2,0-.4,0-.4.4-.7,1-.9.7-.2,1.5-.2,2.3,0Z"/>
  <path class="st0" d="M65.5,17.9s0,0-.1,0c-.8-.2-1.6-.2-2.3,0-.6.2-.9.5-1,.9,0,.1,0,.2,0,.4.3.5.8.7,1.6.4.8-.3,1.4-.8,1.7-1.6ZM63.6,18.1s0,0,.1.1c0,.1.1.2.1.4,0,.2,0,.4-.2.5-.1.2-.3.2-.5.3-.2,0-.4,0-.5-.2-.2-.1-.2-.3-.3-.5,0,0,0,0,0-.1,0-.2,0-.3.2-.4.1-.2.3-.2.5-.2.2,0,.4,0,.5.2Z"/>
  <path class="st0" d="M63.7,18.3s0,0-.1-.1c-.2-.1-.3-.2-.5-.2-.2,0-.4,0-.5.2-.1.1-.2.3-.2.4,0,0,0,0,0,.1,0,.2,0,.4.3.5.2.1.3.2.5.2.2,0,.4,0,.5-.3.1-.2.2-.3.2-.5,0-.1,0-.3-.1-.4Z"/>
  <path class="st0" d="M33.9,38s0,0-.1.1c-.7.7-1.1,1.6-1.2,2.5-.1.7,0,1.2.4,1.5.1,0,.2.1.4.2.7,0,1.2-.5,1.3-1.5,0-1-.2-1.9-.8-2.7ZM33.7,38.8s0,0,0,0c.5.6.7,1.4.6,2.2,0,.8-.4,1.2-1,1.2-.1,0-.2,0-.3-.1-.3-.2-.4-.6-.3-1.2.1-.7.4-1.4,1-2Z"/>
  <path class="st0" d="M33.8,38.7s0,0,0,0c-.5.6-.9,1.3-1,2,0,.6,0,1,.3,1.2,0,0,.2.1.3.1.6,0,.9-.4,1-1.2,0-.8-.1-1.5-.6-2.2ZM33.2,40.5c0,0,.1,0,.2,0,.1,0,.3,0,.4,0,.2,0,.3.2.4.4,0,.2,0,.4,0,.6,0,.2-.2.3-.4.4s-.4,0-.6,0c0,0,0,0,0,0-.1,0-.2-.2-.3-.4,0-.2,0-.4,0-.6,0-.2.2-.3.4-.4Z"/>
  <path class="st0" d="M33.3,40.5c0,0-.1,0-.2,0-.2,0-.3.2-.4.4,0,.2,0,.4,0,.6,0,.2.2.3.3.4,0,0,0,0,0,0,.2,0,.4,0,.6,0,.2,0,.3-.2.4-.4,0-.2,0-.4,0-.6,0-.2-.2-.3-.4-.4-.1,0-.3,0-.4,0Z"/>
  <path class="st0" d="M57.2,14.6c0,0-.1,0-.2,0-1.2,0-2.3.3-3.3.9-.8.5-1.1,1-1,1.6,0,.2,0,.3.2.5.6.7,1.4.6,2.4,0,1-.7,1.7-1.7,1.9-2.9ZM56.3,15s0,0,.1,0c-.2,1-.7,1.8-1.5,2.3-.8.6-1.5.6-2,0,0-.1-.1-.3-.1-.4,0-.5.2-.9.8-1.3.8-.5,1.6-.7,2.6-.7Z"/>
  <path class="st0" d="M56.5,15s0,0-.1,0c-1,0-1.9.2-2.6.7-.6.4-.9.8-.8,1.3,0,.1,0,.3.1.4.5.5,1.1.5,2,0,.8-.6,1.3-1.4,1.5-2.3ZM54.3,16c0,0,.1,0,.2.1.1.1.2.2.3.4,0,.2,0,.5,0,.7-.1.2-.3.4-.5.5-.2,0-.5,0-.7,0-.2-.1-.4-.3-.5-.5,0,0,0,0,0-.1,0-.2,0-.4,0-.6.1-.2.3-.4.5-.4.2,0,.5,0,.7,0Z"/>
  <path class="st0" d="M54.5,16.1c0,0-.1,0-.2-.1-.2-.1-.5-.1-.7,0-.2,0-.4.2-.5.4,0,.2-.1.4,0,.6,0,0,0,0,0,.1,0,.2.2.4.5.5.2.1.5.1.7,0,.2,0,.4-.2.5-.5.1-.2.1-.5,0-.7,0-.2-.1-.3-.3-.4Z"/>
  <path class="st0" d="M30.9,45.5s0,0,0,.1c-.5.8-.7,1.6-.6,2.4,0,.7.3,1.1.6,1.3.1,0,.2,0,.4,0,.7-.1.9-.7.8-1.6,0-.9-.5-1.7-1.2-2.3ZM30.8,46.2s0,0,0,0c.5.5.9,1.1.9,1.8,0,.7-.2,1.1-.7,1.3-.1,0-.2,0-.3,0-.3-.1-.5-.5-.5-1,0-.7.1-1.3.5-1.9Z"/>
  <path class="st0" d="M30.9,46.1s0,0,0,0c-.4.6-.6,1.3-.5,1.9,0,.5.2.9.5,1,0,0,.2,0,.3,0,.5-.1.7-.5.7-1.3,0-.7-.4-1.3-.9-1.8ZM30.7,47.8s0,0,.1,0c.1,0,.2,0,.4,0,.2,0,.3.1.4.3.1.2.1.3,0,.5,0,.2-.1.3-.3.4-.2,0-.3.1-.5,0,0,0,0,0,0,0-.1,0-.2-.1-.3-.3,0-.1-.1-.3,0-.5,0-.2.1-.3.3-.4Z"/>
  <path class="st0" d="M30.8,47.7s0,0-.1,0c-.1.1-.2.2-.3.4,0,.2,0,.3,0,.5,0,.1.2.2.3.3,0,0,0,0,0,0,.2,0,.3,0,.5,0,.2,0,.2-.2.3-.4,0-.2,0-.3,0-.5-.1-.2-.2-.2-.4-.3-.1,0-.2,0-.4,0Z"/>
  <path class="st0" d="M37.5,28.3s0,0-.1,0c-.9.5-1.6,1.2-2,2-.3.7-.4,1.2,0,1.6,0,.1.2.2.3.3.7.2,1.3-.1,1.7-1.1.4-.9.5-1.9.2-2.9ZM37.1,29s0,0,.1,0c.3.8.2,1.5-.1,2.3-.3.8-.8,1-1.4.9-.1,0-.2-.1-.3-.2-.2-.3-.2-.7,0-1.3.3-.7.9-1.2,1.6-1.6Z"/>
  <path class="st0" d="M37.2,29s0,0-.1,0c-.7.4-1.3.9-1.6,1.6-.3.5-.3,1,0,1.3,0,0,.2.2.3.2.6.2,1-.1,1.4-.9.3-.8.4-1.5.1-2.3ZM36.1,30.5c0,0,.1,0,.2,0,.1,0,.3,0,.4.2.2.1.2.3.2.5,0,.2,0,.4-.2.5-.1.2-.3.2-.5.2-.2,0-.4,0-.5-.2,0,0,0,0,0,0-.1-.1-.2-.3-.2-.4,0-.2,0-.4.2-.5.1-.2.3-.2.5-.2Z"/>
  <path class="st0" d="M36.2,30.5c0,0-.1,0-.2,0-.2,0-.4,0-.5.2-.1.2-.2.3-.2.5,0,.2,0,.3.2.4,0,0,0,0,0,0,.2.1.3.2.5.2.2,0,.4,0,.5-.2.1-.2.2-.3.2-.5,0-.2,0-.4-.2-.5-.1,0-.2-.2-.4-.2Z"/>
  <path class="st0" d="M44.2,17.5c0,0-.1,0-.1,0-1,.2-1.8.7-2.4,1.4-.5.6-.7,1.1-.5,1.5,0,.1.1.3.2.4.6.4,1.3.2,1.9-.6.7-.8,1-1.7.9-2.7ZM43.6,18s0,0,.1,0c0,.8-.2,1.5-.7,2.2-.5.6-1,.8-1.6.5,0,0-.2-.2-.2-.3-.1-.4,0-.8.4-1.2.5-.6,1.2-.9,2-1.1Z"/>
  <path class="st0" d="M43.8,18s0,0-.1,0c-.8.2-1.5.6-2,1.1-.4.5-.5.9-.4,1.2,0,.1.1.2.2.3.5.3,1,.2,1.6-.5.5-.6.8-1.4.7-2.2ZM42.2,19.2c0,0,.1,0,.2,0,.1,0,.2.1.3.3.1.2.1.4.1.6,0,.2-.1.4-.3.5-.2.1-.4.1-.6.1-.2,0-.4-.1-.5-.3,0,0,0,0,0,0,0-.1,0-.3,0-.5,0-.2.1-.4.3-.5.2-.1.4-.1.6-.1Z"/>
  <path class="st0" d="M42.4,19.3c0,0-.1,0-.2,0-.2,0-.4,0-.6.1-.2.1-.3.3-.3.5,0,.2,0,.3,0,.5,0,0,0,0,0,0,.1.2.3.3.5.3.2,0,.4,0,.6-.1.2-.1.3-.3.3-.5,0-.2,0-.4-.1-.6,0-.1-.2-.2-.3-.3Z"/>
  <path class="st0" d="M27.3,51.4s0,0,0,.1c-.2.8-.2,1.6,0,2.4.2.6.5.9.9,1,.1,0,.2,0,.4,0,.6-.3.7-.8.4-1.7-.3-.8-.9-1.4-1.6-1.8ZM27.4,52.1s0,0,0,0c.6.3,1.1.8,1.3,1.4.2.7.1,1.1-.3,1.3-.1,0-.2,0-.3,0-.3,0-.6-.3-.7-.8-.2-.6-.2-1.2,0-1.9Z"/>
  <path class="st0" d="M27.4,52s0,0,0,0c-.2.7-.2,1.3,0,1.9.2.5.4.8.7.8,0,0,.2,0,.3,0,.5-.2.6-.7.3-1.3-.2-.7-.7-1.1-1.3-1.4ZM27.7,53.6s0,0,.1-.1c0,0,.2-.1.3-.1.2,0,.3,0,.5.2.1.1.2.3.2.4,0,.2,0,.3-.2.5-.1.1-.3.2-.4.2,0,0,0,0,0,0-.1,0-.3,0-.4-.2-.1-.1-.2-.3-.2-.4,0-.2,0-.3.2-.4Z"/>
  <path class="st0" d="M27.8,53.5s0,0-.1.1c-.1.1-.2.3-.2.4,0,.2,0,.3.2.4.1,0,.2.1.4.2,0,0,0,0,0,0,.2,0,.3,0,.4-.2.1-.1.2-.3.2-.5,0-.2,0-.3-.2-.4-.1-.1-.3-.2-.5-.2-.1,0-.2,0-.3.1Z"/>
  <path class="st0" d="M22.5,39.9c.7-.5.8-1.2.6-2.2-.3-1-1-1.7-2.2-2-.4.8-.6,1.8-.3,2.8.2,1,.9,1.5,1.9,1.4ZM22.9,37.8c.2.8,0,1.5-.5,1.9-.9,0-1.4-.3-1.6-1.2-.2-.8-.1-1.6.3-2.3,1,.3,1.5.8,1.8,1.7Z"/>
  <path class="st0" d="M22.4,39.6c.5-.4.7-1,.5-1.9-.2-.8-.8-1.4-1.8-1.7-.4.7-.5,1.5-.3,2.3.2.8.7,1.2,1.6,1.2ZM22.9,38.5c0,.3,0,.5-.2.7-.2.2-.4.3-.7.3-.3,0-.5,0-.7-.2-.2-.2-.3-.4-.3-.7,0-.3,0-.5.2-.7.2-.2.4-.3.7-.3.3,0,.5,0,.7.2.2.2.3.4.3.7Z"/>
  <path class="st0" d="M22.7,39.2c.2-.2.3-.4.2-.7,0-.3-.1-.5-.3-.7-.2-.2-.4-.3-.7-.2-.3,0-.5.1-.7.3-.2.2-.3.4-.2.7,0,.3.1.5.3.7.2.2.4.3.7.2.3,0,.5-.1.7-.3Z"/>
  <path class="st0" d="M29.3,32s0,0-.1.1c-.7.7-1.1,1.6-1.2,2.5-.1.7,0,1.2.4,1.5.1,0,.2.1.4.2.7,0,1.2-.5,1.3-1.5,0-1-.2-1.9-.8-2.7ZM29.1,32.7s0,0,0,0c.5.6.7,1.4.6,2.2,0,.8-.4,1.2-1,1.2-.1,0-.2,0-.3-.1-.3-.2-.4-.6-.3-1.2.1-.7.4-1.4,1-2Z"/>
  <path class="st0" d="M29.2,32.6s0,0,0,0c-.5.6-.9,1.3-1,2,0,.6,0,1,.3,1.2,0,0,.2.1.3.1.6,0,.9-.4,1-1.2,0-.8-.1-1.5-.6-2.2ZM28.6,34.4c0,0,.1,0,.2,0,.1,0,.3,0,.4,0,.2,0,.3.2.4.4,0,.2,0,.4,0,.6,0,.2-.2.3-.4.4-.2,0-.4,0-.6,0,0,0,0,0,0,0-.1,0-.2-.2-.3-.4,0-.2,0-.4,0-.6,0-.2.2-.3.4-.4Z"/>
  <path class="st0" d="M28.8,34.4c0,0-.1,0-.2,0-.2,0-.3.2-.4.4,0,.2,0,.4,0,.6,0,.2.2.3.3.4,0,0,0,0,0,0,.2,0,.4,0,.6,0,.2,0,.3-.2.4-.4,0-.2,0-.4,0-.6,0-.2-.2-.3-.4-.4-.1,0-.3,0-.4,0Z"/>
  <path class="st0" d="M25.6,28.3s0,0,0,.1c-.5.9-.8,1.8-.7,2.7,0,.8.3,1.2.7,1.4.1,0,.3,0,.4,0,.7-.2,1.1-.7,1-1.8-.1-1-.5-1.9-1.3-2.6ZM25.5,29.1s0,0,0-.1c.6.5,1,1.2,1.1,2.1,0,.8-.2,1.3-.8,1.4-.1,0-.2,0-.3,0-.4-.1-.5-.5-.6-1.1,0-.7.2-1.5.6-2.2Z"/>
  <path class="st0" d="M25.6,29s0,0,0,.1c-.4.7-.6,1.4-.6,2.2,0,.6.2,1,.6,1.1.1,0,.2,0,.3,0,.6-.1.8-.6.8-1.4,0-.8-.4-1.5-1.1-2.1ZM25.4,30.9c0,0,.1,0,.2,0,.1,0,.3,0,.4,0,.2,0,.4.1.5.3.1.2.2.4.1.6,0,.2-.2.4-.3.5-.2.1-.4.1-.6.1,0,0,0,0-.1,0-.2,0-.3-.2-.4-.3-.1-.2-.1-.4-.1-.6,0-.2.1-.4.3-.5Z"/>
  <path class="st0" d="M25.5,30.9c0,0-.1,0-.2,0-.2.1-.3.3-.3.5,0,.2,0,.4.1.6,0,.1.2.2.4.3,0,0,0,0,.1,0,.2,0,.4,0,.6-.1.2-.1.3-.3.3-.5,0-.2,0-.4-.1-.6-.1-.2-.3-.3-.5-.3-.1,0-.3,0-.4,0Z"/>
  <path class="st0" d="M28.6,42c-.4-.9-.7-1.5-1-1.9-.7,1.1-1,2.1-.8,2.9.2.9.6,1.3,1.4,1.4.7-.8.9-1.6.5-2.4ZM27.6,40.5c.2.3.5.9.9,1.6.3.7.2,1.4-.4,2.1-.6,0-1-.4-1.1-1.2-.2-.7,0-1.6.7-2.5Z"/>
  <path class="st0" d="M28.4,42.1c-.3-.7-.6-1.3-.9-1.6-.6.9-.8,1.7-.7,2.5.2.7.5,1.1,1.1,1.2.6-.6.7-1.3.4-2.1ZM28.4,43.4c0,.2-.2.3-.3.4-.2,0-.3.1-.5,0-.2,0-.3-.2-.4-.3,0-.2-.1-.3,0-.5,0-.2.1-.3.3-.4.2,0,.3-.1.5,0,.2,0,.3.2.4.3,0,.2.1.3,0,.5Z"/>
  <path class="st0" d="M28.1,43.8c.2,0,.3-.2.3-.4,0-.2,0-.3,0-.5,0-.2-.2-.3-.4-.3-.2,0-.3,0-.5,0-.2,0-.3.2-.3.4,0,.2,0,.3,0,.5,0,.2.2.3.4.3.2,0,.3,0,.5,0Z"/>
  <path class="st0" d="M34.4,25.8c.7.2,1.3-.3,1.9-1.3.6-1,.6-2.1.1-3.3-1.3.8-2.1,1.7-2.4,2.7-.3,1-.2,1.6.4,1.9ZM36,24.5c-.5.9-1,1.2-1.5,1.1-.5-.2-.6-.7-.3-1.6.3-.8.9-1.6,2-2.2.4,1,.4,1.9,0,2.7Z"/>
  <path class="st0" d="M34.5,25.6c.6.1,1.1-.2,1.5-1.1.5-.9.5-1.8,0-2.7-1.1.7-1.7,1.4-2,2.2-.3.8-.1,1.4.3,1.6ZM35.3,25.3c-.1.2-.3.2-.5.3-.2,0-.4,0-.5-.2-.2-.1-.2-.3-.3-.5,0-.2,0-.4.2-.5.1-.1.3-.2.5-.3.2,0,.4,0,.5.2.1.1.2.3.2.5,0,.2,0,.4-.2.5Z"/>
  <path class="st0" d="M34.8,25.5c.2,0,.4,0,.5-.3.1-.1.2-.3.2-.5,0-.2,0-.4-.2-.5-.2-.1-.3-.2-.5-.2-.2,0-.4.1-.5.3-.1.2-.2.3-.2.5,0,.2.1.4.3.5.1.1.3.2.5.2Z"/>
  <path class="st0" d="M30.4,22.8s0,0-.1.1c-.7.7-1.2,1.5-1.4,2.4-.2.7,0,1.3.3,1.6.1,0,.2.2.4.2.8,0,1.2-.5,1.4-1.5.2-1,0-2-.6-2.8ZM30.1,23.5s0,0,0,0c.5.7.6,1.4.5,2.3-.1.8-.5,1.2-1.1,1.2-.1,0-.2,0-.3-.2-.3-.2-.4-.6-.3-1.2.2-.7.5-1.4,1.1-2Z"/>
  <path class="st0" d="M30.2,23.5s0,0,0,0c-.6.6-1,1.2-1.1,2-.1.6,0,1,.3,1.2,0,0,.2.1.3.2.6,0,1-.4,1.1-1.2.1-.8,0-1.6-.5-2.3ZM29.5,25.3c0,0,.1,0,.2,0,.1,0,.3,0,.4,0,.2,0,.3.2.4.4,0,.2,0,.4,0,.6,0,.2-.2.3-.4.4-.2,0-.4,0-.6,0,0,0,0,0,0,0-.1,0-.2-.2-.3-.4,0-.2,0-.4,0-.6,0-.2.2-.3.4-.4Z"/>
  <path class="st0" d="M29.7,25.2c0,0-.1,0-.2,0-.2,0-.3.2-.4.4,0,.2-.1.4,0,.6,0,.2.1.3.3.4,0,0,0,0,0,0,.2,0,.4.1.6,0,.2,0,.3-.2.4-.4,0-.2.1-.4,0-.6,0-.2-.2-.3-.4-.4-.1,0-.3,0-.4,0Z"/>
  <path class="st0" d="M38,7c0,0-.1,0-.2,0-1,.2-1.8.7-2.5,1.4-.5.6-.7,1.1-.5,1.5,0,.1.1.3.2.4.6.4,1.3.2,2-.6.7-.8,1-1.7.9-2.8ZM37.4,7.6s0,0,.1,0c0,.8-.2,1.6-.7,2.2-.5.6-1.1.8-1.6.5,0,0-.2-.2-.2-.3-.1-.4,0-.8.4-1.2.5-.6,1.2-.9,2-1.1Z"/>
  <path class="st0" d="M37.5,7.5s0,0-.1,0c-.8.2-1.5.6-2,1.1-.4.5-.5.9-.4,1.2,0,.1.1.2.2.3.5.3,1,.2,1.6-.5.5-.7.8-1.4.7-2.2ZM35.9,8.7c0,0,.1,0,.2,0,.1,0,.2.1.3.3.1.2.2.4.1.6,0,.2-.1.4-.3.5-.2.1-.4.2-.6.1-.2,0-.4-.2-.5-.3,0,0,0,0,0,0,0-.1,0-.3,0-.5,0-.2.2-.4.3-.5.2-.1.4-.1.6-.1Z"/>
  <path class="st0" d="M36.1,8.8c0,0-.1,0-.2,0-.2,0-.4,0-.6.1-.2.1-.3.3-.3.5,0,.2,0,.3,0,.5,0,0,0,0,0,0,.1.2.3.3.5.3.2,0,.4,0,.6-.1.2-.1.3-.3.3-.5,0-.2,0-.4-.1-.6,0-.1-.2-.2-.3-.3Z"/>
  <path class="st0" d="M23.1,54.6s0,0,0,.1c-.3,1-.3,1.9,0,2.8.2.7.6,1.1,1.1,1.2.1,0,.3,0,.4,0,.7-.3.8-1,.5-2-.4-1-1-1.7-1.9-2.1ZM23.3,55.4s0,0,0-.1c.7.4,1.3.9,1.5,1.7.3.8.2,1.3-.4,1.6-.1,0-.2,0-.4,0-.4,0-.7-.4-.9-.9-.2-.7-.2-1.5,0-2.2Z"/>
  <path class="st0" d="M23.3,55.2s0,0,0,.1c-.2.8-.2,1.5,0,2.2.2.6.5.9.9.9.1,0,.2,0,.4,0,.5-.3.7-.8.4-1.6-.3-.8-.8-1.3-1.5-1.7ZM23.6,57.2s0,0,.1-.1c.1,0,.2-.1.4-.1.2,0,.4,0,.5.2.2.1.2.3.3.5,0,.2,0,.4-.2.5-.1.2-.3.2-.5.2,0,0,0,0-.1,0-.2,0-.3,0-.4-.2-.2-.1-.2-.3-.2-.5,0-.2,0-.4.2-.5Z"/>
  <path class="st0" d="M23.7,57s0,0-.1.1c-.1.2-.2.3-.2.5,0,.2,0,.4.2.5.1.1.3.2.4.2,0,0,0,0,.1,0,.2,0,.4,0,.5-.2.1-.2.2-.3.2-.5,0-.2,0-.4-.3-.5-.2-.1-.3-.2-.5-.2-.1,0-.3,0-.4.1Z"/>
  <path class="st0" d="M75.2,44s0,0-.1,0c-.9-.2-1.8,0-2.6.3-.6.3-1,.7-1,1.1,0,.1,0,.3,0,.4.4.6,1,.6,1.9.2.9-.4,1.4-1.1,1.8-2ZM74.5,44.3s0,0,.1,0c-.3.7-.7,1.2-1.4,1.6-.7.3-1.2.3-1.5-.2,0-.1,0-.2,0-.3,0-.4.3-.6.8-.9.6-.3,1.3-.4,2.1-.2Z"/>
  <path class="st0" d="M74.6,44.3s0,0-.1,0c-.8-.1-1.4,0-2.1.2-.5.2-.8.5-.8.9,0,.1,0,.2,0,.3.3.5.8.5,1.5.2.7-.4,1.2-.9,1.4-1.6ZM72.9,44.8s0,0,.1.1c0,0,.1.2.2.3,0,.2,0,.4-.1.5-.1.2-.3.3-.4.3-.2,0-.4,0-.5-.1-.2-.1-.3-.3-.3-.4,0,0,0,0,0,0,0-.2,0-.3.1-.4.1-.2.3-.2.4-.3.2,0,.4,0,.5.1Z"/>
  <path class="st0" d="M73,44.9s0,0-.1-.1c-.2-.1-.3-.1-.5-.1-.2,0-.3.1-.4.3,0,.1-.1.3-.1.4,0,0,0,0,0,0,0,.2.1.3.3.4.2.1.3.1.5.1.2,0,.3-.1.4-.3.1-.2.1-.3.1-.5,0-.1,0-.2-.2-.3Z"/>
  <path class="st0" d="M58.1,52c.6.6,1.3.7,2.3.3,1-.4,1.6-1.2,1.8-2.3-.9-.4-1.8-.4-2.8,0-1,.3-1.4,1-1.2,2ZM60.3,52.2c-.8.3-1.4.2-1.9-.3-.1-.8.2-1.4,1-1.7.8-.3,1.6-.3,2.3,0-.2,1-.7,1.6-1.5,1.9Z"/>
  <path class="st0" d="M58.4,51.9c.5.5,1.1.6,1.9.3.8-.3,1.3-1,1.5-1.9-.7-.3-1.5-.3-2.3,0-.8.3-1.2.8-1,1.7ZM59.6,52.3c-.3,0-.5,0-.7-.2-.2-.2-.3-.4-.4-.6,0-.3,0-.5.2-.7.2-.2.4-.3.6-.4.3,0,.5,0,.7.2.2.2.3.4.4.6,0,.3,0,.5-.2.7-.2.2-.4.3-.6.4Z"/>
  <path class="st0" d="M58.8,52.2c.2.2.5.2.7.2.3,0,.5-.2.6-.4.2-.2.2-.5.2-.7,0-.3-.2-.5-.4-.6-.2-.2-.5-.2-.7-.2-.3,0-.5.2-.6.4-.2.2-.2.5-.2.7,0,.3.2.5.4.6Z"/>
  <path class="st0" d="M18.9,26.6c-.7-.6-1.3-1.1-1.7-1.3-.3,1.3-.1,2.3.4,3,.5.7,1.1,1,1.8.7.4-1,.2-1.8-.5-2.4ZM17.4,25.6c.3.2.8.6,1.4,1.1.6.5.7,1.2.4,2-.6.2-1.1,0-1.5-.6-.4-.6-.5-1.5-.3-2.5Z"/>
  <path class="st0" d="M18.8,26.8c-.6-.5-1-.9-1.4-1.1-.2,1.1,0,1.9.3,2.5.4.6.9.8,1.5.6.3-.8.1-1.5-.4-2ZM19.3,28c0,.2,0,.3-.1.5-.1.1-.2.2-.4.2-.2,0-.3,0-.5-.1-.1-.1-.2-.3-.2-.4,0-.2,0-.3.1-.5.1-.1.3-.2.4-.2.2,0,.3,0,.5.1.1.1.2.3.2.4Z"/>
  <path class="st0" d="M19.1,28.4c.1-.1.2-.3.1-.5,0-.2-.1-.3-.2-.4-.1-.1-.3-.2-.5-.1-.2,0-.3.1-.4.2-.1.1-.1.3-.1.5,0,.2.1.3.2.4.1.1.3.1.5.1.2,0,.3,0,.4-.2Z"/>
  <path class="st0" d="M14.3,39.1c0,0,0,0,0,.1.2,1,.6,1.8,1.2,2.5.5.5,1,.7,1.5.6.1,0,.3-.1.4-.2.4-.6.3-1.2-.5-1.9-.8-.7-1.6-1-2.6-1ZM14.8,39.7s0,0,0-.1c.8,0,1.5.3,2.1.8.6.6.7,1.1.4,1.5,0,0-.2.1-.3.2-.4.1-.7,0-1.2-.5-.5-.5-.8-1.2-1-2Z"/>
  <path class="st0" d="M14.7,39.6s0,0,0,.1c.1.8.5,1.5,1,2,.4.4.8.6,1.2.5.1,0,.2,0,.3-.2.4-.5.2-1-.4-1.5-.6-.6-1.3-.8-2.1-.8ZM15.8,41.2c0,0,0-.1,0-.2,0-.1.2-.2.3-.3.2-.1.4-.1.6,0,.2,0,.3.2.4.3.1.2.1.4,0,.6,0,.2-.2.3-.3.4,0,0,0,0,0,0-.1,0-.3,0-.5,0-.2,0-.3-.2-.4-.3,0-.2-.1-.4,0-.5Z"/>
  <path class="st0" d="M15.9,41s0,.1,0,.2c0,.2,0,.4,0,.5.1.2.2.3.4.3.2,0,.3,0,.5,0,0,0,0,0,0,0,.2-.1.3-.2.3-.4,0-.2,0-.4,0-.6,0-.2-.2-.3-.4-.3-.2,0-.4,0-.6,0-.1,0-.2.2-.3.3Z"/>
  <path class="st0" d="M10.9,29.5c0,0,0,.1,0,.2.1,1,.5,1.9,1.1,2.6.5.6,1,.8,1.4.7.1,0,.3-.1.4-.2.5-.6.4-1.2-.3-2-.7-.8-1.6-1.2-2.6-1.2ZM11.3,30.2s0,0,0-.1c.8,0,1.5.4,2.1,1,.6.6.7,1.1.3,1.6-.1,0-.2.1-.3.2-.4,0-.8,0-1.2-.5-.5-.6-.8-1.3-.9-2.1Z"/>
  <path class="st0" d="M11.3,30.1s0,0,0,.1c0,.8.4,1.5.9,2.1.4.5.8.6,1.2.5.1,0,.2,0,.3-.2.4-.5.3-1-.3-1.6-.6-.6-1.3-.9-2.1-1ZM12.3,31.7c0,0,0-.1,0-.2,0-.1.2-.2.3-.3.2,0,.4-.1.6,0,.2,0,.3.2.4.4,0,.2.1.4,0,.6,0,.2-.2.3-.4.4,0,0,0,0,0,0-.2,0-.3,0-.5,0-.2,0-.3-.2-.4-.4,0-.2-.1-.4,0-.6Z"/>
  <path class="st0" d="M12.4,31.6s0,.1,0,.2c0,.2,0,.4,0,.6,0,.2.2.3.4.4.2,0,.3,0,.5,0,0,0,0,0,0,0,.2,0,.3-.2.4-.4,0-.2,0-.4,0-.6,0-.2-.2-.3-.4-.4-.2,0-.4,0-.6,0-.1,0-.2.2-.3.3Z"/>
  <path class="st0" d="M21,14.1s0,0-.1.1c-.7.7-1.2,1.5-1.4,2.4-.2.7,0,1.3.3,1.6.1,0,.2.2.4.2.8,0,1.2-.5,1.4-1.5.2-1,0-2-.6-2.8ZM20.8,14.8s0,0,0,0c.5.7.6,1.4.5,2.3-.1.8-.5,1.2-1.1,1.2-.1,0-.2,0-.3-.2-.3-.2-.4-.6-.3-1.2.2-.7.5-1.4,1.1-2Z"/>
  <path class="st0" d="M20.9,14.7s0,0,0,0c-.6.6-1,1.2-1.1,2-.1.6,0,1,.3,1.2,0,0,.2.1.3.2.6,0,1-.4,1.1-1.2.1-.8,0-1.6-.5-2.3ZM20.2,16.5c0,0,.1,0,.2,0,.1,0,.3,0,.4,0,.2,0,.3.2.4.4,0,.2,0,.4,0,.6,0,.2-.2.3-.4.4-.2,0-.4,0-.6,0,0,0,0,0,0,0-.1,0-.2-.2-.3-.4,0-.2,0-.4,0-.6,0-.2.2-.3.4-.4Z"/>
  <path class="st0" d="M20.3,16.5c0,0-.1,0-.2,0-.2,0-.3.2-.4.4,0,.2-.1.4,0,.6,0,.2.1.3.3.4,0,0,0,0,0,0,.2,0,.4.1.6,0,.2,0,.3-.2.4-.4,0-.2.1-.4,0-.6,0-.2-.2-.3-.4-.4-.1,0-.3,0-.4,0Z"/>
  <path class="st0" d="M26.1,19.5s0,0-.1.1c-.7.7-1.2,1.5-1.4,2.4-.2.7,0,1.3.3,1.6.1,0,.2.2.4.2.8,0,1.2-.5,1.4-1.5.2-1,0-2-.6-2.8ZM25.9,20.2s0,0,0,0c.5.7.6,1.4.5,2.3-.1.8-.5,1.2-1.1,1.2-.1,0-.2,0-.3-.2-.3-.2-.4-.6-.3-1.2.2-.7.5-1.4,1.1-2Z"/>
  <path class="st0" d="M26,20.1s0,0,0,0c-.6.6-1,1.2-1.1,2-.1.6,0,1,.3,1.2,0,0,.2.1.3.2.6,0,1-.4,1.1-1.2.1-.8,0-1.6-.5-2.3ZM25.3,21.9c0,0,.1,0,.2,0,.1,0,.3,0,.4,0,.2,0,.3.2.4.4,0,.2,0,.4,0,.6,0,.2-.2.3-.4.4-.2,0-.4,0-.6,0,0,0,0,0,0,0-.1,0-.2-.2-.3-.4,0-.2,0-.4,0-.6,0-.2.2-.3.4-.4Z"/>
  <path class="st0" d="M25.5,21.9c0,0-.1,0-.2,0-.2,0-.3.2-.4.4,0,.2-.1.4,0,.6,0,.2.1.3.3.4,0,0,0,0,0,0,.2,0,.4.1.6,0,.2,0,.3-.2.4-.4,0-.2.1-.4,0-.6,0-.2-.2-.3-.4-.4-.1,0-.3,0-.4,0Z"/>
  <path class="st0" d="M8.7,45.9s0,0,0,.1c.5.7,1.1,1.2,1.8,1.4.6.2,1,.2,1.3,0,0,0,.2-.2.2-.3.1-.6-.2-1.1-1-1.3-.8-.3-1.6-.2-2.4.2ZM9.3,46.2s0,0,0,0c.6-.3,1.3-.3,1.9-.1.7.2.9.6.8,1.1,0,0-.1.2-.2.2-.2.2-.6.2-1.1,0-.6-.2-1.1-.6-1.5-1.2Z"/>
  <path class="st0" d="M9.2,46.1s0,0,0,0c.4.6.9.9,1.5,1.2.5.2.8.2,1.1,0,0,0,.1-.1.2-.2,0-.5-.2-.8-.8-1.1-.7-.2-1.3-.2-1.9.1ZM10.6,46.9c0,0,0-.1,0-.1,0-.1,0-.2.1-.3,0-.1.2-.2.4-.3.2,0,.3,0,.5,0,.1,0,.2.2.3.4,0,.2,0,.3-.1.5,0,0,0,0,0,0,0,.1-.2.2-.3.2-.2,0-.3,0-.5-.1-.1,0-.2-.2-.3-.4Z"/>
  <path class="st0" d="M10.6,46.8s0,0,0,.1c0,.2.1.3.3.4.1,0,.3.1.5.1.1,0,.3,0,.3-.2,0,0,0,0,0,0,0-.1.1-.3.1-.5,0-.2-.1-.3-.3-.4-.1,0-.3-.1-.5,0-.2,0-.3.1-.4.3,0,0-.1.2-.1.3Z"/>
  <path class="st0" d="M5.6,34.5s0,0,0,.1c.5.7,1.1,1.2,1.9,1.5.6.2,1.1.2,1.4,0,0,0,.2-.2.2-.3.1-.6-.2-1.1-1.1-1.4-.9-.3-1.7-.2-2.5.2ZM6.2,34.8s0,0,0,0c.6-.3,1.3-.3,2-.1.7.2,1,.6.9,1.1,0,.1-.1.2-.2.3-.2.2-.6.3-1.1,0-.6-.2-1.1-.6-1.5-1.2Z"/>
  <path class="st0" d="M6.2,34.7s0,0,0,0c.4.6.9,1,1.5,1.2.5.2.9.2,1.1,0,0,0,.1-.2.2-.3.1-.5-.2-.9-.9-1.1-.7-.2-1.3-.2-2,.1ZM7.6,35.5c0,0,0-.1,0-.2,0-.1,0-.2.1-.3.1-.1.2-.2.4-.3.2,0,.3,0,.5,0,.1.1.2.2.3.4,0,.2,0,.3-.1.5,0,0,0,0,0,0,0,.1-.2.2-.4.2-.2,0-.3,0-.5-.1-.1,0-.2-.2-.3-.4Z"/>
  <path class="st0" d="M7.6,35.4s0,.1,0,.2c0,.2.1.3.3.4.1.1.3.1.5.1.1,0,.3,0,.4-.2,0,0,0,0,0,0,.1-.1.1-.3.1-.5,0-.2-.1-.3-.3-.4-.1,0-.3-.1-.5,0-.2,0-.3.1-.4.3,0,.1-.1.2-.1.3Z"/>
  <path class="st0" d="M69.2,27.4c.3.7,1.1.9,2.3.6,1.2-.3,2.1-1,2.7-2.2-1.5-.5-2.8-.5-3.8,0-1,.4-1.5,1-1.2,1.6ZM71.4,27.9c-1,.2-1.7,0-1.9-.5-.2-.5.2-1,1-1.4.9-.4,1.9-.3,3.2,0-.5,1-1.3,1.6-2.3,1.8Z"/>
  <path class="st0" d="M69.5,27.4c.3.5.9.7,1.9.5,1-.2,1.8-.8,2.3-1.8-1.3-.4-2.3-.4-3.2,0-.9.4-1.2.8-1,1.4ZM70.3,27.8c-.2,0-.4,0-.5-.2-.2-.1-.2-.3-.2-.5,0-.2,0-.4.2-.5.1-.1.3-.2.5-.2.2,0,.4,0,.5.2.2.2.2.3.2.5,0,.2,0,.4-.2.5-.2.2-.3.2-.5.2Z"/>
  <path class="st0" d="M69.8,27.6c.1.2.3.2.5.2.2,0,.4,0,.5-.2.1-.1.2-.3.2-.5,0-.2,0-.4-.2-.5-.2-.1-.3-.2-.5-.2-.2,0-.4,0-.5.2-.1.2-.2.3-.2.5,0,.2,0,.4.2.5Z"/>
  <path class="st0" d="M11.8,52.9s0,0,0,.1c.3.8.8,1.4,1.4,1.9.5.4,1,.5,1.3.3.1,0,.2-.1.3-.2.3-.6,0-1.1-.7-1.5-.7-.5-1.5-.6-2.4-.5ZM12.3,53.4s0,0,0,0c.7-.1,1.3,0,1.9.4.6.4.8.8.5,1.2,0,0-.1.1-.2.2-.3.2-.6,0-1-.2-.5-.4-.9-.9-1.1-1.5Z"/>
  <path class="st0" d="M12.3,53.3s0,0,0,0c.2.6.6,1.1,1.1,1.5.4.3.8.4,1,.2,0,0,.2-.1.2-.2.2-.4,0-.9-.5-1.2-.6-.4-1.2-.5-1.9-.4ZM13.4,54.4c0,0,0,0,0-.1,0-.1,0-.2.2-.3.1-.1.3-.2.5-.1.2,0,.3,0,.4.2.1.1.2.3.1.5,0,.2,0,.3-.2.4,0,0,0,0,0,0-.1,0-.2.1-.4,0-.2,0-.3,0-.4-.2-.1-.1-.2-.3-.1-.4Z"/>
  <path class="st0" d="M13.5,54.3s0,0,0,.1c0,.2,0,.3.1.4.1.1.3.2.4.2.1,0,.3,0,.4,0,0,0,0,0,0,0,.1-.1.2-.3.2-.4,0-.2,0-.3-.1-.5-.1-.1-.2-.2-.4-.2-.2,0-.3,0-.5.1,0,0-.2.2-.2.3Z"/>
  <path class="st0" d="M22.6,88.3s0,0,0,0h0c.4-.3.9-.6,1.3-.8,0,0,0,0,.1,0,0-.1,0-.3-.1-.4,0-.1-.2-.2-.4-.3,0,0,0,0,0,0-.4.3-.7.8-.8,1.3ZM21.7,86.4s0,0,.1,0c0-.2,0-.3-.2-.4,0,0-.2-.2-.3-.2,0,0,0,0-.1,0-.4.3-.6.6-.8,1,.3-.2.8-.4,1.3-.5ZM24.2,86s0,0,0,0c-.1,0-.3.2-.4.6.1,0,.2-.2.4-.3,0,0,0,0,.1,0,0,0,0,0,0,0,0,0,0-.1,0-.2ZM19.8,85.7c0,0,.1,0,.2,0-.2-.2-.2-.4,0-.7-.6.2-1,.6-1.2,1.2.4-.2.8-.3,1.1-.4ZM26.8,87.2c0,0,0,.2,0,.3,0,.3.1.5.3.8,0-.2,0-.4.1-.5,0,0,0-.1,0-.2,0,0,0-.2.2-.2,0-.2,0-.4-.3-.4-.1,0-.2,0-.4.2ZM25.5,84c.3,0,.5.2.4.3h.2c-.2-.3-.4-.4-.6-.3ZM29.1,84.4c0,0-.1-.1-.3-.2,0,.1,0,.3,0,.4,0-.1.2-.2.3-.2Z"/>
  <path class="st0" d="M20,85.6s0,0,0,0c.6-.1,1.1-.2,1.5-.1.2-.2.4-.2.5-.3,0,0,.3-.1.6-.3.3-.2.5-.3.7-.4,0,0,.1-.1.2-.2,0,0-.2,0-.4.2,0,0-.3.1-.5.2-.2,0-.4.1-.7.2-.1,0-.3,0-.5.1-.5.1-.9.3-1.5.5ZM26.9,84.6s0,0,0,0c0,0-.2.1-.2.2h0c-.2.2-.6.4-1,.6h0c-.6.3-1,.6-1.4.9h0c.4-.3.9-.5,1.4-.8,0,0,0,0,0,0,.1,0,.3-.1.4-.2,0,0,.2,0,.2-.1,0,0,0,0,0,0,0,0,0,0,0,0,0,0,.1,0,.2-.2,0,0,0,0,0,0,0,0,0,0,0,0,.1-.1.2-.2.2-.2s0,0,0,0h0ZM27,85.7h0c-.5,0-1.3.3-2.3.9-.1,0-.4.3-.8.6,0,0,.1.2.1.4,0,0,0,0-.1,0,0,0,0,0,.2,0,.7-.4,1.2-.6,1.4-.8.3-.2.4-.3.5-.3.4-.2.7-.2,1-.2,0-.1,0-.3,0-.6h0ZM28.8,84.2c0,0-.2,0-.4,0,0,.3.1.6.2.8,0-.1,0-.2.2-.3,0-.1,0-.3,0-.4,0,0,0,0,0,0ZM25.1,78.8c0-.3,0-.6,0-.9,0-.5,0-.9.2-1.3-.7.2-1.4.2-2.2.3l.4.8s0,0,0,0c0,0,.2,0,.2,0s.2,0,.4.2c.3.1.5.2.5.2h0v.3c0,.1,0,.3,0,.5,0,0,0,0,0,.1,0,0,0,.1,0,.2,0,.2,0,.4,0,.6s0,.6-.2,1.2c0,.1,0,.3,0,.4-.1,0-.3,0-.4,0,.2,0,.3,0,.4,0,0,.2,0,.4,0,.6-.1-.1-.2-.2-.4-.2.2,0,.3.1.4.2,0,.2,0,.3,0,.5s0,0,0,.1c0,0-.2,0-.3,0,.1,0,.2,0,.3,0,0,.3,0,.5.1.7,0,0,0,0,0,.2,0,0,0,.2.1.2,0,0,0,0,0,0,0,0,0,0,0,0v.3c.1.2.3.4.5.6-.2,0-.3-.2-.5-.4,0,0,0,0,0,0h0s0,0,0,0c0,0,0,0,0,0,0,0,0,0,0,0,0,.2-.4.5-1.1.9-.4.2-.6.3-.7.4-.2.2-.3.3-.3.4s0,0,0,0c.5-.2,1.2-.4,1.9-.6,0,0,.1,0,.2,0,.2-.2.4-.3.6-.5,0,0,0,0,0,0h0s0,0,0,0c.2-.1.3-.2.4-.4,0,0,0,0,0,0,0-.1-.1-.2-.4-.3-.2,0-.3-.3-.4-.5,0,0,0,0,0,0-.2-.7-.2-1.4,0-2,0,0,0-.1,0-.2.2-.7.2-1.2.3-1.4,0-.2,0-.5-.1-.7,0,0,0-.2-.1-.3ZM28.2,83.8s0,0,0,0c0,.4-.1.8-.2,1.1,0,.2-.1.5-.2.7,0-.3.2-.6.3-.7,0,0,0,0,0-.2,0-.4,0-.7,0-1,0,0,0,0,0,0ZM29.2,75.1c0,0,0-.1,0-.2,0-.1,0-.2,0-.3-.4.3-.8.6-1.2.8-.3.2-.7.4-1,.6-.3.1-.5.2-.8.3l.4.7c0,.1.1.2.2.4,0,0,0-.2.1-.3.2-.4.3-.6.3-.6,0,0,0,0,0,0,0,0,0,0,0,.1,0,0,.1.2.2.3.2.2.4.4.8.6.2.1.3.2.4.3,0-.5.2-.9.3-1.1.1-.4.2-.9.2-1.5ZM15.9,49.4c0,0,.2,0,.3,0,.2,0,.4,0,.6,0,0,0,.3,0,.5,0,.3,0,.4,0,.5,0,.2,0,.3,0,.5,0-.4-.5-.4-.9,0-1.3-.4.3-.9.6-1.4.8-.5.2-1.1.5-1.7.6-.5.1-.8.4-1.1.9,0,0,.1,0,.2-.1.1,0,.2-.2.4-.2.1,0,.3-.2.4-.2.1,0,.3-.1.4-.2.1,0,.3-.1.5-.2Z"/>
  <path class="st0" d="M23.3,70.9h-.2c0,.2-.1.4-.2.5-.1.2-.2.4-.4.6-.1.2-.3.4-.5.6-.2.2-.4.4-.6.5-.2.1-.3.3-.5.4-.1,0-.3.2-.4.2,0,0-.2,0-.2.1-.2.1-.5.2-.7.3,0,0,.1,0,.2,0,.3,0,.5-.1.7-.2,0,0,.2,0,.3-.1.2,0,.3-.2.4-.3.2-.1.4-.3.6-.5.2-.2.4-.4.5-.6.2-.2.3-.4.4-.6.1-.2.2-.4.4-.6,0-.1.1-.2.2-.3Z"/>
  <path class="st0" d="M31.6,72.1c3,0,5-.4,6.1-1.4-1.3.9-3.3,1.3-6.1,1.4ZM47.5,71.9s0,0,0,0c-.1.2-.2.3-.3.5-.4.6-1.1,1.1-2,1.6-.9.4-1.6.8-2.2.9-.3,0-.6.2-.7.2.9-.1,1.8-.4,2.6-.8,1.5-.7,2.4-1.5,2.8-2.4,0,0,0,0,0,0ZM46.5,69.4c-.1,0-.2.1-.4.2,0,0-.1,0-.2.2-.9,1.2-2.2,2.2-4,3,2-.8,3.5-1.9,4.5-3.4ZM45.7,67.7s0,0-.1,0h0c-.8,1.3-2.5,2.5-4.8,3.3,2.4-.8,4.1-1.9,5-3.3ZM43.9,64.8c0,.1-.2.2-.3.3-.5.6-1.4,1.3-2.5,2-.6.4-1.2.7-1.7.9,2.5-1,4-2.1,4.7-3.3,0,0-.1,0-.2,0ZM44.6,65.9c0,0-.1,0-.2,0-.8,1.3-2.4,2.6-4.7,3.7,2.4-1.1,4-2.3,4.9-3.7ZM34.7,69s0,0-.1,0c1.3.3,2.7.1,4.1-.4.2.1.3.3.2.6,0,.3-.3.6-.5.9-.1.1-.3.3-.4.4.1,0,.2,0,.3,0,1,.1,1.8.4,2.2,1,0,0,0,0,0,.1-.4.3-.9.6-1.3.9-2.3,1.4-4.7,1.9-7.2,1.4-.4,0-.8-.2-1.2-.3-.2,0-.3,0-.5-.2.1,0,.3.1.4.2.4.2.9.3,1.3.4,2.6.5,5.2,0,7.7-1.6.7-.1,1.3-.2,1.7-.1,0,0,.2,0,.2,0-.3.6-.9,1.2-1.9,1.8-.3.2-.7.4-1.1.6-1.9,1-4.1,1.2-6.7.8,2.6.5,4.9.3,6.9-.7.4-.2.7-.4,1.1-.6h0c0,0,.1,0,.2,0,.1,0,.3,0,.5,0,.2,0,.3,0,.5,0,.2,0,.3,0,.4,0,0,0,0,0,.1,0,0,0,.1,0,.2.2-.4.4-.9.7-1.4,1-2.2,1-4.3,1.4-6.5,1.1,2.3.3,4.6,0,6.9-1.1h0c1,.2,1.8.4,2.3.7,0,0,0,0,0,0,0,0,0,0,0,0,0,0,.1,0,.2,0,0,0-.1-.1-.2-.1-.5-.4-1.3-.6-2.2-.8h.1c0-.1.1-.3.1-.3l.7-.6c-.2-.4-.8-.5-1.7-.4.6-.5,1.1-.9,1.3-1.4,0-.2.1-.3.2-.4,0,0,0,0,0,0-.5,0-1.2,0-1.9.2l.7-.6c0-.2-.2-.4-.5-.6,0,0-.1-.1-.2-.2-.4-.3-1-.5-1.8-.6,0-.1.2-.2.3-.3.2-.2.3-.4.4-.5.4-.7.4-1.1-.2-1.2-.2,0-.3.1-.5.2-.1,0-.2,0-.3.1-.2,0-.4.1-.5.2-.7.2-1.2.3-1.5.3-.4,0-.8,0-1.1,0ZM37.5,70.4c-2.1.5-3.9.7-5.7.6,1.9.3,3.8,0,5.7-.6ZM38.4,69.4c-1.1.3-2.2.4-3.1.3,1.1.2,2.1.1,3.1-.3Z"/>
  <path class="st0" d="M25.5,84.6c-.2-.2-.4-.4-.5-.6v-.3c-.1,0-.1,0-.1,0,0,0,0,0,0,0,0,0,0-.2-.1-.2,0,0,0-.1,0-.2,0-.2-.1-.4-.1-.7-.1,0-.2,0-.3,0,.1,0,.2,0,.3,0,0,0,0,0,0-.1,0-.1,0-.3,0-.5,0,0-.2-.1-.4-.2.2,0,.3,0,.4.2,0-.2,0-.4,0-.6-.1,0-.3,0-.4,0,.2,0,.3,0,.4,0,0-.1,0-.3,0-.4.1-.6.2-1,.2-1.2s0-.4,0-.6c0,0,0-.2,0-.2,0,0,0,0,0-.1,0-.2-.1-.4-.1-.5v-.3s0,0,0,0c0,0-.3,0-.5-.2-.3-.1-.4-.2-.4-.2,0,0-.2,0-.2,0,0,0,0,0,0,0l.7,1.4s0,0,0,0c0,.3.1.7,0,1.3,0,.6,0,1,0,1.2,0,.6,0,1.1,0,1.7,0,0,0,.1,0,.2-.1.3-.4.5-.8.6-.4.1-.7.2-.9.3-.3,0-.6.1-1,.2-.4,0-.8.2-1.3.3,0,0,0,0,0,.1-.1.3-.1.5,0,.7.5-.2,1-.4,1.5-.5.2,0,.3,0,.5-.1.3,0,.5-.1.7-.2.2,0,.4-.1.5-.2.2-.1.3-.2.4-.2,0,0,0,.2-.2.2-.1,0-.4.2-.7.4-.3.2-.5.2-.6.3-.1,0-.3.1-.5.3,0,0-.2.1-.2.2,0,0,0,0,0,.1,0,0,0,0,.1,0,.1,0,.2.1.3.2,0,.1.2.2.2.4,0,0,0,0-.1,0,0,0,0,0,.1,0,.3-.2.6-.4,1-.6,0,0,0,0,0,0,0-.1.1-.2.3-.4,0,0,.3-.2.7-.4.6-.3,1-.6,1.1-.9,0,0,0,0,0,0,0,0,0,0,0,0,0,0,0,0,0,0h0s0,0,0,0c0,0,0,0,0,0h0s0,0,0,0c.2.2.3.4.5.4ZM24.3,79.9c.2,0,.4,0,.6-.2-.2.2-.4.3-.6.2ZM24.3,80.4c.2,0,.4,0,.5.1-.1,0-.3,0-.5-.1ZM24.7,80.8c-.2,0-.3,0-.5-.1.2,0,.3,0,.5.1ZM24.5,83.2c0,0-.2-.2-.3-.2,0,0,.2,0,.3.2ZM27.2,76.4c0,0-.1.3-.3.6,0,0,0,.2-.1.3.1.2.2.5.2.8,0,.4.1.6.1.8,0,0,0,0,0,0,0,.1,0,.3.2.6,0,.3.1.5.1.7,0,.6,0,1.1-.2,1.7v.8c0,.4,0,.8-.2,1.3,0,.2,0,.3-.1.5-.3.2-.5.3-.7.4-.2.1-.5.3-.8.4-.3.2-.7.4-1.2.6h0c0,.1,0,.1,0,0,0,0,0,.2,0,.2.3-.3.8-.6,1.4-.9h0c.4-.2.7-.4,1-.6h0c0,0,.2-.1.2-.2,0,0,0,0,0,0h0s0,0,0,0c0,0,0,.1-.2.2,0,0,0,0,0,0,0,0,0,0,0,0,0,0-.1.1-.2.2,0,0,0,0,0,0,0,0,0,0,0,0,0,0-.2,0-.2.1-.2,0-.3.1-.4.2,0,0,0,0,0,0-.5.3-1,.5-1.4.8h0s0,0,0,0c0,0,0,0-.1,0-.1,0-.2.2-.4.3,0,0-.2.1-.3.2,0,0,0,0,0,.2,0,0,0,0,0,0,.2,0,.3.1.4.3.4-.3.6-.5.8-.6,1-.6,1.7-.9,2.3-.9h0c0,.3,0,.5,0,.6,0,.3-.1.5-.1.5,0,.1,0,.2-.1.2,0,0,0,0,0,0,0,.1,0,.2,0,.4,0,0,0-.2,0-.3.1-.2.2-.2.4-.2.3,0,.4.2.3.4,0,0-.1,0-.2.2,0,0,.2,0,.3-.1.4-.3.6-.6.5-.8,0-.1,0-.3,0-.6,0-.2.2-.4.3-.5,0,0,0,0,0,0,0,0,.1-.1.2-.2,0,0,0-.2,0-.3,0,0,0,0,0,0-.1-.2-.2-.5-.2-.8,0,0,0-.1,0-.2,0,0,0-.2,0-.3,0-.5,0-1,.2-1.7,0-.2,0-.3,0-.3,0-.1,0-.2,0-.3l.2-1.9c0-.2,0-.4,0-.6,0-.4,0-.8,0-1.2,0,0,0,0,0,0-.1,0-.3-.2-.4-.3-.4-.2-.6-.4-.8-.6-.1-.1-.2-.2-.2-.3,0,0,0,0,0-.1,0,0,0,0,0,0ZM28.3,79.4c-.1.1-.3.2-.4.2-.1,0-.2,0-.3,0h.3c.1,0,.3,0,.4-.1ZM27.7,80.2c.2,0,.5,0,.6,0-.2,0-.4,0-.6,0ZM28,82.2c-.2,0-.4,0-.6,0,.2,0,.4,0,.6,0ZM28.2,81.4c-.3,0-.5,0-.6,0,.2,0,.4,0,.6,0ZM28.3,80.6c-.2,0-.4,0-.5,0,.3,0,.5,0,.5,0ZM27.8,83.3c-.1,0-.2,0-.3,0,.1,0,.2,0,.3,0ZM27.6,84.5c-.2,0-.3,0-.5,0,.2,0,.3,0,.5,0ZM28.2,83.9s0,0,0,0c0,0,0,0,0,0,0,.3,0,.6,0,1,0,0,0,.1,0,.2-.1.2-.2.4-.3.7,0-.3.1-.5.2-.7,0-.4.1-.8.2-1.1ZM27.4,82.7c.2,0,.4,0,.5,0-.2,0-.3,0-.5,0Z"/>
  <path class="st0" d="M24.2,83c.1,0,.2.1.3.2,0-.2-.2-.3-.3-.2ZM24.2,80.7c.2,0,.3,0,.5.1-.2-.1-.3-.2-.5-.1ZM24.8,80.5c-.1-.2-.3-.2-.5-.1.2,0,.4,0,.5.1ZM24.9,79.7c-.2.1-.4.2-.6.2.2,0,.4,0,.6-.2ZM27.9,82.7c0,0-.3-.1-.5,0,.2,0,.3,0,.5,0ZM27.2,84.5c.1,0,.3,0,.5,0-.1,0-.3,0-.5,0ZM27.5,83.3c0,0,.2,0,.3,0,0,0-.2,0-.3,0ZM27.7,80.5c.2,0,.3,0,.5,0,0,0-.2-.1-.5,0ZM27.6,81.3c.1.1.4.1.6,0-.2,0-.4,0-.6,0ZM27.5,82.2c.2,0,.4.1.6,0-.2,0-.4-.1-.6,0ZM28.3,80.2c-.2,0-.4,0-.6,0,.2,0,.4,0,.6,0ZM27.9,79.6c.1,0,.3,0,.4-.2-.2,0-.3.1-.4.1h-.3c0,0,.2.1.3,0Z"/>
  <path class="st0" d="M29.2,74.6c.3-.3.6-.5.9-.7,0,0,.1-.1.2-.2,0,0,0,0,.1-.1.2-.2.4-.5.5-.7-3.5,1.1-6,.4-7.6-1.9,0,.1-.1.2-.2.3-.1.2-.2.4-.4.6-.1.2-.3.4-.4.6-.2.2-.3.4-.5.6-.2.2-.4.3-.6.5-.1,0-.3.2-.4.3,0,0-.2,0-.3.1-.2,0-.5.2-.7.2,0,0-.1,0-.2,0,.2,0,.5-.2.7-.3,0,0,.2,0,.2-.1.1,0,.3-.2.4-.2.2-.1.4-.2.5-.4.2-.2.4-.4.6-.5.2-.2.3-.4.5-.6.1-.2.3-.4.4-.6,0-.1.1-.3.2-.4-4.1,2-6.5,2.2-7.5.6.3,1,.7,1.9,1.3,2.8,0,0,0,0,.1.1.8.9,1.8,1.6,2.8,2h.2c.5.2,1,.3,1.5.4.5,0,1,0,1.4,0,.8,0,1.5-.1,2.2-.3.3,0,.7-.2,1-.3.3,0,.5-.2.8-.3.4-.2.7-.3,1-.6.4-.3.8-.6,1.2-.8ZM23.5,70.6c.1-.2.3-.4.4-.7.1-.2.3-.5.4-.7.2-.3.5-.6.9-.7-.3,0-.5.1-.7.2-.2.2-.4.4-.5.6-.1.2-.2.5-.4.7-.1.2-.2.4-.4.6,0,.1-.1.2-.2.3h.2c0-.2.1-.3.2-.5ZM20.1,50.7c-.2-.3-.5-.4-.7-.5.8,1.3.8,3.4.2,6.5.4-.3.7-.8.9-1.5.3-.8.4-1.7.3-2.5,0-.9-.3-1.6-.7-2ZM25.6,68.4c.5-.3,1.1-.6,1.6-.7-.4,0-.8.2-1.1.3-.3.2-.5.3-.5.4Z"/>
  <path class="st0" d="M30.1,73.8c-.3.2-.5.5-.9.7,0,.1,0,.2,0,.3,1,.2,1.9.4,2.8.5,4.2.5,7.3-.5,9.4-3-.4,0-1,0-1.7.1-2.6,1.6-5.2,2.2-7.7,1.6-.4,0-.9-.2-1.3-.4-.1,0-.3,0-.4-.2h0c0,0-.1,0-.2.2ZM41.7,74.5s0,0-.1,0c-.1,0-.2,0-.4,0-.1,0-.3,0-.5,0-.2,0-.3,0-.5,0,0,0-.1,0-.2,0h0c-.3.2-.7.4-1.1.6-2,1-4.3,1.2-6.9.7l-2.6-.7c0,0-.2,0-.3,0,0,0,0,.1,0,.2.2.1.5.3.7.4,0,0,0,0,.1,0l.3.2c.5.3,1.1.5,1.6.7.4.2.8.3,1.2.5,0,0,0,0,0,0,3.8,1.1,7.1.9,9.9-.5-.5-.3-1.3-.6-2.3-.7h0c-2.3,1.1-4.6,1.4-6.9,1.1-.3,0-.7-.1-1-.2,3.6.2,6.5-.5,8.7-2.1ZM47.7,71.9s0,0-.1,0c-.3.9-1.3,1.7-2.8,2.4-.8.4-1.7.7-2.6.8,0,0,0,0,0,0l-.9.2h-.1c.9.2,1.7.5,2.2.9,1.4-.5,2.4-1.2,3.2-2.1.8-.9,1.8-1.7,3.2-2.3-.6,0-1.3,0-2,0ZM47.6,69.3c-.2,0-.3,0-.4,0-.3,0-.5,0-.8.1-1,1.5-2.5,2.6-4.5,3.4h-.3c-.2.5-.7,1-1.3,1.4.9-.1,1.5,0,1.7.4l-.7.6c.3,0,.5-.2.8-.2.5-.2.9-.3,1.3-.5.4-.2.9-.4,1.3-.6.4-.2.8-.5,1.2-.7.4-.3.7-.6.9-1.1.2-.4.4-.9.6-1.3.2-.4.3-.9.5-1.3-.2,0-.3,0-.5,0ZM45.7,67.7h0c-.9,1.5-2.5,2.6-5,3.3l-.5.2c.2.2.4.4.5.6l-.7.6c.7-.2,1.4-.2,1.9-.2,0,0,0,0,0,0,2.3-.9,3.9-2.4,4.7-4.5-.4,0-.7,0-.9,0ZM39.7,69.6l-1.2.6c0,0-.2.2-.3.3.8.1,1.4.3,1.8.6,3.4-1.3,5.4-2.9,5.9-4.8-.4,0-.9-.2-1.4-.4-.9,1.4-2.5,2.6-4.9,3.7ZM38.7,68.4c.5.2.6.6.2,1.2,2.7-1.1,4.6-2.7,5.8-4.6-.1,0-.3-.1-.5-.1-.7,1.1-2.2,2.2-4.7,3.3l-.7.3ZM38.2,70.6c-.1,0-.2,0-.3,0,0,0-.1.1-.2.2-1,1-3.1,1.4-6.1,1.4h-.3c0,0,0,0,0,0,0,0,0,.2,0,.2,0,.1-.1.3-.2.4-.1.2-.3.4-.5.7.5.1.9.2,1.4.3,0,0,.1,0,.2,0,2.9.4,5.7-.3,8.4-2.2-.5-.6-1.2-.9-2.2-1ZM31.5,69.8c0,0,0,.2,0,.3,0,.5,0,1.2-.3,1.9,2.8-.1,4.9-.6,6.3-1.4,0,0,.1,0,.2,0,.2-.1.3-.2.5-.3.3-.3.5-.6.5-.9,0-.3,0-.5-.2-.6-1.4.5-2.7.7-4.1.4,0,0,0,0-.1,0,0,0,0,0-.1,0-.5.2-1.1.3-1.7.5-.4,0-.8.2-1.1.2ZM35.3,69.7c1,.1,2,0,3.1-.3-1,.4-2.1.6-3.1.3ZM31.8,71c1.7.1,3.6-.1,5.7-.6-1.8.7-3.7.9-5.7.6ZM15.3,69.6c0-.2-.2-.4-.3-.6-.4,1.1-.4,2.3,0,3.8.3.8.9,1.6,1.6,2.2.1.1.2.2.4.3.7.5,1.7.9,2.8,1.2-1.1-.4-2-1-2.8-2,0,0,0,0-.1-.1-.6-.8-1.1-1.7-1.3-2.8-.2-.6-.3-1.2-.3-1.8,0,0,0-.2,0-.3Z"/>
  <path class="st0" d="M43.2,76.4s0,0,0,0c-2.8,1.5-6.1,1.6-9.9.5,4.1,1.4,7.4,1.4,10.1-.1.1,0,.1-.1,0-.2,0,0,0,0-.1,0,0,0,0,0,0,0,0,0,0,0,0,0ZM41.9,74.6c0,0-.1-.1-.2-.2-2.2,1.6-5.1,2.3-8.7,2.1.3,0,.7.1,1,.2,2.1.2,4.3-.1,6.5-1.1.5-.3,1-.6,1.4-1ZM41.7,72.5c0,0-.2,0-.2,0-2.1,2.5-5.2,3.5-9.4,3-.9-.1-1.8-.3-2.8-.5,0,0,.2,0,.3,0l2.6.7c2.5.4,4.7.1,6.7-.8.4-.2.7-.4,1.1-.6.9-.6,1.5-1.2,1.9-1.8ZM40.5,71.8s0,0,0-.1c-2.7,1.9-5.5,2.6-8.4,2.2,0,0-.1,0-.2,0-.5,0-.9-.2-1.4-.3,0,0,0,0-.1.1h0c.2,0,.3.1.5.2.4.1.8.2,1.2.3,2.5.4,4.9,0,7.2-1.4.4-.3.9-.6,1.3-.9ZM49.9,71.9c0,0-.2,0-.3,0-1.3.6-2.4,1.4-3.2,2.3-.8.9-1.8,1.6-3.2,2.1,0,0,.1,0,.2.1.9-.4,1.6-.7,2.2-1.1.7-.4,1-.7,1.1-.8.1,0,.3-.3.6-.5.3-.3.7-.6,1.2-1.1.5-.4,1-.8,1.4-1ZM48,70.5c.2-.8.4-1.2.5-1.2-.1,0-.3,0-.4,0h0c-.1.4-.3.9-.5,1.3-.2.5-.4.9-.6,1.3-.2.4-.5.8-.9,1.1-.4.3-.8.5-1.2.7-.4.2-.9.4-1.3.6-.4.2-.9.4-1.3.5-.3,0-.5.2-.8.2h-.1c0,.1.9,0,.9,0,0,0,0,0,0,0,.2,0,.4-.1.7-.2.6-.2,1.3-.5,2.2-.9.9-.4,1.6-1,2-1.6.1-.2.2-.3.3-.5,0,0,0,0,0,0h0c.2-.4.4-.9.6-1.4ZM45.5,67.7s0,0,0,0c.3-.4.5-.9.6-1.4,0,0-.1,0-.2,0-.5,1.8-2.5,3.4-5.9,4.8,0,0,.2.1.2.2l.5-.2c2.4-.9,4-2,4.8-3.3ZM47,67.8c-.1,0-.3,0-.4,0-.9,2.2-2.5,3.7-4.7,4.5,0,.1,0,.3-.2.4h.3c1.7-.9,3.1-1.9,4-3,0,0,0,0,.1-.1,0,0,0,0,0,0,.4-.5.7-1.1.9-1.7ZM38.4,70.1l1.2-.6c2.3-1.1,3.9-2.4,4.7-3.7.2-.3.3-.5.4-.8,0,0,0,0-.1,0-1.2,1.9-3.1,3.5-5.8,4.6-.1.2-.2.3-.4.5ZM38.3,70.2c-.2.1-.3.2-.5.3,0,0-.1,0-.2,0-1.4.8-3.5,1.2-6.3,1.4,0,0,0,0,0,0,0,0,0,0,0,0h.3c2.8,0,4.8-.4,6.1-1.3,0,0,.1-.1.2-.2.2-.1.3-.3.4-.4Z"/>
  <path class="st0" d="M37.9,65.4c-.2.2-.4.3-.5.4-.4.2-.7.4-1.1.4,0,0,.2.1.3.3.1.2.2.3.2.4,0,.8-.6,1.5-1.9,2.1,0,0,0,0-.1,0,.3,0,.7,0,1.1,0,.3,0,.9,0,1.5-.3.2,0,.4,0,.5-.2.1,0,.2,0,.3-.1.2,0,.3-.1.5-.2l.7-.3c.5-.3,1.1-.6,1.7-.9,1.2-.7,2-1.4,2.5-2,0-.1.2-.2.3-.3,0,0,0,0,0,0,0,0,0,0,0,0,.3-.4.5-.7.5-.8,0-.2,0-.3-.1-.3,0,0-.1,0-.2,0,0,0,0,0,0,0-.1,0-.3-.1-.6-.2-.2.5-.7.9-1.4,1.4-.4.3-.9.5-1.3.7-.4.2-.8.3-1,.3s-.5-.1-.7-.4c0-.1-.2-.4-.3-.8-.3.3-.5.5-.8.8Z"/>
  <path class="st0" d="M31.5,69.5c0,0,0,.2,0,.3.3,0,.7,0,1.1-.2.6-.1,1.2-.3,1.7-.5,0,0,0,0,.1,0,0,0,0,0,.1,0,0,0,0,0,.1,0,0,0,0,0,.1,0,1.3-.6,1.9-1.2,1.9-2.1s0-.3-.2-.4c-.1-.1-.2-.2-.3-.3.3,0,.7-.2,1.1-.4.2-.1.4-.2.5-.4.3-.2.6-.5.8-.8.1.4.3.7.3.8.2.2.4.4.7.4s.6,0,1-.3c.4-.2.9-.4,1.3-.7.7-.5,1.2-.9,1.4-1.4.1-.2.2-.4.2-.6s0-.1,0-.2c-.2-.2-.5-.4-.8-.6,0,0,0,0,0,0-.5-.3-.9-.5-1.2-.5-.2,0-.4,0-.6-.1,0,0-.1,0-.2,0h0c-.2,0-.5,0-.8,0-.3,0-.6,0-.9.1-.2,0-.3,0-.5.1-.4.1-.8.3-1.2.5,0,0,0,0-.1,0-.2,0-.3.2-.5.3-.3.2-.7.5-1,.7-.5.4-1,.9-1.4,1.4,0,0,0,0,0,0-.4.5-.8,1.1-1.1,1.7-.1.3-.3.5-.4.8-.2.3-.3.6-.5.9-.3.5-.7.9-1.4,1.1,0,0,.1.2.2.3,0,0,0,0,0,0v.2c0,0,0,0,0,0ZM23.5,62.3c.2,1,.4,1.8.8,2.6,0,0,0,0,0-.1.4-.6.8-1.1,1.3-1.6.8-.8,1.8-1.5,3-1.9h0c0,0-.1,0-.2,0,0,0,0,0,0,0-.4-.2-.8-.3-1.2-.4,0,0-.1,0-.2,0,0,0-.1,0-.2,0h0c-1.1-.1-2.3.2-3.4,1,0,.2,0,.4,0,.6ZM15.6,65.1c-.2.2-.4.5-.6.9-.2.3-.3.7-.4,1.2,0,.4,0,.9.2,1.3,0,.2.1.4.2.5,0,.2.2.4.3.6,0-.3,0-.8,0-1.7,0-.9.4-1.9.8-3.2-.2,0-.4.2-.6.5Z"/>
  <path class="st0" d="M29.8,61c0,0-.2,0-.4,0-.3,0-.6.2-.8.3.4-.1.9-.2,1.3-.3,0,0,0,0,0,0Z"/>
  <path class="st0" d="M28.4,61.2c0,0,.1,0,.2,0,.3-.1.5-.2.8-.3.2,0,.3,0,.4,0,0,0,0,0,0,0,.3.1.6.1,1.1,0,0,0,.1,0,.2,0,0,0,.1-.1.2-.2.1,0,.3-.1.5-.2.1,0,.3,0,.4-.1.4-1.4,0-2-1.4-1.9-1.1.2-2,1-2.6,2.6,0,0,0,0,0,0ZM37.3,60.5s0,0,0,0c0,0,0,0,.1,0,.1,0,.3.2.4.3,0,0,.2.1.2.2,0,0,0,0,0,0,0,0,.2.2.3.3,0,0,0,.1.1.2.2,0,.3,0,.5-.1.3,0,.6-.1.9-.1.3,0,.5,0,.8,0,.2-.8-.1-1.3-1-1.6-.9-.2-1.7,0-2.4.8ZM33.8,60.3c.2-.2.4-.2.7-.3,0,0,.2,0,.2,0,.1,0,.2,0,.4,0,.5-1.2.4-2-.4-2.3-.7-.1-1.5.2-2.2,1.1.2.3.3.5.2.8,0,.4-.1.7-.2.8.3,0,.6,0,1,0,0,0,.2-.2.3-.3ZM35.5,58c.1.2.2.4.2.7s0,.5-.2.8c-.1.2-.2.4-.4.5h0c0,0,.2,0,.3,0,.2,0,.4,0,.6.1.2,0,.4.2.5.3.2,0,.4,0,.5,0h0s0,0,0,0c.2-.3.5-.6,1-.7.5-1.2.2-2-.9-2.4-.7-.1-1.3.1-1.8.7Z"/>
  <path class="st0" d="M34.4,61.1h0c-.9-.3-1.9-.4-3-.3-.1,0-.2.1-.2.2,0,0-.1,0-.2,0-.5,0-.8,0-1.1,0-.4,0-.8.2-1.3.3h0c-1.2.5-2.1,1.1-3,1.9-.7,1-.7,1.9,0,2.4.4.3.9.7,1.7.9,3.3,0,5.5-.7,6.7-2.4.8-1,1.4-1.6,2.1-1.9.2-.1.1-.3-.1-.4-.4-.3-.7-.5-1.2-.7.2,0,.4-.1.6-.1s.4,0,.7,0c.2,0,.4,0,.5.1-.1-.1-.3-.2-.4-.2-.1,0-.3,0-.4-.1-.1,0-.3,0-.4,0-.2,0-.3,0-.5,0,0,0-.2,0-.2,0,0,0,0,0,0,.1ZM28.5,63.6c-.3-.5-.3-.9,0-1.3.3-.2.6-.3,1.1-.2-.4,0-.6.2-.8.5-.2.3-.3.6-.3,1ZM31,64.5c.7-1.6,1.6-2.1,3-1.5-1.2-.2-2.2.3-3,1.5Z"/>
  <path class="st0" d="M34,63c-1.3-.7-2.3-.2-3,1.5.8-1.2,1.8-1.7,3-1.5ZM28.5,62.3c-.3.4-.3.8,0,1.3,0-.4.1-.7.3-1,.2-.3.5-.4.8-.5-.5,0-.9,0-1.1.2Z"/>
  <path class="st0" d="M37.6,56.5c-.3-.3-.6-.4-.9-.4s-.7,0-1,.3c-.2.1-.4.4-.6.7-.1,0-.2-.2-.3-.3-.1,0-.2-.2-.4-.2-.1,0-.3-.1-.4-.1-.2,0-.3,0-.5,0-.2,0-.3,0-.4.1-.1,0-.3.1-.4.2-.1,0-.2.2-.3.3,0,0-.1.1-.2.2,0,0-.1,0-.2,0-.3,0-.5-.1-.7-.1-.4,0-.8.2-1.2.5-.2.2-.4.4-.5.6-.7,0-1.3.2-1.9.7-.6.5-.9,1.1-.9,1.7s0,0,0,.1c0,0,0,0,0,0h0c0,0,.1,0,.2,0,0,0,.1,0,.2,0,.4,0,.8.2,1.2.4.6-1.6,1.4-2.4,2.6-2.6,1.4-.2,1.8.5,1.4,1.9,0,0,.1,0,.2,0,0-.1.1-.4.2-.8,0-.3,0-.6-.2-.8.7-.9,1.4-1.2,2.2-1.1.7.3.9,1,.4,2.3,0,0,0,0,.1,0h0c.1,0,.2-.2.4-.5.1-.3.2-.5.2-.8s0-.5-.2-.7c.5-.6,1.1-.9,1.8-.7,1.2.4,1.5,1.2.9,2.4-.4.2-.7.4-1,.7h0s.1.1.1.1h0c.7-.7,1.5-1,2.4-.8.9.3,1.3.8,1,1.6h0c0,0,.1,0,.2,0,.2,0,.4,0,.6.1.3,0,.7.3,1.2.5,0,0,0,0,0,0,.3.2.5.4.8.6,0,0,0,0,0,.2,0,.2,0,.4-.2.6.2,0,.4.2.6.2,0,0,0,0,0,0,.2-.2.3-.5.3-1s0-.4-.2-.6c0-.1-.1-.2-.2-.3,0,0,0,0,0-.2,0-.3,0-.5-.2-.7-.1-.2-.2-.3-.4-.3h0c0-.2.1-.3.1-.5,0-.3-.2-.6-.5-.9,0,0,0,0,0,0h0c0-.4-.3-.8-.6-1-.3-.2-.5-.3-.8-.3s0,0,0,0c0-.3-.2-.6-.5-.8-.3-.3-.7-.4-1.2-.4s-.6,0-1,.3c-.3.2-.6.4-.7.6,0,0-.1.2-.2.2,0,0,0,0-.1-.1,0-.3-.2-.6-.5-.9Z"/>
  <path class="st0" d="M24.3,64.8s0,0,0,.1c.7,1.3,1.6,2.3,3,2.8.6-.1,1.1-.1,1.7,0,.9.2,1.6.6,2.1,1.3.6-.3,1.1-.6,1.4-1.1.2-.3.3-.6.5-.9.1-.2.3-.5.4-.8.3-.6.6-1.1,1.1-1.7,0,0,0,0,0,0,.4-.5.9-.9,1.4-1.4.3-.3.7-.5,1-.7.2-.1.3-.2.5-.3,0,0,0,0,.1,0,.4-.2.8-.4,1.2-.5,0,0,0-.1-.1-.2,0-.1-.2-.2-.3-.3,0,0,0,0,0,0,0,0-.1-.1-.2-.2-.2-.1-.3-.2-.4-.3,0,0-.1,0-.1,0,0,0,0,0,0,0h0s0,0-.1,0c0,0,0,0,0,0-.2,0-.3,0-.5,0-.1-.1-.3-.2-.5-.3-.2,0-.4-.1-.6-.1s-.2,0-.3,0c0,0,0,0-.1,0-.1,0-.2,0-.4,0s-.2,0-.2,0c-.2,0-.5.1-.7.3-.1,0-.2.2-.3.3-.4,0-.7,0-1,0,0,0-.1,0-.2,0-.2,0-.3,0-.4.1-.2,0-.4.1-.5.2,1.1,0,2.1,0,3,.3h0c0,0,0,0,0-.1,0,0,.1,0,.2,0,.1,0,.3,0,.5,0,.2,0,.3,0,.4,0,.2,0,.3,0,.4.1.2,0,.3.1.4.2,0,0-.2,0-.5-.1-.3,0-.5,0-.7,0s-.4,0-.6.1c.4.2.8.4,1.2.7.2.1.3.3.1.4-.6.2-1.3.8-2.1,1.9-1.2,1.6-3.4,2.4-6.7,2.4-.7-.3-1.3-.6-1.7-.9-.7-.6-.6-1.4,0-2.4-.5.5-.9,1-1.3,1.6Z"/>
  <path class="st0" d="M14,50.2c0,0,0,.1,0,.2,0,0,0,0,0,0,.3-.5.6-.8,1.1-.9.6-.2,1.2-.4,1.7-.6.5-.2.9-.5,1.4-.8,0,0,0,0,0,0,0,0,0,0,0,0,0,0-.1,0-.2,0-.4.3-.9.6-1.4.8-.5.2-1,.5-1.5.6-.5.2-.9.5-1.2.8ZM17.2,47.8c0,0-.1,0-.2,0,0,0,0,0-.1,0,0,0,0,0-.1,0,0,0,0,0-.1,0,0,0,0,0,0,0,0,0,0,0-.1.2,0,.1,0,.1.1,0,.2,0,.3-.1.3-.2,0,0,0,0,0,0,0,0,0,0,0,0,0,0,0,0,.1,0,0,0,.1-.1.1-.2,0,0,0,0,0,0Z"/>
  <path class="st0" d="M16.8,46.9s0,0,0,0c-1.7.8-2.7,1.9-2.8,3.2.2-.4.6-.7,1.2-.8.5-.2,1-.4,1.5-.6.5-.2,1-.5,1.4-.8-.6,0-1-.3-1.2-.9ZM17,47.8c0,0,.1,0,.2,0,0,0,0,0,0,0,0,0,0,.1-.1.2,0,0,0,0-.1,0,0,0,0,0,0,0,0,0,0,0,0,0,0,0-.1,0-.3.2-.2,0-.2,0-.1,0,0-.1.1-.2.1-.2,0,0,0,0,0,0,0,0,0,0,.1,0,0,0,0,0,.1,0,0,0,0,0,.1,0Z"/>
  <path class="st0" d="M16.8,47s0,0,0,0c.2.6.6.9,1.2.9,0,0,.1,0,.2,0,0,0,0,0,0,0,0,0,0,0,0,0-.3.4-.3.8,0,1.3.5.2.9.5,1.2,1,.3,0,.5.2.7.5.4.4.6,1.1.7,2,0,.8,0,1.7-.3,2.5-.2.6-.5,1.1-.9,1.5,0,.1,0,.3-.1.4-.7,2.1-1.5,4-2.5,5.8,0,.2-.2.3-.2.5-.1.2-.2.4-.3.6,0,.2-.2.5-.2.7-.5,1.3-.7,2.4-.8,3.2,0,.9-.1,1.4,0,1.7,0,0,0,.2,0,.3,0,.6.1,1.2.3,1.8.9,1.6,3.4,1.4,7.5-.6,0-.1.1-.2.2-.3.1-.2.3-.4.4-.6.1-.2.2-.5.4-.7.1-.3.3-.5.5-.6.2-.1.4-.2.7-.2-.5.2-.8.4-.9.7-.1.2-.3.5-.4.7-.1.2-.3.4-.4.7,0,.1-.1.2-.2.3h0c1.6,2.3,4.1,3,7.6,1.9,0-.2.2-.3.2-.4,0,0,0-.2,0-.2,0,0,0,0,0-.1,0,0,0,0,0,0,0,0,0,0,0,0,.2-.7.3-1.3.3-1.9,0,0,0-.2,0-.3,0,0,0-.2,0-.3,0,0,0,0,0,0v-.2c-.1,0-.1,0-.1,0,0,0-.1-.2-.2-.3-.6-.7-1.3-1.1-2.1-1.3-.6-.1-1.1-.1-1.7,0-1.3-.6-2.3-1.5-3-2.8-.4-.7-.6-1.6-.8-2.6,0-.2,0-.4,0-.6-.2-1.6-.1-3.5.2-5.6l.2-1.7c.4-4.1-.2-7-1.8-8.9,0,0,0,0,0,0,0,0,0,0,0-.1,0,0,0,0,0-.1,0,0,0,0,0,0,0,0,0,0-.1-.1,0,0,0,0-.1-.1l-.2-.2s0,0,0,0c-.2-.1-.3-.2-.4-.2-.3-.1-.6-.2-.9-.2-.6,0-1.1.2-1.7.6-1.1.7-1.6,1.4-1.5,2ZM21.4,46.2c.3.4.2.8-.2,1.2-.5.5-.9.8-1.3.9-.4.1-.8.2-1.1.1,0-.4.2-.8.7-1.1,0,0,0,0-.1-.1-.1-.1-.2-.3-.2-.5s0-.4.2-.5c.1-.1.3-.2.5-.2s.4,0,.5.2c0,0,0,0,0,0,.4-.3.7-.4,1,0ZM18.6,46.5s0,0,0,.1c-.4.5-.8.5-1.2,0,.6-.5,1-.5,1.2,0ZM27.2,67.7c-.5.1-1.1.3-1.6.7,0,0,.2-.2.5-.4.3-.2.7-.3,1.1-.3Z"/>
  <path class="st0" d="M18.5,46.6s0,0,0-.1c-.2-.4-.6-.4-1.2,0,.4.5.8.5,1.2,0ZM19.8,46.2s0,0,0,0c0,0,0,0-.2,0h0c0,0-.1,0-.2,0,0,0,0,.1,0,.2h0c0,0,0,.1,0,.2,0,0,0,0,0,0,0,0,0,0,.1,0s.1,0,.2,0c0,0,0-.1,0-.2s0,0,0-.1ZM21.2,47.4c.5-.5.6-.9.2-1.2-.3-.3-.6-.3-1,0,0,0,0,0,0,0,0,.1.1.3.1.4s0,.4-.2.5c-.1.1-.3.2-.5.2s-.2,0-.3,0c0,0,0,0,0,0-.5.4-.7.8-.7,1.1.4,0,.7,0,1.1-.1.4-.1.8-.4,1.3-.9Z"/>
  <path class="st0" d="M20.4,46.2s0,0,0,0c-.1-.1-.3-.2-.5-.2s-.4,0-.5.2c-.1.1-.2.3-.2.5s0,.4.2.5c0,0,0,0,.1.1,0,0,0,0,0,0,0,0,.2,0,.3,0,.2,0,.4,0,.5-.2.1-.1.2-.3.2-.5s0-.3-.1-.4c0,0,0,0,0,0ZM19.7,46.2s0,0,0,0c0,0,0,0,0,0,.1,0,.2,0,.3.1,0,0,.1.2.1.3s0,.2,0,.2c0-.1.1-.2.2-.4,0,0,0,0,0-.1,0,.1,0,.2,0,.3,0,.1,0,.2,0,.3-.1.3-.4.4-.8.3,0,0,0,0,0,0,.2,0,.3-.1.4-.2,0,0-.2,0-.3,0s-.2,0-.3-.1c0,0-.1-.2-.1-.3s0,0,0,0c0,0,0,0,0,0,0,0,0,0,0-.1h0c0,0,0-.1,0-.2,0,0,.1,0,.2,0h0c0,0,.1,0,.2,0Z"/>
  <path class="st0" d="M19.7,47.2s0,0,0,0c.4,0,.6,0,.8-.3,0,0,0-.2,0-.3,0,0,0-.2,0-.3,0,0,0,0,0,.1,0,.1-.1.3-.2.4,0,0,0,0,0,0,0,0,0,0,0,0-.1.1-.3.2-.4.2Z"/>
  <path class="st0" d="M19.9,46.2s0,0,0,0c0,0,0,0,0,.1s0,.1,0,.2c0,0,0,0-.2,0s0,0-.1,0c0,0,0,0,0,0,0,.1,0,.2.1.3,0,0,.2.1.3.1s.2,0,.3,0c0,0,0,0,0,0,0,0,0,0,0,0,0,0,0-.1,0-.2,0-.1,0-.2-.1-.3,0,0-.2-.1-.3-.1Z"/>
  <path class="st0" d="M23.7,43.4v-.2c-.5.3-.9.6-1.1,1,0,0,0,.1,0,.2-.2.4-.4.7-.6,1.1,0,0,0,0,0,.1.2-.5.4-.9.7-1.2.3-.4.6-.7,1-.9ZM22.8,42.6s0,0,0,0c-.2.3-.4.8-.7,1.6,0,.3-.2.6-.3,1,0,0,0,0,.1.1.1-.4.2-.7.4-1.1.2-.6.5-1,.8-1.4l-.2-.3ZM21.4,44.9c0-.2,0-.4,0-.6,0-.2,0-.4-.2-.6-.1-.2-.2-.4-.2-.5h-.2c0,.1,0,.1,0,.2.2.3.3.7.4,1,0,.2,0,.3,0,.5h0c0,0,0,0,.1.1ZM21.5,44.2c0,.2,0,.4,0,.7l.3.2c0-.3,0-.6.1-.9,0-.5.2-1,.4-1.4h-.2c-.1.1-.2.6-.3,1.1,0-.5,0-.9,0-1.3l-.2.2c.1.4.2.8.1,1.3Z"/>
  <path class="st0" d="M24.5,43.4c0,0,0-.1,0-.1,0,0,0,0,0,0,0,0,0-.1,0-.2,0,0,0,0-.1-.1-.1,0-.3,0-.5,0,0,0,0,0,0,0,0,0,0,0,0,0,0,0,0,0,0,0,0,0,0,0,0,0v.2c0,.1.1.2.2.2,0,0,0,0,.2,0,0,0,0,0,0,0,.1,0,.2,0,.3,0,0,0,0,0,.1-.1,0,0,0,0,0,0,0,0,0,0,0,0ZM22.9,42.5c0,0,0,0,0,.1l.2.3s0,0,0,0c.1,0,.3,0,.4-.2.1-.1.2-.2.2-.3,0,0,0,0,0,0,0-.1,0-.2,0-.3,0,0,0,0,0,0,0,0,0,0-.2-.1-.1,0-.2,0-.4.1-.2.1-.3.3-.3.4,0,0,0,0,0,.1ZM20.7,42.7c-.1-.1-.2-.2-.3-.2,0,0-.2,0-.3,0,0,0-.1.1-.2.2,0,.1,0,.3,0,.4,0,0,.1.2.2.2,0,0,.2,0,.3,0,0,0,.1,0,.2,0,0,0,0,0,0,0,0,0,0,0,0,0,0,0,0,0,0,0h0s.2-.1.2-.1c0,0,0,0,0-.1,0,0-.1-.2-.2-.3ZM22,42.5c0,.1,0,.2,0,.3h.2c.1,0,.2,0,.3-.1.1-.1.2-.3.2-.4,0-.2,0-.3,0-.4,0,0,0,0,0,0-.1-.1-.2-.1-.4,0,0,0,0,0-.1,0,0,0-.1.1-.2.2,0,.1,0,.3,0,.5ZM20.8,42.3c0,.2,0,.3.2.5.1.1.2.2.3.2h0s.2-.2.2-.2c0-.2,0-.3-.1-.5-.1-.3-.3-.5-.4-.5,0,0,0,0,0,0,0,0,0,0,0,0,0,0-.1,0-.2,0,0,0-.1.2-.1.4Z"/>
</svg>