<?xml version="1.0" encoding="UTF-8"?>
<svg id="Layer_1" xmlns="http://www.w3.org/2000/svg" version="1.1" viewBox="0 0 91 90">
  <!-- Generator: Adobe Illustrator 30.0.0, SVG Export Plug-In . SVG Version: 2.1.1 Build 123)  -->
  <defs>
    <style>
      .st0 {
        fill: #403f3e;
      }
    </style>
  </defs>
  <path class="st0" d="M27.9,59.5c-.6.3-.7.8-.4,1.6.3.7.8,1.4,1.5,2.1.5.5,1.1,1,1.9,1.6h0c.4.2.8.2,1.1,0,.2-.1.4-.3.6-.6.4,0,.7-.1.9-.3.4-.3.5-.8.4-1.5.3,0,.6-.2.9-.5.4-.4.5-.8.4-1.2-.5,0-1.2,0-2,0-1.5-.1-2.8-.5-3.9-1.2-.5-.4-1.1-.4-1.6,0ZM42.7,64.8c0,.8.3,1.8,1.1,3,.9,1.2,2,2.2,3.4,2.9,1.2.6,2.2.9,3.2,1,.3,0,.5-.2.8-.3,0,0,.1,0,.2-.1.1-.1.2-.4.2-.7.7-.1,1.1-.3,1.3-.4.5-.3.5-.8.2-1.4.5-.4.9-.8,1.1-1.2.3-.6,0-1.1-.9-1.4.1-.2.2-.5.2-.7,0-.3-.1-.5-.3-.7-.5-.5-1.2-.5-2.1-.1-1.5.6-2.4,0-2.8-1.7-.5.2-1.1.4-1.7.6-1.3.4-2.3.5-3,.3-.2,0-.4,0-.5.2-.2.2-.3.4-.3.7ZM82.5,38.2c-.6-.6-1.5-.5-2.7.3l-1.8,1.1h0c0,.3.2.9.3,1.9.1,1,.1,2,0,2.9-.4,2.7-2.1,5-5,6.8,0,0,0,0,0,.1.9,1.1,1.8,1.3,2.7.6.4.3.8.5,1.3.5.6,0,1-.3,1.2-1,.2-.7.5-1.2.8-1.4.3-.2.8-.4,1.5-.4.7,0,1.1-.4,1.2-1.1.1-.6,0-1.1-.3-1.5-.3-.3-.2-.7.1-1.3.3-.6.8-.9,1.3-.8.3,0,.5-.1.7-.4.2-.3.3-.6.3-.9,0-.9-.4-1.5-1.3-1.8-.4-.2-.6-.5-.6-1.1,0-.5.2-.9.4-1.1.1-.1.2-.3.1-.6,0-.3-.2-.6-.4-.8Z"/>
  <path class="st0" d="M20.1,55.5c.1-.3.3-.7.3-1,0,0,0,0,0,0,0,0,0-.2,0-.3,0-.7,0-1.3-.4-1.8-.2-.4-.5-.6-.9-.7,0,1.3-.5,3.3-1.7,6,.3-.1.6-.3.9-.6.7-.5,1.2-1,1.7-1.5ZM8.3,50.5c-.8.3-1.2.4-1.2.6-.3.1-.6.3-.7.5-.3.3-.5.8-.7,1.4-.2.6-.7,1.4-1.5,2.5-.8.9-1.4,1.5-1.8,1.7-.9.4-1.5,1-1.8,1.6-.3.7,0,1.2.6,1.6,3.5,1.9,6.6,2.5,9.4,1.7.9-.3,1.8-.7,2.6-1.3.1,0,.6-.5,1.4-1.2,1.1-1.2,2-2.6,2.7-4.1.2-.5.4-.9.5-1.4v-.5c-1.4-2.4-3.7-3.6-6.7-3.5-1,0-1.9.2-2.9.5ZM9.1,46.6c-1,.6-1.7,1.5-1.9,2.6,0,.3,0,.8,0,1.2,3.2-1.2,6-1.2,8.4,0,.8.4,1.5.9,2.1,1.5.4.4.7.8.8,1,.1-.1.2-.4.4-.8l.2-.6c-.8-3.7-2.6-5.6-5.6-5.8-.9,0-1.9,0-3,.4l-1.3.5Z"/>
  <path class="st0" d="M27.7,57.2h0c.9.3,1.8.5,2.7.8,1.5.4,3,.7,4.5.8,0,0,0,0,0,0,.6,0,1.3.1,2,.2-.4-.4-.6-.8-.8-1-.3-.4-.6-.8-.9-1.2-.2,0-.4-.2-.7-.2-.5.4-1.7.6-3.4.7-1.9,0-3,0-3.5,0ZM52.8,56.2c-.3.5-.6,1.1-1.1,1.6-.2.3-.4.5-.6.7,2.9-.7,4.8-1.2,5.5-1.4,1.8-.5,3.3-1,4.5-1.4,2.8-1,5.7-2.7,8.7-4.9-1.5,1-4.2,2.1-8,3.3-4,1.2-7,1.9-9.1,2Z"/>
  <path class="st0" d="M27.7,57.2h-.4c0,0-.3.7-.3.7-.2.7-.3,1.4-.2,2,.2,2.1,1.6,3.7,4.1,4.8-.8-.6-1.4-1.1-1.9-1.6-.7-.7-1.2-1.4-1.5-2.1-.3-.7-.2-1.3.4-1.6.5-.3,1.1-.3,1.6,0,1,.7,2.3,1.1,3.9,1.2.8,0,1.4,0,2,0-.1-.3-.3-.5-.6-.7.1-.1.2-.2.3-.4,0-.2,0-.4,0-.8-1.5-.2-3-.4-4.5-.8-1-.3-1.9-.5-2.7-.8h0ZM41.4,61.2s0,0,0,0c0,1,.3,2.1.6,3.3.4,1.5,1,2.9,1.7,4,1.8,2.8,4,3.9,6.7,3.2-1,0-2-.4-3.2-1-1.4-.7-2.5-1.7-3.4-2.9-.8-1.2-1.2-2.2-1.1-3,0-.3.1-.6.3-.7.2-.2.3-.2.5-.2.7.1,1.7,0,3-.3.6-.2,1.2-.4,1.7-.6-.1-.6-.2-1.4-.2-2.3-.4.2-.9.4-1.3.6-1.7.6-3.5.6-5.4,0ZM78.4,41.5c-.2-1-.3-1.6-.3-1.9l-1.8,1.1s0,0,0,0c.1,1,0,2,0,2.9-.4,2.4-1.7,4.4-3.9,5.9l.3.6c.2.4.5.8.7,1.1,2.9-1.8,4.5-4.1,5-6.8.2-.9.2-1.9,0-2.9Z"/>
  <path class="st0" d="M23.3,56.9l-.9.5c1-.3,1.8-.5,2.7-.5.7,0,1.4,0,2.3.3h.4c.5,0,1.7,0,3.5.1,1.7,0,2.9-.3,3.4-.7-3.1-1-6-1.1-8.8-.5-.4,0-1.1.3-1.9.6l-.6.2ZM19.6,47.5c-.2,0-.4,0-.5-.2.3,1.3.8,2.1,1.4,2.4.3.2.6.2.9,0,.6-.2.9-.7.9-1.4,0-.5-.1-1.1-.4-1.7,0,.2-.2.3-.4.4,0,0-.3,0-.8.2-.5.1-.8.1-1.1.1Z"/>
  <path class="st0" d="M22.4,57.4l.9-.5.6-.2c.2-.1.4-.3.7-.5.5-.5.8-1,1.1-1.5-1.1.8-1.9,1.3-2.6,1.7-1.1.5-2.3.8-3.5.9.1-.2.3-.6.5-1.2.2-.6.3-1.1.4-1.5,0,.3-.2.7-.3,1,0,.2-.2.3-.3.5-.4.7-1,1.3-1.8,1.9.5,0,1.3,0,2.1,0,.8,0,1.5-.2,2.2-.5ZM76.3,36.2c-.4-.6-.9-1.3-1.5-2,.3.8.6,1.5.7,2.1.2.6.3,1.3.5,2.1.3-.1.7-.3,1-.4,0-.5-.3-1.1-.7-1.8Z"/>
  <path class="st0" d="M7.2,51c0-.1.4-.3,1.2-.6.9-.3,1.9-.4,2.9-.5,3,0,5.3,1.1,6.9,3.5v.5c-.3.4-.5.9-.7,1.4-.7,1.5-1.6,2.8-2.7,4.1.9-.1,1.5-.3,1.9-.5.5-.4,1-.7,1.5-1,.8-.6,1.4-1.2,1.8-1.9,0-.2.2-.3.3-.5-.4.5-1,1-1.7,1.5-.3.2-.6.4-.9.6,1.2-2.7,1.7-4.7,1.7-6,0,0-.1,0-.2,0,0,0,0,0,0,0l-.2.6c-.2.4-.3.7-.4.8,0-.2-.3-.6-.8-1-.6-.6-1.3-1.1-2.1-1.5-2.4-1.2-5.2-1.1-8.4,0,0,.2,0,.4,0,.6Z"/>
  <path class="st0" d="M86.4,19c-1.5-.3-3.1,0-4.7.6-1.6.7-2.7,1.8-3.4,3.1-.5.8-.8,1.3-1,1.6-.5.7-1,1.3-1.6,1.9-1.6,1.5-3.7,2.6-6.4,3.3-6.2-4.2-13.2-5.1-21-2.6-2.6.8-5.2,2-7.8,3.6-.9.5-1.8,1.1-2.7,1.7-.9.6-1.4,1-1.7,1.1-1.3.2-3,.8-5.1,1.8-.6.3-1.7.9-3.3,1.7-.6.3-1.2.6-1.9.8-1.1.3-2.1.4-3.1.3-2-.6-3.8-.7-5.6-.4-1.6.3-3.1.9-4.3,1.9-1.2.9-2.1,2-2.8,3.3-.7,1.3-1,2.6-1,3.8l1.3-.5c1-.3,2-.4,3-.4,3,.2,4.8,2.1,5.6,5.8,0,0,0,0,0,0h0c0,0,.1,0,.2,0,.3.1.6.4.9.7.3.5.4,1.1.4,1.8,0,0,0,.2,0,.3,0,0,0,0,0,0,0,.4-.2.9-.4,1.5-.2.6-.4.9-.5,1.2,1.3,0,2.4-.4,3.5-.9.6-.3,1.5-.9,2.6-1.7-.2.6-.6,1.1-1.1,1.5-.3.2-.5.4-.7.5.9-.3,1.5-.5,1.9-.6,2.8-.6,5.7-.4,8.8.5.2,0,.4.1.7.2.3.5.6.9.9,1.2.2.2.4.5.8,1,1.6,1,3.1,1.7,4.4,2.1,0,0,0,0,0,0,2,.6,3.8.7,5.4,0,.4-.1.8-.3,1.3-.6.9-.5,1.9-1.2,3-2.1.2-.2.4-.4.6-.7.5-.6.8-1.1,1.1-1.6,2.1-.1,5.1-.8,9.1-2,3.9-1.2,6.6-2.3,8-3.3h.1c0-.1,0-.1,0-.2.8-.4,1.5-.8,2.1-1.2,2.2-1.5,3.5-3.5,3.9-5.9.1-.9.1-1.8,0-2.9,0,0,0,0,0,0,0-.5-.2-1.2-.3-2.2-.1-.8-.3-1.5-.5-2.1-.2-.6-.4-1.2-.7-2.1.6.7,1.1,1.3,1.5,2,.4.7.6,1.3.7,1.8,2.5-1,4.8-2.2,6.9-3.5,3.4-2.1,5.4-4.2,6-6.2.8-2.8.9-5,0-6.6-.7-1.4-1.8-2.3-3.5-2.7ZM20.6,45.1c.2,0,.5.2.6.3.4-.1.9-.3,1.5-.4.3,0,.7-.2,1.2-.3.3,0,.6,0,.8.1.2.2.3.4.4.6,0,.3,0,.5-.2.6-.2.2-.5.2-.9.2-.4,0-.8,0-1.1,0-.2,0-.5,0-.9.1,0,.2,0,.3,0,.4h0c.3.6.4,1.2.4,1.7,0,.7-.3,1.2-.9,1.4-.3,0-.6,0-.9,0-.7-.3-1.1-1.1-1.4-2.4,0,0-.1-.2-.1-.3,0-.4,0-.8,0-1.2.2-.4.5-.7.9-.8.2,0,.4,0,.7,0Z"/>
  <path class="st0" d="M21.9,46.3c0-.3-.3-.6-.6-.9,0,0,0,0,0,0-.2-.1-.4-.2-.6-.3-.3,0-.5,0-.7,0-.5,0-.8.4-.9.8-.1.3-.1.7,0,1.2,0,.1,0,.2.1.3.1.1.3.2.5.2.2,0,.6,0,1.1-.1.5,0,.7-.2.8-.2.2,0,.4-.2.4-.4h0c0-.1,0-.3,0-.4Z"/>
  <path class="st0" d="M21.3,45.4c.3.3.5.6.6.9.4,0,.8,0,.9-.1.3,0,.7,0,1.1,0,.4,0,.7,0,.9-.2.2-.2.2-.4.2-.6,0-.3-.2-.5-.4-.6-.2-.2-.5-.2-.8-.1-.5.1-.8.2-1.2.3-.6.2-1.1.3-1.5.4,0,0,0,0,0,0Z"/>
</svg>