<?xml version="1.0" encoding="UTF-8"?>
<svg id="Layer_1" xmlns="http://www.w3.org/2000/svg" version="1.1" viewBox="0 0 91 90">
  <!-- Generator: Adobe Illustrator 30.0.0, SVG Export Plug-In . SVG Version: 2.1.1 Build 123)  -->
  <defs>
    <style>
      .st0 {
        fill: #403f3e;
      }
    </style>
  </defs>
  <path class="st0" d="M86.5,48.5c0,0-.9-2.1-.9-2.1h-.3c0-.2,0-.4-.1-.5,0,0,0,0-.1,0,.2-.2.4-.3.6-.5h-.2l-3.4-.6s0,0,0,0c.7-.6,1.2-1.1,1.2-1.7s0-.6-.3-.9,0,0,0,0c.1,0,.2-.2.3-.3h0c0,0-.3-.9-.3-.9l-7.5.3c-.3-.4-.5-.8-.8-1.1-1.3-5.8-4.2-11-8.9-15.4s-9.4-7-15.1-8.3c0,0,0,0,0,0s0,0,0,0c0,0,0,0,0,0,0-.4-.7-.9-2.4-1.6h0c0,0-2.4-.8-2.4-.8,0,0,0,0,0,0h0s0,0,0,0c-.7-.3-1.4-.6-2.2-.8-.1-.4-.3-.7-.4-1.1-.2-.4-1.1-.6-2.6-.5h0c0,0-2.2.3-2.2.3h0c0,.1,0,.2,0,.2-.4,0-.8,0-1.2,0,0-.5-.3-.9-.6-1.3-.4-.3-.7-.5-1.3-.6-.1,0-.2,0-.3,0l-.3-1.3h0s0,0,0,0l-8.4,3.4h0c0,.2.2.4.3.5-.6.1-1.2.3-1.8.5,0,0,0,0,0,0-.2-.6-1.2-.5-3.1.3-.5.3-1.2.6-1.9,1l-.8.5s0,0,0,0h0c0,.1.1.2.2.3-.2.1-.5.2-.7.4-.2-.5-.4-.8-.8-1.1-.4-.2-.7-.3-1-.3-.1,0-.3,0-.4,0-.4,0-.5.4-.5.9s.1,1.1.4,1.8c-.4.3-.8.5-1.2.8,0-.1-.2-.2-.2-.3-1.8,1.8-3.4,3.5-5,5.3-3.1,3.4-3.9,5-2.6,4.7-.3.6-.6,1.3-.8,2-.2,0-.4.1-.7.2h0c0,0,0,0,0,0h-.3c0,0-.8,1.4-.8,1.4-.6,1-1.1,1.9-1.5,2.8-1.2,2.7-.7,4.1,1.4,4.2,0,0,.1,0,.2,0,0,.2,0,.4,0,.5-.1,0-.2,0-.4,0-.3,0-.5,0-.8.2-.6,0-1,.3-1.4.3-.4.2-.5.4-.2.5,0,.3,1,.5,2.7.8,0,0,0,0,0,0,0,.2,0,.4,0,.6-.1,0-.3-.1-.4-.2h0s0,0,0,0v1.4c0,1.2,0,2.3,0,3.3h0c.3,3.2.9,4.7,1.9,4.4,0,0,0,0,.1,0,0,0,0,0,0,.1.1.3.2.6.4.9-.2.1-.4.2-.6.4l.3,1c.2.8.4,1.6.6,2.2.7,2.1,1.5,2.8,2.4,2.4,0,0,.1,0,.2-.1.2.4.5.7.7,1.1-.1,0-.2.1-.4.2h0s0,0-.1,0v.2c0,0,1.8,2.2,1.8,2.2.2,0,.3,0,.5-.1.3.4.6.7.9,1.1v.6c.2.6.4,1.2.7,1.7.6,1.4,1.6,2,2.8,1.8,0,0,0,0,0,0,.6.8,1.3,1.6,2,2.3,0,0,0,0,0,0,.2.4.4.6.8.7.1.1.3.3.4.4,6.4,6.1,14.1,9.2,23.1,9.2s13.7-2,19.2-6c.3-.1.7-.2,1-.3,2-.7,3.6-1.6,4.9-2.9,1.6-1.6,2.7-3.6,3-5.9.4-.6.8-1.2,1.1-1.9.4-.2.7-.4,1-.5,1-.3,1.9-.7,3-1.4,1.8-.8,3.4-1.2,4.8-1.3,1.8-.1,2.8-.6,3-1.3.2,0,.4,0,.6,0l1.1-.5-2.8-2.1-1,.2c.6-.7,1.1-1.2,1.3-1.5,0,0,0,0,0,0,.7-.5,1.4-1,2.1-1.5.5-.3.7-.7,1-1.1.3-.5.3-.9,0-1.1,0,0-.1-.1-.2-.2.2-.2.4-.3.6-.5h0Z"/>
</svg>