<?xml version="1.0" encoding="UTF-8"?>
<svg id="Layer_1" xmlns="http://www.w3.org/2000/svg" version="1.1" xmlns:xlink="http://www.w3.org/1999/xlink" viewBox="0 0 91 90">
  <!-- Generator: Adobe Illustrator 30.0.0, SVG Export Plug-In . SVG Version: 2.1.1 Build 123)  -->
  <defs>
    <style>
      .st0 {
        mask: url(#mask-5);
      }

      .st1 {
        mask: url(#mask-1);
      }

      .st2 {
        mask: url(#mask-10);
      }

      .st3 {
        mask: url(#mask-6);
      }

      .st4 {
        mask: url(#mask-7);
      }

      .st5 {
        fill: #fff;
      }

      .st6 {
        mask: url(#mask);
      }

      .st7 {
        mask: url(#mask-8);
      }

      .st8 {
        mask: url(#mask-2);
      }

      .st9 {
        mask: url(#mask-9);
      }

      .st10 {
        stroke-width: .1px;
      }

      .st10, .st11, .st12, .st13, .st14, .st15 {
        fill: #403f3e;
      }

      .st10, .st11, .st12, .st14 {
        stroke-linecap: round;
        stroke-linejoin: round;
      }

      .st10, .st11, .st12, .st14, .st15 {
        stroke: #403f3e;
      }

      .st12 {
        stroke-width: 11px;
      }

      .st16 {
        mask: url(#mask-11);
      }

      .st17 {
        mask: url(#mask-4);
      }

      .st14 {
        stroke-width: 2px;
      }

      .st15 {
        stroke-miterlimit: 10;
      }

      .st18 {
        mask: url(#mask-3);
      }
    </style>
    <mask id="mask" x="36" y="23.5" width="44.8" height="25.3" maskUnits="userSpaceOnUse">
      <g id="mask0_1808_2957">
        <path class="st5" d="M67,48.5c.8.4,1.8.4,3.1,0,.8-.2,2.3-.8,4.5-1.8,2.5-1.1,4.6-2,6.3-2.6-3.3-5.8-7.4-10.5-12.5-14.1-2.6-1.8-5-3.2-7.4-4.1-.6-.2-1.1-.3-1.4-.2-.5.2-.9.7-1.2,1.7-.8,3.1-2.4,4.9-4.7,5.7-1.6.5-3.7.4-6.4-.2-1-.2-1.8-.2-2.3.1-.5.2-.8.6-.9,1.2,0,.5,0,1,.3,1.5.3.5.8.9,1.3,1.1l2.8.9c2.5.8,5.5,1.6,8.9,2.5,3.4.9,5.7,2.1,6.9,3.4.6.7.8,1.3.7,1.8.6,1.6,1.3,2.6,2.1,3.1Z"/>
      </g>
    </mask>
    <mask id="mask-1" x="44" y="25.7" width="36.8" height="23.1" maskUnits="userSpaceOnUse">
      <g id="mask1_1808_2957">
        <path class="st5" d="M67,48.5c.8.4,1.8.4,3.1,0,.8-.2,2.3-.8,4.5-1.8,2.5-1.1,4.6-2,6.3-2.6-3.3-5.8-7.4-10.5-12.5-14.1-2.6-1.8-5-3.2-7.4-4.1-.6-.2-1.1-.3-1.4-.2-.5.2-.9.7-1.2,1.7-.8,3.1-2.4,4.9-4.7,5.7-1.6.5-3.7.4-6.4-.2-1-.2-1.8-.2-2.3.1-.5.2-.8.6-.9,1.2,0,.5,0,1,.3,1.5.3.5.8.9,1.3,1.1l2.8.9c2.5.8,5.5,1.6,8.9,2.5,3.4.9,5.7,2.1,6.9,3.4.6.7.8,1.3.7,1.8.6,1.6,1.3,2.6,2.1,3.1Z"/>
      </g>
    </mask>
    <mask id="mask-2" x="58.6" y="40.4" width="28.8" height="12.8" maskUnits="userSpaceOnUse">
      <g id="mask2_1808_2957">
        <path class="st5" d="M82.3,47.2c1.2-.6,2.4-1.3,3.7-2.3.8-.7,1.3-1.3,1.3-2,0-.4,0-.7-.3-1-.2-.2-.4-.3-.9-.4-.7,0-1.4.2-2.2.7-2.7,1.7-4.6,2.6-5.9,2.6-2.4,0-5.5-.1-9.4-.3-2.3,0-4,.4-5.2,1.3-1,.8-2,2.5-2.9,4.9l2.9,2.1h.2c.1.1.3.1.4,0,.4,0,.8-.5,1-1.1.3-.9.8-1.6,1.4-2.1.7-.6,1.5-.9,2.4-1,2.1-.2,5-.3,8.5-.4,1.6,0,3.2-.4,4.9-1.2Z"/>
      </g>
    </mask>
    <mask id="mask-3" x="62.8" y="44.3" width="27.9" height="10.5" maskUnits="userSpaceOnUse">
      <g id="mask3_1808_2957">
        <path class="st5" d="M89.2,47.9c.4-.7.5-1.3.2-1.6-.3-.3-.6-.5-1-.4-.5,0-1.2.3-2.1.9-2.9,1.9-5.2,2.8-7.2,2.7-1,0-1.8-.1-2.6-.2-1.4,0-2.8-.1-4.1-.2-1.6,0-2.9.3-4,.8-1.1.6-2.1,1.5-3,2.7v.5c-.1.4-.1.7,0,1,.2.9,1,1,2.3.3,1.6-.8,2.8-1.2,3.6-1.4.9-.2,2.7-.3,5.4-.4,2.5,0,4.5-.3,6.1-.8,1-.3,2.3-.9,3.9-1.7,1.1-.6,2-1.4,2.5-2.2Z"/>
      </g>
    </mask>
    <mask id="mask-4" x="66.8" y="46.3" width="24.7" height="13.7" maskUnits="userSpaceOnUse">
      <g id="mask4_1808_2957">
        <path class="st5" d="M81.7,56.9c1.5-.4,3.1-1.2,4.8-2.2,1-.6,1.9-1.3,2.8-2,.5-.4.8-.8,1.1-1.3.3-.6.3-1,0-1.3-.3-.3-.7-.4-1.2-.2-.3.1-.9.4-1.7.9-.7.5-1.6.9-2.5,1.3-1.1.5-2.7,1-4.6,1.5-2.2.6-4.1,1.1-5.6,1.4-1.8.4-3.5.7-5.2.8l.7,2.3c.5,1.5,1,2.1,1.4,1.9.4-.2.8-.4,1.2-.6.6-.3,1.1-.5,1.4-.6.5-.2,1.4-.5,2.9-.8,2.2-.5,3.8-.9,4.7-1.1Z"/>
      </g>
    </mask>
    <mask id="mask-5" x="69.2" y="55.4" width="21.3" height="9.7" maskUnits="userSpaceOnUse">
      <g id="mask5_1808_2957">
        <path class="st5" d="M87.1,57.6c-.7-.3-1.7-.4-2.9-.3-1.4.1-2.6.4-3.8.7-1.1.3-2.4.8-3.7,1.4-1,.5-2,.9-3,1.3-1,.4-1.7.7-2,.8-.5.2-.4.9.3,2,.4.5.8,1.1,1.2,1.6,2.1-1.3,4-2.3,5.6-3,2.1-1,4-1.5,5.7-1.7,2.4-.2,3.5-.9,3.4-2,0-.3-.3-.5-.8-.8Z"/>
      </g>
    </mask>
    <mask id="mask-6" x="60.9" y="48.7" width="22.5" height="7.5" maskUnits="userSpaceOnUse">
      <g id="mask6_1808_2957">
        <path class="st5" d="M80.6,55.8c.1,0,.2-.2.4-.4.1-.3.1-.5,0-.7-.4-.4-1.3-.9-2.8-1.5-1.6-.6-3.4-.9-5.5-.9-1.6,0-3.3.2-5,.6l-2.2,2.3,1.4.5c1.1.2,2,.2,2.9,0,1-.3,1.8-.5,2.5-.6.6,0,1.5-.1,2.6,0,1,0,1.8,0,2.6.2.3,0,1,.2,2,.5.6.2,1,.2,1.3.1Z"/>
      </g>
    </mask>
    <mask id="mask-7" x=".5" y="6.9" width="73.2" height="73.4" maskUnits="userSpaceOnUse">
      <g id="mask7_1808_2957">
        <path class="st5" d="M69.8,55.3c-.9-1-2-1.8-3.1-2.5-.9-.6-1.7-.9-2.3-1.1-.7-.2-2.4-.7-5-1.6-3-.9-4.7-1.5-5.1-1.6-.7-.2-1.2-.4-1.3-.4-.4-.2-.7-.4-1-.7-.6-.6-1.5-2.1-2.8-4.5-1.2-2.2-2.5-3.9-3.9-5.1-.8-.6-1.6-1.1-2.6-1.5-.5-.2-.9-.4-1.2-.5-.5-.2-1.3-.5-2.5-.8-.6-.2-1.1-.6-1.4-1.2-.3-.5-.3-1.1-.2-1.7.2-.6.5-1.1,1-1.4.6-.3,1.2-.4,2.1-.2.6.2,2,.5,4.1,1.1,2,.5,3.5.9,4.5,1,1.2.2,2.3.1,3.3-.2,1-.3,2-.8,3-1.6.9-.7,1.6-1.9,2.1-3.7.4-1.5.6-2.7.5-3.8,0-.5-.2-1.2-.5-2.1-.4-1.1-.9-2.2-1.5-3.4-1.8-3.2-4.3-5.7-7.6-7.7-1.9-1.1-4.1-2-6.7-2.6-2.5-.6-5.2-.9-8-.9-6.1,0-11.4,1.1-16.1,3.5-5.2,2.6-9.3,6.2-12.3,10.9C2,26.6.3,32.8.5,39.8c0,3.8.7,7.5,1.9,11.2,1.2,3.7,2.9,7.2,5.2,10.5,4.8,7.1,11.2,12.3,19.3,15.7,7,2.9,15.1,3.8,24.2,2.7,5-.6,9.6-1.7,13.8-3.3,2.2-.8,4-1.9,5.4-3.4,2.2-2.3,3.4-5.2,3.4-8.7,0-3.5-1.3-6.6-3.9-9.3Z"/>
      </g>
    </mask>
    <mask id="mask-8" x="-3.1" y="2.3" width="76.8" height="78.1" maskUnits="userSpaceOnUse">
      <g id="mask8_1808_2957">
        <path class="st5" d="M69.8,55.3c-.9-1-2-1.8-3.1-2.5-.9-.6-1.7-.9-2.3-1.1-.7-.2-2.4-.7-5-1.6-3-.9-4.7-1.5-5.1-1.6-.7-.2-1.2-.4-1.3-.4-.4-.2-.7-.4-1-.7-.6-.6-1.5-2.1-2.8-4.5-1.2-2.2-2.5-3.9-3.9-5.1-.8-.6-1.6-1.1-2.6-1.5-.5-.2-.9-.4-1.2-.5-.5-.2-1.3-.5-2.5-.8-.6-.2-1.1-.6-1.4-1.2-.3-.5-.3-1.1-.2-1.7.2-.6.5-1.1,1-1.4.6-.3,1.2-.4,2.1-.2.6.2,2,.5,4.1,1.1,2,.5,3.5.9,4.5,1,1.2.2,2.3.1,3.3-.2,1-.3,2-.8,3-1.6.9-.7,1.6-1.9,2.1-3.7.4-1.5.6-2.7.5-3.8,0-.5-.2-1.2-.5-2.1-.4-1.1-.9-2.2-1.5-3.4-1.8-3.2-4.3-5.7-7.6-7.7-1.9-1.1-4.1-2-6.7-2.6-2.5-.6-5.2-.9-8-.9-6.1,0-11.4,1.1-16.1,3.5-5.2,2.6-9.3,6.2-12.3,10.9C2,26.6.3,32.8.5,39.8c0,3.8.7,7.5,1.9,11.2,1.2,3.7,2.9,7.2,5.2,10.5,4.8,7.1,11.2,12.3,19.3,15.7,7,2.9,15.1,3.8,24.2,2.7,5-.6,9.6-1.7,13.8-3.3,2.2-.8,4-1.9,5.4-3.4,2.2-2.3,3.4-5.2,3.4-8.7,0-3.5-1.3-6.6-3.9-9.3Z"/>
      </g>
    </mask>
    <mask id="mask-9" x=".5" y="5.8" width="73.2" height="74.5" maskUnits="userSpaceOnUse">
      <g id="mask9_1808_2957">
        <path class="st5" d="M69.8,55.3c-.9-1-2-1.8-3.1-2.5-.9-.6-1.7-.9-2.3-1.1-.7-.2-2.4-.7-5-1.6-3-.9-4.7-1.5-5.1-1.6-.7-.2-1.2-.4-1.3-.4-.4-.2-.7-.4-1-.7-.6-.6-1.5-2.1-2.8-4.5-1.2-2.2-2.5-3.9-3.9-5.1-.8-.6-1.6-1.1-2.6-1.5-.5-.2-.9-.4-1.2-.5-.5-.2-1.3-.5-2.5-.8-.6-.2-1.1-.6-1.4-1.2-.3-.5-.3-1.1-.2-1.7.2-.6.5-1.1,1-1.4.6-.3,1.2-.4,2.1-.2.6.2,2,.5,4.1,1.1,2,.5,3.5.9,4.5,1,1.2.2,2.3.1,3.3-.2,1-.3,2-.8,3-1.6.9-.7,1.6-1.9,2.1-3.7.4-1.5.6-2.7.5-3.8,0-.5-.2-1.2-.5-2.1-.4-1.1-.9-2.2-1.5-3.4-1.8-3.2-4.3-5.7-7.6-7.7-1.9-1.1-4.1-2-6.7-2.6-2.5-.6-5.2-.9-8-.9-6.1,0-11.4,1.1-16.1,3.5-5.2,2.6-9.3,6.2-12.3,10.9C2,26.6.3,32.8.5,39.8c0,3.8.7,7.5,1.9,11.2,1.2,3.7,2.9,7.2,5.2,10.5,4.8,7.1,11.2,12.3,19.3,15.7,7,2.9,15.1,3.8,24.2,2.7,5-.6,9.6-1.7,13.8-3.3,2.2-.8,4-1.9,5.4-3.4,2.2-2.3,3.4-5.2,3.4-8.7,0-3.5-1.3-6.6-3.9-9.3Z"/>
      </g>
    </mask>
    <mask id="mask-10" x=".5" y="4" width="73.2" height="76.4" maskUnits="userSpaceOnUse">
      <g id="mask10_1808_2957">
        <path class="st5" d="M69.8,55.3c-.9-1-2-1.8-3.1-2.5-.9-.6-1.7-.9-2.3-1.1-.7-.2-2.4-.7-5-1.6-3-.9-4.7-1.5-5.1-1.6-.7-.2-1.2-.4-1.3-.4-.4-.2-.7-.4-1-.7-.6-.6-1.5-2.1-2.8-4.5-1.2-2.2-2.5-3.9-3.9-5.1-.8-.6-1.6-1.1-2.6-1.5-.5-.2-.9-.4-1.2-.5-.5-.2-1.3-.5-2.5-.8-.6-.2-1.1-.6-1.4-1.2-.3-.5-.3-1.1-.2-1.7.2-.6.5-1.1,1-1.4.6-.3,1.2-.4,2.1-.2.6.2,2,.5,4.1,1.1,2,.5,3.5.9,4.5,1,1.2.2,2.3.1,3.3-.2,1-.3,2-.8,3-1.6.9-.7,1.6-1.9,2.1-3.7.4-1.5.6-2.7.5-3.8,0-.5-.2-1.2-.5-2.1-.4-1.1-.9-2.2-1.5-3.4-1.8-3.2-4.3-5.7-7.6-7.7-1.9-1.1-4.1-2-6.7-2.6-2.5-.6-5.2-.9-8-.9-6.1,0-11.4,1.1-16.1,3.5-5.2,2.6-9.3,6.2-12.3,10.9C2,26.6.3,32.8.5,39.8c0,3.8.7,7.5,1.9,11.2,1.2,3.7,2.9,7.2,5.2,10.5,4.8,7.1,11.2,12.3,19.3,15.7,7,2.9,15.1,3.8,24.2,2.7,5-.6,9.6-1.7,13.8-3.3,2.2-.8,4-1.9,5.4-3.4,2.2-2.3,3.4-5.2,3.4-8.7,0-3.5-1.3-6.6-3.9-9.3Z"/>
      </g>
    </mask>
    <mask id="mask-11" x="50.2" y="40.8" width="11.6" height="14.1" maskUnits="userSpaceOnUse">
      <g id="mask11_1808_2957">
        <path class="st5" d="M61.6,46.4c.3-1,.2-2.1-.5-3.1-.7-1-1.6-1.7-2.9-2.2-1.3-.4-2.5-.4-3.6,0-1.1.4-1.9,1.2-2.2,2.2-.3,1-.2,2.1.5,3.1.7,1,1.6,1.8,2.9,2.2,1.3.4,2.5.4,3.6,0,1.1-.4,1.9-1.2,2.2-2.2Z"/>
      </g>
    </mask>
  </defs>
  <path class="st13" d="M68.1,73.2c7.1-7.1,10.6-15.7,10.6-25.8s-3.5-18.7-10.6-25.8c-7.1-7.1-15.6-10.7-25.5-10.7s-18.5,3.6-25.5,10.7c-7.1,7.1-10.6,15.7-10.6,25.8s3.5,18.7,10.6,25.8c7.1,7.1,15.6,10.7,25.5,10.7s18.5-3.6,25.5-10.7Z"/>
  <path class="st13" d="M83.6,47.6c-.2-.6-.7-1.3-1.5-2l-8.6,1.6-8.8,1.5-5.1,6.7,12.7,8.2.8.2c.7,0,1.4,0,2.2-.1,2.6-.6,5.4-2.5,8.5-5.7,1.7-1.8,2.7-2.9,3.1-3.5.3-.4.2-.6-.3-.5-.7.2-1.2.4-1.4.4-.5,0-.6-.2-.4-.8.5-1.1.4-2,0-2.6-.3-.3-.5-.5-.6-.7-.2-.2-.3-.5-.3-.8,0-.8,0-1.4-.2-1.9Z"/>
  <path class="st15" d="M48.9,25.8c-5.9-.5-8.9-.6-9-.6-.2.1-3.1,1.7-8.5,4.7l9.2,18.9,19.6,6.2,7.5-9.1-7.2-18.3-2.8-1.1c-2.9-.2-5.8-.5-8.8-.7Z"/>
  <path class="st15" d="M67,48.5c.8.4,1.8.4,3.1,0,.8-.2,2.3-.8,4.5-1.8,2.5-1.1,4.6-2,6.3-2.6-3.3-5.8-7.4-10.5-12.5-14.1-2.6-1.8-5-3.2-7.4-4.1-.6-.2-1.1-.3-1.4-.2-.5.2-.9.7-1.2,1.7-.8,3.1-2.4,4.9-4.7,5.7-1.6.5-3.7.4-6.4-.2-1-.2-1.8-.2-2.3.1-.5.2-.8.6-.9,1.2,0,.5,0,1,.3,1.5.3.5.8.9,1.3,1.1l2.8.9c2.5.8,5.5,1.6,8.9,2.5,3.4.9,5.7,2.1,6.9,3.4.6.7.8,1.3.7,1.8.6,1.6,1.3,2.6,2.1,3.1Z"/>
  <g class="st6">
    <path class="st15" d="M43.8,29.6c-2.7.2-4.8.5-6.1,1.1-2.7,1.1-.6,2.5,6.3,4.3,7.2,1.9,12.1,1.5,14.8-1.1,1-1,1.7-2.3,2.3-4.1.2-.6.4-1.4.6-2.4.3-1.4.5-2.2.5-2.3l-3.5-1.1-14.9,5.6Z"/>
  </g>
  <g class="st1">
    <g>
      <path class="st15" d="M60.9,35.2c-.4,0-.8.2-1.1.5-.3.3-.5.7-.5,1.1s.2.8.5,1.1c.3.3.7.5,1.1.5s.8-.2,1.1-.5c.3-.3.5-.7.5-1.1s-.2-.8-.5-1.1c-.3-.3-.7-.5-1.1-.5ZM64.3,31.5c.1-.1.2-.3.2-.4s0-.3-.2-.4c-.1-.1-.3-.2-.4-.2s-.3,0-.4.2c-.1.1-.2.3-.2.4s0,.3.2.4c.1.1.3.2.4.2s.3,0,.4-.2ZM67.5,40.7c0-.2,0-.4-.2-.6-.2-.2-.3-.2-.6-.2s-.4,0-.6.2c-.2.2-.2.3-.2.6s0,.4.2.6c.2.2.3.2.6.2s.4,0,.6-.2c.2-.2.2-.3.2-.6ZM75.6,39.1c-.4-.4-.8-.6-1.3-.6s-1,.2-1.3.6c-.4.4-.6.8-.6,1.3s.2,1,.6,1.3c.4.4.8.6,1.3.6s1-.2,1.3-.6c.4-.4.6-.8.6-1.3s-.2-1-.6-1.3ZM71.9,38.2c0-.2,0-.4-.2-.5-.1-.1-.3-.2-.5-.2s-.4,0-.5.2c-.1.1-.2.3-.2.5s0,.4.2.5c.1.1.3.2.5.2s.4,0,.5-.2c.1-.1.2-.3.2-.5ZM65.8,33.7c0,.5.2.8.5,1.2.3.3.7.5,1.2.5s.8-.2,1.1-.5c.3-.3.5-.7.5-1.2s-.2-.8-.5-1.2c-.3-.3-.7-.5-1.1-.5s-.8.2-1.2.5c-.3.3-.5.7-.5,1.2Z"/>
      <path class="st10" d="M69,33.7c0,.5-.2.8-.5,1.2-.3.3-.7.5-1.1.5s-.8-.2-1.2-.5c-.3-.3-.5-.7-.5-1.2s.2-.8.5-1.2c.3-.3.7-.5,1.2-.5s.8.2,1.1.5c.3.3.5.7.5,1.2ZM71.9,38.2c0,.2,0,.4-.2.5-.1.1-.3.2-.5.2s-.4,0-.5-.2c-.1-.1-.2-.3-.2-.5s0-.4.2-.5c.1-.1.3-.2.5-.2s.4,0,.5.2c.1.1.2.3.2.5ZM76.1,40.4c0,.5-.2,1-.6,1.3-.4.4-.8.6-1.3.6s-1-.2-1.3-.6c-.4-.4-.6-.8-.6-1.3s.2-1,.6-1.3c.4-.4.8-.6,1.3-.6s1,.2,1.3.6c.4.4.6.8.6,1.3ZM67.5,40.7c0,.2,0,.4-.2.6-.2.2-.3.2-.6.2s-.4,0-.6-.2c-.2-.2-.2-.3-.2-.6s0-.4.2-.6c.2-.2.3-.2.6-.2s.4,0,.6.2c.2.2.2.3.2.6ZM64.4,31c0,.2,0,.3-.2.4-.1.1-.3.2-.4.2s-.3,0-.4-.2c-.1-.1-.2-.3-.2-.4s0-.3.2-.4c.1-.1.3-.2.4-.2s.3,0,.4.2c.1.1.2.3.2.4ZM62.4,36.8c0,.4-.2.8-.5,1.1-.3.3-.7.5-1.1.5s-.8-.2-1.1-.5c-.3-.3-.5-.7-.5-1.1s.2-.8.5-1.1c.3-.3.7-.5,1.1-.5s.8.2,1.1.5c.3.3.5.7.5,1.1Z"/>
    </g>
  </g>
  <path class="st13" d="M82.3,47.2c1.2-.6,2.4-1.3,3.7-2.3.8-.7,1.3-1.3,1.3-2,0-.4,0-.7-.3-1-.2-.2-.4-.3-.9-.4-.7,0-1.4.2-2.2.7-2.7,1.7-4.6,2.6-5.9,2.6-2.4,0-5.5-.1-9.4-.3-2.3,0-4,.4-5.2,1.3-1,.8-2,2.5-2.9,4.9l2.9,2.1h.2c.1.1.3.1.4,0,.4,0,.8-.5,1-1.1.3-.9.8-1.6,1.4-2.1.7-.6,1.5-.9,2.4-1,2.1-.2,5-.3,8.5-.4,1.6,0,3.2-.4,4.9-1.2Z"/>
  <g class="st8">
    <path class="st13" d="M87.4,41.6l-.3-1.2-21.8,1-6.7,9.5.4.7c.3.5.6.9.9,1.2,1,.9,1.9.4,2.6-1.5.7-2,1.8-3.4,3.2-4.1.8-.4,1.8-.6,2.9-.6,3.7,0,6.8,0,9.4,0,1.7,0,3.4-.5,5.1-1.7.6-.4,2-1.5,4.2-3.4Z"/>
  </g>
  <path class="st13" d="M89.2,47.9c.4-.7.5-1.3.2-1.6-.3-.3-.6-.5-1-.4-.5,0-1.2.3-2.1.9-2.9,1.9-5.2,2.8-7.2,2.7-1,0-1.8-.1-2.6-.2-1.4,0-2.8-.1-4.1-.2-1.6,0-2.9.3-4,.8-1.1.6-2.1,1.5-3,2.7v.5c-.1.4-.1.7,0,1,.2.9,1,1,2.3.3,1.6-.8,2.8-1.2,3.6-1.4.9-.2,2.7-.3,5.4-.4,2.5,0,4.5-.3,6.1-.8,1-.3,2.3-.9,3.9-1.7,1.1-.6,2-1.4,2.5-2.2Z"/>
  <g class="st18">
    <path class="st15" d="M89.7,45.6l-4.1-.7-16.9,2-5.1,6.1.3.3c.3.3.5.5.8.6.9.5,1.8.4,2.6-.3,1-.8,1.9-1.5,2.8-1.9.8-.4,1.5-.6,2.2-.6s1.2,0,2.3,0c1.3,0,3.1,0,5.3-.2,2.3-.1,4.3-.8,6.1-1.9,1-.6,2.3-1.8,3.9-3.4Z"/>
  </g>
  <path class="st13" d="M81.7,56.9c1.5-.4,3.1-1.2,4.8-2.2,1-.6,1.9-1.3,2.8-2,.5-.4.8-.8,1.1-1.3.3-.6.3-1,0-1.3-.3-.3-.7-.4-1.2-.2-.3.1-.9.4-1.7.9-.7.5-1.6.9-2.5,1.3-1.1.5-2.7,1-4.6,1.5-2.2.6-4.1,1.1-5.6,1.4-1.8.4-3.5.7-5.2.8l.7,2.3c.5,1.5,1,2.1,1.4,1.9.4-.2.8-.4,1.2-.6.6-.3,1.1-.5,1.4-.6.5-.2,1.4-.5,2.9-.8,2.2-.5,3.8-.9,4.7-1.1Z"/>
  <g class="st17">
    <path class="st15" d="M81.8,55c1.9-.5,3.6-1.3,5.1-2.3.9-.6,2.2-1.8,3.9-3.4h.1c0-.1-1-2.4-1-2.4l-12.6,4.5-9.8,4.5.2.6c.2.5.4.9.7,1.3.8,1.1,1.9,1.3,3.2.7,1.4-.7,3-1.3,4.7-1.9.8-.2,2.6-.8,5.6-1.6Z"/>
  </g>
  <path class="st13" d="M87.1,57.6c-.7-.3-1.7-.4-2.9-.3-1.4.1-2.6.4-3.8.7-1.1.3-2.4.8-3.7,1.4-1,.5-2,.9-3,1.3-1,.4-1.7.7-2,.8-.5.2-.4.9.3,2,.4.5.8,1.1,1.2,1.6,2.1-1.3,4-2.3,5.6-3,2.1-1,4-1.5,5.7-1.7,2.4-.2,3.5-.9,3.4-2,0-.3-.3-.5-.8-.8Z"/>
  <g class="st0">
    <path class="st15" d="M73.1,63.2c1.3-1,2.3-1.7,3.1-2.1,1-.5,2.3-1,4-1.5,1.7-.5,3.2-.7,4.5-.8,1.1,0,2.4,0,3.8.2l1.2-.6-3.1-2.4-10.9,2-5.9,3.2.2.6c.2.5.4.8.6,1.2.7,1,1.6,1.1,2.6.4Z"/>
  </g>
  <path class="st15" d="M80.6,55.8c.1,0,.2-.2.4-.4.1-.3.1-.5,0-.7-.4-.4-1.3-.9-2.8-1.5-1.6-.6-3.4-.9-5.5-.9-1.6,0-3.3.2-5,.6l-2.2,2.3,1.4.5c1.1.2,2,.2,2.9,0,1-.3,1.8-.5,2.5-.6.6,0,1.5-.1,2.6,0,1,0,1.8,0,2.6.2.3,0,1,.2,2,.5.6.2,1,.2,1.3.1Z"/>
  <g class="st3">
    <path class="st15" d="M81.4,55.7h1.4c0-.1-.7-3.7-.7-3.7l-8.8-2.8-11.4,2.7-.4.6c-.2.5-.3.9-.1,1.3.4,1.1,2.4,1.4,6,.7,3.8-.7,6.8-.9,9.1-.6.9.1,1.8.4,2.6.7.3.1,1.1.5,2.3,1Z"/>
  </g>
  <path class="st13" d="M69.8,55.3c-.9-1-2-1.8-3.1-2.5-.9-.6-1.7-.9-2.3-1.1-.7-.2-2.4-.7-5-1.6-3-.9-4.7-1.5-5.1-1.6-.7-.2-1.2-.4-1.3-.4-.4-.2-.7-.4-1-.7-.6-.6-1.5-2.1-2.8-4.5-1.2-2.2-2.5-3.9-3.9-5.1-.8-.6-1.6-1.1-2.6-1.5-.5-.2-.9-.4-1.2-.5-.5-.2-1.3-.5-2.5-.8-.6-.2-1.1-.6-1.4-1.2-.3-.5-.3-1.1-.2-1.7.2-.6.5-1.1,1-1.4.6-.3,1.2-.4,2.1-.2.6.2,2,.5,4.1,1.1,2,.5,3.5.9,4.5,1,1.2.2,2.3.1,3.3-.2,1-.3,2-.8,3-1.6.9-.7,1.6-1.9,2.1-3.7.4-1.5.6-2.7.5-3.8,0-.5-.2-1.2-.5-2.1-.4-1.1-.9-2.2-1.5-3.4-1.8-3.2-4.3-5.7-7.6-7.7-1.9-1.1-4.1-2-6.7-2.6-2.5-.6-5.2-.9-8-.9-6.1,0-11.4,1.1-16.1,3.5-5.2,2.6-9.3,6.2-12.3,10.9C2,26.6.3,32.8.5,39.8c0,3.8.7,7.5,1.9,11.2,1.2,3.7,2.9,7.2,5.2,10.5,4.8,7.1,11.2,12.3,19.3,15.7,7,2.9,15.1,3.8,24.2,2.7,5-.6,9.6-1.7,13.8-3.3,2.2-.8,4-1.9,5.4-3.4,2.2-2.3,3.4-5.2,3.4-8.7,0-3.5-1.3-6.6-3.9-9.3Z"/>
  <g class="st4">
    <path class="st15" d="M34.4,70.4c-.4-.4-.8-.5-1.3-.5s-1,.2-1.3.5c-.4.4-.5.8-.5,1.3s.2,1,.5,1.3c.4.4.8.6,1.3.6s.9-.2,1.3-.6c.4-.4.6-.8.6-1.3s-.2-1-.6-1.3ZM33.4,67.8c0-.3-.1-.5-.3-.7-.2-.2-.5-.3-.7-.3s-.5.1-.7.3-.3.5-.3.7.1.5.3.7.5.3.7.3.5-.1.7-.3c.2-.2.3-.5.3-.7ZM16.5,47.8c0-.7-.2-1.2-.7-1.7-.5-.5-1-.7-1.7-.7s-1.2.2-1.7.7c-.5.5-.7,1-.7,1.7s.2,1.2.7,1.7c.5.5,1,.7,1.7.7s1.2-.2,1.7-.7c.5-.5.7-1,.7-1.7ZM15.6,42.6c-.2.2-.4.5-.4.9s.1.6.4.9c.2.2.5.4.9.4s.6-.1.9-.4c.2-.2.4-.5.4-.9s-.1-.6-.4-.9c-.2-.2-.5-.4-.9-.4s-.6.1-.9.4ZM29.6,46.3c0-.4-.1-.7-.4-.9-.2-.2-.5-.4-.9-.4s-.7.1-.9.4c-.2.3-.4.6-.4.9s.1.7.4.9c.3.3.6.4.9.4s.7-.1.9-.4c.3-.2.4-.6.4-.9ZM39.5,62.1c0-.2,0-.4-.2-.5-.1-.1-.3-.2-.5-.2s-.4,0-.5.2c-.1.2-.2.3-.2.5s0,.4.2.5c.2.2.3.2.5.2s.4,0,.5-.2c.2-.1.2-.3.2-.5ZM43,49.9c-.2.2-.3.4-.3.6s0,.5.3.6c.2.2.4.3.6.3s.5,0,.6-.3c.2-.2.3-.4.3-.6s0-.5-.3-.6c-.2-.2-.4-.3-.6-.3s-.5,0-.6.3ZM41.9,48.3c0-.5-.2-.9-.5-1.3-.3-.3-.8-.5-1.2-.5s-.9.2-1.3.5c-.3.4-.5.8-.5,1.3s.2.9.5,1.3c.3.4.8.5,1.3.5s.9-.2,1.2-.5c.3-.3.5-.8.5-1.3ZM48.7,30c-.2-.2-.4-.3-.6-.3s-.5,0-.6.3c-.2.2-.3.4-.3.6s0,.5.3.6c.2.2.4.3.6.3s.5,0,.6-.3c.2-.2.3-.4.3-.6s0-.5-.3-.6ZM25.5,36.2c0-.3,0-.5-.3-.7-.2-.2-.4-.3-.7-.3s-.5,0-.7.3c-.2.2-.3.4-.3.7s0,.5.3.7c.2.2.4.3.7.3s.5,0,.7-.3c.2-.2.3-.4.3-.7ZM31.6,28.4c0-.2,0-.4-.2-.5-.1-.1-.3-.2-.5-.2s-.4,0-.5.2c-.1.1-.2.3-.2.5s0,.4.2.5c.1.1.3.2.5.2s.4,0,.5-.2c.1-.1.2-.3.2-.5Z"/>
  </g>
  <g class="st7">
    <g>
      <path class="st15" d="M15.6,70.2v.5c0,.4.1.8.2,1.1.4,1,1.1,1.2,2.1.6,1.1-.6,2.3-1.4,3.4-2.4,1-.8,1.7-1.6,2.2-2.2.4-.5.4-.8,0-1-.4-.2-.8,0-1.1.4-.4.5-1.4,1.1-2.8,1.8-1.6.8-2.9,1.1-4,1.1ZM24.3,57.3c.3-1.5.4-2.8.4-3.9,0-1.1-.3-1.6-.7-1.6-.4,0-.9.7-1.6,2.1-1.3,2.9-3.1,5.3-5.4,7.1-2.3,1.7-4.7,2.7-7.4,3l.2,1c.2.7.4,1.4.6,2,.8,1.9,2,2.5,3.6,2,.6-.2,1.5-.5,2.5-.8.9-.3,1.6-.6,2.2-1,1.4-1,2.8-2.7,4.1-5.3.7-1.4,1.2-2.9,1.5-4.5ZM2.1,52.5l.3,1.2c.2.9.5,1.8.7,2.5.8,2.4,1.7,3.3,2.6,2.8,1.2-.7,2.3-1.8,3.6-3.3,1.3-1.5,1.8-2.5,1.5-3-.2-.4-.6-.6-1.1-.6-1-.1-1.8-.2-2.4-.4-1.2-.3-2.1-.5-2.6-.4-.6,0-1.4.5-2.6,1.2ZM28.7,39.1c0-.6-.6-.6-2.2.1-1.4.6-3.1,2.4-4.9,5.3-1,1.5-2.1,3.4-3.2,5.5-.8,1.3-2.3,2.9-4.5,4.9-2.6,2.3-5.1,4.1-7.6,5.4l2.1,2.6c2.6-.6,5.2-2.3,7.8-5.1,1-1.1,1.9-2.2,2.7-3.4.7-1.1,1.2-2,1.3-2.7.3-1.3,1.4-3.4,3.3-6.2,1.8-2.7,3.1-4.3,3.8-4.8.4-.2.7-.5,1-.9.3-.3.4-.6.5-.9ZM14.7,38.1c.8-.6,1.4-1,1.9-1.3.6-.3,1.6-.6,2.8-.9,1.1-.3,1.5-.6,1.1-1-.1-.1-.3-.3-.6-.4-.2,0-.5-.1-.6-.1-.2,0-.5,0-.7,0-.4,0-.9,0-1.4.2-1.6.5-3.7,1.6-6.3,3.3-2.9,1.9-5.2,3-6.9,3.3-1.4.2-2.7,0-3.9-.8v1.7c0,1.4,0,2.7,0,3.8.3,3.6,1,5.3,2.1,5,2.2-.6,4.7-2,7.5-4.3.8-.6,1.7-2.1,2.7-4.5.6-1.3.9-2.1,1.1-2.4.4-.8.8-1.3,1.1-1.5ZM7.9,38.9c.8-.5,1.8-1.1,2.7-2,.3-.2,1.2-1.1,2.8-2.6,1.7-1.6,3.5-2.5,5.2-2.8.8-.1,2,0,3.6.2.4,0,.7,0,.9,0,.1-.1.1-.3,0-.5-.4-.6-1.1-.9-2.2-1.2-1.3-.2-2.7,0-4.3.5-1.8.7-3.6,1.9-5.3,3.5-1.8,1.7-3.6,2.8-5.5,3.4-1.7.5-3.6.6-5.7.3-.3,0-.6,0-.9.2-.7.1-1.1.3-1.5.4-1,.5-.2,1,2.6,1.4,2.9.5,5.4.2,7.5-.9ZM16,29.3c0-.5-.2-.8-.7-.9-.6,0-1,0-1.2,0-.4,0-.7,0-1,0-.5,0-1.2-.4-2.1-.9-1.2-.7-2.4-1.1-3.6-1.1-1.5,0-3.4.3-5.8,1h-.3c0,.1-.9,1.6-.9,1.6-.7,1.2-1.2,2.2-1.6,3.2-1.3,3.1-.8,4.8,1.5,4.9,2.4.1,4.2,0,5.5-.4.8-.3,1.6-.7,2.3-1.4.5-.5,1.4-1.2,2.5-2.1,1.2-.9,2-1.5,2.6-1.8.4-.2,1-.5,1.8-.8.7-.3,1-.8,1-1.3ZM35.8,11.6c-.4-1.2-.9-3-1.4-5.4l-.6-3.2-9.3,4c1,1.6,2.3,3.1,4,4.4.9.7,1.5,1.2,1.8,1.5.6.6,1.1,1.2,1.5,1.9.4.7,1,1.3,1.6,1.7.4.3,1,.6,2,1,.9.4,1.6.8,2.1,1.2.8.6,1.5,1.3,2.1,2.1,1.1,1.6,1.5,1.9,1.2.7l-.8-2.2c-.5-.8-1.1-1.7-1.8-2.8-1.3-2.1-2.1-3.8-2.5-5Z"/>
      <path class="st11" d="M24.5,7c1,1.6,2.3,3.1,4,4.4.9.7,1.5,1.2,1.8,1.5.6.6,1.1,1.2,1.5,1.9.4.7,1,1.3,1.6,1.7.4.3,1,.6,2,1,.9.4,1.6.8,2.1,1.2.8.6,1.5,1.3,2.1,2.1,1.1,1.6,1.5,1.9,1.2.7l-.8-2.2c-.5-.8-1.1-1.7-1.8-2.8-1.3-2.1-2.1-3.8-2.5-5-.4-1.2-.9-3-1.4-5.4l-.6-3.2-9.3,4ZM1.7,27.3c2.4-.7,4.3-1.1,5.8-1,1.3,0,2.5.4,3.6,1.1.9.5,1.6.8,2.1.9.3,0,.6,0,1,0,.2,0,.6,0,1.2,0,.4.1.7.4.7.9s-.3.9-1,1.3c-.9.3-1.5.6-1.8.8-.5.3-1.4.9-2.6,1.8-1.1.9-2,1.6-2.5,2.1-.7.7-1.5,1.1-2.3,1.4-1.3.4-3.2.6-5.5.4-2.2-.1-2.7-1.8-1.5-4.9.4-1,.9-2.1,1.6-3.2l.9-1.5h.3ZM.1,37.8c2.1.3,4,.2,5.7-.3,1.9-.6,3.7-1.7,5.5-3.4,1.7-1.7,3.5-2.8,5.3-3.5,1.6-.6,3-.8,4.3-.5,1.1.2,1.9.6,2.2,1.2.2.2.2.4,0,.5-.2.1-.4.2-.9,0-1.6-.3-2.8-.3-3.6-.2-1.8.2-3.5,1.2-5.2,2.8-1.6,1.5-2.5,2.3-2.8,2.6-1,.9-1.9,1.5-2.7,2-2.1,1.1-4.6,1.4-7.5.9-2.7-.5-3.6-.9-2.6-1.4.3-.2.8-.3,1.5-.4.3,0,.6-.1.9-.2ZM0,40.4c1.2.8,2.5,1.1,3.9.8,1.7-.3,4.1-1.4,6.9-3.3,2.6-1.7,4.7-2.8,6.3-3.3.5-.2,1-.2,1.4-.2.2,0,.4,0,.7,0,.2,0,.4,0,.6.1.3.1.5.2.6.4.3.4,0,.7-1.1,1-1.2.3-2.1.6-2.8.9-.5.2-1.2.7-1.9,1.3-.3.2-.7.8-1.1,1.5-.2.3-.5,1.2-1.1,2.4-1,2.4-2,3.9-2.7,4.5-2.8,2.3-5.3,3.7-7.5,4.3-1.1.3-1.8-1.4-2.1-5,0-1.1-.1-2.4-.1-3.8v-1.7ZM6.2,60.4c2.5-1.3,5-3.1,7.6-5.4,2.2-2,3.7-3.6,4.5-4.9,1.2-2.2,2.3-4,3.2-5.5,1.9-2.9,3.5-4.6,4.9-5.3,1.5-.7,2.3-.7,2.2-.1,0,.2-.2.5-.5.9-.3.3-.6.6-1,.9-.8.5-2,2.1-3.8,4.8-1.8,2.8-2.9,4.8-3.3,6.2-.2.7-.6,1.6-1.3,2.7-.7,1.2-1.6,2.3-2.7,3.4-2.6,2.8-5.2,4.4-7.8,5.1l-2.1-2.6ZM2.1,52.5c1.2-.7,2-1.1,2.6-1.2.5,0,1.4,0,2.6.4.5.2,1.3.3,2.4.4.5,0,.8.3,1.1.6.3.5-.2,1.5-1.5,3-1.2,1.5-2.4,2.6-3.6,3.3-.9.5-1.8-.4-2.6-2.8-.3-.7-.5-1.6-.7-2.5l-.3-1.2ZM9.6,64.1c2.7-.3,5.2-1.3,7.4-3,2.3-1.8,4.2-4.2,5.4-7.1.6-1.4,1.1-2.1,1.6-2.1.4,0,.6.6.7,1.6,0,1.1,0,2.4-.4,3.9-.3,1.7-.9,3.2-1.5,4.5-1.3,2.6-2.6,4.4-4.1,5.3-.6.4-1.3.7-2.2,1-1.1.3-1.9.6-2.5.8-1.5.5-2.7-.2-3.6-2-.3-.6-.5-1.3-.6-2l-.2-1ZM15.6,70.2c1.1,0,2.4-.4,4-1.1,1.4-.7,2.3-1.3,2.8-1.8.4-.5.8-.6,1.1-.4.4.2.4.5,0,1-.5.6-1.2,1.4-2.2,2.2-1.2,1-2.3,1.8-3.4,2.4-1,.5-1.7.3-2.1-.6-.1-.3-.2-.7-.2-1.1v-.5Z"/>
    </g>
  </g>
  <g class="st9">
    <g>
      <path class="st15" d="M40.3,6.3l-2.4.3c-.4.9-.3,2.3.2,4.4.6,2.4,1.6,4.3,2.9,5.8,1.3,1.4,2,1.7,2.1.9,0-.2,0-.7,0-1.3,0-.6,0-1,0-1.1,0-.2.2-1,.6-2.4.3-1.2.5-2,.5-2.5,0-1.1-.3-2.3-.9-3.6-.2-.5-1.2-.7-2.9-.6ZM49,10l-2.7-1c-.7,1.4-1.2,2.9-1.7,4.4-.5,1.7-.8,3.1-.7,4.2,0,1.4.4,2.5,1.1,3.3.8,1,1.7.8,2.6-.5,1-1.3,1.9-3,2.7-4.9.8-1.8,1.2-3,1.2-3.7,0-.5-.8-1.1-2.6-1.9ZM57.3,19.3l-1.9-4.6c-.7,1-1.5,2.4-2.3,4.2-.9,1.8-1.5,3.1-1.9,3.7-.8,1.2-1.3,2.1-1.6,2.5-.5.6-1,1.2-1.7,1.7-1.1.7-1.7,1.2-1.8,1.4-.3.4.2.6,1.4.6,1.2,0,2.3-.3,3.4-1,.3-.2,1.1-.8,2.3-1.9.6-.5,1-.7,1.4-.7.2,0,.7,0,1.3.2.6.1,1.1.1,1.5,0,.4-.1.8-.4,1.3-.9.4-.4,0-2.2-1.2-5.3ZM16.4,18.8c-1.2-1.1-2.8-2.9-4.7-5.5-2,2.1-3.8,4.1-5.5,6.1-3.4,4-4.3,5.8-2.8,5.4,1.6-.4,3.1-.5,4.6-.3.6.1,2.2.5,4.6,1.3,1.6.5,3,.7,4.1.7.4,0,1.8-.1,4.3-.4,1.4-.2,2.9,0,4.4.5.4.1.8.2,1.3.4.4,0,.6,0,.8,0,.2-.2.2-.4.2-.8,0-.4-.3-.8-.6-1.2-.9-1.1-2.5-2.1-4.7-2.8-2.3-.8-4.3-1.9-6-3.4ZM24.9,11.3c-1.2-1.3-1.9-2.3-2.1-3.2-.2-.7-1.3-.6-3.4.4-.6.3-1.3.7-2.1,1.2l-.9.6c1.2,2.3,2.4,4,3.6,5.1,1.9,1.6,4.4,2.7,7.6,3,1.6.2,2.8,0,3.3-.3.5-.3.6-.8.3-1.5-.2-.5-.7-1.1-1.4-1.7-.6-.6-1.2-.9-1.7-1.1-.9-.4-2-1.2-3.2-2.5Z"/>
      <path class="st11" d="M16.4,10.2c1.2,2.3,2.4,4,3.6,5.1,1.9,1.6,4.4,2.7,7.6,3,1.6.2,2.8,0,3.3-.3.5-.3.6-.8.3-1.5-.2-.5-.7-1.1-1.4-1.7-.6-.6-1.2-.9-1.7-1.1-.9-.4-2-1.2-3.2-2.5-1.2-1.3-1.9-2.3-2.1-3.2-.2-.7-1.3-.6-3.4.4-.6.3-1.3.7-2.1,1.2l-.9.6ZM11.7,13.3c1.9,2.6,3.5,4.4,4.7,5.5,1.7,1.5,3.7,2.6,6,3.4,2.2.7,3.8,1.7,4.7,2.8.3.4.5.8.6,1.2,0,.4,0,.6-.2.8-.1.1-.4.1-.8,0-.5-.2-.9-.3-1.3-.4-1.5-.5-3-.6-4.4-.5-2.4.3-3.8.4-4.3.4-1.1,0-2.5-.2-4.1-.7-2.5-.7-4-1.2-4.6-1.3-1.5-.2-3-.2-4.6.3-1.5.4-.6-1.4,2.8-5.4,1.7-2,3.5-4,5.5-6.1ZM55.4,14.7c-.7,1-1.5,2.4-2.3,4.2-.9,1.8-1.5,3.1-1.9,3.7-.8,1.2-1.3,2.1-1.6,2.5-.5.6-1,1.2-1.7,1.7-1.1.7-1.7,1.2-1.8,1.4-.3.4.2.6,1.4.6,1.2,0,2.3-.3,3.4-1,.3-.2,1.1-.8,2.3-1.9.6-.5,1-.7,1.4-.7.2,0,.7,0,1.3.2.6.1,1.1.1,1.5,0,.4-.1.8-.4,1.3-.9.4-.4,0-2.2-1.2-5.3l-1.9-4.6ZM46.3,9.1c-.7,1.4-1.2,2.9-1.7,4.4-.5,1.7-.8,3.1-.7,4.2,0,1.4.4,2.5,1.1,3.3.8,1,1.7.8,2.6-.5,1-1.3,1.9-3,2.7-4.9.8-1.8,1.2-3,1.2-3.7,0-.5-.8-1.1-2.6-1.9l-2.7-1ZM37.8,6.7c-.4.9-.3,2.3.2,4.4.6,2.4,1.6,4.3,2.9,5.8,1.3,1.4,2,1.7,2.1.9,0-.2,0-.7,0-1.3,0-.6,0-1,0-1.1,0-.2.2-1,.6-2.4.3-1.2.5-2,.5-2.5,0-1.1-.3-2.3-.9-3.6-.2-.5-1.2-.7-2.9-.6l-2.4.3Z"/>
    </g>
  </g>
  <g class="st2">
    <g>
      <path class="st15" d="M35.5,5.2c-.4-.4-.8-.6-1.4-.7s-1,0-1.3.4c-.4.4-.5.9-.4,1.6.2,1.5.5,2.8.9,4,.4,1.2,1,2.5,1.8,3.9.5.9,1.7,2.7,3.6,5.3,1.6,2.3,2.4,3.5,2.4,3.9s0,.5,0,1c0,.5,0,1,0,1.4-.2,1.2-.9,1.9-2.2,2.2-.7.1-1.3,0-1.8-.3-.2-.2-.8-.7-1.7-1.6-2.2-2.2-5.1-4.2-8.7-5.9-4.6-2.2-7.5-3.9-8.9-5.2-.6-.6-1.1-1.2-1.4-1.8-.2-.3-.4-1-.8-2-.2-.7-.6-1.2-1-1.6-.4-.3-.8-.4-1.2-.3-.4.1-.6.5-.6,1.1,0,.7.2,1.5.6,2.6.8,1.9,2.9,3.8,6.1,5.7,1.4.8,3.5,1.8,6.4,3.1,2,.9,3.8,2,5.3,3.3,2.2,2,3.1,4,2.4,5.9-.4,1.1-.7,1.8-1,2.3-.3.4-.6.6-.9.7,0,0-.4,0-1.2.1-.6,0-1.2.2-1.8.5-1.4.6-2.1,1.1-2.1,1.6,0,.2.1.3.4.4.2,0,.5,0,.9,0,.7-.2,1.4-.2,2.2,0,.7,0,1.3.2,1.9.5.6.2,1.1.7,1.4,1.4.4.7.4,1.3,0,1.8-.5.7-.7,1.4-.7,2,0,.8.7,1.1,2,.9.8-.1,1.5-.2,2.1-.1.7,0,1.6.3,2.9.6,1.7.5,6.6,2.1,14.6,4.7-1.7-2.4-3.6-5-5.4-7.6-3.7-5.3-5.9-8.6-6.5-9.8-.6-1.2-.2-2.4,1.3-3.6.8-.6,1.9-1.3,3.3-2,.8-.5,1.2-1,1.3-1.4,0-.5-.6-.4-2.1.3-1.4.6-2.4.4-3-.5-.2-.3-.3-.8-.5-1.3-.2-.7-.3-1.1-.3-1.2-.2-.5-.7-1.3-1.5-2.5-1-1.4-1.8-2.4-2.3-3.2-.7-1.1-1.4-2.4-1.8-4.1-.5-1.6-.7-3.2-.8-4.7,0-.7-.2-1.3-.7-1.7Z"/>
      <path class="st11" d="M54.6,48.6c-8-2.6-12.9-4.2-14.6-4.7-1.2-.4-2.2-.6-2.9-.6-.6,0-1.3,0-2.1.1-1.3.2-2,0-2-.9,0-.6.2-1.3.7-2,.3-.5.3-1,0-1.8-.4-.7-.8-1.2-1.4-1.4-.6-.2-1.3-.4-1.9-.5-.8,0-1.5,0-2.2,0-.3,0-.6,0-.9,0-.2,0-.4-.2-.4-.4,0-.5.7-1.1,2.1-1.6.6-.3,1.2-.4,1.8-.5.8,0,1.2-.1,1.2-.1.4,0,.7-.3.9-.7.3-.4.6-1.2,1-2.3.6-1.9-.2-3.9-2.4-5.9-1.5-1.3-3.3-2.4-5.3-3.3-2.9-1.2-5-2.3-6.4-3.1-3.2-1.9-5.3-3.8-6.1-5.7-.5-1.1-.7-1.9-.6-2.6,0-.6.2-.9.6-1.1.3-.1.7,0,1.2.3.5.4.8.9,1,1.6.3,1,.6,1.6.8,2,.3.6.8,1.3,1.4,1.8,1.4,1.3,4.4,3,8.9,5.2,3.6,1.7,6.5,3.7,8.7,5.9.9.9,1.5,1.4,1.7,1.6.5.3,1.1.4,1.8.3,1.3-.2,2-1,2.2-2.2,0-.4,0-.9,0-1.4,0-.5,0-.9,0-1,0-.3-.8-1.6-2.4-3.9-1.9-2.7-3.1-4.5-3.6-5.3-.8-1.5-1.4-2.8-1.8-3.9-.4-1.2-.7-2.5-.9-4-.1-.7,0-1.2.4-1.6.3-.3.7-.5,1.3-.4s1,.3,1.4.7c.4.5.7,1,.7,1.7,0,1.5.3,3,.8,4.7.5,1.7,1.1,3,1.8,4.1.5.7,1.3,1.8,2.3,3.2.8,1.1,1.3,2,1.5,2.5,0,0,.1.5.3,1.2.1.6.3,1,.5,1.3.6,1,1.6,1.1,3,.5,1.5-.6,2.2-.7,2.1-.3,0,.4-.5.9-1.3,1.4-1.4.7-2.5,1.4-3.3,2-1.5,1.2-1.9,2.4-1.3,3.6.6,1.2,2.8,4.5,6.5,9.8,1.9,2.7,3.7,5.2,5.4,7.6Z"/>
    </g>
  </g>
  <path class="st15" d="M61.6,46.4c.3-1,.2-2.1-.5-3.1-.7-1-1.6-1.7-2.9-2.2-1.3-.4-2.5-.4-3.6,0-1.1.4-1.9,1.2-2.2,2.2-.3,1-.2,2.1.5,3.1.7,1,1.6,1.8,2.9,2.2,1.3.4,2.5.4,3.6,0,1.1-.4,1.9-1.2,2.2-2.2Z"/>
  <g class="st16">
    <g>
      <path class="st15" d="M59.9,44.9c0-.8-.3-1.5-.8-2.1-.6-.6-1.2-.8-2-.8s-.7,0-1,.2c-.4.1-.7.4-1,.7-.6.6-.8,1.3-.8,2.1s.3,1.5.8,2.1c.4.4.8.6,1.2.7,0,0,.1,0,.2,0,.2,0,.4,0,.7,0,.8,0,1.5-.3,2-.8,0,0,0,0,0,0,.6-.6.8-1.3.8-2.1Z"/>
      <path class="st10" d="M56.4,47.7l.3-1"/>
      <path class="st12" d="M55.7,49.4l.5-1.7h0"/>
    </g>
  </g>
  <path class="st15" d="M58.5,44.4c.2.5.4.7.5.9.2-.4.2-.9-.1-1.4-.3-.5-.6-.8-1.1-.9-.2,0-.4-.1-.6,0-.1,0-.2.1-.3.2-.1.3.1.5.7.7.4.2.7.4.9.6Z"/>
  <path class="st14" d="M57.8,42.9c.5.2.8.5,1.1.9.3.5.3,1,.1,1.4,0-.1-.3-.4-.5-.9-.1-.2-.4-.4-.9-.6-.5-.2-.8-.4-.7-.7,0-.1.1-.2.3-.2.2,0,.3,0,.6,0Z"/>
  <path class="st14" d="M54.7,44.6c0,.6,0,1.1.4,1.6.4.5.8.8,1.5,1,.3,0,.3,0,.3,0-.3-.1-.5-.3-.7-.4-.9-.6-1.4-1.3-1.4-2.1Z"/>
</svg>