<?xml version="1.0" encoding="UTF-8"?>
<svg id="Layer_1" xmlns="http://www.w3.org/2000/svg" version="1.1" viewBox="0 0 91 90">
  <!-- Generator: Adobe Illustrator 30.0.0, SVG Export Plug-In . SVG Version: 2.1.1 Build 123)  -->
  <defs>
    <style>
      .st0 {
        fill: #403f3e;
      }
    </style>
  </defs>
  <path class="st0" d="M26.6,9.2c-1.3-1.1-2.7-1.6-4.1-1.7-.8,0-1.7.1-2.6.5-1.4.5-2.6.9-3.6,1.1-2.2.5-4.1.5-5.7.1-1.6-.4-3.2,0-4.5,1.3-.9.8-1.7,1.9-2.4,3.3-1.1,2.1-1.6,4.2-1.6,6.4,0,3.9,1.8,7.2,5.4,10.1,1.6,1.3,3.4,2.1,5.4,2.4,1.1.2,2.4.2,3.8,0-.7.8-1.2,2-1.7,3.6-.5,1.9-.7,3.8-.6,5.8,0,2.4.6,4.6,1.6,6.6.9,1.9,2.2,3.5,3.8,4.9,1.1.8,2,1.4,2.8,2,4,2.5,8.4,4.2,13.3,5.2,4.6.9,9.8,1.1,15.5.7-4.7.2-9.4-.3-13.9-1.4-4.4-1.1-8.2-2.7-11.4-4.9-3.3-2.2-5.7-4.6-7.1-7.4-1.5-2.9-1.9-5.8-1-8.8,1.3-4.6,5.2-8.6,11.6-12,3.2-1.7,6.2-3,9.2-3.7h.7c-1.3-.4-3.2-.3-5.7.2-2.2.4-3.8,1-4.9,1.5.7-1,1.2-2.2,1.5-3.7.3-1.4.3-2.9.1-4.5-.2-1.6-.6-3-1.1-4.4-.6-1.4-1.4-2.5-2.3-3.2ZM36.1,70.4c-3-2.5-6.4-3.2-10.3-2.3-.6,1-1.2,1.8-1.8,2.4-.4.5-1,.9-1.7,1.4-.7.5-1.2.9-1.5,1.1-.4.4-.8.8-1,1.2l-.2.7c0,.6,0,1.1,0,1.6.3,1.6,1.4,2.4,3.3,2.5,0,.4,0,.9,0,1.3l2.7-.7.2,1,1.9-.6.5,2.4,1.3-.6.3.7c.3.5.6,1,1,1.2,1.2.9,2.6.5,4.2-1.4.4.2.9.5,1.6.8l-.5-2.2,1.2.7.5-1.5,1,1.5,1.5-.9.9.6c.7.3,1.2.2,1.6-.2.5-.6.6-1.2.3-1.9-.2-.7-.8-1.4-1.7-2-1.2-.8-1.9-1.8-2.1-3-.7-1.4-1.8-2.8-3.3-4ZM20.6,67.6c-1.6,1.2-3.2,1.9-4.8,1.9-.9.3-1.5.7-1.8,1.2-.2.4-.2.9,0,1.4.2.4.6.8,1.2,1.1.6.3,1.2.5,1.8.5,0,.6,0,1.1,0,1.6l1.6-.5c.3-.6.7-1.2,1.3-1.7.3-.3,1-.7,2.1-1.4.7-.4,1.5-1.4,2.5-2.9l1.2-2.2-2.5-2c-.7,1.2-1.6,2.2-2.8,3.1ZM87.3,62.3c.3-.1.5-.3.6-.5l-2.8-3.3-8.2-.6c-3.5,2.1-8.7,4-15.6,5.7-2.2.5-4.4,1-6.7,1.5l-2.7.5c.2,1.3.3,2.5.3,3.6,1,1.2,2.9,2.2,5.6,3,1.1.3,2.1.5,2.9.6.9,0,1.4,0,1.5-.3.2-.5.4-.8.4-1.1.1-.7.2-1,.2-1,3.4,3,7.8,5,13.4,6,2,.4,4,.6,5.9.6,1.6,0,2.7,0,3.4-.2,0-.5-.4-1.3-1.1-2.3l-.9-1.3,2.9.9c2.1.5,3.6.7,4.4.4.2-.6.1-1.5-.2-2.6-.3-1.1-.6-1.9-1.1-2.7.6.2.9,0,1.1-.4v-.7c-2.1-2.6-3.8-4.5-5-5.7.6.2,1.2.1,1.7-.1Z"/>
  <path class="st0" d="M8.5,21.9c-.1.2-.2.4-.4.6,0,0-.2,0-.3,0-.3-.1-.5-.3-.8-.6.2.4.4.6.4.7.1.2.4.3.8.5l.3-.3.5.5c.5.4,1.1.6,1.8.7.1-.2.2-.4.3-.6l.5.4c.5.3,1,.5,1.6.6v-1.2s0,0,0,0c-.1-.1-.2-.3-.4-.4v1.1c-.1,0-.4-.1-.7-.3-.5-.3-1-.6-1.4-1.1v.8c-.3,0-.5,0-.8,0-.5-.2-1-.6-1.6-1.3ZM24.2,62.8s0,0,0,0c-.2.6-.5,1.2-.8,1.7l2.5,2-1.2,2.2c-1,1.5-1.8,2.5-2.5,2.9-1.1.7-1.8,1.1-2.1,1.4-.6.5-1.1,1.1-1.3,1.7l1.1-.4c.2-.4.5-.8,1-1.2.3-.2.8-.6,1.5-1.1.7-.5,1.3-1,1.7-1.4.6-.6,1.2-1.4,1.8-2.4,3.9-1,7.4-.2,10.3,2.3,1.5,1.2,2.6,2.6,3.3,4,0-.5-.1-1.1,0-1.7t0,0c-2.1-1.8-4.2-4.1-6.2-6.8-3.2-.7-6.2-1.7-8.9-3ZM85.1,58.6l-2.9-3.3-11-.8c-1.4,1.1-3.4,2.3-5.7,3.4-4.8,2.3-9.5,3.6-14.2,3.8,0,.2.1.7.3,1.6.2.9.3,1.7.4,2.4,0,0,0,0,0,0l2.7-.5c2.3-.4,4.5-.9,6.7-1.5,7-1.7,12.2-3.6,15.6-5.7l8.2.6Z"/>
  <path class="st0" d="M15.3,19.4c0-.3-.1-.5-.4-.6-.3,0-.5.1-.5.6,0,.9-.3,1.7-.8,2.4-.2.3-.5.6-.7.8.1.1.2.3.4.4,0,0,0,0,0,0l.6.7c.7.9,1,1.7,1.1,2.4,0-.6.2-1.1.5-1.7.1-.3.4-.7.9-1.2.2-.3.4-.5.4-.6-.5-.4-.9-1-1.2-1.8-.2-.5-.3-1-.3-1.5Z"/>
  <path class="st0" d="M82.2,55.2l3.4.2-4.7-6.2c-4.6-5.8-9.2-10.6-13.9-14.6-1.5-1.3-3-2.4-4.5-3.5-3.5-2.5-6.9-4.4-10.3-5.8-3.5-1.4-6.7-2.2-9.8-2.4-.3,0-.6,0-.9,0-3.1-.8-5.2-1.6-6.2-2.3-.3-.2-.6-.4-.7-.6v-.2c-.2-.6-.5-1.4-.8-2.3-.8-1.8-1.7-3.5-2.9-5-3.8-4.8-8.9-7.2-15.4-7.2S4.6,8.7,2.3,15.2c-.7,2-1.2,4.3-1.4,6.7-.1,1.2-.1,2.2-.1,3v1.2c.2,1,.4,2.1.6,3.3.4,2.5,1,4.9,1.8,7.3l.4.9c.3.8.7,1.6,1.1,2.5,1.4,2.8,3,5.4,5,8,6.2,8.2,14,13.7,23.3,16.5,0,.2.1.3.1.5,0,.3,0,.5,0,.8,2,2.8,4.1,5.1,6.2,6.8t0,0c.3.2.6.5.8.7,3.2,2.5,6,3.4,8.5,2.9,1.7-.4,2.8-1.7,3.2-4.1.2-.9.2-1.8.2-3,0-1.1,0-2.3-.3-3.6,0,0,0,0,0,0-5.7.2-10.9-.4-15.7-1.6-7.4-1.9-12.9-5.3-16.6-10.3-1.6-1.4-2.9-3-3.8-4.9-.9-2-1.5-4.2-1.6-6.6,0-2,.1-4,.6-5.8.5-1.7,1-2.9,1.7-3.6-1.4.2-2.7.1-3.8,0-2-.3-3.7-1.1-5.4-2.4-3.6-2.9-5.4-6.2-5.4-10.1,0-2.2.5-4.3,1.6-6.4.8-1.4,1.6-2.6,2.4-3.3,1.4-1.3,2.9-1.7,4.5-1.3,1.6.4,3.5.4,5.7-.1,1.1-.2,2.3-.6,3.6-1.1.9-.3,1.8-.5,2.6-.5,1.4,0,2.8.6,4.1,1.7.9.7,1.7,1.8,2.3,3.2.6,1.3,1,2.8,1.1,4.4.2,1.6.2,3.1-.1,4.5-.3,1.5-.8,2.7-1.5,3.7,1.1-.6,2.8-1.1,4.9-1.5,2.5-.5,4.4-.6,5.7-.3h-.7c-2.9.9-6,2.2-9.2,3.9-6.4,3.4-10.2,7.4-11.6,12-.9,3-.5,5.9,1,8.8,1.5,2.7,3.8,5.2,7.1,7.4,3.3,2.1,7.1,3.8,11.4,4.9,4.5,1.2,9.2,1.6,13.9,1.4,4.7-.2,9.5-1.4,14.2-3.8,2.4-1.2,4.3-2.3,5.7-3.4l11,.8Z"/>
  <path class="st0" d="M80.9,49.3h3.8c-4.2-6.2-9.1-11-14.9-14.6-1.8-1.1-3.5-2-5.3-2.7l-2.1-.7c1.5,1.1,3,2.3,4.5,3.5,4.7,4,9.3,8.8,13.9,14.6ZM51.8,65.6c-.1-.8-.2-1.6-.4-2.4-.2-.8-.3-1.4-.3-1.6-5.8.4-10.9.2-15.5-.7-4.9-.9-9.3-2.7-13.3-5.2,1.9,1.3,1.3,1-1.6-1,0,0,0,0,0,0-.4-.3-.8-.6-1.2-.9,3.7,5,9.2,8.4,16.6,10.3,4.7,1.2,10,1.7,15.7,1.6ZM4.7,40.1c-.4-.9-.8-1.7-1.1-2.5l-.4-.9c.3,1.1.7,2.2,1.1,3.2,4.1,10.9,10.8,18.5,19.9,22.9h0s0,0,0,0c2.8,1.3,5.8,2.4,8.9,3,0-.3,0-.5,0-.8,0-.2,0-.3-.1-.5-9.4-2.9-17.1-8.4-23.3-16.5-1.9-2.6-3.6-5.2-5-8Z"/>
  <path class="st0" d="M7.5,13.8h-.2c-.2-.2-.4-.2-.6-.2-.7,0-1.4.5-2.1,1.3h.2c0,.1,0,.6,0,.6,0,.4,0,.7,0,1,.2,1.1.8,1.8,1.8,2.3,1,.5,2,.5,3,0,.3-.2.6-.4.9-.6l.3-.3h.8c0-.3,0-.6,0-1,0-.7-.4-1.2-.9-1.5-.9-.5-1.9-1-3.2-1.5ZM8.3,14.7l1.4.7h.1c0,0,.2.2.2.2l.8.4.2.3c.1.2.1.5,0,.7-.5.9-1.2,1.5-2.1,1.8-.7.2-1.3.1-1.8-.1-.4-.2-.8-.6-1.2-1-.4-.6-.6-1.3-.6-2.1.4-.6.9-1,1.4-1.1h.7l.8.4h0ZM22.6,13.7h-.2c-1.2.7-2.3,1.2-3.2,1.6-.6.3-.9.8-.9,1.5,0,.4,0,.7,0,1h.8l.3.3c.3.2.6.5.9.6,1,.5,2,.6,3,0,1-.5,1.6-1.2,1.8-2.3,0-.3,0-.7,0-1v-.4s.1-.1.1-.1c-.7-.8-1.4-1.3-2.1-1.3-.2,0-.4,0-.6,0ZM21.7,14.7h0s.9-.4.9-.4h.7c.5.1,1,.5,1.4,1.1,0,.8-.1,1.4-.6,2.1-.3.5-.7.8-1.2,1-.5.2-1.1.3-1.8.1-.9-.2-1.7-.8-2.1-1.8-.1-.2-.1-.4,0-.7l.2-.3.8-.4h.2c0-.1.1-.2.1-.2l1.4-.6Z"/>
  <path class="st0" d="M10,15.5h-.2c0,0,.1.2.1.4,0,.4-.1.7-.4.9-.2.3-.6.4-.9.4s-.7-.1-.9-.4c-.2-.2-.4-.5-.4-.9s.1-.7.4-.9c.2-.2.4-.3.6-.3h0s-.8-.4-.8-.4h-.7c-.5.1-1,.5-1.4,1.1,0,.8.1,1.4.6,2.1.3.5.7.8,1.2,1,.5.2,1.1.3,1.8.1.9-.2,1.7-.8,2.1-1.8.1-.2.1-.4,0-.7l-.2-.3-.8-.4ZM21.7,14.7h0c.2,0,.4.2.6.3.2.3.4.6.4.9s-.1.7-.4.9c-.2.3-.5.4-.9.4s-.7-.1-.9-.4c-.2-.2-.4-.5-.4-.9s0-.4.1-.5h-.2c0,.1-.8.5-.8.5l-.2.3c-.1.2-.1.5,0,.7.5.9,1.2,1.5,2.1,1.8.7.2,1.3.1,1.8-.1.4-.2.8-.6,1.2-1,.4-.6.6-1.3.6-2.1-.4-.6-.9-1-1.4-1.1h-.7l-.9.4Z"/>
  <path class="st0" d="M9.6,15.4l-1.4-.7c-.2,0-.4.2-.6.3-.2.3-.4.6-.4.9s.1.7.4.9c.2.3.5.4.9.4s.7-.1.9-.4c.2-.2.4-.5.4-.9s0-.4-.1-.5h-.1ZM22.2,15.1c-.2-.2-.4-.3-.6-.3l-1.4.6h-.1c0,.2-.1.4-.1.6,0,.4.1.7.4.9.2.3.6.4.9.4s.7-.1.9-.4c.2-.2.4-.5.4-.9s-.1-.7-.4-.9Z"/>
  <path class="st0" d="M71.4,49c.2.1.5.2.8.2.5,0,1-.2,1.4-.6.4-.4.6-.8.6-1.4s-.2-1-.6-1.4c0,0-.1-.1-.2-.2l-2,3.3ZM65.1,37.9c0-.5-.2-1-.6-1.4,0,0-.1-.1-.2-.2l-2,3.3c.2.1.5.2.8.2.5,0,1-.2,1.4-.6.4-.4.6-.8.6-1.4ZM58.1,36.2c0,0-.1-.1-.2-.2l-2,3.3c.2.1.5.2.8.2.5,0,1-.2,1.4-.6.4-.4.6-.8.6-1.4s-.2-1-.6-1.4ZM52,38.9c.4-.4.6-.8.6-1.4s-.2-1-.6-1.4c0,0-.1-.1-.2-.2l-2,3.3c.2.1.5.2.8.2.5,0,1-.2,1.4-.6ZM66.4,43c0,0-.1-.1-.2-.2l-2,3.3c.2.1.5.2.8.2.5,0,1-.2,1.4-.6.4-.4.6-.8.6-1.4s-.2-1-.6-1.4ZM57.7,43c0,0-.1-.1-.2-.2l-2,3.3c.2.1.5.2.8.2.5,0,1-.2,1.4-.6.4-.4.6-.8.6-1.4s-.2-1-.6-1.4ZM66.1,54.2c.4-.4.6-.8.6-1.4s-.2-1-.6-1.4c0,0-.1-.1-.2-.2l-2,3.3c.2.1.5.2.8.2.5,0,1-.2,1.4-.6ZM57.7,50.5c0,0-.1-.1-.2-.2l-2,3.3c.2.1.5.2.8.2.5,0,1-.2,1.4-.6.4-.4.6-.8.6-1.4s-.2-1-.6-1.4ZM49.7,55.9c.2.1.5.2.8.2.5,0,1-.2,1.4-.6.4-.4.6-.8.6-1.4s-.2-1-.6-1.4c0,0-.1-.1-.2-.2l-2,3.3ZM46.5,56.7c.4-.4.6-.8.6-1.4s-.2-1-.6-1.4c0,0-.1-.1-.2-.2l-2,3.3c.2.1.5.2.8.2.5,0,1-.2,1.4-.6ZM47.4,47.8c.4-.4.6-.8.6-1.4s-.2-1-.6-1.4c0,0-.1-.1-.2-.2l-2,3.3c.2.1.5.2.8.2.5,0,1-.2,1.4-.6ZM42.4,49.6c0-.5-.2-1-.6-1.4,0,0-.1-.1-.2-.2l-2,3.3c.2.1.5.2.8.2.5,0,1-.2,1.4-.6.4-.4.6-.8.6-1.4ZM40,42.1c0,0-.1-.1-.2-.2l-2,3.3c.2.1.5.2.8.2.5,0,1-.2,1.4-.6.4-.4.6-.8.6-1.4s-.2-1-.6-1.4ZM34.2,52c0,0-.1-.1-.2-.2l-2,3.3c.2.1.5.2.8.2.5,0,1-.2,1.4-.6.4-.4.6-.8.6-1.4s-.2-1-.6-1.4ZM51.7,32c.5,0,1-.2,1.4-.6.4-.4.6-.8.6-1.4s-.2-1-.6-1.4c0,0-.1-.1-.2-.2l-2,3.3c.2.1.5.2.8.2ZM46.3,33.8c0,0-.1-.1-.2-.2l-2,3.3c.2.1.5.2.8.2.5,0,1-.2,1.4-.6.4-.4.6-.8.6-1.4s-.2-1-.6-1.4ZM32,49.6c0-.5-.2-1-.6-1.4,0,0-.1-.1-.2-.2l-2,3.3c.2.1.5.2.8.2.5,0,1-.2,1.4-.6.4-.4.6-.8.6-1.4ZM44.9,31.3c.5,0,1-.2,1.4-.6.4-.4.6-.8.6-1.4s-.2-1-.6-1.4c0,0-.1-.1-.2-.2l-2,3.3c.2.1.5.2.8.2ZM37.7,38.5c.5,0,1-.2,1.4-.6.4-.4.6-.8.6-1.4s-.2-1-.6-1.4c0,0-.1-.1-.2-.2l-2,3.3c.2.1.5.2.8.2ZM33.6,42.1c0,0-.1-.1-.2-.2l-2,3.3c.2.1.5.2.8.2.5,0,1-.2,1.4-.6.4-.4.6-.8.6-1.4s-.2-1-.6-1.4ZM34.6,33.4c0,0-.1-.1-.2-.2l-2,3.3c.2.1.5.2.8.2.5,0,1-.2,1.4-.6.4-.4.6-.8.6-1.4s-.2-1-.6-1.4ZM40.7,29.5c0,0-.1-.1-.2-.2l-2,3.3c.2.1.5.2.8.2.5,0,1-.2,1.4-.6.4-.4.6-.8.6-1.4s-.2-1-.6-1.4ZM41.6,24c0,0-.1-.1-.2-.2l-2,3.3c.2.1.5.2.8.2.5,0,1-.2,1.4-.6.4-.4.6-.8.6-1.4s-.2-1-.6-1.4ZM35.8,28.1c0-.5-.2-1-.6-1.4,0,0-.1-.1-.2-.2l-2,3.3c.2.1.5.2.8.2.5,0,1-.2,1.4-.6.4-.4.6-.8.6-1.4ZM29.2,33.2c.5,0,1-.2,1.4-.6.4-.4.6-.8.6-1.4s-.2-1-.6-1.4c0,0-.1-.1-.2-.2l-2,3.3c.2.1.5.2.8.2ZM26.8,38.4c0,0-.1-.1-.2-.2l-2,3.3c.2.1.5.2.8.2.5,0,1-.2,1.4-.6.4-.4.6-.8.6-1.4s-.2-1-.6-1.4ZM22.7,46.7c.5,0,1-.2,1.4-.6.4-.4.6-.8.6-1.4s-.2-1-.6-1.4c0,0-.1-.1-.2-.2l-2,3.3c.2.1.5.2.8.2ZM21.9,40c.4-.4.6-.8.6-1.4s-.2-1-.6-1.4c0,0-.1-.1-.2-.2l-2,3.3c.2.1.5.2.8.2.5,0,1-.2,1.4-.6ZM26.2,33.7c.4-.4.6-.8.6-1.4s-.2-1-.6-1.4c0,0-.1-.1-.2-.2l-2,3.3c.3.1.5.2.8.2.5,0,1-.2,1.4-.6Z"/>
  <path class="st0" d="M42.1,78c-.3.1-.5.3-.7.4-.1,0-.2.2-.3.5,0,.2,0,.4,0,.6.2.4.7.4,1.4,0,.7-.5,1.3-.6,1.7-.2.4.3.7,1,1.1,2.1,0-2.5-.6-3.8-1.9-3.7-.4,0-.9.2-1.4.4ZM33.3,83.7c.5-1.3.7-2.3.6-3,0-.8-.4-1.3-.9-1.3-.5,0-.9.3-1.1.9-.2.7,0,1.7.2,3.2.1.7.3,1.4.5,2,.3-.5.5-1.1.8-1.7ZM22.1,77.1c.2-.2.3-.5.2-.9,0-.4-.3-.8-.7-1-.5-.3-1-.4-1.7-.2-1,.3-1.7,1-2.2,2.1-.4,1.1-.5,2.1,0,3,.4-1.4.8-2.3,1.2-2.9.6-.8,1.3-.9,2.2-.3.5.3.8.4,1,.2ZM15.9,70c-.4-.3-.9-.5-1.6-.6-1.2.1-2.1.9-2.6,2.2-.5,1.2-.5,2.3-.1,3.3.3-1.2.8-2.2,1.3-2.9.7-.9,1.4-1.1,2.1-.8.4.2.7.2,1,.1.3-.1.4-.3.4-.6,0-.3-.1-.6-.4-.8Z"/>
</svg>