<?xml version="1.0" encoding="UTF-8"?>
<svg id="Layer_1" xmlns="http://www.w3.org/2000/svg" version="1.1" viewBox="0 0 91 90">
  <!-- Generator: Adobe Illustrator 30.0.0, SVG Export Plug-In . SVG Version: 2.1.1 Build 123)  -->
  <defs>
    <style>
      .st0 {
        fill: #403f3e;
      }
    </style>
  </defs>
  <path class="st0" d="M14.9,76.5l.2.8c.8.6,1.5.7,2.4.3l.7-.4c-.7-.5-.9-1.4-.5-2.6h-.9c-.2,1-.8,1.6-1.9,2ZM37.1,74.4c0,0-.1-.1-.2-.1-.2-.1-.4-.2-.6-.2h0c-.4,0-.8.2-1.1.6-.2.2-.4.5-.4.7,0,0,0,.2,0,.3h0c0,0,0,.2.1.4,0,0,0,0,0,0,0,0,0,0,0,0,.4.4.7.7,1,.9.7.4,1.7.6,2.9.6s.2,0,.2,0c-.1,0-.2-.2-.3-.3-.1-.2-.1-.3,0-.4,0-.1,0-.2,0-.3,0-.1,0-.2,0-.3h0c0-.1,0-.2.1-.3-.5-.3-.8-.5-.9-.7-.2-.4-.5-.6-.7-.9ZM66,72.8c0,0-.1.2-.2.3-.4.3-.7.5-1,.6,0,0,0,0-.1,0,.1.9.5,1.7,1.1,2.4.2.1.4.2.6.1,0,0,.2,0,.3,0,.4-.2.5-.5.4-.9,0-.3-.1-.5-.3-.8-.2-.5-.5-1.1-.9-1.7Z"/>
  <path class="st0" d="M7.4,66.5c-.5.2-.5.9,0,2.1,2.1,2.5,4.5,4.8,7.2,6.9.3.3.4.6.2,1h0c1-.2,1.7-.8,1.9-1.8,0-.1,0-.3,0-.4,0-.1-.4-.3-1-.4-2.1-1.8-3.9-3.8-5.4-6.1-.2-.9-.8-1.4-1.8-1.5-.3,0-.7,0-1.1.3ZM59.4,58.4c-1.1.3-1.5.7-1.2,1.4,2.3,3.8,4.3,7.9,5.9,12.1.2.4.2.8.2,1.2-.2.3-.2.5,0,.6.1,0,.3.1.5,0,0,0,0,0,.1,0,.3,0,.6-.3,1-.6.1,0,.2-.2.2-.3.1-.2,0-.3-.2-.4-.3-.1-.5-.5-.6-1-1.5-4.7-3.4-9-5.8-13ZM35.3,71.5s0,0,0,.1l-1,1c-.2,1-.2,1.7,0,2.2.1.5.3.7.5.7,0,0,0-.2,0-.3,0-.2.2-.4.4-.7.4-.4.7-.6,1.1-.6h0c.1-.1.2-.4.2-.7,2.6-3.4,5-6.9,7.2-10.5-.5-1-1.4-1.4-2.7-1.2-1.8,3.1-3.2,5.5-4.1,7.1-.9,1.7-1.5,2.6-1.6,2.7Z"/>
  <path class="st0" d="M51,48.3c0,0-.1-.1-.2-.2-1.4-1.9-2.6-2.4-3.8-1.4-1.1,1-1.5,2-1.1,3.1.4,1.1.8,1.5,1.3,1.2.2-.2.5-.2,1,0,.6.3,1.3,1,2.2,1.9l5.1,5.3,1.2,1.3c.5.5,1,.6,1.5.4-.3-.7,0-1.2,1.2-1.4.2-.4.2-.9,0-1.4-.3-.5-1-.7-2.1-.7-2.2-2.6-4.3-5.2-6.3-8ZM15.4,58.7c-.5.2-1,.6-1.6,1.2-.7.6-1.4,1.2-2.1,1.8-.8.7-1.5,1.4-2.4,2.3-.8.5-1.5.7-2,.7-.5.3-.9.8-1,1.6,0,.8.2,1.5.7,2,.1,0,.2.2.4.3-.6-1.2-.6-1.8,0-2.1.5-.2.8-.3,1.1-.3,1,.1,1.6.6,1.8,1.5,1.4-2,3-3.7,4.9-5.3.4-.4.9-.7,1.3-1,.5,0,1.1-.2,1.6-.5.6-.3.8-.7.7-1.2-.5-.9-1.2-1.3-2.2-1.4-.4,0-.8.2-1.3.4ZM40.3,48.5c-.1-.2-.3-.3-.6-.4-2.4.1-3.4,1.4-2.7,3.7.8.5,1.5,1,2.1,1.8,1.3,1.6,2.2,3.8,2.6,6.6l-.3.3c-.5.7-.6,1-.2,1.1,1.3-.2,2.2.2,2.7,1.2.2,0,.3,0,.5-.2.3-.5.5-.9.5-1.3,0-.4,0-.6-.1-.9-.7-3.3-1.5-6.1-2.5-8.5-.2-.5-.4-.9-.6-1.4,0-.1,0-.2-.1-.3-.3-.7-.7-1.3-1-1.9ZM75.5,75.6c-.3-.4-.7-.7-1.1-1-1.2-.9-2.4-1.3-3.6-1.3s-2,.2-2.8.6c-.5.3-.9.5-1.1.7.1.3.2.5.3.8.1.4,0,.7-.4.9-.1,0-.2,0-.3,0,.2,0,.4,0,.6,0,.4,0,1.1-.2,2-.5.9-.3,1.7-.5,2.3-.5,1.2,0,2.8.3,4.7.9h0c0-.2-.3-.4-.5-.7ZM22.8,77.7c.8.5,1.3.4,1.4-.2-.9-1.1-2.1-2.1-3.7-2.8-.8-.4-1.7-.4-2.9-.1-.4,1.2-.3,2.1.5,2.6.8-.3,1.7-.4,2.6-.3.6,0,1.3.3,2,.8ZM47.6,75.7c-.3-.3-.6-.5-.8-.6-.9-.4-1.5-.6-1.9-.7-.6-.2-1.2-.3-1.8-.3-1.3,0-2.3.3-3.1.8-.5.3-.9.7-1.1,1.1,0,0,0,.2-.1.3h0s0,0,0,0c0,0,0,.2,0,.3,0,.1,0,.2,0,.3,0,.1,0,.2,0,.4,0,.1.2.2.3.3.2.1.5.2.8.2s1.1-.2,2-.5c.9-.3,1.6-.5,2.2-.5h.4c.3,0,.9.1,1.6.3.8.2,1.2.3,1.4.3.4,0,.6,0,.8-.1.1,0,.2-.2.2-.4h0c0-.1,0-.2,0-.2,0,0,0-.2,0-.3,0,0,0-.1,0-.1,0-.1-.2-.3-.5-.6ZM61.8,13.2c-.4.3-.7.6-.9,1-.6.2-1.2.5-1.7.9-.5.4-1,.8-1.4,1.3-.4.5-.7,1.1-.9,1.8-.2.6-.3,1.2-.4,1.8,0,.6-.1,1.2-.1,1.8,0,.3,0,.5,0,.8,0,.3,0,.6,0,1,0,0,0,0,0,.1,0,0,0,.2-.1.3-.3.4-.7.8-.9,1.2,0,0,0,0,0,.1,0,0-.1.1-.2.2-.9,1.1-1.5,1.6-1.8,1.6-.4,0-.6.3-.4.6,0,0,0,.1,0,.2.2.3.3.5.6.5.3,0,.6,0,.8-.5,0,0,0,0,0,0,.3-.3.6-.7.8-1,.3-.3.5-.7.8-1,0,0,.1-.1.2-.2,0,0,0,0,.1-.1,0-.1.2-.2.3-.4.2-.3.4-.6.6-.9,0,0,0-.2,0-.2,0-.1,0-.3,0-.4-.1-1.9,0-3.8.5-5.5.4-1.5,1.4-2.5,2.9-2.9.2.4.5.6.9.5.4,0,.8-.3,1.1-.5.3-.2.5-.6.6-.9.1-.4,0-.9,0-1.3,0,0,0-.1-.1-.1-.4,0-.8,0-1.2.3Z"/>
  <path class="st0" d="M40.2,39.1c-.1,0-.2-.2-.4-.3-.5-.3-1-.6-1.5-.8-5.6-2.7-13-2.7-22.3-.2l-1.3.5C5.4,42.9.4,48.3,0,54.5c.1.4.6.8,1.5,1.2,0,0,0,0,0,0,1.5.7,4.1,1.4,7.8,2.2,5.5.5,11-.7,16.5-3.6,5.5-2.8,9.6-5.8,12.4-9,.7-.8,1.2-1.5,1.6-2.1.2-.3.3-.6.5-.8.7-1.4.6-2.5-.1-3.2ZM16.4,40.7c0,0-.2,0-.3,0,0,0,0-.2,0-.4,0-.3.2-.7.5-1,.4-.3.9-.5,1.5-.5s.6,0,.9.2c.2.1.4.3.4.5,0,.5-.4.8-1.2,1.1-.5.1-.9.2-1.4.2s-.3,0-.4,0ZM13.8,41.3c.7,0,1.1.5,1.2,1.1,0,.7-.2,1.2-.6,1.7-.5.4-1,.8-1.5,1.1-.5.3-1.1.6-1.6.7-.7.2-1.3.2-1.9,0-.3-.1-.5-.3-.7-.5-.2-.7,0-1.3.3-1.9.4-.5.9-.9,1.4-1.3.5-.3,1-.5,1.5-.7.6-.2,1.2-.3,1.9-.2ZM5.9,48.9c-.4-.6-.4-1.2,0-1.8.4-.6.8-.9,1.2-.9.4,0,.7.3.7.7,0,.4-.1.9-.5,1.5-.3.6-.8.7-1.4.4ZM49,22.9c-.6.2-1,.9-1.2,2.1v5.6c0,1.2-.3,2-.6,2.3-.4-.4-.6-.5-.7,0-.1.6-.7.9-1.7,1-3.3.2-5.5,1.5-6.4,4,.1,0,.7.2,1.7.7,1,.5,1.7,1,1.9,1.5.2.5.2.9,0,1.2-.3.3-.4.7-.5,1.1,0,.3,0,1.1.2,2.3,1.2.6,2.8.2,4.9-1,2.1-1.3,3-3,2.8-5.1,0-1.5-.5-2.9-1.1-4.2.9.7,1.8,1.7,2.6,3l.6.9c1.4,1.1,2.7,1.7,4,1.7.8,0,1.7-.2,2.7-.7,1.3-.7,2.4-1.4,3.2-2.2.6-.6,1.1-1.4,1.5-2.4,1.2-.6,2.1-.8,2.9-.6.1-.5.2-.9,0-1.4-.7.5-1.4.6-2,.4-.3,0-.7-.2-1-.4-.7-.3-1.3-.8-1.8-1.5-.7-.9-1.1-2-1.1-3.2,0-.4,0-.8.2-1.1-.2-.2-.6-.2-1.4,0-1.3-.7-2.3-1.1-2.8-1.3,0,0-.1.1-.2.2-.3.3-.5.7-.8,1-.3.3-.6.7-.8,1,0,0,0,0,0,0-.3.4-.6.6-.8.5-.2,0-.4-.2-.6-.5,0,0,0-.1,0-.2-.2-.4,0-.6.4-.6.3,0,.9-.6,1.8-1.6,0,0,.1-.1.2-.2-.4-.2-1.1-.4-2-.7-.3-.4-.7-.8-1.2-1.2-.9-.5-1.9-.6-2.9-.4ZM50.6,27.4c.2,0,.4.2.6.3.2.2.3.3.4.5.1.2.2.3.3.5,0,.2.2.4.3.6,0,.2.1.4.1.6,0,0,0,0,0-.1-.1-.3-.3-.5-.4-.7-.1-.2-.3-.5-.5-.7-.2-.2-.4-.4-.7-.5-.3-.2-.5-.2-.8,0-.2,0-.3.2-.4.4-.1.2-.2.5-.3.8,0,.3-.1.6-.1.8,0,.2,0,.5,0,.7,0,0,0-.2,0-.3,0-.2,0-.4,0-.7,0-.2,0-.4,0-.6,0-.2,0-.4.1-.6,0-.2.1-.4.3-.5.1-.2.3-.3.5-.4.2,0,.4-.1.6,0ZM57.7,28.2c.5.2.9.5,1.3.9.6.7.9,1.5.9,2.5s-.3,1.8-.9,2.4c-.6.7-1.4,1-2.3,1s-1.7-.3-2.3-1c-.6-.7-1-1.5-1-2.5s.3-1.8,1-2.5c0,0,0,0,0,0,.6-.6,1.4-.9,2.3-.9.4,0,.7,0,1,.2Z"/>
  <path class="st0" d="M5.9,47.1c-.4.6-.4,1.2,0,1.8.6.3,1.1.1,1.4-.4.4-.6.5-1.1.5-1.5,0-.4-.3-.7-.7-.7-.4,0-.8.2-1.2.9ZM15,42.4c0-.7-.4-1-1.2-1.1-.6,0-1.3,0-1.9.2-.5.2-1,.4-1.5.7-.6.4-1,.8-1.4,1.3-.4.6-.6,1.2-.3,1.9.2.2.4.4.7.5.6.2,1.3.2,1.9,0,.6-.2,1.1-.4,1.6-.7.5-.3,1-.7,1.5-1.1.5-.4.7-1,.6-1.7ZM16.2,40.6c0,0,.2,0,.3,0,0,0,.2,0,.4,0,.4,0,.9,0,1.4-.2.8-.2,1.2-.6,1.2-1.1s-.1-.4-.4-.5c-.2-.1-.5-.2-.9-.2-.6,0-1.1.2-1.5.5-.3.3-.5.6-.5,1s0,.3,0,.4ZM56.2,34.4c-.3-.2-.5-.4-.8-.7-.3-.3-.6-.7-.7-1.1-.2-.4-.2-.7-.2-1.2-.2.2-.3.4-.4.6,0,.3,0,.6,0,.9.2.5.4.9.9,1.2.4.3.8.4,1.2.3h0Z"/>
  <path class="st0" d="M38.4,37.9s0,0,0,0c0,0,0,0,0,.1.5.2,1,.5,1.5.8.1,0,.2.2.4.3.8.7.8,1.8.1,3.2-.1.3-.3.5-.5.8-.4.6-.9,1.3-1.6,2.1-2.8,3.2-6.9,6.2-12.4,9-5.5,2.8-11,4-16.5,3.6-3.7-.8-6.3-1.5-7.8-2.2,3.3,3.6,6.7,5.6,10.1,6.1.7-.7,1.4-1.3,2.1-1.8.6-.5,1.2-.9,1.6-1.2.5-.3.9-.4,1.3-.4,1,0,1.7.6,2.2,1.4.1.5,0,.9-.7,1.2-.5.3-1.1.5-1.6.5-.5.3-.9.7-1.3,1,8.2.9,16.1-2.1,23.8-8.9-.6-.7-1.3-1.3-2.1-1.8-.6-2.3.3-3.6,2.7-3.7.3,0,.5.2.6.4.4.6.7,1.2,1,1.9,0,.1.1.2.1.3.2.4.4.9.6,1.4,2.3.2,4.4-.1,6.2-1.1-.5-.3-.8-.3-1,0-.5.3-.9,0-1.3-1.2-.4-1.1,0-2.2,1.1-3.1,1.1-1,2.4-.5,3.8,1.4,0,0,.1.1.2.2,2.5-2.5,3.4-4.8,2.8-6.8.5,0,1.1-.2,1.6-.4,1.7-.6,3.5-1.4,5.4-2.4,2.8-1.6,4.4-3.1,4.8-4.7-.7-.2-1.7,0-2.9.6-.4,1-.9,1.9-1.5,2.4-.8.8-1.9,1.5-3.2,2.2-1,.4-1.9.7-2.7.7-1.3,0-2.6-.5-4-1.7l-.6-.9c-.9-1.3-1.7-2.3-2.6-3,.7,1.2,1,2.6,1.1,4.2.2,2.1-.7,3.8-2.8,5.1-2.1,1.3-3.7,1.6-4.9,1-.2-1.2-.3-2-.2-2.3.1-.4.3-.8.5-1.1.3-.3.3-.7,0-1.2-.2-.5-.8-1-1.9-1.5-1-.5-1.6-.8-1.7-.7,0,0,0,0,0,.1ZM51.2,27.7c-.2-.1-.3-.3-.6-.3-.2,0-.4,0-.6,0-.2,0-.4.2-.5.4-.1.2-.2.3-.3.5,0,.2-.1.4-.1.6,0,.2,0,.4,0,.6,0,.2,0,.5,0,.7,0,0,0,.2,0,.3,0-.2,0-.5,0-.7,0-.3,0-.6.1-.8,0-.3.2-.5.3-.8,0-.2.2-.3.4-.4.3-.1.5,0,.8,0,.3.1.5.3.7.5.2.2.4.4.5.7.1.2.3.5.4.7,0,0,0,0,0,.1,0-.2,0-.4-.1-.6,0-.2-.2-.4-.3-.6,0-.2-.2-.4-.3-.5-.1-.2-.3-.3-.4-.5Z"/>
  <path class="st0" d="M59,29.1c-.4-.4-.8-.7-1.3-.9-.3-.1-.6-.2-1-.2-.9,0-1.6.3-2.3.9,0,0,0,0,0,0-.6.7-1,1.5-1,2.5s.3,1.8,1,2.5c.6.7,1.4,1,2.3,1s1.7-.3,2.3-1c.6-.7.9-1.5.9-2.4s-.3-1.8-.9-2.5ZM57.5,28.8c.3,0,.5,0,.7.3.2.2.3.4.3.7s0,.4-.2.5c-.1,0-.3.1-.6,0-.2,0-.5-.1-.7-.1-.2,0-.4-.2-.4-.4s0-.5.3-.7c.2-.2.4-.3.7-.3ZM55.5,33.7c.2.2.5.5.8.7h0c-.4.1-.8,0-1.2-.3-.4-.3-.7-.7-.9-1.2,0-.3,0-.6,0-.9,0-.2.2-.4.4-.6,0,.4,0,.8.2,1.2.2.4.4.8.7,1.1Z"/>
  <path class="st0" d="M58.1,29.1c-.2-.2-.4-.3-.7-.3s-.5,0-.7.3c-.2.2-.3.4-.3.7s.1.4.4.4c.2,0,.5,0,.7.1.2,0,.4,0,.6,0,.1,0,.2-.3.2-.5s0-.5-.3-.7Z"/>
  <path class="st0" d="M90,23.5l-1.8,1.6c-2.2,1.7-4,2.7-5.3,3.1-2,.6-3.9.8-5.7.4-2.3-.6-4.4-.8-6.1-.7-1.7.1-3.3.6-4.6,1.5-1.7,1.1-2.9,2.2-3.8,3.3.3.1.6.3,1,.4.6.2,1.3,0,2-.4l2.5-2.2c1.7-.8,3-1.1,4.1-1,.2,0,1.1,0,2.9.2,1.8.2,3.1.3,4,.3.9,0,2.4-.3,4.5-1,2.1-.7,4.2-2.5,6.3-5.4Z"/>
  <path class="st0" d="M86.7,23.7c-.9.7-1.9,1.2-3,1.8-1.1.5-2.1.9-3.1,1-1,.1-2.3.2-3.9,0-1.6,0-3-.4-4.4-.9-1.4-.5-3.1-.9-5.3-1.1-2.1-.3-4.3.2-6.7,1.6,0,0-.1.1-.1.2,0,.2-.1.4-.2.5-.1.4-.2.7-.2,1.1,0,1.2.3,2.2,1.1,3.2.5.6,1.1,1.1,1.8,1.5.8-1.1,2.1-2.2,3.8-3.3,1.3-.9,2.8-1.3,4.6-1.5,1.7-.1,3.8.1,6.1.7,1.7.4,3.6.2,5.7-.4,1.3-.4,3.1-1.5,5.3-3.1l1.8-1.6c-.2-.6-1-.7-2.5-.4-.3.2-.5.4-.8.6Z"/>
</svg>