<?xml version="1.0" encoding="UTF-8"?>
<svg id="Layer_1" xmlns="http://www.w3.org/2000/svg" version="1.1" viewBox="0 0 91 90">
  <!-- Generator: Adobe Illustrator 30.0.0, SVG Export Plug-In . SVG Version: 2.1.1 Build 123)  -->
  <defs>
    <style>
      .st0 {
        fill: #403f3e;
      }
    </style>
  </defs>
  <path class="st0" d="M18.4,23.7c0,0-.1,0-.2-.1l.7.7h.1c.5.5,1.1.5,1.7.3-.8-.3-1.3-.9-1.6-1.7,0,.1,0,.2,0,.4v.7c-.1,0-.2,0-.3,0,0,0-.1,0-.2,0,0,0-.1,0-.2-.1ZM39.8,40.8c.2.5.5.8.9.9-.4.3-.9.4-1.4.3l1.1.3c.8.1,1.5-.1,2-.8-1,.1-1.9-.1-2.6-.8ZM50.4,43.2l.9.2c.6.1,1.2,0,1.6-.6-.8.1-1.5,0-2.1-.6.1.4.4.6.7.7-.3.2-.7.3-1.1.3ZM46.3,39.6c.1.4.4.6.7.7-.3.2-.7.3-1.1.3l.9.2c.6.1,1.2,0,1.6-.6-.8.1-1.5,0-2.1-.6ZM26.6,58.2c0,0,.1,0,.2,0,0,0-.1,0-.2,0,0,0-.1,0-.2,0,0,0-.1,0-.2,0,0,0-.1,0-.2,0,0,0-.1,0-.2,0,0,0-.1,0-.2,0,0,0-.1,0-.2,0,0,0-.1,0-.2-.1,0,0-.1,0-.2-.1,0,0-.1,0-.2-.1,0,0-.1,0-.2-.1,0,0-.1,0-.2-.1,0,0,0,0-.1-.1,0,0,0-.1-.1-.2,0,0,0-.1-.1-.2,0,0,0-.1-.1-.2,0,0,0,.1,0,.2,0,0,0,.1,0,.2,0,0,0,.1,0,.2,0,0,0,.1,0,.2,0,0,0,.1.1.2,0,0,0,0,.1.1,0,0,0,0,.1.1,0,0,0,0,.2.1,0,0-.1,0-.2,0,0,0-.1,0-.2,0,0,0-.1,0-.2,0,0,0-.1,0-.2,0,0,0-.1,0-.2,0,0,0-.1,0-.2,0,0,0-.1,0-.2,0,0,0-.1,0-.2,0l1.2.6s0,0,0,0c0,0,.1,0,.2,0,0,0,.1,0,.2,0,0,0,.2,0,.2,0,.1,0,.2,0,.3,0,.1,0,.2,0,.3,0,.1,0,.2,0,.3,0,0,0,.1,0,.2,0,0,0,.1,0,.2,0,0,0,.1,0,.2,0,0,0,.1,0,.2,0,0,0,.1,0,.2,0ZM27.1,51.6c0,0-.1,0-.2,0,0,0-.1,0-.2,0,0,0-.1,0-.2,0,0,0-.1,0-.2-.1,0,0-.1,0-.2-.1,0,0-.1,0-.2-.1,0,0-.1,0-.2-.1,0,0,0,0-.1-.1,0,0,0-.1-.1-.2,0,0,0-.1-.1-.2,0,0,0-.1-.1-.2,0,0,0,.1,0,.2,0,0,0,.1,0,.2,0,0,0,.1,0,.2,0,0,0,.1,0,.2,0,0,0,.1.1.2,0,0,0,0,.1.1,0,0,0,0,.1.1,0,0,0,0,.2.1,0,0-.1,0-.2,0,0,0-.1,0-.2,0,0,0-.1,0-.2,0,0,0-.1,0-.2,0,0,0-.1,0-.2,0,0,0-.1,0-.2,0,0,0-.1,0-.2,0,0,0-.1,0-.2,0l1.2.6s0,0,0,0c0,0,.1,0,.2,0,0,0,.1,0,.2,0,0,0,.2,0,.2,0,.1,0,.2,0,.3,0,.1,0,.2,0,.3,0,.1,0,.2,0,.3,0,0,0,.1,0,.2,0,0,0,.1,0,.2,0,0,0,.1,0,.2,0,0,0,.1,0,.2,0,0,0,.1,0,.2,0,0,0,.1,0,.2-.1,0,0-.1,0-.2,0,0,0-.1,0-.2,0,0,0-.1,0-.2,0,0,0-.1,0-.2,0,0,0-.1,0-.2,0ZM20.3,59.8c0,0,0-.1,0-.2,0,0,0-.1,0-.2,0,0,0-.1,0-.2,0,0,0-.1,0-.2,0,0,0,.1,0,.2,0,0,0,.1,0,.2,0,0,0,.1,0,.2,0,0,0,.1,0,.2,0,0,0,.1,0,.2,0,0,0,.1,0,.2,0,0,0,.1.1.2,0,0,0,.1.1.2,0,0-.1,0-.2,0,0,0-.1,0-.2,0,0,0-.1,0-.2,0,0,0-.1,0-.2,0,0,0-.1,0-.2,0,0,0-.1,0-.2,0,0,0-.1,0-.2-.1,0,0-.1,0-.2-.1l1,.9s0,0,0,0c0,0,0,0,.1.1,0,0,0,0,.1,0,0,0,.1,0,.2.1,0,0,0,0,.1,0,0,0,.2,0,.3,0,.1,0,.2,0,.3,0,0,0,.2,0,.2,0,0,0,.2,0,.2,0,0,0,.1,0,.2,0,0,0,.1,0,.2,0,0,0,.1,0,.2,0,0,0,.1,0,.2,0,0,0-.1,0-.2,0,0,0-.1,0-.2,0,0,0-.1,0-.2-.1,0,0-.1,0-.2-.1,0,0-.1,0-.2-.1,0,0-.1,0-.2-.1,0,0-.1,0-.2-.1,0,0,0,0-.1-.1,0,0,0-.1-.1-.2,0,0,0-.1-.1-.2,0,0,0-.1-.1-.2,0,0,0-.1-.1-.2ZM18,53.1c0,0,0,.1,0,.2,0,0,0,.1,0,.2,0,0,0,.1,0,.2,0,0,0,.1,0,.2,0,0,0,.1,0,.2,0,0,0,.1,0,.2,0,0,0,.1.1.2,0,0-.1,0-.2,0,0,0-.1,0-.2,0,0,0-.1,0-.2,0,0,0-.1,0-.2,0,0,0-.1,0-.2,0,0,0-.1,0-.2,0,0,0-.1,0-.2-.1,0,0-.1,0-.2-.1l1,.9s0,0,0,0c0,0,0,0,.1.1,0,0,0,0,.1,0,0,0,.1,0,.2.1,0,0,0,0,.1,0,0,0,.2,0,.3,0,.1,0,.2,0,.3,0,0,0,.2,0,.2,0,0,0,.2,0,.2,0,0,0,.1,0,.2,0,0,0,.1,0,.2,0,0,0,.1,0,.2,0,0,0,.1,0,.2,0,0,0-.1,0-.2,0,0,0-.1,0-.2,0,0,0-.1,0-.2-.1,0,0-.1,0-.2-.1,0,0-.1,0-.2-.1,0,0-.1,0-.2-.1,0,0-.1,0-.2-.1,0,0,0,0-.1-.1,0,0,0,0-.1-.1,0,0,0-.1-.1-.2,0,0,0-.1-.1-.2,0,0,0-.1-.1-.2,0,0,0-.1,0-.2,0,0,0-.1,0-.2,0,0,0-.1,0-.2,0,0,0-.1,0-.2,0,0,0,.1,0,.2ZM19,49.1c0,0,0-.1,0-.2,0,0,0-.1,0-.2,0,0,0-.1,0-.2,0,0,0-.1,0-.2,0,0,0,.1,0,.2,0,0,0,.1,0,.2,0,0,0,.1,0,.2,0,0,0,.1,0,.2,0,0,0,.1,0,.2,0,0,0,.1,0,.2,0,0,0,.1,0,.2,0,0,0,.1.1.2,0,0-.1,0-.2,0,0,0-.1,0-.2,0,0,0-.1,0-.2,0,0,0-.1,0-.2,0,0,0-.1,0-.2,0,0,0-.1,0-.2,0,0,0-.1,0-.2-.1,0,0-.1,0-.2-.1l1,.9s0,0,0,0c0,0,0,0,.1.1,0,0,0,0,.1,0,0,0,.1,0,.2.1,0,0,0,0,.2,0,0,0,.2,0,.3,0,.1,0,.2,0,.3,0,0,0,.2,0,.2,0,0,0,.2,0,.2,0,0,0,.1,0,.2,0,0,0,.1,0,.2,0,0,0,.1,0,.2,0,0,0,.1,0,.2,0,0,0-.1,0-.2,0,0,0-.1,0-.2,0,0,0-.1,0-.2-.1,0,0-.1,0-.2-.1,0,0-.1,0-.2-.1,0,0-.1,0-.2-.1,0,0-.1,0-.2-.1,0,0,0,0-.1-.1,0,0,0,0-.1-.1,0,0,0-.1-.1-.2,0,0,0-.1-.1-.2,0,0,0-.1-.1-.2ZM19,38.5c0,0,0-.1,0-.2,0,0,0-.1,0-.2,0,0,0,.1,0,.2,0,0,0,.1,0,.2,0,0,0,.1,0,.2,0,0,0,.1,0,.2,0,0,0,.1,0,.2,0,0,0,.1,0,.2,0,0,0,.1.1.2,0,0,0,.1.1.2,0,0-.1,0-.2,0,0,0-.1,0-.2,0,0,0-.1,0-.2,0,0,0-.1,0-.2,0,0,0-.1,0-.2,0,0,0-.1,0-.2,0,0,0-.1,0-.2-.1,0,0-.1,0-.2-.1l1,.9s0,0,0,0c0,0,0,0,.1.1,0,0,0,0,.1,0,0,0,.1,0,.2.1,0,0,0,0,.2,0,0,0,.2,0,.3,0,.1,0,.2,0,.3,0,0,0,.2,0,.2,0,0,0,.2,0,.2,0,0,0,.1,0,.2,0,0,0,.1,0,.2,0,0,0,.1,0,.2,0,0,0,.1,0,.2,0,0,0-.1,0-.2,0,0,0-.1,0-.2,0,0,0-.1,0-.2-.1,0,0-.1,0-.2-.1,0,0-.1,0-.2-.1,0,0-.1,0-.2-.1,0,0-.1,0-.2-.1,0,0-.1,0-.1-.1,0,0,0-.1-.1-.2,0,0,0-.1-.1-.2,0,0,0-.1-.1-.2,0,0,0-.1-.1-.2,0,0,0-.1,0-.2,0,0,0-.1,0-.2ZM24.6,45.9c0,0-.1,0-.2,0,0,0-.1,0-.2,0,0,0-.1,0-.2,0,0,0-.1,0-.2,0,0,0-.1,0-.2,0,0,0-.1,0-.2,0,0,0-.1,0-.2,0,0,0-.1,0-.2-.1,0,0-.1,0-.2-.1,0,0-.1,0-.2-.1,0,0-.1,0-.2-.1,0,0-.1,0-.1-.1,0,0,0,0-.1-.1,0,0,0-.1-.1-.2,0,0,0-.1-.1-.2,0,0,0-.1-.1-.2,0,0,0,.1,0,.2,0,0,0,.1,0,.2,0,0,0,.1,0,.2,0,0,0,.1,0,.2,0,0,0,.1.1.2,0,0,0,0,.1.1,0,0,0,0,.1.1,0,0,0,0,.2.1,0,0-.1,0-.2,0,0,0-.1,0-.2,0,0,0-.1,0-.2,0,0,0-.1,0-.2,0,0,0-.1,0-.2,0,0,0-.1,0-.2,0,0,0-.1,0-.2,0,0,0-.1,0-.2,0l1.2.6s0,0,0,0c0,0,.1,0,.2,0,0,0,.1,0,.2,0,0,0,.2,0,.2,0,.1,0,.2,0,.3,0,.1,0,.2,0,.3,0,.1,0,.2,0,.3,0,0,0,.1,0,.2,0,0,0,.1,0,.2,0,0,0,.1,0,.2,0,0,0,.1,0,.2,0,0,0,.1,0,.2,0,0,0,.1,0,.2-.1ZM28.1,43.2c0,0,0,.1,0,.2,0,0,0,.1,0,.2,0,0,0,.1,0,.2,0,0,0,.1,0,.2,0,0,0,.1,0,.2,0,0,0,.1,0,.2,0,0,0,.1.1.2,0,0-.1,0-.2,0,0,0-.1,0-.2,0,0,0-.1,0-.2,0,0,0-.1,0-.2,0,0,0-.1,0-.2,0,0,0-.1,0-.2,0,0,0-.1,0-.2-.1,0,0-.1,0-.2-.1l1,.9s0,0,0,0c0,0,0,0,.1.1,0,0,0,0,.1,0,0,0,.1,0,.2.1,0,0,0,0,.2,0,0,0,.2,0,.3,0,.1,0,.2,0,.3,0,0,0,.2,0,.2,0,0,0,.2,0,.2,0,0,0,.1,0,.2,0,0,0,.1,0,.2,0,0,0,.1,0,.2,0,0,0,.1,0,.2,0,0,0-.1,0-.2,0,0,0-.1,0-.2,0,0,0-.1,0-.2-.1,0,0-.1,0-.2-.1,0,0-.1,0-.2-.1,0,0-.1,0-.2-.1,0,0-.1,0-.2-.1,0,0-.1,0-.1-.1,0,0,0-.1-.1-.2,0,0,0-.1-.1-.2,0,0,0-.1-.1-.2,0,0,0-.1-.1-.2,0,0,0-.1,0-.2,0,0,0-.1,0-.2,0,0,0-.1,0-.2,0,0,0-.1,0-.2,0,0,0,.1,0,.2ZM26.1,39c0,0-.1,0-.2,0,0,0-.1,0-.2,0,0,0-.1,0-.2,0,0,0-.1,0-.2,0,0,0-.1,0-.2,0,0,0-.1,0-.2-.1,0,0-.1,0-.2-.1,0,0-.1,0-.2-.1,0,0-.1,0-.2-.1,0,0-.1,0-.2-.1,0,0,0,.1,0,.2,0,0,0,.1,0,.2,0,0,0,.1.1.2,0,0,0,0,.1.1,0,0,0,0,.1.1,0,0,.1,0,.2.1,0,0,.1,0,.2,0,0,0,.1,0,.2,0,0,0-.1,0-.2.1,0,0-.1,0-.2.1,0,0-.1,0-.2,0,0,0-.1,0-.2,0,0,0-.1,0-.2,0,0,0-.1,0-.2,0,0,0-.1,0-.2,0,0,0-.2,0-.2,0l1.3.3s0,0,0,0c0,0,.1,0,.2,0,0,0,.1,0,.2,0,0,0,.2,0,.2,0,.1,0,.2,0,.3,0,.1,0,.2,0,.3,0,0,0,.2,0,.3-.1,0,0,0,0,.1,0,0,0,0,0,.1,0,0,0,0,0,.1-.1,0,0,0,0,.1-.1,0,0,0,0,.1-.1,0,0,0,0,.1-.1,0,0-.1,0-.2,0,0,0-.1,0-.2,0,0,0-.1,0-.2,0,0,0-.1,0-.2,0,0,0-.1,0-.2,0,0,0-.1,0-.2,0ZM32.7,40.1l1,.9s0,0,0,0c0,0,0,0,.1.1,0,0,0,0,.1,0,0,0,.1,0,.2.1,0,0,0,0,.2,0,0,0,.2,0,.3,0,.1,0,.2,0,.3,0,0,0,.2,0,.2,0,0,0,.2,0,.2,0,0,0,.1,0,.2,0,0,0,.1,0,.2,0,0,0,.1,0,.2,0,0,0,.1,0,.2,0,0,0-.1,0-.2,0,0,0-.1,0-.2-.1,0,0-.1,0-.2-.1,0,0-.1,0-.2-.1,0,0-.1,0-.2-.1,0,0-.1,0-.2-.1,0,0-.1,0-.2-.1,0,0,0,0-.1-.1,0,0,0,0-.1-.1,0,0,0-.1-.1-.2,0,0,0-.1-.1-.2,0,0,0-.1-.1-.2,0,0,0-.1,0-.2,0,0,0-.1,0-.2,0,0,0-.1,0-.2,0,0,0-.1,0-.2,0,0,0,.1,0,.2,0,0,0,.1,0,.2,0,0,0,.1,0,.2,0,0,0,.1,0,.2,0,0,0,.1,0,.2,0,0,0,.1,0,.2,0,0,0,.1,0,.2,0,0,0,.1.1.2,0,0-.1,0-.2,0,0,0-.1,0-.2,0,0,0-.1,0-.2,0,0,0-.1,0-.2,0,0,0-.1,0-.2,0,0,0-.1,0-.2,0,0,0-.1,0-.2-.1,0,0-.1,0-.2-.1ZM15,35.4c0,0-.1,0-.2,0,0,0-.1,0-.2,0,0,0-.1,0-.2,0,0,0-.1,0-.2-.1,0,0-.1,0-.2-.1l1,.9s0,0,0,0c0,0,0,0,.1.1,0,0,0,0,.1,0,0,0,.1,0,.2.1,0,0,0,0,.2,0,0,0,.2,0,.3,0,.1,0,.2,0,.3,0,0,0,.2,0,.2,0,0,0,.2,0,.2,0,0,0,.1,0,.2,0,0,0,.1,0,.2,0,0,0,.1,0,.2,0,0,0,.1,0,.2,0,0,0-.1,0-.2,0,0,0-.1,0-.2,0,0,0-.1,0-.2-.1,0,0-.1,0-.2-.1,0,0-.1,0-.2-.1,0,0-.1,0-.2-.1,0,0-.1,0-.2-.1,0,0-.1,0-.1-.1,0,0,0-.1-.1-.2,0,0,0-.1-.1-.2,0,0,0-.1-.1-.2,0,0,0-.1-.1-.2,0,0,0-.1,0-.2,0,0,0-.1,0-.2,0,0,0-.1,0-.2,0,0,0-.1,0-.2,0,0,0,.1,0,.2,0,0,0,.1,0,.2,0,0,0,.1,0,.2,0,0,0,.1,0,.2,0,0,0,.1,0,.2,0,0,0,.1,0,.2,0,0,0,.1,0,.2,0,0,0,.1.1.2,0,0-.1,0-.2,0,0,0-.1,0-.2,0,0,0-.1,0-.2,0ZM15,28.1c0,0,0,.1,0,.2,0,0,0,0,0,.1,0,0,0,0,0,.1,0,0,0,0,0,.1,0,0,0,0,0,.1,0,0,0,0,0,.1,0,0,0,.2.2.2,0,0-.1,0-.2,0,0,0-.1,0-.2,0,0,0-.1,0-.2,0,0,0,0,0-.1,0,0,0,0,0-.1,0,0,0,0,0-.1,0,0,0,0,0-.1,0,0,0,0,0-.1,0l.7.7s0,0,.1,0c0,0,0,0,.1,0,0,0,0,0,0,0,0,0,0,0,.1,0,0,0,0,0,.1,0,0,0,0,0,.1,0,0,0,0,0,.1,0,0,0,0,0,.1,0,0,0,0,0,.1,0,0,0,0,0,.1,0s0,0,.1,0c0,0,0,0,.1,0,0,0,0,0,.1,0,0,0,0,0,.1,0,0,0,.2,0,.2,0,0,0,0,0-.1,0,0,0,0,0-.1,0,0,0,0,0-.1,0,0,0,0,0-.1,0,0,0,0,0-.1,0,0,0,0,0-.1,0,0,0,0,0-.1,0,0,0,0,0-.1-.1,0,0,0,0,0-.1,0,0,0,0,0-.1,0,0,0,0,0-.1,0,0,0,0,0-.1,0,0,0,0,0-.1,0,0,0,0,0-.1,0,0,0-.2-.1-.3ZM15.9,19.4c0,0,0,.1,0,.2,0,0,0,0,0,.1,0,0,0,0,0,.1,0,0,0,0,0,.1,0,0,0,0,0,.1,0,0,0,0,0,.1,0,0,0,.2.2.2,0,0-.1,0-.2,0,0,0-.1,0-.2,0,0,0-.1,0-.2,0,0,0-.1,0-.1,0,0,0,0,0-.1,0,0,0,0,0-.1,0,0,0,0,0-.1,0,0,0,0,0-.1,0l.7.7s0,0,.1,0c0,0,0,0,.1,0,0,0,0,0,0,0,0,0,0,0,.1,0,0,0,0,0,.1,0,0,0,0,0,.1,0,0,0,0,0,.1,0,0,0,0,0,.1,0,0,0,0,0,.1,0,0,0,0,0,.1,0s0,0,.1,0c0,0,0,0,.1,0,0,0,0,0,.1,0,0,0,0,0,.1,0,0,0,.2,0,.2,0,0,0,0,0-.1,0,0,0,0,0-.1,0,0,0,0,0-.1,0,0,0,0,0-.1,0,0,0,0,0-.1,0,0,0,0,0-.1,0,0,0,0,0-.1,0,0,0,0,0-.1-.1,0,0,0,0,0-.1,0,0,0,0,0-.1,0,0,0,0,0-.1,0,0,0,0,0-.1,0,0,0,0,0-.1,0,0,0,0,0-.1,0,0,0-.2-.1-.3ZM76.3,64.8c0-.4.3-.7.6-1l-.8.5c-.5.4-.8.9-.7,1.5.5-.6,1.1-1,1.9-1-.4-.2-.7-.2-1,0ZM83.5,66.6c-.4,0-.7.2-.9.5-.2-.4-.2-.8,0-1.1l-.4.8c-.3.6-.2,1.1.2,1.7,0-.8.5-1.4,1.2-1.9ZM87.5,64.8c-.2-.3-.3-.7-.3-1.1l-.2.9c-.1.6,0,1.2.6,1.6-.1-.8.1-1.5.6-2.1-.4.1-.6.4-.7.7ZM86.4,59.5c-.1.6,0,1.2.6,1.6-.1-.8.1-1.5.6-2.1-.4.1-.6.4-.7.7-.2-.3-.3-.7-.3-1.1l-.2.9ZM83,61.4l-.2.9c-.1.6,0,1.2.6,1.6-.1-.8.1-1.5.6-2.1-.4.1-.6.4-.7.7-.2-.3-.3-.7-.3-1.1ZM79.2,60.2s0,0,0-.1l-.2.9c-.1.6,0,1.2.6,1.6-.1-.8.1-1.5.6-2.1-.4.1-.6.4-.7.7-.2-.3-.3-.6-.3-1ZM82.3,58.6c-.4-.2-.6-.4-.8-.8l.3.9c.2.6.6,1,1.3,1.1-.5-.6-.7-1.3-.5-2.1-.3.3-.3.6-.3,1ZM79.2,54.3c-.3.3-.3.6-.3,1-.4-.2-.6-.4-.8-.8l.3.9c.2.6.6,1,1.3,1.1-.5-.6-.7-1.3-.5-2.1ZM80.5,51.2c-.3.3-.3.6-.3,1-.4-.2-.6-.4-.8-.8l.3.9c.2.6.6.9,1.2,1.1,0,0,0,0,.1,0,0,0,0,0-.1-.1-.4-.6-.5-1.3-.4-2ZM84.3,54.3c-.3.3-.3.6-.3,1-.4-.2-.6-.4-.8-.8l.3.9c.2.6.6,1,1.3,1.1-.5-.6-.7-1.3-.5-2.1ZM76.9,50.2c-.3.3-.3.6-.3,1-.4-.2-.6-.4-.8-.8l.3.9c.2.6.6,1,1.3,1.1-.5-.6-.7-1.3-.5-2.1ZM61.8,43.9c.1.4.4.6.7.7-.3.2-.7.3-1.1.3l.9.2c.6.1,1.2,0,1.6-.6-.8.1-1.5,0-2.1-.6ZM57.8,42.1c-.6,0-1.1-.2-1.6-.7.1.4.4.6.7.7-.3.2-.7.3-1.1.3l.9.2c.4,0,.8,0,1.1-.2.2-.1.3-.2.5-.4-.2,0-.3,0-.5,0ZM74.4,46.6c0,.4.2.7.5.9-.4.2-.8.1-1.1,0l.8.4c.6.3,1.1.2,1.7-.2-.8,0-1.4-.5-1.9-1.2ZM70.6,46.4c0,.4.2.7.5.9-.4.2-.8.1-1.1,0l.8.4c.6.3,1.1.2,1.7-.2-.8,0-1.4-.5-1.9-1.2ZM66.5,44.4l.8.4c.6.3,1.1.2,1.7-.2-.8,0-1.4-.5-1.9-1.2,0,.4.2.7.5.9-.4.2-.8.1-1.1,0ZM24.3,63.8s0,0,0-.1c0,0,0,0,0,.1,0,0,0,.1,0,.2,0,0,0,.1,0,.2,0,0,0,.1,0,.2,0,0,0,.1,0,.2,0,0,0,.1,0,.2,0,0,0,.1,0,.2,0,0,0,.1.1.2,0,0,0,0,0,0,0,0,0,0-.1,0,0,0-.1,0-.2,0,0,0-.1,0-.2,0,0,0-.1,0-.2,0,0,0-.1,0-.2,0,0,0-.1,0-.2,0,0,0-.1,0-.2-.1,0,0-.1,0-.2-.1,0,0,0,0,0,0l1,.9c.1.1.3.2.5.3.1,0,.2.1.4.2.5.2,1.1.2,1.7,0-.4-.2-.7-.3-1-.6,0,0,0,0,0,0,0,0-.1-.1-.2-.2,0,0-.1-.1-.2-.2,0,0-.1-.1-.2-.2,0,0-.1-.1-.2-.2,0,0,0-.2-.1-.2,0,0,0-.2-.1-.3,0,0,0-.2-.1-.3ZM29.5,63.9c0,0-.1,0-.2-.1,0,0-.1,0-.2-.2,0,0-.1-.1-.2-.2,0,0-.1-.1-.2-.2,0,0-.1-.1-.2-.2,0,0-.1-.1-.2-.2,0,0,0,0,0-.1,0,0,0,0,0,.1,0,0,0,.1,0,.2,0,0,0,.1,0,.2,0,0,0,.1,0,.2,0,0,0,.1,0,.2,0,0,0,.1.1.2,0,0,0,0,.1.1,0,0,0,0,.1.1,0,0,0,0,0,0,0,0,0,0-.1,0,0,0-.1,0-.2,0,0,0-.1,0-.2,0,0,0-.1,0-.2,0,0,0-.1,0-.2,0,0,0-.1,0-.2,0,0,0-.1,0-.2,0,0,0-.1,0-.2,0,0,0,0,0-.1,0l1.1.6h0s0,0,0,0c.9.4,1.7.3,2.5-.2-.5,0-.9-.2-1.3-.4,0,0,0,0-.1,0,0,0-.1,0-.2-.1ZM31.2,59c0,0,0-.1,0-.2,0,0,0-.1,0-.2,0,0,0,0,0,.1,0,0,0,.1,0,.2,0,0,0,.1,0,.2,0,0,0,.1,0,.2,0,0,0,0,0,0,0,0,0,.1,0,.2,0,0,0,.1,0,.2,0,0,0,.1.1.2,0,0,0,.1.1.2,0,0,0,0-.1,0,0,0-.1,0-.2,0,0,0-.1,0-.2,0,0,0-.1,0-.2,0,0,0,0,0-.1,0,0,0-.1,0-.2,0,0,0-.1,0-.2,0,0,0-.1,0-.2-.1,0,0-.1,0-.2-.1l1,.9c0,0,.1,0,.2.1,0,0,.1,0,.2.1,0,0,.1,0,.2.1,0,0,.1,0,.2,0,.6.2,1.2.2,1.9,0-.6-.3-1.1-.6-1.5-1.1,0,0,0,0,0,0,0,0,0,0-.1-.1,0,0,0,0,0-.1,0,0,0-.1,0-.2,0,0,0,0,0,0,0,0,0-.1,0-.2,0,0,0-.1,0-.2ZM31.2,54.3c0,0,0-.1,0-.2,0,0,0,.1,0,.2,0,0,0,.1,0,.2,0,0,0,.1,0,.2,0,0,0,.1,0,.2,0,0,0,.1,0,.2,0,0,0,.1,0,.2,0,0,0,.1.1.2,0,0,0,.1.1.2,0,0-.1,0-.2,0,0,0-.1,0-.2,0,0,0-.1,0-.2,0,0,0-.1,0-.2,0,0,0-.1,0-.2,0,0,0-.1,0-.2,0,0,0-.1,0-.2-.1,0,0-.1,0-.2-.1l1,.9c0,0,.1,0,.2.1,0,0,.1,0,.2.1,0,0,.1,0,.2.1,0,0,.1,0,.2,0,0,0,.1,0,.2,0,0,0,.1,0,.2,0,0,0,.1,0,.2,0,0,0,.1,0,.2,0,.3,0,.6,0,1-.2-.3-.1-.6-.3-.8-.4,0,0,0,0-.1,0,0,0-.2-.1-.2-.2,0,0-.1-.1-.2-.2,0,0-.1-.1-.2-.2,0,0-.1-.2-.2-.2,0,0-.1-.2-.2-.3,0,0,0-.2-.1-.3,0,0,0-.2-.1-.3ZM2.9,51.4l.8.7c.6.5,1.2.6,2,.3-.9-.4-1.5-1-1.8-1.9,0,.5,0,.9.3,1.2-.5,0-.9,0-1.3-.4ZM9.2,49.3c.3.7.8,1.1,1.5,1.3-.6-.8-.8-1.6-.6-2.5-.3.4-.4.7-.3,1.2-.4-.2-.8-.5-.9-1l.3,1ZM8.2,52.7l.8.7c.6.5,1.2.6,2,.3-.9-.4-1.5-1-1.8-1.9,0,.5,0,.9.3,1.2-.5,0-.9,0-1.3-.4ZM6.2,45v1.1c0,.8.5,1.3,1.2,1.6-.4-.9-.3-1.7,0-2.6-.4.3-.6.6-.6,1.1-.4-.3-.6-.7-.7-1.2ZM31.2,49s0,0,0,0l1,.9s0,0,0,0c0,0,.1,0,.2.1,0,0,0,0,.1,0,0,0,0,0,.1,0,.6.3,1.3.3,2,0-.7-.3-1.3-.7-1.7-1.3,0,0,0-.2-.1-.2,0,0,0-.2-.1-.3,0,0,0-.2-.1-.3,0,0,0-.2-.1-.3,0,0,0,.1,0,.2,0,0,0,.1,0,.2,0,0,0,.1,0,.2,0,0,0,.1,0,.2,0,0,0,.1,0,.2,0,0,0,.1,0,.2,0,0,0,.1.1.2,0,0,0,.1.1.2,0,0-.1,0-.2,0,0,0-.1,0-.2,0,0,0-.1,0-.2,0,0,0-.1,0-.2,0,0,0-.1,0-.2,0,0,0,0,0,0,0,0,0,0,0,0,0,0,0-.1,0-.2-.1,0,0,0,0,0,0ZM33.8,45.8c0,0-.1,0-.2,0,0,0-.1,0-.2,0,0,0-.1,0-.2,0,0,0,0,0,0,0,0,0-.1,0-.2-.1l1,.9h.1c0,.1,0,.1,0,.1,0,0,0,0,0,0,0,0,0,0,0,0h0s0,0,0,0c.6.4,1.4.5,2.1.3h.1s-.2-.1-.2-.1c-.3-.2-.6-.3-.9-.6,0,0,0,0,0,0,0,0-.1-.1-.2-.2,0,0-.1-.1-.2-.2,0,0-.1-.1-.2-.2,0,0,0-.1-.1-.2,0,0,0-.2-.1-.2,0,0,0-.2-.1-.2,0,0,0,0,0-.1,0,0,0-.2,0-.3,0,0,0,0,0,.1,0,0,0,.1,0,.2,0,0,0,.1,0,.2,0,0,0,.1,0,.2,0,0,0,.1,0,.2,0,0,0,.1,0,.2,0,0,0,.1,0,.2,0,0,0,0,0,0,0,0,0,.1.1.2,0,0,0,0-.1,0,0,0-.1,0-.2,0,0,0-.1,0-.2,0,0,0-.1,0-.2,0ZM17.8,31.4s0,0,0-.1c0,0,0,0,0-.1,0,0,0,.2,0,.3,0,0,0,0,0,.1,0,0,0,0,0,.1,0,0,0,.2,0,.3,0,0,0,0,0,.1,0,0,0,0,0,.1,0,0-.1,0-.2,0-.1,0-.2,0-.3,0,0,0-.1,0-.1,0,0,0,0,0-.1,0,0,0-.2,0-.3-.1,0,0,0,0,0,0,0,0,0,0,0,0l.7.7s0,0,0,0c0,0,.1,0,.2.1,0,0,0,0,.1,0,0,0,0,0,.1,0,.4.1.8.1,1.3,0-.5-.2-.9-.5-1.1-.8,0,0,0-.1-.1-.2,0,0,0,0,0,0,0,0,0,0,0-.1,0,0,0-.2-.1-.2ZM12.6,26.2h.9l-.2-.2,1.2-.2-.7-.2,1.3-.4h-1s0,0,0-.1c0,0,0-.2,0-.2-.7.7-1.9,1.3-3.8,1.8,0,0,.2,0,.2,0,0,0,.2,0,.2,0,0,0,.2,0,.2,0,0,0,.2,0,.2,0,0,0,.2,0,.2,0,0,0,.2,0,.2,0,0,0,.2,0,.2,0,0,0,.2,0,.2,0,.2,0,.3,0,.5,0h.1s-.1-.1-.1-.1ZM18.4,26.8c0,0-.1-.1-.2-.2,0,0-.1-.1-.2-.2,0,0,0-.1-.1-.2,0,0,0-.1-.1-.2,0,0,0-.2-.1-.2,0,0,0-.2,0-.2,0,0,0,.2,0,.3,0,0,0,.2,0,.3,0,0,0,.2,0,.3,0,0,0,.2.1.2,0,0-.1,0-.2,0-.1,0-.2,0-.3,0,0,0-.2,0-.3,0,0,0-.2,0-.3-.1,0,0,0,0-.1,0l.7.7c0,0,.1,0,.2.1,0,0,.1,0,.2,0,0,0,.1,0,.2,0,0,0,.1,0,.2,0,0,0,.1,0,.2,0,0,0,.1,0,.2,0,0,0,.1,0,.2,0,0,0,.1,0,.2,0,0,0,0-.2,0-.3,0,0-.1,0-.2-.1,0,0-.1,0-.2-.1Z"/>
  <path class="st0" d="M69.2,43.9c0,0-.1,0-.2,0,0,0-.1,0-.2,0,0,0-.1,0-.2,0,0,0-.1,0-.2,0,0,0-.1,0-.2,0,0,0-.1,0-.2,0,0,0-.1,0-.2,0,0,0-.1,0-.2,0,0,0-.1,0-.2,0,0,0-.1,0-.2,0,0,0-.1,0-.2,0,0,0-.1,0-.2,0,0,0-.1,0-.2,0,0,0-.1,0-.2,0,0,0-.1,0-.2,0,0,0-.1,0-.2,0,0,0-.1,0-.2,0,0,0-.1,0-.2,0,0,0-.1,0-.2,0,0,0-.1,0-.2,0,0,0-.1,0-.2,0,0,0-.1,0-.2,0,0,0-.1,0-.2,0,0,0-.1,0-.2,0,0,0-.1,0-.2,0,0,0-.1,0-.2,0,0,0-.1,0-.2,0,0,0-.1,0-.2,0,0,0-.1,0-.2,0,0,0-.1,0-.2,0,0,0-.1,0-.2,0,0,0-.1,0-.2,0,0,0-.1,0-.2,0,0,0-.2,0-.2,0,0,0-.1,0-.2,0,0,0-.2,0-.2,0,0,0-.2,0-.2,0,0,0-.2,0-.2,0,0,0-.2,0-.2,0,0,0-.2,0-.2,0,0,0-.2,0-.2,0,0,0-.2,0-.2,0,0,0-.2,0-.2,0,0,0-.2,0-.2,0-.2,0-.3,0-.5,0-.2,0-.3,0-.5,0,0,0-.2,0-.2,0,0,0-.2,0-.2,0,0,0-.2,0-.2,0,0,0-.1,0-.2,0,0,0,0,0,0,0,0,0-.2,0-.2,0,0,0-.2,0-.2,0-.2,0-.5,0-.7-.1-.2,0-.5,0-.7-.1-.2,0-.3,0-.5,0-.2,0-.3,0-.5,0-.2,0-.3,0-.5,0-.2,0-.3,0-.5,0-.2,0-.3,0-.5,0-.2,0-.3,0-.5,0-.2,0-.3,0-.5,0-.2,0-.3,0-.5,0-.2,0-.3,0-.5,0,0,0-.2,0-.2,0,0,0-.2,0-.2,0,0,0-.2,0-.3,0,0,0-.2,0-.3,0-.1,0-.2,0-.3,0,0,0-.2,0-.2,0,0,0-.1,0-.2,0,0,0-.1,0-.2,0,0,0,0,0,0,0,0,0-.1,0-.2,0,0,0-.1,0-.2,0,0,0-.1,0-.2,0,0,0-.1,0-.2,0,0,0-.1,0-.2,0,0,0-.1,0-.2,0,0,0-.1,0-.2,0,0,0-.1,0-.2,0,0,0-.1,0-.2,0,0,0-.2,0-.2,0,0,0-.2,0-.2,0,0,0-.2,0-.2,0,0,0-.2,0-.2,0,0,0-.2,0-.2,0,0,0,0,0-.1,0,0,0,0,0-.1,0,0,0,0,0-.1,0,0,0,0,0-.1,0,0,0,0,0-.1,0,0,0,0,0-.1,0,0,0,0,0-.1,0,0,0,0,0-.1,0,0,0,0,0,0,0,0,0,0,0,0,0,0,0,0,0,0,0,0,0,0,0,0,0,0,0,0,0,0,0,0,0,0,0,0,0,0,0,0,0-.1,0,0,0,0,0-.1,0,0,0,0,0-.1,0,0,0,0,0-.1,0,0,0,0,0-.1,0,0,0,0,0-.1,0,0,0,0,0-.1,0,0,0,0,0-.1,0,0,0,0,0-.1,0,0,0,0,0-.1,0,0,0,0,0-.1,0,0,0,0,0-.1,0,0,0,0,0-.1,0,0,0-.2,0-.2,0,0,0-.1,0-.2,0,0,0,0,0,0,0,0,0,0,0-.1,0,0,0-.2,0-.2,0-.1,0-.3,0-.4-.1-.1,0-.3,0-.4-.1-.1,0-.3,0-.4,0-.1,0-.3,0-.4-.1-.1,0-.3,0-.4,0,0,0-.2,0-.3,0,0,0-.2,0-.3,0,0,0-.2,0-.3,0-.1,0-.2,0-.3,0-.1,0-.2,0-.3,0-.1,0-.2,0-.3,0-.1,0-.2,0-.3,0,0,0-.1,0-.2,0-.1,0-.2,0-.3,0,0,0-.1,0-.2,0,0,0-.1,0-.2,0,0,0-.1,0-.2,0,0,0-.1,0-.2,0,0,0-.1,0-.2,0,0,0-.1,0-.2,0,0,0-.1,0-.2,0,0,0-.1,0-.2,0,0,0-.1,0-.2,0,0,0-.1,0-.2,0,0,0-.1,0-.2,0,0,0-.1,0-.2,0,0,0-.1,0-.2,0,0,0-.1,0-.2,0,0,0-.1,0-.2,0,0,0-.1,0-.2,0,0,0,0,0,0,0,0,0-.1,0-.2,0,0,0,0,0-.1,0,0,0,0,0,0,0,0,0,0,0-.1,0,0,0,0,0-.1,0,0,0,0,0-.1,0,0,0,0,0-.1,0,0,0-.1,0-.2,0,0,0-.1,0-.2,0,0,0-.1,0-.2,0,0,0-.2,0-.2,0,0,0-.2,0-.2,0,0,0-.2,0-.2,0,0,0-.2,0-.2,0,0,0,0,0-.1,0,0,0-.2,0-.2,0,0,0-.2,0-.2,0,0,0-.2,0-.2,0,0,0-.2,0-.3,0,0,0-.2,0-.3,0,0,0-.2,0-.3,0,0,0-.2,0-.3,0,0,0-.2,0-.3,0,0,0-.2,0-.3,0,0,0,0,0-.1,0,0,0,0,0-.1,0,0,0,0,0-.1,0,0,0,0,0-.1,0,0,0,0,0-.1,0,0,0,0,0-.1,0s0,0-.1,0h-.1s0,0-.1,0c0,0,0,0-.1,0,0,0,0,0-.1,0,0,0,0,0-.1,0,0,0,0,0-.1,0,0,0,0,0-.1,0,0,0,0,0-.1,0,0,0,0,0-.1,0,0,0,0,0-.1,0,0,0,0,0-.1,0,0,0,0,0,0,0,0,0,0,0,0,0,0,0,0,0,0,0,0,0,0,0,0,0,0,0,0,0,0,0,0,0,0,0,0,0h0s0,0,0,0c0,0,0,0,0,0,0,0,0,0,0,0,0,0,0,0,0,0,0,0,0,0,0,0,0,0,0,0,0,0,0,0,0,0,0,0,0,0,0,0,0,0,0,0,0,0,0,0,0,0,0,0-.1,0,0,0,0,0-.1,0,0,0-.2,0-.3,0,0,0-.2,0-.3,0,0,0-.2,0-.3,0,0,0-.2,0-.3,0,0,0,0,0-.1,0,0,0,0,0-.1,0,0,0,0,0-.1,0,0,0,0,0-.1,0,0,0,0,0-.1,0,0,0,0,0-.1,0,0,0-.2,0-.3,0,0,0-.2,0-.3,0,0,0-.2,0-.3,0s-.2,0-.3,0c0,0-.2,0-.3,0,0,0-.2,0-.3,0,0,0-.2,0-.3,0,0,0-.2,0-.3,0h-2c0,0,0,0-.1.1h-.1s0,0-.1,0c0,0,0,0-.1,0,0,0-.2,0-.2,0,0,0-.2,0-.2,0,0,0-.1,0-.2-.1,0,0-.1-.1-.2-.2,0,0,0,0,0-.1,0,0,0,0,0-.1,0,0,0,0,0-.1,0,0,0,0,0-.1,0,0,0,0,0-.1,0,0,0-.1,0-.2,0,0,0-.1,0-.2,0,0,0-.1,0-.2,0,0,0-.1,0-.2,0,0,0-.1,0-.2,0,0,0-.1,0-.2,0,0,0-.1,0-.2,0,0,0-.1,0-.2,0,0,0-.1,0-.2,0,0,0,0-.1,0,0,0,0,0-.1,0,0,0-.1,0-.2-.1,0,0,0,0,0,0l-.7-.7s0,0,0,0c0,0,0,0,0,0,0,0,.2,0,.3.1,0,0,0,0,.1,0,0,0,0,0,.1,0,.1,0,.2,0,.3,0s.1,0,.2,0c0,0,0,0,0-.1,0,0,0,0,0-.1,0,0,0-.2,0-.3,0,0,0,0,0-.1,0,0,0,0,0-.1,0-.1,0-.2,0-.3,0,0,0,0,0,.1,0,0,0,0,0,.1,0,0,0,.2.1.2,0,0,0,0,0,.1,0,0,0,0,0,0,0,0,0,.1.1.2,0,0,0-.1,0-.2,0,0,0-.1,0-.2,0,0,0-.1,0-.2,0,0,0-.1,0-.2,0,0,0-.1,0-.2,0,0,0-.1,0-.2,0,0,0-.1,0-.2,0,0,0-.1,0-.2,0,0,0-.1,0-.2,0,0,0-.1,0-.2,0,0,0-.1,0-.2,0,0,0-.1,0-.2,0,0,0-.1,0-.2,0,0,0-.1,0-.2,0,0,0-.1,0-.2,0,0,0-.1,0-.2,0,0,0-.1,0-.2,0,0,0-.1,0-.2,0,0,0-.1,0-.2,0,0,0-.1,0-.2,0,0,0-.1,0-.2,0,0,0-.1,0-.2,0,0,0-.1,0-.2,0,0,0-.1,0-.2,0,0-.1,0-.2,0,0,0-.1,0-.2,0,0,0-.1,0-.2,0,0,0-.1,0-.2,0,0,0-.1,0-.2,0,0,0-.1,0-.2,0,0,0-.1,0-.2,0,0,0-.1,0-.2-.1l-.7-.7s0,0,.1,0c0,0,.2,0,.3.1,0,0,.2,0,.3,0,0,0,.2,0,.3,0s.1,0,.2,0c0,0-.1-.2-.1-.2,0,0,0-.2,0-.3,0,0,0-.2,0-.3,0-.1,0-.2,0-.3,0,0,0,.2,0,.2,0,0,0,.2.1.2,0,0,0,.1.1.2,0,0,0,.1.1.2,0,0,.1.1.2.2,0,0,.1.1.2.2,0,0,.1,0,.2.1,0,0,.1,0,.2.1,0,0,0,0,0,0,0,0,0-.2,0-.3,0,0,0-.2,0-.3,0,0,0-.2,0-.3,0,0,0-.2,0-.3,0,0,0-.1,0-.2,0,0,0-.2,0-.3,0,0,0-.2,0-.3,0,0,0-.2,0-.3,0,0,0-.2,0-.3,0,0,0-.2,0-.3,0,0,0-.1,0-.2h-.1c0,0-.7-.8-.7-.8,0,0,.1,0,.2.1,0,0,.1,0,.2.1,0,0,.1,0,.2,0,0,0,.1,0,.2,0v-.7c0,0,0-.1,0-.2,0,0,0-.1,0-.2h0c0,0,0-.1,0-.2,0,0,0-.1,0-.2s0-.1,0-.2c0,0,0-.1,0-.2,0,0,0-.1,0-.2,0,0,0,0,0-.1,0,0,0-.2,0-.3,0,0,0-.2,0-.2,0,0,0-.2,0-.2,0,0,0-.2,0-.2,0,0,0-.1,0-.2,0,0,0-.1-.1-.2,0,0,0-.1-.1-.2,0,0,0-.1-.1-.2,0,0,0-.1-.1-.2,0,0,0-.1-.1-.2,0,0,0-.1-.1-.2,0,0-.1-.1-.2-.2,0,0-.1,0-.2-.1,0,0-.1,0-.2-.1,0,0-.1,0-.2-.1,0,0-.1,0-.2-.1,0,0-.1,0-.2-.1,0,0-.1,0-.2,0,0,0-.1,0-.2,0,0,0-.1,0-.2,0,0,0-.1,0-.2,0,0,0-.1,0-.2,0,0,0-.1,0-.2,0,0,0-.1,0-.2,0,0,0-.2,0-.2,0,0,0-.2,0-.2,0,0,0-.2,0-.2,0,0,0-.2,0-.2,0,0,0-.2,0-.2,0,0,0-.2,0-.2,0,0,0-.2,0-.2,0,0,0-.2,0-.2,0,0,0-.2,0-.2,0,0,0-.2,0-.2,0,0,0-.2,0-.2,0,0,0-.2,0-.2,0,0,0-.2,0-.2,0,0,0-.2,0-.2,0,0,0-.2,0-.2,0,0,0-.2,0-.2,0,0,0-.2,0-.2,0,0,0-.2,0-.2,0,0,0-.1,0-.2,0,0,0-.1,0-.2,0,0,0-.1,0-.2,0,0,0-.1,0-.2,0,0,0-.1,0-.2,0,0,0-.1,0-.2,0,0,0-.1,0-.2,0,0,0-.1,0-.2,0,0,0-.2,0-.2,0,0,0-.1,0-.2,0,0,0-.1,0-.2,0,0,0-.1,0-.2.1,0,0-.1,0-.2.1,0,0-.1,0-.2.1,0,0-.1,0-.2.1,0,0-.1,0-.2.1,0,0-.1,0-.2.1,0,0-.1,0-.2.1,0,0-.1,0-.2.1,0,0-.1,0-.2.1s-.1.1-.2.2c0,0-.1.1-.2.2,0,0-.1.1-.2.2,0,0-.1.1-.2.2,0,0-.1.1-.2.2,0,0-.1.1-.2.2,0,0-.1.1-.2.2,0,0,0,.1-.1.2,0,0,0,0-.1.1,0,0,0,0-.1.1,0,0,0,0-.1.1,0,0,0,0-.1.1,0,0,0,0-.1.1,0,0,0,0-.1.1,0,0,0,0-.1.1,0,0,0,0-.1.1,0,0-.1,0-.2.1,0,0-.1,0-.2.1,0,0-.1,0-.2.1,0,0-.1,0-.2.1,0,0-.1,0-.2.1,0,0-.1,0-.2.1,0,0-.1,0-.2.1,0,0-.1,0-.2.1,0,0-.1,0-.2.1,0,0-.1,0-.2.1,0,0-.1,0-.2.1,0,0-.1,0-.2.1,0,0-.1,0-.2.1h-.2c0,.1-.1.2-.2.2,0,0-.1,0-.2.1,0,0-.1,0-.2.1,0,0-.1,0-.2.1,0,0,0,0-.1,0,0,0,0,0-.1,0,0,0,0,0-.1,0,0,0-.1,0-.2.1,0,0-.1,0-.2.1,0,0-.1.1-.2.2,0,0,0,.1-.1.2h.5l5.5-2.7h0s0,0,0,0c0,0,0,0,0,0,0,0,0,0,0,0l1.9-1.2c-.3.2-.4.5-.4.9,0,0,0,0,0,0,0,0,.2,0,.3,0,0,0,.1,0,.2,0,0,0,0,0,.1,0,.4,0,.9,0,1.5,0,.5-.5.9-1.2,1.2-1.9-.1,0-.4-.1-.8-.1.2-.1.3-.2.2-.4,0,0,.1,0,.2,0,0,0,.1,0,.2,0,0,0,.1,0,.2,0,0,0,.2,0,.3,0,0,0,.2,0,.3,0,0,0,.1,0,.2,0,0,0,.1,0,.2,0h.2s0,0,.1,0,0,0,.1,0h.1s0,0,.1,0c0,0,.2,0,.3,0,0,0,.2,0,.2,0,0,0,.2,0,.2,0,0,0,.1,0,.2,0,0,0,.1,0,.2,0,0,0,.1,0,.2,0,0,0,.2,0,.2,0,0,0,0,0,.1,0,0,0,0,0,.1,0,0,0,0,.1,0,.2,0,.1,0,.2,0,.3,0,.1,0,.2,0,.3,0,.2,0,.3,0,.5,0,.2,0,.3,0,.4,0,0,0,0,0,.1,0,0,0,0,0,.1,0,0,0,0,0,.1,0,0,0,0,0,.1,0,0,0,0,0,.1,0,0,0,0,0,.1,0,0,0,0,0,.1,0,0,0,.2,0,.3,0,0,0,.2,0,.3,0,0,0,.2,0,.3,0,0,0,.2,0,.3,0,0,0,.2,0,.2,0,0,0,.2,0,.2,0,0,0,.2,0,.2,0,0,0,.1,0,.2,0,0,0,0,0,.1h1l-1.3.4.7.2-1.2.2.2.2h-.9.1c0,.1-.1.1-.1.1-.2,0-.3,0-.5,0,0,0-.2,0-.2,0,0,0-.2,0-.2,0,0,0-.2,0-.2,0,0,0-.2,0-.2,0,0,0-.2,0-.2,0,0,0-.2,0-.2,0,0,0-.2,0-.2,0,0,0-.2,0-.2,0,0,0-.1,0-.2,0,0,0-.1,0-.2,0,0,0-.1,0-.2,0,0,0-.1,0-.2,0,0,0-.1,0-.2,0,0,0-.1,0-.2,0,0,0-.1,0-.2,0,0,0-.1,0-.2,0,0,0-.1,0-.2,0,0,0-.1,0-.2,0,0,0-.1,0-.2,0,0,0-.1,0-.2,0,0,0-.1,0-.2,0,0,0-.1,0-.2,0,0,0-.1,0-.2,0,0,0-.1,0-.2,0,0,0-.1,0-.2,0,0,0-.1,0-.2,0,0,0-.1,0-.2,0,0,0-.2,0-.2,0,0,0-.2,0-.2,0,0,0-.2,0-.2,0,0,0-.2,0-.2,0,0,0-.2,0-.2,0,0,0-.2,0-.2,0,0,0-.2,0-.2,0,0,0-.2,0-.2,0,0,0-.2,0-.3,0,0,0-.2,0-.2,0,0,0-.2,0-.3,0,0,0-.2,0-.3,0,0,0-.2,0-.3,0,0,0,.2,0,.2,0,0,0,.2,0,.2,0,0,0,.2,0,.2,0,0,0,.2,0,.2,0,0,0,.2,0,.2,0,0,0,.2,0,.2,0,0,0,.1,0,.2,0,0,0,.1,0,.2,0h.2c0,0,.1,0,.2,0,0,0,.1,0,.2,0,0,0,.1,0,.2,0,0,0,.1,0,.2,0,0,0,.1,0,.2,0,0,0,.1,0,.2,0,0,0,.1,0,.2,0,0,0-.1,0-.2,0,0,0-.1,0-.2,0,0,0-.1,0-.2,0,0,0-.1,0-.2,0,0,0-.1,0-.2,0,0,0-.1,0-.2,0,0,0-.2,0-.3-.1,0,0,.1,0,.2,0,0,0,.1,0,.2,0,.1,0,.2,0,.3,0,.1,0,.2,0,.3,0,.1,0,.2,0,.3,0,.1,0,.2,0,.3,0,.1,0,.2,0,.3,0,.1,0,.2,0,.3,0,0,0,.2,0,.3,0,0,0,0-.1-.1-.2,0,0,0-.1,0-.2,0,0,0,0,0-.1,0,0,0,0,0-.1,0,0,.1,0,.2,0,0,0,.2,0,.3,0,0,0,.2,0,.3,0,0,0,.2,0,.3,0,0,0,.2,0,.3,0,0,0,.2,0,.3,0,0,0,.2,0,.2,0,0,0,.2,0,.2,0,0,0,0,0,.1,0l1.8-.5s0,0,.1,0c0,0,.2,0,.2,0,0,0,.1,0,.2,0s.1,0,.2,0c0,0,.2,0,.2,0,0,0,0,0,.1,0,0,0,.1,0,.2.1,0,0,0,0,0,0l.6,1.5s0,0,0,.1c0,0,0,.2,0,.2,0,0,0,.1,0,.2,0,0,0,.1,0,.2,0,0-.1.2-.2.3,0,0,0,.1-.1.2,0,0,0,.2-.1.3,0,0,0,.1-.1.2,0,0,0,0,0,0,0,0,0,0,0,0,0,0,0,.1,0,.2,0,0,0,0,0,.1,0,0,0,0,0,.1,0,0,0,0,0,.1,0,0-.1.1-.2.2,0,0-.1.2-.2.2,0,0,0,0,0,0,0,0,0,0,0,0,0,0,0,0,0,0,0,0,0,0,.1,0,0,0,0,0,.1,0,0,0,.2-.1.2-.2,0-.1.2-.2.3-.3,0,0,0,0,0-.1,0,0,0,0,0,.1,0,0,0,.2,0,.2,0,0,0,.2,0,.2,0,0,0,.2,0,.2,0,.1,0,.2,0,.3,0,.1,0,.2,0,.3,0,.1,0,.2,0,.3,0,0,0,0,0,.1,0,0,0,0,0,.1,0,0,0,0,0,.1,0,0-.1.2-.2.3,0,0-.1.2-.2.2,0,0-.1.2-.2.2,0,0-.1.1-.2.2,0,0-.1.1-.2.2,0,0-.1.1-.2.2,0,0,0,0,0,0,0,0,0,0,0,0,0,0,0,0,0,0,0,0,0,0,.1,0s0,0,.1,0c0,0,0,0,.1,0,0,0,.1,0,.2-.1,0,0,.2-.2.3-.3,0,0,.1-.2.2-.2,0,0,0,0,0,.1,0,0,0,.2,0,.2,0,0,0,.1,0,.2,0,0,0,.1,0,.2,0,.1,0,.2,0,.3,0,.1,0,.2,0,.3,0,0,0,.2,0,.3,0,0,0,0,0,0,0,0,0,0,0,0,0,0,0,0,0,0,0,0,0,0,0,.1,0,0,0,0,0,.1,0,0,0,0,0,.1,0,0,0,0,0,.1,0,0,0,0,0,.1,0,0,0,.1-.1.2,0,0-.1.2-.2.3,0,0-.1.2-.2.2,0,0-.1.2-.2.2,0,0-.1.1-.2.2,0,0,0,0,0,0,0,0,0,0,.1,0,0,0,0,0,.1,0,0,0,.1,0,.2,0,0,0,.1,0,.2-.1.1,0,.2-.2.3-.3,0,0,0,0,.1-.1,0,0,.1-.1.2-.2,0,0,0,0,0,0,0,0,0,0,0,0,0,0,0,0,0,0,0,0,0,0,0,.1,0,0,0,.2,0,.2,0,0,0,.2,0,.2,0,0,0,.2,0,.2,0,.1,0,.2,0,.3,0,.1,0,.2,0,.3,0,.1,0,.2,0,.3,0,0,0,0,0,.1,0,0-.1.2-.2.3,0,0-.1.2-.2.3,0,0-.1.2-.2.2,0,.1-.2.2-.3.3,0,.1-.2.2-.3.3,0,0-.1.1-.2.2,0,0,0,0,0,0,0,0,0,0,0,0,0,0,0,0,.1,0,0,0,0,0,.2,0,0,0,.1,0,.2,0,0,0,.1,0,.2-.1,0,0,.2-.1.2-.2,0,0,0,0,.1-.1,0,0,.1-.1.2-.2,0,0,0,0,0,0,0,0,0,0,0,0,0,0,0,0,0,0,0,0,0-.1.1-.2,0,0,0,0,0,0,0,0,0,.1,0,.2,0,0,0,.1,0,.2,0,0,0,.1,0,.2,0,0,0,.2.2.3,0,0,.1.2.2.2,0,0,.1.2.2.2,0,0,0,0,0,.1,0,0-.1.2-.2.3,0,0-.1.2-.2.3,0,0-.1.2-.2.2,0,.1-.2.2-.3.3,0,.1-.2.2-.3.3,0,.1-.2.2-.3.3,0,0,0,0,0,0,0,0,.1,0,.2,0,0,0,.1,0,.2,0,0,0,.1,0,.2,0,.1,0,.2-.1.3-.2,0,0,.1-.1.2-.2,0,0,.1-.2.2-.2,0,0,0,0,0,0,0,0,0,0,0,0,0,0,0,0,0-.1,0,0,.1-.1.2-.2,0,0,.1-.2.2-.2,0,0,0,0,0,0,0,0,.1,0,.2.1,0,0,.1,0,.2.1,0,0,.1,0,.2.1,0,0,.2.1.2.2,0,0,.2.1.3.2,0,0,.2.1.3.2,0,0,0,0,0,.1,0,0-.1.2-.2.2,0,0-.1.2-.2.2,0,0-.1.1-.2.2,0,.1-.2.2-.2.3,0,.1-.2.2-.2.3,0,0-.2.2-.2.3,0,0,0,0,0,0,0,0,.1,0,.2.1,0,0,0,0,0,0,0,0,0,0,.1,0,.1,0,.3,0,.4-.1,0,0,0,0,.1-.1,0,0,.2-.1.2-.2,0,0,.1-.1.2-.2,0,0,0,0,0,0,0,0,0,0,0,0,0,0,.1-.1.2-.2,0,0,.1-.2.2-.2,0,0,.1-.2.2-.2,0,0,0,0,0-.1,0,0,0,0,0,0,0,0,.1,0,.2,0,0,0,.1,0,.2,0,0,0,.1,0,.2,0,0,0,.1,0,.2,0,0,0,.1,0,.2.1,0,0,.1.1.2.2,0,0,0,.1,0,.2,0,0,0,0,0,0,0,0,0,0,0,0,0,0,0,.1,0,.2,0,0,0,.1,0,.2,0,0,0,.1,0,.2,0,0,0,.1-.1.2,0,0-.1.1-.2.2,0,0,0,0-.1.1,0,0,0,0-.1.1,0,0,0,0-.1.1,0,0,0,0-.1.1,0,0,0,0-.1.1,0,0,0,0-.1.1,0,0-.1.1-.2.2,0,0,0,0-.1.1,0,0,0,0,0,0,0,0,0,0,0,0,0,0,0,0-.1.1,0,0-.2.2-.2.3,0,0-.1.1-.2.2,0,0,0,0-.1.1,0,0,0,0-.1.1,0,0,0,0-.1.1,0,0,0,0,0,0,0,0,0,0,0,0,0,0,0,0-.1.1,0,0,0,0,0,.1,0,0,0,0,0,.1,0,0,0,0,0,.1,0,0,0,0,0,.1,0,0,0,0,0,.1,0,0,0,0,0,.1,0,0,0,.1,0,.1,0,0,0,0,0,0,0,0,0,0,0,0,0,0,0,0,0,0,0,0,0,0,0,0,0,0,0,0,0,0,0,0,0,0,0,0,0,0,0,0,0,0,0,0,0,0,0,0,0,0,0,0,0,0,0,0,0,0,0,0,0,0,0,0,0,0,0,0,0,0,0,0h0c0,0,0,.1,0,.2,0,0,0,.1,0,.2,0,0,0,.1,0,.2,0,0,0,.1,0,.2,0,0,0,.1,0,.2,0,0,0,.1,0,.2,0,0,0,.1,0,.2,0,0,0,.1,0,.2,0,0,0,.1,0,.2,0,0,0,.1,0,.2,0,0,0,.1,0,.2,0,0,0,.1,0,.2,0,0,0,.1,0,.2,0,0,0,.1,0,.2,0,0,0,.1,0,.2,0,0,0,.1,0,.2,0,0,0,.1,0,.2,0,0,0,.1,0,.2,0,0,0,.1,0,.2,0,0,0,.1,0,.2,0,0,0,.1,0,.2,0,0,0,.1,0,.2,0,0,0,.1,0,.2,0,0,0,.1,0,.2,0,0,0,.1,0,.2,0,0,0,.1,0,.2,0,0,0,.1,0,.2,0,0,0,.1,0,.2,0,0,0,0,0,0,0,0,.1-.1.2-.2,0,0,.2,0,.2,0,0,0,.1,0,.2,0,0,0,.1,0,.2,0,0,0,.1,0,.2.1,0,0,.1,0,.2.2,0,0,0,0,0,.1,0,0,0,.1,0,.2,0,0,0,.2,0,.2,0,0,0,.2,0,.2,0,0,0,.1-.1.2,0,0,0,0-.1.1,0,0-.1,0-.2.1,0,0-.1,0-.2.1,0,0-.1,0-.2.1,0,0,0,0,0,0,0,0,0,.2,0,.2,0,0,0,.1,0,.2,0,0,0,.1,0,.2,0,0,0,.1,0,.2,0,0,0,.1,0,.2,0,0,0,.1,0,.2,0,0,0,0,0,.1,0,0,0,0,0,.1h0s0,0,0-.1c0,0,0-.2,0-.2,0,0,0-.1.1-.2,0,0,.1,0,.2-.1,0,0,0,0,.1,0,0,0,.2,0,.2,0,0,0,.1,0,.2.1,0,0,0,.1,0,.2,0,0,0,.1,0,.2,0,0,0,.1,0,.2,0,0,0,0,0,.1,0,0-.1.1-.2.2,0,0,0,.1-.1.2,0,0,0,.1-.1.2,0,0,0,0,0,0,0,0,0,0,0,.1,0,0,0,0,0,.1,0,0,0,0,0,.1,0,0,0,0,0,.1,0,0,0,0,0,.1,0,0,0,0,0,.1,0,0,0,.1.1.2,0,0,0,.1.1.2,0,0,0,.1.1.2,0,0,0,.1.1.2,0,0,0,0,.1.1,0,0,0-.2,0-.2,0,0,0-.2,0-.2,0,0,0-.2,0-.2,0,0,0-.2,0-.2,0,0,0-.2,0-.2,0,0,0-.2,0-.2,0,0,0-.2,0-.2,0,0,0-.2,0-.2,0,0,0-.1,0-.2,0,0,0,0,.1-.1,0,0,.1,0,.2,0,0,0,.1,0,.2,0,0,0,.1,0,.2,0,0,0,0,0,.1.1,0,0,0,0,0,.1,0,0,0,.2,0,.2,0,0,0,0,0,.1,0,0-.1.1-.2.2,0,0-.1.1-.2.2,0,0,0,.1-.1.2,0,0,0,.1-.1.2,0,0,0,.1,0,.2,0,0,0,.1,0,.2,0,0,0,.1,0,.2,0,0,0,.1,0,.2,0,0,0,.2,0,.2,0,0,0,.1,0,.2,0,0,0,0,0,0,0,0,.1,0,.2.2,0,0,.1,0,.2.1,0,0,.1,0,.2,0,0,0,0,0,.1,0,0,0,0,0,.1,0,0,0,0,0,.1,0,0,0,0,0,0,0,0,0,0,0,0,0,0,0,0,.1.1.2,0,0,0,.1.1.2,0,0,0,.1.1.2,0,0,0,.1.1.2,0,0,0,.1.1.2,0,0,0,.1.1.2,0,0,0,.1.1.2,0,0,0,.1.1.2,0,0,.1.1.2.2,0,0,.1.1.2.2,0,0,.1.1.2.2,0,0,.1,0,.2.1,0,0,.1,0,.2.1,0,0,.1,0,.2.1,0,0,.1,0,.2.1,0,0,.1,0,.2.1,0,0,.1,0,.2.1,0,0,.1,0,.2.1,0,0,.2,0,.2,0,0,0,.1,0,.2,0,0,0,.2,0,.2,0,0,0,.2,0,.2,0,0,0,.2,0,.2,0,0,0,.2,0,.2,0,0,0,.1,0,.2,0s.1,0,.2,0c0,0,.1,0,.2,0,0,0,.1,0,.2,0,0,0,.1,0,.2,0,0,0,.1,0,.2,0,0,0,.1,0,.2,0,0,0,0,0,.1,0h.4c0,.1,0,.1,0,.2,0,0,.1,0,.2.1,0,0,.1,0,.2.1,0,0,.1,0,.2,0,0,0,.1,0,.2,0,0,0,.1,0,.2,0,0,0,.1,0,.2,0,0,0,.1,0,.2,0,0,0,0,0,.1,0,0,0,0,0,0,0,0,0,0-.1-.1-.2,0,0,0-.1,0-.2,0,0,0-.1,0-.2,0,0,0-.1,0-.2,0,0,0-.1,0-.2,0,0,0-.1,0-.2,0,0,0-.1,0-.2,0,0,0,0,0-.1,0,0,0,0,0,.1,0,0,0,.2.1.3,0,0,0,.2.1.3,0,0,0,.2.1.2,0,0,0,.2.2.2,0,0,.1.1.2.2,0,0,.1.1.2.2,0,0,.1.1.2.2,0,0,0,0,0,0h.2c0,0,.1,0,.2,0,0,0,.1,0,.2,0,0,0,.1,0,.2,0,0,0,.1,0,.2,0,0,0,.1,0,.2,0,0,0,.1,0,.2,0,0,0,.1,0,.2,0,0,0,.1,0,.2,0,0,0,.1,0,.2,0,0,0,.1,0,.2,0,0,0,.1,0,.2,0,0,0,.1,0,.2,0,0,0,.1,0,.2,0,0,0,.1,0,.2,0,0,0,.1,0,.2-.1,0,0,0,0,0,0l-1.1-.6s0,0,.1,0c0,0,.1,0,.2,0,0,0,.1,0,.2,0,0,0,.1,0,.2,0,0,0,.1,0,.2,0,0,0,.1,0,.2,0,0,0,.1,0,.2,0,0,0,.1,0,.2,0,0,0,0,0,.1,0,0,0,0,0,0,0,0,0,0,0-.1-.1,0,0,0,0-.1-.1,0,0,0-.1-.1-.2,0,0,0-.1,0-.2,0,0,0-.1,0-.2,0,0,0-.1,0-.2,0,0,0-.1,0-.2,0,0,0,0,0-.1,0,0,0,0,0,.1,0,0,.1.1.2.2,0,0,.1.1.2.2,0,0,.1.1.2.2,0,0,.1.1.2.2,0,0,.1.1.2.2,0,0,.1,0,.2.1,0,0,.1,0,.2.1,0,0,0,0,.1,0,0,0,.1-.1.2-.2,0,0,0-.1.1-.2,0,0,0-.2,0-.2,0,0,0,0,0-.1,0,0,0,0,0-.1,0,0,0,0,.1-.1,0,0,.1-.2.2-.3,0,0,.1-.2.2-.3,0,0,0,0,0-.1,0,0,.1-.2.2-.3,0,0,.1-.2.1-.3,0,0,0,0,0-.1,0,0,0,0,0-.1,0,0,0,0,0-.1,0,0,0,0,0-.1,0,0,0,0,0-.1,0,0,0,0,0-.1,0,0-.1,0-.2,0,0,0-.1,0-.2-.1,0,0-.1,0-.2-.1,0,0-.1,0-.2-.1l-1-.9c0,0,.1,0,.2.1,0,0,.1,0,.2.1,0,0,.1,0,.2,0,0,0,.1,0,.2,0,0,0,0,0,.1,0,0,0,.1,0,.2,0,0,0,.1,0,.2,0,0,0,.1,0,.2,0,0,0,0,0,.1,0,0,0,0-.1-.1-.2,0,0,0-.1-.1-.2,0,0,0-.1,0-.2,0,0,0-.1,0-.2,0,0,0,0,0,0,0,0,0-.1,0-.2,0,0,0-.1,0-.2,0,0,0-.1,0-.2,0,0,0,0,0-.1,0,0,0,.1,0,.2,0,0,0,.1,0,.2,0,0,0,.1,0,.2,0,0,0,.1,0,.2,0,0,0,0,0,0,0,0,0,.1,0,.2,0,0,0,0,0,.1,0,0,0,0,.1.1,0,0,0,0,0,0,0,0,0,0,0-.1,0,0,0,0,0-.1,0,0,0,0,0-.1,0,0,0,0,0-.1,0,0,0,0,0-.1,0,0,0,0,0-.1,0,0,0,0,0-.1,0,0,0-.1,0-.1v-.2c0,0,0-.1,0-.2,0,0,0-.1,0-.2,0,0,0-.1,0-.2,0,0,0-.1,0-.2,0,0,0-.1,0-.2,0,0,0-.1,0-.2,0,0,0-.1,0-.2,0,0,0-.2.1-.3,0,0,0-.1,0-.2,0,0,0-.1,0-.2,0,0-.1,0-.2,0,0,0-.1,0-.2,0,0,0-.1,0-.2,0,0,0-.1,0-.2,0,0,0-.1,0-.2,0,0,0-.1,0-.2-.1,0,0-.1,0-.2-.1,0,0-.1,0-.2-.1l-1-.9c0,0,.1,0,.2.1,0,0,.1,0,.2.1,0,0,.1,0,.2,0,0,0,.1,0,.2,0,0,0,.1,0,.2,0,0,0,.1,0,.2,0,0,0,.1,0,.2,0,0,0,.1,0,.2,0,0,0,0-.1-.1-.2,0,0,0-.1-.1-.2,0,0,0-.1,0-.2,0,0,0-.1,0-.2,0,0,0-.1,0-.2,0,0,0-.1,0-.2,0,0,0-.1,0-.2,0,0,0-.1,0-.2,0,0,0,.1,0,.2,0,0,0,.2.1.3,0,0,0,.2.1.3,0,0,.1.2.2.3,0,0,.1.2.2.2,0,0,.1.2.2.2,0,0,.1.1.2.2,0,0,.1.1.2.2,0,0,0,0,.1,0,0,0,0,0,0-.1,0,0,0,0,0-.1,0,0,0,0,0-.1,0,0,0,0,0-.1,0,0,0,0,0-.1,0,0,0,0,0-.1,0,0,0,0,0-.1,0,0,0,0,0-.1,0,0,0,0,0-.1,0,0,0,0,0-.1h0c0-.2,0-.2,0-.3,0,0,0,0,0-.1,0,0,0,0,0-.1,0,0,0,0,0-.1,0,0,0,0,0-.1,0,0,0,0,0-.1,0,0,0,0,0-.1,0,0,0,0,0-.1,0,0,0,0,0-.1,0,0,0,0,0-.1,0,0,0,0,0-.1,0,0,0,0,0-.1,0,0,0,0,0-.1,0,0,0,0,0-.1,0,0,0,0,0-.1,0,0,0,0,0-.1,0,0,0,0,0-.1,0,0,0,0,0-.1,0,0,0,0,0-.1,0,0,0,0,0-.1,0,0,0,0,0-.1,0,0,0,0,0,0,0,0,0,0,0,0,0,0,0,0,0,0,0,0,0,0,0,0,0,0,0,0,0,0,0,0,0,0,0,0,0,0,0,0,0,0,0,0,0,0,0,0,0,0,0,0,0,0,0,0,0,0,0,0,0,0,0,0,0,0,0,0,0,0,0,0,0,0,0,0,0,0,0,0,0,0,0,0,0,0,0,0,0,0,0,0,0,0,0,0,0,0,0,0-.1,0,0,0,0,0-.1,0,0,0-.1,0-.2-.1,0,0,0,0,0,0l-1-.9s0,0,0,0c0,0,0,0,0,0,0,0,.1,0,.2.1,0,0,0,0,0,0,0,0,0,0,0,0,0,0,.1,0,.2,0,0,0,.1,0,.2,0,0,0,.1,0,.2,0,0,0,.1,0,.2,0,0,0,.1,0,.2,0,0,0,0-.1-.1-.2,0,0,0-.1-.1-.2,0,0,0-.1,0-.2,0,0,0-.1,0-.2,0,0,0-.1,0-.2,0,0,0-.1,0-.2,0,0,0-.1,0-.2,0,0,0-.1,0-.2,0,0,0,.2.1.3,0,0,0,.2.1.3,0,0,0,.2.1.3,0,0,0,.2.1.2,0,0,0-.2,0-.3,0,0,0,0,0-.1,0,0,0-.2,0-.3,0,0,0,0,0-.1s0,0,0-.1c0,0,0-.2,0-.3h0c0-.2,0-.2,0-.3,0,0,0,0,0-.1,0,0,0,0,0-.1,0,0,0,0,0-.1,0,0,0,0,0-.1,0,0,0,0,0-.1h.3c0,0,.1.1.2.3,0,0,0,.2,0,.3,0,0,0,0,0,.1,0,0,0,0,0,.1,0,0,0,0,0,.1,0,0,0,0,0,.1,0,0,0,0,0,.1,0,0,0,.2,0,.2,0,0,0,.2,0,.2,0,0,0,.2,0,.2,0,0,.1,0,.2,0,0,0,0,0,0,0,0,0,0,0,0,0,0,0,0,0,0,0s0,0,0,0c0,0,0,0,0,0,0,0,0,0,0,0,0,0,0-.1,0-.2,0,0,0-.1,0-.2,0,0,0-.1,0-.2,0,0,0-.1,0-.2,0,0,0-.1,0-.2,0-.2,0-.3-.1-.5,0-.2-.1-.3-.2-.5h0c0,0-.1-.2-.1-.2l-1-.9c0,0,.1,0,.2.1,0,0,0,0,0,0,0,0,.1,0,.2,0,0,0,.1,0,.2,0,0,0,.1,0,.2,0,0,0,.1,0,.2,0,0,0,.1,0,.2,0,0,0,.1,0,.2,0,0,0,0,0,.1,0,0,0,0-.1-.1-.2,0,0,0,0,0,0,0,0,0-.1,0-.2,0,0,0-.1,0-.2,0,0,0-.1,0-.2,0,0,0-.1,0-.2,0,0,0-.1,0-.2,0,0,0-.1,0-.2,0,0,0,0,0-.1,0,0,0,.2,0,.3,0,0,0,0,0,.1,0,0,0,.2.1.2,0,0,0,.2.1.2,0,0,0,.1.1.2,0,0,.1.1.2.2,0,0,.1.1.2.2,0,0,.1.1.2.2,0,0,0,0,0,0,0,0,.1,0,.2,0,0,0,.1,0,.2,0,0,0,.1,0,.2,0,0,0,0,0,.1,0l.3.8h.2c0,0-.1.1-.1.1,0,0,0,0,0,.1,0,0,0,0,0,.1,0,0,0,0,0,.1,0,0,0,0,0,.1,0,0,0,0,0,.1,0,0,0,0,0,.1,0,0,0,0,0,.1,0,0,0,0,0,.1h0s0,0,0,0c0,0,0,0,0,0,0,0,0,0,0,0,0,0,0,0,0,0,0,0,0,0,0,0,0,0,0,0,0,0,0,0,0,0,0,0,0,0,0-.1,0-.2,0,0,0-.2,0-.3s0-.2,0-.3c0,0,0-.1,0-.2,0,0,0,0,0,0,0,0,0-.2,0-.2,0,0,0-.2,0-.2,0,0,0-.2,0-.3,0,0,0,0,0-.1l1.6-.5s0,0,0,.1c0,0,0,0,0,.1,0,0,0,0,0,.1,0,0,0,0,0,.1,0,0,0,0,0,.1,0,0,0,0,0,.1,0,0,0,0,0,.1,0,.1,0,.2.1.4,0,.2.1.3.1.5,0,0,0,.2,0,.2h0s0,0,0,0c0,0,0,0,0,0,0,0,0,0,0,0,0,0,0,0,0,0,0,0,0,0,0,0,0,0,0,0,0,0,0,0,0,0,0-.1,0,0,0,0,0,0,0-.1,0-.3,0-.4,0,0,0-.1,0-.2,0,0,0-.1,0-.2,0,0,0-.1,0-.2,0,0,0-.1,0-.2,0,0,0-.2,0-.2,0,0,0-.2,0-.2,0,0,0-.2,0-.3l1.9-.5s0,0,0,.1c0,0,0,0,0,.1,0,0,0,0,0,.1,0,0,0,0,0,.1,0,0,0,0,0,.1,0,0,0,0,0,.1,0,0,0,0,0,.1,0,.1,0,.2.1.3,0,.1,0,.3.1.4,0,0,0,.1,0,.2,0,0,0,0,0,0,0,0,0,0,0,0,0,0,0,0,0,0,0,0,0,0,0,0,0,0,0,0,0,0,0,0,0,0,0,0,0,0,0,0,0,0,0,0,0,0,0-.1,0,0,0-.2,0-.3,0,0,0-.1,0-.2,0,0,0-.1,0-.2,0,0,0,0,0,0,0,0,0-.1,0-.2,0,0,0-.1,0-.2,0,0,0-.1,0-.2,0,0,0-.2,0-.2,0,0,0,0,0-.1,0,0,0,0,.1,0,0,0,0,0,.1,0,0,0,0,0,.1,0,0,0,0,0,.1,0,0,0,0,0,.1,0,0,0,0,0,.1,0,0,0,0,0,.1,0,.1,0,.2,0,.4,0,0,0,0,0,0,0,.1,0,.3,0,.4,0,0,0,.2,0,.2,0,0,0,0,0,0,.1,0,0,0,0,0,.1,0,0,0,0,0,.1,0,0,0,0,0,.1,0,0,0,0,0,.1,0,0,0,0,0,.1,0,0,0,0,0,.1,0,.1,0,.2,0,.3,0,.1,0,.3.1.4,0,0,0,.1,0,.2h.1s0,0,0,0c0,0,0,0,0,0,0,0,0,0,0,0,0,0,0,0,0,0,0,0,0,0,0,0,0,0,0,0,0-.1,0,0,0-.1,0-.2,0-.1,0-.3,0-.4,0,0,0-.1,0-.2,0,0,0-.1,0-.2,0,0,0-.1,0-.2,0,0,0-.1,0-.2,0,0,0,0,0-.1h1.9c0,0,0,0,0,0,0,0,0,0,0,0,0,0,0,0,0,0,0,0,0,0,0,0,0,0,0,0,0,0,0,0,0,0,0,0,0,0,0,0,0,0,0,0,0,.2,0,.3,0,.1,0,.2,0,.4,0,0,0,.1,0,.2h0s0,0,0,0c0,0,0,0,0,0,0,0,0,0,0,0,0,0,0,0,0,0,0,0,0,0,0,0,0,0,0,0,0,0,0,0,0-.2,0-.3,0-.2,0-.4,0-.5,0,0,0-.2,0-.2,0,0,0,0,0,0l2.2.2s0,0,0,0c0,0,0,0,0,0,0,0,0,.1,0,.2,0,0,0,.1,0,.2,0,0,0,.1,0,.2,0,0,0,.1,0,.2,0,0,0,0,0,.1,0,0,0,.2,0,.3,0,0,0,0,0,0h0s0,0,0,0c0,0,0,0,0,0,0,0,0,0,0,0,0,0,0,0,0,0,0,0,0,0,0,0,0,0,0-.1.1-.2,0-.1,0-.3,0-.5v-.3l2,.2s0,0,0,.1c0,0,0,0,0,.1,0,0,0,0,0,.1,0,0,0,0,0,.1,0,0,0,0,0,.1,0,0,0,0,0,.1,0,0,0,0,0,.1,0,0,0,0,0,.1,0,0,0,0,0,0h0s0,0,0,0c0,0,0,0,0,0,0,0,0,0,0,0,0,0,0,0,0,0,0,0,0,0,0,0,0,0,0-.1.1-.2,0-.1,0-.3,0-.4,0,0,0-.2,0-.2l2.3.3c0,0,0,.1,0,.2,0,0,0,0,0,.1,0,0,0,0,0,.1,0,0,0,0,0,.1,0,0,0,0,0,.1h0c0,.2,0,.2,0,.3,0,0,0,0,0,.1,0,0,0,0,0,0,0,0,0,0,0,0h0s0,0,0,0c0,0,0,0,0,0,0,0,0,0,0,0,0,0,0,0,0,0,0,0,.1-.1.1-.2,0-.1.1-.3.1-.4,0,0,0-.2,0-.3l2,.4s0,0,0,0c0,0,0,0,0,0,0,0,0,.1,0,.2,0,0,0,.1,0,.2,0,0,0,.1,0,.2,0,0,0,.1,0,.2v.2c0,0,0,.2,0,.3,0,0,0,0,0,0,0,0,0,0,0,0h0s0,0,0,0c0,0,0,0,0,0,0,0,0,0,0,0,0,0,0,0,0,0,0,0,0,0,0-.1,0-.2.2-.4.2-.5,0-.1,0-.2,0-.3l1.6.3s0,0,0,0c0,0,0,0,0,0,0,0,0,0,0,0,0,0,0,0,0,0,0,0,0,0,0,0,0,0,0,0,0,0,0,0,0,0,0,0,0,0,0,.2,0,.3v.3c0,0,0,.1,0,.2,0,0,0,0,0,0,0,0,0,0,0,0s0,0,0,0c0,0,0,0,0,0,0,0,0,0,0,0,0,0,0,0,0,0,0,0,0,0,0,0,0,0,0,0,.1-.1,0,0,0-.2.1-.3,0-.2,0-.3,0-.5h0c0,0,0,0,.1,0,0,0,0,0,.1,0,0,0,0,0,.1,0,0,0,0,0,.1,0,0,0,0,0,.1,0,0,0,0,0,.1,0,0,0,0,0,.1,0,.1,0,.2,0,.4,0,0,0,.2,0,.2,0,.2,0,.3,0,.5.1,0,0,0,0,0,0,0,0,0,0,0,0,0,0,0,0,0,0,0,0,0,0,0,0,0,0,0,0,0,0,0,0,0,0,0,0,0,0,0,0,0,0,0,0,0,.2,0,.3,0,.2,0,.3,0,.5,0,0,0,0,0,0,0,0,0,0,0,0h0s0,0,0,0c0,0,0,0,0,0,0,0,0,0,0,0,0,0,0,0,0,0,0,0,.1-.1.2-.2,0,0,.1-.2.2-.3,0-.1,0-.3.1-.4,0,0,0-.1,0-.2,0,0,0,0,.1,0,0,0,0,0,.1,0,0,0,0,0,.1,0,0,0,0,0,.1,0,0,0,0,0,.1,0,0,0,0,0,.1,0,0,0,0,0,.1,0,.1,0,.2,0,.4.1.2,0,.3,0,.5.1,0,0,.2,0,.2,0,0,0,0,0,0,0,0,0,0,0,0,0,0,0,0,0,0,0,0,0,0,0,0,0,0,0,0,0,0,0,0,0,0,0,0,0,0,0,0,.1,0,.2,0,.2,0,.3-.1.5,0,0,0,0,0,.1,0,0,0,0,0,0,0,0,0,0,0,0,0,0,0,0,0,0,0,0,0,0,0,0,0,0,0,0,0,0h0s0,0,0,0c0,0,.1,0,.2,0,0,0,.2-.2.2-.3,0-.1.1-.3.2-.4,0,0,0-.2,0-.2,0,0,0,0,0,0l1.5.5s0,0,0,0c0,0,0,0,0,0,0,0,0,0,0,0,0,0,0,0,0,0,0,0,0,0,0,0,0,0,0,0,0,0,0,0,0,0,0,0,0,0,0,.1,0,.2,0,.2-.1.3-.2.4,0,0,0,0,0,0,0,0,0,0,0,0,0,0,0,0,0,0,0,0,0,0,0,0,0,0,0,0,0,0s0,0,0,0c0,0,0,0,0,0,0,0,.2,0,.2-.1,0,0,.2-.2.2-.3,0-.1.1-.2.2-.3,0,0,0-.1,0-.2,0,0,0,0,0,0,0,0,0,0,0,0,0,0,0,0,0,0,0,0,0,0,0,0,0,0,0,0,0,0,0,0,0,0,0,0,0,0,0,0,0,0,0,0,0,0,0,0,0,0,.2,0,.3.1.1,0,.2,0,.3.1,0,0,.1,0,.2,0,0,0,.1,0,.2.1,0,0,0,0,.1.1,0,0,0,0,.1.1,0,0,0,0,.1.1,0,0,0,0,0,0,0,0,0,0,0,0,0,0,0,0,0,0,0,0,0,0,0,0,0,0,0,0,0,0,0,0,0,0,0,0,0,0,0,0,0,.1,0,.1-.2.3-.2.4,0,0,0,0,0,.1,0,0,0,0,0,0,0,0,0,0,0,0,0,0,0,0,0,0,0,0,0,0,0,0,0,0,0,0,0,0,0,0,0,0,0,0,0,0,0,0,0,0,0,0,.2,0,.2-.1.1-.1.2-.2.3-.4,0,0,0-.1.1-.2,0,0,0,0,0,0,0,0,0,0,0,0,0,0,0,0,0,0,0,0,0,0,0,0,0,0,0,0,0,0,0,0,0,0,0,0,0,0,0,0,0,0,0,0,0,0,0,0,0,0,.2.2.3.2.1.1.2.2.3.3,0,0,.1,0,.2.1,0,0,0,0,0,.1,0,0,0,0,0,.1,0,0,0,0,0,.1,0,0,0,0,0,.1,0,0,0,0,0,.1,0,0,0,0,0,.1,0,0,0,0,0,0,0,0,0,0,0,0,0,0,0,0,0,0,0,0,0,0,0,0,0,0,0,0,0,0,0,0,0,0,0,0,0,0,0,0,0,0,0,0,0,0,0,0,0,0,0,0,0,0,0,0,.2,0,.3,0,.2,0,.3-.2.4-.3,0,0,.1-.1.2-.2,0,0,0,0,0,0,0,0,0,0,0,0,0,0,0,0,0,0,0,0,0,0,0,0,0,0,0,0,0,0,0,0,0,0,0,0,0,0,0,0,0,0,0,0,0,0,0,0,0,0,.2.2.2.2.1.1.2.2.3.3,0,0,0,.1.1.2,0,0,0,0,0,0,0,0,0,0,0,0,0,0,0,0,0,0,0,0,0,0,0,0,0,0,0,0,0,0,0,0,0,0,0,0,0,0,0,0,0,0,0,0,0,0,0,0,0,0,0,0,0,0,0,0,0,0,0,0,0,0,0,0,0,0,0,0,0,0,0,0,0,0,0,0,0,0,0,0,0,0,0,0,0,0,0,0,0,0,0,0,.2,0,.2,0,.1,0,.3-.1.4-.2,0,0,.1-.1.2-.2,0,0,0,0,0,.1,0,0,0,0,0,0,0,0,0,0,0,.1,0,0,0,0,0,0,0,0,0,0,0,.1,0,0,0,0,0,0,0,0,0,0,0,0,0,0,.1.2.2.3,0,.1.2.3.3.4,0,0,0,.1.1.2l-.8.5s0,0,0,0c0,0,0,0,0,0,0,0,0,0,0,0,0,0,0,0,0,0,0,0,0,0,0,0,0,0,0,0,0,0,0,0,0,0,0,0,0,0,.2,0,.2,0,.1,0,.3,0,.4,0,0,0,.2,0,.2,0,0,0,0,0,0,.1,0,0,0,0,0,.1,0,0,0,0,0,.1,0,0,0,0,0,.1,0,0,0,0,0,.1,0,0,0,0,0,.1,0,0,0,0,0,.1,0,.1,0,.2.1.4,0,.2,0,.3.1.5,0,0,0,.2,0,.2,0,0,0,0,0,0,0,0,0,0,0,0,0,0,0,0,0,0h0s0,0,0,0h-.2s0,0,0,0c0,0,0,0,0,0,0,0,0,0,0,0,0,0,0,0,0,0,0,0,0,0,0,0,0,0,0,0,0,0,0,0,0,0,0,0,0,0,0,0,0,0,0,0,0,.1.2.1.1,0,.2,0,.3.1,0,0,.1,0,.2,0,0,0,0,0,0,.1,0,0,0,0,0,.1,0,0,0,0,0,.1,0,0,0,0,0,.1,0,0,0,0,0,.1,0,0,0,0,0,.1,0,0,0,0,0,.1,0,.1,0,.2,0,.4,0,.2-.1.3-.2.5,0,0,0,0,0,0,0,0,0,.1,0,.2,0,0,0,0,0,0,0,0,0,0,0,0,0,0,0,0,0,0h0s0,0,0,0h-.2s0,0,0,0c0,0,0,0,0,.1,0,0,0,0,0,.1,0,0,0,0,0,0,0,0,0,0,0,0,0,0,0,0,0,0,0,0,0,0,0,0,0,0,0,0,0,0,0,0,0,0,.1,0,0,0,0,0,0,0,0,0,0,0,0,0,0,0,0,0,0,0,0,0,0,0,0,0,0,0,0,0,0,0,0,0,0,0,0,0,0,0,0,0,0,0,0,0-.1.2-.2.2,0,.1-.2.2-.3.3,0,0-.1.1-.2.2,0,0-.1.1-.2.2,0,0-.1.1-.2.2,0,0-.1.1-.2.2,0,0-.1.1-.2.2,0,0-.1.1-.2.2,0,0-.1.1-.2.2,0,0-.1.1-.2.2,0,0-.1.1-.2.2,0,0,0,0-.1,0,0,0,0,0-.1,0,0,0-.2.1-.2.2,0,0,0,0,0,0,0,0,0,0,0,0,0,0,0,0,0,0,0,0,0,0,0,0,0,0,0,0,0,0,0,0,0,0,0,0,0,0,0,0,0,0,0,0,0,0,0,0,0,0,0,0,0,0,0,0,0,0,0,0,0,0,0,0,0,0,0,0,0,0,0,0,0,0,0,0,0,0,0,0,0,0,0,0,0,0,0,0,0,0,0,0,0,0,0,0,0,0,0,0,0,0,0,0,0,0,0,0,0,0,0,0,0,0,0,0,0,0,0,0,0,0,0,0,0,0,0,0,0,0,0,0,0,0,0,0,0,0,0,0,0,0,0,0,0,0,0,0,0,0,0,0,0,0,0,0,0,0,0,.1,0,.2,0,0,0,.1,0,.2,0,0,0,.1,0,.2,0,0,0,.2,0,.2,0,0,0,0,0,0,0,0,0,0,0,.1,0,0,0,0,0,0,0,0,0,0,0,0,0,0,0,0,0,0,0,0,0,0,0,0,0,0,0,0,.1,0,0,0,0,0,0,0,0,0,0,0,.1,0,0,0,0,0,0,0,0,0,0,0,.1,0,0,0,.1,0,.2-.1,0,0,0,0,.1-.1,0,0,0,0,.1-.1,0,0,0,0,0,.1,0,0,0,0,0,0,0,0,0,0,0,0,0,0,0,0,0,0,0,0,0,0,0,0,0,0,0,0,0,0,0,0,0,.1,0,.1,0,0,0,.2-.1.3,0,0,0,0,0,.1,0,0,0,0-.1.1,0,0,0,0,0,0,0,0,0,0-.1,0,0,0-.1,0-.2,0,0,0,0,0,0,0,0,0-.1,0-.2,0,0,0,0,.1,0,.2,0,0,0,0,0,.1,0,0,0,.2,0,.3,0,0,0,.2,0,.3,0,0,0,.2,0,.2,0,0,0,.2,0,.2,0,0,0,0,0,.1,0,0,0,0,0,0,0,0,0,0,0,.1,0,0,0,0,0,0,0,0,0,0,0,0,0,0,0,0,0,0,0,0,0,.1.1.2,0,0,0,0,.1.1,0,0,0,0,.1.1,0,0,.1,0,.2.1,0,0,.1,0,.2,0,0,0,.1,0,.2,0,0,0,.1,0,.2,0,0,0,.1,0,.2,0,0,0,0,0,0,.1,0,0,0,0-.1.1,0,0,0,0-.1,0,0,0-.1,0-.2,0,0,0-.1,0-.2,0,0,0-.2,0-.2,0,0,0-.2,0-.3,0,0,0-.2,0-.3,0,0,0,0,0,0,0,0,0,0,0,0,0,0,0,0,0,0,0,0,0,0,0,0,0,0,0,0,0,0,0,0,0,0,0,0,0,0,0,0,0,.1,0,0,0,0,0,0,0,0,0,0,0,0,0,0,0,.1,0,.2,0,0,0,.1,0,.2,0,0,0,.1,0,.2,0,0,0,0,0,0,0,0,0,0,0,0,0,0,0,.1,0,.2,0,0,0,0,0,0,0,0,0,0,0,0,0,0,0,.1,0,.2,0,0,0,0,0,0,0,0,0,0,0,0,0,0,0,.1,0,.2,0h.2s0,0,0,0c0,0,0,0,0,0,0,0,0,0,0,0,0,0,0,0,0,0,0,0,.1,0,.2,0,0,0,.1,0,.2,0,0,0,.1,0,.2,0,0,0,.1,0,.2,0,0,0,0,0,0,0,0,0,0,0,0,0,0,0,0,0,0,0,0,0,0,0,0,0,0,0,0,0,0,0,0,0,0,0,0,0,0,0,.1,0,.2,0,0,0,.1,0,.2,0,0,0,.1,0,.2,0,0,0,.1,0,.2,0,0,0,.1,0,.2,0,0,0,.1,0,.2,0,0,0,.1,0,.2,0,0,0,.1,0,.2-.1,0,0,0,.1,0,.2,0,0,0,.1,0,.2s0,.1,0,.2c0,0,0,0-.1.1,0,0,0,0-.1.1,0,0-.1,0-.2.1,0,0-.1,0-.2.1,0,0-.2,0-.3.1,0,0,0,0,.1,0,0,0,0,0,.1,0,0,0,0,0,.1,0,0,0,0,0,.1,0,0,0,0,0,.1,0,0,0,.2,0,.3,0,0,0,.2,0,.3,0,0,0,.2,0,.3-.1,0,0,.2,0,.3-.1,0,0,0,0,.1,0,0,0,0,0,.1,0,0,0,0,0,.1,0,0,0,0,0,.1,0,0,0,0,0,.1,0,0,0,0,0,.1,0,0,0,.2-.1.2-.2,0,0,.2-.1.2-.2,0,0,.2-.1.2-.2,0,0,.2-.1.2-.2,0,0,.1-.1.2-.2,0,0,.1-.1.2-.2,0,0,0,0,.1-.1,0,0,0,0,.1-.1,0,0,0,.2,0,.3,0,0,0,.2,0,.2,0,0,0,.2,0,.2,0,0,0,.1,0,.2,0,0,0,.1-.1.2,0,0-.1.1-.2.2,0,0-.1,0-.2.1,0,0-.2,0-.3.1,0,0,.1,0,.2,0,0,0,.1,0,.2,0,0,0,.1,0,.2,0,0,0,0,0,.1,0,0,0,.1,0,.2,0,0,0,0,0,.1,0,0,0,.1,0,.2,0,0,0,0,0,.1,0,0,0,.1,0,.2,0,0,0,0,0,.1,0,0,0,0,0,.1,0,0,0,0,0,.1,0s0,0,.1,0c0,0,0,0,.1,0,0,0,0,0,.1,0,0,0,.2,0,.3-.1,0,0,.2,0,.3-.2,0,0,0,0,.1,0,0,0,0,0,.1,0,0,0,0,0,0,0,0,0,0,0,0,0,0,0,0,0,0,0,0,0,0,0,0,0,0,0,0,0,0,0,0,0,0,0,0,0,0,0,0,0,.1,0,0,0,0,0,.1-.1,0,0,0,0,.1,0,0,0,0,0,.1-.1,0,0,0,0,.1-.1,0,0,0,0,.1-.1,0,0,0,0,.1-.1,0,0,0,0,.1-.1,0,0,.1.1.2.2,0,0,0,0,.1.2,0,0,0,.1,0,.2,0,0,0,.1,0,.2s0,.1,0,.2c0,0,0,.1,0,.2,0,0,0,.1-.1.2,0,0-.1.1-.2.2,0,0,0,0,.1,0,0,0,0,0,.1,0,0,0,0,0,.1,0,0,0,0,0,.1,0,0,0,0,0,.1,0,0,0,0,0,.1,0,0,0,.1,0,.2-.1,0,0,.1,0,.2-.1,0,0,.1-.1.2-.2,0,0,.1-.1.2-.2,0,0,0,0,.1,0,0,0,0,0,.1,0,0,0,0,0,.1,0,0,0,0,0,.1,0,0,0,0,0,0-.1,0,0,0,0,0-.1,0,0,.1-.1.2-.2,0,0,.1-.2.2-.2,0,0,.1-.2.2-.2,0,0,.1-.2.2-.3,0,0,.1-.2.2-.3,0,0,0,0,0-.1,0,0,0,0,0-.1,0,0,0,0,0-.1,0,0,0,.1,0,.2,0,0,0,.2,0,.2,0,0,0,.1,0,.2,0,0,0,0,0,.1,0,0,0,0,0,.1,0,0,0,0,0,0,0,0,0,0,0,0,0,0,0,0,0,0,0,0,0,0,0,0,0,0,0,0,0,0,0,0,0,0,0,0,0,0,0,0,0,0,0,0,0,0,0,0,0,0,0,0,.1-.1,0,0,0,0,0-.1,0,0,0-.1,0-.2,0,0,0-.1,0-.2,0,0,0,0,0,0,0,0,0,0,0,0,0,0,0,0,0,0,0,0,0,0,0,0,0,0,0,0,0,0,0,0,0,0,0,0,0,0,0-.1,0-.2,0,0,0-.1,0-.2,0,0,0-.1,0-.2,0,0,0-.1,0-.2,0,0,0-.1,0-.2,0,0,0-.2,0-.2,0,0,0-.2,0-.2,0,0,0-.2,0-.2,0,0,0,0,0,.1,0,0,0,.1,0,.2,0,0,0,.1,0,.2,0,0,0,0,0,0,0,0,0,0,0,.1,0,0,0,0,0,.1,0,0,0,0,0,.1,0,0,0,0,0,0,0,0,0,0,0,0,0,0,0,0,0,0,0,0,0,0,0,0,0,0,0,0,0,0,0,0,0,0,0,0,0,0,0,0,0,0,0,0,0,0,0,0,0,0,0,0,0,0,0,0,0,0,0,0,0,0,0,0,0-.1,0,0,0-.1,0-.2,0,0,0-.1,0-.2,0,0,0-.1,0-.2,0,0,0-.1,0-.2,0,0,0-.1,0-.2s0-.1,0-.2c0,0,0-.1,0-.2s0-.1,0-.2c0,0,0-.1,0-.2,0,0,0-.1,0-.2,0,0,0,0,0,0,0,0,0,0,0,0,0,0,0-.1,0-.2,0,0,0,0,0,0,0,0,0,0,0,0,0,0,0,0,0,0,0,0,0,0,0,0,0,0,0,0,0,0,0,0,0,0,0,0,0,0,0,0,0,0,0,0,0,0,0,0,0,0,0-.1,0-.2,0,0,0-.1,0-.2,0,0,0-.1,0-.2,0,0,0-.1,0-.2,0,0,0,0,0,0,0,0,0,0,0,0,0,0,0,0,0,0,0,0,0,0,0,0,0,0,0,0,0,0,0,0,0,0,0,0,0,0,0-.1,0-.2,0,0,0-.1,0-.2,0,0,0-.1,0-.2,0,0,0-.1,0-.2,0,0,0-.1,0-.2,0,0,0-.1,0-.2,0,0,0-.1,0-.2,0,0,0-.1,0-.2,0,0,0,0,0,0,0,0,0,0,0,0,0,0,0,0,0,0,0,0,0,.1.1.2,0,0,0,0,.1.1,0,0,0,.1.1.2,0,0,.1.2.2.2,0,0,0,.1.1.2,0,0,0,0,.1.1,0,0,0,0,0,0,0,0,0,0,0,0,0,0,0,0,0,0,0,0,0,0,0,0,0,0,0,0,0,0,0,0,0,0,0,0,0,0,0,0,0,0,0,0,0,0,0,0,0,0,0,0,0,0,0,0,0,0,0,0,0,0,0,0,0,0,0,0,0,0,0,0,0,0,0,0,0,0,0,0,0,0,0,0,0,0,0,0,0,0,0,0,0,0,0,0,0,0,0,0,0,0,0,0,0,0,0,0,0,0,0,0,0,0,0,0,0-.1,0-.2,0,0,0-.1,0-.2,0,0,0-.1,0-.2,0,0,0-.1,0-.2,0,0,0,0,0,0,0,0,0,0,0,0,0,0,0-.1,0-.1,0,0,0-.1,0-.1,0,0,0,0,0-.1,0,0,0,0,0-.1,0,0,0-.2-.1-.3,0,0,0-.2-.1-.3,0,0,0-.2-.1-.2,0,0,0-.2-.1-.2,0,0-.1-.1-.2-.2,0,0-.1-.1-.2-.2,0,0-.1-.1-.2-.2,0,0-.1-.1-.2-.2,0,0,0,0,.1,0,0,0,.1,0,.2.1,0,0,.1,0,.2,0,0,0,0,0,.1,0,0,0,0,0,.1,0,0,0,0,0,0,0,0,0,0,0,0,0h0s0,0,0,0c0,0,0,0,0,0,0,0,0,0,0-.1,0,0,0,0,0-.1,0,0,0-.2,0-.2,0,0,0-.2,0-.2,0,0,0-.2-.1-.2,0,0,0-.2-.1-.2,0,0,0,0,0-.1,0,0,0,0,0-.1,0,0,0,0,0,0,0,0,0,0,0-.1,0,0,0,0,0,0,0,0,0,0,0,0,0,0-.1-.1-.2-.2,0,0-.1-.1-.2-.2,0,0-.1-.1-.2-.2,0,0-.1-.1-.2-.2,0,0-.2-.1-.2-.2,0,0-.2-.1-.2-.2,0,0-.2-.1-.3-.1,0,0-.2,0-.3-.1,0,0,0,0,0,0,0,0,0-.1,0-.2,0,0,0,0,0-.1,0,0,0-.1,0-.2,0,0,0,0,0-.1,0,0,0,0,0-.1,0,0,0-.1-.1-.2,0,0,0,0,0,0,0,0,0,0,0,0,0,0,0,0,0,0,0,0,0,0,0,0,0,0,0,0,0,0,0,0,0,0,0,0,0,0,0,0,0,0,0,0,0,0,0,0,0,0,0,0,0,0,0,0,0,0,0,0,0,0,0,0,0,0,0,0,0,0,0,0,0,0,0,0,0,0,0,0,0,0,0,0,0,0,0,0,0,0,0,0,0,0,0,0,0,0,0,0,0,0,0,0,0,0,0,0,0,0,0,0,0,0,0,0,0,0,0,0,0,0,0,0,0,0,0,0,0,0,0,0,0,0,0,0,0,0,0,0,0,0,0,0,0,0,0,0,0,0,0,0,0,0,0,0,0,0,0,0,0,0,0,0,0,0,0,0,0,0,0,0,0,0,0,0,0,0,0,0,0,0,0,0,0,0,0,0,0,0,0,0,0,0,0,0,0,0,0,0,0,0,0,0,0,0,0,0,0,0,0,0,0,0,0,0,0,0,0,0-.1,0,0,0,0,0,0,0,0,0,0,0-.1,0,0,0,0,0-.1,0,0,0,0,0-.1,0,0,0,0,0-.1,0,0,0,0,0-.1,0,0,0,0,0-.1,0,0,0,0,0-.1,0,0,0,0,0-.1,0,0,0,0,0-.1,0,0,0,0,0-.1,0,0,0,0,0-.1,0,0,0,0,0-.1,0,0,0,0,0-.1,0,0,0,0,0-.1,0,0,0,0,0-.1,0,0,0,0,0-.1,0,0,0,0,0-.1,0,0,0,0,0,0,0,0,0,0,0,0,0,0,0,0,0-.1,0,0,0,0,0-.1,0,0,0,0,0-.1,0,0,0,0,0-.1,0,0,0,0,0-.1,0,0,0,0,0-.1,0,0,0,0,0-.1,0,0,0,0,0-.1,0,0,0,0,0-.1,0,0,0,0,0-.1,0,0,0,0,0-.1,0,0,0,0,0-.1,0,0,0,0,0-.1,0,0,0,0,0-.1,0,0,0,0,0-.1,0,0,0,0,0-.1,0,0,0,0,0-.1,0,0,0-.1,0-.2,0,0,0-.1,0-.2,0,0,0-.1,0-.2,0,0,0-.1,0-.2,0,0,0-.1,0-.2,0,0,0-.1,0-.2,0,0,0-.1,0-.2,0,0,0-.1,0-.2,0,0,0-.1,0-.2,0,0,0-.1,0-.2,0,0,0-.1,0-.2,0,0,0-.1,0-.2,0,0,0-.1,0-.2,0,0,0-.1,0-.2,0,0,0-.1,0-.2,0,0,0-.1,0-.2,0,0,0-.1,0-.2,0,0,0-.1,0-.2,0,0,0-.1,0-.2,0,0,0-.1,0-.2,0,0,0-.1,0-.2,0,0,0-.1,0-.2,0,0,0-.1,0-.2,0,0,0-.1,0-.2,0,0,0-.1,0-.2,0,0,0-.1,0-.2,0,0,0-.1,0-.2,0,0,0-.1,0-.2,0,0,0-.1,0-.2,0,0,0-.1,0-.2,0,0,0-.1,0-.2,0,0,0-.1,0-.2,0,0,0-.1,0-.2,0,0,0-.1,0-.2,0,0,0-.1,0-.2,0,0,0-.1,0-.2,0,0,0-.1,0-.2,0,0,0-.1,0-.2,0,0,0-.1,0-.2,0s-.1,0-.2,0c0,0-.1,0-.2,0,0,0-.1,0-.2,0,0,0-.1,0-.2,0,0,0-.1,0-.2,0,0,0-.1,0-.2,0,0,0-.1,0-.2,0,0,0-.1,0-.2,0,0,0-.1,0-.2,0,0,0-.1,0-.2,0,0,0-.1,0-.2,0ZM67.3,44.8l-.8-.4c.4.2.8.2,1.1,0-.3-.2-.5-.5-.5-.9.4.7,1,1.1,1.9,1.2-.6.4-1.1.4-1.7.2ZM71.1,47.3c-.3-.2-.5-.5-.5-.9.4.7,1,1.1,1.9,1.2-.6.4-1.1.4-1.7.2l-.8-.4c.4.2.8.2,1.1,0ZM74.9,47.5c-.3-.2-.5-.5-.5-.9.4.7,1,1.1,1.9,1.2-.6.4-1.1.4-1.7.2l-.8-.4c.4.2.8.2,1.1,0ZM56.2,41.4c.5.4,1,.7,1.6.7.2,0,.3,0,.5,0-.1.2-.3.3-.5.4-.3.2-.7.3-1.1.2l-.9-.2c.4,0,.8,0,1.1-.3-.3-.1-.6-.4-.7-.7ZM62.6,44.6c-.3-.1-.6-.4-.7-.7.6.5,1.3.8,2.1.6-.4.5-1,.7-1.6.6l-.9-.2c.4,0,.8,0,1.1-.3ZM76.6,51.2c0-.4,0-.7.3-1-.2.8,0,1.5.5,2.1-.7-.1-1.1-.5-1.3-1.1l-.3-.9c.2.4.4.7.8.8ZM84,55.3c0-.4,0-.7.3-1-.2.8,0,1.5.5,2.1-.7-.1-1.1-.5-1.3-1.1l-.3-.9c.2.4.4.7.8.8ZM80.2,52.2c0-.4,0-.7.3-1-.2.7,0,1.4.4,2,0,0,0,.1.1.1,0,0,0,0-.1,0-.6-.1-1-.5-1.2-1.1l-.3-.9c.2.4.4.7.8.8ZM78.9,55.3c0-.4,0-.7.3-1-.2.8,0,1.5.5,2.1-.7-.1-1.1-.5-1.3-1.1l-.3-.9c.2.4.4.7.8.8ZM81.5,57.7c.2.4.4.7.8.8,0-.4,0-.7.3-1-.2.8,0,1.5.5,2.1-.7-.1-1.1-.5-1.3-1.1l-.3-.9ZM79.2,60.1s0,0,0,.1c0,.4,0,.7.3,1,.1-.3.4-.6.7-.7-.5.6-.8,1.3-.6,2.1-.5-.4-.7-1-.6-1.6l.2-.9ZM82.8,62.3l.2-.9c0,.4,0,.8.3,1.1.1-.3.4-.6.7-.7-.5.6-.8,1.3-.6,2.1-.5-.4-.7-1-.6-1.6ZM87,61.1c-.5-.4-.7-1-.6-1.6l.2-.9c0,.4,0,.8.3,1.1.1-.3.4-.6.7-.7-.5.6-.8,1.3-.6,2.1ZM87.3,63.7c0,.4,0,.8.3,1.1.1-.3.4-.6.7-.7-.5.6-.8,1.3-.6,2.1-.5-.4-.7-1-.6-1.6l.2-.9ZM82.6,67.1c.2-.3.5-.5.9-.5-.7.4-1.1,1-1.2,1.9-.4-.6-.4-1.1-.2-1.7l.4-.8c-.2.4-.2.8,0,1.1ZM76.9,63.8c-.3.2-.5.6-.6,1,.3-.2.7-.2,1,0-.8,0-1.4.4-1.9,1,0-.7.2-1.2.7-1.5l.8-.5ZM15.9,19.5c0,0,0-.1,0-.2,0,0,0,.2.1.3,0,0,0,0,0,.1,0,0,0,0,0,.1,0,0,0,0,0,.1,0,0,0,0,0,.1,0,0,0,0,0,.1,0,0,0,0,0,.1,0,0,0,0,.1.1,0,0,0,0,.1,0,0,0,0,0,.1,0,0,0,0,0,.1,0,0,0,0,0,.1,0,0,0,0,0,.1,0,0,0,0,0,.1,0,0,0,0,0,.1,0,0,0-.2,0-.2,0,0,0,0,0-.1,0,0,0,0,0-.1,0,0,0,0,0-.1,0,0,0,0,0-.1,0s0,0-.1,0c0,0,0,0-.1,0,0,0,0,0-.1,0,0,0,0,0-.1,0,0,0,0,0-.1,0,0,0,0,0-.1,0,0,0,0,0-.1,0,0,0,0,0,0,0,0,0,0,0-.1,0,0,0,0,0-.1,0l-.7-.7s0,0,.1,0c0,0,0,0,.1,0,0,0,0,0,.1,0,0,0,0,0,.1,0,0,0,0,0,.1,0,0,0,.1,0,.2,0,0,0,.1,0,.2,0,0,0,.1,0,.2,0,0,0-.1-.2-.2-.2,0,0,0,0,0-.1,0,0,0,0,0-.1,0,0,0,0,0-.1,0,0,0,0,0-.1,0,0,0,0,0-.1ZM15,28.2c0,0,0-.1,0-.2,0,0,0,.2.1.3,0,0,0,0,0,.1,0,0,0,0,0,.1,0,0,0,0,0,.1,0,0,0,0,0,.1,0,0,0,0,0,.1,0,0,0,0,0,.1,0,0,0,0,.1.1,0,0,0,0,.1,0,0,0,0,0,.1,0,0,0,0,0,.1,0,0,0,0,0,.1,0,0,0,0,0,.1,0,0,0,0,0,.1,0,0,0,0,0,.1,0,0,0-.2,0-.2,0,0,0,0,0-.1,0,0,0,0,0-.1,0,0,0,0,0-.1,0,0,0,0,0-.1,0s0,0-.1,0c0,0,0,0-.1,0,0,0,0,0-.1,0,0,0,0,0-.1,0,0,0,0,0-.1,0,0,0,0,0-.1,0,0,0,0,0-.1,0,0,0,0,0,0,0,0,0,0,0-.1,0,0,0,0,0-.1,0l-.7-.7s0,0,.1,0c0,0,0,0,.1,0,0,0,0,0,.1,0,0,0,0,0,.1,0,0,0,0,0,.1,0,0,0,.1,0,.2,0,0,0,.1,0,.2,0,0,0,.1,0,.2,0,0,0-.1-.2-.2-.2,0,0,0,0,0-.1,0,0,0,0,0-.1,0,0,0,0,0-.1,0,0,0,0,0-.1,0,0,0,0,0-.1ZM14.8,35.3c0,0,.1,0,.2,0,0,0,.1,0,.2,0,0,0,.1,0,.2,0,0,0,.1,0,.2,0,0,0,0-.1-.1-.2,0,0,0-.1,0-.2,0,0,0-.1,0-.2,0,0,0-.1,0-.2,0,0,0-.1,0-.2,0,0,0-.1,0-.2,0,0,0-.1,0-.2,0,0,0-.1,0-.2,0,0,0,.1,0,.2,0,0,0,.1,0,.2,0,0,0,.1,0,.2,0,0,0,.1,0,.2,0,0,0,.1.1.2,0,0,0,.1.1.2,0,0,0,.1.1.2,0,0,0,.1.1.2,0,0,0,0,.1.1,0,0,0,0,.2.1,0,0,.1,0,.2.1,0,0,.1,0,.2.1,0,0,.1,0,.2.1,0,0,.1,0,.2.1,0,0,.1,0,.2,0,0,0,.1,0,.2,0,0,0-.1,0-.2,0,0,0-.1,0-.2,0,0,0-.1,0-.2,0,0,0-.1,0-.2,0,0,0-.2,0-.2,0,0,0-.2,0-.2,0-.1,0-.2,0-.3,0-.1,0-.2,0-.3,0,0,0-.1,0-.2,0,0,0-.1,0-.2-.1,0,0,0,0-.1,0,0,0,0,0-.1-.1,0,0,0,0,0,0l-1-.9c0,0,.1,0,.2.1,0,0,.1,0,.2.1,0,0,.1,0,.2,0,0,0,.1,0,.2,0ZM33.7,41l-1-.9c0,0,.1,0,.2.1,0,0,.1,0,.2.1,0,0,.1,0,.2,0,0,0,.1,0,.2,0,0,0,.1,0,.2,0,0,0,.1,0,.2,0,0,0,.1,0,.2,0,0,0,.1,0,.2,0,0,0,0-.1-.1-.2,0,0,0-.1,0-.2,0,0,0-.1,0-.2,0,0,0-.1,0-.2,0,0,0-.1,0-.2,0,0,0-.1,0-.2,0,0,0-.1,0-.2,0,0,0-.1,0-.2,0,0,0,.1,0,.2,0,0,0,.1,0,.2,0,0,0,.1,0,.2,0,0,0,.1,0,.2,0,0,0,.1.1.2,0,0,0,.1.1.2,0,0,0,.1.1.2,0,0,0,.1.1.1,0,0,0,0,.1.1,0,0,0,0,.2.1,0,0,.1,0,.2.1,0,0,.1,0,.2.1,0,0,.1,0,.2.1,0,0,.1,0,.2.1,0,0,.1,0,.2.1,0,0,.1,0,.2,0,0,0-.1,0-.2,0,0,0-.1,0-.2,0,0,0-.1,0-.2,0,0,0-.1,0-.2,0,0,0-.2,0-.2,0,0,0-.2,0-.2,0-.1,0-.2,0-.3,0-.1,0-.2,0-.3,0,0,0-.1,0-.2,0,0,0-.1,0-.2-.1,0,0,0,0-.1,0,0,0,0,0-.1-.1,0,0,0,0,0,0ZM25.9,38.9c0,0,.1,0,.2,0,0,0,.1,0,.2,0,0,0,.1,0,.2,0,0,0,.1,0,.2,0,0,0,.1,0,.2,0,0,0,.1,0,.2,0,0,0,.1,0,.2,0,0,0,0,0-.1.1,0,0,0,0-.1.1,0,0,0,0-.1.1,0,0,0,0-.1.1,0,0,0,0-.1,0,0,0,0,0-.1,0,0,0-.2,0-.3.1,0,0-.2,0-.3,0-.1,0-.2,0-.3,0,0,0-.2,0-.2,0,0,0-.1,0-.2,0,0,0-.1,0-.2,0,0,0,0,0,0,0l-1.3-.3c0,0,.2,0,.2,0,0,0,.1,0,.2,0,0,0,.1,0,.2,0,0,0,.1,0,.2,0,0,0,.1,0,.2,0,0,0,.1,0,.2,0,0,0,.1,0,.2-.1,0,0,.1,0,.2-.1,0,0-.1,0-.2,0,0,0-.1,0-.2,0,0,0-.1,0-.2-.1,0,0,0,0-.1-.1,0,0,0,0-.1-.1,0,0,0-.1-.1-.2,0,0,0-.1,0-.2,0,0,0-.1,0-.2,0,0,.1,0,.2.1,0,0,.1,0,.2.1,0,0,.1,0,.2.1,0,0,.1,0,.2.1,0,0,.1,0,.2.1,0,0,.1,0,.2,0,0,0,.1,0,.2,0,0,0,.1,0,.2,0,0,0,.1,0,.2,0ZM28.1,43.5c0,0,0-.1,0-.2,0,0,0-.1,0-.2,0,0,0,.1,0,.2,0,0,0,.1,0,.2,0,0,0,.1,0,.2,0,0,0,.1,0,.2,0,0,0,.1.1.2,0,0,0,.1.1.2,0,0,0,.1.1.2,0,0,0,.1.1.2,0,0,0,0,.1.1,0,0,0,0,.2.1,0,0,.1,0,.2.1,0,0,.1,0,.2.1,0,0,.1,0,.2.1,0,0,.1,0,.2.1,0,0,.1,0,.2,0,0,0,.1,0,.2,0,0,0-.1,0-.2,0,0,0-.1,0-.2,0,0,0-.1,0-.2,0,0,0-.1,0-.2,0,0,0-.2,0-.2,0,0,0-.2,0-.2,0-.1,0-.2,0-.3,0-.1,0-.2,0-.3,0,0,0-.1,0-.2,0,0,0-.1,0-.2-.1,0,0,0,0-.1,0,0,0,0,0-.1-.1,0,0,0,0,0,0l-1-.9c0,0,.1,0,.2.1,0,0,.1,0,.2.1,0,0,.1,0,.2,0,0,0,.1,0,.2,0,0,0,.1,0,.2,0,0,0,.1,0,.2,0,0,0,.1,0,.2,0,0,0,.1,0,.2,0,0,0,0-.1-.1-.2,0,0,0-.1,0-.2,0,0,0-.1,0-.2,0,0,0-.1,0-.2,0,0,0-.1,0-.2,0,0,0-.1,0-.2ZM24.4,45.9c0,0,.1,0,.2,0,0,0-.1,0-.2.1,0,0-.1,0-.2,0,0,0-.1,0-.2,0,0,0-.1,0-.2,0,0,0-.1,0-.2,0,0,0-.1,0-.2,0-.1,0-.2,0-.3,0-.1,0-.2,0-.3,0-.1,0-.2,0-.3,0,0,0-.2,0-.2,0,0,0-.1,0-.2,0,0,0-.1,0-.2,0,0,0,0,0,0,0l-1.2-.6c0,0,.1,0,.2,0,0,0,.1,0,.2,0,0,0,.1,0,.2,0,0,0,.1,0,.2,0,0,0,.1,0,.2,0,0,0,.1,0,.2,0,0,0,.1,0,.2,0,0,0,.1,0,.2,0,0,0-.1,0-.2-.1,0,0,0,0-.1-.1,0,0,0,0-.1-.1,0,0,0-.1-.1-.2,0,0,0-.1,0-.2,0,0,0-.1,0-.2,0,0,0-.1,0-.2,0,0,0-.1,0-.2,0,0,0,.1.1.2,0,0,0,.1.1.2,0,0,0,.1.1.2,0,0,0,.1.1.1,0,0,0,.1.1.1,0,0,.1,0,.2.1,0,0,.1,0,.2.1,0,0,.1,0,.2.1,0,0,.1,0,.2.1,0,0,.1,0,.2,0,0,0,.1,0,.2,0,0,0,.1,0,.2,0,0,0,.1,0,.2,0,0,0,.1,0,.2,0,0,0,.1,0,.2,0ZM18.9,38.3c0,0,0,.1,0,.2,0,0,0,.1,0,.2,0,0,0,.1,0,.2,0,0,0,.1.1.2,0,0,0,.1.1.2,0,0,0,.1.1.2,0,0,0,.1.1.2,0,0,0,0,.1.1,0,0,0,0,.2.1,0,0,.1,0,.2.1,0,0,.1,0,.2.1,0,0,.1,0,.2.1,0,0,.1,0,.2.1,0,0,.1,0,.2,0,0,0,.1,0,.2,0,0,0-.1,0-.2,0,0,0-.1,0-.2,0,0,0-.1,0-.2,0,0,0-.1,0-.2,0,0,0-.2,0-.2,0,0,0-.2,0-.2,0-.1,0-.2,0-.3,0-.1,0-.2,0-.3,0,0,0-.1,0-.2,0,0,0-.1,0-.2-.1,0,0,0,0-.1,0,0,0,0,0-.1-.1,0,0,0,0,0,0l-1-.9c0,0,.1,0,.2.1,0,0,.1,0,.2.1,0,0,.1,0,.2,0,0,0,.1,0,.2,0,0,0,.1,0,.2,0,0,0,.1,0,.2,0,0,0,.1,0,.2,0,0,0,.1,0,.2,0,0,0,0-.1-.1-.2,0,0,0-.1-.1-.2,0,0,0-.1,0-.2,0,0,0-.1,0-.2,0,0,0-.1,0-.2,0,0,0-.1,0-.2,0,0,0-.1,0-.2,0,0,0-.1,0-.2,0,0,0,.1,0,.2ZM18.9,48.9c0,0,0,.1,0,.2,0,0,0,.1.1.2,0,0,0,.1.1.2,0,0,0,.1.1.2,0,0,0,.1.1.1,0,0,0,.1.1.1,0,0,.1,0,.2.1,0,0,.1,0,.2.1,0,0,.1,0,.2.1,0,0,.1,0,.2.1,0,0,.1,0,.2.1,0,0,.1,0,.2,0,0,0,.1,0,.2,0,0,0-.1,0-.2,0,0,0-.1,0-.2,0,0,0-.1,0-.2,0,0,0-.1,0-.2,0,0,0-.2,0-.2,0,0,0-.2,0-.2,0-.1,0-.2,0-.3,0-.1,0-.2,0-.3,0,0,0-.1,0-.2,0,0,0-.1,0-.2-.1,0,0,0,0-.1,0,0,0,0,0-.1-.1,0,0,0,0,0,0l-1-.9c0,0,.1,0,.2.1,0,0,.1,0,.2.1,0,0,.1,0,.2,0,0,0,.1,0,.2,0,0,0,.1,0,.2,0,0,0,.1,0,.2,0,0,0,.1,0,.2,0,0,0,.1,0,.2,0,0,0,0-.1-.1-.2,0,0,0-.1,0-.2,0,0,0-.1,0-.2,0,0,0-.1,0-.2,0,0,0-.1,0-.2,0,0,0-.1,0-.2,0,0,0-.1,0-.2,0,0,0-.1,0-.2,0,0,0,.1,0,.2,0,0,0,.1,0,.2,0,0,0,.1,0,.2ZM18,53.3c0,0,0-.1,0-.2,0,0,0-.1,0-.2,0,0,0,.1,0,.2,0,0,0,.1,0,.2,0,0,0,.1,0,.2,0,0,0,.1,0,.2,0,0,0,.1.1.2,0,0,0,.1.1.2,0,0,0,.1.1.2,0,0,0,.1.1.1,0,0,0,.1.1.1,0,0,.1,0,.2.1,0,0,.1,0,.2.1,0,0,.1,0,.2.1,0,0,.1,0,.2.1,0,0,.1,0,.2.1,0,0,.1,0,.2,0,0,0,.1,0,.2,0,0,0-.1,0-.2,0,0,0-.1,0-.2,0,0,0-.1,0-.2,0,0,0-.1,0-.2,0,0,0-.2,0-.2,0,0,0-.2,0-.2,0-.1,0-.2,0-.3,0-.1,0-.2,0-.3,0,0,0-.1,0-.1,0,0,0-.1,0-.2-.1,0,0,0,0-.1,0,0,0,0,0-.1-.1,0,0,0,0,0,0l-1-.9c0,0,.1,0,.2.1,0,0,.1,0,.2.1,0,0,.1,0,.2,0,0,0,.1,0,.2,0,0,0,.1,0,.2,0,0,0,.1,0,.2,0,0,0,.1,0,.2,0,0,0,.1,0,.2,0,0,0,0-.1-.1-.2,0,0,0-.1,0-.2,0,0,0-.1,0-.2,0,0,0-.1,0-.2,0,0,0-.1,0-.2,0,0,0-.1,0-.2ZM20.2,59.6c0,0,0,.1,0,.2,0,0,0,.1.1.2,0,0,0,.1.1.2,0,0,0,.1.1.2,0,0,0,.1.1.2,0,0,0,0,.1.1,0,0,0,0,.2.1,0,0,.1,0,.2.1,0,0,.1,0,.2.1,0,0,.1,0,.2.1,0,0,.1,0,.2.1,0,0,.1,0,.2,0,0,0,.1,0,.2,0,0,0-.1,0-.2,0,0,0-.1,0-.2,0,0,0-.1,0-.2,0,0,0-.1,0-.2,0,0,0-.2,0-.2,0,0,0-.2,0-.2,0-.1,0-.2,0-.3,0-.1,0-.2,0-.3,0,0,0-.1,0-.1,0,0,0-.1,0-.2-.1,0,0,0,0-.1,0,0,0,0,0-.1-.1,0,0,0,0,0,0l-1-.9c0,0,.1,0,.2.1,0,0,.1,0,.2.1,0,0,.1,0,.2,0,0,0,.1,0,.2,0,0,0,.1,0,.2,0,0,0,.1,0,.2,0,0,0,.1,0,.2,0,0,0,.1,0,.2,0,0,0,0-.1-.1-.2,0,0,0-.1-.1-.2,0,0,0-.1,0-.2,0,0,0-.1,0-.2,0,0,0-.1,0-.2,0,0,0-.1,0-.2,0,0,0-.1,0-.2,0,0,0-.1,0-.2,0,0,0,.1,0,.2,0,0,0,.1,0,.2,0,0,0,.1,0,.2ZM26.9,51.5c0,0,.1,0,.2,0,0,0,.1,0,.2,0,0,0,.1,0,.2,0,0,0,.1,0,.2,0,0,0,.1,0,.2,0,0,0,.1,0,.2,0,0,0-.1,0-.2.1,0,0-.1,0-.2,0,0,0-.1,0-.2,0,0,0-.1,0-.2,0,0,0-.1,0-.2,0,0,0-.1,0-.2,0-.1,0-.2,0-.3,0-.1,0-.2,0-.3,0-.1,0-.2,0-.3,0,0,0-.2,0-.2,0,0,0-.1,0-.2,0,0,0-.1,0-.2,0,0,0,0,0,0,0l-1.2-.6c0,0,.1,0,.2,0,0,0,.1,0,.2,0,0,0,.1,0,.2,0,0,0,.1,0,.2,0,0,0,.1,0,.2,0,0,0,.1,0,.2,0,0,0,.1,0,.2,0,0,0,.1,0,.2,0,0,0-.1,0-.2-.1,0,0,0,0-.1-.1,0,0,0,0-.1-.1,0,0,0-.1-.1-.2,0,0,0-.1,0-.2,0,0,0-.1,0-.2,0,0,0-.1,0-.2,0,0,0-.1,0-.2,0,0,0,.1.1.2,0,0,0,.1.1.2,0,0,0,.1.1.2,0,0,0,.1.1.1,0,0,0,0,.2.1,0,0,.1,0,.2.1,0,0,.1,0,.2.1,0,0,.1,0,.2.1,0,0,.1,0,.2,0,0,0,.1,0,.2,0ZM26.8,58.1c0,0-.1,0-.2,0,0,0-.1,0-.2,0,0,0-.1,0-.2,0,0,0-.1,0-.2,0,0,0-.1,0-.2,0,0,0-.1,0-.2,0-.1,0-.2,0-.3,0-.1,0-.2,0-.3,0-.1,0-.2,0-.3,0,0,0-.2,0-.2,0,0,0-.1,0-.2,0,0,0-.1,0-.2,0,0,0,0,0,0,0l-1.2-.6c0,0,.1,0,.2,0,0,0,.1,0,.2,0,0,0,.1,0,.2,0,0,0,.1,0,.2,0,0,0,.1,0,.2,0,0,0,.1,0,.2,0,0,0,.1,0,.2,0,0,0,.1,0,.2,0,0,0-.1,0-.2-.1,0,0,0,0-.1-.1,0,0,0,0-.1-.1,0,0,0-.1-.1-.2,0,0,0-.1,0-.2,0,0,0-.1,0-.2,0,0,0-.1,0-.2,0,0,0-.1,0-.2,0,0,0,.1.1.2,0,0,0,.1.1.2,0,0,0,.1.1.2,0,0,0,.1.1.1,0,0,0,0,.2.1,0,0,.1,0,.2.1,0,0,.1,0,.2.1,0,0,.1,0,.2.1,0,0,.1,0,.2.1,0,0,.1,0,.2,0,0,0,.1,0,.2,0,0,0,.1,0,.2,0,0,0,.1,0,.2,0,0,0,.1,0,.2,0,0,0,.1,0,.2,0,0,0,.1,0,.2,0ZM47,40.3c-.3-.1-.6-.4-.7-.7.6.5,1.3.8,2.1.6-.4.5-1,.7-1.6.6l-.9-.2c.4,0,.8,0,1.1-.3ZM51.3,43.5l-.9-.2c.4,0,.8,0,1.1-.3-.3-.1-.6-.4-.7-.7.6.5,1.3.8,2.1.6-.4.5-1,.7-1.6.6ZM40.7,41.8c-.4-.2-.7-.5-.9-.9.7.7,1.6,1,2.6.8-.6.6-1.2.9-2,.8l-1.1-.3c.5,0,1,0,1.4-.3ZM8.9,20.9s0,0,0,0c0,0,.1,0,.2-.1,0,0,.1,0,.2,0,0,0,0,0,.1,0,.2,0,.3,0,.4.1,0,0,.1,0,.2.1.2.2.2.4.2.6s0,.2,0,.3c0,.1-.1.2-.2.3-.2.2-.4.2-.6.2s-.3,0-.4,0c0,0-.1,0-.2-.2-.2-.2-.2-.4-.2-.6h0c0-.1,0-.2,0-.2,0-.1.1-.3.2-.4,0,0,0,0,0,0Z"/>
  <path class="st0" d="M9,20.9s0,0,0,0c0,0,0,0,0,0-.1.1-.2.2-.2.4,0,0,0,.1,0,.2h0c0,.3,0,.5.2.6,0,0,.1.1.2.2.1,0,.2,0,.4,0,.2,0,.4,0,.6-.2,0,0,.2-.2.2-.3,0,0,0-.2,0-.3,0-.2,0-.4-.2-.6,0,0-.1-.1-.2-.1-.1,0-.3-.1-.4-.1s0,0-.1,0c0,0-.1,0-.2,0,0,0-.1,0-.2.1ZM9,21.1c.1-.1.3-.2.5-.2s.3,0,.5.2c.1.1.2.3.2.5s0,.3-.2.5c-.1.1-.3.2-.5.2s-.3,0-.5-.2c-.1-.1-.2-.3-.2-.5s0-.3.2-.5Z"/>
  <path class="st0" d="M9.5,20.9c-.2,0-.3,0-.5.2-.1.1-.2.3-.2.5s0,.3.2.5c.1.1.3.2.5.2s.3,0,.5-.2c.1-.1.2-.3.2-.5s0-.3-.2-.5c-.1-.1-.3-.2-.5-.2ZM9.4,21.5c0,0,0,.1,0,.2s0,.1,0,.2c0,0-.1,0-.2,0s-.1,0-.2,0c0,0,0-.1,0-.2s0-.1,0-.2c0,0,.1,0,.2,0s.1,0,.2,0Z"/>
  <path class="st0" d="M9.5,21.7c0,0,0-.1,0-.2,0,0-.1,0-.2,0s-.1,0-.2,0c0,0,0,.1,0,.2s0,.1,0,.2c0,0,.1,0,.2,0s.1,0,.2,0c0,0,0-.1,0-.2ZM36.9,72c0-1-.5-1.2-1.2-.7-.2.6-.3,1.2-.2,1.7.5-.6,1-.9,1.4-1Z"/>
  <path class="st0" d="M24.4,66c-.2,0-.3-.2-.5-.3l-1-.9h-.4c.3.8.3,1.6.2,2.4,0,0,0,.2,0,.3.5.3,1,.3,1.7,0,.2-.1.2-.6,0-1.3ZM15,57.9c0,0,0-.1,0-.2,0,0,0,0-.2-.1,0,0-.2,0-.2,0,0,0,0,0-.1,0,0,0-.1,0-.2.1,0,0,0,0-.1.2,0,0,0,.2,0,.2,0,0,0,0,0,.1-.2.8-.2,1.6-.2,2.4.2-.2.3-.4.4-.8,0-.2,0-.5.2-.7,0,0,0,0,0,0,0,0,0-.1.1-.2,0,0,0-.1.1-.2,0,0,.1-.1.2-.2,0,0,0,0,0-.1,0,0,0-.1,0-.2,0,0,0-.1,0-.2ZM15.7,58.8c0,0,0,.2,0,.2,0,0,0,.2,0,.2,0,0,0,.2,0,.2,0,0,0,.2,0,.2,0,0,0,.2,0,.2,0,0,0,.2,0,.2,0,0,0,.2,0,.2,0,0,0,.2,0,.2,0,.3,0,.5,0,.8.1,0,.2-.2.3-.3,0,0,0,0,0,0,0,0,0-.1,0-.2,0,0,0-.2,0-.2,0,0,0-.1,0-.2,0,0,0-.1,0-.2,0,0,0-.1,0-.2,0,0,0-.1,0-.2,0,0,0-.1.1-.2,0,0,0-.1.1-.2,0,0,.1-.1.2-.2,0,0,.1-.1.2-.2,0,0,0,0,0-.1,0,0,0-.2,0-.2,0,0,0,0,0-.1,0,0,0,0-.1-.1,0,0-.1,0-.2,0,0,0-.1,0-.2,0,0,0-.1,0-.2,0,0,0-.1,0-.1.1,0,0,0,.1,0,.2ZM13,55.1c0,0-.1,0-.2.2,0,0,0,0,0,0-.2.5-.5.9-.7,1.4-.3.8-.6,1.7-.7,2.5.4-.1.7-.5.9-1.1.2-.5.5-1,1.1-1.4,0,0,0,0,0,0,0,0,.1,0,.2-.1,0,0,.1,0,.2-.1,0,0,.1,0,.2-.1,0,0,0,0,.1-.1,0,0,.1-.1.1-.2,0,0,0-.1,0-.2,0,0,0-.2,0-.2,0,0,0-.1,0-.2,0,0,0,0,0-.1,0,0-.1-.1-.2-.2,0,0-.1,0-.2-.1,0,0-.2,0-.2,0,0,0-.1,0-.2,0,0,0-.2,0-.2,0ZM18.7,70.6c.4-.6.2-1-.5-1.2-.3.2-.5.7-.7,1.3.4,0,.8,0,1.2,0ZM17.7,67.7c-.4,0-.7.1-.9.6l1,.2c.3-.3.2-.6,0-.8ZM33.3,71.1c0-.6-.2-1-.8-1-.5.5-.7,1.1-.7,1.7.5-.4,1.1-.6,1.5-.8ZM34.9,67.3c0-.1,0-.2,0-.3,0,0,0,0,0,0,0-.6-.2-1.1-.6-1.5-.4-.4-.9-.6-1.5-.6-.6,0-1.1.2-1.5.6-.4.4-.6.9-.6,1.5h.1c0-.2.2-.5.4-.7.2-.2.4-.4.7-.4,0,0,.2,0,.3,0,.4,0,.7.2.9.5.2.3.3.6.3,1,0,0,0,0,0,0,0,0,0,0,0,0,0,0,0,.1,0,.2,0,0,0,.1,0,.2h0c.4.2.7.2,1,.2.3-.1.5-.4.6-.7ZM6.2,53.9s0,0,0,0c0-.2-.1-.3-.3-.4-.1,0-.3-.1-.4,0-.2,0-.3.1-.3.3,0,.1-.1.3,0,.4,0,0,0,0,0,0,0,.2.2.4.3.5.4.7,1,1.4,1.5,2,0-.3,0-.6-.3-1-.2-.3-.4-.6-.4-1,0-.3,0-.5,0-.9ZM3,54.4c0,0-.1.2-.1.3s0,0,0,0c0,0,0,.1,0,.2.2.7.4,1.3.7,1.8.1-.2,0-.4,0-.7-.1-.3-.1-.6,0-1,0-.1,0-.2.1-.4h0c0-.1,0-.2-.1-.3,0,0-.2-.1-.3-.1s-.2,0-.3.1ZM8.5,53.9s0,0,0,0c0-.1-.1-.2-.3-.2-.1,0-.2,0-.3,0-.1,0-.2.1-.2.3,0,.1,0,.2,0,.3,0,0,0,0,0,0,0,0,.1.1.2.2.5.5,1,.9,1.6,1.2,0-.2-.1-.4-.4-.6,0,0,0,0,0,0,0,0,0,0,0,0,0,0,0,0,0,0-.1-.1-.2-.2-.3-.4-.1-.2-.2-.5-.3-.9Z"/>
  <path class="st0" d="M25,66.3c0,0-.1,0-.2-.2-.1,0-.2,0-.4-.2.2.7.2,1.2,0,1.3-.7.4-1.2.4-1.7,0,0,0,0-.2,0-.3.1-.8,0-1.6-.2-2.5,0,0,0,0-.1,0,0,0-.1,0-.2,0,0,0-.1,0-.2,0,0,0-.1,0-.2,0v.9c-.1.3-.3.5-.6.7,0,0-.2.1-.3.2-1.1.5-2.3.9-3.4,1.1.3.2.4.5,0,.8.4.2.8.2,1.4,0l-1,.8c.7.3.9.7.5,1.2l3.7-1.9c0,0,0,.1,0,.2v.2c.4.3.7.5,1.2.6.7,0,1.2-.2,1.6-.7.2-.7.2-1.4,0-2.2,0-.3-.1-.5-.2-.5ZM39.3,61.6c0,0-.2,0-.2-.1.3.7.4,1.1.3,1.3-.5,0-.9.2-1.2.2,0,.2-.1.5-.2.9-.2,0-.4-.2-.7-.4h0c0,.2,0,.4,0,.6-.2,1-.6,2-1.1,3-.1,0-.4,0-.7.4,0-.3-.1-.4-.4-.4,0,0,0,.2,0,.3,0,.3-.3.6-.6.7-.2,0-.6,0-1-.2h0c0,0,0-.1,0-.2,0,0,0-.1,0-.2,0,0,0,0,0,0l-.2.2c-.1.1-.1.3,0,.6,0,0,0,.3,0,.6,0,.2.2.4.3.4-.4.3-.7.6-1,1,.6,0,.9.3.8,1l3.1-1.3-.8,1.6c.8-.5,1.2-.3,1.2.7l1.8-2.3c.1-.2.2-.5,0-.7,0,0,0,0,0,0-.3-1.5.3-3.5,1.6-6,.3-.7,0-1.1-.7-1.3-.2,0-.3,0-.5-.2Z"/>
  <path class="st0" d="M6.4,22.8h0s0,0,0,0c0,0,0,0,0,0ZM10,24.6h0s0,0,0,0h0Z"/>
  <path class="st0" d="M6.5,22.8h0s0,0,0,0h0Z"/>
  <path class="st0" d="M35.9,45.9c0,0-.1,0-.1,0,0,0-.1,0-.2,0,0,0-.1,0-.2,0,0,0-.1,0-.2,0,.3.2.6.4.9.6l-.3-.8Z"/>
  <path class="st0" d="M13.9,49.9h0s0,0,0,0h0Z"/>
  <path class="st0" d="M13.9,49.9s0,0,0,0c-3.9-2.3-5.9-5.5-5.9-9.7,0-.4,0-.8,0-1.2-.4,1-.8,1.8-1.2,2.6-.4.8-.8,1.5-1.3,2.3-.4.7-.9,1.4-1.3,2.1-.4.7-.9,1.4-1.3,2.2-.3.6-.6,1.1-.8,1.7,0,.2-.2.4-.2.6,0,.2-.2.5-.2.7-.1.6-.1,1.2,0,1.8.1.9.5,1.5,1.2,1.8h0c0-.1,0-.2,0-.2,0-.1,0-.2.1-.3,0,0,.2-.1.3-.1s.2,0,.3.1c0,0,.1.2.1.3h0c0,.2,0,.3-.1.4.7.3,1.3.2,1.8-.3-.1-.2-.2-.4-.3-.5,0,0,0,0,0,0,0-.2,0-.3,0-.4,0-.1.2-.2.3-.3.2,0,.3,0,.4,0,.1,0,.2.2.3.4,0,0,0,0,0,0,0,.3,0,.6,0,.9.8.5,1.4.4,1.7-.2,0,0-.1-.1-.2-.2,0,0,0,0,0,0,0-.1,0-.2,0-.3,0-.1,0-.2.2-.3.1,0,.2,0,.3,0,.1,0,.2,0,.3.2,0,0,0,0,0,0,0,.3.2.6.3.9.1.1.3.2.4.3,0,0,0,0,0,0,.8.5,1.4.5,1.8,0,.8.6,1.4.5,1.7-.2,0,0,0-.1,0-.2,0,0,0-.1,0-.2,0,0,0-.1,0-.2,0,0,0-.1,0-.2,0,0,0-.1,0-.2,0,0,0-.1,0-.2,0,0,0-.1,0-.2,0,0,0-.1,0-.2,0,0,0-.1,0-.2,0,0,0-.1,0-.2,0,0,0-.1,0-.2,0,0,0-.1,0-.2,0,0,0-.1,0-.2,0,0,0-.1,0-.2,0,0,0-.1,0-.2,0,0,0-.1,0-.2,0,0,0-.1,0-.2,0,0,0-.1,0-.2,0,0,0-.1,0-.2,0,0,0-.1,0-.2,0,0,0-.1,0-.2,0,0,0-.1,0-.2,0,0,0-.1,0-.2,0,0,0-.1,0-.2,0,0,0-.1,0-.2,0,0,0-.1,0-.2h0s0,0,0,0ZM6.2,46v-1.1c0,.5.2.9.6,1.2,0-.4.2-.8.6-1.1-.4.8-.5,1.7,0,2.6-.7-.3-1.1-.9-1.2-1.6ZM8.9,53.5l-.8-.7c.4.3.8.4,1.3.4-.3-.3-.4-.7-.3-1.2.3.9.9,1.5,1.8,1.9-.7.3-1.4.2-2-.3ZM10.7,50.6c-.8-.1-1.3-.6-1.5-1.3l-.3-1c.2.5.5.8.9,1,0-.4,0-.8.3-1.2-.2.9,0,1.8.6,2.5ZM3.7,52.2l-.8-.7c.4.3.8.4,1.3.4-.3-.3-.4-.7-.3-1.2.3.9.9,1.5,1.8,1.9-.7.3-1.4.2-2-.3Z"/>
  <path class="st0" d="M13.1,27.6c0,0,0-.1-.2-.1,0,0,0,0-.1,0,0,0-.2,0-.2,0,0,0-.1,0-.2,0s-.1,0-.2,0c0,0-.2,0-.2,0,0,0,0,0-.1,0l-1.8.5c.2.2.4.5.4,1,0,.2,0,.5,0,.8,0,.8-.3,1.7-.7,2.8,0,0,0,.1,0,.2-.5,1.2-.9,2.4-1.2,3.6-.2.9-.4,1.8-.4,2.8,0,.4,0,.8,0,1.2,0,4.2,2,7.4,5.9,9.7h0s0,0,0,0c0,0,0,0,0,0,0,0,0,0,0,0,0,0,0,0,0,0,0,0,0,0,0,0,0,0,0,0,0,0,0,0,0,0,0,0,0,0,0,0,0,0,0,0,0,0,0,0,0,0,0,0,0,0,0,0,0,0,0,0,0,0,0,0,0,0,0,0,0,0,0,0,0,0,0,0,0-.1,0,0,0,0,0-.1,0,0,0,0,0-.1,0,0,0,0,0-.1,0,0,0,0,0-.1,0,0,0,0,0-.1,0,0,0,0,0-.1,0,0,0,0,.1-.1,0,0,0,0,0,0,0,0,0,0,0,0,0,0,0,0,.1-.1,0,0,0,0,.1-.1,0,0,0,0,.1-.1,0,0,.1-.1.2-.2,0,0,.1-.2.2-.3,0,0,0,0,.1-.1,0,0,0,0,0,0,0,0,0,0,0,0,0,0,0,0,.1-.1,0,0,.1-.1.2-.2,0,0,0,0,.1-.1,0,0,0,0,.1-.1,0,0,0,0,.1-.1,0,0,0,0,.1-.1,0,0,0,0,.1-.1,0,0,0,0,.1-.1,0,0,.1-.1.2-.2,0,0,0-.1.1-.2,0,0,0-.1,0-.2,0,0,0-.1,0-.2,0,0,0-.1,0-.2,0,0,0,0,0,0,0,0,0,0,0,0,0,0,0-.2,0-.2,0,0-.1-.2-.2-.2,0,0-.1-.1-.2-.1,0,0-.1,0-.2,0,0,0-.1,0-.2,0,0,0-.1,0-.2,0,0,0-.1,0-.2,0,0,0,0,0,0,0,0,0,0,0,0,.1,0,0-.1.2-.2.2,0,0-.1.2-.2.2,0,0-.1.1-.2.2,0,0,0,0,0,0,0,0,0,0,0,0,0,0-.1.1-.2.2,0,0-.2.1-.2.2,0,0,0,0-.1.1-.1,0-.2.1-.4.1,0,0,0,0-.1,0,0,0,0,0,0,0,0,0-.1,0-.2-.1,0,0,0,0,0,0,0,0,.2-.2.2-.3,0-.1.2-.2.2-.3,0-.1.2-.2.2-.3,0,0,.1-.1.2-.2,0,0,.1-.2.2-.2,0,0,.1-.2.2-.2,0,0,0,0,0-.1,0,0-.2-.1-.3-.2,0,0-.2-.1-.3-.2,0,0-.2-.1-.2-.2,0,0-.1,0-.2-.1,0,0-.1,0-.2-.1,0,0-.1,0-.2-.1,0,0,0,0,0,0,0,0-.1.2-.2.2,0,0-.1.1-.2.2,0,0,0,0,0,.1,0,0,0,0,0,0,0,0,0,0,0,0,0,0-.1.2-.2.2,0,0-.1.1-.2.2,0,0-.2.1-.3.2,0,0-.1,0-.2,0,0,0-.1,0-.2,0,0,0-.1,0-.2,0,0,0,0,0,0,0,0,0,.2-.2.3-.3,0-.1.2-.2.3-.3,0-.1.2-.2.3-.3,0,0,.1-.2.2-.2,0,0,.1-.2.2-.3,0,0,.1-.2.2-.3,0,0,0,0,0-.1,0,0-.1-.2-.2-.2,0,0-.1-.2-.2-.2,0,0-.1-.2-.2-.3,0,0,0-.1,0-.2,0,0,0-.1,0-.2,0,0,0-.1,0-.2,0,0,0,0,0,0,0,0,0,.1-.1.2,0,0,0,0,0,0,0,0,0,0,0,0,0,0,0,0,0,0,0,0-.1.2-.2.2,0,0,0,0-.1.1,0,0-.2.1-.2.2,0,0-.1,0-.2.1,0,0-.1,0-.2,0,0,0-.1,0-.2,0,0,0-.1,0-.1,0,0,0,0,0,0,0,0,0,0,0,0,0,0,0,.1-.1.2-.2,0-.1.2-.2.3-.3,0-.1.2-.2.3-.3,0,0,.1-.2.2-.2,0,0,.1-.2.2-.3,0,0,.1-.2.2-.3,0,0,0,0,0-.1,0-.1,0-.2,0-.3,0-.1,0-.2,0-.3,0-.1,0-.2,0-.3,0,0,0-.2,0-.2,0,0,0-.2,0-.2,0,0,0-.2,0-.2,0,0,0,0,0-.1,0,0,0,0,0,0,0,0,0,0,0,0,0,0,0,0,0,0,0,0-.1.1-.2.2,0,0,0,0-.1.1,0,.1-.2.2-.3.3,0,0-.1,0-.2.1,0,0-.1,0-.2,0,0,0,0,0-.1,0,0,0,0,0-.1,0,0,0,0,0,0,0,0,0,.1-.1.2-.2,0,0,.1-.2.2-.2,0,0,.1-.2.2-.2,0,0,.1-.2.2-.3,0,0,0-.1.1-.2,0,0,0,0,0-.1,0,0,0,0,0-.1,0,0,0,0,0-.1,0,0,0,0,0-.1,0,0,0-.1,0-.1,0,0,0,0,0,0,0,0,0,0,0,0,0,0,0,0,0,0,0-.1,0-.2,0-.3,0-.1,0-.2,0-.3,0-.1,0-.2,0-.3,0,0,0-.1,0-.2,0,0,0-.1,0-.2,0,0,0-.2,0-.2,0,0,0,0,0-.1,0,0-.1.2-.2.2,0,0-.2.2-.3.3,0,0,0,0-.2.1,0,0,0,0-.1,0,0,0,0,0-.1,0s0,0-.1,0c0,0,0,0,0,0,0,0,0,0,0,0,0,0,0,0,0,0,0,0,.1-.1.2-.2,0,0,.1-.1.2-.2,0,0,.1-.1.2-.2,0,0,.1-.2.2-.2,0,0,.1-.2.2-.2,0,0,.1-.2.2-.3,0,0,0,0,0-.1,0,0,0,0,0-.1,0,0,0,0,0-.1,0-.1,0-.2,0-.3,0-.1,0-.2,0-.3,0-.1,0-.2,0-.3,0,0,0-.2,0-.2,0,0,0-.2,0-.2,0,0,0-.2,0-.2,0,0,0,0,0-.1,0,0,0,0,0,.1,0,.1-.2.2-.3.3,0,0-.1.1-.2.2,0,0,0,0-.1,0,0,0,0,0-.1,0,0,0,0,0,0,0,0,0,0,0,0,0,0,0,0,0,0,0,0,0,.1-.2.2-.2,0,0,.1-.1.2-.2,0,0,0,0,0-.1,0,0,0,0,0-.1,0,0,0,0,0-.1,0,0,0-.1,0-.2,0,0,0,0,0,0,0,0,0,0,0,0,0,0,0-.1.1-.2,0,0,.1-.2.1-.3,0,0,0-.1.1-.2,0,0,.1-.2.2-.3,0,0,0-.1,0-.2,0,0,0-.1,0-.2,0,0,0-.2,0-.2,0,0,0,0,0-.1l-.6-1.5s0,0,0,0Z"/>
  <path class="st0" d="M14.8,20.4s0,0-.1,0c0,0,0,0-.1,0,0,0-.2,0-.2,0,0,0-.1,0-.2,0,0,0-.1,0-.2,0,0,0-.1,0-.2,0,0,0-.2,0-.2,0,0,0-.2,0-.2,0,0,0-.2,0-.3,0,0,0,0,0-.1,0h-.1s0,0-.1,0-.1,0-.1,0h-.2c0,0-.1,0-.2,0,0,0-.1,0-.2,0,0,0-.2,0-.3,0,0,0-.2,0-.3,0,0,0-.1,0-.2,0,0,0-.1,0-.2,0,0,0-.1,0-.2,0,0,.2,0,.3-.2.4.4,0,.7,0,.8.1-.3.7-.7,1.4-1.2,1.9-.6,0-1.1.1-1.5,0,0,0,0,0-.1,0,0,0-.1,0-.2,0-.1,0-.2,0-.3,0,0,0,0,0,0,0,0-.4.1-.7.4-.9l-1.9,1.2s0,0,0,0c0,0,0,0,0,0h0s-5.5,2.7-5.5,2.7h-.5c-.1.2-.2.4-.2.6,0,.5,0,1,0,1.5,0,0,0,.1,0,.2.2.2.5.3.9.1,0,0,0,0,0,0l8.8-3.5.6-.9c.6-.4,1.1-.5,1.6-.5-.5,0-1,.3-1.5.6l-.6,1.2-8.3,3-.5.2c.4.4,1.1.6,2.1.3,0,0,0,0,0,0,0,0,0,0,0,0,0,0,.2,0,.3,0,0,0,.2,0,.3,0,0,0,.2,0,.3,0,0,0,.2,0,.2,0,0,0,.2,0,.3,0,0,0,.2,0,.2,0,0,0,.2,0,.2,0,0,0,.2,0,.2,0,0,0,.2,0,.2,0,0,0,.2,0,.2,0,0,0,.2,0,.2,0,0,0,.2,0,.2,0,0,0,.2,0,.2,0,0,0,.1,0,.2,0,0,0,.1,0,.2,0,0,0,.1,0,.2,0s.1,0,.2,0c0,0,.1,0,.2,0,0,0,.1,0,.2,0,0,0,.1,0,.2,0,0,0,.1,0,.2,0,0,0,.1,0,.2,0,0,0,.1,0,.2,0,0,0,.1,0,.2,0,0,0,.1,0,.2,0,0,0,.1,0,.2,0,0,0,.1,0,.2,0,0,0,.1,0,.2,0,0,0,.1,0,.2,0,0,0,.1,0,.2,0,0,0,.1,0,.2,0,0,0,.1,0,.2,0,1.9-.5,3.2-1.1,3.8-1.8,0,0,0-.2,0-.2,0,0,0-.2,0-.2,0,0,0-.2,0-.2,0,0,0-.2,0-.3,0,0,0-.2,0-.3,0,0,0-.2,0-.3,0,0,0-.2,0-.3,0,0,0,0,0-.1,0,0,0,0,0-.1,0,0,0,0,0-.1,0,0,0,0,0-.1,0,0,0,0,0-.1,0,0,0,0,0-.1,0,0,0,0,0-.1,0-.1,0-.3,0-.4,0-.2,0-.3,0-.5,0-.1,0-.2,0-.3,0-.1,0-.2,0-.3,0,0,0-.1,0-.2ZM2,26c0,0,0-.2,0-.3,0,0,0-.2.1-.3,0,0,.2-.1.3-.1,0,0,.1,0,.1.1,0,.1,0,.3,0,.4,0,0-.1.2-.2.2,0,0,0,0,0,0,0,0-.1.1-.2.2,0,0-.1,0-.2.1,0,0-.1,0-.2,0,0-.1,0-.2.2-.2,0,0,.1,0,.2-.2,0,0,0,0,0,0Z"/>
  <path class="st0" d="M2.1,25.8c0,0,0,.2,0,.3,0,0,0,0,0,0,0,0,0,.1-.2.2-.1,0-.2,0-.2.2,0,0,.1,0,.2,0,0,0,.1,0,.2-.1,0,0,.2-.1.2-.2,0,0,0,0,0,0,0,0,.1-.1.2-.2,0-.1.1-.3,0-.4,0,0,0-.1-.1-.1-.1,0-.2,0-.3.1,0,0,0,.2-.1.3Z"/>
  <path class="st0" d="M66.3,47.6s0,0,0,0c0,0,0,0,0,0,0,0,0,0,0,0,0,0,0,0,0,0,0,0,0,0,0,0,0,0-.2,0-.2,0-.2,0-.3-.1-.5-.1-.1,0-.2,0-.4-.1,0,0,0,0-.1,0,0,0,0,0-.1,0,0,0,0,0-.1,0,0,0,0,0-.1,0,0,0,0,0-.1,0,0,0,0,0-.1,0,0,0,0,0-.1,0,0,0,0,.1,0,.2,0,.2,0,.3-.1.4,0,.1,0,.2-.2.3,0,0-.1.1-.2.2,0,0,0,0,0,0,0,0,0,0,0,0,0,0,0,0,0,0,0,0,0,0,0,0h0s0,0,0,0c0,0,0,0,0,0,0-.2,0-.3,0-.5,0,0,0-.2,0-.3,0,0,0,0,0,0,0,0,0,0,0,0,0,0,0,0,0,0,0,0,0,0,0,0,0,0,0,0,0,0,0,0,0,0,0,0,0,0,0,0,0,0-.2,0-.3,0-.5-.1,0,0-.2,0-.2,0-.1,0-.2,0-.4,0,0,0,0,0-.1,0,0,0,0,0-.1,0,0,0,0,0-.1,0,0,0,0,0-.1,0,0,0,0,0-.1,0,0,0,0,0-.1,0,0,0,0,0-.1,0h0c0,.3,0,.5,0,.6,0,.1,0,.2-.1.3,0,0,0,.1-.1.1,0,0,0,0,0,0,0,0,0,0,0,0,0,0,0,0,0,0,0,0,0,0,0,0,0,0,0,0,0,0s0,0,0,0c0,0,0,0,0,0,0,0,0-.1,0-.2v-.3c0,0,0-.2,0-.3,0,0,0,0,0,0,0,0,0,0,0,0,0,0,0,0,0,0,0,0,0,0,0,0,0,0,0,0,0,0,0,0,0,0,0,0,0,0,0,0,0,0l-1.6-.3c0,0,0,.2,0,.3,0,.2,0,.4-.2.5,0,0,0,0,0,.1,0,0,0,0,0,0,0,0,0,0,0,0,0,0,0,0,0,0,0,0,0,0,0,0h0s0,0,0,0c0,0,0,0,0,0,0-.1,0-.2,0-.3v-.2c0,0,0-.1,0-.2,0,0,0-.1,0-.2,0,0,0-.1,0-.2,0,0,0-.1,0-.2,0,0,0,0,0,0,0,0,0,0,0,0l-2-.4c0,0,0,.2,0,.3,0,.2,0,.3-.1.4,0,0,0,.1-.1.2,0,0,0,0,0,0,0,0,0,0,0,0,0,0,0,0,0,0,0,0,0,0,0,0h0s0,0,0,0c0,0,0,0,0,0,0,0,0,0,0-.1,0,0,0,0,0-.1h0c0-.2,0-.2,0-.3,0,0,0,0,0-.1,0,0,0-.1,0-.1,0,0,0-.1,0-.1,0,0,0-.1,0-.2l-2.3-.3c0,0,0,.2,0,.2,0,.1,0,.3,0,.4,0,0,0,.1-.1.2,0,0,0,0,0,0,0,0,0,0,0,0,0,0,0,0,0,0,0,0,0,0,0,0,0,0,0,0,0,0h0s0,0,0,0c0,0,0,0,0-.1,0,0,0,0,0-.1,0,0,0,0,0-.1,0,0,0,0,0-.1,0,0,0,0,0-.1,0,0,0,0,0-.1,0,0,0,0,0-.1,0,0,0,0,0-.1l-2-.2v.3c0,.2,0,.3,0,.5,0,0,0,.2-.1.2,0,0,0,0,0,0,0,0,0,0,0,0,0,0,0,0,0,0,0,0,0,0,0,0,0,0,0,0,0,0h0s0,0,0,0c0,0,0-.2,0-.3,0,0,0-.1,0-.1,0,0,0-.1,0-.2,0,0,0-.1,0-.2,0,0,0-.1,0-.2,0,0,0-.1,0-.2,0,0,0,0,0,0,0,0,0,0,0,0l-2.2-.2s0,0,0,0c0,0,0,.2,0,.2,0,.2,0,.4,0,.5,0,0,0,.2,0,.3,0,0,0,0,0,0,0,0,0,0,0,0,0,0,0,0,0,0,0,0,0,0,0,0,0,0,0,0,0,0,0,0,0,0,0,0h0c0,0,0-.1,0-.2,0-.1,0-.2,0-.4,0,0,0-.2,0-.3,0,0,0,0,0,0,0,0,0,0,0,0,0,0,0,0,0,0,0,0,0,0,0,0,0,0,0,0,0,0,0,0,0,0,0,0,0,0,0,0,0,0h-1.9c0,.1,0,.2,0,.2,0,0,0,.1,0,.2,0,0,0,.1,0,.2,0,0,0,.1,0,.2,0,0,0,.1,0,.2,0,.1,0,.3,0,.4,0,0,0,.1,0,.2,0,0,0,0,0,.1,0,0,0,0,0,0,0,0,0,0,0,0,0,0,0,0,0,0,0,0,0,0,0,0,0,0,0,0,0,0h-.1c0,0,0-.1,0-.2,0-.1,0-.3-.1-.4,0-.1,0-.2,0-.3,0,0,0,0,0-.1,0,0,0,0,0-.1,0,0,0,0,0-.1,0,0,0,0,0-.1,0,0,0,0,0-.1,0,0,0,0,0-.1,0,0,0,0,0-.1,0,0-.2,0-.2,0-.1,0-.3,0-.4,0,0,0,0,0,0,0-.1,0-.2,0-.4,0,0,0,0,0-.1,0,0,0,0,0-.1,0,0,0,0,0-.1,0,0,0,0,0-.1,0,0,0,0,0-.1,0,0,0,0,0-.1,0,0,0,0,0-.1,0,0,0,0,0,0,.1,0,0,0,.2,0,.2,0,0,0,.1,0,.2,0,0,0,.1,0,.2,0,0,0,.1,0,.2,0,0,0,0,0,0,0,0,0,.1,0,.2,0,0,0,.1,0,.2,0,.1,0,.2,0,.3,0,0,0,0,0,.1,0,0,0,0,0,0,0,0,0,0,0,0,0,0,0,0,0,0,0,0,0,0,0,0,0,0,0,0,0,0,0,0,0,0,0,0,0,0,0,0,0,0,0,0,0-.1,0-.2,0-.2,0-.3-.1-.4,0-.1,0-.2-.1-.3,0,0,0,0,0-.1,0,0,0,0,0-.1,0,0,0,0,0-.1,0,0,0,0,0-.1,0,0,0,0,0-.1,0,0,0,0,0-.1,0,0,0,0,0-.1l-1.9.5c0,0,0,.2,0,.3,0,0,0,.2,0,.2,0,0,0,.2,0,.2,0,0,0,.1,0,.2,0,0,0,.1,0,.2,0,0,0,.1,0,.2,0,0,0,.1,0,.2,0,.1,0,.3,0,.4,0,0,0,0,0,0,0,0,0,0,0,.1,0,0,0,0,0,0,0,0,0,0,0,0,0,0,0,0,0,0,0,0,0,0,0,0,0,0,0,0,0,0,0,0,0,0,0,0h0c0,0,0-.2,0-.2,0-.2,0-.3-.1-.5,0-.1,0-.2-.1-.4,0,0,0,0,0-.1,0,0,0,0,0-.1,0,0,0,0,0-.1,0,0,0,0,0-.1,0,0,0,0,0-.1,0,0,0,0,0-.1,0,0,0,0,0-.1l-1.6.5s0,0,0,.1c0,0,0,.2,0,.3,0,0,0,.2,0,.2,0,0,0,.1,0,.2,0,0,0,0,0,0,0,0,0,.1,0,.2,0,.1,0,.2,0,.3s0,.2,0,.3c0,0,0,.1,0,.2,0,0,0,0,0,0,0,0,0,0,0,0,0,0,0,0,0,0,0,0,0,0,0,0,0,0,0,0,0,0,0,0,0,0,0,0,0,0,0,0,0,0h0s0,0,0-.1c0,0,0,0,0-.1,0,0,0,0,0-.1,0,0,0,0,0-.1,0,0,0,0,0-.1,0,0,0,0,0-.1,0,0,0,0,0-.1,0,0,0,0,0-.1-.8.2-1.5.2-2.1-.3,0,0,0,0,0,0h0s0,0,0,0c0,0,0,0,0,0h0s0,0,0,0c0,.2.1.3.2.5,0,.1,0,.3.1.5,0,0,0,.1,0,.2,0,0,0,.1,0,.2,0,0,0,.1,0,.2,0,0,0,.1,0,.2,0,0,0,.1,0,.2,0,0,0,0,0,0,0,0,0,0,0,0,0,0,0,0,0,0,0,0,0,0,0,0,0,0,0,0,0,0,0,0,0,0,0,0,0,0-.1,0-.2,0,0,0,0-.2,0-.2,0,0,0-.2,0-.2,0,0,0-.2,0-.2,0,0,0,0,0-.1,0,0,0,0,0-.1,0,0,0,0,0-.1,0,0,0,0,0-.1,0,0,0,0,0-.1,0,0,0-.2,0-.3,0-.1-.1-.3-.2-.4h-.3c0,.2,0,.2,0,.2,0,0,0,0,0,.1,0,0,0,0,0,.1,0,0,0,0,0,.1,0,0,0,0,0,.1,0,0,0,0,0,.1h0c0,.2,0,.3,0,.4,0,0,0,0,0,.1,0,0,0,0,0,.1,0,0,0,.2,0,.3,0,0,0,0,0,.1,0,0,0,.2,0,.3.4.6,1,1,1.7,1.3-.7.3-1.4.2-2,0,0,0,0,0,0,0,0,0,0,0,0,0,0,0,0,0,0,0,0,0,0,0,0,0,0,0,0,0,0,0,0,0,0,0,0,0,0,0,0,0,0,0,0,0,0,0,0,0,0,0,0,0,0,0,0,0,0,0,0,0,0,0,0,0,0,0,0,0,0,0,0,0,0,0,0,0,0,0,0,0,0,0,0,0,0,0,0,0,0,0,0,0,0,0,0,0,0,0,0,0,0,.1,0,0,0,0,0,.1,0,0,0,0,0,.1,0,0,0,0,0,.1,0,0,0,0,0,.1,0,0,0,0,0,.1,0,0,0,0,0,.1,0,0,0,0,0,.1,0,0,0,0,0,.1,0,0,0,0,0,.1,0,0,0,0,0,.1,0,0,0,0,0,.1,0,0,0,0,0,.1,0,0,0,0,0,.1,0,0,0,0,0,.1,0,0,0,0,0,.1s0,0,0,.1c0,0,0,0,0,.1,0,0,0,0,0,.1,0,0,0,0,0,.1,0,0,0,0,0,.1h0c0,.2,0,.2,0,.3,0,0,0,0,0,.1,0,0,0,0,0,.1,0,0,0,0,0,.1,0,0,0,0,0,.1,0,0,0,0,0,.1,0,0,0,0,0,.1,0,0,0,0,0,.1,0,0,0,0,0,.1,0,0,0,0,0,.1.2.2.5.3.8.4-.3.1-.7.2-1,.2,0,0,0,.1,0,.2,0,0,0,.1,0,.2,0,.1,0,.2-.1.3,0,0,0,.1,0,.2,0,0,0,.1,0,.2,0,0,0,.1,0,.2,0,0,0,.1,0,.2,0,0,0,.1,0,.2,0,0,0,.1,0,.2,0,0,0,.1,0,.2v.2c.7.7,1.3,1.3,1.8,1.8,0,0,0,0,.1,0,.6.5,1.2,1,2,1.5.5.3.9.7,1.2,1.1,0,0,.1.1.2.2.2.2.4.4.7.4.1-.5.2-.8.2-.9.4,0,.8,0,1.2-.2,0-.2,0-.6-.3-1.3-.3-.2-.6-.4-.9-.7-1.1-1.7-2.1-4-2.9-6.7h0s0,0,0,0c0,0,.1,0,.2,0,2,0,3.9-.3,5.7-1.1.8-.3,1.4-.7,2-1.2.5-.4,1-.9,1.3-1.5,1.5-.2,3-.9,4.4-1.9,1,.1,2.1-.2,3.5-1.1,2.2.6,3.6.8,4.2.6.5.2.9.4,1.4.5,1.9.7,3.1,1,3.6.8,3.6,1.4,5.4,1.8,5.3,1.1,2.3,1.7,3.8,2.3,4.5,1.8,1.6,2.6,2.8,3.8,3.5,3.7.8,2.4,1.6,3.4,2.2,3.2,0,.4-.2.9-.6,1.4-.3.3-.6.6-1,.9.2.2.5.1.9-.2,0,.8-.9,1.8-2.7,2.8.2.2.4.2.7.2,0,0,.2-.1.2-.2,0,0,0,0,.1,0,0,0,0,0,.1,0,0,0,.1-.1.2-.2,0,0,.1,0,.2-.2,0,0,.1-.1.2-.2,0,0,.1-.1.2-.2,0,0,.1-.1.2-.2,0,0,.1-.1.2-.2,0,0,.1-.1.2-.2,0,0,.1-.1.2-.2,0,0,.1-.1.2-.2,0-.1.2-.2.3-.3,0,0,.1-.1.2-.2,0,0,0,0,0,0,0,0,0,0,0,0,0,0,0,0,0,0,0,0,0,0,0,0,0,0,0,0,0,0,0,0,0,0,0,0,0,0,0,0,0,0,0,0,0,0-.1,0,0,0,0,0,0,0,0,0,0,0,0,0,0,0,0,0,0,0,0,0,0,0,0,0,0,0,0,0,0,0,0,0,0,0,0-.1,0,0,0,0,0-.1,0,0,0,0,0,0h.2s0,0,0,0h0s0,0,0,0c0,0,0,0,0,0,0,0,0,0,0,0,0,0,0-.1,0-.2,0,0,0,0,0,0,0-.2.1-.3.2-.5,0-.1,0-.2,0-.4,0,0,0,0,0-.1,0,0,0,0,0-.1,0,0,0,0,0-.1,0,0,0,0,0-.1,0,0,0,0,0-.1,0,0,0,0,0-.1,0,0,0,0,0-.1,0,0-.1,0-.2,0-.1,0-.2,0-.3-.1,0,0-.1,0-.2-.1,0,0,0,0,0,0,0,0,0,0,0,0,0,0,0,0,0,0,0,0,0,0,0,0,0,0,0,0,0,0,0,0,0,0,0,0,0,0,0,0,0,0,0,0,0,0,0,0h.2s0,0,0,0h0s0,0,0,0c0,0,0,0,0,0,0,0,0,0,0,0,0,0,0-.2,0-.2,0-.2,0-.3-.1-.5,0-.1,0-.2-.1-.4,0,0,0,0,0-.1,0,0,0,0,0-.1,0,0,0,0,0-.1,0,0,0,0,0-.1,0,0,0,0,0-.1,0,0,0,0,0-.1,0,0,0,0,0-.1,0,0-.2,0-.2,0-.1,0-.2,0-.4,0,0,0-.2,0-.2,0,0,0,0,0,0,0,0,0,0,0,0,0,0,0,0,0,0,0,0,0,0,0,0,0,0,0,0,0,0,0,0,0,0,0,0,0,0,0,0,0,0,0l.8-.5c0,0,0-.1-.1-.2,0-.1-.2-.3-.3-.4,0-.1-.1-.2-.2-.3,0,0,0,0,0,0,0,0,0,0,0,0,0,0,0,0,0-.1,0,0,0,0,0,0,0,0,0,0,0-.1,0,0,0,0,0,0,0,0,0,0,0-.1,0,0-.1.1-.2.2-.1,0-.2.1-.4.2,0,0-.1,0-.2,0,0,0,0,0,0,0,0,0,0,0,0,0,0,0,0,0,0,0,0,0,0,0,0,0,0,0,0,0,0,0,0,0,0,0,0,0,0,0,0,0,0,0,0,0,0,0,0,0,0,0,0,0,0,0,0,0,0,0,0,0,0,0,0,0,0,0,0,0,0,0,0,0,0,0,0,0,0,0,0,0,0,0,0,0,0,0,0,0,0,0,0,0,0-.1-.1-.2-.1-.1-.2-.2-.3-.3,0,0-.2-.2-.2-.2,0,0,0,0,0,0,0,0,0,0,0,0,0,0,0,0,0,0,0,0,0,0,0,0,0,0,0,0,0,0,0,0,0,0,0,0,0,0,0,0,0,0,0,0,0,0,0,0,0,0-.1.1-.2.2-.1.1-.3.2-.4.3,0,0-.2,0-.3,0,0,0,0,0,0,0,0,0,0,0,0,0,0,0,0,0,0,0,0,0,0,0,0,0,0,0,0,0,0,0,0,0,0,0,0,0,0,0,0,0,0,0,0,0,0,0,0,0,0,0,0,0,0,0,0,0,0,0,0-.1,0,0,0,0,0-.1,0,0,0,0,0-.1,0,0,0,0,0-.1,0,0,0,0,0-.1,0,0,0,0,0-.1,0,0-.1,0-.2-.1-.1,0-.2-.2-.3-.3,0,0-.2-.1-.3-.2,0,0,0,0,0,0,0,0,0,0,0,0,0,0,0,0,0,0,0,0,0,0,0,0,0,0,0,0,0,0,0,0,0,0,0,0,0,0,0,0,0,0,0,0,0,0,0,0,0,0,0,.1-.1.2,0,.1-.2.3-.3.4,0,0-.2.1-.2.1,0,0,0,0,0,0,0,0,0,0,0,0,0,0,0,0,0,0,0,0,0,0,0,0,0,0,0,0,0,0,0,0,0,0,0,0,0,0,0,0,0,0,0,0,0,0,0-.1,0-.1.2-.3.2-.4,0,0,0,0,0-.1,0,0,0,0,0,0,0,0,0,0,0,0,0,0,0,0,0,0,0,0,0,0,0,0,0,0,0,0,0,0,0,0,0,0,0,0,0,0,0,0-.1-.1,0,0,0,0-.1-.1,0,0-.1,0-.1-.1,0,0-.1,0-.2-.1,0,0-.1,0-.2,0-.1,0-.2,0-.3-.1,0,0-.2,0-.3-.1,0,0,0,0,0,0,0,0,0,0,0,0,0,0,0,0,0,0,0,0,0,0,0,0,0,0,0,0,0,0,0,0,0,0,0,0,0,0,0,0,0,0,0,0,0,0,0,0,0,0,0,.1,0,.2,0,.1-.1.2-.2.3,0,.1-.1.2-.2.3,0,0-.1.1-.2.1,0,0,0,0,0,0,0,0,0,0,0,0s0,0,0,0c0,0,0,0,0,0,0,0,0,0,0,0,0,0,0,0,0,0,0,0,0,0,0,0,0-.1.1-.3.2-.4,0,0,0-.2,0-.2,0,0,0,0,0,0,0,0,0,0,0,0,0,0,0,0,0,0,0,0,0,0,0,0,0,0,0,0,0,0,0,0,0,0,0,0,0,0,0,0,0,0l-1.5-.5s0,0,0,0c0,0,0,.2,0,.2,0,.1-.1.3-.2.4,0,.1-.1.2-.2.3,0,0-.1,0-.2,0,0,0,0,0,0,0h0s0,0,0,0c0,0,0,0,0,0,0,0,0,0,0,0,0,0,0,0,0,0,0,0,0,0,0,0,0,0,0,0,0-.1,0-.2,0-.3.1-.5,0,0,0-.1,0-.2,0,0,0,0,0,0Z"/>
  <path class="st0" d="M1.2,28h0c0,.1.5,0,.5,0l8.3-3,.6-1.2c.5-.3,1-.6,1.5-.6-.5,0-1,.1-1.6.5l-.6.9-8.8,3.5h0ZM10,24.5h0s0,0,0,0h0Z"/>
  <path class="st0" d="M1.2,27.9h0s0,0,0,0h0Z"/>
</svg>