<?xml version="1.0" encoding="UTF-8"?>
<svg id="Layer_1" xmlns="http://www.w3.org/2000/svg" version="1.1" viewBox="0 0 91 90">
  <!-- Generator: Adobe Illustrator 30.0.0, SVG Export Plug-In . SVG Version: 2.1.1 Build 123)  -->
  <defs>
    <style>
      .st0 {
        fill: #403f3e;
      }
    </style>
  </defs>
  <path class="st0" d="M90.2,61.9s0,0,0,0c0,0,0,0,0,0,0,0,0,0,0,0,0,0,0,0,0,0s0,0,0,0c0,0,0,0,0,0,0,0,0,0,0,0,0,0,0,0,0,0,0,0,0,0,0,0,0,0,0,0,0,0,0,0,0,0,0,0,0,0,0,0,0,0,0,0,0-.1,0-.2,0,0,0-.1,0-.2,0,0,0-.1,0-.2,0,0,0-.1,0-.2,0,0,0,0,0,0,0,0,0,0,0,0,0,0,0-.1,0-.1,0,0,0-.1,0-.1,0,0,0,0,0-.1,0,0,0,0,0-.1,0,0,0-.2-.1-.3,0,0,0-.2-.1-.3,0,0,0-.2-.1-.2,0,0,0-.2-.1-.2,0,0-.1-.1-.2-.2,0,0-.1-.1-.2-.2,0,0-.1-.1-.2-.2,0,0-.1-.1-.2-.2,0,0,0,0,.1,0,0,0,.1,0,.2.1,0,0,.1,0,.2,0,0,0,0,0,.1,0,0,0,0,0,.1,0,0,0,0,0,0,0,0,0,0,0,0,0h0s0,0,0,0c0,0,0,0,0,0,0,0,0,0,0-.1,0,0,0,0,0-.1,0,0,0-.2,0-.2,0,0,0-.2,0-.2,0,0,0-.2-.1-.2,0,0,0-.2-.1-.2,0,0,0,0,0-.1,0,0,0,0,0-.1,0,0,0,0,0,0,0,0,0,0,0-.1,0,0,0,0,0,0,0,0,0,0,0,0,0,0-.1-.1-.2-.2,0,0-.1-.1-.2-.2,0,0-.1-.1-.2-.2,0,0-.1-.1-.2-.2,0,0-.2-.1-.2-.2,0,0-.2-.1-.2-.2,0,0-.2-.1-.3-.1,0,0-.2,0-.3-.1,0,0,0,0,0,0,0,0,0-.1,0-.2,0,0,0,0,0-.1,0,0,0-.1,0-.2,0,0,0,0,0-.1,0,0,0,0,0-.1,0,0,0-.1-.1-.2,0,0,0,0,0,0,0,0,0,0,0,0,0,0,0,0,0,0,0,0,0,0,0,0,0,0,0,0,0,0,0,0,0,0,0,0,0,0,0,0,0,0,0,0,0,0,0,0,0,0,0,0,0,0,0,0,0,0,0,0,0,0,0,0,0,0h0c0-.1,0-.2,0-.2,0,0,0,0,0,0,0,0,0,0,0,0,0,0,0,0,0,0,0,0,0,0,0,0,0,0,0,0,0,0,0,0,0,0,0,0s0,0,0,0c0,0,0,0,0,0,0,0,0,0,0,0,0,0,0,0,0,0,0,0,0,0,0,0,0,0,0,0,0,0,0,0,0,0,0,0,0,0,0,0,0,0,0,0,0,0,0,0,0,0,0,0,0,0,0,0,0,0,0,0,0,0,0,0,0,0,0,0,0,0,0,0,0,0,0,0,0,0,0,0,0,0,0,0,0,0,0,0,0,0,0,0,0,0,0,0,0,0,0,0-.1,0,0,0,0,0,0,0,0,0,0,0-.1,0,0,0,0,0-.1,0,0,0,0,0-.1,0,0,0,0,0-.1,0,0,0,0,0-.1,0,0,0,0,0-.1,0,0,0,0,0-.1,0,0,0,0,0-.1,0,0,0,0,0-.1,0,0,0,0,0-.1,0,0,0,0,0-.1,0,0,0,0,0-.1,0h-.1c0-.1,0-.1-.1-.2,0,0,0,0-.1,0,0,0,0,0-.1,0,0,0,0,0-.1,0,0,0,0,0,0,0,0,0,0,0,0,0,0,0,0,0-.1,0,0,0,0,0-.1,0,0,0,0,0-.1,0,0,0,0,0-.1,0,0,0,0,0-.1,0,0,0,0,0-.1,0,0,0,0,0-.1,0,0,0,0,0-.1,0,0,0,0,0-.1,0,0,0,0,0-.1,0,0,0,0,0-.1,0,0,0,0,0-.1,0,0,0,0,0-.1,0,0,0,0,0-.1,0,0,0,0,0-.1,0,0,0,0,0-.1,0,0,0,0,0-.1,0,0,0-.1,0-.2,0,0,0-.1,0-.2,0,0,0-.1,0-.2,0,0,0-.1,0-.2,0,0,0-.1,0-.2,0,0,0-.1,0-.2,0,0,0-.1,0-.2,0,0,0-.1,0-.2,0,0,0-.1,0-.2,0,0,0-.1,0-.2,0,0,0-.1,0-.2,0,0,0-.1,0-.2,0,0,0-.1,0-.2,0,0,0-.1,0-.2,0s-.1,0-.2,0c0,0-.1,0-.2,0,0,0-.1,0-.2,0,0,0-.1,0-.2,0,0,0-.1,0-.2,0,0,0-.1,0-.2,0,0,0-.1,0-.2,0,0,0-.1,0-.2,0,0,0-.1,0-.2,0,0,0-.1,0-.2,0,0,0-.1,0-.2,0h-.2c0-.1-.1-.1-.2-.2,0,0-.1,0-.2,0,0,0-.1,0-.2,0,0,0-.1,0-.2,0,0,0-.1,0-.2,0,0,0-.1,0-.2,0,0,0-.1,0-.2,0,0,0-.1,0-.2,0,0,0-.1,0-.2,0,0,0-.1,0-.2,0,0,0-.1,0-.2,0,0,0-.1,0-.2,0,0,0-.1,0-.2,0s-.1,0-.2,0c0,0-.1,0-.2,0,0,0-.1,0-.2,0,0,0-.1,0-.2,0,0,0-.1,0-.2,0,0,0-.1,0-.2,0,0,0-.1,0-.2,0,0,0-.1,0-.2,0,0,0-.1,0-.2,0,0,0-.1,0-.2,0,0,0-.1,0-.2,0,0,0-.1,0-.2,0,0,0-.1,0-.2,0,0,0-.1,0-.2,0,0,0-.1,0-.2,0,0,0-.1,0-.2,0,0,0-.1,0-.2,0,0,0-.1,0-.2,0,0,0-.1,0-.2,0,0,0-.1,0-.2,0,0,0-.1,0-.2,0,0,0-.1,0-.2,0,0,0-.1,0-.2,0h-.2c0,0-.1-.1-.2-.1,0,0-.1,0-.2,0,0,0-.1,0-.2,0h-.2c0,0-.1,0-.2-.1,0,0-.1,0-.2,0,0,0-.1,0-.2,0,0,0-.1,0-.2,0,0,0-.1,0-.2,0h-.2c0,0-.1,0-.2-.1s-.1,0-.2,0h-.2c0,0-.1,0-.2-.1,0,0-.1,0-.2,0,0,0-.1,0-.2,0,0,0-.1,0-.2,0,0,0-.1,0-.2,0,0,0-.1,0-.2,0s-.1,0-.2,0c0,0-.2,0-.2,0,0,0-.1,0-.2,0,0,0-.2,0-.2,0,0,0-.2,0-.2,0,0,0-.2,0-.2,0,0,0-.2,0-.2,0,0,0-.2,0-.2,0,0,0-.2,0-.2,0,0,0-.2,0-.2,0,0,0-.2,0-.2,0,0,0-.2,0-.2,0-.2,0-.3,0-.5,0-.2,0-.3,0-.5,0,0,0-.2,0-.2,0h-.2c0,0-.2,0-.2,0,0,0-.1,0-.2,0,0,0,0,0,0,0,0,0-.2,0-.2,0,0,0-.2,0-.2,0-.2,0-.5,0-.7-.1-.2,0-.5,0-.7-.1-.2,0-.3,0-.5,0-.2,0-.3,0-.5,0-.2,0-.3,0-.5,0-.2,0-.3,0-.5,0-.2,0-.3,0-.5,0-.2,0-.3,0-.5,0-.2,0-.3,0-.5,0-.2,0-.3,0-.5,0-.2,0-.3,0-.5,0,0,0-.2,0-.2,0,0,0-.2,0-.2,0,0,0-.2,0-.3,0,0,0-.2,0-.3,0-.1,0-.2,0-.3,0,0,0-.2,0-.2,0,0,0-.1,0-.2,0,0,0-.1,0-.2,0,0,0,0,0,0,0,0,0-.1,0-.2,0,0,0-.1,0-.2,0,0,0-.1,0-.2,0,0,0-.1,0-.2,0,0,0-.1,0-.2,0,0,0-.1,0-.2,0,0,0-.1,0-.2,0,0,0-.1,0-.2,0,0,0-.1,0-.2,0,0,0-.2,0-.2,0,0,0-.2,0-.2,0,0,0-.2,0-.2,0,0,0-.2,0-.2,0,0,0-.2,0-.2,0,0,0,0,0-.1,0,0,0,0,0-.1,0,0,0,0,0-.1,0,0,0,0,0-.1,0,0,0,0,0-.1,0,0,0,0,0-.1,0,0,0,0,0-.1,0,0,0,0,0-.1,0,0,0,0,0,0,0,0,0,0,0,0,0,0,0,0,0,0,0,0,0,0,0,0,0,0,0,0,0,0,0,0,0,0,0,0,0,0,0,0,0-.1,0h-.1c0,0,0,0-.1,0,0,0,0,0-.1,0s0,0-.1,0c0,0,0,0-.1,0,0,0,0,0-.1,0,0,0,0,0-.1,0s0,0-.1,0c0,0,0,0-.1,0,0,0,0,0-.1,0,0,0,0,0-.1,0,0,0,0,0-.1,0,0,0-.2,0-.2,0,0,0-.1,0-.2,0,0,0,0,0,0,0,0,0,0,0-.1,0,0,0-.2,0-.2,0-.1,0-.3,0-.4-.1-.1,0-.3,0-.4-.1s-.3,0-.4,0c-.1,0-.3,0-.4-.1-.1,0-.3,0-.4,0,0,0-.2,0-.3,0,0,0-.2,0-.3,0,0,0-.2,0-.3,0-.1,0-.2,0-.3,0-.1,0-.2,0-.3,0-.1,0-.2,0-.3,0-.1,0-.2,0-.3,0,0,0-.1,0-.2,0h-.3c0,0-.1,0-.2,0,0,0-.1,0-.2,0,0,0-.1,0-.2,0,0,0-.1,0-.2,0,0,0-.1,0-.2,0,0,0-.1,0-.2,0,0,0-.1,0-.2,0,0,0-.1,0-.2,0,0,0-.1,0-.2,0,0,0-.1,0-.2,0s-.1,0-.2,0c0,0-.1,0-.2,0,0,0-.1,0-.2,0,0,0-.1,0-.2,0,0,0-.1,0-.2,0,0,0-.1,0-.2,0,0,0,0,0,0,0,0,0-.1,0-.2,0,0,0,0,0-.1,0,0,0,0,0,0,0,0,0,0,0-.1,0,0,0,0,0-.1,0,0,0,0,0-.1,0,0,0,0,0-.1,0,0,0-.1,0-.2,0,0,0-.1,0-.2,0,0,0-.1,0-.2,0,0,0-.2,0-.2,0,0,0-.2,0-.2,0,0,0-.2,0-.2,0,0,0-.2,0-.2,0,0,0,0,0-.1,0,0,0-.2,0-.2,0,0,0-.2,0-.2,0,0,0-.2,0-.2,0,0,0-.2,0-.3,0,0,0-.2,0-.3,0,0,0-.2,0-.3,0,0,0-.2,0-.3,0,0,0-.2,0-.3,0,0,0-.2,0-.3,0,0,0,0,0-.1,0,0,0,0,0-.1,0,0,0,0,0-.1,0,0,0,0,0-.1,0,0,0,0,0-.1,0,0,0,0,0-.1,0s0,0-.1,0h-.1s0,0-.1,0c0,0,0,0-.1,0,0,0,0,0-.1,0,0,0,0,0-.1,0,0,0,0,0-.1,0,0,0,0,0-.1,0,0,0,0,0-.1,0,0,0,0,0-.1,0,0,0,0,0-.1,0,0,0,0,0-.1,0,0,0,0,0,0,0,0,0,0,0,0,0,0,0,0,0,0,0,0,0,0,0,0,0,0,0,0,0,0,0,0,0,0,0,0,0h0s0,0,0,0c0,0,0,0,0,0,0,0,0,0,0,0,0,0,0,0,0,0,0,0,0,0,0,0s0,0,0,0c0,0,0,0,0,0,0,0,0,0,0,0,0,0,0,0,0,0,0,0,0,0-.1,0,0,0,0,0-.1,0,0,0-.2,0-.3,0,0,0-.2,0-.3,0,0,0-.2,0-.3,0,0,0-.2,0-.3,0,0,0,0,0-.1,0,0,0,0,0-.1,0,0,0,0,0-.1,0,0,0,0,0-.1,0,0,0,0,0-.1,0,0,0,0,0-.1,0,0,0-.2,0-.3,0,0,0-.2,0-.3,0,0,0-.2,0-.3,0s-.2,0-.3,0c0,0-.2,0-.3,0,0,0-.2,0-.3,0,0,0-.2,0-.3,0,0,0-.2,0-.3,0h-2c0,0,0,0-.1.1h-.1s0,0-.1,0c0,0,0,0-.1,0,0,0-.2,0-.2,0,0,0-.2,0-.2,0,0,0-.1,0-.2-.1,0,0-.1-.1-.2-.2,0,0,0,0,0-.1,0,0,0,0,0-.1,0,0,0,0,0-.1,0,0,0,0,0-.1,0,0,0,0,0-.1s0-.1,0-.2c0,0,0-.1,0-.2,0,0,0-.1,0-.2,0,0,0-.1,0-.2,0,0,0-.1,0-.2,0,0,0-.1,0-.2,0,0,0-.1,0-.2,0,0,0-.1,0-.2,0,0,0-.1,0-.2.4.1.8.1,1.3,0-.5-.2-.9-.5-1.1-.8,0,0,0-.1-.1-.2,0,0,0,0,0,0,0,0,0,0,0-.1,0,0,0-.2-.1-.2,0,0,0,.2.1.2,0,0,0,0,0,.1,0,0,0,0,0,0,0,0,0,.1.1.2,0,0,0-.1,0-.2,0,0,0-.1,0-.2,0,0,0-.1,0-.2,0,0,0-.1,0-.2,0,0,0-.1,0-.2,0,0,0-.1,0-.2,0,0,0-.1,0-.2,0,0,0-.1,0-.2,0,0,0-.1,0-.2,0,0,0-.1,0-.2,0,0,0-.1,0-.2,0,0,0-.1,0-.2,0,0,0-.1,0-.2,0,0,0-.1,0-.2,0,0,0-.1,0-.2,0,0,0-.1,0-.2,0,0,0-.1,0-.2,0,0,0-.1,0-.2,0,0,0-.1,0-.2,0,0,0-.1,0-.2,0,0,0-.1,0-.2,0,0,0-.1,0-.2,0,0,0-.1,0-.2,0,0,0-.1,0-.2h0c0,0,0-.2,0-.3,0,0-.1,0-.2-.1,0,0,.1,0,.2.1,0,0,0,0,0,0,0,0,0-.2,0-.3,0,0,0-.2,0-.3,0,0,0-.2,0-.3,0,0,0-.2,0-.3,0,0,0-.1,0-.2,0,0,0-.2,0-.3,0,0,0-.2,0-.3,0,0,0-.2,0-.3,0,0,0-.2,0-.3,0,0,0-.2,0-.3,0,0,0-.1,0-.2.5.4,1.1.4,1.7.2-.8-.3-1.3-.9-1.6-1.7,0,.1,0,.2,0,.4v.7c-.1,0-.2,0-.3,0,0,0-.1,0-.2,0,0,0,.1,0,.2,0,0,0,.1,0,.2,0v-.7c0,0,0-.1,0-.2,0,0,0-.1,0-.2h0c0,0,0-.1,0-.2,0,0,0-.1,0-.2s0-.1,0-.2c0,0,0-.1,0-.2,0,0,0-.1,0-.2,0,0,0,0,0-.1,0,0,0-.2,0-.3,0,0,0-.2,0-.2,0,0,0-.2,0-.2,0,0,0-.2,0-.2,0,0,0-.1,0-.2,0,0,0-.1-.1-.2,0,0,0-.1-.1-.2,0,0,0-.1-.1-.2,0,0,0-.1-.1-.2,0,0,0-.1-.1-.2,0,0,0-.1-.1-.2,0,0-.1-.1-.2-.2,0,0-.1,0-.2-.1,0,0-.1,0-.2-.1,0,0-.1,0-.2-.1,0,0-.1,0-.2-.1,0,0-.1,0-.2-.1,0,0-.1,0-.2,0,0,0-.1,0-.2,0,0,0-.1,0-.2,0,0,0-.1,0-.2,0,0,0-.1,0-.2,0,0,0-.1,0-.2,0,0,0-.1,0-.2,0,0,0-.2,0-.2,0,0,0-.2,0-.2,0,0,0-.2,0-.2,0,0,0-.2,0-.2,0,0,0-.2,0-.2,0s-.2,0-.2,0c0,0-.2,0-.2,0,0,0-.2,0-.2,0,0,0-.2,0-.2,0,0,0-.2,0-.2,0,0,0-.2,0-.2,0,0,0-.2,0-.2,0,0,0-.2,0-.2,0,0,0-.2,0-.2,0,0,0-.2,0-.2,0,0,0-.2,0-.2,0,0,0-.2,0-.2,0s-.2,0-.2,0c0,0-.1,0-.2,0,0,0-.1,0-.2,0,0,0-.1,0-.2,0,0,0-.1,0-.2,0,0,0-.1,0-.2,0,0,0-.1,0-.2,0s-.1,0-.2,0c0,0-.1,0-.2,0,0,0-.2,0-.2,0,0,0-.1,0-.2,0,0,0-.1,0-.2,0,0,0-.1,0-.2.1,0,0-.1,0-.2.1,0,0-.1,0-.2.1,0,0-.1,0-.2.1,0,0-.1,0-.2.1,0,0-.1,0-.2.1,0,0-.1,0-.2.1,0,0-.1,0-.2.1,0,0-.1,0-.2.1,0,0-.1.1-.2.2,0,0-.1.1-.2.2s-.1.1-.2.2c0,0-.1.1-.2.2,0,0-.1.1-.2.2,0,0-.1.1-.2.2,0,0-.1.1-.2.2v.2c-.2,0-.2,0-.3.1,0,0,0,0-.1.1,0,0,0,0-.1.1,0,0,0,0-.1.1,0,0,0,0-.1.1,0,0,0,0-.1.1,0,0,0,0-.1.1,0,0,0,0-.1.1,0,0-.1,0-.2.1,0,0-.1,0-.2.1,0,0-.1,0-.2.1s-.1,0-.2.1c0,0-.1,0-.2.1,0,0-.1,0-.2.1,0,0-.1,0-.2.1s-.1,0-.2.1c0,0-.1,0-.2.1,0,0-.1,0-.2.1,0,0-.1,0-.2.1,0,0-.1,0-.2.1,0,0-.1,0-.2.1,0,0-.1,0-.2.1,0,0-.1,0-.2.1,0,0-.1,0-.2.1,0,0-.1,0-.2.1,0,0-.1,0-.2.1,0,0,0,0-.1,0,0,0,0,0-.1,0,0,0,0,0-.1,0,0,0-.1,0-.2.1,0,0-.1,0-.2.1,0,0-.1.1-.2.2,0,0,0,.1-.1.2-.1.2-.2.4-.2.6,0,.5,0,1,0,1.5,0,0,0,.1,0,.2.2.2.5.3.9.1,0,0,0,0,0,0h0s0,0,0,0h0s0,.1,0,.1l.5-.2,8.3-3,.6-1.2c.5-.3,1-.6,1.5-.6h0c-.5,0-1,.3-1.5.6l-.6,1.2-8.3,3-.5.2c.4.4,1.1.6,2.1.3,0,0,0,0,0,0,0,0,0,0,0,0,0,0,.2,0,.2,0,0,0,.2,0,.2,0,0,0,.2,0,.2,0,0,0,.2,0,.2,0,0,0,.2,0,.2,0,0,0,.2,0,.2,0,0,0,.1,0,.2,0,0,0,.1,0,.2,0h.2c0,0,.1,0,.2,0,0,0,.1,0,.2,0,0,0,.1,0,.2,0,0,0,.1,0,.2,0,0,0,.1,0,.2,0,0,0,.1,0,.2,0,0,0,.1,0,.2,0,0,0-.1,0-.2,0,0,0-.1,0-.2,0,0,0-.1,0-.2,0,0,0-.1,0-.2,0,0,0-.1,0-.2,0,0,0-.1,0-.2,0,0,0-.2,0-.3-.1,0,0,.1,0,.2,0,0,0,.1,0,.2,0,.1,0,.2,0,.3,0,.1,0,.2,0,.3,0,.1,0,.2,0,.3,0,.1,0,.2,0,.3,0,.1,0,.2,0,.3,0,.1,0,.2,0,.3,0,0,0,.2,0,.3,0,0,0,0-.1-.1-.2,0,0,0-.1,0-.2,0,0,0,0,0-.1,0,0,0,0,0-.1,0,0,.1,0,.2,0,0,0,.2,0,.3,0,0,0,.2,0,.3,0,0,0,.2,0,.3,0,0,0,.2,0,.3,0,0,0,.2,0,.3,0,0,0,.2,0,.2,0,0,0,.2,0,.2,0,0,0,0,0,.1,0l1.8-.5s0,0,.1,0c0,0,.2,0,.2,0,0,0,.1,0,.2,0s.1,0,.2,0c0,0,.2,0,.2,0,0,0,0,0,.1,0,0,0,.1,0,.2.1,0,0,0,0,0,0,0,0,0,0,0,0,0,0,0-.1-.2-.1,0,0,0,0-.1,0,0,0-.2,0-.2,0,0,0-.1,0-.2,0s-.1,0-.2,0c0,0-.2,0-.2,0,0,0,0,0-.1,0l-1.8.5c.2.2.4.5.4,1,0,.2,0,.5,0,.8,0,.8-.3,1.7-.7,2.8,0,0,0,.1,0,.2-.5,1.2-.9,2.4-1.2,3.6-.2.9-.4,1.8-.4,2.8,0,.4,0,.8,0,1.2h0c0-.4,0-.8,0-1.2-.4,1-.8,1.8-1.2,2.6-.4.8-.8,1.5-1.3,2.3-.4.7-.9,1.4-1.3,2.1-.4.7-.9,1.4-1.3,2.2-.3.6-.6,1.1-.8,1.7,0,.2-.2.4-.2.6,0,.2-.2.5-.2.7-.1.6-.1,1.2,0,1.8.1.9.5,1.5,1.2,1.8h0q0-.1,0-.1c0,0,0,.1,0,.2.2.7.4,1.3.7,1.8.1-.2,0-.4,0-.7-.1-.3-.1-.6,0-1,0-.1,0-.2.1-.4,0,.1,0,.3-.1.4.7.3,1.3.2,1.8-.3.4.7,1,1.4,1.5,2,0-.3,0-.6-.3-1-.2-.3-.4-.6-.4-1,0-.3,0-.5,0-.9,0,0,0,0,0,0,0-.2-.1-.3-.3-.4-.1,0-.3-.1-.4,0,.2,0,.3,0,.4,0,.1,0,.2.2.3.4,0,0,0,0,0,0,0,.3,0,.6,0,.9.8.5,1.4.4,1.7-.2.5.5,1,.9,1.6,1.2,0-.2-.1-.4-.4-.6,0,0,0,0,0,0,0,0,0,0,0,0,0,0,0,0,0,0-.1-.1-.2-.2-.3-.4-.1-.2-.2-.5-.3-.9,0,0,0,0,0,0,0-.1-.1-.2-.3-.2,0,0-.1,0-.2,0,0,0,.1,0,.2,0,.1,0,.2,0,.3.2,0,0,0,0,0,0,0,.3.2.6.3.9.1.1.3.2.4.3,0,0,0,0,0,0,.8.5,1.4.5,1.8,0,.8.6,1.4.5,1.7-.2,0,0,0,.1,0,.2,0,0,0,.1,0,.2,0,0,0,0,0,0,0,0,0,0,0,0-.2.5-.5.9-.7,1.4-.3.8-.6,1.7-.7,2.5.4-.1.7-.5.9-1.1.2-.5.5-1,1.1-1.4,0,0,0,0,0,0,0,0,.1,0,.2-.1,0,0,.1,0,.2-.1,0,0,.1,0,.2-.1,0,0,0,0,.1-.1,0,0,.1-.1.1-.2,0,0,0-.1,0-.2h0c0,0,0,.2,0,.2,0,0,0,.1-.1.2,0,0,0,0-.1.1,0,0-.1,0-.2.1,0,0-.1,0-.2.1,0,0-.1,0-.2.1,0,0,0,0,0,0,0,0,0,.2,0,.2,0,0,0,.1,0,.2,0,0,0,.1,0,.2,0,0,0,.1,0,.2,0,0,0,.1,0,.2,0,0,0,.1,0,.2,0,0,0,0,0,.1,0,0,0,0,0,.1h0c-.2.8-.2,1.7-.2,2.5.2-.2.3-.4.4-.8,0-.2,0-.5.2-.7,0,0,0,0,0,0,0,0,0-.1.1-.2,0,0,0-.1.1-.2,0,0,.1-.1.2-.2,0,0,0,0,0-.1,0,0,0-.1,0-.2h0c0,0,0,.1,0,.2,0,0,0,0,0,.1,0,0-.1.1-.2.2,0,0,0,.1-.1.2,0,0,0,.1-.1.2,0,0,0,0,0,0,0,0,0,0,0,.1,0,0,0,0,0,.1,0,0,0,0,0,.1,0,0,0,0,0,.1,0,0,0,0,0,.1,0,0,0,0,0,.1,0,0,0,.1.1.2,0,0,0,.1.1.2,0,0,0,.1.1.2,0,0,0,.1.1.2,0,0,0,0,.1.1h0c0,.3,0,.5,0,.8.1,0,.2-.2.3-.3,0,0,0,0,0,0,0,0,0-.1,0-.2,0,0,0-.2,0-.2,0,0,0-.1,0-.2,0,0,0-.1,0-.2,0,0,0-.1,0-.2,0,0,0-.1,0-.2,0,0,0-.1.1-.2,0,0,0-.1.1-.2,0,0,.1-.1.2-.2,0,0,.1-.1.2-.2,0,0,0,0,0-.1h0s0,0,0,.1c0,0-.1.1-.2.2,0,0-.1.1-.2.2,0,0,0,.1-.1.2,0,0,0,.1-.1.2,0,0,0,.1,0,.2,0,0,0,.1,0,.2,0,0,0,.1,0,.2,0,0,0,.1,0,.2,0,0,0,.2,0,.2,0,0,0,.1,0,.2,0,0,0,0,0,0,0,0,.1,0,.2.2,0,0,.1,0,.2.1,0,0,.1,0,.2,0,0,0,0,0,.1,0,0,0,0,0,.1,0,0,0,0,0,.1,0,0,0,0,0,0,0,0,0,0,0,0,0,0,0,0,.1.1.2,0,0,0,.1.1.2,0,0,0,.1.1.2,0,0,0,.1.1.2,0,0,0,.1.1.2,0,0,0,.1.1.2,0,0,0,.1.1.2,0,0,0,.1.1.2,0,0,.1.1.2.2,0,0,.1.1.2.2,0,0,.1.1.2.2,0,0,.1,0,.2.1,0,0,.1,0,.2.1,0,0,.1,0,.2.1,0,0,.1,0,.2.1,0,0,.1,0,.2.1,0,0,.1,0,.2.1,0,0,.1,0,.2.1,0,0,.2,0,.2,0,0,0,.1,0,.2,0,0,0,.2,0,.2,0,0,0,.2,0,.2,0,0,0,.2,0,.2,0,0,0,.2,0,.2,0,0,0,.1,0,.2,0s.1,0,.2,0c0,0,.1,0,.2,0,0,0,.1,0,.2,0,0,0,.1,0,.2,0,0,0-.1,0-.2,0v.9c-.1.3-.3.5-.6.7,0,0-.2.1-.3.2-1.1.5-2.3.9-3.4,1.1h0c-.4,0-.7.1-.9.6l1,.2c.2-.3.2-.5,0-.6.1.2.1.4,0,.6.4.2.8.2,1.4,0l-1,.8s0,0,0,0c-.3.2-.5.7-.7,1.3.4,0,.8,0,1.2,0,.2-.3.3-.5.2-.7,0,.2,0,.4-.2.7l3.7-1.9c0,0,0,.1,0,.2v.2c.4.3.7.5,1.2.6.7,0,1.2-.2,1.6-.7.2-.7.2-1.4,0-2.2,0-.3-.1-.5-.2-.5,0,0-.1,0-.2-.2.5.2,1.1.2,1.7,0-.4-.2-.7-.3-1-.6h.2c0,0,.1,0,.2,0,0,0,.1,0,.2,0,0,0,.1,0,.2,0,0,0,.1,0,.2,0,0,0,.1,0,.2,0,0,0,.1,0,.2,0,0,0,.1,0,.2,0,0,0,.1,0,.2,0,0,0,.1,0,.2,0,0,0,.1,0,.2,0,0,0,.1,0,.2,0,0,0,.1,0,.2,0,0,0,.1,0,.2,0,0,0,.1,0,.2,0,0,0,.1,0,.2-.1,0,0,0,0,0,0h0s0,0,0,0c.9.4,1.7.3,2.5-.2-.5,0-.9-.2-1.3-.4,0,0,.1-.1.2-.2,0,0,0-.1.1-.2,0,0,0-.2,0-.2,0,0,0,0,0-.1,0,0,0,0,0-.1,0,0,0,0,.1-.1,0,0,.1-.2.2-.3,0,0,.1-.2.2-.3,0,0,0,0,0-.1l.2-.3c0,0,.1-.2.1-.3,0,0,0,0,0-.1,0,0,0,0,0-.1,0,0,0,0,0-.1,0,0,0,0,0-.1,0,0,0,0,0-.1,0,0,0,0,0-.1.6.2,1.2.2,1.9,0-.6-.3-1.1-.6-1.5-1.1,0,0,0,0,0-.1,0,0,0,0,0-.1,0,0,0,0,0-.1,0,0,0,0,0-.1,0,0,0,0,0-.1,0,0,0,0,0-.1,0,0,0,0,0-.1,0,0,0-.1,0-.1v-.2c0,0,0-.1,0-.2,0,0,0,.1,0,.2v.2c.7.7,1.3,1.3,1.8,1.8,0,0,0,0,.1,0,.6.5,1.2,1,2,1.5.5.3.9.7,1.2,1.1,0,0,.1.1.2.2h0c0,.2,0,.4,0,.6-.2,1-.6,2-1.1,3-.1,0-.4,0-.7.4,0-.3-.1-.4-.4-.4,0,0,0,.2,0,.3,0,.3-.3.6-.6.7-.2,0-.6,0-1-.2h0s0,0,0,0h0c.4.2.7.2,1,.2.3-.1.5-.4.6-.7,0-.1,0-.2,0-.3,0,0,0,0,0,0,0-.6-.2-1.1-.6-1.5-.4-.4-.9-.6-1.5-.6-.6,0-1.1.2-1.5.6-.4.4-.6.9-.6,1.5h.1c0-.2.2-.5.4-.7.2-.2.4-.4.7-.4,0,0,.2,0,.3,0,.4,0,.7.2.9.5.2.3.3.6.3,1,0,0,0,0,0,0h0s-.2.2-.2.2c-.1.1-.1.3,0,.6,0,0,0,.3,0,.6,0,.2.2.4.3.4-.4.3-.7.6-1,1h0c-.5.5-.7,1.1-.7,1.7.5-.4,1.1-.6,1.5-.8,0-.3,0-.6-.2-.8.2.2.2.4.2.8l3.1-1.3-.8,1.6h0c-.2.6-.3,1.2-.2,1.7.5-.6,1-.9,1.4-1h0s1.8-2.3,1.8-2.3c.1-.2.2-.5,0-.7,0,0,0,0,0,0-.3-1.5.3-3.5,1.6-6,.3-.7,0-1.1-.7-1.3-.2,0-.3,0-.5-.2,0,0-.2,0-.2-.1.2.5.3.9.3,1.1,0-.2-.1-.6-.3-1.1-.3-.2-.6-.4-.9-.7-1.1-1.7-2.1-4-2.9-6.7h0s0,0,0,0c0,0,.1,0,.2,0,2,0,3.9-.3,5.7-1.1.8-.3,1.4-.7,2-1.2.5-.4,1-.9,1.3-1.5,1.5-.2,3-.9,4.4-1.9,1,.1,2.1-.2,3.5-1.1,2.2.6,3.6.8,4.2.6.5.2.9.4,1.4.5,2,.7,3.1,1,3.6.8,3.6,1.4,5.4,1.8,5.3,1.1,2.3,1.7,3.8,2.3,4.5,1.8,1.6,2.6,2.8,3.8,3.5,3.7.8,2.4,1.6,3.4,2.2,3.2,0,.4-.2.9-.6,1.4-.3.3-.6.6-1,.9.2.2.5.1.9-.2,0,.8-.9,1.8-2.7,2.8.2.2.4.2.7.2,0,0,0,0,0,0,0,0,0,0,0,0,0,0,0,0,0,0,0,0,0,0,0,0,0,0,0,0,0,0,0,0,0,0,0,0,0,0,0,0,0,0,0,0,0,0,0,0,0,0,0,0,0,0,0,0,0,0,0,0,0,0,0,0,0,0,0,0,0,0,0,0,0,0,0,0,0,0,0,0,0,0,0,0,0,0,0,0,0,0,0,0,0,0,0,0,0,0,0,0,0,0,0,0,0,0,0,0,0,0,0,0,0,0,0,0,0,0,0,0,0,0,0,0,0,0,0,0,0,0,0,0,0,0,0,0,0,0,0,0,0,0,0,0,0,0,0,0,0,0,0,0,0,0,0,0,0,0,0,.1,0,.2,0,0,0,.1,0,.2,0,0,0,.1,0,.2,0,0,0,.2,0,.2,0,0,0,0,0,0,0,0,0,0,0,.1,0,0,0,0,0,0,0,0,0,0,0,0,0,0,0,0,0,0,0,0,0,0,0,0,0,0,0,0,.1,0,0,0,0,0,0,0,0,0,0,0,.1,0,0,0,0,0,0,0,0,0,0,0,.1,0,0,0,.1,0,.2-.1,0,0,0,0,.1-.1,0,0,0,0,.1-.1,0,0,0,0,0,.1,0,0,0,0,0,0,0,0,0,0,0,0,0,0,0,0,0,0,0,0,0,0,0,0,0,0,0,0,0,0,0,0,0,.1,0,.1,0,0,0,.2-.1.3,0,0,0,0,0,.1,0,0,0,0-.1.1,0,0,0,0,0,0,0,0,0,0-.1,0,0,0-.1,0-.2,0,0,0,0,0,0,0,0,0-.1,0-.2,0,0,0,0,.1,0,.2,0,0,0,0,0,.1,0,0,0,.2,0,.3,0,0,0,.2,0,.3,0,0,0,.2,0,.2,0,0,0,.2,0,.2,0,0,0,0,0,.1,0,0,0,0,0,0,0,0,0,0,0,.1,0,0,0,0,0,0h0c0,.1,0,.1,0,.2,0,0,0,.1.1.2,0,0,0,0,.1.1,0,0,0,0,.1.1,0,0,.1,0,.2.1,0,0,.1,0,.2,0,0,0,.1,0,.2,0,0,0,.1,0,.2,0,0,0,.1,0,.2,0,0,0,0,0,0,.1,0,0,0,0-.1.1,0,0,0,0-.1,0,0,0-.1,0-.2,0,0,0-.1,0-.2,0,0,0-.2,0-.2,0,0,0-.2,0-.3,0,0,0-.2,0-.3,0,0,0,0,0,0,0,0,0,0,0,0,0,0,0,0,0,0,0,0,0,0,0,0,0,0,0,0,0,0,0,0,0,0,0,0,0,0,0,0,0,.1,0,0,0,0,0,0,0,0,0,0,0,0,0h.2c0,0,.1,0,.2.1,0,0,.1,0,.2,0,0,0,0,0,0,0,0,0,0,0,0,0,0,0,.1,0,.2,0,0,0,0,0,0,0,0,0,0,0,0,0,0,0,.1,0,.2,0,0,0,0,0,0,0,0,0,0,0,0,0,0,0,.1,0,.2,0h.2s0,0,0,0c0,0,0,0,0,0,0,0,0,0,0,0,0,0,0,0,0,0,0,0,.1,0,.2,0,0,0,.1,0,.2,0,0,0,.1,0,.2,0,0,0,.1,0,.2,0,0,0,0,0,0,0,0,0,0,0,0,0,0,0,0,0,0,0,0,0,0,0,0,0,0,0,0,0,0,0,0,0,0,0,0,0,0,0,.1,0,.2,0,0,0,.1,0,.2,0,0,0,.1,0,.2,0,0,0,.1,0,.2,0,0,0,.1,0,.2,0,0,0,.1,0,.2,0,0,0,.1,0,.2,0,0,0,.1,0,.2-.1,0,0,0,.1,0,.2,0,0,0,.1,0,.2s0,.1,0,.2c0,0,0,0-.1.1,0,0,0,0-.1.1,0,0-.1,0-.2.1,0,0-.1,0-.2.1,0,0-.2,0-.3.1,0,0,0,0,.1,0,0,0,0,0,.1,0,0,0,0,0,.1,0,0,0,0,0,.1,0,0,0,0,0,.1,0,0,0,.2,0,.3,0h.3c0-.1.2-.2.3-.2,0,0,.2,0,.3-.1,0,0,0,0,.1,0,0,0,0,0,.1,0,0,0,0,0,.1,0,0,0,0,0,.1,0,0,0,0,0,.1,0,0,0,0,0,.1,0,0,0,.2-.1.2-.2,0,0,.2-.1.2-.2,0,0,.2-.1.2-.2,0,0,.2-.1.2-.2,0,0,.1-.1.2-.2,0,0,.1-.1.2-.2,0,0,0,0,.1-.1,0,0,0,0,.1-.1,0,0,0,.2,0,.3,0,0,0,.2,0,.2,0,0,0,.2,0,.2,0,0,0,.1,0,.2,0,0,0,.1-.1.2,0,0-.1.1-.2.2,0,0-.1,0-.2.1,0,0-.2,0-.3.1,0,0,.1,0,.2,0,0,0,.1,0,.2,0s.1,0,.2,0c0,0,0,0,.1,0,0,0,.1,0,.2,0,0,0,0,0,.1,0,0,0,.1,0,.2,0,0,0,0,0,.1,0,0,0,.1,0,.2,0,0,0,0,0,.1,0,0,0,0,0,.1,0h.1c0,0,0,0,.1-.1,0,0,0,0,.1,0,0,0,0,0,.1,0,0,0,.2,0,.3-.1,0,0,.2,0,.3-.2,0,0,0,0,.1,0,0,0,0,0,.1,0,0,0,0,0,0,0,0,0,0,0,0,0,0,0,0,0,0,0,0,0,0,0,0,0,0,0,0,0,0,0,0,0,0,0,0,0,0,0,0,0,.1,0,0,0,0,0,.1-.1,0,0,0,0,.1,0,0,0,0,0,.1-.1,0,0,0,0,.1-.1,0,0,0,0,.1-.1,0,0,0,0,.1-.1,0,0,0,0,.1-.1,0,0,.1.1.2.2,0,0,0,0,.1.2,0,0,0,.1,0,.2,0,0,0,.1,0,.2s0,.1,0,.2c0,0,0,.1,0,.2,0,0,0,.1-.1.2,0,0-.1.1-.2.2,0,0,0,0,.1,0,0,0,0,0,.1,0,0,0,0,0,.1,0,0,0,0,0,.1,0,0,0,0,0,.1,0,0,0,0,0,.1,0,0,0,.1,0,.2-.1,0,0,.1,0,.2-.1,0,0,.1-.1.2-.2,0,0,.1-.1.2-.2,0,0,0,0,.1,0,0,0,0,0,.1,0,0,0,0,0,.1,0,0,0,0,0,.1,0,0,0,0,0,0-.1,0,0,0,0,0-.1,0,0,.1-.1.2-.2,0,0,.1-.2.2-.2,0,0,.1-.2.2-.2,0,0,.1-.2.2-.3,0,0,.1-.2.2-.3,0,0,0,0,0-.1,0,0,0,0,0-.1,0,0,0,0,0-.1,0,0,0,.1,0,.2,0,0,0,.2,0,.2,0,0,0,.1,0,.2,0,0,0,0,0,.1,0,0,0,0,0,.1,0,0,0,0,0,0,0,0,0,0,0,0,0,0,0,0,0,0,0,0,0,0,0,0,0,0,0,0,0,0,0,0,0,0,0,0,0,0,0,0,0,0,0,0,0,0,0,0,0,0,0,0,.1-.1,0,0,0,0,0-.1,0,0,0-.1,0-.2,0,0,0-.1,0-.2,0,0,0,0,0,0,0,0,0,0,0,0,0,0,0,0,0,0,0,0,0,0,0,0,0,0,0,0,0,0,0,0,0,0,0,0,0,0,0-.1,0-.2,0,0,0-.1,0-.2,0,0,0-.1,0-.2,0,0,0-.1,0-.2,0,0,0-.1,0-.2,0,0,0-.2,0-.2,0,0,0-.2,0-.2,0,0,0-.2,0-.2,0,0,0,0,0,.1,0,0,0,.1,0,.2,0,0,0,.1,0,.2,0,0,0,0,0,0,0,0,0,0,0,.1,0,0,0,0,0,.1,0,0,0,0,0,.1,0,0,0,0,0,0,0,0,0,0,0,0,0,0,0,0,0,0,0,0,0,0,0,0,0,0,0,0,0,0,0,0,0,0,0,0,0,0,0,0,0,0,0,0,0,0,0,0,0,0,0,0,0,0,0,0,0,0,0,0,0,0,0,0,0-.1,0,0,0-.1,0-.2v-.2c0,0,0-.1,0-.2,0,0,0-.1,0-.2,0,0,0-.1,0-.2s0-.1,0-.2c0,0,0-.1,0-.2s0-.1,0-.2c0,0,0-.1,0-.2s0-.1,0-.2c0,0,0,0,0,0,0,0,0,0,0,0,0,0,0-.1,0-.2,0,0,0,0,0,0,0,0,0,0,0,0,0,0,0,0,0,0,0,0,0,0,0,0,0,0,0,0,0,0,0,0,0,0,0,0,0,0,0,0,0,0,0,0,0,0,0,0,0,0,0-.1,0-.2,0,0,0-.1,0-.2,0,0,0-.1,0-.2v-.2c0,0,0,0,0,0,0,0,0,0,0,0,0,0,0,0,0,0,0,0,0,0,0,0,0,0,0,0,0,0,0,0,0,0,0,0,0,0,0-.1,0-.2,0,0,0-.1,0-.2,0,0,0-.1,0-.2,0,0,0-.1,0-.2,0,0,0-.1,0-.2,0,0,0-.1,0-.2,0,0,0-.1,0-.2,0,0,0-.1,0-.2,0,0,0,0,0,0,0,0,0,0,0,0,0,0,0,0,0,0,0,0,0,.1.1.2,0,0,0,0,.1.1,0,0,0,.1.1.2,0,0,.1.2.2.2,0,0,0,.1.1.2,0,0,0,0,.1.1,0,0,0,0,0,0,0,0,0,0,0,0,0,0,0,0,0,0,0,0,0,0,0,0,0,0,0,0,0,0,0,0,0,0,0,0,0,0,0,0,0,0ZM3.9,50.9s0,0,0,0c0,0,0,0,0,0ZM5.1,53.7c0,0,0,.1,0,.2,0,0,0-.1,0-.2ZM4.2,51.8s0,0,0,0c-.5,0-.9,0-1.3-.4h0c.4.3.8.4,1.3.4ZM2.9,54.7h0c0-.1,0-.2.1-.3,0,0-.1.2-.1.3ZM3.7,54.7c0-.1,0-.2-.1-.3,0,0-.2-.1-.3-.1h0c.1,0,.2,0,.3.1,0,0,.1.2.1.3h0ZM5.6,52.5c-.9-.4-1.5-1-1.8-1.9h0c.3.9.9,1.5,1.8,1.9,0,0,0,0,0,0ZM80.5,51.2h0c-.2.3-.3.6-.3,1,0-.3,0-.7.3-1ZM79.8,51.9c.1.1.3.2.5.3h0c-.2,0-.3-.2-.5-.3-.1-.1-.2-.3-.3-.5h0c0,.2.2.4.3.5ZM79.7,56.4h0c-.4-.5-.6-1-.6-1.6,0,.6.2,1.1.6,1.6ZM79.2,54.3h0c-.2.2-.3.5-.3.7,0-.3.1-.5.3-.7ZM78.9,55.3h0c-.4-.2-.6-.4-.8-.8h0c.2.4.4.7.8.8ZM77.8,56.5s0,0,0,.1c0,.1,0,.2.1.4,0,.2,0,.3.1.5,0,0,0,.2,0,.2h0c0,0,0-.2,0-.2,0-.2,0-.3-.1-.5,0-.1,0-.2-.1-.4,0,0,0,0,0-.1,0,0,0,0,0-.1,0,0,0,0,0,0,0,0,0,0,0,0,0,0,0,0,0,.1ZM77.3,61.1s0,0-.1,0c0,0,0,0,0,0,0,0,0,0,0,0,0,0,0,0,0,0,0,0,0,0,0,0,0,0,0,0,0,0h0s0,0,0,0c0,0,0,0,0,0,0,0,0,0,0,0,0,0,0,0,0,0,0,0,0,0,0,0,0,0,0,0,.1,0h0ZM77.3,57.9s0,0,0,0c0,0,0,0,0,0,0,0,0,0,0,0,0,0,0,0,0,0,0,0,0,0,0,0,0,0,0,0,0,0,0,0,0,0,0,0,0,0,0,0,0,0h0ZM77.4,52.4c-.2,0-.3,0-.5-.1.1,0,.3.1.5.1h0ZM76.7,54.5c0,.1.2.3.3.4,0,0,0,0,0,.1,0,0,0,0,0-.1,0-.1-.2-.3-.3-.4,0-.1-.1-.2-.2-.3,0,0,0,0,0,0,0,0,0,0,0,0,0,0,.1.2.2.3ZM77.1,51.9c-.2-.3-.2-.7-.2-1.1,0,.4,0,.7.2,1.1ZM76.9,50.2h0c-.2.2-.3.5-.3.7,0-.3.1-.5.3-.7ZM76.6,51.2h0c-.4-.2-.6-.4-.8-.8h0c.2.4.4.7.8.8ZM76.2,47.7s0,0,0,0c-.6,0-1.1-.3-1.5-.7.4.4.9.6,1.5.7ZM74.9,47.5s0,0,0,0c-.3.1-.6.1-.9,0,.3,0,.6,0,.9,0ZM71.4,47.2c-.3-.2-.6-.5-.8-.8,0,0,0,0,0,0,.2.3.5.6.8.8ZM72,47.8c-.1,0-.3,0-.4.1.1,0,.3,0,.4-.1ZM70.8,47.4c-.3,0-.5,0-.8-.1.3.1.5.2.8.1ZM67.9,44.3c.3.2.7.3,1.1.4,0,0,0,0,0,0-.4,0-.8-.2-1.1-.4-.3-.2-.6-.5-.8-.8,0,0,0,0,0,0,.2.3.5.6.8.8ZM66.8,44.5c.3,0,.6,0,.9,0h0c-.3.1-.6.1-.9,0,0,0-.2,0-.3,0h0c0,0,.2,0,.3,0ZM63.9,44.5c-.1.1-.2.2-.3.3.1,0,.2-.2.3-.3h0ZM63.9,44.5c-.6,0-1.1,0-1.6-.3.5.3,1,.4,1.6.3ZM62.6,44.6c-.3.2-.7.3-1.1.3.4,0,.8,0,1.1-.3ZM60.9,46.6h0c0,0,0-.2,0-.3,0,0,0,0,0,0,0,0,0,0,0,0,0,0,0,.2,0,.3ZM57.8,42.1c.2,0,.3,0,.5,0-.2,0-.3,0-.5,0-.3,0-.6,0-.9-.2.3.1.6.2.9.2ZM56.9,42.2s0,0,0,0c0,0-.2.1-.3.2,0,0,.2,0,.3-.2ZM52.9,42.9h0c-.8.1-1.5,0-2.1-.6,0,0,0,0,0,0,.6.5,1.3.8,2.1.6ZM51,43.2c.2,0,.4-.1.5-.3-.2.1-.3.2-.5.3-.2,0-.4,0-.6,0h0c.2,0,.4,0,.6,0ZM47,40.3c-.2.1-.3.2-.5.3.2,0,.4-.1.5-.3ZM40.4,41.3c.6.4,1.3.5,2.1.4h0c-.8.1-1.4,0-2.1-.4-.2-.1-.4-.3-.6-.4,0,0,0,0,0,0,.2.2.4.3.6.4ZM40.7,41.8c-.4.3-.9.4-1.4.3h0c.5,0,1,0,1.4-.3ZM38.3,45.1s0,0,0,0l-1.6.5s0,0,0,0l1.6-.5ZM37,46.4c0,0,0-.1,0-.2,0,0,0-.1,0-.2,0,0,0,.1,0,.2,0,0,0,.1,0,.2ZM34.5,45.8s0,0-.1,0h-.2c0,0,.1,0,.2,0,0,0,0,0,.1,0h0ZM32.5,56.1s0,0-.1,0c0,0-.2-.1-.2-.2,0,0-.1-.1-.2-.2,0,0-.1-.1-.2-.2,0,0-.1-.2-.2-.2,0,0,.1.2.2.2,0,0,.1.2.2.2,0,0,.1.1.2.2,0,0,.1.1.2.2,0,0,0,0,.1,0,0,0,0,0,0-.1,0,0,0,0,0-.1,0,0,0,0,0-.1,0,0,0,0,0-.1,0,0,0,0,0-.1,0,0,0,0,0-.1,0,0,0,0,0-.1,0,0,0,0,0-.1,0,0,0,0,0-.1,0,0,0,0,0-.1h0s0,0,0,.1c0,0,0,0,0,.1,0,0,0,0,0,.1,0,0,0,0,0,.1,0,0,0,0,0,.1,0,0,0,0,0,.1,0,0,0,0,0,.1,0,0,0,0,0,.1,0,0,0,0,0,.1,0,0,0,0,0,.1h0ZM27.4,64.1s0,0,.1,0c0,0,0,0-.1,0h0ZM18.7,60c0,0,.1,0,.2.1,0,0,.1,0,.2.1,0,0-.1,0-.2-.1,0,0-.1,0-.2-.1h0ZM14.8,20.4c0,0,0,.1,0,.2,0,0,0-.1,0-.2h0ZM14.7,22.5s0,0,0,.1c0,0,0,0,0,0,0,0,0,0,0,0,0,0,0,0,0-.1ZM14.5,23.3c0,0,0,.2,0,.3,0,0,0,0,0,0,0,0,0,0,0,0,0,0,0-.2,0-.3ZM14.3,24.1c0,0,0,.2,0,.2,0,0,0,0,0,0,0,0,0,0,0,0,0,0,0-.2,0-.2ZM14.2,25s0,0,0-.1c0,0,0,0,0,.1ZM18.6,54c0,0,0-.1-.1-.2,0,0,0-.1-.1-.2,0,0,0-.1,0-.2,0,0,0-.1,0-.2,0,0,0-.1,0-.2,0,0,0-.1,0-.2,0,0,0,.1,0,.2,0,0,0,.1,0,.2h0c0,0,0-.1,0-.2,0,0,0-.1,0-.2,0,0,0,.1,0,.2,0,0,0,.1,0,.2,0,0,0,.1,0,.2,0,0,0,.1,0,.2,0,0,0,.1.1.2,0,0,0,.1.1.2,0,0,0,.1.1.2,0,0,0,.1.1.1,0,0,0,0-.1-.1,0,0,0-.1-.1-.2ZM16.5,43.4s0,0,0,.1c0,0-.1.2-.2.2,0,0-.1.2-.2.2,0,0-.1.1-.2.2,0,0,0,0,0,0,0,0,0,0,0,0,0,0-.1.1-.2.2,0,0-.2.1-.2.2,0,0,0,0-.1.1-.1,0-.2.1-.4.1,0,0,0,0-.1,0,0,0,0,0,0,0,0,0-.1,0-.2-.1,0,0,0,0,0,0,0,0,0,0,0,0,0,0,.1,0,.2.1,0,0,0,0,0,0,0,0,0,0,.1,0,.1,0,.3,0,.4-.1,0,0,0,0,.1-.1,0,0,.2-.1.2-.2,0,0,.1-.1.2-.2,0,0,0,0,0,0,0,0,0,0,0,0,0,0,.1-.1.2-.2,0,0,.1-.2.2-.2,0,0,.1-.2.2-.2,0,0,0,0,0-.1,0,0,0,0,0,0,0,0,.1,0,.2,0,0,0,.1,0,.2,0,0,0,.1,0,.2,0,0,0,.1,0,.2,0,0,0,.1,0,.2.1,0,0,0,0,.1.1,0,0,0-.1-.1-.1,0,0-.1-.1-.2-.1,0,0-.1,0-.2,0,0,0-.1,0-.2,0,0,0-.1,0-.2,0,0,0-.1,0-.2,0,0,0,0,0,0,0ZM13.9,49.9h0s0,0,0,0c0,0,0,0,0,0h0s0,0,0,0h0s0,0,0,0c0,0,0,0,0,0ZM15.1,29.2c0,0,.1,0,.2,0,0,0-.1,0-.2,0,0,0-.1,0-.2,0,0,0-.1,0-.2,0,0,0,0,0-.1,0,0,0,0,0-.1,0,0,0,0,0-.1,0,0,0,0,0-.1,0,0,0,0,0-.1,0,0,0,0,0,.1,0,0,0,0,0,.1,0,0,0,0,0,.1,0,0,0,0,0,.1,0,0,0,0,0,.1,0,0,0,.1,0,.2,0,0,0,.1,0,.2,0ZM17.3,26.6c0,0,.2,0,.3,0s.1,0,.2,0h0c0,0-.1,0-.2,0-.1,0-.2,0-.3,0,0,0-.2,0-.3,0,0,0-.2,0-.3-.1,0,0,0,0-.1,0,0,0,0,0,.1,0,0,0,.2,0,.3.1,0,0,.2,0,.3,0ZM20.7,50.6c0,0,.1,0,.2,0,0,0-.1,0-.2,0,0,0-.1,0-.2,0,0,0,.1,0,.2,0ZM20.3,55.2c0,0-.1,0-.2,0,0,0-.1,0-.2,0,0,0-.1,0-.2-.1,0,0-.1,0-.2-.1,0,0,.1,0,.2.1,0,0,.1,0,.2.1,0,0,.1,0,.2,0,0,0,.1,0,.2,0,0,0,0,0,0,0ZM19.2,54.6c0,0,.1,0,.2.1,0,0-.1,0-.2-.1,0,0-.1,0-.2-.1,0,0,.1,0,.2.1ZM20.1,50.3c0,0-.1,0-.2-.1,0,0-.1,0-.2-.1,0,0,.1,0,.2.1,0,0,.1,0,.2.1,0,0,.1,0,.2.1,0,0-.1,0-.2-.1ZM19.4,49.6c0,0,0,.1.1.1,0,0,0,.1.1.1,0,0,0,0-.1-.1,0,0,0,0-.1-.1,0,0,0-.1-.1-.2,0,0,0-.1-.1-.2,0,0,0-.1-.1-.2,0,0,0-.1,0-.2,0,0,0-.1,0-.2,0,0,0-.1,0-.2,0,0,0-.1,0-.2,0,0,0,.1,0,.2,0,0,0,.1,0,.2,0,0,0,.1,0,.2,0,0,0,.1,0,.2,0,0,0,.1.1.2,0,0,0,.1.1.2,0,0,0,.1.1.2ZM18.8,49.8c0,0,.1,0,.2,0,0,0,0,0,0,0,0,0-.1,0-.2,0,0,0-.1,0-.2,0,0,0-.1,0-.2,0,0,0,.1,0,.2,0,0,0,.1,0,.2,0ZM17.8,44.3s0,0,0,0c0,0,0,0,0,0,0,0,0,0,0,0h0s0,0,0,0ZM14.1,34.9c0,0,.1,0,.2.1,0,0,.1,0,.2.1,0,0,.1,0,.2,0,0,0,.1,0,.2,0,0,0,.1,0,.2,0h.2c0,0-.1,0-.2,0,0,0-.1,0-.2,0,0,0-.1,0-.2,0,0,0-.1,0-.2,0,0,0-.1,0-.2-.1,0,0-.1,0-.2-.1h0ZM15.7,34.7c0,0,0-.1,0-.2,0,0,0-.1,0-.2,0,0,0-.1,0-.2,0,0,0-.1,0-.2h0c0,0,0,.1,0,.2,0,0,0,.1,0,.2,0,0,0,.1,0,.2,0,0,0,.1,0,.2,0,0,0,.1.1.2,0,0,0,.1.1.2,0,0,0,.1.1.2,0,0,0-.1-.1-.2,0,0,0-.1-.1-.2,0,0,0-.1-.1-.2ZM16.8,35.9c0,0,.1,0,.2.1,0,0,.1,0,.2.1,0,0,.1,0,.2,0,0,0-.1,0-.2,0,0,0-.1,0-.2-.1,0,0-.1,0-.2-.1,0,0-.1,0-.2-.1,0,0-.1,0-.2-.1,0,0,.1,0,.2.1,0,0,.1,0,.2.1ZM16.6,29.8s0,0-.1,0c0,0,0,0,.1,0,0,0,0,0,0,0ZM16.2,29.6s0,0-.1,0c0,0,0,0,.1,0,0,0,0,0,.1,0,0,0,0,0-.1,0ZM15.8,29.3s0,0-.1,0c0,0,0,0-.1-.1s0,0,0-.1c0,0,0,0,0-.1,0,0,0,0,0-.1,0,0,0,0,0,.1,0,0,0,0,0,.1,0,0,0,0,0,.1,0,0,0,0,.1.1,0,0,0,0,.1,0,0,0,0,0,.1,0,0,0,0,0-.1,0ZM13.7,41.4c0,0-.1-.2-.2-.2,0,0-.1-.2-.2-.2,0,0-.1-.2-.2-.3,0,0,0,0,0,0,0,0,0,0,0,0,0,0,0,.2.2.3,0,0,.1.2.2.2,0,0,.1.2.2.2h0ZM12.3,43.3s0,0,0,0c0,0,.1,0,.2,0,0,0,.1,0,.2,0,0,0,.1,0,.2,0,.1,0,.2-.1.3-.2,0,0,.1-.1.2-.2,0,0,.1-.2.2-.2,0,0,0,0,0,0,0,0,0,0,0,0,0,0,0,0,0-.1,0,0,.1-.1.2-.2,0,0,.1-.2.2-.2,0,0,0,0,0,0,0,0,.1,0,.2.1,0,0,.1,0,.2.1,0,0,.1,0,.2.1,0,0,.2.1.2.2,0,0,.2.1.3.2,0,0,.2.1.3.2h0c0,0-.2-.1-.3-.2,0,0-.2-.1-.3-.2,0,0-.2-.1-.2-.2,0,0-.1,0-.2-.1,0,0-.1,0-.2-.1,0,0-.1,0-.2-.1,0,0,0,0,0,0,0,0-.1.2-.2.2,0,0-.1.1-.2.2,0,0,0,0,0,.1,0,0,0,0,0,0,0,0,0,0,0,0,0,0-.1.2-.2.2,0,0-.1.1-.2.2,0,0-.2.1-.3.2,0,0-.1,0-.2,0,0,0-.1,0-.2,0,0,0-.1,0-.2,0,0,0,0,0,0,0h0ZM17.8,49.6c0,0,.1,0,.2,0,0,0-.1,0-.2,0,0,0-.1,0-.2-.1,0,0,.1,0,.2.1ZM20.3,59.8c0,0,0-.1,0-.2,0,0,0-.1,0-.2,0,0,0-.1,0-.2,0,0,0-.1,0-.2,0,0,0,.1,0,.2,0,0,0,.1,0,.2h0c0,0,0-.1,0-.2,0,0,0-.1,0-.2,0,0,0,.1,0,.2,0,0,0,.1,0,.2,0,0,0,.1,0,.2,0,0,0,.1,0,.2,0,0,0,.1.1.2,0,0,0-.1-.1-.2ZM21,60.6s0,0,.2.1c0,0-.1,0-.2-.1,0,0,0,0-.1-.1,0,0,0,0,.1.1ZM17.7,39.3c0,0-.1,0-.2-.1h0c0,0,.1,0,.2.1,0,0,.1,0,.2.1,0,0-.1,0-.2-.1ZM17.2,32.2c0,0-.2,0-.3-.1,0,0,0,0,0,0,0,0,0,0,0,0h0s0,0,0,0c0,0,0,0,0,0,0,0,.2,0,.3.1,0,0,0,0,.1,0,0,0,0,0-.1,0ZM15.2,28.5s0,0,0,.1c0,0,0,0,0-.1,0,0,0,0,0-.1,0,0,0-.2-.1-.3,0,0,0,.1,0,.2h0c0,0,0-.1,0-.2,0,0,0,.2.1.3,0,0,0,0,0,.1ZM14.5,25.8l-.7-.2h0s.7.2.7.2ZM13.7,29.1h0s-.2-.5-.2-.5l.2.5ZM12.3,38c0,0,0,.2,0,.2,0,0,0,.1,0,.2,0,0,0-.1,0-.2,0,0,0-.2,0-.2,0,0,0-.2,0-.2,0,0,0,0,0,0,0,0,0,0,0,0,0,0,0,.2,0,.2ZM12.6,39.2c0-.1,0-.2,0-.3,0,0,0-.2,0-.2,0,0,0,.2,0,.2,0,.1,0,.2,0,.3h0ZM12,32s0,0,0,0c0,0,0,0,0,0,0,0,0,0,.1,0,0,0,0,0,.1,0,0,0,.2-.1.2-.2,0-.1.2-.2.3-.3,0,0,0,0,0-.1,0,0,0,0,0,0,0,0,0,0,0,.1,0,.1-.2.2-.3.3,0,0-.1.1-.2.2,0,0,0,0-.1,0,0,0,0,0-.1,0,0,0,0,0,0,0,0,0,0,0,0,0,0,0,0,0,0,0,0,0,0,0,0,0ZM11.5,35.1s0,0,.1,0c0,0,0,0,.1,0,0,0,.1,0,.2-.1,0,0,.2-.2.3-.3,0,0,.1-.2.2-.2h0c0,0-.1.2-.2.2,0,0-.2.2-.3.3,0,0,0,0-.2.1,0,0,0,0-.1,0,0,0,0,0-.1,0s0,0-.1,0h0s0,0,.1,0ZM11.2,41s0,0,0,0c0,0,0,0,.1,0,0,0,0,0,.2,0,0,0,.1,0,.2,0,0,0,.1,0,.2-.1,0,0,.2-.1.2-.2,0,0,0,0,.1-.1,0,0,.1-.1.2-.2,0,0,0,0,0,0,0,0,0,0,0,0,0,0,0,0,0,0,0,0,0-.1.1-.2,0,0,0,0,0,0,0,0,0,.1,0,.2,0,0,0,0,0,0,0,0,0,0,0,0,0,0,0-.1,0-.2,0,0,0,0,0,0,0,0,0,.1-.1.2,0,0,0,0,0,0,0,0,0,0,0,0,0,0,0,0,0,0,0,0-.1.2-.2.2,0,0,0,0-.1.1,0,0-.2.1-.2.2,0,0-.1,0-.2.1,0,0-.1,0-.2,0,0,0-.1,0-.2,0,0,0-.1,0-.1,0,0,0,0,0,0,0h0ZM13.9,50s0,0,0,0c0,0,0,.1,0,.2,0,0,0,.1,0,.2,0,0,0,.1,0,.2,0,0,0,.1,0,.2,0,0,0-.1,0-.2,0,0,0-.1,0-.2,0,0,0-.1,0-.2,0,0,0-.1,0-.2,0,0,0,0,0,0ZM19.3,60.4c0,0,.1,0,.2,0,0,0,.1,0,.2,0,0,0,.1,0,.2,0,0,0-.1,0-.2,0,0,0-.1,0-.2,0,0,0-.1,0-.2,0ZM27.9,51.8c0,0,.1,0,.2,0,0,0-.1,0-.2.1,0,0,.1,0,.2-.1,0,0-.1,0-.2,0,0,0-.1,0-.2,0,0,0,.1,0,.2,0ZM27.9,64.2c0,0,.1,0,.2,0,0,0-.1,0-.2,0,0,0-.1,0-.2,0,0,0,.1,0,.2,0ZM26.9,44.1c0,0,.1,0,.2.1,0,0-.1,0-.2-.1h0ZM26.4,51.2c0,0-.1,0-.2-.1,0,0-.1,0-.2-.1,0,0-.1,0-.2-.1,0,0,0,0-.1-.1,0,0,0-.1-.1-.2,0,0,0,.1.1.2,0,0,0,.1.1.1,0,0,0,0,.2.1,0,0,.1,0,.2.1,0,0,.1,0,.2.1,0,0,.1,0,.2.1,0,0-.1,0-.2-.1ZM26.1,51.5c0,0-.1,0-.2,0,0,0-.1,0-.2,0,0,0-.1,0-.2,0,0,0-.1,0-.2,0,0,0-.1,0-.2,0,0,0-.1,0-.2,0,0,0-.1,0-.2,0,0,0-.1,0-.2,0h0c0,0,.1,0,.2,0,0,0,.1,0,.2,0,0,0,.1,0,.2,0,0,0,.1,0,.2,0,0,0,.1,0,.2,0,0,0,.1,0,.2,0,0,0,.1,0,.2,0,0,0,.1,0,.2,0,0,0,0,0,0,0ZM24.4,57.9c0,0-.1,0-.2,0,0,0-.1,0-.2,0,0,0-.1,0-.2,0,0,0,.1,0,.2,0,0,0,.1,0,.2,0,0,0,.1,0,.2,0,0,0,.1,0,.2,0,0,0-.1,0-.2,0ZM23,64.7h0s0,0,0,0c0,0,0,0,0,0ZM24.3,65.2c0,0-.1,0-.2,0,0,0-.1,0-.2,0,0,0-.1,0-.2,0,0,0-.1,0-.2,0,0,0,.1,0,.2,0,0,0,.1,0,.2,0,0,0,.1,0,.2,0,0,0,.1,0,.2,0h.2c0,0-.1,0-.2,0ZM24.2,64h0c0,0,0-.1,0-.2,0,0,0,.1,0,.2ZM24,56.4h0c0,0,0,.1.1.2,0,0,0-.1-.1-.2ZM24.4,56.9c0,0,0-.1-.1-.2,0,0,0,.1.1.2,0,0,0,.1.1.1,0,0,0,0-.1-.1ZM25.2,39.3c0,0-.1,0-.2.1s-.1,0-.2,0c0,0,.1,0,.2,0s.1,0,.2-.1c0,0,.1,0,.2-.1h-.2ZM24,45.8c0,0,.1,0,.2,0,0,0,.1,0,.2,0,0,0-.1,0-.2,0,0,0-.1,0-.2,0,0,0-.1,0-.2,0,0,0,.1,0,.2,0ZM22.8,65.3c0,.2,0,.4,0,.6,0-.2,0-.4,0-.6ZM25,57.5c0,0-.1,0-.2-.1,0,0-.1,0-.2-.1,0,0,.1,0,.2.1,0,0,.1,0,.2.1,0,0,.1,0,.2.1,0,0-.1,0-.2-.1ZM26.9,51.5c0,0,.1,0,.2,0,0,0,.1,0,.2,0,0,0,.1,0,.2,0,0,0-.1,0-.2,0,0,0-.1,0-.2,0,0,0-.1,0-.2,0,0,0-.1,0-.2,0,0,0,.1,0,.2,0ZM30,55.4c0,0-.1,0-.2-.1h0c0,0,.1,0,.2.1,0,0,.1,0,.2.1,0,0-.1,0-.2-.1ZM31.1,59h0c0,0,0-.1,0-.2,0,0,0,.1,0,.2ZM31.2,58.8c0,0,0-.1,0-.2,0,0,0,.1,0,.2,0,0,0,.1,0,.2,0,0,0-.1,0-.2ZM31.1,54.6h0c0,0,0-.1,0-.2,0,0,0-.1,0-.2,0,0,0,.1,0,.2,0,0,0,.1,0,.2ZM32.1,51.7s0,0,0,.1c0,0,0,0,0,.1,0,0,0,0,0-.1,0,0,0,0,0-.1ZM32.2,52s0,0,0,.1c0,0,0,0,0,0,0,0,0,0,0,0,0,0,0,0,0-.1ZM32.4,52.6s0,0,0,0c0,0,0,0,0,.1,0,0,0,0,0,.1,0,0,0,0,0-.1,0,0,0,0,0-.1,0,0,0,0,0,0ZM32.5,53.3s0,0,0,0c0,0,0,0,0,0,0,0,0,0,0,0,0,0,0,0,0,0ZM32.6,54s0,0,0,.1c0,0,0,0,0,.1,0,0,0,0,0-.1,0,0,0,0,0-.1ZM32.6,50.3s0,0,0,0c0,0,0,0,0,0,0,0,0,0,0,0,0,0,0,0,0,0,0,0,0,0,0,0,0,0,0,0,0,0,0,0,0,0,0,0,0,0,0,0,0,0,0,0,0,0,0,0,0,0,0,0,0,0,0,0,0,0,0,0,0,0,0,0,0,0,0,0,0,0,0,0s0,0,0,0c0,0,0,0,0,0h0s0,0,0,0c0,0,0,0,0,0,0,0,0,0,0,0,0,0,0,0,0,0,0,0,0,0,0,0,0,0,0,0,0,0,0,0,0,0,0,0,0,0,0,0,0,0,0,0,0,0,0,0,0,0,0,0,0,0,0,0,0,0,0,0,0,0,0,0,0,0,0,0,0,0,0,0,0,0,0,0,0,0,0,0,0,0,0,0,0,0,0,0,0,0h0s0,0,0,0ZM34.3,44.6c0,0,0-.2,0-.3,0,0,0,0,0,.1,0,0,0,.1,0,.2,0,0,0-.1,0-.2,0,0,0,0,0-.1,0,0,0,.2,0,.3,0,0,0,0,0,.1,0,0,0,0,0-.1ZM34.4,48.2c0,0,0-.1,0-.2h0c0,0,0,.1,0,.2,0,0,0,.1,0,.2,0,0,0,0,0,0,0,0,0,0,0,0,0,0,0,0,0,0,0,0,0,0,0,0,0,0,0,0,0,0,0,0,0,0,0,0,0,0-.1,0-.2,0,0,0,0,0,0-.1,0,0,0,0,0,.1,0,0,.1,0,.2,0,0,0,0,0,0,0,0,0,0,0,0,0,0,0,0,0,0,0s0,0,0,0c0,0,0,0,0,0,0,0,0,0,0,0,0,0,0-.1,0-.2ZM33.2,45.6s0,0,0,0c0,0,0,0,0,0,0,0,.1,0,.2,0,0,0-.1,0-.2,0ZM33.6,47.8s0,0,0,0h0c0,0,0,0,0,0,0,0,0,0,0,0ZM33.7,48c0,0,0,.2,0,.2,0,0,0,0,0,.1,0,0,0,0,0-.1,0,0,0-.2,0-.2,0,0,0,0,0,0,0,0,0,0,0,0ZM33.2,46.8c0,.1.1.3.2.4v.3c.1,0,.1,0,.1.1,0,0,0,0,0,0,0,0,0,0,0,0,0,0,0,0,0-.1v-.3c-.2-.1-.2-.3-.3-.4h-.3c0,.1,0,.2,0,.2,0,0,0,0,0-.1h.3ZM32.9,47.6s0,0,0,.1c0,0,0,0,0-.1,0,0,0,0,0-.1,0,0,0,0,0,.1ZM34.5,50.3c-.4-.2-.8-.4-1.1-.7.3.3.7.5,1.1.7ZM34.4,47.8c0,0,0-.1,0-.2,0,0,0,.1,0,.2,0,0,0,.1,0,.2,0,0,0-.1,0-.2ZM34.3,47.5c0-.2,0-.3-.1-.5,0-.2-.1-.3-.2-.5h0c0,0,0,0,0,0,0,.2.1.3.2.5,0,.1,0,.3.1.5,0,0,0,.1,0,.2,0,0,0-.1,0-.2ZM34.7,45.4c0,0,.1.1.2.2,0,0,.1.1.2.2,0,0,.1.1.2.2,0,0-.1-.1-.2-.2,0,0-.1-.1-.2-.2,0,0-.1-.1-.2-.2,0,0,0-.1-.1-.2,0,0,0,.1.1.2ZM35.3,46.1c.3.2.6.4.9.6h0c-.3-.2-.6-.3-.9-.6,0,0,0,0,0,0ZM35.4,41c0,0,.1,0,.2.1,0,0-.1,0-.2-.1,0,0-.1,0-.2-.1,0,0,.1,0,.2.1ZM34,39c0,0,0,.1,0,.2,0,0,0,.1,0,.2,0,0,0,.1,0,.2,0,0,0,.1,0,.2,0,0,0,.1.1.2,0,0,0,.1.1.2,0,0,0,.1.1.2,0,0,0,.1.1.1,0,0,0,0,.1.1,0,0,0,0-.1-.1,0,0,0,0-.1-.1,0,0,0-.1-.1-.2,0,0,0-.1-.1-.2,0,0,0-.1-.1-.2,0,0,0-.1,0-.2,0,0,0-.1,0-.2,0,0,0-.1,0-.2,0,0,0-.1,0-.2,0,0,0,.1,0,.2,0,0,0-.1,0-.2ZM33.7,40.5h.2c0,0-.1,0-.2,0,0,0-.1,0-.2,0,0,0,.1,0,.2,0ZM32.9,40.2c0,0,.1,0,.2.1,0,0,.1,0,.2,0,0,0-.1,0-.2,0,0,0-.1,0-.2-.1,0,0-.1,0-.2-.1h0c0,0,.1,0,.2.1ZM32.3,48.1c0,0,0-.1,0-.2,0,0,0,.2.1.3,0,0,0,.2.1.3,0,0,0,.2.1.3,0,0,0,.2.1.2,0,0,0-.2,0-.3,0,0,0,0,0-.1,0,0,0-.2,0-.3,0,0,0,0,0-.1,0,0,0,0,0-.1,0,0,0-.2,0-.3h0c0,0,0,.2,0,.3,0,0,0,0,0,.1,0,0,0,0,0,.1,0,0,0,.2,0,.3,0,0,0,0,0,.1,0,0,0,.2,0,.3h0c0,0,0-.2-.1-.2,0,0,0-.2-.1-.3,0,0,0-.2-.1-.3,0,0,0-.2-.1-.3,0,0,0,.1,0,.2,0,0,0,.1,0,.2h0c0,0,0-.1,0-.2ZM31.6,49.3c0,0,.1,0,.2,0,0,0,.1,0,.2,0,0,0,.1,0,.2,0,0,0-.1,0-.2,0,0,0-.1,0-.2,0,0,0-.1,0-.2,0,0,0,0,0,0,0,0,0,0,0,0,0ZM31.2,49s0,0,0,0h0s0,0,0,0ZM30.8,55.7c0,0,.1,0,.2,0,0,0,.1,0,.2,0,0,0,.1,0,.2,0,0,0-.1,0-.2,0,0,0-.1,0-.2,0h-.2c0,0-.1,0-.2,0,0,0,.1,0,.2,0ZM29.4,44.9c0,0,.1,0,.2.1,0,0,.1,0,.2.1,0,0,.1,0,.2.1,0,0,.1,0,.2,0,0,0-.1,0-.2,0,0,0-.1,0-.2-.1,0,0-.1,0-.2-.1,0,0-.1,0-.2-.1,0,0-.1,0-.2-.1,0,0,.1,0,.2.1ZM28.2,43.2c0,0,0,.1,0,.2,0,0,0,.1,0,.2,0,0,0,.1,0,.2,0,0,0,.1.1.2,0,0,0,.1.1.2,0,0,0,.1.1.2,0,0,0-.1-.1-.2,0,0,0-.1-.1-.2,0,0,0-.1-.1-.2,0,0,0-.1,0-.2,0,0,0-.1,0-.2,0,0,0-.1,0-.2,0,0,0-.1,0-.2h0c0,0,0,.1,0,.2ZM27.8,44.5c0,0,.1,0,.2,0,0,0-.1,0-.2,0,0,0-.1,0-.2,0,0,0,.1,0,.2,0ZM26.1,39c0,0,.1,0,.2,0,0,0,.1,0,.2,0h.2c0,0,.1,0,.2,0,0,0,.1,0,.2,0,0,0,.1,0,.2,0,0,0-.1,0-.2,0,0,0-.1,0-.2,0,0,0-.1,0-.2,0,0,0-.1,0-.2,0,0,0-.1,0-.2,0,0,0-.1,0-.2,0,0,0-.1,0-.2,0,0,0,.1,0,.2,0ZM25.3,38.7c0,0,.1,0,.2,0,0,0-.1,0-.2,0,0,0-.1,0-.2,0,0,0,.1,0,.2,0ZM24.8,38.4c0,0,.1,0,.2.1,0,0-.1,0-.2-.1,0,0-.1,0-.2-.1,0,0,.1,0,.2.1ZM23.9,39.6c0,0,.1,0,.2,0,0,0,.1,0,.2,0,0,0-.1,0-.2,0,0,0-.1,0-.2,0,0,0-.2,0-.2,0,0,0,.2,0,.2,0ZM22,44.4c0,0,0,.1.1.2,0,0,0,.1.1.2,0,0,0,.1.1.1,0,0,0,.1.1.1,0,0,.1,0,.2.1,0,0,.1,0,.2.1,0,0,.1,0,.2.1,0,0,.1,0,.2.1,0,0-.1,0-.2-.1,0,0-.1,0-.2-.1,0,0-.1,0-.2-.1,0,0-.1,0-.2-.1,0,0-.1,0-.1-.1,0,0,0,0-.1-.1,0,0,0-.1-.1-.2,0,0,0-.1-.1-.2,0,0,0-.1-.1-.2h0c0,0,0,.1.1.2ZM21.6,45.7c0,0,.1,0,.2,0,0,0,.1,0,.2,0,0,0,.1,0,.2,0,0,0-.1,0-.2,0,0,0-.1,0-.2,0,0,0-.1,0-.2,0,0,0-.1,0-.2,0,0,0,.1,0,.2,0ZM20.9,45.5h0c0,0,.1,0,.2,0,0,0-.1,0-.2,0ZM20.4,40.2c0,0,.1,0,.2.1,0,0,.1,0,.2,0,0,0-.1,0-.2,0,0,0-.1,0-.2-.1,0,0-.1,0-.2-.1,0,0,.1,0,.2.1ZM19.8,39.7s0,0,.2.1c0,0-.1,0-.2-.1,0,0-.1,0-.1-.1,0,0,0,0,.1.1ZM19.1,38.9c0,0,0,.1.1.2,0,0,0,.1.1.2,0,0,0,.1.1.2,0,0,0-.1-.1-.2,0,0,0-.1-.1-.2,0,0,0-.1-.1-.2,0,0,0-.1,0-.2,0,0,0,.1,0,.2ZM18.8,38.3c0,0,0-.1,0-.2,0,0,0,.1,0,.2,0,0,0-.1,0-.2,0,0,0,.1,0,.2,0,0,0,.1,0,.2h0c0,0,0-.1,0-.2ZM18.5,39.6c0,0,.1,0,.2,0,0,0-.1,0-.2,0,0,0-.1,0-.2,0,0,0,.1,0,.2,0ZM17.8,32.3c-.1,0-.2,0-.3,0,.1,0,.2,0,.3,0s.1,0,.2,0c0,0-.1,0-.2,0ZM17.7,31.2c0,0,0,.2,0,.3,0-.1,0-.2,0-.3,0,0,0,0,0,.1,0,0,0,0,0-.1ZM17.7,26c0,0,0,.1.1.2,0,0,0,.1.1.2,0,0,.1.1.2.2,0,0-.1-.1-.2-.2,0,0,0-.1-.1-.2,0,0,0-.1-.1-.2,0,0,0-.2-.1-.2,0,0,0-.2,0-.2,0,0,0,.2,0,.2,0,0,0,.2.1.2ZM17.5,21.1s0,0,0,0c0,0,0,0-.1,0,0,0,0,0,.1,0ZM17.1,20.9s0,0,.1,0c0,0,0,0-.1,0,0,0,0,0-.1,0,0,0,0,0,.1,0ZM15.9,19.5c0,0,0-.1,0-.2,0,0,0,.2.1.3,0,0,0,0,0,.1,0,0,0,0,0,.1,0,0,0,0,0,.1,0,0,0,0,0,.1,0,0,0,0,0,.1,0,0,0,0,0,.1,0,0,0,0,.1.1,0,0,0,0,.1,0,0,0,0,0,.1,0,0,0,0,0-.1,0,0,0,0,0-.1,0,0,0,0,0-.1-.1s0,0,0-.1c0,0,0,0,0-.1,0,0,0,0,0-.1,0,0,0,0,0-.1,0,0,0,0,0-.1,0,0,0,0,0-.1,0,0,0-.2-.1-.3,0,0,0,.1,0,.2h0ZM15.2,20.2s0,0,.1,0c0,0,0,0,.1,0,0,0,0,0,.1,0,0,0,0,0,.1,0,0,0,.1,0,.2,0,0,0,.1,0,.2,0,0,0-.1,0-.2,0,0,0-.1,0-.2,0,0,0-.1,0-.1,0,0,0,0,0-.1,0,0,0,0,0-.1,0,0,0,0,0-.1,0,0,0,0,0-.1,0,0,0,0,0,.1,0ZM15.1,25.2h0s-1,0-1,0c0,0,0,0,0-.1,0,0,0,0,0-.1,0,0,0,0,0,.1,0,0,0,0,0,.1h1ZM13.1,25.6c-.3.2-.6.3-1,.5.4-.1.7-.3,1-.5ZM12.6,20h0c0,0-.1,0-.1,0,0,0,0,0,.1,0ZM11.5,20c0,0,.2,0,.3,0,0,0,.2,0,.3,0,0,0-.2,0-.3,0,0,0-.2,0-.3,0,0,0-.1,0-.2,0,0,0,.1,0,.2,0ZM11.5,20.6c-.1,0-.4-.1-.8-.1,0,0,0,0,0,0,.4,0,.7,0,.8.1-.3.7-.7,1.4-1.2,1.9-.3,0-.6,0-.8,0,.3,0,.5,0,.8,0,.5-.5.9-1.2,1.2-1.9ZM9.5,21.7c0,0,0-.1,0-.2s-.1,0-.2,0-.1,0-.2,0,0,.1,0,.2h0c0,0,0-.1,0-.2s.1,0,.2,0,.1,0,.2,0,0,.1,0,.2h0ZM9.4,20.9s0,0,0,0h0s0,0,0,0ZM9,22.1c-.1-.1-.2-.3-.2-.5,0,.2,0,.3.2.5ZM9.5,22.2h0c0,0-.2,0-.2,0,0,0,.2,0,.2,0ZM8.6,21.6c0,.2,0,.4.2.6,0,0,.1.1.2.2.1,0,.2,0,.4,0,.2,0,.4,0,.6-.2,0,0,.2-.2.2-.3,0,0,0-.2,0-.3h0c0,.1,0,.2,0,.3,0,.1-.1.2-.2.3-.2.2-.4.2-.6.2s-.3,0-.4,0c0,0-.1,0-.2-.2-.2-.2-.2-.4-.2-.6h0ZM6.6,22.7l1.9-1.2h0s-1.9,1.2-1.9,1.2c0,0,0,0,0,0,0,0,0,0,0,0ZM6.5,22.8h0s0,0,0,0c0,0,0,0,0,0h0ZM2.1,26.3c0,0,.2-.1.2-.2,0,0,0,0,0,0,0,0,.1-.1.2-.2,0,0-.1.2-.2.2,0,0,0,0,0,0,0,0-.1.1-.2.2,0,0-.1,0-.2.1,0,0,.1,0,.2-.1ZM6.4,22.8h0s0,0,0,0h0ZM6.4,22.8h0s0,0,0,0h0ZM4.9,28.2c0,0-.2,0-.2,0,0,0,.2,0,.2,0,0,0,.1,0,.2,0,0,0-.1,0-.2,0ZM6.2,27.9c0,0,.1,0,.2,0,0,0,.1,0,.2,0,0,0-.1,0-.2,0,0,0-.1,0-.2,0ZM8.9,27.2c0,0-.1,0-.2,0,0,0,.1,0,.2,0,0,0,.1,0,.2,0,0,0-.1,0-.2,0ZM9.4,27c0,0-.1,0-.2,0,0,0,.1,0,.2,0,0,0,0,0,.1,0,0,0,0,0-.1,0ZM10.1,26.8c0,0-.1,0-.2,0,0,0-.1,0-.2,0,0,0,.1,0,.2,0,0,0,.1,0,.2,0,0,0,.1,0,.2,0,0,0-.1,0-.2,0ZM12.8,26.3h-.1c0-.1.1,0,.1,0h0ZM11.3,35s0,0,0,0c0,0,0,0,0,0,0,0,0,0,0,0,0,0,0,0,0,0h0ZM10.8,38.3s0,0,0,0c0,0,0,0,.1,0,0,0,0,0,.1,0,0,0,.1,0,.2,0,0,0,.1,0,.2-.1.1,0,.2-.2.3-.3,0,0,0,0,.1-.1,0,0,.1-.1.2-.2,0,0,0,0,0,0,0,0,0,0,0,0,0,0,0,0,0,0,0,0,0,0,0,0,0,0,0,0,0,0,0,0,0,0,0,0,0,0,0,0,0,0,0,0,0,0,0,0,0,0-.1.1-.2.2,0,0,0,0-.1.1,0,.1-.2.2-.3.3,0,0-.1,0-.2.1,0,0-.1,0-.2,0,0,0,0,0-.1,0,0,0,0,0-.1,0,0,0,0,0,0,0h0ZM9.5,53.1c-.5,0-.9,0-1.3-.4h0c.4.3.8.4,1.3.4,0,0,0,0,0,0ZM8.9,48.3c.2.5.5.8.9,1h0c-.4-.2-.8-.5-.9-1h0ZM10.2,48.1h0c-.2.3-.3.6-.4.9,0-.3.1-.6.4-.9ZM10.7,50.6c-.4-.6-.7-1.2-.7-1.8,0,.7.2,1.3.7,1.8,0,0,0,0,0,0ZM7.6,53.9c0,0,0,.1,0,.2,0,0,0-.1,0-.2ZM7.4,47.7c-.2-.4-.3-.9-.3-1.3,0,.4,0,.9.3,1.3h0ZM7.4,45.1c-.4.3-.6.6-.6,1.1-.4-.3-.6-.7-.7-1.2h0c0,.5.3.9.7,1.2,0-.4.2-.8.6-1.1,0,0,0,0,0,0ZM10.9,53.8c-.9-.4-1.5-1-1.8-1.9,0,.1,0,.2,0,.3,0-.1,0-.2,0-.3.3.9.9,1.5,1.8,1.9,0,0,0,0,0,0ZM12.7,53.7c0,0,0,.1,0,.2,0,0,0,.1,0,.2,0,0,0,.1,0,.2h0c0,0,0-.1,0-.2,0,0,0-.1,0-.2,0,0,0-.1,0-.2,0,0,0-.1,0-.2,0,0,0,0,0,0,0,0,0,0,0,0,0,0,0,.1,0,.2ZM12.8,53.2h0c0-.1,0-.2,0-.2,0,0,0-.1,0-.2,0,0,0-.1,0-.2,0,0,0-.1,0-.2,0,0,0-.1,0-.2,0,0,0-.1,0-.2,0,0,0-.1,0-.2,0,0,0-.1,0-.2,0,0,0-.1,0-.2,0,0,0-.1,0-.2,0,0,0-.1,0-.2,0,0,0-.1,0-.2,0,0,0,0,0-.1,0,0,0,0,0,.1,0,0,0,.1,0,.2,0,0,0,.1,0,.2,0,0,0,.1,0,.2,0,0,0,.1,0,.2,0,0,0,.1,0,.2,0,0,0,.1,0,.2,0,0,0,.1,0,.2,0,0,0,.1,0,.2s0,.1,0,.2c0,0,0,.1,0,.2,0,0,0,.1,0,.2,0,0,0,.1,0,.2,0,0,0,0,0,0ZM17,54c0,0,.1,0,.2.1,0,0,.1,0,.2,0,0,0,.1,0,.2,0,0,0,.1,0,.2,0,0,0,.1,0,.2,0,0,0,.1,0,.2,0,0,0,.1,0,.2,0h0c0,0-.1,0-.2,0,0,0-.1,0-.2,0h-.2c0,0-.1,0-.2,0,0,0-.1,0-.2,0,0,0-.1,0-.2,0,0,0-.1,0-.2-.1,0,0-.1,0-.2-.1,0,0,.1,0,.2.1ZM24.4,67.3c-.7.4-1.2.4-1.7,0h0c.5.3,1,.3,1.7,0,.2-.1.2-.5,0-1.1.2.6.1,1,0,1.1ZM25.2,65.2c0,0-.1-.1-.2-.2,0,0-.1-.1-.2-.2,0,0-.1-.1-.2-.2,0,0,0-.2-.1-.2,0,0,0-.2-.1-.3,0,0,0-.2-.1-.3,0,0,0,.2.1.3,0,0,0,.2.1.3,0,0,0,.2.1.2,0,0,0,.2.2.2,0,0,.1.1.2.2,0,0,.1.1.2.2,0,0,.1.1.2.2,0,0-.1-.1-.2-.2ZM26.3,58.4c0,0,.1,0,.2,0,0,0,0,0,0,0,0,0,0,0,0,0,0,0-.1,0-.2,0ZM26.8,58.1c0,0-.1,0-.2,0,0,0-.1,0-.2,0,0,0-.1,0-.2,0,0,0-.1,0-.2,0,0,0-.1,0-.2,0,0,0-.1,0-.2,0,0,0-.1,0-.2,0,0,0,.1,0,.2,0,0,0,.1,0,.2,0,0,0,.1,0,.2,0,0,0,.1,0,.2,0,0,0,.1,0,.2,0,0,0,.1,0,.2,0,0,0,.1,0,.2,0h0ZM26.9,52.3s0,0,0,0c0,0,0,0,0,0,.1,0,.2,0,.3,0-.1,0-.2,0-.3,0ZM29,64.1c0,0-.1,0-.2,0,0,0,.1,0,.2,0,0,0,0,0,.1,0,0,0,0,0-.1,0ZM29.5,63.9c0,0-.1,0-.2-.1,0,0-.1,0-.2-.2,0,0-.1-.1-.2-.2,0,0-.1-.1-.2-.2,0,0-.1-.1-.2-.2,0,0-.1-.1-.2-.2,0,0,0,0,0-.1h0s0,0,0,.1c0,0,.1.1.2.2,0,0,.1.1.2.2,0,0,.1.1.2.2,0,0,.1.1.2.2,0,0,.1.1.2.2,0,0,.1,0,.2.1,0,0,.1,0,.2.1,0,0-.1,0-.2-.1ZM31.4,60.2c0,0-.1,0-.2,0,0,0-.1,0-.2,0,0,0-.1,0-.2,0,0,0,0,0-.1,0,0,0-.1,0-.2,0,0,0-.1,0-.2,0,0,0-.1,0-.2-.1,0,0-.1,0-.2-.1h0c0,0,.1,0,.2.1,0,0,.1,0,.2.1,0,0,.1,0,.2,0,0,0,.1,0,.2,0,0,0,0,0,.1,0,0,0,.1,0,.2,0,0,0,.1,0,.2,0,0,0,.1,0,.2,0,0,0,0,0,.1,0,0,0,0,0-.1,0ZM31.6,59.7s0,0,0-.1c0,0,0-.1,0-.2,0,0,0,0,0,0,0,0,0-.1,0-.2,0,0,0,.1,0,.2,0,0,0,0,0,0,0,0,0,.1,0,.2,0,0,0,0,0,.1,0,0,0,0,.1.1,0,0,0,0-.1-.1ZM32.4,56.8c0,0,0,.1,0,.2,0,0,0,.1,0,.2,0,.1,0,.2-.1.3,0,0,0,.1,0,.2,0,0,0,.1,0,.2,0,0,0,.1,0,.2,0,0,0,.1,0,.2h0c0,0,0-.1,0-.2,0,0,0-.1,0-.2,0,0,0-.1,0-.2,0,0,0-.1,0-.2,0,0,0-.2.1-.3,0,0,0-.1,0-.2,0,0,0-.1,0-.2.3,0,.6,0,1-.2-.3.1-.7.2-1,.2ZM33.1,50.4c.5.1.9,0,1.5-.1,0,0,0,0,0,0-.5.2-1,.2-1.5.1ZM36.4,47.2s0,0,0-.1c0,0,0,0,0-.1,0,0,0,0,0-.1-.4.1-.8.2-1.1.1-.4,0-.7-.2-1-.4,0,0,0,0,0,0h0s0,0,0,0c0,0,0,0,0,0h0s0,0,0,0c0,0,0,0,0,0,0,0,0,0,0,0h0s0,0,0,0c.3.2.7.4,1,.4.4,0,.7,0,1.1-.1h0s0,0,0,.1c0,0,0,0,0,.1,0,0,0,0,0,.1,0,0,0,0,0,.1,0,0,0,0,0,0,0,0,0,0,0,0,0,0,0,0,0-.1ZM37.1,47.4c0,0,0,.1,0,.2,0,0,0,0,0,0,0,0,0,0,0,0,0,0,0,0,0,0,0,0,0,0,0,0s0,0,0,0c0,0,0,0,0,0,0,0,0,0,0,0h0s0,0,0-.1c0,0,0,0,0-.1,0,0,0,0,0,0,0,0,0,0,0,0,0,0,0,0,0,.1,0,0,0,0,0,.1h0s0,0,0,0c0,0,0,0,0,0,0,0,0,0,0,0,0,0,0,0,0,0,0,0,0,0,0,0,0,0,0,0,0,0,0,0,0,0,0,0,0,0,0-.1,0-.2,0,0,0-.2,0-.3h0c0,0,0,.2,0,.3ZM38.5,45.5s0,0,0-.1c0,0,0,0,0-.1,0,0,0,0,0,0,0,0,0,0,0,0,0,0,0,0,0,.1,0,0,0,0,0,.1,0,0,0,0,0,.1,0,0,0,0,0,0,0,0,0,0,0,0,0,0,0,0,0-.1ZM38.6,46s0,0,0-.1c0,0,0,0,0,0,0,0,0,0,0,0,0,0,0,0,0,.1,0,.1,0,.2.1.4,0,.1,0,.3.1.4,0-.1,0-.3-.1-.4,0-.1,0-.2-.1-.4ZM39.4,46.8s0,0,0,0c0,0,0,0,0,.1,0,0,0,0,0,0,0,0,0,0,0,0,0,0,0,0,0,0,0,0,0,0,0,0,0,0,0,0,0,0,0,0,0,0,0,0h0c0,0,0-.1,0-.2,0,0,0,.1,0,.2h0s0,0,0,0c0,0,0,0,0,0,0,0,0,0,0,0s0,0,0,0c0,0,0,0,0,0,0,0,0,0,0,0,0,0,0,0,0-.1,0,0,0,0,0,0,0-.1,0-.3,0-.4,0,0,0-.1,0-.2,0,0,0-.1,0-.2,0,0,0,.1,0,.2,0,0,0,.1,0,.2,0,.1,0,.3,0,.4ZM39.2,45.3s0,0,0,.1c0,0,0,.1,0,.2,0,0,0-.1,0-.2,0,0,0,0,0-.1ZM41.2,44.9s0,0,0-.1c0,0,0,0,0-.1,0,0,0,0,0-.1,0,0,0,0,0-.1l-1.9.5s0,0,0,0c0,0,0,0,0,0l1.9-.5s0,0,0,.1c0,0,0,0,0,.1,0,0,0,0,0,.1,0,0,0,0,0,.1s0,0,0,.1c0,0,0,0,0,0,0,0,0,0,0,0,0,0,0,0,0-.1ZM41.4,45.6c0-.1,0-.2-.1-.3,0,0,0,0,0,0,0,0,0,0,0,0,0,.1,0,.2.1.3,0,.1,0,.3.1.4,0,0,0,0,0,.1,0,0,0,0,0-.1,0-.2,0-.3-.1-.4ZM42.1,46s0,0,0,.1c0,0,0,0,0,0s0,0,0,0c0,0,0,0,0,0,0,0,0,0,0,0,0,0,0,0,0,0,0,0,0,0,0,0,0,0,0,0,0,0,0,0,0,0,0,0,0,0,0,0,0,0,0,0,0,0,0,0,0,0,0,0,0,0,0,0,0,0,0,0,0,0,0,0,0,0,0,0,0,0,0,0s0,0,0,0c0,0,0,0,0-.1,0,0,0-.2,0-.3,0,0,0-.1,0-.2,0,0,0,.1,0,.2,0,.1,0,.2,0,.3ZM42.1,45.1s0,0,0,.1c0,0,0,0,0,0,0,0,0,0,0,0,0,0,0,0,0-.1ZM43.7,43.9c0,0-.2,0-.2,0-.1,0-.3,0-.4,0,0,0,0,0,0,0-.1,0-.2,0-.4,0,0,0,0,0-.1,0,0,0,0,0-.1,0,0,0,0,0-.1,0,0,0,0,0-.1,0,0,0,0,0-.1,0,0,0,0,0-.1,0,0,0,0,0-.1,0h0s0,0,.1,0c0,0,0,0,.1,0,0,0,0,0,.1,0,0,0,0,0,.1,0,0,0,0,0,.1,0,0,0,0,0,.1,0,0,0,0,0,.1,0,.1,0,.2,0,.4,0,0,0,0,0,0,0,.1,0,.3,0,.4,0,0,0,.2,0,.2,0,0,0,0,0,0,.1,0,0,0,0,0,0,0,0,0,0,0,0,0,0,0,0,0-.1ZM44,44.7s0,0,0-.1c0,0,0,0,0-.1,0,0,0,0,0-.1,0,0,0,0,0-.1,0,0,0,0,0,0,0,0,0,0,0,0,0,0,0,0,0,.1s0,0,0,.1c0,0,0,0,0,.1s0,0,0,.1c0,.1,0,.2,0,.3,0,0,0,.1,0,.2,0,0,0-.1,0-.2,0-.1,0-.2,0-.3ZM44.8,45.1c0,0,0,.1,0,.2,0,0,0,0,0,.1,0,0,0,0,0,0,0,0,0,0,0,0,0,0,0,0,0,0,0,0,0,0,0,0,0,0,0,0,0,0h-.1s0,0,0,0c0,0,0,0,0,0h.1s0,0,0,0c0,0,0,0,0,0,0,0,0,0,0,0,0,0,0,0,0,0,0,0,0,0,0,0,0,0,0,0,0-.1,0,0,0-.1,0-.2,0-.1,0-.3,0-.4h0c0,.1,0,.3,0,.4ZM44.7,44c0,0,0,.1,0,.2,0,0,0,.1,0,.2,0,0,0,.1,0,.2,0,0,0-.1,0-.2,0,0,0-.1,0-.2,0,0,0-.1,0-.2ZM46.6,43.8s0,0,0,0h-1.9c0,.1,0,.1,0,.2,0,0,0,0,0,0h1.9c0,0,0,0,0,0,0,0,0,0,0,0,0,0,0,0,0,0,0,0,0,0,0,0,0,0,0,0,0,0ZM46.7,44.2s0,0,0,0c0,0,0,0,0,0,0,0,0,0,0,0,0,0,0,0,0,0,0,0,0,0,0,0,0,0,0,0,0,0ZM47.5,44.9s0,0,0,0,0,0,0,0c0,0,0,0,0,0,0,0,0,0,0,0,0,0,0,0,0,0,0,0,0,0,0,0h0c0,0,0-.1,0-.2,0,0,0-.1,0-.2,0,0,0,.1,0,.2,0,0,0,.1,0,.2h0s0,0,0,0c0,0,0,0,0,0,0,0,0,0,0,0,0,0,0,0,0,0,0,0,0,0,0,0,0,0,0,0,0,0,0,0,0-.2,0-.3h0c0,0,0,.2,0,.3ZM47.4,43.7h0s2.2.2,2.2.2h0s-2.2-.2-2.2-.2ZM49.7,44s0,0,0,0c0,0,0,0,0,0,0,0,0,0,0,0,0,0,0,0,0,0,0,0,0,0,0,0,0,0,0,0,0,0ZM50.5,44.3c0,.2,0,.3,0,.5,0,0,0,.2-.1.2,0,0,0,0,0,0,0,0,0,0,0,0,0,0,0,0,0,0,0,0,0,0,0,0,0,0,0,0,0,0h0s0,0,0,0c0,0,0-.2,0-.3,0,0,0-.1,0-.1,0,0,0-.1,0-.2s0-.1,0-.2c0,0,0,0,0,0,0,0,0,0,0,0,0,0,0,.1,0,.2,0,0,0,.1,0,.2,0,0,0,0,0,.1,0,0,0,.2,0,.3,0,0,0,0,0,0h0s0,0,0,0c0,0,0,0,0,0,0,0,0,0,0,0,0,0,0,0,0,0,0,0,0,0,0,0,0,0,0-.1.1-.2,0-.1,0-.3,0-.5h0ZM50.5,44h0s2,.2,2,.2c0,0,0,0,0,0,0,0,0,0,0,0l-2-.2ZM55.5,44.8c0,0,0-.1,0-.2l-2.3-.3c0,0,0,.2,0,.2,0,.1,0,.3,0,.4,0,0,0,.1-.1.2,0,0,0,0,0,0,0,0,0,0,0,0,0,0,0,0,0,0,0,0,0,0,0,0,0,0,0,0,0,0h0s0,0,0,0c0,0,0,0,0-.1,0,0,0,0,0-.1,0,0,0,0,0-.1,0,0,0,0,0-.1,0,0,0,0,0,0,0,0,0,0,0,0,0,0,0,0,0,.1,0,0,0,0,0,.1,0,0,0,0,0,.1,0,0,0,0,0,.1,0,0,0,0,0,0h0s0,0,0,0c0,0,0,0,0,0,0,0,0,0,0,0,0,0,0,0,0,0,0,0,0,0,0,0,0,0,0-.1.1-.2,0-.1,0-.3,0-.4,0,0,0-.2,0-.2l2.3.3c0,0,0,.1,0,.2,0,0,0,0,0,.1,0,0,0,0,0,.1,0,0,0,0,0,.1,0,0,0,0,0,0,0,0,0,0,0,0,0,0,0,0,0-.1,0,0,0-.1,0-.1,0,0,0-.1,0-.1ZM56.4,44.8c0,0,0,.2,0,.3,0,.2,0,.3-.1.4,0,0,0,.1-.1.2,0,0,0,0,0,0,0,0,0,0,0,0,0,0,0,0,0,0,0,0,0,0,0,0h0s0,0,0,0c0,0,0,0,0,0h0s0,0,0,0c0,0,0,0,0,0h0s0,0,0,0c0,0,0,0,0,0,0,0,0,0,0,0,0,0,0,0,0,0,0,0,.1-.1.1-.2,0-.1.1-.3.1-.4,0,0,0-.2,0-.3l2,.4s0,0,0,0c0,0,0,0,0,0l-2-.4ZM58.4,45.5c0,0,0-.1,0-.2,0,0,0,0,0,0,0,0,0,0,0,0,0,0,0,.1,0,.2,0,0,0,.1,0,.2,0,0,0,.1,0,.2,0,0,0,.1,0,.2h0c0,0,0-.1,0-.2,0,0,0-.1,0-.2,0,0,0-.1,0-.2ZM59.2,45.6c0,.2,0,.4-.2.5,0,0,0,0,0,.1,0,0,0,0,0,0,0,0,0,0,0,0,0,0,0,0,0,0,0,0,0,0,0,0h0s0,0,0,0c0,0,0,0,0,0h0s0,0,0,0c0,0,0,0,0,0h0s0,0,0,0c0,0,0,0,0,0,0,0,0,0,0,0,0,0,0,0,0,0,0,0,0,0,0-.1,0-.2.2-.4.2-.5,0-.1,0-.2,0-.3l1.6.3h0s-1.6-.3-1.6-.3c0,0,0,.2,0,.3ZM60.9,45.7s0,0,0,0c0,0,0,0,0,0,0,0,0,0,0,0,0,0,0,0,0,0ZM60.9,45.9s0,0,0,0c0,0,0,0,0,0,0,0,0,0,0,0,0,0,0,0,0,0h0s0,0,0-.1ZM61.7,45.9c0,.2,0,.4,0,.5,0,.1,0,.2-.1.3,0,0,0,.1-.1.1,0,0,0,0,0,0,0,0,0,0,0,0,0,0,0,0,0,0,0,0,0,0,0,0,0,0,0,0,0,0s0,0,0,0c0,0,0,0,0,0h0s0,0,0,0c0,0,0,0,0,0s0,0,0,0c0,0,0,0,0,0,0,0,0,0,0,0,0,0,0,0,0,0,0,0,0,0,0,0,0,0,0,0,.1-.1,0,0,0-.2.1-.3,0-.2,0-.3,0-.5h0ZM62.9,46.1c-.1,0-.2,0-.4,0,0,0,0,0-.1,0,0,0,0,0-.1,0,0,0,0,0-.1,0,0,0,0,0-.1,0,0,0,0,0-.1,0,0,0,0,0-.1,0,0,0,0,0-.1,0h0s0,0,.1,0c0,0,0,0,.1,0,0,0,0,0,.1,0,0,0,0,0,.1,0,0,0,0,0,.1,0,0,0,0,0,.1,0,0,0,0,0,.1,0,.1,0,.2,0,.4,0,0,0,.2,0,.2,0,.2,0,.3,0,.5.1h0c-.2,0-.3,0-.5-.1,0,0-.2,0-.2,0ZM65.3,46.8s0,0-.1,0c0,0,0,0-.1,0,0,0,0,0-.1,0,0,0,0,0-.1,0,0,0,0,0-.1,0,0,0,0,0-.1,0,0,0,0,0-.1,0,0,0,0,.1,0,.2,0,.2,0,.3-.1.4,0,.1,0,.2-.2.3,0,0-.1.1-.2.2,0,0,0,0,0,0,0,0,0,0,0,0,0,0,0,0,0,0,0,0,0,0,0,0h0s0,0,0,0c0,0,0,0,0,0h0s0,0,0,0c0,0,0,0,0,0h0s0,0,0,0c0,0,0,0,0,0,0,0,0,0,0,0,0,0,0,0,0,0,0,0,.1-.1.2-.2,0,0,.1-.2.2-.3,0-.1,0-.3.1-.4,0,0,0-.1,0-.2,0,0,0,0,.1,0,0,0,0,0,.1,0,0,0,0,0,.1,0,0,0,0,0,.1,0,0,0,0,0,.1,0,0,0,0,0,.1,0,0,0,0,0,.1,0,.1,0,.2,0,.4.1.2,0,.3,0,.5.1,0,0,.2,0,.2,0h0c0,0-.2,0-.2,0-.2,0-.3-.1-.5-.1-.1,0-.2,0-.4-.1ZM67.2,47.5c0,0,0,.2,0,.2,0,.1-.1.3-.2.4,0,.1-.1.2-.2.3,0,0-.1,0-.2,0,0,0,0,0,0,0h0s0,0,0,0c0,0,0,0,0,0,0,0,0,0,0,0,0,0,0,0,0,0,0,0,0,0,0,0,0,0,0,0,0,0,0,0,0,0,0,0,0,0,0,0,0,0,0,0,0,0,0,0,0,0,0,0,0,0,0,0,0,0,0,0h0s0,0,0,0c0,0,.1,0,.2,0,0,0,.2-.2.2-.3,0-.1.1-.3.2-.4,0,0,0-.2,0-.2,0,0,0,0,0,0l1.5.5h0s-1.5-.5-1.5-.5c0,0,0,0,0,0ZM70.3,48.6c0,0-.2,0-.3-.1,0,0,0,0,0,0,0,0,0,0,0,0,0,0,0,0,0,0,0,0,0,0,0,0,0,0,0,0,0,0,0,0,0,0,0,0,0,0,0,0,0,0,0,0,0,0,0,0,0,0,0,.1,0,.2,0,.1-.1.2-.2.3,0,.1-.1.2-.2.3,0,0-.1.1-.2.1,0,0,0,0,0,0,0,0,0,0,0,0s0,0,0,0c0,0,0,0,0,0,0,0,0,0,0,0,0,0,0,0,0,0,0,0,0,0,0,0h0s0,0,0,0c0,0,0,0,0,0,0,0,0,0,0,0,0,0,0,0,0,0,0,0,0,0,0,0s0,0,0,0c0,0,0,0,0,0,0,0,.2,0,.2-.1,0,0,.2-.2.2-.3,0-.1.1-.2.2-.3,0,0,0-.1,0-.2,0,0,0,0,0,0,0,0,0,0,0,0,0,0,0,0,0,0,0,0,0,0,0,0,0,0,0,0,0,0,0,0,0,0,0,0,0,0,0,0,0,0,0,0,0,0,0,0,0,0,.2,0,.3.1.1,0,.2,0,.3.1,0,0,.1,0,.2,0,0,0,.1,0,.2.1,0,0,0,0,.1.1,0,0,0,0,.1.1,0,0,0,0,.1.1h0s0,0-.1-.1c0,0,0,0-.1-.1,0,0-.1,0-.1-.1,0,0-.1,0-.2-.1,0,0-.1,0-.2,0-.1,0-.2,0-.3-.1ZM72.6,50.2s0,0,0,0c0,0,0,0,0,0,0,0,0,0,0,0,0,0,0,0,0,0,0,0,0,0,0,0,0,0,0,0,0,0,0,0,0,.1-.1.2,0,.1-.2.3-.3.4,0,0-.2.1-.2.1,0,0,0,0,0,0,0,0,0,0,0,0,0,0,0,0,0,0,0,0,0,0,0,0,0,0,0,0,0,0,0,0,0,0,0,0,0,0,0,0,0,0h0s0,0,0,0c0,0,0,0,0,0,0,0,0,0,0,0,0,0,0,0,0,0,0,0,0,0,0,0,0,0,0,0,0,0,0,0,0,0,0,0,0,0,.2,0,.2-.1.1-.1.2-.2.3-.4,0,0,0-.1.1-.2,0,0,0,0,0,0,0,0,0,0,0,0,0,0,0,0,0,0,0,0,0,0,0,0,0,0,0,0,0,0,0,0,0,0,0,0,0,0,0,0,0,0,0,0,0,0,0,0,0,0,.2.2.3.2.1.1.2.2.3.3,0,0,.1,0,.2.1h0c0,0-.1,0-.2-.1-.1,0-.2-.2-.3-.3,0,0-.2-.1-.3-.2,0,0,0,0,0,0,0,0,0,0,0,0ZM72.8,51.9h0s0,0,0,0c0,0,0,0,0,0,0,0,0,0,0,0,0,0,0,0,0,0ZM74.7,52.1s0,0,0,0c0,0,0,0,0,0,0,0,0,0,0,0,0,0,0,0,0,0,0,0,0,0,0,0,0,0,0,0,0,0,0,0,0,0,0,0,0,0-.1.1-.2.2-.1.1-.3.2-.4.3,0,0-.2,0-.3,0,0,0,0,0,0,0,0,0,0,0,0,0,0,0,0,0,0,0,0,0,0,0,0,0,0,0,0,0,0,0,0,0,0,0,0,0,0,0,0,0,0,0,0,0,0,0,0,0,0,0,0,0,0,0,0,0,0,0,0,0,0,0,.2,0,.3,0,.2,0,.3-.2.4-.3,0,0,.1-.1.2-.2,0,0,0,0,0,0,0,0,0,0,0,0,0,0,0,0,0,0,0,0,0,0,0,0,0,0,0,0,0,0,0,0,0,0,0,0,0,0,0,0,0,0,0,0,0,0,0,0,0,0,.2.2.2.2.1.1.2.2.3.3,0,0,0,.1.1.2,0,0,0,0,0,0,0,0,0-.1-.1-.2-.1-.1-.2-.2-.3-.3,0,0-.2-.2-.2-.2,0,0,0,0,0,0ZM76.2,53.8s0,0,0-.1c0,0,0,0,0,0h0c0,0-.1,0-.2,0-.1,0-.2.1-.4.2,0,0-.1,0-.2,0,0,0,0,0,0,0,0,0,0,0,0,0,0,0,0,0,0,0,0,0,0,0,0,0,0,0,0,0,0,0,0,0,0,0,0,0,0,0,0,0,0,0h0s0,0,0,0c0,0,0,0,0,0,0,0,0,0,0,0,0,0,0,0,0,0,0,0,0,0,0,0,0,0,0,0,0,0,0,0,0,0,0,0,0,0,.2,0,.2,0,.1,0,.3-.1.4-.2l.2-.2s0,0,0,.1h0c0,.1,0,.2,0,.2,0,0,0,0,0,0,0,0,0,0,0,.1,0,0,0,0,0,0,0,0,0,0,0,0,0,0,0,0,0-.1,0,0,0,0,0,0ZM76.9,56c0,0-.2,0-.2,0,0,0,0,0,0,0,0,0,0,0,0,0,0,0,0,0,0,0,0,0,0,0,0,0,0,0,0,0,0,0,0,0,0,0,0,0,0,0,0,0,0,0h0s0,0,0,0c0,0,0,0,0,0,0,0,0,0,0,0,0,0,0,0,0,0,0,0,0,0,0,0,0,0,0,0,0,0,0,0,0,0,0,0,0,0,.2,0,.2,0,.1,0,.3,0,.4,0,0,0,.2,0,.2,0,0,0,0,0,0,.1,0,0,0,0,0,.1,0,0,0,0,0-.1,0,0,0,0,0-.1,0,0-.2,0-.2,0-.1,0-.2,0-.4,0ZM77.3,64.8c0,0-.2,0-.3,0-.3,0-.5,0-.8,0,0-.4.3-.7.6-1-.3.2-.5.6-.6,1,.3-.1.5-.1.8,0,0,0,.2,0,.3,0h0ZM78.1,58.5c0,0-.1,0-.2,0-.1,0-.2,0-.3-.1,0,0-.1,0-.2-.1h0c0,0,0,.1.2.1.1,0,.2,0,.3.1,0,0,.1,0,.2,0h0ZM79,61l.2-.9h0s-.2.9-.2.9c0,.2,0,.3,0,.5,0-.1,0-.3,0-.5ZM79.6,62.6c0-.2,0-.4,0-.6,0,.2,0,.4,0,.6h0ZM80.9,53.2c-.3-.4-.5-.9-.4-1.5,0,.5.1,1,.4,1.5,0,0,0,.1.1.1,0,0,0,0-.1-.1ZM84.3,54.3h0c-.2.2-.3.5-.3.7,0-.3.1-.5.3-.7ZM84,55.3h0c-.4-.2-.6-.4-.8-.8h0c.2.4.4.7.8.8ZM83.3,63.3c0,.2,0,.4,0,.6,0-.2,0-.4,0-.6ZM82.3,58c0,0,0,.2,0,.3,0,0,0-.2,0-.3ZM81.8,58.2c.1.1.3.2.5.3h0c-.2,0-.3-.2-.5-.3-.1-.1-.2-.3-.3-.5h0c0,.2.2.4.3.5ZM82.2,66.7l.4-.8s0,0,0,0l-.4.8c-.1.3-.2.6-.2.9,0-.3,0-.6.2-.9ZM83.5,66.6c-.4,0-.7.2-.9.5.2-.3.5-.5.9-.5,0,0,0,0,0,0ZM84,61.8c-.4.1-.6.4-.7.7-.2-.2-.3-.5-.3-.8,0,.3.1.6.3.8.1-.3.4-.6.7-.7,0,0,0,0,0,0ZM84.8,56.4c-.4-.5-.6-1-.6-1.6,0,.6.2,1.1.6,1.6h0ZM87.6,59c-.4.1-.6.4-.7.7,0,0,0,0,0,0,.1-.3.4-.6.7-.7ZM87.3,63.7l-.2.9.2-.9h0ZM86.4,59.5l.2-.9-.2.9c0,.2,0,.3,0,.5,0-.1,0-.3,0-.5ZM87,61.1c0-.2,0-.4,0-.6,0,.2,0,.4,0,.6h0ZM87.6,65.6c0,.2,0,.4,0,.6,0-.2,0-.4,0-.6ZM88.3,64.1c-.4.1-.6.4-.7.7-.2-.2-.3-.5-.3-.8,0,.3.1.6.3.8.1-.3.4-.6.7-.7,0,0,0,0,0,0Z"/>
</svg>