<?xml version="1.0" encoding="UTF-8"?>
<svg id="Layer_1" xmlns="http://www.w3.org/2000/svg" version="1.1" viewBox="0 0 83 89">
  <!-- Generator: Adobe Illustrator 30.0.0, SVG Export Plug-In . SVG Version: 2.1.1 Build 123)  -->
  <defs>
    <style>
      .st0 {
        fill: #403f3e;
      }
    </style>
  </defs>
  <path class="st0" d="M33.5,11.8c0,.2,0,.5,0,.7,0,.3.2.6.5.9,0,0,.2,0,.3.1-.3-.6-.5-1.1-.8-1.7ZM38.2,10.9s0,0,0,0c-.8-.5-1.6-1.1-2.3-1.7-.7.7-1.4,1.2-2.3,1.7,0,.2,0,.3,0,.5.2.7.5,1.4.9,2.1.4.1.9.2,1.5.2s1.1,0,1.6-.2c.3-.9.5-1.7.7-2.5ZM38.3,12.5c0-.4,0-.7,0-1-.2.7-.4,1.3-.7,2,0,0,.1,0,.2,0,.3-.2.5-.5.5-.9ZM28.8,8.5c0-.3,0-.5,0-.8-.4.1-.7.3-.9.4,0,0,0,.2,0,.3-.3,1.1-.3,2,0,2.8,0,0,0,0,0,0,.2-.4.5-.8.8-1.2.1-.2.3-.3.4-.5,0-.3-.2-.6-.2-1ZM43.6,7.1c-.2,0-.5-.1-.7-.2.1.6.1,1.1,0,1.6,0,0,0,0,0,0,0,0,0,0,.1.1,0,0,.1.1.2.2,0,0,.2.2.3.3.2.2.4.4.5.6,0,0,.1.2.2.3,0,0,0,0,0,0,0-.5,0-1.1-.2-1.7-.1-.4-.3-.9-.4-1.3ZM42.5,3.7c-.2,0-.4,0-.6,0-.2,0-.3-.2-.5-.4-.1-.2-.2-.4-.3-.6,0-.2,0-.4,0-.6,0-.1.1-.2.2-.3-1-.9-2.7-1.5-5-1.8-.2,0-.4,0-.7,0-1.9.3-3.4.7-4.4,1.4-.3.2-.5.3-.7.5,0,0,.1.1.2.3,0,.1,0,.3,0,.6,0,.2-.2.4-.3.6-.1.2-.3.3-.5.4-.2.1-.4.1-.7,0,0,.2-.1.4-.2.6-.4,1.3-.8,2.5-1.2,3.6,0,0,.1,0,.1,0,.3-.1.5-.2.7-.3,0-.7.3-1.5.6-2.3-.1.8-.2,1.6-.2,2.2,0,0,.1,0,.2,0,.4,0,.6,0,.6,0,0,0-.3,0-.8.2,0,.6,0,1.2.2,1.6,0,0,.2-.1.3-.2.4-.2.5-.3.5-.2,0,0-.3.2-.7.6.2.4.4.7.7.8.3,0,.6,0,.9,0,0-.5.1-.9.2-1.3,0,0,0,0,0-.1,0,0,0-.1,0-.2,0,0,0,0,0,0,0,0,0,0,0,0h0c0,.1,0,.2,0,.3,0,0,0,.5-.2,1.4,0,0,0,0,0,.1.5,0,1.1-.1,1.7-.4-.2-.9-.3-1.4-.2-1.4.1.4.2.9.4,1.3.5-.2,1.1-.5,1.7-.8.4-.3.8-1.2,1.1-2.9-.9-.9-1.6-1.5-2-2.1-.4-.5-.6-1-.7-1.5.3-.7,1.3-1.1,2.7-1.2.8,0,1.4.2,1.9.4.1,0,.2.1.3.2.3.2.4.4.6.7-.1.5-.4,1-.7,1.5-.4.5-1.1,1.2-2,2,.3,1.7.7,2.6,1.1,2.9.5.3.9.5,1.4.7,0-.5.1-1,.2-1.5,0,0,0,.5,0,1.5.7.3,1.3.4,1.9.5,0-.2,0-.4-.1-.5-.2-.9-.4-1.3-.4-1.3,0,0,0-.1-.1-.2h0s0,0,0,0c0,0,0,0,0,0,0,0,0,0,.1.1,0,0,0,0,0,.1.2.6.4,1.1.5,1.7.4,0,.7,0,1,0,.5-.2.8-.8.9-1.7-.1,0-.2-.2-.3-.2-.2-.1-.4-.2-.5-.3-.2-.1-.3-.2-.3-.2,0-.1.2,0,.6.1,0,0,0,0,.1,0,.2.1.4.2.5.4,0-.4,0-.8,0-1.4-.5,0-.7,0-.8,0,0,0,.1-.1.6-.1,0,0,.1,0,.2,0,0-.5-.1-1-.2-1.5.2.5.4,1.1.5,1.5.2,0,.4,0,.7.2-.3-1-.7-2.1-1.1-3.2,0,0,0,0,0,0ZM77.6,84.8c.7-.7,1.2-.8,1.4-.5.5.2,1.7.5,3.5.9l-4-2.3-7.6-3.6-1.4-.4c.3-.4.5-.9.4-1.4-1.1-7.5-2.2-13.5-3.3-18l-1.6-5.8c-1.4-3.5-3.1-7-5.1-10.4-2.5-3.9-4.5-6.9-6.1-9.1-1.1-1.5-2.1-2.9-3.2-4.4-1.1-1.5-1.9-2.9-2.6-4.3-.7-1.4-1.2-2.7-1.6-3.8,0-.2-.2-.5-.3-.8-1.3-3.6-2.2-6.7-2.5-9.2.3-.4.5-.8.6-1.3,0,0,0,0,0,0,0-.1-.2-.2-.2-.4-.1-.2-.3-.4-.5-.6,0,0,0,0-.1-.1-.1-.1-.2-.3-.4-.4,0,0,0,0,0,0-.2.8-.4,1.4-.6,1.7,0,.1-.2.2-.4.3h0c.6,2.4.9,5,1,8h.9c0,0,.2,0,.2,0,0,0,0,0,0,.1,0,0,0,.1,0,.1.3,0,.7,0,1,0,.1,0,.2,0,.3.2,0,0,0,.1,0,.2-.1.1-.3.2-.6.2,0,0-.2,0-.3,0-.2,0-.3,0-.6,0-.3,0-.6,0-.9,0,0,.8,0,1.6,0,2.4,0,0,0,0,0,0,0,0,0,0,0,.1h0c-.1,2.6-.4,5.4-.9,8.4.3,0,.5,0,.7,0,.1,0,.2,0,.2.1,0,0,0,0,0,.1h0c0,0,0,.1,0,.1,0,0,0,0,0,.1,0,0,0,0,0,.1,0,0-.1,0-.2,0-.2,0-.4,0-.7,0,0,.4-.1.7-.2,1.1-.1.3-.2.3-.3,0,0-.3,0-.7,0-1-.3,0-.6,0-.9,0,0,0,0,.1-.1.2,0,0-.1,0-.2,0,0,0,0,0,0,0,0,0,0,0,0,0,0,0,0,0-.2,0-.2,0-.3,0-.5,0-.3,0-.7,0-1,0-.1,0-.2,0-.2,0,0,0,0,0,0-.1,0,0,0,0,0-.1-.1,0-.2,0-.4,0-.1,0-.2,0-.2-.1h0c0,0,0-.1,0-.1,0,0,0,0,.1,0,.2,0,.4,0,.5,0,.1,0,.2,0,.2,0,0,0,0,0,.2-.1,0,0,.1,0,.2,0,0,0,0-.1.2-.2.3,0,.7-.2,1.3-.2.1,0,.3,0,.5,0,.1,0,.2,0,.3,0-.2-2.1-.3-4-.5-5.7,0,0,0,0-.1,0-.3,0-.5.1-.6.1-.1,0-.3,0-.5,0-1.2,0-2.4,0-3.6,0-.4,0-.7,0-.8,0-.1,0-.2,0-.2,0,0,0,0,0,0,0,0,0,0,0,0-.1,0,0,0-.1.2-.1,2.2-.2,4.1-.3,5.6-.3h0c0-.7-.1-1.3-.2-2h0c-1.3,0-2.6.2-3.8.5-.2,0-.3,0-.3,0,0,0,0-.1,0-.2,0,0,0,0,.1,0-.2,0-.4,0-.6,0,0,0-.2,0-.2,0,0,0,0,0,0-.2,0-.1,0-.2,0-.2,0,0,0,0,.2,0,1.3-.2,2.3-.3,3.1-.3.4,0,.9,0,1.4,0h.1c0-.9-.2-1.7-.3-2.5,0,0-.2,0-.4,0-.2,0-.4,0-.8,0-.4,0-.7,0-1.1,0,0,0,0,0,0,0,0,0,0,0,0,0,0,0,0,0,0,0,0,0,0,0,0-.1,0,0,0,0,0-.1,0,0,0-.1,0-.2,0,0,0-.1,0-.1,0,0,.1,0,.3,0,0,0,0,0,0,0,.6,0,1,0,1.1,0,0,0,0,0,0-.1,0,0,0,0,0,0,0,0,0,0,.1,0,0,0,0,0,.1,0,0,0,.2,0,.4,0,0,0,0,0,.1,0,0-.7-.2-1.4-.3-2-.5,0-.9.1-1.2.1-.5,0-.9.2-1.1.2-.5,0-1,.1-1.4,0,0,0-.2,0-.2,0,0,0,0,0,0-.1,0,0,0,0,0,0,0,0,0,0,0-.2,0,0,0-.1.1-.1,0,0,.2,0,.3,0,0,0,.1,0,.3,0,.1,0,.3,0,.5,0,0,0,0,0,0,0,.2,0,.4-.1.5-.2.2,0,.5-.1.8-.1.3,0,.6,0,.9,0h.4s0,0,0,0c-.2-1.6-.4-2.8-.7-3.9,0,.6-.2,1.1-.4,1.2-.4.2-.8.3-1.3.4,0,0,0,.2-.1.3,0,0,0-.2,0-.2-.4,0-.9.1-1.4.2-.4,0-.8,0-1.2-.1,0,.2.2.4.3.6-.1-.2-.2-.4-.3-.6-.4,0-.9-.2-1.2-.4-.2-.1-.3-.4-.4-.7-.2,1.7-.5,3.3-.7,5-.2,1.3-.3,2.7-.4,4,0,0,0-.2,0-.3,0,0,0,0,.1,0,.1,0,.2,0,.3.2,0,0,0,0,0,.2,0,0,0,.1,0,.2,0,0-.1,0-.2.1,0,0-.1,0-.2,0,0,0,0,0,0,.1,0,0,0,0,0,.1,0,0,0,0,0,.1,0,0,0,0-.1,0,0,0,0,.2,0,.3,0,0,0,0,0-.1h1.1c.1,0,.2.1.3.2,0,0,0,0,.1,0,0,0,.2,0,.3,0,.1,0,.2,0,.3,0,0,0,0,0,0,.1,0,0,0,0,0,.1,0,0-.2,0-.3,0-.2,0-.5-.1-.9-.1-.4,0-.7,0-.9,0,0,0,0,0,0,0-.3,3-.5,6.1-.6,9.3,0,.1-.1.1-.2,0-.6-1.6-1.1-3.4-1.4-5.3-.4,0-.8,0-1.3,0-.3,0-.9,0-1.6,0-.3,0-.5,0-.6,0-.2,0-.4,0-.6,0-.2,0-.3-.1-.4-.3,0,0,0-.2,0-.2,0,0,0,0,.2,0h4.2s0,0,0,0c-.1-1.1-.2-2.2-.3-3.4-.1,0-.2,0-.2,0h-.1c0-.1-.1-.1-.2-.1-.4,0-.9,0-1.4,0-.1,0-.2,0-.2,0,0,0,0,0,0-.1,0,0,0,0,0-.1,0,0,0,0-.1,0s-.1,0-.1,0c0,0-.1,0-.2,0,0,0,0,0,0-.1,0,0,0-.1,0-.2.1-.2.3-.2.6-.3,0,0,.1,0,.3,0,.1,0,.2,0,.3,0,0,0,0,0,0,0,0,0,0,0,0-.1,0,0,.1-.1.2-.1,0,0,0,0,0,0,0,0,0,0,0,0,0,0,0,0,.1,0h1c0-1.2,0-2.4.1-3.7.2-2.2.5-4.6.9-7.1-.3,0-.5-.2-.7-.3-.2-.2-.3-.4-.4-.8-.3.3-.5.6-.7.9-.2.3-.3.6-.5.9,0,.1.1.2.2.3-.5,2.1-1,4.2-1.6,6.2-2.1,7.6-4.6,14.5-7.4,20.7-4.5,11.3-7,20.5-7.5,27.8v.3c0,0,0,.2,0,.3-.3,4.8,0,9.4,1.1,13.9-2.4.8-4.4,1.6-5.8,2.4-1.4.8-2.6,1.6-3.5,2.2-.9.6-1.7,1.2-2.6,1.6-.3.1-.5.3-.7.4H0c0,.1,0,.1,0,.1,2.3.7,6-.7,11.2-4.3-1.6,1.2-2.7,2.3-3.4,3.2-.4.5-.2.9.4,1.3,1.7.9,4.1,1,7.3.4,3.2-.6,4.8-1.2,4.8-1.8l4.1-22.5-2.1,17c.2,2,1.2,3.5,3.1,4.3,7.4,1.8,15.1,1,23-2.4.8-.5,1.1-1.1.9-1.9-1-3.2-1.9-6.8-2.6-10.7l5.5,15.1c.2.6.5,1.1.9,1.3.3.2.7.4,1,.5.3.1.8.2,1.4.3.4,0,.8.2,1.3.3,2.3.4,4.7.4,7.3,0,.3,0,.4,0,.3-.2l-.7-1.5c-.2-.2-.2-.3,0-.3,1.8,1.4,3.5,2.2,4.9,2.4,1.4.2,2.3.3,2.7.1.4-.2.8-.2,1.2-.2-.1-.4-.4-.9-.8-1.4-1.5-1.7-5.1-3.5-10.7-5.4-1.2-9.9-2.9-20-4.9-30.2.4,1,.8,2.1,1.1,3.3l.2.7h0c0,.2.1.4.2.6l.2.6c0,.1,0,.2.1.3,2,6.6,3.5,14.4,4.7,23.4,2.9,1,5.6,2.7,7.9,4.9.8-.3,1.5-.7,2.1-1.3.8.3,1.4.7,1.7,1.2.7.1,1,0,1.1-.6.8,0,1.5.3,2.2.7ZM48.8,29.9c0,0,.1,0,.1.1,0,0,0,.1,0,.2,0,0-.1,0-.2,0h-2.6c-.1-.2-.2-.2-.2-.1h-.1c0,0-.2,0-.4,0,0,0,0,0,0,.1,0,0,0,0-.1,0,0,0-.1,0-.3,0-.1,0-.4,0-.8,0-.3,0-.6,0-.8,0-.1,0-.2,0-.3-.1,0,0,0,0-.1-.2,0,0,0-.2,0-.2,0,0,.1,0,.2,0,.1,0,.2,0,.2,0,0,0,0,0,0,0,0,0,0,0,0,0,0,0,0,0,.2,0h.8c0,0-1.3,0-1.3,0,0,0-.2,0-.2,0,0,0-.1,0-.1-.1s0,0,0,0c0,0,0-.1.2-.1h2.3c.3,0,.6,0,.9,0,.2,0,.4,0,.7,0,.3,0,.5,0,.7,0,0,0,.2,0,.2,0,0,0,.1,0,.2.2,0,0,0,0,0,.1,0,0,0,0,0,0h.8c.1,0,.2.1.2.2,0,0,0,0,0,0s0,0,0,0c0,0,0,0,0,0,0,0-.1,0-.2,0ZM45.6,22.2c.1,0,.2,0,.4,0,0,0,.1,0,.1,0,0,0,0,0,0,.1,0,0,0,.1,0,.1,0,0,0,.1-.1.1,0,0,0,0-.1,0h-.1s-.6,0-.6,0c-.1,0-.3,0-.6,0h-.2c0,0-.2,0-.2,0h0c0,0,0,0,0,0,0,0,0,0,0,0,0,0,0,0,0-.1,0,0,0,0,.2-.1,0,0,.2,0,.3,0,.1,0,.3,0,.4,0,0,0,0,0,.1,0h0c0,0,.1-.1.2,0,0,0,.1,0,.2,0h.2ZM43.5,25.4s0,0,.2,0c0,0,.1,0,.2,0,0,0,0,0,.2,0,0,0,0,0,.1,0,0,0,0,0,.1-.1,0,0,.1,0,.3,0,0,0,.2,0,.4,0,.2,0,.3,0,.4,0,0,0,.2,0,.4.1.1,0,.2,0,.4,0,.3,0,.5,0,.7,0,.1,0,.2,0,.3,0,0,0,0,0,0,.1,0,0,0,0,0,.1,0,0-.1,0-.2,0-.1,0-.2,0-.2,0,0,0,0,0-.1,0,0,0-.1,0-.1,0,0,0-.1,0-.2,0-.8,0-1.5,0-2.2,0-.1,0-.2,0-.2,0,0,0,0,0,0,0h0s-.2,0-.2,0c0,0-.2,0-.2,0,0,0-.1,0-.1-.1,0,0,0,0,0-.1,0,0,0,0,.1,0,0,0,0,0,.2,0,0,0,.1,0,.1,0ZM45.1,34.4c.2,0,.3-.1.5-.1,0,0,0,0,0,0,0,0,0,0,0-.1,0,0,.1,0,.2,0,.8,0,1.4,0,1.8,0,.7,0,1.3,0,1.8,0,0,0,.2,0,.3,0h.2c0,0,0,0,.2,0,0,0,.1,0,.2,0,0,0,.1,0,.2,0,0,0,0,0,0,.1,0,0-.1.1-.3.1-.3,0-.6,0-.9,0,0,0,0,0,0,.1,0,0,0,0-.1,0,0,0,0,0,0,0,0,0,0,0,0,0,0,0-.1,0-.2,0-.4,0-.9,0-1.6,0-.8,0-1.4,0-1.6,0-.2,0-.4,0-.5,0-.2,0-.4,0-.5,0-.1,0-.2,0-.2-.1,0,0,0,0,0-.1,0,0,0,0,.1,0,0,0,.1,0,.3,0,0,0,.1,0,.2,0ZM43.8,34.4c0,0,.1,0,.1.2,0,0-.1.1-.3.1-.2,0-.4,0-.6,0,0,0,0,.1,0,.1,0,0-.1,0-.2,0-.2,0-.3,0-.4,0,0,0-.1,0-.2,0-.2,0-.4,0-.8,0-1.5,0-2.9,0-4.3,0-.2,0-.2,0-.3,0,0,0,0-.1,0-.2,0,0,0-.1,0-.2,0,0,0,0,0,0,0,0,0,0,0,0,0,0,0,0,.1,0,2.8,0,4.9,0,6.5,0,0,0,.1,0,.2,0ZM41.4,38.8c0,0,.1,0,.1.2,0,0,0,0,0,0,0,0-.1.1-.2.1,0,0,0,0,0,0-.6,0-1.5,0-2.8,0-.8,0-1.3,0-1.6,0-.3,0-.5,0-.5,0-.1,0-.2,0-.2,0,0,0-.2,0-.2,0,0,0-.1,0-.1,0,0,0,0,0-.1,0,0,0,0,0-.1,0,0,0,0,0,0,0s0,0,0,0c0,0,0-.1.2-.1,0,0,0,0,.1,0,0,0,0,0,.1,0,0,0,0,0,.2-.1,0,0,.2,0,.4,0,.2,0,.3,0,.4,0-.2,0-.4,0-.6,0-.1,0-.2,0-.2,0,0,0,0,0,0-.1,0,0,0,0,0,0,0,0,.1,0,.2,0,1.1-.1,2.1-.2,2.8-.2.3,0,.6,0,.9,0,.1,0,.2,0,.3,0,0,0,0,0,0,.2,0,0,0,0,0,0,0,0,0,.1,0,.3,0,0,.2,0,.2,0,0,0,0,0,0,.1,0,0,0,0,.2,0h.4c0,0,.2,0,.2,0ZM43.6,39.4c0,0,0-.1,0-.1,0,0,0,0,.1-.1,0,0,0,0,0,0h-.5c0,0-.1,0-.1,0,0,0,0,0,0-.1,0,0,0,0,.1,0h0c0-.1,0-.1.2-.2,0,0,0,0,0,0h2.6c.2-.1.3,0,.4,0h0c0,0,0,0,0,.1h.1c.1,0,.2,0,.3.1,0,0,0,0,0,.2,0,0,0,0,0,0,.1,0,.2,0,.3,0,0,0,0,0,.1,0,0,0,0,0,0,0s0,0,0,0c0,0-.1,0-.3,0h-.6s0,0-.1.1c0,0,0,0-.1,0,0,0,0,0,0,0-.7,0-1.8,0-3.5.1-.2,0-.2,0-.2-.1,0,0,0,0,0,0,0,0,0,0,0,0,0,0,0,0,0,0,0,0,.1,0,.2,0,.3,0,.6,0,1.1,0,0,0,0,0-.1,0,0,0,0,0-.1,0-.1,0-.2,0-.2-.1ZM47.4,36.7c.1,0,.4,0,.9,0,.4,0,.7,0,1,0,0,0,.1,0,.2,0,0,0,0,0,0,0,0,0,0,0,0,0h.7c0,0,.2,0,.3,0,0,0,.1,0,.1,0,0,0,.1,0,.2,0,0,0,.1,0,.2.1,0,0,0,0,0,.1,0,0,0,0,0,0,0,0,0,0-.1,0,0,0-.1,0-.2,0h-.1s-.1,0-.3,0h-.5c-.4-.1-1.2-.1-2.3-.2-.1,0-.2,0-.3,0,0,0,0,0-.1-.1,0,0,0,0,0-.1,0,0,.1-.1.3-.1ZM51,38.8c0,0,0,.1,0,.2,0,0-.1,0-.2,0-.3,0-.6,0-.8,0-.1,0-.2-.1-.2-.2,0,0,0-.1.1-.2,0,0,.1,0,.2,0,.3,0,.5,0,.6,0,.1,0,.2,0,.3.1ZM29.1,18.6s0,0,0,0c0,.4,0,.8,0,1.3,0,0,0,0,0,0,0,0-.1,0-.2-.1,0,0,0-.1,0-.2,0,0-.1,0-.2,0-.1,0-.2-.1-.2-.1,0,0-.1,0-.1,0h-.1c0-.1-.1-.2-.2-.2,0,0-.1-.1-.1-.2,0-.1,0-.2.2-.2.3-.1.6-.2,1-.1ZM33.3,18.7c.1,0,.3,0,.5,0,.2,0,.4,0,.5,0,.1,0,.3,0,.6,0,0,.1,0,.3.1.4,0,0,0,.1.1.2,0,0,0,.1,0,.2,0,0,0,.1-.1.2,0,0,0,.2,0,.2s0,0,0,0c-.2,0-.5,0-.8,0-.4,0-.7,0-.9,0,0,0-.5,0-1.4.1,0-.5.1-1,.2-1.5h.2c.4,0,.7,0,1,0ZM32.9,27c0,.1-.1.2-.3.2-.6,0-1,0-1.3,0,0-.2,0-.4,0-.6.2,0,.5,0,.7.1.2,0,.4,0,.5.1,0,0,.1,0,.2,0,0,0,0,0,0,.1ZM31.7,30s0,0,0,0c0,0,.1-.1.2-.2,0,0,0,0,.1,0,0,0,0,0,.2,0,0,0,0,0,.1,0,0,0,0,0,0,0,0,0,0,0,0,0,0,0,.1,0,.2,0h4.7c0,0,.2,0,.2,0,0,0,0,0,0,.1,0,0,0,.2-.3.2h-1.3c0,.1,0,.2,0,.2,0,0,0,0,0,.1,0,0-.1,0-.2,0-.3,0-.9,0-1.8,0-.8,0-1.4,0-1.8.1-.1,0-.2,0-.2,0,0,0,0,0,0-.1,0,0,0,0,0,0ZM23.4,30.8s0,0,0,0c0,0,0,0,0,0,0,0,0,0,0,0,0,0,0,0,0,0,0,0,0,0,0,0,0,0,0,0,0,0,0,0,0,0,0,0,0,0,0,0,0,0,0,0,0,0,0,0,0,0,0,0,0,0,0,0,0,0,0,0,0,0,0,0,0,0,0,0,0,0,0,0,0,0,0,0,0,0,0,0,0,0,0,0,0,0,0,0,0,0,0,0,0,0,0,0,0,0,0,0,0,0,0,0,0,0,0,0,0,0,0,0,0,0,0,0,0,0,0,0h0s0,0,0,0c0,0,0,0,0,0,0,0,0,0,0,0,0,0,0,0,0,0,0,0,0,0,0,0,0,0,0,0,0,0h0s0,0,0,0c0,0,0,0,0,0,0,0,0,0,0,0,0,0,0,0,0,0,0,0,0,0,0,0,0,0,0,0,0,0,0,0,0,0,0,0h0s0,0,0,0,0,0,0,0c0,0,0,0,0,0,0,0,0,0,0,0h0s0,0,0,0c0,0,0,0,0,0,0,0,0,0,0,0,0,0,0,0,0,0,0,0,0,0,0,0,0,0,0,0,0,0,0,0,0,0,0,0,0,0,0,0,0,0,0,0,0,0,0,0h0s0,0,0,0c0,0,0,0,0,0,0,0,0,0,0,0,0,0,0,0,0,0h0s0,0,0,0c0,0,0,0,0,0,0,0,0,0,0,0,0,0,0,0,0,0,0,0,0,0,0,0s0,0,0,0c0,0,0,0,0,0,0,0,0,0,0,0,0,0,0,0,0,0,0,0,0,0,0,0,0,0,0,0,0,0,0,0,0,0,0,0,0,0,0,0,0,0h0s0,0,0,0h0s0,0,0,0c0,0,0,0,0,0,0,0,0,0,0,0,0,0,0,0,0,0h0s0,0,0,0c0,0,0,0,0,0,0,0,0,0,0,0h0s0,0,0,0h0s0,0,0,0c0,0,0,0,0,0,0,0,0,0,0,0,0,0,0,0,0,0,0,0,0,0,0,0,0,0,0,0,0,0,0,0,0,0,0,0,0,0,0,0,0,0h0s0,0,0,0c0,0,0,0,0,0,0,0,0,0,0,0h0s0,0,0,0c0,0,0,0,0,0s0,0,0,0c0,0,0,0,0,0,0,0,0,0,0,0,0,0,0,0,0,0h0s0,0,0,0,0,0,0,0c0,0,0,0,0,0,0,0,0,0,0,0,0,0,0,0,0,0,0,0,0,0,0,0,0,0,0,0,0,0,0,0,0,0,0,0,0,0,0,0,0,0,0,0,0,0,0,0,0,0,0,0,0,0,0,0,0,0,0,0,0,0,0,0,0,0,0,0,0,0,0,0,0,0,0,0,0,0,0,0,0,0,0,0,0,0,0,0,0,0,0,0,0,0,0,0,0,0,0,0,0,0,0,0,0,0,0,0,0,0,0,0,0,0,0,0,0,0,0,0h0s0,0,0,0c0,0,0,0,0,0,0,0,0,0,0,0s0,0,0,0c0,0,0,0,0,0,0,0,0,0,0,0,0,0,0,0,0,0,0,0,0,0,0,0,0,0,0,0,0,0h0s0,0,0,0h0s0,0,0,0c0,0,0,0,0,0,0,0,0,0,0,0,0,0,0,0,0,0,0,0,0,0,0,0,0,0,0,0,0,0,0,0,0,0,0,0,0,0,0,0,0,0,0,0,0,0,0,0,0,0,0,0,0,0,0,0,0,0,0,0,0,0,0,0,0,0,0,0,0,0,0,0,0,0,0,0,0,0h0s0,0,0,0c0,0,0,0,0,0,0,0,0,0,0,0,0,0,0,0,0,0,0,0,0,0,0,0,0,0,0,0,0,0,0,0,0,0,0,0,0,0,0,0,0,0,0,0,0,0,0,0,0,0,0,0,0,0,0,0,0,0,0,0,0,0,0,0,0,0,0,0,0,0,0,0,0,0,0,0,0,0,0,0,0,0,0,0,0,0,0,0,0,0,0,0,0,0,0,0h0s0,0,0,0c0,0,0,0,0,0,0,0,0,0,0,0,0,0,0,0,0,0,0,0,0,0,0,0,0,0,0,0,0,0,0,0,0,0,0,0h0s0,0,0,0c0,0,0,0,0,0,0,0,0,0,0,0,0,0,0,0,0,0h0c0,0,0,0,0,0,0,0,0,0,0,0,0,0,0,0,0,0,0,0,0,0,0,0,0,0,0,0,0,0,0,0,0,0,0,0,0,0,0,0,0,0,0,0,0,0,0,0,0,0,0,0,0,0,0,0,0,0,0,0,0,0,0,0,0,0,0,0,0,0,0,0,0,0,0,0,0,0,0,0,0,0,0,0,0,0,0,0,0,0,0,0,0,0,0,0h0s0,0,0,0c0,0,0,0,0,0h0s0,0,0,0c0,0,0,0,0,0,0,0,0,0,0,0,0,0,0,0,0,0,0,0,0,0,0,0h0s0,0,0,0c0,0,0,0,0,0h0s0,0,0,0h0s0,0,0,0h0s0,0,0,0c0,0,0,0,0,0,0,0,0,0,0,0,0,0,0,0,0,0,0,0,0,0,0,0,0,0,0,0,0,0,0,0,0,0,0,0,0,0,0,0,0,0,0,0,0,0,0,0,0,0,0,0,0,0,0,0,0,0,0,0,0,0,0,0,0,0,0,0,0,0,0,0,0,0,0,0,0,0,0,0,0,0,0,0,0,0,0,0,0,0,0,0,0,0,0,0s0,0,0,0c0,0,0,0,0,0,0,0,0,0,0,0,0,0,0,0,0,0,0,0,0,0,0,0,0,0,0,0,0,0,0,0,0,0,0,0,0,0,0,0,0,0,0,0,0,0,0,0,0,0,0,0,0,0,0,0,0,0,0,0,0,0,0,0,0,0,0,0,0,0,0,0,0,0,0,0,0,0,0,0,0,0,0,0,0,0,0,0,0,0,0,0,0,0,0,0,0,0,0,0,0,0,0,0,0,0,0,0,0,0,0,0,0,0,0,0,0,0,0,0h0s0,0,0,0h0s0,0,0,0c0,0,0,0,0,0,0,0,0,0,0,0,0,0,0,0,0,0h0s0,0,0,0c0,0,0,0,0,0,0,0,0,0,0,0,0,0,0,0,0,0,0,0,0,0,0,0,0,0,0,0,0,0h0s0,0,0,0c0,0,0,0,0,0s0,0,0,0c0,0,0,0,0,0,0,0,0,0,0,0,0,0,0,0,0,0,0,0,0,0,0,0,0,0,0,0,0,0,0,0,0,0,0,0,0,0,0,0,0,0,0,0,0,0,0,0,0,0,0,0,0,0,0,0,0,0,0,0h0s0,0,0,0c0,0,0,0,0,0h0s0,0,0,0c0,0,0,0,0,0h0s0,0,0,0h0s0,0,0,0h0s0,0,0,0c0,0,0,0,0,0h0s0,0,0,0c0,0,0,0,0,0h0s0,0,0,0c0,0,0,0,0,0,0,0,0,0,0,0h0s0,0,0,0c0,0,0,0,0,0,0,0,0,0,0,0,0,0,0,0,0,0,0,0,0,0,0,0,0,0,0,0,0,0,0,0,0,0,0,0,0,0,0,0,0,0h0s0,0,0,0c0,0,0,0,0,0,0,0,0,0,0,0,0,0,0,0,0,0h0s0,0,0,0c0,0,0,0,0,0,0,0,0,0,0,0,0,0,0,0,0,0,0,0,0,0,0,0,0,0,0,0,0,0,0,0,0,0,0,0h0s0,0,0,0c0,0,0,0,0,0,0,0,0,0,0,0,0,0,0,0,0,0h0s0,0,0,0c0,0,0,0,0,0,0,0,0,0,0,0,0,0,0,0,0,0,0,0,0,0,0,0,0,0,0,0,0,0h0c0,0,0,0,0,0h0s0,0,0,0c0,0,0,0,0,0,0,0,0,0,0,0,0,0,0,0,0,0,0,0,0,0,0,0ZM29.2,33.4c0-.1,0-.2.2-.2,0,0,0,0,.2,0,.1,0,.3,0,.4,0h.2c0-.1.2-.2.5-.2.7,0,1.4-.1,2.3-.1.5,0,1.3,0,2.3,0,.1,0,.2,0,.3,0,0,0,0,0,0,0,0,0,0,0,0,.1,0,0-.1,0-.2.1-.5,0-.9,0-1.3,0,0,0,0,0,0,.1,0,0,0,0,0,.1,0,0-.1,0-.2,0-.4,0-.9,0-1.6,0h-2.5c0,0-.2,0-.2,0,0,0-.1,0-.1-.1ZM25.9,35.4s0,0-.1,0h-1.3c-.2,0-.2,0-.3,0,0,0,0-.1,0-.2,0,0,0,0,.2,0,0,0-.2,0-.4,0-.2,0-.3,0-.3,0h-.1c0-.1,0-.2,0-.2,0,0,0,0,0,0,0,0,0,0,0,0,0,0,0,0,0-.1,0,0,0,0,0,0,0,0,0,0,0,0h.5c.8-.1,1.3-.2,1.8-.1.6,0,1.2,0,1.8,0,.2,0,.3,0,.4,0,.1,0,.2,0,.2,0,0,0,.2,0,.2.1,0,0,0,0,0,.1,0,0,0,0,0,0,0,0,0,0,.1,0,0,0,0,0,0,.1,0,0,0,.1-.1.2,0,0-.1,0-.2,0,0,0,0,0,0,.1,0,0,0,0-.1,0,0,0,0,0-.1,0,0,0,0,0-.1,0-.6,0-1.2,0-1.7,0-.1,0-.2,0-.3,0,0,0,0,0-.1,0ZM21,38.5c0,0,0-.1.2-.1h5.4c0,0,.2,0,.2,0,0,0,.1.1.1.2,0,0,0,.1-.2.1h-1c.5.1,1.1.2,1.6.2,0,0,.2,0,.2,0,0,0,.1.1.1.2,0,0-.1.1-.3.1h-1.1c-1.4-.3-2.4-.4-3-.4-.6,0-.9,0-1.1,0-.3,0-.7-.1-1-.2,0,0-.1-.1-.1-.1ZM21.9,41.3s.1,0,.2,0c.3,0,.5,0,.6,0,.3,0,.7,0,1.2.1,0,0,.2,0,.2.1,0,0,0,0,0,.1,0,0,0,0,0,0,0,0,0,0,0,0h0c0,0-.1.1-.3.1-.2,0-.5,0-.8,0h-.9c-.1-.1-.2-.1-.2-.1h-.2c0,0-.1,0-.2,0,0,0,0-.1,0-.2,0,0,0,0,.1,0h.1c0,0,.1,0,.2,0ZM34.6,36.4c0,0,0,.1-.2.2,0,0,0,0,0,.1,0,0,0,0,0,.1,0,0,0,0,0,0h0c-.2,0-.3,0-.4,0-.1,0-.2,0-.2,0,0,0,0,0-.1,0,0,0-.2,0-.4,0-.6,0-1.1,0-1.6,0,0,0-.1,0-.1,0,0,0-.1,0-.1-.1h0c0,0,0-.1,0-.2,0,0,.1,0,.2,0,0,0,.1,0,.2,0h-.2c-.1,0-.2,0-.2,0,0,0,0-.1,0-.1,0,0,0,0,.2,0,0,0,.1,0,.2,0,.4,0,.7,0,1,0,.1,0,.3,0,.6,0,.3,0,.7,0,1.1,0,.1,0,.2,0,.2.1ZM32.4,38.5c0,0,.2,0,.4,0h.8c0,0,0,0,.1,0,0,0,0,0,0,0,0,0,0,0,0,0,0,0-.1,0-.2,0h-2c0,0-.1,0-.1,0,0,0,0,0,0,0,0,0,0,0,0,0,0,0,0,0,0-.1,0,0,0,0,.1,0,0,0,0,0,0,0h.8ZM31,42.3s0,0,0,0c0,0,.1,0,.1.1,0,0,0,.1-.1.2h-.4c-.1,0-.2,0-.3,0h-.1c0,0,0,0-.1,0,0,0-.1,0-.2,0h-.2c0,0-.2,0-.2,0,0,0-.1,0-.2-.2,0,0,.1,0,.2,0h.3s.9,0,.9,0c0,0,0,0,.1,0ZM31.6,41.2s0,0,0,0c.2,0,.4-.1.6,0,0,0,.1,0,.2,0,0,0,0,0,0,0,0,0,0,0,0,0,0,0,0,0,0,0-.1,0-.3,0-.4,0-.1,0-.3,0-.3,0,0,0,0,0,0,0ZM36.9,42.9c0,0,0,0,.2-.1.5,0,1.4,0,2.5,0h1.2c0,0,.1,0,.2,0,0,0,.1,0,.1.2,0,0,0,.1-.1.2,0,0-.1,0-.2,0-.2,0-.4,0-.6,0,0,0,0,0,0,.1,0,0,0,0,0,0,0,0-.1,0-.2,0-.3,0-.8,0-1.3,0-.6,0-1.1-.1-1.3-.1-.1,0-.2,0-.2,0,0,0,0,0,0,0,0,0,0,0,0-.1ZM35.6,46.8h0c.8,0,1.6,0,2.3-.1,0,0,0,0,0,0,0,0,0,0,0,0h.5c.1,0,.2,0,.3,0,.1,0,.2,0,.4,0,.1,0,.2,0,.2,0,0,0,0,0,0,0,0,0,0,0,0,.1,0,0,0,0,.1,0,0,0,0,0,0,0,0,0,0,.1,0,.2,0,0,0,0-.1,0-.1,0-.3,0-.4,0,0,0-.2,0-.2,0,0,0,0,0,0,0-.4,0-.8,0-1.2,0-.2,0-.3,0-.3,0,0,0-.3,0-.5,0,0,0,0,0-.1,0-.2,0-.4,0-.6,0-.1,0-.2,0-.3,0-.1,0-.2,0-.2,0,0,0-.1,0-.2,0,0,0,0,0,0,0,0,0,0,0-.1,0,0,0,0,0,0,0,0,0,0,0-.1,0,0,0,0,0-.1,0,0,0,0,0,0,0,0,0,0,0,0,0,0,0,0,0,0,0,0,0,0,0,0,0,0,0,0,0,0,0,0,0,0,0,0,0,0,0,.1,0,.2,0h0s0,0,.1,0h0c0,0,.2,0,.3,0ZM32.1,44.7c0,0-.2,0-.2,0,0,0,0,0,0,.1,0,0,0,0-.2,0-1,0-1.6.1-2,.1-.1,0-.2,0-.3,0l-.2-.2s0,0,0-.1c0,0,0,0,0,0,0,0,0,0,.1,0,.5,0,1-.1,1.5-.1,0,0,0,0,0-.1,0,0,0,0,.1,0,.1,0,.3,0,.4,0,0,0,.2,0,.4,0,.2,0,.4,0,.7,0h1.1c0,0,.1,0,.1,0,0,0,0,0,.1.1,0,0,0,0,0,.1,0,0,0,0-.2,0h-1.3c-.1,0-.2,0-.3,0ZM33.7,49h.2c.4,0,.9.1,1.4.1,0,0,.2,0,.2,0,0,0,0,0,0,.2,0,0,.2,0,.3,0,0,0,0,0,.1,0,0,0,0,0,0,.1,0,0,0,0-.2,0s-.2,0-.3,0c-.8,0-1.6-.2-2.2-.3,0,0-.1,0-.2,0,0,0-.1-.1-.1-.2,0,0,0-.1.1-.1h0s0-.1,0-.1c0,0,0,0,0,0h0c0,0,.1.1.2,0ZM30.5,50.5c-.4,0-.7,0-.9,0,0,0-.2,0-.2,0,0,0,0,0-.1,0,0,0,0,0-.1-.1,0,0,0-.1,0-.2,0,0,0,0,.2,0,0,0,.2,0,.4,0,0,0,.2,0,.4,0h.2c.2,0,.5,0,.8,0,0,0,.2,0,.2,0,0,0,0,0,0,0,0,0,0,0,0,0h0s.1-.1.1-.1h0s0,0,.1,0c0,0,0,0,0,.1,0,0,0,0-.1,0,0,0,0,0-.1,0,0,0,0,0,0,0,0,0,0,0,0,0,0,0,0,0-.1.1,0,0,0,0-.1,0h-.7ZM29.7,51.7c.3,0,.7,0,1.2-.1.3,0,.7,0,1.2,0,0,0,.2,0,.2,0,0,0,0,0,0,.1,0,0,0,0,0,.1.1,0,.2,0,.2.1,0,0,0,0,0,.1,0,0,0,0,0,0,0,0-.1,0-.2,0-1.1,0-2.1,0-3.1,0,0,0-.2,0-.2,0,0,0,0,0,0,0,0,0,0,0,0-.1,0,0,0,0,.1-.1,0,0,.1,0,.3,0,0,0,.2,0,.3,0ZM26.8,45.2s0,0-.1,0h0c-.2.1-.4.1-.8.1h-1.2s-.5,0-.5,0c-.1,0-.3,0-.5,0h0s0,0,0,0c0,0,0,0,0,0,0,0,0,0,0,0,0,0,0,0,0,0,0,0,0,0,0,0,0,0,0,0,0,0,.4,0,.9,0,1.6,0h0c.6,0,1.1-.1,1.5,0,0,0,0,0,0,0,0,0,.1,0,.1,0,0,0,0,0,0,0,0,0,0,0,0,.1ZM20.6,48s0,0-.1,0c-.4,0-.7,0-.8,0-.3,0-.5,0-.7,0,0,0-.1,0-.1,0,0,0,0,0-.1,0,0,0,0,0,0-.1,0,0,0,0,.1,0,.2,0,.3,0,.5,0,0,0,0-.1,0-.2,0,0,0-.1.1-.1,0,0,0,0,.2,0h.2c0,0,.1,0,.2.1,0,0,0,0,.1,0,0,0,0,0,0,.1h.3s0,0,0,0c0,0,0,0,0,0,0,0,0,0,0,.1ZM22.8,51c0,0-.1,0-.2,0h-.3c0,0-.2,0-.3,0,0,0-.1,0-.2,0,0,0-.1,0-.1-.1,0,0,0-.1,0-.2,0,0,0,0,0,0h.1c0,0,.2,0,.2,0h0c0,0,.1,0,.2,0,0,0,0,0,.1,0,0,0,0,0,0,0h.1s.1,0,.1,0c0,0,0,0,0,0,0,0,.2,0,.3,0h.4c.2,0,.4,0,.5,0,.2,0,.4,0,.5.1,0,0,.1,0,.1.1,0,0,0,0,0,.1,0,0,0,0,0,0,0,0-.1,0-.2,0,0,0-.3,0-.6,0-.2,0-.4,0-.6,0-.1,0-.2,0-.3,0h-.1s-.1,0-.1,0ZM27.3,56.2c.3,0,.5,0,.7,0h1.5c0,0,.1,0,.2,0,0,0,.1,0,.1.1,0,0,0,.1,0,.2,0,0-.1,0-.2,0-.1,0-.3,0-.6,0h-2.1c-.1,0-.7.1-1.6.2-.1,0-.2,0-.2-.1,0,0,0,0,0-.1,0-.1,0-.2.1-.2,0,0,0,0,.2,0,.1,0,.3,0,.5,0,0,0,.1,0,.2,0,0,0,.2,0,.2,0,0,0,.2,0,.4,0,0,0,.3,0,.7,0ZM23,55.9h.4c0,0,.1,0,.2,0,0,0,0,0,0,0,0,0,0,0,.1,0,0,0,0,0,.1,0,0,0,0,0,0,.1,0,0,0,0-.1,0h-.2c0,0-.2,0-.4,0-.1,0-.2,0-.3,0,0,0-.1,0-.1-.2,0,0,0-.1,0-.1,0,0,0,0,.2,0ZM25.1,62.3s0,0,0,.1c0,0,0,0,.2,0,0,0,.1,0,.2,0,0,0,.2,0,.2.1,0,0,0,0,0,.1,0,0,0,0,0,.1,0,0-.1,0-.2,0-.1,0-.2,0-.2,0,0,0,0,0,0,0,0,0,0,0,0,0h0s0,0-.1,0c0,0,0,0,0-.1,0,0,0,0,0,0,0,0,0,0,0,0,0,0,0-.1,0-.2,0-.1,0-.2.1-.2,0,0,0,0,.1,0ZM38.7,54.9c-.2,0-.4,0-.4,0-.1,0-.2-.1-.2-.2h0c0,0,0-.1,0-.2,0,0,.1,0,.2,0h.3c.3,0,.5,0,.7,0h.4c.2,0,.5,0,.8,0,.4,0,.7,0,.8,0,0,0,.1,0,.2,0,0,0,0,0,0,.1h0c0,0,0,0,0,.1,0,0-.1,0-.3,0-.2,0-.4,0-.6,0,0,0,0,0,0,0,0,0,0,0,0,.1,0,0,0,0-.1,0,0,0,0,0,0,0,0,0,0,0,0,0,0,0,0,0,0,0,0,0,0,0-.1,0-.5-.1-1-.2-1.5-.2ZM37.7,55.5c-.2,0-.5,0-.8,0-.3,0-.5,0-.6,0-.3,0-.5,0-.6,0-.2,0-.4,0-.6,0,0,0-.1,0-.2,0,0,0-.1,0-.1-.2,0,0,0-.1,0-.1,0,0,0,0,.1,0h.9s0,0,.1,0h0c0,0,0,0,.1,0,.3,0,.6,0,.9,0,.3,0,.5.1.7.2.1,0,.2.1.2.2s0,0,0,.1c0,0,0,0-.1,0ZM33.2,60s0,0,.1,0c0,0,0,0,0,0,0,0,0,0,0,.1,0,0,0,.1,0,.2-.2,0-.3,0-.5,0,0,0,0,0-.1,0,0,0,0,0,0,0,0,0,0,0,0,0,0,0,0-.1,0-.1,0,0,0,0,.1,0,0,0,0,0,.2,0,0,0,0,0,.2,0ZM19.2,52.2s0,0,0,.1c0,0,0,0-.1,0,0,0-.2,0-.3,0h-.2c0,0-.1,0-.2,0,0,0-.1,0-.2,0,0,0-.1,0-.2,0,0,0,0,0,0-.1,0,0,0,0,.1,0l.6-.2c0,0,.1,0,.2,0,0,0,.1.1.1.2ZM17.8,54.6s0,0,0,0c0,0,0,0,.2,0,.2,0,.6,0,1,.1,0,0,.1,0,.2,0,0,0,0,.1,0,.2,0,0-.1,0-.2,0-.5,0-1,0-1.4,0,0,0-.1,0-.2.1,0,0,0,0-.1-.1,0,0,0,0,0,0,0,0-.1,0-.1,0,0,0,0,0,0-.1,0,0,0,0,0-.1,0,0,0,0,0,0,.1,0,.2,0,.2,0,0,0,.1,0,.2,0,0,0,0,0,0,0ZM16.7,58.2h.4c.3,0,.5,0,.7,0,.1,0,.2,0,.2,0,0,0,.1,0,.2,0,0,0,.1,0,.1,0,0,0,0,.1,0,.2,0,0,0,0-.1,0h-.5s-.2,0-.2,0c0,0-.1,0-.2,0h-.8s0,0,0,0c0,0,0,0,0,0,0,0,0,0,0-.1h-.2s0,0,0,0c0,0,0,0,0-.1,0,0,0,0,0,0h0s0,0,0,0c0,0,0,0,0,0,0,0,0,0,0,0,0,0,0,0,.2,0,.1,0,.4,0,.7,0ZM59.6,49.7c0,0,.1,0,.1,0,0,0,0,0,0,0h0c0,0,.1,0,.2,0,0,0,0,0,0,0,0,0,0,0,0,0h0s0,0,0,0c0,0,0,0,0,0,0,0,0,0,0,0h0c0,0,0,0,0,0,0,0,0,0,0,0,0,0,0,0,0,0,0,0,0,0,0,0,0,0,0,0,0,0,0,0,0,0,0,0,0,0,0,0,0,0h-1.6s0,0,0,0c0,0,0,0,0,0,0,0,0,0,0,0,0,0,0,0-.1,0,0,0,0,0-.1,0h0c0,0,0,0-.1,0,0,0,0,0,0,0h0s0,0,0,0c0,0,0,0,0,0,0,0,0,0,0,0,0,0,0,0,0,0h0s0,0,0,0c0,0,0,0,0,0,0,0,0,0,0,0,0,0,0,0,0,0,0,0,0,0,0,0,0,0,0,0,.1,0,0,0,0,0,.1,0,0,0,0,0,0,0,0,0,0,0,0,0,0,0,.1,0,.2,0,.1,0,.3,0,.6,0h.1s0,0,.1,0c.2,0,.4,0,.4,0ZM57.3,46.7c.1,0,.2,0,.2,0,0,0,0,0,0,.2,0,0,0,0,0,.1,0,0,0,.1,0,.2.2,0,.3,0,.3,0,0,0,0,0,0,.1,0,0,0,0,0,0s0,0,0,0c0,0,0,0-.2,0h-1.7c-.9,0-1.7,0-2.5,0-.2,0-.3,0-.4,0,0,0-.1,0-.1,0,0,0,0,0-.1,0-.2,0-.3,0-.3,0,0,0-.1,0-.1-.1,0,0,0-.1,0-.2,0,0-.1,0-.2,0-.1,0-.2,0-.2,0,0,0,0,0,0,0,0,0,0,0,0,0s0,0,0,0c0,0,0-.1.2-.1.3,0,.7,0,1.1-.1.4,0,.8,0,1.2,0,.5,0,1.2,0,2.3,0h.8ZM52.7,43s0,0,0,.1c0,0,0,0-.1,0s0,0,0,0c0,0,0,0-.2,0,0,0-.1,0-.2,0,0,0,0,0-.1,0,0,0-.1,0-.1,0,0,0,0,0-.1,0,0,0-.2,0-.3,0-1.4,0-2.6,0-3.9,0-.1,0-.2,0-.2,0,0,0-.1,0-.1-.2,0,0,0-.1.1-.1,0,0,0,0,.2,0h.9c0-.1-.1-.2-.1-.2,0,0,0-.1.1-.1,0,0,0,0,0,0,0,0,0,0,.1,0,1.2,0,2.4,0,3.5.1,0,0,.1,0,.2,0h0c0,0,0,0,.1.1,0,0,.1,0,.2,0,0,0,0,0,0,.1ZM49.7,49.5s0,0,0,.1c0,0,0,0-.1,0,0,0,0,0,0,.1,0,0,0,0-.1,0h-.3s-.7,0-.7,0c0,0-.1,0-.2,0,0,0,0,0,0-.1,0,0,0-.1,0-.1,0,0,0,0,0,0,0,0-.2,0-.2,0,0,0,0,0,0-.1,0,0,0,0,0-.1,0,0,0,0,.1,0s.2,0,.3,0c0,0,.2,0,.3,0h0s.2,0,.4,0h.1c0,0,.2,0,.2,0,0,0,0,0,0,0ZM50,53.8s.2,0,.5,0c.2,0,.4,0,.6,0,0,0,.1,0,.2,0,0,0,0,0,0,.1,0,0,0,0,0,0,0,0-.1.1-.3,0h-.6s0,0,0,0c0,0,0,0-.1,0,0,0-.1,0-.3,0-.2,0-.4,0-.7,0-.1,0-.4,0-.7,0h-1.2c0,0,0,0,0,0,0,0,0,0,0,0-.4,0-.7,0-1.1,0,0,0-.1,0-.1,0,0,0,0,0,0-.1s0,0,0-.1c0,0,.1,0,.2,0,0,0-.1,0-.3,0-.1,0-.2,0-.3,0,0,0,0,0,0,0,0,0,0,0,0,0s0,0,0,0c0,0,0-.1.2-.1.2,0,.5-.1.8-.1,0,0,.2,0,.3,0,.2,0,.6,0,1.1,0,.3,0,.5,0,.6,0,.2,0,.4,0,.6,0,0,0,0,0,.2,0,0,0,.2,0,.2,0ZM53.1,52.6s0,0,.1,0c0,0,0,0,.1,0,0,0,0-.1,0-.2,0,0,0,0,.1,0h.4c.2,0,.3,0,.4,0,.1,0,.2,0,.2,0,.1,0,.2,0,.2,0h.1c0,0,0,0,.1,0s0,0,.2,0c0,0,.1,0,.1,0,0,0,0,0,.2,0,0,0,0,0,.1,0,0,0,0,0,0,0,0,0,0,0,0,.2,0,0,0,0-.1,0,0,0-.2,0-.3,0h-.4c-.2,0-.3,0-.5,0,0,0,0,0,0,.1,0,0,0,0,0,.1,0,0,0,0,0,0,0,0,0,0-.1,0h-.1c0-.1,0-.1,0-.1h0c-.1,0-.3,0-.5.1-.1,0-.2,0-.3,0,0,0,0,0,0-.1,0,0,0-.1,0-.1ZM46.4,45c0,0,.2,0,.2,0h.3c0,0,.2,0,.5,0,0,0,.1,0,.2,0,0,0,.1,0,.1.1h0c0,0,0,.1,0,.1,0,0,.1,0,.2.1,0,0,0,0,0,.1,0,0,0,0,0,.1,0,0,0,0-.2,0h-.6s-.1,0-.1,0h-1.1s0,0-.1,0c0,0-.1,0-.1-.2,0,0,0,0,0-.1h0c0-.1,0-.2,0-.2,0,0,0,0,.2,0,0,0,0,0,0-.1,0,0,0,0,0,0,0,0,.2,0,.3,0ZM44.3,48.1c.5,0,1,0,1.4.1,0,0,.1,0,.2,0,0,0,0,0,0,.1,0,0,0,.1-.1.1,0,0,0,0-.2,0-.3,0-.4,0-.5,0h-1.1c0,0-.1,0-.2,0,0,0-.1,0,0-.2-.1,0-.2,0-.3,0,0,0,0,0-.1,0,0,0,0,0,0,0,0,0,0,0,0-.1,0,0,0,0,.2,0,.2,0,.5,0,.9,0ZM41.7,51.1s-.1,0-.2,0h-1c-.1,0-.3,0-.3.1,0,0,0,0,0,0,0,0,0,0-.1,0,0,0,0,0,0,0,0,0,0,0-.1,0-.1,0-.2,0-.2,0h0c0,0,0,0-.1,0,0,0,0,0-.1,0,0,0,0,0,0-.1h0c0,0,0-.2.1-.2,0,0,0,0,.2,0,.1,0,.2,0,.4,0,0,0,.1,0,.1,0,0,0,0,0,0,0,0,0,0,0,0,0,0,0,0,0,.1,0,0,0,0,0,0,0,0,0,0,0,.1,0,.4,0,.7,0,1,0,0,0,.1,0,.1,0,0,0,.1,0,.1.1,0,0,0,.1-.1.2ZM41.1,64c0,0,0,0,.2,0,0,0,.1,0,.2,0,0,0,0,0,.1,0,0,0,0,0,.1,0,0,0,.1,0,.2,0,0,0,0,0,0,.1-.1,0-.3.1-.6.2,0,0-.2,0-.2,0,0,0-.1,0-.2,0,0,0,0-.1,0-.2ZM54.3,56.7s-.1,0-.2,0h-.5c-.4,0-.7,0-.9,0h-.1s0,0,0,0c0,0,0,0-.2,0,0,0-.1,0-.1,0,0,0-.1,0-.1-.1,0,0,0-.1,0-.2,0,0,0,0,.1,0h.6c.5-.1,1-.1,1.5,0,0,0,.1,0,.2,0,0,0,0,0,0,0,0,0,.1,0,.2.1,0,0,0,.1,0,.2,0,0-.1,0-.2,0h-.4s0,0,0,0c0,0,0,.1,0,.1ZM60.5,81.5c-.7.2-1.3.6-1.8.9-.5.3-1,.6-1.5.9.1-.3.5-.7,1-1,.4-.7-1.4-.4-5.5.8,2.3-1.3,4.5-2,6.9-2.2.4-.1.7,0,.9.6ZM49,42.9s0,0,0,0h0c0,0-.1,0-.1,0h.3s0,0,0,0ZM44.1,39.1h0s0,0,0,0h0s0,0,0,0h0Z"/>
  <path class="st0" d="M14,79.9l-.8-13.6,1.9-11.1,3.6-10.1,3-11.2,3.1-10.1,3.3-12-.4-.6v-1.6c0,0,0-1.3,0-1.3l.3-.7,1.1-3.8,1.2-1.8,5.5-1.4,3.2.7,2,.5,1.3,1.9.9,2.9.8,2.8v.8s-.1.8-.1.8l-.5,1.1,2,7.9,1.6,4.5,2.3,4.5,3.3,4.9,2.8,3.6,3.6,5.7,2.6,4.4,2.8,6.6s1.5,6,1.6,6.1,1,4.1,1,4.1l1.7,9.8.3,3.4.2,1.7v1.3l-2.9.9-2.5-1.3-3.2,1.3.4,1.1-2.5,2.4s-4.3.4-4.3.1-2.1-3.9-2.1-4-1-2.2-1-2.3-.5-2.5-.5-2.5l.5,5.3h-1.9c0-.1-24.7,1.8-24.7,1.8,0,0-1.4-1.6-1.3-1.9s-.1-2-.1-2h-1.5s-3,4.3-3,4.3l-4.6-3.7Z"/>
</svg>