# Blender 4.3.2
# www.blender.org
o pCube5
v -0.085295 -0.126305 0.357044
v 0.083913 -0.126305 0.357044
v -0.024029 -0.005652 -0.008914
v 0.022647 -0.006386 -0.009969
v -0.059660 -0.045684 0.222450
v 0.058268 -0.045524 0.222133
v -0.040711 0.010254 0.078950
v 0.039329 0.010560 0.078076
v -0.051247 -0.014984 0.151805
v 0.049861 -0.014794 0.151263
v -0.032699 0.013172 0.044811
v 0.031317 0.013138 0.043706
v -0.070878 -0.083000 0.286850
v 0.069493 -0.082895 0.286680
v -0.000691 -0.095083 0.376271
v -0.000691 -0.059278 0.301341
v -0.000691 -0.027101 0.231622
v -0.000692 0.003131 0.157807
v -0.000691 0.027433 0.084473
v -0.000691 0.029011 0.043779
v -0.000691 0.006557 -0.018189
v 0.002800 -0.052510 0.402489
v 0.002702 -0.196588 0.313761
v 0.002291 0.014966 -0.023256
v 0.002264 -0.024085 0.002343
v 0.002218 0.008510 0.249778
v 0.002149 -0.096628 0.196357
v 0.002300 0.049704 0.092761
v 0.002254 -0.025535 0.065439
v 0.002220 0.034362 0.169080
v 0.002161 -0.060878 0.135139
v 0.002296 0.046942 0.043790
v 0.002259 -0.017078 0.044619
v 0.002467 -0.021643 0.324633
v 0.002385 -0.141066 0.250856
v 0.039418 -0.124567 0.358114
v 0.030224 -0.081371 0.287735
v 0.022905 -0.044076 0.223060
v 0.021272 -0.013259 0.152069
v 0.020317 0.012075 0.079097
v 0.018140 0.014923 0.044205
v 0.017596 -0.004567 -0.010452
v -0.003215 -0.198312 0.312699
v 0.001833 -0.054297 0.401388
v -0.001387 -0.024801 0.004408
v 0.000005 0.012764 -0.023291
v -0.002450 -0.098311 0.195910
v 0.001068 0.007095 0.248672
v -0.001885 -0.027502 0.065732
v 0.000503 0.048315 0.091293
v -0.002200 -0.062678 0.135094
v 0.000816 0.032892 0.167968
v -0.001646 -0.018807 0.045778
v 0.000264 0.045117 0.042739
v -0.002785 -0.142737 0.250061
v 0.001403 -0.023162 0.323466
v -0.037341 -0.125373 0.357618
v -0.028476 -0.082241 0.287199
v -0.021403 -0.045051 0.222568
v -0.019764 -0.014341 0.151691
v -0.018723 0.010915 0.078690
v -0.016547 0.013628 0.044244
v -0.016003 -0.005644 -0.009702
v 0.082032 -0.110565 0.366737
v -0.085051 -0.133327 0.352719
v 0.021648 0.000998 -0.013539
v -0.024442 -0.005790 -0.010384
v 0.056853 -0.033549 0.228571
v -0.059593 -0.050024 0.219863
v 0.038120 0.020387 0.082497
v -0.040914 0.008758 0.077445
v 0.048543 -0.003400 0.155861
v -0.051291 -0.018290 0.150052
v 0.030209 0.022638 0.044525
v -0.033003 0.012495 0.043725
v 0.067874 -0.069611 0.295095
v -0.070735 -0.088390 0.283296
v 0.004283 -0.152775 0.340742
v 0.002959 -0.102373 0.274801
v 0.001899 -0.060055 0.215000
v 0.001637 -0.028614 0.146694
v 0.001453 -0.002241 0.074085
v 0.001109 0.001910 0.044598
v 0.001023 -0.014813 -0.003324
v -0.025436 -0.000881 -0.002056
v 0.024265 -0.000881 -0.002056
v -0.000691 0.011772 -0.010858
v 0.002291 0.020891 -0.017202
v 0.002263 -0.019908 0.011180
v 0.017691 0.000571 -0.003066
v -0.001429 -0.021185 0.012068
v 0.000054 0.019596 -0.016301
v -0.016098 -0.000504 -0.002319
v 0.023037 0.005951 -0.006809
v -0.026039 -0.000495 -0.002325
v 0.001038 -0.008341 0.004253
v -0.028372 0.007614 0.017147
v 0.027191 0.007614 0.017147
v -0.000691 0.022338 0.011999
v 0.002293 0.035423 0.007425
v 0.002261 -0.017028 0.025762
v 0.017875 0.009284 0.016563
v -0.001517 -0.018504 0.026278
v 0.000141 0.033923 0.007949
v -0.016282 0.008054 0.016993
v 0.025937 0.015909 0.014247
v -0.028929 0.007623 0.017144
v 0.001067 -0.002758 0.020773
vn -0.4361 0.8972 -0.0693
vn -0.0021 0.9961 -0.0885
vn -0.0037 0.9458 -0.3247
vn -0.4807 0.8324 -0.2759
vn -0.3708 0.8330 0.4106
vn 0.0003 0.8971 0.4418
vn 0.0003 0.9141 0.4055
vn -0.3467 0.8565 0.3824
vn -0.3570 0.8785 0.3174
vn 0.0004 0.9417 0.3364
vn 0.0013 0.9753 0.2210
vn -0.3914 0.8965 0.2076
vn -0.3832 0.8265 0.4125
vn -0.0000 0.8947 0.4466
vn 0.3831 0.8265 0.4126
vn 0.3707 0.8330 0.4107
vn 0.3466 0.8566 0.3821
vn 0.3569 0.8787 0.3170
vn 0.3907 0.8974 0.2052
vn 0.4330 0.8984 -0.0736
vn 0.0319 0.7855 -0.6180
vn 0.0063 0.8685 -0.4956
vn 0.5118 0.7501 -0.4188
vn 0.5357 0.6629 -0.5230
vn 0.8928 0.4465 -0.0595
vn 0.9895 0.1283 -0.0671
vn 0.9913 0.1069 -0.0770
vn 0.8741 0.4549 -0.1702
vn 0.9255 0.3588 0.1213
vn 0.9961 0.0512 -0.0714
vn 0.9980 0.0501 -0.0378
vn 0.9366 0.3320 0.1121
vn 0.9337 0.3426 0.1043
vn 0.9994 0.0273 -0.0227
vn 0.9979 0.0502 -0.0405
vn 0.9202 0.3857 0.0675
vn 0.9198 0.3714 0.1264
vn 0.9956 0.0489 -0.0798
vn 0.9195 -0.2816 -0.2742
vn 0.9247 -0.2760 -0.2621
vn 0.9363 -0.2822 -0.2090
vn 0.9333 -0.3218 -0.1595
vn 0.9202 -0.3629 -0.1465
vn 0.8976 -0.4369 -0.0580
vn 0.9977 -0.0603 -0.0297
vn 0.9936 0.0727 -0.0869
vn 0.8546 -0.4838 0.1888
vn 0.8426 -0.4692 0.2645
vn -0.9100 -0.4097 -0.0639
vn -0.9852 0.1572 -0.0689
vn -0.9877 0.1306 -0.0863
vn -0.8886 -0.4519 0.0792
vn -0.9357 -0.2533 -0.2457
vn -0.9957 0.0758 -0.0524
vn -0.9968 0.0770 -0.0223
vn -0.9464 -0.2574 -0.1952
vn -0.9436 -0.2952 -0.1497
vn -0.9983 0.0565 -0.0119
vn -0.9961 0.0825 -0.0327
vn -0.9315 -0.3354 -0.1408
vn -0.9309 -0.2591 -0.2573
vn -0.9955 0.0721 -0.0609
vn -0.9082 0.3927 0.1450
vn -0.9142 0.3807 0.1393
vn -0.9256 0.3567 0.1267
vn -0.9224 0.3691 0.1139
vn -0.9082 0.4122 0.0732
vn -0.8797 0.4715 -0.0622
vn -0.9964 0.0171 -0.0834
vn -0.9880 0.1101 -0.1084
vn -0.8412 0.4632 -0.2789
vn -0.8265 0.4312 -0.3618
vn 0.5753 -0.8162 -0.0525
vn 0.1776 -0.9834 -0.0370
vn 0.1768 -0.9594 0.2198
vn 0.6052 -0.7775 0.1712
vn 0.5126 -0.6950 -0.5042
vn 0.1585 -0.8031 -0.5744
vn 0.1621 -0.8538 -0.4948
vn 0.4910 -0.7501 -0.4430
vn 0.5004 -0.7929 -0.3478
vn 0.1603 -0.9056 -0.3926
vn 0.1625 -0.9374 -0.3080
vn 0.5294 -0.8016 -0.2780
vn 0.5239 -0.6812 -0.5113
vn 0.1574 -0.7934 -0.5880
vn -0.2330 -0.7844 -0.5748
vn -0.2201 -0.7952 -0.5650
vn -0.1946 -0.8476 -0.4937
vn -0.2054 -0.8981 -0.3890
vn -0.2381 -0.9203 -0.3105
vn -0.2918 -0.9555 -0.0438
vn 0.1217 -0.8136 0.5686
vn 0.1728 -0.9017 0.3963
vn -0.3543 -0.8543 0.3804
vn -0.3809 -0.7569 0.5311
vn -0.5142 0.7500 -0.4160
vn -0.5384 0.6631 -0.5201
vn 0.4773 0.8335 -0.2783
vn 0.8558 0.4435 -0.2664
vn 0.8416 0.4140 -0.3468
vn 0.8749 -0.4759 0.0899
vn -0.8684 -0.4633 0.1766
vn -0.8570 -0.4487 0.2534
vn -0.8605 0.4774 -0.1776
vn 0.6318 -0.7105 0.3097
vn 0.6541 -0.6211 0.4317
vn -0.3261 -0.9215 0.2110
vt 0.000000 0.860000
vt 0.500000 0.860000
vt 0.500000 0.928239
vt 0.000000 0.929862
vt 0.000000 0.150000
vt 0.500000 0.150000
vt 0.500000 0.300000
vt 0.000000 0.300000
vt 0.000000 0.468000
vt 0.500000 0.468000
vt 0.500000 0.720000
vt 0.000000 0.720000
vt 0.000000 0.000000
vt 0.500000 0.000000
vt 1.000000 0.000000
vt 1.000000 0.150000
vt 1.000000 0.300000
vt 1.000000 0.468000
vt 1.000000 0.720000
vt 1.000000 0.860000
vt 0.500000 1.000000
vt 0.500000 0.975576
vt 1.000000 0.973876
vt 1.000000 1.000000
vt 0.000000 1.360294
vt 0.500000 1.360294
vt 0.500000 1.428532
vt 0.000000 1.430156
vt 0.000000 0.650294
vt 0.500000 0.650294
vt 0.500000 0.800294
vt 0.000000 0.800294
vt 0.000000 0.968294
vt 0.500000 0.968294
vt 0.500000 1.220294
vt 0.000000 1.220294
vt 0.000000 0.500294
vt 0.500000 0.500294
vt 1.000000 0.500294
vt 1.000000 0.650294
vt 1.000000 0.800294
vt 1.000000 0.968294
vt 1.000000 1.220294
vt 1.000000 1.360294
vt 0.500000 1.500294
vt 0.500000 1.475870
vt 1.000000 1.474170
vt 1.000000 1.500294
vt 0.000000 0.653457
vt 0.500000 0.653457
vt 0.500000 0.721695
vt 0.000000 0.723319
vt 0.000000 -0.056543
vt 0.500000 -0.056543
vt 0.500000 0.093457
vt 0.000000 0.093457
vt 0.000000 0.261457
vt 0.500000 0.261457
vt 0.500000 0.513457
vt 0.000000 0.513457
vt 0.000000 -0.206543
vt 0.500000 -0.206543
vt 1.000000 -0.206543
vt 1.000000 -0.056543
vt 1.000000 0.093457
vt 1.000000 0.261457
vt 1.000000 0.513457
vt 1.000000 0.653457
vt 0.500000 0.793457
vt 0.500000 0.769033
vt 1.000000 0.767333
vt 1.000000 0.793457
vt 0.000000 0.977282
vt 0.000000 1.000000
vt 1.000000 0.926621
vt 0.000000 1.477576
vt 0.000000 1.500294
vt 1.000000 1.426915
vt 0.000000 0.770739
vt 0.000000 0.793457
vt 1.000000 0.720078
s 1
f 11/1/1 20/2/2 99/3/3 97/4/4
f 13/5/5 16/6/6 17/7/7 5/8/8
f 9/9/9 18/10/10 19/11/11 7/12/12
f 5/8/8 17/7/7 18/10/10 9/9/9
f 7/12/12 19/11/11 20/2/2 11/1/1
f 1/13/13 15/14/14 16/6/6 13/5/5
f 16/6/6 15/14/14 2/15/15 14/16/16
f 17/7/7 16/6/6 14/16/16 6/17/17
f 18/10/10 17/7/7 6/17/17 10/18/18
f 19/11/11 18/10/10 10/18/18 8/19/19
f 20/2/2 19/11/11 8/19/19 12/20/20
f 21/21/21 87/22/22 86/23/23 4/24/24
f 32/25/25 41/26/26 102/27/27 100/28/28
f 34/29/29 37/30/30 38/31/31 26/32/32
f 30/33/33 39/34/34 40/35/35 28/36/36
f 26/32/32 38/31/31 39/34/34 30/33/33
f 28/36/36 40/35/35 41/26/26 32/25/25
f 22/37/37 36/38/38 37/30/30 34/29/29
f 37/30/30 36/38/38 23/39/39 35/40/40
f 38/31/31 37/30/30 35/40/40 27/41/41
f 39/34/34 38/31/31 27/41/41 31/42/42
f 40/35/35 39/34/34 31/42/42 29/43/43
f 41/26/26 40/35/35 29/43/43 33/44/44
f 42/45/45 90/46/46 89/47/47 25/48/48
f 53/25/49 62/26/50 105/27/51 103/28/52
f 55/29/53 58/30/54 59/31/55 47/32/56
f 51/33/57 60/34/58 61/35/59 49/36/60
f 47/32/56 59/31/55 60/34/58 51/33/57
f 49/36/60 61/35/59 62/26/50 53/25/49
f 43/37/61 57/38/62 58/30/54 55/29/53
f 58/30/54 57/38/62 44/39/63 56/40/64
f 59/31/55 58/30/54 56/40/64 48/41/65
f 60/34/58 59/31/55 48/41/65 52/42/66
f 61/35/59 60/34/58 52/42/66 50/43/67
f 62/26/50 61/35/59 50/43/67 54/44/68
f 63/45/69 93/46/70 92/47/71 46/48/72
f 74/49/73 83/50/74 108/51/75 106/52/76
f 76/53/77 79/54/78 80/55/79 68/56/80
f 72/57/81 81/58/82 82/59/83 70/60/84
f 68/56/80 80/55/79 81/58/82 72/57/81
f 70/60/84 82/59/83 83/50/74 74/49/73
f 64/61/85 78/62/86 79/54/78 76/53/77
f 79/54/78 78/62/86 65/63/87 77/64/88
f 80/55/79 79/54/78 77/64/88 69/65/89
f 81/58/82 80/55/79 69/65/89 73/66/90
f 82/59/83 81/58/82 73/66/90 71/67/91
f 83/50/74 82/59/83 71/67/91 75/68/92
f 84/69/93 96/70/94 95/71/95 67/72/96
f 85/73/97 87/22/22 21/21/21 3/74/98
f 86/23/23 87/22/22 99/3/3 98/75/99
f 88/76/100 90/46/46 42/45/45 24/77/101
f 89/47/47 90/46/46 102/27/27 101/78/102
f 91/76/103 93/46/70 63/45/69 45/77/104
f 92/47/71 93/46/70 105/27/51 104/78/105
f 94/79/106 96/70/94 84/69/93 66/80/107
f 95/71/95 96/70/94 108/51/75 107/81/108
f 97/4/4 99/3/3 87/22/22 85/73/97
f 100/28/28 102/27/27 90/46/46 88/76/100
f 103/28/52 105/27/51 93/46/70 91/76/103
f 106/52/76 108/51/75 96/70/94 94/79/106
f 98/75/99 99/3/3 20/2/2 12/20/20
f 101/78/102 102/27/27 41/26/26 33/44/44
f 104/78/105 105/27/51 62/26/50 54/44/68
f 107/81/108 108/51/75 83/50/74 75/68/92
