<svg width="24" height="24" viewBox="0 0 24 24" fill="none" xmlns="http://www.w3.org/2000/svg">
<path d="M11.9176 6.29864L11.9174 6.30001C12.064 6.18211 12.1997 6.13342 12.3465 6.06421L12.3524 6.06064L12.3595 6.05858C12.4858 6.01575 12.6164 5.999 12.7251 6.05374C12.8423 6.11276 12.891 6.23074 12.903 6.35481L12.9045 6.36746L12.9031 6.36732C12.9007 7.5874 12.9742 8.78631 13.0279 10.002C13.0814 11.216 13.1158 12.4444 13.0325 13.7134L13.0311 13.7133C13.0154 14.067 12.9024 14.5332 12.4476 14.697C12.2353 14.7733 12.0165 14.7748 11.8487 14.7109C11.6797 14.6465 11.5395 14.5012 11.5681 14.2919C11.5867 14.1567 11.611 14.0235 11.6328 13.8973C11.6545 13.7722 11.6736 13.6534 11.6856 13.5389C11.73 11.5044 11.748 9.44367 11.5338 7.46344C11.5066 7.30097 11.4669 7.10025 11.5017 6.89944C11.539 6.68541 11.657 6.48092 11.9176 6.29864Z" fill="#C14400" stroke="#C14400" stroke-width="0.25"/>
<path d="M6.74982 12.3751C6.74982 9.49167 6.90477 6.61321 7.00937 4.99591C7.08274 3.86213 8.00307 3.00022 9.09814 3.00006H15.6192C16.734 3.00009 17.6608 3.88944 17.7197 5.03887C17.8225 7.05011 17.9998 10.8837 17.9998 13.4568C17.9998 15.8055 17.8528 18.2981 17.7485 19.7697C17.6686 20.8981 16.7496 21.75 15.6611 21.7501H9.09814C8.00307 21.7499 7.08274 20.888 7.00937 19.7542C6.90477 18.1369 6.74982 15.2584 6.74982 12.3751ZM8.15607 12.3751C8.15607 15.2125 8.30849 18.055 8.41219 19.6584C8.43566 20.0214 8.73076 20.3076 9.09814 20.3078H15.6611C16.027 20.3077 16.3202 20.025 16.3457 19.6655C16.4491 18.2064 16.5936 15.7539 16.5936 13.4568C16.5936 10.9267 16.4185 7.12877 16.3155 5.11422C16.2961 4.73862 15.9934 4.44239 15.6192 4.44237H9.09814C8.73076 4.44252 8.43566 4.72874 8.41219 5.09169C8.30849 6.6951 8.15607 9.53758 8.15607 12.3751Z" fill="#C14400"/>
<path d="M12.3994 17.2511C12.4553 17.2445 12.5132 17.2609 12.5605 17.299C12.6083 17.3374 12.6426 17.3962 12.6504 17.464C12.6582 17.532 12.6381 17.5989 12.5986 17.6495L12.4014 17.9025C12.3623 17.9525 12.308 17.9818 12.252 17.9884C12.1961 17.995 12.1381 17.9795 12.0908 17.9415C12.0431 17.9031 12.0097 17.8442 12.002 17.7765C11.9962 17.7256 12.0056 17.6752 12.0273 17.632L12.0527 17.5909L12.249 17.337L12.25 17.338C12.2891 17.2879 12.3433 17.2577 12.3994 17.2511Z" fill="#C14400" stroke="#C14400" stroke-width="1.5"/>
</svg>
