<svg width="27" height="27" viewBox="0 0 27 27" fill="none" xmlns="http://www.w3.org/2000/svg">
<path d="M13.6655 14.2176C16.0644 14.2781 18.5442 14.3357 20.9917 14.1355C21.3964 14.1039 21.6967 13.754 21.6643 13.3594C21.6319 12.962 21.2787 12.6697 20.8695 12.7014C18.5001 12.8944 16.06 12.8353 13.7023 12.7792C11.5948 12.7273 9.42988 12.687 7.27528 12.8094C8.37465 11.6589 9.37689 10.4322 10.3247 9.21546L11.8803 7.21114C12.3895 6.55743 12.8708 5.93828 13.4418 5.40984C13.7376 5.1377 13.7508 4.68126 13.4727 4.39184C13.1931 4.1053 12.7295 4.08802 12.4322 4.36304C11.7714 4.97211 11.2313 5.66758 10.6985 6.35152L9.15319 8.34289C7.95668 9.88356 6.71897 11.4761 5.26344 12.7936C5.11332 12.9304 5 13.1953 5 13.3954C4.99706 14.7936 12.101 22.2421 12.1732 22.3055C12.3159 22.435 12.4955 22.4998 12.675 22.4998C12.8722 22.4998 13.068 22.4221 13.2122 22.2709C13.4889 21.9815 13.4742 21.525 13.1769 21.2543C12.5705 20.7 8.63368 16.3486 7.07807 14.2666C9.26946 14.1269 11.4976 14.1672 13.6655 14.2176Z" fill="#C14400" stroke="#C14400" stroke-width="1.66143"/>
</svg>
