<svg width="54" height="52" viewBox="0 0 54 52" fill="none" xmlns="http://www.w3.org/2000/svg">
<g filter="url(#filter0_d_1748_990)">
<rect x="0.5" y="0.5" width="53" height="48" rx="10" fill="#FCEFE1"/>
<rect x="0.5" y="0.5" width="53" height="48" rx="10" stroke="#E7D4A3"/>
<path d="M19.0569 18.637C18.5198 18.0551 18.5395 17.1282 19.1019 16.5697C19.6615 16.0141 20.5558 16.0346 21.0901 16.6194C23.1598 18.8709 25.0974 20.7218 27.0546 22.5143C29.0147 20.6838 31 18.8768 33.0473 17.1691C33.6491 16.6691 34.5377 16.7656 35.0242 17.3972C35.5107 18.0259 35.4123 18.9469 34.8049 19.4528C32.887 21.0522 31.0338 22.7482 29.1918 24.4587C29.2734 24.5318 29.3521 24.602 29.4337 24.678C31.1688 26.2395 32.9545 27.8477 34.8836 29.7103C35.4516 30.26 35.4854 31.1869 34.9567 31.7776C34.6783 32.0875 34.3015 32.2425 33.9247 32.2425C33.5816 32.2425 33.2385 32.1139 32.9685 31.8507C31.0675 30.0115 29.3043 28.4267 27.5945 26.8857C27.423 26.7307 27.2571 26.5787 27.0855 26.4266C25.0861 28.3623 23.1176 30.336 21.2391 32.3799C20.9635 32.6811 20.5951 32.8332 20.2239 32.8332C19.8752 32.8332 19.5237 32.6987 19.2509 32.4267C18.6913 31.8712 18.6688 30.9442 19.2059 30.3594C21.0563 28.3448 22.9967 26.4061 24.9624 24.4968C23.0389 22.7248 21.121 20.8826 19.0569 18.637Z" fill="#C14400"/>
</g>
<defs>
<filter id="filter0_d_1748_990" x="0" y="0" width="54" height="52" filterUnits="userSpaceOnUse" color-interpolation-filters="sRGB">
<feFlood flood-opacity="0" result="BackgroundImageFix"/>
<feColorMatrix in="SourceAlpha" type="matrix" values="0 0 0 0 0 0 0 0 0 0 0 0 0 0 0 0 0 0 127 0" result="hardAlpha"/>
<feOffset dy="3"/>
<feColorMatrix type="matrix" values="0 0 0 0 0.905882 0 0 0 0 0.831373 0 0 0 0 0.639216 0 0 0 1 0"/>
<feBlend mode="normal" in2="BackgroundImageFix" result="effect1_dropShadow_1748_990"/>
<feBlend mode="normal" in="SourceGraphic" in2="effect1_dropShadow_1748_990" result="shape"/>
</filter>
</defs>
</svg>
