<svg width="80" height="80" viewBox="0 0 80 80" fill="none" xmlns="http://www.w3.org/2000/svg">
<g clip-path="url(#clip0_787_1636)">
<circle cx="40" cy="40" r="38" stroke="#FCEFE1" stroke-width="4"/>
<circle cx="40" cy="40" r="34" fill="#FCEFE1"/>
<path d="M38.0926 29.1455C43.9035 29.1455 49.7045 29.4615 52.9639 29.6748C55.2488 29.8244 56.9858 31.7013 56.9861 33.9345L56.9861 47.2329C56.9861 49.5063 55.1937 51.3963 52.8773 51.5163C48.824 51.7261 41.0982 52.0876 35.9126 52.0876C31.1793 52.0876 26.1559 51.7878 23.1901 51.5751C20.9161 51.4121 19.1993 49.5381 19.1991 47.3183L19.1991 33.9345C19.1994 31.7013 20.9364 29.8244 23.2213 29.6748C26.4807 29.4615 32.2817 29.1455 38.0926 29.1455ZM38.0926 32.0133C32.3742 32.0133 26.6457 32.3241 23.4144 32.5356C22.6829 32.5834 22.1061 33.1853 22.1058 33.9345L22.1058 47.3183C22.106 48.0645 22.6757 48.6623 23.4002 48.7144C26.3406 48.9252 31.2833 49.2199 35.9126 49.2199C41.0115 49.2199 48.6655 48.8628 52.7254 48.6528C53.4824 48.6133 54.0794 47.9959 54.0794 47.2329L54.0794 33.9345C54.0791 33.1853 53.5023 32.5834 52.7708 32.5356C49.5395 32.3241 43.811 32.0133 38.0926 32.0133Z" fill="#C14400"/>
<path d="M37.5311 35.5993C38.8963 35.1887 40.2779 35.1666 41.6232 35.5505H41.6245C43.0834 35.9675 44.2931 36.7725 45.1143 37.9293C45.9337 39.0839 46.3021 40.4985 46.2411 42.0293C46.1242 44.9753 44.1871 47.2465 41.3003 47.9085C40.9548 47.9878 40.5135 48.0419 40.1313 48.0706C39.7692 48.0978 39.3181 48.113 38.9834 48.0706H38.9808C37.0653 47.8244 35.5048 47.092 34.3154 45.7445V45.7458C32.0954 43.2333 32.263 39.5856 34.6738 37.2519L34.9836 36.9686C35.7209 36.3365 36.562 35.8905 37.5311 35.5993ZM40.8825 38.1455C40.0552 37.9094 39.201 37.9166 38.3086 38.185H38.3073C37.5846 38.4023 37.0305 38.7273 36.5519 39.1906H36.5505C35.2489 40.4505 35.101 42.2937 36.1183 43.6859L36.3384 43.9587L36.6046 44.2342C37.2542 44.8455 38.107 45.236 39.3208 45.3926H39.3221C39.3222 45.3926 39.3383 45.3952 39.3735 45.3966C39.4101 45.398 39.4577 45.3985 39.5158 45.3979C39.6334 45.3966 39.7761 45.3895 39.9283 45.3781C40.2466 45.3543 40.5372 45.3142 40.6954 45.278H40.6967C42.4323 44.8801 43.4775 43.6146 43.5447 41.9226L43.546 41.547C43.5201 40.6959 43.2844 40.0137 42.9134 39.491C42.5436 38.9701 41.9904 38.5373 41.2238 38.2562L40.8825 38.1455Z" fill="#C14400"/>
<path d="M50.5659 35.6309C51.3374 35.6086 51.8177 35.6031 52.1314 35.6494C52.2957 35.6737 52.4412 35.7145 52.5689 35.792C52.6989 35.8709 52.7844 35.9719 52.8531 36.0693C52.9864 36.2579 53.0391 36.4848 52.9839 36.707C52.9295 36.926 52.7811 37.1028 52.5874 37.2197L52.5865 37.2188C52.5038 37.2686 52.4016 37.2951 52.3286 37.3105C52.2429 37.3286 52.1412 37.3438 52.0308 37.3564C51.8084 37.3818 51.5288 37.3992 51.229 37.4092C50.6307 37.4291 49.9255 37.4186 49.3843 37.3662C49.0013 37.3292 48.621 37.2765 48.3091 37.2207C48.1534 37.1929 48.0112 37.1643 47.8931 37.1348C47.7821 37.107 47.6701 37.0729 47.5865 37.0322H47.5855C47.3696 36.9266 47.2216 36.7063 47.2681 36.4473C47.3104 36.2118 47.4954 36.0512 47.6978 35.9785H47.6988C48.2654 35.7767 49.2122 35.6705 50.565 35.6309H50.5659Z" fill="#C14400" stroke="#C14400" stroke-width="0.674768"/>
<path d="M32.6944 29.1463C32.6944 28.4009 32.0902 27.7967 31.3449 27.7967H28.6458C27.9005 27.7967 27.2963 28.4009 27.2963 29.1463V29.821H24.5972V29.1463C24.5972 26.9103 26.4099 25.0977 28.6458 25.0977H31.3449C33.5809 25.0977 35.3935 26.9103 35.3935 29.1463V29.821H32.6944V29.1463Z" fill="#C14400"/>
</g>
<defs>
<clipPath id="clip0_787_1636">
<rect width="80" height="80" rx="40" fill="white"/>
</clipPath>
</defs>
</svg>
