<svg width="32" height="32" viewBox="0 0 32 32" fill="none" xmlns="http://www.w3.org/2000/svg">
<mask id="path-1-inside-1_1942_680" fill="white">
<path d="M19.3028 15.0173C21.5542 15.0943 23.8068 15.2002 26.0371 15.4019C26.6915 15.4624 27.1621 16.0475 27.0759 16.7116C26.9914 17.374 26.3859 17.8626 25.7246 17.8023C23.6354 17.6132 21.5274 17.5198 19.4173 17.4417L16.9974 17.3595C14.66 17.3217 12.3184 17.3248 9.98865 17.423C9.64607 17.4382 9.33695 17.3097 9.11646 17.0892C8.90934 16.8821 8.78044 16.5934 8.77994 16.2699C8.77754 15.6075 9.31474 15.0436 9.98113 15.0152C12.2768 14.9177 14.5809 14.9187 16.8825 14.9521L19.3028 15.0173Z"/>
</mask>
<path d="M19.3028 15.0173C21.5542 15.0943 23.8068 15.2002 26.0371 15.4019C26.6915 15.4624 27.1621 16.0475 27.0759 16.7116C26.9914 17.374 26.3859 17.8626 25.7246 17.8023C23.6354 17.6132 21.5274 17.5198 19.4173 17.4417L16.9974 17.3595C14.66 17.3217 12.3184 17.3248 9.98865 17.423C9.64607 17.4382 9.33695 17.3097 9.11646 17.0892C8.90934 16.8821 8.78044 16.5934 8.77994 16.2699C8.77754 15.6075 9.31474 15.0436 9.98113 15.0152C12.2768 14.9177 14.5809 14.9187 16.8825 14.9521L19.3028 15.0173Z" fill="#C14400"/>
<path d="M19.3028 15.0173L19.4674 8.90537L19.4896 8.90597L19.5117 8.90673L19.3028 15.0173ZM26.0371 15.4019L26.5878 9.31261L26.5996 9.31369L26.0371 15.4019ZM27.0759 16.7116L21.0108 15.9384L21.0126 15.9248L27.0759 16.7116ZM25.7246 17.8023L26.2759 11.7131L26.2801 11.7134L25.7246 17.8023ZM19.4173 17.4417L19.6249 11.3311L19.6341 11.3314L19.6433 11.3317L19.4173 17.4417ZM16.9974 17.3595L17.0963 11.2462L17.1507 11.247L17.205 11.2489L16.9974 17.3595ZM9.98865 17.423L9.71768 11.3148L9.73107 11.3143L9.98865 17.423ZM8.77994 16.2699L14.8941 16.2477L14.8941 16.2604L8.77994 16.2699ZM9.98113 15.0152L9.72147 8.9066L9.72149 8.9066L9.98113 15.0152ZM16.8825 14.9521L16.9713 8.83862L17.0092 8.83917L17.0471 8.84019L16.8825 14.9521ZM19.3028 15.0173L19.5117 8.90673C21.8063 8.98519 24.1901 9.09577 26.5878 9.31262L26.0371 15.4019L25.4864 21.4912C23.4235 21.3047 21.3022 21.2034 19.0939 21.1279L19.3028 15.0173ZM26.0371 15.4019L26.5996 9.31369C30.7303 9.6953 33.668 13.4236 33.1392 17.4985L27.0759 16.7116L21.0126 15.9248C20.6561 18.6715 22.6528 21.2295 25.4747 21.4902L26.0371 15.4019ZM27.0759 16.7116L33.1409 17.4848C32.6439 21.3838 29.1369 24.2532 25.1691 23.8912L25.7246 17.8023L26.2801 11.7134C23.6349 11.4721 21.339 13.3643 21.0108 15.9384L27.0759 16.7116ZM25.7246 17.8023L25.1734 23.8916C23.257 23.7181 21.2866 23.6292 19.1913 23.5517L19.4173 17.4417L19.6433 11.3317C21.7682 11.4103 24.0139 11.5083 26.2759 11.7131L25.7246 17.8023ZM16.9974 17.3595L16.8984 23.4729C14.6274 23.4361 12.4143 23.4403 10.2462 23.5317L9.98865 17.423L9.73107 11.3143C12.2225 11.2092 14.6926 11.2072 17.0963 11.2462L16.9974 17.3595ZM9.98865 17.423L10.2596 23.5312C8.18103 23.6234 6.21113 22.8306 4.7931 21.4126L9.11646 17.0892L13.4398 12.7659C12.4628 11.7888 11.1111 11.253 9.71768 11.3149L9.98865 17.423ZM9.11646 17.0892L4.7931 21.4126C3.46795 20.0874 2.66885 18.258 2.66579 16.2793L8.77994 16.2699L14.8941 16.2604C14.892 14.9289 14.3507 13.6768 13.4398 12.7659L9.11646 17.0892ZM8.77994 16.2699L2.66583 16.2921C2.65148 12.3395 5.77955 9.07416 9.72147 8.9066L9.98113 15.0152L10.2408 21.1239C12.8499 21.013 14.9036 18.8755 14.8941 16.2477L8.77994 16.2699ZM9.98113 15.0152L9.72149 8.9066C12.1847 8.80191 14.62 8.80447 16.9713 8.83862L16.8825 14.9521L16.7937 21.0656C14.5418 21.0329 12.3689 21.0334 10.2408 21.1239L9.98113 15.0152ZM16.8825 14.9521L17.0471 8.84019L19.4674 8.90537L19.3028 15.0173L19.1382 21.1293L16.7179 21.0641L16.8825 14.9521ZM19.4173 17.4417L19.2097 23.5524L16.7898 23.4701L16.9974 17.3595L17.205 11.2489L19.6249 11.3311L19.4173 17.4417Z" fill="#C14400" mask="url(#path-1-inside-1_1942_680)"/>
<path d="M19.3028 7.25755C21.5542 7.33453 23.8068 7.44045 26.0371 7.64216C26.6915 7.70262 27.1621 8.28775 27.0759 8.95186C26.9914 9.61424 26.3859 10.1029 25.7246 10.0425C23.6354 9.8534 21.5274 9.76 19.4173 9.68196L16.9974 9.59974C14.66 9.5619 12.3184 9.565 9.98865 9.66324C9.64607 9.67844 9.33695 9.54994 9.11646 9.32946C8.90934 9.12234 8.78044 8.83365 8.77994 8.51011C8.77754 7.84773 9.31474 7.2838 9.98113 7.25548C12.2768 7.1579 14.5809 7.15894 16.8825 7.19237L19.3028 7.25755Z" fill="#C14400"/>
<path d="M19.3028 22.2575C21.5542 22.3345 23.8068 22.4404 26.0371 22.6422C26.6915 22.7026 27.1621 23.2878 27.0759 23.9519C26.9914 24.6142 26.3859 25.1029 25.7246 25.0425C23.6354 24.8534 21.5274 24.76 19.4173 24.682L16.9974 24.5997C14.66 24.5619 12.3184 24.565 9.98865 24.6632C9.64607 24.6784 9.33695 24.5499 9.11646 24.3295C8.90934 24.1223 8.78044 23.8337 8.77994 23.5101C8.77754 22.8477 9.31474 22.2838 9.98113 22.2555C12.2768 22.1579 14.5809 22.1589 16.8825 22.1924L19.3028 22.2575Z" fill="#C14400"/>
<path d="M4.54435 15.5022L4.2817 15.8398C4.06712 16.1151 3.9689 16.4658 4.00866 16.8147C4.04842 17.1636 4.22289 17.4822 4.49371 17.7003C4.76452 17.9185 5.10949 18.0183 5.45271 17.9779C5.79594 17.9375 6.10932 17.7601 6.3239 17.4848L6.58735 17.1471C6.80192 16.8717 6.90008 16.5209 6.86023 16.172C6.82039 15.823 6.6458 15.5044 6.37488 15.2862C6.10397 15.0681 5.75891 14.9683 5.41561 15.0088C5.07232 15.0493 4.75892 15.2268 4.54435 15.5022Z" fill="#C14400"/>
<path d="M4.54435 7.74247L4.2817 8.08002C4.06712 8.35533 3.9689 8.70601 4.00866 9.05494C4.04842 9.40386 4.22289 9.72243 4.49371 9.94057C4.76452 10.1587 5.10949 10.2586 5.45271 10.2181C5.79594 10.1777 6.10932 10.0004 6.3239 9.72505L6.58735 9.38738C6.80192 9.11196 6.90008 8.76118 6.86023 8.4122C6.82039 8.06321 6.6458 7.74461 6.37488 7.52648C6.10397 7.30835 5.75891 7.20857 5.41561 7.24907C5.07232 7.28958 4.75892 7.46706 4.54435 7.74247Z" fill="#C14400"/>
<path d="M4.54435 22.7425L4.2817 23.08C4.06712 23.3553 3.9689 23.706 4.00866 24.0549C4.04842 24.4039 4.22289 24.7224 4.49371 24.9406C4.76452 25.1587 5.10949 25.2586 5.45271 25.2181C5.79594 25.1777 6.10932 25.0004 6.3239 24.725L6.58735 24.3874C6.80192 24.112 6.90008 23.7612 6.86023 23.4122C6.82039 23.0632 6.6458 22.7446 6.37488 22.5265C6.10397 22.3084 5.75891 22.2086 5.41561 22.2491C5.07232 22.2896 4.75892 22.4671 4.54435 22.7425Z" fill="#C14400"/>
</svg>
