<svg width="32" height="32" viewBox="0 0 32 32" fill="none" xmlns="http://www.w3.org/2000/svg">
<path d="M16.4421 3.92627C16.738 4.03646 17.0396 4.27493 17.3875 4.64209C17.5269 4.7893 17.6658 4.9419 17.8074 5.09912C17.8296 5.12376 17.8531 5.14713 17.8777 5.16943C19.3752 6.52913 22.0558 9.02364 24.3025 11.3521C25.4288 12.5193 26.4252 13.6232 27.1072 14.5112C27.4506 14.9585 27.6901 15.3201 27.8279 15.5874C27.8679 15.6651 27.8923 15.7257 27.9089 15.769C27.7952 16.026 27.5607 16.3021 27.1892 16.6274H27.1882C26.7367 17.0232 24.9427 18.8058 23.0818 20.6274C21.1785 22.4905 19.1904 24.4103 18.2683 25.1733L18.1667 25.27C17.7724 25.7026 17.4128 26.0668 17.0076 26.3579C16.7002 26.5788 16.451 26.7418 16.2146 26.8354C16.053 26.8995 15.9248 26.9199 15.8093 26.9087L15.697 26.8872L15.5681 26.8403C15.4344 26.7811 15.2849 26.684 15.1199 26.5444C14.9916 26.4361 14.8385 26.3631 14.6755 26.3296C14.1427 25.8441 11.8596 23.6309 9.54761 21.355C8.33462 20.1609 7.12684 18.964 6.18628 18.0181C5.71579 17.5449 5.31479 17.1363 5.01343 16.8237C4.86256 16.6673 4.73917 16.5376 4.64624 16.437C4.59986 16.3868 4.56272 16.3465 4.53491 16.3149C4.52108 16.2992 4.51038 16.287 4.50269 16.2778L4.49292 16.2651C4.26236 15.9686 4.09811 15.7342 4.00464 15.5161C3.94226 15.3706 3.92546 15.2653 3.9353 15.1753L3.95288 15.0894C4.00967 14.9058 4.15942 14.6919 4.39917 14.4517L4.6687 14.2036C4.79803 14.0925 4.9329 13.9811 5.073 13.8696C5.1054 13.8438 5.13681 13.8162 5.16577 13.7866C6.49636 12.4261 9.12992 9.79757 11.6169 7.56787C12.8635 6.4503 14.0518 5.45217 15.0105 4.76514C15.4928 4.41949 15.8872 4.1742 16.1833 4.03076C16.3011 3.97371 16.3868 3.94333 16.4421 3.92627ZM14.5818 26.3169C14.5831 26.3172 14.5844 26.3176 14.5857 26.3179L14.5242 26.3101L14.5818 26.3169Z" stroke="#FCEFE1" stroke-width="2" stroke-linejoin="round"/>
<path d="M19.3215 12.7646C19.2218 12.7948 19.1549 12.8624 19.1135 12.9199C19.0336 13.0314 18.9957 13.1802 18.9797 13.3076C18.963 13.4411 18.9651 13.5906 18.9954 13.7246C19.0225 13.8447 19.0877 14.0156 19.2473 14.1055L19.2463 14.1064C19.5382 14.2729 19.8295 14.4346 20.1194 14.5947C20.1265 14.5987 20.1337 14.6025 20.1409 14.6064C19.7929 14.6 19.3627 14.5908 18.8752 14.5801C17.8277 14.5571 16.529 14.5303 15.2571 14.5264C13.9868 14.5225 12.7368 14.5411 11.7864 14.6094C11.3125 14.6434 10.9033 14.6906 10.6008 14.7559C10.4509 14.7882 10.3152 14.8276 10.2073 14.8779C10.1255 14.9161 10.0078 14.983 9.94653 15.1025L9.92407 15.1572L9.87524 15.3398C9.8304 15.5399 9.79815 15.7872 9.77759 16.0479C9.74981 16.3999 9.74183 16.7944 9.75806 17.165C9.77415 17.5326 9.81461 17.89 9.88794 18.1621C9.92414 18.2963 9.97325 18.428 10.0432 18.5312C10.1124 18.6333 10.2339 18.75 10.4153 18.75C10.5904 18.7498 10.7118 18.6407 10.7844 18.5469C10.8591 18.4504 10.9173 18.326 10.9651 18.2002C11.0614 17.9464 11.1403 17.6141 11.2112 17.293C11.2839 16.9632 11.3487 16.6436 11.4182 16.3857C11.4529 16.2573 11.4866 16.1538 11.5188 16.0791C11.5387 16.0331 11.5532 16.0099 11.5598 16C11.5743 15.9944 11.6073 15.9817 11.6692 15.9687C11.7516 15.9516 11.862 15.9366 11.9993 15.9229C12.2734 15.8954 12.637 15.8772 13.0637 15.8672C13.9166 15.8473 15.005 15.8586 16.0999 15.8818C17.1941 15.9051 18.2917 15.9403 19.1633 15.9668C19.6212 15.9807 20.0222 15.9917 20.3274 15.998C20.2157 16.1379 20.1077 16.2796 20.0061 16.4209L19.8049 16.7041L19.8 16.7119C19.6354 16.9672 19.6134 17.2718 19.6907 17.5381L19.6926 17.5449C19.7214 17.6342 19.7865 17.764 19.8889 17.8506C19.9419 17.8954 20.0339 17.952 20.1545 17.9443C20.2833 17.9361 20.3754 17.8595 20.4329 17.7803L20.4368 17.7754C20.9849 16.9779 21.5743 16.2203 22.4241 16.0371L22.428 16.0361C22.6355 15.9884 22.7371 15.8235 22.7834 15.6982C22.8302 15.5717 22.842 15.4356 22.842 15.3379L22.842 15.2441C22.8614 15.119 22.8615 14.9813 22.8342 14.8555C22.8063 14.7272 22.7388 14.5542 22.5793 14.46L22.5754 14.458C22.0836 14.1779 21.587 13.9028 21.092 13.6289C20.5965 13.3547 20.1022 13.0811 19.6135 12.8027L19.6135 12.8037C19.5309 12.7559 19.4282 12.7325 19.3215 12.7646Z" fill="#FCEFE1" stroke="#FCEFE1" stroke-width="0.5"/>
</svg>
