<svg width="27" height="27" viewBox="0 0 27 27" fill="none" xmlns="http://www.w3.org/2000/svg">
<path d="M18.6334 6.14938L18.7091 6.46901L18.6164 6.10884C18.3023 5.39179 17.8515 4.74516 17.29 4.20634C16.7286 3.66751 16.0676 3.24719 15.3453 2.96968L15.3384 2.96696C14.5737 2.65091 13.755 2.49229 12.9297 2.50029C12.1043 2.50829 11.2887 2.68275 10.5301 3.01355L10.4575 3.04718C7.72137 4.43282 6.88374 6.90575 7.94459 10.466C7.98593 10.6047 8.05375 10.7338 8.14416 10.8459C8.23458 10.9579 8.34583 11.0508 8.47155 11.1192C8.59728 11.1876 8.73503 11.2301 8.87692 11.2444C9.01882 11.2587 9.16209 11.2444 9.29856 11.2023C9.43503 11.1603 9.56201 11.0914 9.67227 10.9995C9.78253 10.9075 9.8739 10.7945 9.94116 10.6666C10.0084 10.5388 10.0503 10.3988 10.0643 10.2546C10.0783 10.1103 10.0643 9.96465 10.0229 9.82592C9.32199 7.47379 9.77795 5.88008 11.3908 5.04479C12.397 4.61456 13.5296 4.60606 14.542 5.02115C15.4693 5.37603 16.2205 6.09021 16.6307 7.00715C16.8522 7.47137 16.9734 7.97841 16.9861 8.49419C16.9989 9.00998 16.9028 9.52256 16.7045 9.99749L16.691 10.027C16.4525 10.531 16.1449 10.9981 15.7774 11.4144L15.6679 11.5713C15.6855 11.5398 15.7055 11.5097 15.7276 11.4812L15.7269 11.4819C15.5637 11.6833 14.8068 12.4163 13.4563 13.6811L13.4128 13.7241C13.0087 14.1543 12.6315 14.6098 12.2834 15.088L12.2773 15.0968C11.6778 15.9128 11.3421 16.8979 11.3165 17.916C11.3116 18.0611 11.3348 18.2058 11.3849 18.3418C11.435 18.4777 11.511 18.6023 11.6085 18.7084C11.7061 18.8144 11.8232 18.8999 11.9533 18.9598C12.0834 19.0198 12.2238 19.053 12.3666 19.0577C12.5093 19.0624 12.6516 19.0384 12.7852 18.9871C12.9188 18.9358 13.0411 18.8583 13.1452 18.7588C13.2493 18.6594 13.333 18.5401 13.3917 18.4077C13.4503 18.2753 13.4827 18.1324 13.4869 17.9873C13.5016 17.4165 13.6898 16.8642 14.0257 16.4066C14.3143 16.0101 14.6264 15.6318 14.9603 15.2739C16.362 13.9608 17.1764 13.1647 17.4034 12.8857C17.4154 12.8706 17.423 12.8561 17.4342 12.8412C17.9338 12.2668 18.3503 11.6229 18.6713 10.929C19.0041 10.1766 19.173 9.35995 19.1665 8.53499C19.16 7.71003 18.9781 6.89625 18.6334 6.14938Z" fill="#C14400"/>
<path d="M12.2442 22.0963L12.0253 22.3776C11.8465 22.607 11.7646 22.8992 11.7978 23.19C11.8309 23.4808 11.9763 23.7462 12.202 23.928C12.4277 24.1098 12.7151 24.193 13.0012 24.1593C13.2872 24.1257 13.5483 23.9778 13.7271 23.7484L13.9467 23.467C14.1255 23.2375 14.2073 22.9452 14.1741 22.6544C14.1409 22.3636 13.9954 22.0981 13.7696 21.9163C13.5439 21.7345 13.2563 21.6514 12.9702 21.6851C12.6842 21.7189 12.423 21.8668 12.2442 22.0963Z" fill="#C14400"/>
</svg>
