<svg width="32" height="32" viewBox="0 0 32 32" fill="none" xmlns="http://www.w3.org/2000/svg">
<path d="M6.55307 28.04C5.6547 28.0062 4.2376 27.981 3.90836 26.9598C3.69524 26.2989 3.76234 25.5229 3.72166 24.84C3.65039 23.6272 3.57078 22.4312 3.33262 21.2385C3.26622 20.9098 2.78887 20.9314 2.70995 21.2385C2.33829 22.6905 2.09979 24.2349 2.01566 25.7343C1.96733 26.5941 2.01149 27.5646 2.42799 28.3337C3.04927 29.4801 4.35094 29.7361 5.51285 29.904C7.03598 30.1245 8.56189 29.9076 10.0861 29.8238C11.3008 29.7562 11.3085 27.794 10.0861 27.8616C8.9113 27.9263 7.73062 28.0835 6.55307 28.04Z" fill="#FCEFE1"/>
<path d="M26.9598 28.092C26.2995 28.3051 25.5235 28.238 24.8399 28.278C23.6276 28.35 22.4309 28.4296 21.2388 28.6677C20.9094 28.7334 20.9317 29.2115 21.2388 29.2904C22.6898 29.661 24.2343 29.9002 25.7346 29.9843C26.5944 30.0327 27.5643 29.9885 28.3335 29.5713C29.4799 28.9507 29.7359 27.6491 29.9039 26.4872C30.1243 24.9633 29.9082 23.4381 29.8237 21.9139C29.7568 20.6992 27.7937 20.6915 27.8613 21.9139C27.9267 23.0887 28.0832 24.2687 28.0397 25.4469C28.0062 26.3457 27.981 27.7621 26.9598 28.092Z" fill="#FCEFE1"/>
<path d="M2.19328 10.021C2.26209 11.3222 4.2488 11.3304 4.17927 10.021C4.1039 8.58565 3.30114 4.66299 5.09926 4.09473C5.8041 3.8719 6.57883 3.95425 7.30369 3.93227C8.79346 3.88867 10.2967 3.75601 11.7584 3.4527C12.0912 3.38339 12.0697 2.86841 11.7584 2.78606C9.99633 2.31953 8.14906 2.10117 6.33382 2.01249C5.44222 1.96889 4.49564 2.01994 3.70197 2.48424C1.36466 3.85066 2.07496 7.7845 2.19328 10.021Z" fill="#FCEFE1"/>
<path d="M28.0678 7.30375C28.1121 8.7935 28.244 10.2967 28.5473 11.7584C28.6166 12.0912 29.1316 12.0697 29.2147 11.7584C29.6797 9.99636 29.8988 8.1491 29.9875 6.33316C30.031 5.4423 29.9807 4.49501 29.5157 3.70135C28.149 1.3648 24.2153 2.07508 21.9789 2.19304C20.6778 2.26148 20.6696 4.24854 21.9789 4.179C23.4142 4.10364 27.3367 3.30088 27.9049 5.09826C28.1289 5.80381 28.0469 6.5789 28.0678 7.30375Z" fill="#FCEFE1"/>
<path d="M29.0152 15.0367C26.8213 14.8842 6.70304 15.2545 5.58548 15.2758C4.5176 15.2968 3.38629 15.2617 2.35329 15.5424C1.88259 15.6707 1.88188 16.3039 2.35329 16.4322C4.31783 16.9658 26.7554 17.0946 29.0152 16.9376C30.3269 16.8454 30.3297 15.1282 29.0152 15.0367Z" fill="#FCEFE1"/>
</svg>
