<svg width="27" height="27" viewBox="0 0 27 27" fill="none" xmlns="http://www.w3.org/2000/svg">
<path d="M10.8935 5.2084C12.5217 4.69302 14.1844 4.65152 15.8072 5.11237H15.817L15.935 5.14818C17.7228 5.68613 19.2343 6.736 20.2644 8.26341C21.29 9.78456 21.7317 11.6207 21.6585 13.5572C21.515 17.3628 19.1148 20.3489 15.5297 21.2143C15.0862 21.3214 14.5476 21.3897 14.1007 21.425C13.7075 21.4561 13.1671 21.4788 12.7156 21.4275H12.7001L12.644 21.4202C11.0423 21.2034 9.61903 20.6806 8.40407 19.7909L6.9319 18.4099C4.1865 15.139 4.39615 10.3869 7.3738 7.35277L7.38275 7.34463L7.39088 7.33649L7.73512 7.00446L7.75465 6.98656C8.66841 6.16212 9.7102 5.58277 10.8935 5.2084ZM15.4532 6.74404C14.1254 6.34522 12.7611 6.36499 11.3964 6.79694C10.4292 7.10296 9.60281 7.56554 8.87933 8.21621L8.5473 8.53685C6.18727 10.958 6.02581 14.7169 8.19329 17.3186L8.20876 17.3373C9.37581 18.729 10.9065 19.5005 12.8572 19.7665L12.8694 19.7681C13.1494 19.8054 13.5776 19.7942 13.9697 19.7632C14.372 19.7315 14.8141 19.6731 15.1383 19.5948C17.9706 18.911 19.877 16.5823 19.9934 13.4945L19.9999 13.1877C20.0068 11.6658 19.6286 10.3018 18.8826 9.19521C18.0913 8.02186 16.9219 7.19017 15.4768 6.75055L15.4532 6.74404Z" fill="#C14400"/>
<path d="M12.7298 11.3445C12.0547 11.442 11.4483 12.0615 11.3486 12.7548C11.2344 13.5505 11.7707 14.378 12.5441 14.599C12.7016 14.6444 12.8664 14.6668 13.037 14.6668C13.1143 14.6668 13.1938 14.6625 13.2733 14.6524C13.6268 14.6105 13.9426 14.4784 14.1855 14.2718C14.4739 14.0271 14.6495 13.6841 14.6654 13.3295C14.682 12.9533 14.5173 12.6183 14.3915 12.398C14.0749 11.8478 13.4497 11.2441 12.7298 11.3445Z" fill="#C14400"/>
<path d="M24.7654 12.5306C24.2431 12.4035 19.453 12.7121 19.1869 12.7298C18.9327 12.7473 18.6633 12.7181 18.4174 12.952C18.3053 13.0589 18.3051 13.5866 18.4174 13.6935C18.8851 14.1381 24.2274 14.2455 24.7654 14.1146C25.0777 14.0378 25.0784 12.6069 24.7654 12.5306Z" fill="#C14400"/>
<path d="M1.90107 12.5306C2.42342 12.4035 7.21348 12.7121 7.47957 12.7298C7.73382 12.7473 8.00318 12.7181 8.24914 12.952C8.36121 13.0589 8.36137 13.5866 8.24914 13.6935C7.78139 14.1381 2.43911 14.2455 1.90107 14.1146C1.58876 14.0378 1.58809 12.6069 1.90107 12.5306Z" fill="#C14400"/>
<path d="M14.1361 24.7657C14.2632 24.2433 13.9547 19.4533 13.9369 19.1872C13.9194 18.9329 13.9487 18.6636 13.7147 18.4176C13.6079 18.3055 13.0801 18.3054 12.9733 18.4176C12.5286 18.8854 12.4212 24.2276 12.5521 24.7657C12.6289 25.078 14.0599 25.0787 14.1361 24.7657Z" fill="#C14400"/>
<path d="M14.1361 1.90131C14.2632 2.42367 13.9547 7.21372 13.9369 7.47981C13.9194 7.73407 13.9487 8.00343 13.7147 8.24938C13.6079 8.36145 13.0801 8.36162 12.9733 8.24938C12.5286 7.78163 12.4212 2.43936 12.5521 1.90131C12.6289 1.589 14.0599 1.58833 14.1361 1.90131Z" fill="#C14400"/>
</svg>
