<svg width="24" height="24" viewBox="0 0 24 24" fill="none" xmlns="http://www.w3.org/2000/svg">
<path d="M4.9148 21.03C4.24102 21.0046 3.1782 20.9857 2.93127 20.2198C2.77143 19.7241 2.82176 19.1422 2.79125 18.63C2.73779 17.7204 2.67808 16.8234 2.49947 15.9289C2.44966 15.6824 2.09165 15.6985 2.03246 15.9289C1.75372 17.0178 1.57485 18.1761 1.51174 19.3007C1.4755 19.9456 1.50862 20.6734 1.82099 21.2503C2.28696 22.1101 3.26321 22.3021 4.13464 22.428C5.27698 22.5933 6.42142 22.4307 7.56455 22.3679C8.47561 22.3172 8.48135 20.8455 7.56455 20.8962C6.68347 20.9447 5.79796 21.0626 4.9148 21.03Z" fill="#C14400"/>
<mask id="path-2-inside-1_1828_1815" fill="white">
<path d="M20.2198 21.069C19.7246 21.2288 19.1426 21.1785 18.6299 21.2085C17.7207 21.2625 16.8231 21.3222 15.9291 21.5008C15.682 21.5501 15.6987 21.9086 15.9291 21.9678C17.0173 22.2458 18.1757 22.4252 19.3009 22.4883C19.9458 22.5245 20.6732 22.4914 21.2501 22.1785C22.1099 21.713 22.302 20.7368 22.4279 19.8654C22.5932 18.7225 22.4311 17.5786 22.3678 16.4355C22.3176 15.5244 20.8453 15.5187 20.896 16.4355C20.9451 17.3165 21.0624 18.2015 21.0297 19.0852C21.0047 19.7592 20.9858 20.8215 20.2198 21.069Z"/>
</mask>
<path d="M20.2198 21.069C19.7246 21.2288 19.1426 21.1785 18.6299 21.2085C17.7207 21.2625 16.8231 21.3222 15.9291 21.5008C15.682 21.5501 15.6987 21.9086 15.9291 21.9678C17.0173 22.2458 18.1757 22.4252 19.3009 22.4883C19.9458 22.5245 20.6732 22.4914 21.2501 22.1785C22.1099 21.713 22.302 20.7368 22.4279 19.8654C22.5932 18.7225 22.4311 17.5786 22.3678 16.4355C22.3176 15.5244 20.8453 15.5187 20.896 16.4355C20.9451 17.3165 21.0624 18.2015 21.0297 19.0852C21.0047 19.7592 20.9858 20.8215 20.2198 21.069Z" fill="#C14400"/>
<path d="M20.2198 21.069L20.6806 22.4965L20.6809 22.4964L20.2198 21.069ZM18.6299 21.2085L18.5423 19.7111L18.541 19.7111L18.6299 21.2085ZM15.9291 21.5008L16.2225 22.9718L16.2229 22.9717L15.9291 21.5008ZM15.9291 21.9678L15.5557 23.4206L15.5579 23.4211L15.9291 21.9678ZM19.3009 22.4883L19.3851 20.9906L19.3849 20.9906L19.3009 22.4883ZM21.2501 22.1785L20.536 20.8594L20.5349 20.8599L21.2501 22.1785ZM22.4279 19.8654L20.9434 19.6506L20.9433 19.6508L22.4279 19.8654ZM22.3678 16.4355L20.87 16.5179L20.8701 16.5185L22.3678 16.4355ZM20.896 16.4355L19.3983 16.5183L19.3983 16.5189L20.896 16.4355ZM21.0297 19.0852L22.5287 19.141L22.5287 19.1406L21.0297 19.0852ZM20.2198 21.069L19.759 19.6415C19.7057 19.6587 19.5972 19.6794 19.3699 19.6887C19.2586 19.6933 19.1463 19.6946 19.0027 19.6967C18.869 19.6987 18.7068 19.7014 18.5423 19.7111L18.6299 21.2085L18.7175 22.7059C18.8094 22.7006 18.9122 22.6984 19.0473 22.6964C19.1725 22.6945 19.3327 22.6928 19.493 22.6862C19.8087 22.6732 20.2387 22.6391 20.6806 22.4965L20.2198 21.069ZM18.6299 21.2085L18.541 19.7111C17.6381 19.7647 16.6439 19.8284 15.6352 20.0299L15.9291 21.5008L16.2229 22.9717C17.0024 22.816 17.8033 22.7602 18.7188 22.7059L18.6299 21.2085ZM15.9291 21.5008L15.6356 20.0298C14.6579 20.2248 14.2367 21.0856 14.2504 21.761C14.2631 22.3921 14.6577 23.1898 15.5557 23.4206L15.9291 21.9678L16.3024 20.515C16.9702 20.6866 17.2411 21.2755 17.2497 21.7002C17.2592 22.1692 16.9531 22.8261 16.2225 22.9718L15.9291 21.5008ZM15.9291 21.9678L15.5579 23.4211C16.7398 23.723 17.9943 23.9173 19.2169 23.9859L19.3009 22.4883L19.3849 20.9906C18.3571 20.933 17.2949 20.7685 16.3003 20.5145L15.9291 21.9678ZM19.3009 22.4883L19.2168 23.9859C19.9152 24.0251 21.0018 24.0196 21.9653 23.497L21.2501 22.1785L20.5349 20.8599C20.3446 20.9632 19.9764 21.0239 19.3851 20.9906L19.3009 22.4883ZM21.2501 22.1785L21.9642 23.4976C23.5701 22.6283 23.8015 20.8481 23.9125 20.0799L22.4279 19.8654L20.9433 19.6508C20.8808 20.0831 20.8211 20.3776 20.7295 20.5975C20.6518 20.7839 20.5865 20.832 20.536 20.8594L21.2501 22.1785ZM22.4279 19.8654L23.9124 20.0801C24.1063 18.7401 23.9193 17.323 23.8655 16.3524L22.3678 16.4355L20.8701 16.5185C20.943 17.8342 21.0802 18.7049 20.9434 19.6506L22.4279 19.8654ZM22.3678 16.4355L23.8655 16.353C23.7839 14.8712 22.5048 14.2518 21.597 14.25C21.1231 14.2491 20.5701 14.3926 20.115 14.7871C19.6188 15.2173 19.361 15.8445 19.3983 16.5183L20.896 16.4355L22.3937 16.3526C22.4056 16.568 22.3128 16.8521 22.08 17.054C21.8883 17.2202 21.697 17.2502 21.5911 17.25C21.4817 17.2498 21.3303 17.2186 21.1779 17.0978C20.9961 16.9538 20.8818 16.7318 20.87 16.5179L22.3678 16.4355ZM20.896 16.4355L19.3983 16.5189C19.4562 17.5584 19.5602 18.2337 19.5308 19.0298L21.0297 19.0852L22.5287 19.1406C22.5646 18.1693 22.4339 17.0746 22.3937 16.352L20.896 16.4355ZM21.0297 19.0852L19.5308 19.0294C19.524 19.2126 19.5193 19.3621 19.506 19.5146C19.4929 19.6654 19.4747 19.7719 19.4552 19.8433C19.4349 19.918 19.4277 19.8999 19.4707 19.8432C19.5278 19.7678 19.6299 19.6832 19.7587 19.6416L20.2198 21.069L20.6809 22.4964C21.7652 22.1461 22.1879 21.2266 22.35 20.6309C22.5081 20.0497 22.5181 19.426 22.5287 19.141L21.0297 19.0852Z" fill="#C14400" mask="url(#path-2-inside-1_1828_1815)"/>
<path d="M3.91309 2.27734C3.80948 2.29781 3.70403 2.32217 3.59863 2.35547C2.97086 2.55386 2.62039 3.04301 2.4375 3.53027C2.42654 3.55946 2.41724 3.58944 2.40723 3.61914C2.54902 3.09249 2.79057 2.72395 3.15527 2.51074C3.37147 2.38427 3.62459 2.31233 3.91309 2.27734Z" fill="#C14400" stroke="#C14400" stroke-width="1.5"/>
<path d="M21.0508 5.47781C21.0841 6.59512 21.183 7.72253 21.4105 8.81882C21.4625 9.06838 21.8487 9.05227 21.911 8.81882C22.2598 7.49727 22.4241 6.11183 22.4906 4.74987C22.5233 4.08172 22.4856 3.37126 22.1368 2.77601C21.1117 1.0236 18.1615 1.55631 16.4842 1.64478C15.5083 1.69611 15.5022 3.1864 16.4842 3.13425C17.5607 3.07773 20.5025 2.47566 20.9287 3.82369C21.0967 4.35286 21.0352 4.93418 21.0508 5.47781Z" fill="#C14400"/>
<path d="M21.7614 11.2776C20.116 11.1632 5.02728 11.4409 4.18911 11.4569C3.3882 11.4726 2.53972 11.4463 1.76497 11.6568C1.41194 11.753 1.41141 12.228 1.76497 12.3241C3.23837 12.7243 20.0665 12.821 21.7614 12.7032C22.7451 12.634 22.7473 11.3462 21.7614 11.2776Z" fill="#C14400"/>
</svg>
