<svg width="27" height="27" viewBox="0 0 27 27" fill="none" xmlns="http://www.w3.org/2000/svg">
<path d="M21.2033 15.5822C21.171 14.9334 21.0579 13.8017 20.8723 12.1717C20.8238 11.5545 20.7996 10.8977 20.7996 10.2093V10.1618L20.6946 8.7216C20.6832 8.60976 20.6432 8.50255 20.5782 8.40988C20.5133 8.31722 20.4256 8.24209 20.3232 8.19144C20.304 8.16578 20.2824 8.14193 20.2587 8.12021L20.2264 8.08858C19.9335 7.86923 19.623 7.6734 19.298 7.50302C18.7086 7.19436 17.6994 6.75919 16.2624 6.19734C16.1078 6.12847 15.9569 6.05189 15.8103 5.96788C14.9863 5.51409 14.203 4.99259 13.469 4.40899C12.9167 4.05892 12.7101 4.15011 12.145 4.29819L7.34942 6.08653L7.34133 6.09445C7.05874 6.20525 6.82463 6.3002 6.6228 6.39515C6.07405 6.55884 6.07381 7.35676 6.07382 7.93034L6.12227 9.71869V9.73453L6.36446 13.4062V13.4615C6.37254 13.509 6.37254 13.6673 6.37254 13.8651C6.36418 14.2425 6.66678 14.8226 7.0103 14.9808C7.14758 15.0916 7.43013 15.3211 7.87415 15.693L7.89031 15.7009C7.96298 15.7563 8.04371 15.8196 8.12443 15.875L8.14059 15.8908L10.2719 17.3073L10.275 17.3079L10.2777 17.3096L10.2794 17.3121L10.28 17.3152C10.3285 17.3469 10.5141 17.4893 10.8451 17.7346L10.8855 17.7583C11.1923 17.9641 11.4264 18.1223 11.5879 18.2411L11.6444 18.2727L12.815 18.9453C12.8473 18.969 12.8958 19.0165 12.9684 19.0798V19.0878C13.0405 19.2459 13.1736 19.3696 13.3385 19.4319C13.5034 19.4941 13.6867 19.4899 13.8484 19.4201L18.6278 17.3627C19.1846 17.147 19.7533 16.962 20.3313 16.8088C20.7082 16.7089 21.2387 16.2954 21.2033 15.5822ZM12.6536 17.3468L12.3387 17.1648C12.1692 17.0461 11.9431 16.8879 11.6444 16.69C11.3053 16.4368 11.1035 16.2864 11.0389 16.2469C11.0309 16.239 11.0228 16.239 11.0147 16.2311L8.89941 14.8226C8.8429 14.7751 8.7783 14.7356 8.72178 14.6881C8.14052 14.2133 7.80145 13.9363 7.70457 13.8651C7.70457 13.6119 7.6965 13.414 7.68842 13.327L7.44622 9.66326L7.4139 8.4763C7.80949 8.777 8.11627 8.99067 8.30199 9.10141L12.4759 11.7285C12.4959 11.7945 12.5229 11.8582 12.5566 11.9185C12.5566 11.9343 12.5647 11.9422 12.5647 11.966C12.5243 12.7098 12.5163 13.3824 12.5405 13.9759V13.9996C12.5889 14.7039 12.6293 15.6376 12.6535 16.8009C12.6616 16.9907 12.6536 17.1648 12.6536 17.3468ZM13.5497 10.5812C13.4603 10.6183 13.3686 10.65 13.2752 10.6761C13.2671 10.6761 13.2591 10.6682 13.2429 10.6603L9.01252 8.00944L9.00444 8.00152C8.81872 7.8828 8.46349 7.62958 7.96295 7.24977L12.7101 5.47725C13.4765 6.07964 14.2919 6.61952 15.1482 7.0915V7.09942C15.3353 7.20698 15.5295 7.30215 15.7295 7.38428L15.7457 7.40012C16.9405 7.86696 17.8044 8.23098 18.3857 8.50792C16.2381 9.39422 14.6261 10.0853 13.5497 10.5812ZM18.1111 16.1599L18.1031 16.1678L13.9615 17.9482C13.9776 17.5921 13.9938 17.2044 13.9857 16.7771C13.9534 15.598 13.913 14.6405 13.8646 13.9205C13.8404 13.3586 13.8485 12.7177 13.8888 12.0055V11.958C13.8888 11.9185 13.8807 11.8868 13.8807 11.8473C13.9453 11.8235 13.9938 11.8077 14.0664 11.776L14.0987 11.7602C15.1563 11.2696 16.7791 10.5812 18.9508 9.68698L19.419 9.54453L19.4756 10.2488C19.4756 10.953 19.4998 11.6335 19.5482 12.2745V12.2983C19.7339 13.9204 19.8469 15.0124 19.8792 15.5822C19.2796 15.7433 18.6894 15.9361 18.1111 16.1599Z" fill="#C14400"/>
<path d="M6.79279 12.1826C6.02063 12.743 5.33878 13.3986 4.78758 14.1463L4.78514 14.1496C4.40047 14.6439 4.11344 15.1813 4.17641 15.7422C4.25077 16.2994 4.54959 16.8102 4.94301 17.2803C5.55041 17.9643 6.32435 18.4386 7.1769 18.8135C6.95901 18.3512 6.78244 17.8694 6.62107 17.4162L6.61945 17.4105C6.51085 17.0637 6.59367 16.714 6.79441 16.4461L6.79767 16.4421C6.86605 16.3568 6.98987 16.2508 7.12645 16.2061C7.19694 16.183 7.28882 16.1709 7.38035 16.2077C7.45247 16.2367 7.5065 16.2893 7.54474 16.355L7.57811 16.4242L7.57973 16.4282C8.01203 17.6737 8.54169 18.9803 9.75014 19.6639L9.75177 19.6647C9.93369 19.7706 9.99777 19.9492 10.0089 20.1082C10.0197 20.264 9.98331 20.422 9.94464 20.5363L9.92592 20.5916C9.91959 20.6103 9.91197 20.6314 9.90477 20.6527C9.88397 20.8088 9.828 20.9736 9.74201 21.1084C9.65416 21.2459 9.51792 21.3792 9.33429 21.4079L9.33185 21.4087C8.51986 21.5234 7.70279 21.6294 6.88719 21.735L6.87742 21.7358C6.06488 21.8411 5.25302 21.9467 4.4466 22.0605L4.44578 22.0597C4.35453 22.0733 4.2644 22.0594 4.18781 22.0085C4.11307 21.9587 4.06798 21.885 4.04132 21.8132C3.98967 21.6736 3.99378 21.499 4.02342 21.3411C4.05378 21.1798 4.11547 21.0106 4.20408 20.874C4.28931 20.7429 4.42019 20.6109 4.59796 20.5868C5.06117 20.5211 5.52237 20.4613 5.98224 20.402L6.03595 20.3955C6.29773 20.3618 6.55887 20.3252 6.82046 20.2905C5.42783 19.7064 4.09931 18.8374 3.49363 17.4626C2.74533 15.8131 3.42744 14.2067 4.42625 12.9517L4.6297 12.7051C5.11335 12.1386 5.65862 11.6236 6.25242 11.1621L6.79279 12.1826Z" fill="#C14400"/>
<path d="M19.6859 8.84448C20.7342 9.11944 21.7677 9.50208 22.688 10.0375C24.1324 10.878 25.3174 12.1051 25.6275 13.7118V13.7135C25.9636 15.5486 24.949 17.1497 23.5848 18.2431L23.5856 18.2439C21.3183 20.1134 18.2065 20.9882 15.1196 20.6731H15.1156C14.9802 20.6559 14.8936 20.5705 14.8478 20.4729C14.8061 20.3839 14.7958 20.2817 14.7957 20.1962C14.7958 20.0242 14.8378 19.8465 14.86 19.7804C14.8987 19.6661 14.966 19.5184 15.0692 19.4011C15.1747 19.2814 15.3338 19.1777 15.5428 19.2042C15.8787 19.2318 16.2067 19.2585 16.543 19.2603C19.1636 19.2655 21.8486 18.3605 23.641 16.648L23.8119 16.4796C24.0519 16.2237 24.259 15.9636 24.4108 15.6902C24.447 15.6251 24.4775 15.5571 24.5052 15.4859L24.5817 15.2711C24.5821 15.2689 24.5832 15.2643 24.5842 15.2581C24.5861 15.2443 24.5879 15.2286 24.5907 15.2076C24.5932 15.1883 24.5966 15.1651 24.6004 15.1433C24.6026 15.131 24.6057 15.1165 24.6094 15.1018L24.6159 15.0017C24.628 14.4378 24.4651 13.8641 24.1594 13.3489L24.1585 13.3481C23.4282 12.103 22.0497 11.2932 20.6372 10.7577C20.3835 10.6615 20.1269 10.5735 19.869 10.4908L19.6859 8.84448Z" fill="#C14400"/>
</svg>
