<svg width="32" height="32" viewBox="0 0 32 32" fill="none" xmlns="http://www.w3.org/2000/svg">
<path d="M25.3203 6.06348C25.5431 7.8922 25.1387 9.70735 24.5928 11.1865C24.1951 12.2639 23.7052 13.203 23.2803 13.8945C23.3337 13.9658 23.3875 14.0372 23.4385 14.1104C23.7153 14.5016 23.9554 14.9163 24.1592 15.3545L24.167 15.3701L24.3369 15.7715L24.3477 15.7959C24.5369 16.2942 24.8135 17.0527 25.0283 17.708C25.0496 17.7729 25.0685 17.8383 25.0889 17.9023L25.165 17.9072H25.1836C25.2145 17.9092 25.2475 17.9102 25.2803 17.9102C26.1202 18.5442 26.6932 19.493 27 20.7549L26.9814 20.8018C26.4431 20.3136 25.8442 19.981 25.1855 19.8057C25.1628 19.8374 25.1369 19.8684 25.1084 19.8994C25.73 20.433 26.0174 21.1485 25.9678 22.0469C25.5461 21.6944 25.1648 21.5416 24.8252 21.5869C23.5102 21.9653 22.4138 22.4525 21.5371 23.0488C21.4933 23.0785 21.4491 23.1099 21.4053 23.1416L21.2129 23.2832C21.151 23.3311 21.0905 23.3803 21.0322 23.4297L20.9033 23.5342L20.291 24.0078C20.1038 24.1559 19.9338 24.2941 19.7812 24.4219C19.4799 24.6755 19.1216 25.0031 18.707 25.4033C18.2943 25.8015 17.7941 26.1881 17.208 26.5645C17.0894 26.6397 16.9804 26.7062 16.8818 26.7637C16.8583 26.7774 16.8351 26.7919 16.8115 26.8057L16.7979 26.8105C16.3358 27.0641 15.8482 27.0631 15.3369 26.8057L15.2988 26.7842C15.2863 26.7784 15.2732 26.7744 15.2607 26.7705C15.1495 26.7092 15.0289 26.6396 14.8994 26.5645C14.2438 26.188 13.7088 25.8015 13.2979 25.4033C12.8834 25.0033 12.5259 24.6754 12.2246 24.4219C12.0721 24.2941 11.902 24.1559 11.7148 24.0078L11.1016 23.5342C10.9044 23.3659 10.6932 23.2033 10.4688 23.0488C9.59227 22.4527 8.49621 21.9653 7.18164 21.5869C6.84208 21.5414 6.46073 21.6946 6.03906 22.0469C5.98439 21.0585 6.3339 20.2899 7.08984 19.7432C6.14425 19.9313 5.45641 20.285 5.02539 20.8018L5 20.7549C5.30863 19.493 5.88487 18.5442 6.72852 17.9102H6.80176C6.8054 17.9082 6.81319 17.9072 6.82227 17.9072H6.83105C6.87797 17.7584 6.9288 17.6059 6.98242 17.4561C7.20377 16.8377 7.48733 16.1683 7.68164 15.7393C7.7327 15.6091 7.78617 15.4803 7.8457 15.3545C8.04935 14.9166 8.28985 14.5014 8.56641 14.1104C8.61636 14.0386 8.66838 13.9683 8.7207 13.8984C8.29534 13.2065 7.80557 12.2657 7.40723 11.1865C6.86134 9.70735 6.45689 7.8922 6.67969 6.06348L6.80957 5L7.85156 5.22852C9.39952 5.56896 11.065 6.66977 12.4004 7.75391C13.557 8.69297 14.5756 9.71232 15.1934 10.4434C15.4588 10.4217 15.7291 10.4102 16.0029 10.4102C16.2741 10.4102 16.5411 10.4219 16.8037 10.4434C17.4213 9.71222 18.4422 8.69359 19.5996 7.75391C20.935 6.66977 22.6005 5.56896 24.1484 5.22852L25.1904 5L25.3203 6.06348ZM18 23.5C16.5 24 15.5 24 14 23.5C14.5 24.6667 16.5 26 18 23.5ZM8.5 20.5C10.3332 22.1665 11.1339 22.0001 13.1338 23.5C12.3338 21.1002 9.66675 19.1668 8.5 19V20.5ZM23.5 19C22.3332 19.1668 19.6662 21.1002 18.8662 23.5C20.8661 22.0001 21.6668 22.1665 23.5 20.5V19ZM16 20.5C15.0335 20.5 14.25 21.0596 14.25 21.75C14.25 22.4404 15.0335 23 16 23C16.9665 23 17.75 22.4404 17.75 21.75C17.75 21.0596 16.9665 20.5 16 20.5ZM16.0029 12.3623C15.4808 12.3623 14.9916 12.4102 14.5342 12.5029L14.0869 12.6104C13.5778 12.7526 13.1053 12.9296 12.6689 13.1406L12.6611 13.1445C12.4218 13.2579 12.1955 13.3828 11.9824 13.5176C11.9316 13.5507 11.8811 13.5832 11.832 13.6162L11.8291 13.6191C11.4652 13.8623 11.1391 14.1273 10.8496 14.4131L10.8467 14.416C10.5899 14.6672 10.3602 14.9389 10.1572 15.2305L10.1523 15.2363C9.94299 15.5317 9.76097 15.8473 9.60547 16.1816L9.60156 16.1885C9.55458 16.2874 9.51134 16.3892 9.47168 16.4932C9.46465 16.5116 9.45637 16.5299 9.44824 16.5479C9.27495 16.9305 9.02705 17.5177 8.83203 18.0547L8.99512 18.0898C9.24302 18.1511 9.48513 18.2311 9.7207 18.3291C10.0292 18.4598 10.3289 18.6138 10.6191 18.79C10.9094 18.9723 11.1921 19.169 11.4678 19.3789L11.8721 19.6992C12.0037 19.8103 12.1326 19.9259 12.2578 20.0449L12.5635 20.3418C12.6643 20.4437 12.7647 20.5493 12.8633 20.6572C12.9476 20.7515 13.0282 20.8488 13.1094 20.9453C13.1771 20.8535 13.2522 20.7579 13.3369 20.6631C13.8737 20.062 14.7201 19.5187 16.0029 19.5186C17.2362 19.5187 18.0698 19.9665 18.6211 20.5059C18.7496 20.6317 18.8576 20.7586 18.9492 20.877L19.1396 20.6572C19.3349 20.4414 19.5382 20.237 19.748 20.0449C19.8732 19.926 20.0013 19.8102 20.1328 19.6992L20.5371 19.3789C20.8147 19.1689 21.0982 18.9723 21.3867 18.79C21.6751 18.6138 21.9749 18.4598 22.2852 18.3291C22.5179 18.2311 22.7578 18.1511 23.0049 18.0898L23.0986 18.0684C22.9111 17.5137 22.693 16.9103 22.5342 16.4922C22.4884 16.3814 22.4405 16.2727 22.3936 16.167C22.2397 15.8385 22.0596 15.527 21.8535 15.2363L21.8486 15.2305C21.6457 14.9389 21.4159 14.6672 21.1592 14.416L21.1562 14.4131C20.8666 14.1272 20.5399 13.8624 20.1758 13.6191C20.1292 13.5889 20.0832 13.5591 20.0391 13.5322C20.0313 13.5275 20.0222 13.5225 20.0146 13.5176C19.8042 13.3814 19.5817 13.2563 19.3457 13.1445L19.3379 13.1406C18.9022 12.9299 18.428 12.7537 17.915 12.6113L17.9121 12.6104C17.3344 12.4477 16.699 12.3623 16.0029 12.3623ZM12.7646 15.29C13.1183 15.29 13.423 15.4172 13.6787 15.6719C13.932 15.9265 14.0586 16.2328 14.0586 16.5908C14.0586 16.9488 13.932 17.2551 13.6787 17.5098C13.423 17.7645 13.1183 17.8926 12.7646 17.8926C12.4086 17.8926 12.1039 17.7645 11.8506 17.5098C11.5973 17.2551 11.4707 16.9488 11.4707 16.5908C11.4707 16.2328 11.5973 15.9265 11.8506 15.6719C12.1039 15.4172 12.4086 15.2901 12.7646 15.29ZM19.2354 15.29C19.589 15.2901 19.8937 15.4172 20.1494 15.6719C20.4027 15.9265 20.5293 16.2328 20.5293 16.5908C20.5293 16.9488 20.4027 17.2551 20.1494 17.5098C19.8937 17.7645 19.589 17.8926 19.2354 17.8926C18.8793 17.8926 18.5746 17.7645 18.3213 17.5098C18.068 17.2551 17.9414 16.9488 17.9414 16.5908C17.9414 16.2328 18.068 15.9265 18.3213 15.6719C18.5746 15.4172 18.8793 15.29 19.2354 15.29ZM8.57617 7.55273C8.63518 8.56531 8.88493 9.5806 9.22754 10.5088C9.50284 11.2545 9.82791 11.9191 10.127 12.4521C10.327 12.2916 10.5365 12.1394 10.7539 11.9941L10.9375 11.873L10.9473 11.8652C11.2292 11.6868 11.5248 11.5249 11.833 11.3789C12.2007 11.2014 12.5847 11.0462 12.9824 10.9111C12.4877 10.4072 11.8674 9.82826 11.1816 9.27148C10.3129 8.56615 9.40558 7.95274 8.57617 7.55273ZM23.4238 7.55273C22.5944 7.95274 21.6871 8.56615 20.8184 9.27148C20.1323 9.82849 19.5115 10.4071 19.0166 10.9111C19.4167 11.0467 19.8022 11.2019 20.1709 11.3799L20.1719 11.3789C20.4752 11.5226 20.7661 11.6848 21.0439 11.8633L21.25 11.9922C21.4668 12.137 21.6745 12.2902 21.874 12.4502C22.1727 11.9176 22.4975 11.2535 22.7725 10.5088C23.1151 9.5806 23.3648 8.56531 23.4238 7.55273Z" fill="#C14400"/>
</svg>
