<svg width="43" height="40" viewBox="0 0 43 40" fill="none" xmlns="http://www.w3.org/2000/svg">
<path d="M41.326 12.5999C39.6661 4.90089 33.7261 0 22.8517 0C14.8073 0.812279 0.497327 11.3107 0.058118 15.948C-1.14699 28.6721 16.6806 42.7448 26.5867 39.5374C45.0837 33.5483 42.798 19.4275 41.326 12.5999Z" fill="#FCEFE1"/>
<path d="M25.5432 10.5947C26.1313 10.5947 26.5818 10.7934 26.9045 11.1182C27.2166 11.4322 27.3798 11.834 27.466 12.1982C27.5528 12.565 27.5688 12.9247 27.5647 13.1865C27.5647 13.1882 27.5637 13.1898 27.5637 13.1914C28.6269 13.2209 29.1781 13.2432 29.4778 13.2686C29.6411 13.2824 29.7627 13.2982 29.8596 13.3291C29.9162 13.3472 29.9617 13.369 30.0012 13.3926C30.0175 13.4023 30.0323 13.412 30.0383 13.416C30.0437 13.4196 30.0459 13.4211 30.0471 13.4219H30.0481C30.1817 13.5018 30.3293 13.6108 30.4397 13.8145C30.5382 13.9965 30.59 14.2238 30.6252 14.5068C30.6957 15.0739 30.7187 16.0578 30.7502 17.832C30.8089 21.1187 30.8619 28.5301 30.8293 29.0762C30.8185 29.2578 30.8077 29.4104 30.7756 29.5352C30.7351 29.6927 30.6646 29.7929 30.593 29.8828L30.594 29.8838C30.5261 29.9695 30.4357 30.071 30.2844 30.1387C30.1598 30.1943 30.0169 30.2151 29.885 30.2324L29.884 30.2314C29.8358 30.2376 29.7389 30.242 29.636 30.2451C29.5182 30.2487 29.3563 30.2519 29.1565 30.2559C28.7563 30.2638 28.1986 30.2723 27.5256 30.2812C26.1796 30.2991 24.3676 30.3185 22.4143 30.334C18.5067 30.3649 14.9476 30.3956 14.5032 30.4023C14.0502 30.4092 13.2677 30.4023 12.76 30.3867L11.4504 30.3467L11.5452 30.2852C11.483 30.2745 11.4236 30.2657 11.3684 30.2529C11.0483 30.1789 10.7345 30.0441 10.5803 29.7402C10.5465 29.6735 10.5137 29.5985 10.4944 29.4697C10.4788 29.3661 10.4717 29.2261 10.468 29.0195C10.4604 28.5994 10.4659 27.816 10.4778 26.29C10.5175 21.1048 10.6237 17.5355 10.8098 15.1426C10.8362 14.8048 10.8613 14.5305 10.8918 14.3115C10.9218 14.0969 10.9609 13.9065 11.0276 13.748C11.1 13.5761 11.2084 13.4337 11.3713 13.334C11.5179 13.2444 11.6802 13.208 11.8137 13.1846C11.9296 13.1643 12.1323 13.1516 12.4319 13.1416C12.7056 13.1324 13.082 13.1268 13.5881 13.1201C13.5884 13.1154 13.5898 13.1105 13.5901 13.1055C13.595 12.9991 13.5937 12.8764 13.594 12.7197C13.5942 12.57 13.5961 12.399 13.6106 12.2246C13.6387 11.8855 13.7177 11.4731 13.9778 11.1426C14.2561 10.7889 14.687 10.5947 15.2717 10.5947C15.8547 10.5948 16.2924 10.7846 16.592 11.1152C16.8783 11.4313 16.9969 11.8308 17.05 12.1748C17.1003 12.5005 17.0973 12.8242 17.0979 13.042C17.3435 13.0399 17.6834 13.0397 18.0715 13.043C18.7449 13.0487 19.5981 13.0608 20.4485 13.0732C21.7819 13.0928 23.0899 13.1094 23.7102 13.1133C23.7046 12.8788 23.6991 12.54 23.7522 12.1953C23.8063 11.8435 23.9283 11.44 24.217 11.1211C24.5189 10.7877 24.9585 10.5947 25.5432 10.5947ZM12.0276 14.4854C12.1614 15.7784 12.2127 18.5918 12.1985 23.8779L12.1858 28.4727C12.2275 28.4713 12.2738 28.4702 12.3244 28.4688C12.5424 28.4626 12.845 28.4557 13.2092 28.4482C13.9383 28.4332 14.9187 28.4158 15.9739 28.4004C18.0843 28.3705 21.9842 28.3289 24.6409 28.3086L29.0676 28.2754L29.0578 23.6562C29.0517 20.8947 29.0625 17.7541 29.0832 16.6787L29.1077 15.3027C29.1087 15.2404 29.1088 15.1823 29.1096 15.1289C28.952 15.1257 28.7523 15.1217 28.5188 15.1172C27.9076 15.1054 27.0651 15.0901 26.1389 15.0732C22.8235 15.0138 19.4746 14.91 16.8362 14.7949C15.5173 14.7374 14.3737 14.6768 13.5002 14.6172C12.8707 14.5742 12.3614 14.5298 12.0276 14.4854ZM24.5334 16.915L24.5325 16.916C24.6344 16.9197 24.7277 16.9364 24.8078 16.958L25.0217 17.0264L25.0481 17.0342L25.0725 17.0459C25.2244 17.1164 25.3964 17.24 25.4729 17.4531C25.5512 17.6714 25.4918 17.878 25.4104 18.0293L25.4016 18.0449L25.3918 18.0605C24.7131 19.0877 24.0984 20.1473 23.4534 21.2207C22.8129 22.2865 22.1452 23.3584 21.3733 24.3867L21.3743 24.3877C21.1999 24.6305 20.9609 25.0107 20.6741 25.2822L20.675 25.2832C20.3481 25.6171 19.922 25.7838 19.5032 25.6963C19.079 25.6076 18.7645 25.2792 18.6282 24.8359V24.835C18.4223 24.21 18.3033 23.4853 18.1653 22.9297L18.1623 22.917L18.1594 22.9033C18.1144 22.6528 18.0265 22.4108 17.9172 22.0557V22.0547C17.8916 21.9815 17.865 21.8952 17.8557 21.8076C17.845 21.7059 17.8529 21.5596 17.9504 21.4238C18.0415 21.297 18.1677 21.2416 18.2473 21.2148C18.3218 21.1898 18.4036 21.1748 18.4768 21.1631L18.6633 21.1318C18.856 21.1087 19.0634 21.1179 19.2532 21.2256C19.4982 21.3647 19.6138 21.6134 19.6926 21.8291H19.6936C19.83 22.1584 19.9239 22.472 20.008 22.7783C20.0289 22.8542 20.0479 22.929 20.0676 23.0029C21.2288 21.3148 22.3779 19.5961 23.3254 17.79C23.3911 17.6463 23.4932 17.4113 23.6604 17.2314C23.8653 17.0112 24.153 16.8797 24.5334 16.915ZM11.7776 14.252H11.7785L11.7952 14.1787V14.1777L11.7776 14.252Z" fill="#C14400" stroke="#C14400" stroke-width="0.809722"/>
</svg>
