<svg width="43" height="40" viewBox="0 0 43 40" fill="none" xmlns="http://www.w3.org/2000/svg">
<path d="M41.326 12.5999C39.6661 4.90089 33.7261 0 22.8517 0C14.8073 0.812279 0.497312 11.3107 0.0581027 15.948C-1.14701 28.6721 16.6806 42.7448 26.5866 39.5374C45.0837 33.5483 42.798 19.4275 41.326 12.5999Z" fill="#FCEFE1"/>
<path d="M21.3132 12.013C20.5207 12.13 19.8088 12.8734 19.6917 13.7053C19.5577 14.6601 20.1872 15.6532 21.0951 15.9183C21.2801 15.9729 21.4735 15.9998 21.6738 15.9998C21.7646 15.9998 21.8579 15.9946 21.9512 15.9824C22.3661 15.9322 22.7369 15.7736 23.022 15.5258C23.3606 15.232 23.5667 14.8204 23.5854 14.395C23.6049 13.9435 23.4115 13.5415 23.2638 13.2772C22.8922 12.6169 22.1583 11.8925 21.3132 12.013Z" fill="#FEFAC4"/>
<path d="M22.4045 27.6586C23.4396 23.5938 26.9827 21.1069 28.5655 17.3434C29.9674 14.0085 29.3295 10.2503 26.6405 7.9284C21.1285 3.17017 11.3904 8.976 13.3529 16.7896C13.8655 18.8294 15.0788 20.5668 16.3571 22.1176C17.7743 23.8364 19.343 25.4728 20.8874 27.0699C20.8757 27.1113 20.8628 27.1515 20.8517 27.1929C20.5608 28.2757 22.1273 28.7447 22.4045 27.6586ZM15.7009 18.6911C14.0494 15.7081 14.364 12.3184 16.7383 9.91042C19.0242 7.59312 22.8079 6.91015 25.463 8.88663C26.6714 9.78551 27.597 11.2098 27.8649 12.7864C28.1579 14.5121 27.5619 16.229 26.7461 17.6826C25.0619 20.6826 22.4153 22.9235 21.1768 26.1896C19.3841 23.6714 17.2071 21.4115 15.7009 18.6911Z" fill="#C14400"/>
<path d="M8.78093 29.0643C8.92272 32.6957 13.7354 34.1148 16.3785 34.567C19.6776 35.132 23.2345 34.9485 26.4995 34.1848C28.596 33.695 31.1487 32.5136 32.092 30.2751C32.6097 29.0476 32.7389 27.4566 32.0643 26.2711C31.1289 24.6272 28.6187 23.9663 26.9624 23.8642C25.6362 23.7829 25.3379 26.0815 26.6467 26.3899C27.7538 26.6502 30.2797 26.4893 30.6399 27.9922C30.9093 29.1155 30.2104 30.1214 29.4146 30.7406C27.4176 32.2957 24.7616 32.5365 22.3951 32.7093C19.0024 32.9576 15.4094 32.668 12.3412 30.938C11.719 30.5873 10.9455 30.1337 10.6944 29.3676C10.425 28.5465 10.8686 27.6913 11.3787 27.1062C12.4317 25.8988 14.0476 25.6433 15.2383 24.6794C15.375 24.5688 15.3725 24.328 15.1891 24.2706C12.5139 23.442 8.65491 25.8195 8.78093 29.0643Z" fill="#C14400"/>
</svg>
