<svg width="374" height="812" viewBox="0 0 374 812" fill="none" xmlns="http://www.w3.org/2000/svg">
<path fill-rule="evenodd" clip-rule="evenodd" d="M1116 374L192.653 334.015L1116 294.031V374ZM1116 710.164V628.961L192.323 335.957L1093.33 710.179H1116V710.164ZM1116 540.049V457.581L192.563 334.994L1116 540.049ZM1113.02 210.825C1109.9 183.848 1104.33 157.593 1096.6 132.271L192.563 333.021L1113.02 210.825ZM1064.94 55.253C1052.43 31.4219 1037.83 8.81018 1021.4 -12.266L192.308 332.073L1064.94 55.253ZM964.247 -73.1007C944.129 -90.9101 922.433 -106.928 899.368 -120.898L191.887 331.2L964.247 -73.1007ZM823.74 -157.466C798.48 -166.844 772.198 -173.995 745.059 -178.632L191.315 330.387L823.74 -157.466ZM659.747 -185H584.314L190.624 329.679L659.747 -185ZM515.571 -185H456.677L189.827 329.092L515.571 -185ZM400.505 -185H350.511L188.925 328.686L400.505 -185ZM301.029 -185H255.562L187.977 328.415L301.029 -185ZM209.042 -185H164.943L187 328.34L209.042 -185ZM118.423 -185H72.9556L186.008 328.415L118.423 -185ZM23.4886 -185H-26.5045L185.076 328.686L23.4886 -185ZM-82.6771 -185H-141.586L184.173 329.092L-82.6771 -185ZM-210.314 -185H-285.747L183.376 329.679L-210.314 -185ZM-377.975 -185H-485.389L182.685 330.372L-377.975 -185ZM-599.764 -168.44V-78.0837L182.113 331.17L-599.764 -168.44ZM-719.296 -42.1339H-742V39.0544L181.677 332.058L-719.296 -42.1339ZM-742 127.951V210.449L181.437 333.021L-742 127.951ZM-742 294.031V374L181.347 334.015L-742 294.031ZM-739.023 457.175C-735.896 484.152 -730.347 510.422 -722.619 535.744L181.437 334.994L-739.023 457.175ZM-690.954 612.747C-678.445 636.623 -663.83 659.19 -647.396 680.296L181.693 335.957L-690.954 612.747ZM-590.261 741.131C-570.129 758.91 -548.433 774.928 -525.383 788.929L182.113 336.845L-590.261 741.131ZM-449.739 825.496C-424.48 834.874 -398.168 841.995 -371.059 846.647L182.685 337.658L-449.739 825.496ZM-285.747 853H-210.314L183.376 338.366L-285.747 853ZM-141.586 853H-82.6771L184.173 338.923L-141.586 853ZM-26.4894 853H23.4886L185.076 339.344L-26.4894 853ZM72.9556 853H118.423L186.008 339.585L72.9556 853ZM164.943 853H209.042L187 339.675L164.943 853ZM255.577 853H301.044L187.992 339.585L255.577 853ZM350.511 853H400.505L188.925 339.344L350.511 853ZM456.677 853H515.586L189.827 338.923L456.677 853ZM584.314 853H659.747L190.624 338.351L584.314 853ZM751.99 853H859.419L191.345 337.658L752.005 853H751.99ZM973.764 836.455V746.084L191.887 336.845L973.764 836.455Z" fill="url(#paint0_linear_1885_714)"/>
<defs>
<linearGradient id="paint0_linear_1885_714" x1="187" y1="-185" x2="187" y2="853" gradientUnits="userSpaceOnUse">
<stop stop-color="#D8D8D8" stop-opacity="0.3"/>
<stop offset="1" stop-color="#D8D8D8" stop-opacity="0"/>
</linearGradient>
</defs>
</svg>
