<?xml version="1.0" encoding="UTF-8"?>
<svg id="Layer_1" xmlns="http://www.w3.org/2000/svg" version="1.1" xmlns:xlink="http://www.w3.org/1999/xlink" viewBox="0 0 812 812">
  <!-- Generator: Adobe Illustrator 30.0.0, SVG Export Plug-In . SVG Version: 2.1.1 Build 123)  -->
  <defs>
    <style>
      .st0 {
        display: none;
        fill: url(#linear-gradient1);
      }

      .st1 {
        fill: url(#linear-gradient);
        fill-rule: evenodd;
      }
    </style>
    <linearGradient id="linear-gradient" x1="406" y1="999" x2="406" y2="-39" gradientTransform="translate(0 814) scale(1 -1)" gradientUnits="userSpaceOnUse">
      <stop offset="0" stop-color="#d8d8d8" stop-opacity=".3"/>
      <stop offset="1" stop-color="#d8d8d8" stop-opacity="0"/>
    </linearGradient>
    <linearGradient id="linear-gradient1" x1="406.4" y1="812" x2="406.4" y2="334.2" gradientTransform="translate(0 566.3) scale(1 -.7)" xlink:href="#linear-gradient"/>
  </defs>
  <path class="st1" d="M1335,374l-923.3-40,923.3-40v80ZM1335,710.2v-81.2L411.3,336l901,374.2h22.7ZM1335,540v-82.5l-923.4-122.6,923.4,205.1ZM1332,210.8c-3.1-27-8.7-53.2-16.4-78.6l-904,200.8,920.5-122.2ZM1283.9,55.3c-12.5-23.8-27.1-46.4-43.5-67.5L411.3,332.1,1283.9,55.3ZM1183.2-73.1c-20.1-17.8-41.8-33.8-64.9-47.8L410.9,331.2,1183.2-73.1ZM1042.7-157.5c-25.3-9.4-51.5-16.5-78.7-21.2L410.3,330.4l632.4-487.9ZM878.7-185h-75.4L409.6,329.7,878.7-185ZM734.6-185h-58.9L408.8,329.1,734.6-185ZM619.5-185h-50l-161.6,513.7,211.6-513.7ZM520-185h-45.5l-67.6,513.4,113.1-513.4ZM428-185h-44.1l22.1,513.3,22-513.3ZM337.4-185h-45.5l113.1,513.4-67.6-513.4ZM242.5-185h-50l211.6,513.7L242.5-185ZM136.3-185h-58.9L403.2,329.1,136.3-185ZM8.7-185h-75.4L402.4,329.7,8.7-185ZM-159-185h-107.4L401.7,330.4-159-185ZM-380.8-168.4v90.4L401.1,331.2-380.8-168.4ZM-500.3-42.1h-22.7V39.1L400.7,332.1-500.3-42.1ZM-523,128v82.5l923.4,122.6L-523,128ZM-523,294v80l923.3-40-923.3-40ZM-520,457.2c3.1,27,8.7,53.2,16.4,78.6l904.1-200.8-920.5,122.2ZM-472,612.7c12.5,23.9,27.1,46.4,43.6,67.5L400.7,336l-872.6,276.8ZM-371.3,741.1c20.1,17.8,41.8,33.8,64.9,47.8L401.1,336.8l-772.4,404.3ZM-230.7,825.5c25.3,9.4,51.6,16.5,78.7,21.2L401.7,337.7-230.7,825.5ZM-66.7,853H8.7L402.4,338.4-66.7,853ZM77.4,853h58.9L403.2,338.9,77.4,853ZM192.5,853h50l161.6-513.7-211.6,513.7ZM292,853h45.5l67.6-513.4-113.1,513.4ZM383.9,853h44.1l-22-513.3-22.1,513.3ZM474.6,853h45.5l-113.1-513.4,67.6,513.4ZM569.5,853h50l-211.6-513.7,161.6,513.7ZM675.7,853h58.9L408.8,338.9l266.9,514.1ZM803.3,853h75.4L409.6,338.4l393.7,514.6ZM971,853h107.4L410.3,337.7l560.7,515.3h0ZM1192.8,836.5v-90.4L410.9,336.8l781.9,499.6Z"/>
  <rect class="st0" x="396.6" y="2.3" width="19.6" height="331.9"/>
</svg>