<?xml version="1.0" encoding="UTF-8"?>
<svg id="Layer_1" xmlns="http://www.w3.org/2000/svg" version="1.1" xmlns:xlink="http://www.w3.org/1999/xlink" viewBox="0 0 80 80">
  <!-- Generator: Adobe Illustrator 29.8.2, SVG Export Plug-In . SVG Version: 2.1.1 Build 3)  -->
  <defs>
    <style>
      .st0 {
        stroke: #fcefe1;
        stroke-width: 4px;
      }

      .st0, .st1 {
        fill: none;
      }

      .st2 {
        fill: #fcefe1;
      }

      .st3, .st4 {
        fill: #c14400;
      }

      .st4 {
        stroke: #fff;
        stroke-width: .7px;
      }

      .st5 {
        clip-path: url(#clippath);
      }
    </style>
    <clipPath id="clippath">
      <path class="st1" d="M40,0h0c22.1,0,40,17.9,40,40s-17.9,40-40,40S0,62.1,0,40,17.9,0,40,0Z"/>
    </clipPath>
  </defs>
  <g class="st5">
    <g>
      <circle class="st0" cx="40" cy="40" r="38"/>
      <circle class="st2" cx="40" cy="40" r="34"/>
      <path class="st3" d="M38.1,29.1c5.8,0,11.6.3,14.9.5,2.3.1,4,2,4,4.3v13.3c0,2.3-1.8,4.2-4.1,4.3-4.1.2-11.8.6-17,.6s-9.8-.3-12.7-.5c-2.3-.2-4-2-4-4.3v-13.4c0-2.2,1.7-4.1,4-4.3,3.3-.2,9.1-.5,14.9-.5ZM38.1,32c-5.7,0-11.4.3-14.7.5-.7,0-1.3.6-1.3,1.4v13.4c0,.7.6,1.3,1.3,1.4,2.9.2,7.9.5,12.5.5s12.8-.4,16.8-.6c.8,0,1.4-.7,1.4-1.4v-13.3c0-.7-.6-1.4-1.3-1.4-3.2-.2-9-.5-14.7-.5Z"/>
      <path class="st3" d="M37.5,35.6c1.4-.4,2.7-.4,4.1,0h0c1.5.4,2.7,1.2,3.5,2.4.8,1.2,1.2,2.6,1.1,4.1-.1,2.9-2.1,5.2-4.9,5.9-.3,0-.8.1-1.2.2-.4,0-.8,0-1.1,0h0c-1.9-.2-3.5-1-4.7-2.3h0c-2.2-2.5-2.1-6.2.4-8.5l.3-.3c.7-.6,1.6-1.1,2.5-1.4ZM40.9,38.1c-.8-.2-1.7-.2-2.6,0h0c-.7.2-1.3.5-1.8,1h0c-1.3,1.3-1.4,3.1-.4,4.5l.2.3.3.3c.6.6,1.5,1,2.7,1.2h0s0,0,0,0c0,0,0,0,.1,0,.1,0,.3,0,.4,0,.3,0,.6,0,.8-.1h0c1.7-.4,2.8-1.7,2.8-3.4v-.4c0-.9-.3-1.5-.6-2.1-.4-.5-.9-1-1.7-1.2h-.3Z"/>
      <path class="st4" d="M50.6,35.6c.8,0,1.3,0,1.6,0,.2,0,.3,0,.4.1.1,0,.2.2.3.3.1.2.2.4.1.6,0,.2-.2.4-.4.5h0c0,0-.2,0-.3,0,0,0-.2,0-.3,0-.2,0-.5,0-.8,0-.6,0-1.3,0-1.8,0-.4,0-.8,0-1.1-.1-.2,0-.3,0-.4,0-.1,0-.2,0-.3-.1h0c-.2-.1-.4-.3-.3-.6,0-.2.2-.4.4-.5h0c.6-.2,1.5-.3,2.9-.3h0Z"/>
      <path class="st3" d="M32.7,29.1c0-.7-.6-1.3-1.3-1.3h-2.7c-.7,0-1.3.6-1.3,1.3v.7h-2.7v-.7c0-2.2,1.8-4,4-4h2.7c2.2,0,4,1.8,4,4v.7h-2.7v-.7Z"/>
    </g>
  </g>
</svg>