<svg width="91" height="90" viewBox="0 0 91 90" fill="none" xmlns="http://www.w3.org/2000/svg">
<path d="M49.4298 30.4527C49.9976 30.3318 50.54 30.2306 51.0572 30.1491C51.6138 30.0563 52.1647 29.9734 52.71 29.9003C52.9123 29.8694 53.1161 29.8399 53.3213 29.8118C56.8826 33.4911 59.0216 37.8506 59.7384 42.8904C62.9932 42.9466 65.6396 43.9318 67.6774 45.8459C64.0234 44.2016 60.9835 43.4891 58.5578 43.7083C58.1671 43.7589 57.7975 43.8531 57.449 43.9908C56.4764 44.3928 55.8454 45.1938 55.5559 46.394C54.5159 50.7142 55.674 53.5925 59.03 55.0288C59.1425 55.0794 59.2577 55.1272 59.3758 55.1721C59.4769 55.2087 59.5767 55.2438 59.6751 55.2775C59.9731 55.3394 60.2302 55.3267 60.4467 55.2396L67.9262 51.4619C67.1588 52.0718 66.3887 52.6579 65.6157 53.22C63.8337 55.0105 61.8197 56.6942 59.5739 58.271C59.276 58.3497 58.9288 58.4074 58.5325 58.4439L58.1488 59.3082C61.1761 59.0412 64.327 58.5549 67.6015 57.8494C68.5291 57.6583 69.4384 57.4404 70.3294 57.1959C71.6139 56.8446 72.8605 56.4412 74.0692 55.9859C69.1531 47.5535 68.9437 39.1689 73.441 30.8321C71.8922 30.3374 70.2465 29.9565 68.5038 29.6895C65.9432 24.3659 61.3194 22.4293 54.6326 23.8796C51.5491 24.928 49.063 26.7087 47.1741 29.2215C48.4474 29.7471 49.1993 30.1575 49.4298 30.4527ZM20.3128 40.6643C19.8069 40.6024 19.3037 40.5012 18.8034 40.3607C17.1226 40.0093 15.3518 39.308 13.491 38.2568C11.5432 37.155 9.58263 36.4073 7.60945 36.0138C5.72341 36.0082 4.44872 36.5689 3.78537 37.6961C0.67102 43.624 1.20226 50.1015 5.37909 57.1284C5.96936 57.9661 7.42113 58.1094 9.73441 57.5585C11.5361 56.6703 13.3407 55.6303 15.148 54.4385C16.871 53.3086 18.6095 52.2939 20.3634 51.3944C20.4815 51.3326 20.6009 51.275 20.7218 51.2216C21.4273 47.6041 21.291 44.085 20.3128 40.6643ZM30.6256 30.5412C27.9244 30.8082 25.562 32.4483 23.5382 35.4615C23.3639 35.8297 23.5663 36.3764 24.1453 37.1016C24.7244 37.8211 25.4762 38.4606 26.401 39.0199C26.6568 39.0818 26.9154 39.1267 27.1768 39.1549L26.7467 39.3614C30.0859 42.903 30.5961 47.1544 28.2772 52.1154C28.3756 52.166 28.4753 52.2152 28.5765 52.263C29.4704 52.7071 30.3459 53.1947 31.2032 53.726C32.7351 54.662 34.3485 55.4406 36.0434 56.0618C38.3173 57.2507 40.8161 58.1347 43.5398 58.7137C43.7309 58.7559 43.922 58.7952 44.1132 58.8318C44.6444 58.9358 45.1827 59.0285 45.728 59.1101C49.6546 49.5196 48.3083 40.7022 41.6889 32.6577C41.5034 32.43 41.3052 32.2164 41.0944 32.0169C37.862 30.6424 34.3724 30.1505 30.6256 30.5412ZM89.5679 45.1882C89.8799 44.9493 89.8686 44.7005 89.5341 44.4419C88.2946 45.3217 86.906 45.5761 85.3685 45.2051C86.7992 45.4328 88.0964 45.0955 89.2601 44.1932C89.4906 44.0105 89.7154 43.8081 89.9347 43.5861C90.0836 42.9902 89.9782 42.4828 89.6185 42.064C86.4226 38.5421 82.7222 35.6048 78.5172 33.2522C75.7008 40.2623 75.4212 47.3104 77.6782 54.3964C81.99 52.4569 85.592 49.7164 88.4843 46.1748C88.8919 45.9893 89.2531 45.6604 89.5679 45.1882ZM79.9297 39.4795C80.3457 39.4795 80.704 39.6285 81.0048 39.9264C81.3027 40.2244 81.4517 40.5827 81.4517 41.0015C81.4517 41.4204 81.3027 41.7787 81.0048 42.0767C80.704 42.3746 80.3457 42.5236 79.9297 42.5236C79.5108 42.5236 79.1525 42.3746 78.8545 42.0767C78.5566 41.7787 78.4076 41.4204 78.4076 41.0015C78.4076 40.5827 78.5566 40.2244 78.8545 39.9264C79.1525 39.6285 79.5108 39.4795 79.9297 39.4795Z" fill="#F46E02"/>
<path d="M51.4999 23.6814C49.8978 24.5049 48.6287 25.5477 47.6927 26.8098C46.7483 28.0746 46.5754 28.8785 47.1741 29.2214C49.063 26.7086 51.5491 24.928 54.6326 23.8795C61.3194 22.4292 65.9432 24.3658 68.5038 29.6894C68.0963 26.5357 65.9966 24.2112 62.2048 22.7159C59.1298 21.5072 55.5615 21.8291 51.4999 23.6814ZM73.8415 30.9627C73.7066 30.9177 73.5731 30.8742 73.441 30.832C68.9437 39.1688 69.1531 47.5534 74.0692 55.9858C74.294 55.8986 74.5175 55.8115 74.7395 55.7244C70.1467 47.3707 69.971 39.1702 74.2125 31.1229C74.0889 31.0695 73.9652 31.0161 73.8415 30.9627ZM53.3213 29.8117C53.1161 29.8398 52.9124 29.8693 52.71 29.9002C55.9902 33.9225 57.8102 38.2623 58.1699 42.9198C57.7624 42.9507 57.3506 43.0027 56.9346 43.0758C55.9508 43.2417 55.1975 43.8586 54.6747 44.9267C53.7556 46.8071 53.6109 49.0642 54.2405 51.6979C54.6452 53.4181 55.4294 54.7785 56.5931 55.7792C56.891 56.0378 57.2157 56.2725 57.567 56.4833C57.8903 56.6772 58.2374 56.8515 58.6084 57.0061C58.7658 57.0707 58.9289 57.1017 59.0975 57.0988C59.3167 57.0904 59.5486 57.0215 59.7932 56.8923C61.7551 55.8242 63.696 54.6001 65.6157 53.22C66.3887 52.6578 67.1589 52.0717 67.9262 51.4618L60.4467 55.2395C60.2303 55.3266 59.9731 55.3393 59.6751 55.2775C59.5768 55.2437 59.477 55.2086 59.3758 55.172C59.2577 55.1271 59.1425 55.0793 59.0301 55.0287C55.674 53.5924 54.5159 50.7141 55.5559 46.394C55.8454 45.1937 56.4765 44.3927 57.449 43.9907C57.7975 43.853 58.1671 43.7588 58.5578 43.7082C60.9836 43.489 64.0234 44.2015 67.6774 45.8458C65.6396 43.9317 62.9933 42.9465 59.7384 42.8903C59.0216 37.8506 56.8826 33.491 53.3213 29.8117ZM7.60948 36.0137C6.61727 35.8141 5.62506 35.7045 4.63285 35.6848C3.6547 35.7551 2.84238 36.0699 2.1959 36.6293C0.155266 39.8532 -0.463108 43.6605 0.340778 48.0509C1.14466 52.4414 2.6906 56.0054 4.97858 58.7432C5.54636 59.1086 6.27576 59.1029 7.16678 58.7263C8.02126 58.3693 8.87714 57.98 9.73443 57.5584C7.42115 58.1093 5.96938 57.966 5.37912 57.1284C1.20228 50.1014 0.671046 43.6239 3.7854 37.696C4.44875 36.5688 5.72344 36.0081 7.60948 36.0137ZM57.5249 59.3587C57.7329 59.3419 57.9409 59.325 58.1489 59.3081L58.5325 58.4438C58.0688 58.292 57.65 57.9112 57.2761 57.3012L56.4245 59.4388C56.7899 59.4135 57.1567 59.3868 57.5249 59.3587ZM25.4018 54.742C25.2922 54.8038 25.2261 54.8896 25.2036 54.9992C24.9085 56.1038 25.5522 57.5781 27.1346 59.422C28.807 61.3642 31.5532 62.2932 35.373 62.2089C39.1901 62.1189 42.1035 60.9932 44.1132 58.8317C43.9221 58.7952 43.7309 58.7558 43.5398 58.7136C41.3221 60.3917 38.7615 61.2574 35.8579 61.3108C32.8419 61.3642 30.5371 60.7585 28.9434 59.4936C27.3468 58.2316 26.4572 57.1452 26.2745 56.2345C26.0946 55.3238 26.2675 54.5495 26.7931 53.9114C26.3462 54.2346 25.8824 54.5115 25.4018 54.742ZM20.9073 40.7148C20.7106 40.7035 20.5124 40.6866 20.3128 40.6642C21.291 44.0849 21.4273 47.604 20.7218 51.2215C20.9017 51.1372 21.0816 51.0627 21.2615 50.998C22.5291 47.5773 22.4111 44.1495 20.9073 40.7148ZM26.7467 39.3614C26.6399 39.4148 26.5331 39.4682 26.4263 39.5216C29.2202 43.2121 29.7318 47.3609 27.961 51.9677C28.0678 52.0155 28.1732 52.0647 28.2772 52.1153C30.5961 47.1543 30.086 42.903 26.7467 39.3614ZM42.2876 32.4595C42.088 32.5213 41.8885 32.5874 41.6889 32.6576C48.3083 40.7021 49.6547 49.5196 45.728 59.11C45.9894 59.1465 46.2522 59.1816 46.5164 59.2154C50.6258 48.0369 49.2162 39.1182 42.2876 32.4595ZM22.3619 35.3096C22.2186 35.8437 22.3141 36.2835 22.6486 36.6293C23.8882 37.8997 25.139 38.6966 26.401 39.0198C25.4763 38.4605 24.7244 37.821 24.1454 37.1015C23.5663 36.3763 23.364 35.8296 23.5382 35.4614C25.562 32.4482 27.9245 30.8081 30.6256 30.5411C34.3724 30.1504 37.862 30.6423 41.0944 32.0168C39.2309 30.2403 36.2669 29.2833 32.2025 29.1455C27.9863 29.3198 24.7061 31.3745 22.3619 35.3096ZM78.5173 33.2521C78.3655 33.1678 78.2123 33.0835 78.0577 32.9991C74.6735 40.1442 74.3756 47.3609 77.1639 54.6492C77.3381 54.5677 77.5096 54.4834 77.6782 54.3963C75.4212 47.3103 75.7008 40.2622 78.5173 33.2521Z" fill="#311831"/>
<path d="M59.7932 56.8923C59.5486 57.0216 59.3167 57.0904 59.0975 57.0989L58.5325 58.4438C58.9288 58.4073 59.276 58.3497 59.5739 58.271C61.8197 56.6941 63.8337 55.0104 65.6157 53.22C63.6959 54.6001 61.7551 55.8242 59.7932 56.8923ZM58.1488 59.3081C57.6682 60.1008 57.1637 60.878 56.6352 61.6397C56.0815 62.4464 55.8046 63.3557 55.8046 64.3676C55.8046 64.6908 55.8651 64.9452 55.9859 65.1307C56.1602 65.4118 56.4708 65.5312 56.9177 65.4891C57.8537 65.3823 58.7728 65.17 59.6751 64.8524C60.5352 64.5545 61.3841 64.227 62.2217 63.87C63.0537 63.5187 63.859 63.1153 64.6376 62.66C65.4836 62.1653 66.3058 61.6425 67.104 61.0916C67.6634 60.7065 68.1904 60.2849 68.6851 59.8267C69.4075 58.9975 69.9556 58.1206 70.3294 57.1958C69.4384 57.4404 68.5291 57.6582 67.6015 57.8493C64.327 58.5548 61.1761 59.0411 58.1488 59.3081ZM57.2761 57.3012L57.567 56.4833C57.2157 56.2725 56.891 56.0378 56.5931 55.7792C56.8011 56.3835 57.0287 56.8909 57.2761 57.3012ZM31.2032 53.7259C30.3459 53.1947 29.4704 52.707 28.5765 52.2629C28.0116 52.9009 27.4171 53.4476 26.7931 53.903V53.9114C26.2675 54.5495 26.0946 55.3238 26.2745 56.2345C26.4572 57.1452 27.3468 58.2316 28.9433 59.4936C30.5371 60.7585 32.8419 61.3642 35.8579 61.3108C38.7614 61.2574 41.3221 60.3917 43.5398 58.7137C40.8161 58.1346 38.3173 57.2506 36.0434 56.0617C34.3485 55.4405 32.7351 54.6619 31.2032 53.7259ZM89.5341 44.4419L89.2601 44.1931C88.0964 45.0954 86.7992 45.4327 85.3685 45.205C86.906 45.576 88.2946 45.3216 89.5341 44.4419Z" fill="#C74B0D"/>
<path d="M56.6351 61.6395C57.1636 60.8778 57.6681 60.1006 58.1487 59.308C57.9408 59.3249 57.7328 59.3417 57.5248 59.3586C56.7883 60.3367 56.1404 61.4653 55.5811 62.7442C55.4912 62.955 55.4026 63.17 55.3155 63.3893C55.203 63.6675 55.0948 63.9514 54.9908 64.2409C54.7997 64.775 54.9318 65.2556 55.3871 65.6829C55.449 65.7447 55.5193 65.8009 55.598 65.8515C55.9353 66.0539 56.3751 66.1115 56.9176 66.0244C57.1003 65.9963 57.2929 65.9513 57.4952 65.8895C58.2738 65.6562 59.0173 65.413 59.7256 65.1601C59.9954 65.0645 60.2597 64.9675 60.5183 64.8691C64.2397 63.4609 66.962 61.7801 68.685 59.8266C68.1903 60.2847 67.6633 60.7064 67.1039 61.0914C66.3057 61.6424 65.4835 62.1652 64.6375 62.6599C63.8589 63.1152 63.0536 63.5186 62.2216 63.8699C61.384 64.2269 60.5351 64.5543 59.675 64.8523C58.7728 65.1699 57.8536 65.3821 56.9176 65.4889C56.4707 65.5311 56.1601 65.4116 55.9859 65.1306C55.865 64.945 55.8046 64.6907 55.8046 64.3674C55.8046 63.3555 56.0814 62.4462 56.6351 61.6395ZM57.5669 56.4832L57.276 57.3011C57.6498 57.911 58.0686 58.2919 58.5324 58.4437L59.0974 57.0987C58.9287 57.1015 58.7657 57.0706 58.6083 57.006C58.2373 56.8514 57.8902 56.6771 57.5669 56.4832Z" fill="#1C0C1C"/>
<path d="M25.9921 51.1078C26.6582 51.3748 27.3145 51.6615 27.961 51.9679C29.7318 47.361 29.2203 43.2123 26.4263 39.5217C24.5572 40.424 22.7175 40.8217 20.9073 40.7149C22.4111 44.1497 22.5292 47.5774 21.2615 50.9982C22.8074 50.4332 24.3843 50.4697 25.9921 51.1078ZM51.0573 30.1491C50.5401 30.2307 49.9976 30.3318 49.4298 30.4527C47.3723 30.8828 44.9916 31.5517 42.2876 32.4596C49.2162 39.1184 50.6258 48.037 46.5164 59.2155C48.1242 59.4179 49.8023 59.5261 51.5506 59.5402C53.1359 59.5739 54.7605 59.5402 56.4245 59.439L57.2761 57.3014C57.0288 56.891 56.8011 56.3836 56.5931 55.7793C55.4295 54.7787 54.6452 53.4183 54.2405 51.6981C53.6109 49.0644 53.7556 46.8073 54.6748 44.9269C55.1976 43.8588 55.9509 43.2418 56.9346 43.076C57.3506 43.0029 57.7624 42.9509 58.17 42.92C57.8102 38.2625 55.9902 33.9226 52.71 29.9004C52.1647 29.9735 51.6138 30.0564 51.0573 30.1491ZM79.9508 40.6854C79.9508 40.8428 80.0056 40.9749 80.1152 41.0817C80.2276 41.1941 80.3626 41.2504 80.52 41.2504C80.6774 41.2504 80.8095 41.1941 80.9163 41.0817C81.0287 40.9749 81.0849 40.8428 81.0849 40.6854C81.0849 40.528 81.0287 40.3931 80.9163 40.2806C80.8095 40.1738 80.6774 40.1204 80.52 40.1204C80.3626 40.1204 80.2276 40.1738 80.1152 40.2806C80.0056 40.3931 79.9508 40.528 79.9508 40.6854ZM78.0577 32.9993C76.821 32.3247 75.5392 31.6993 74.2126 31.1231C69.9711 39.1704 70.1468 47.3708 74.7396 55.7245C75.5631 55.3928 76.3712 55.0345 77.1639 54.6494C74.3756 47.361 74.6735 40.1443 78.0577 32.9993Z" fill="#F0FEFE"/>
<path d="M81.0047 39.9264C80.704 39.6285 80.3456 39.4795 79.9296 39.4795C79.5108 39.4795 79.1524 39.6285 78.8545 39.9264C78.5565 40.2244 78.4075 40.5827 78.4075 41.0015C78.4075 41.4203 78.5565 41.7787 78.8545 42.0767C79.1524 42.3746 79.5108 42.5236 79.9296 42.5236C80.3456 42.5236 80.704 42.3746 81.0047 42.0767C81.3026 41.7787 81.4516 41.4203 81.4516 41.0015C81.4516 40.5827 81.3026 40.2244 81.0047 39.9264ZM80.1151 41.0816C80.0055 40.9748 79.9507 40.8427 79.9507 40.6853C79.9507 40.5279 80.0055 40.393 80.1151 40.2806C80.2275 40.1738 80.3624 40.1204 80.5198 40.1204C80.6772 40.1204 80.8094 40.1738 80.9162 40.2806C81.0286 40.393 81.0848 40.5279 81.0848 40.6853C81.0848 40.8427 81.0286 40.9748 80.9162 41.0816C80.8094 41.1941 80.6772 41.2503 80.5198 41.2503C80.3624 41.2503 80.2275 41.1941 80.1151 41.0816Z" fill="#060206"/>
</svg>
