<svg width="78" height="90" viewBox="0 0 78 90" fill="none" xmlns="http://www.w3.org/2000/svg">
<path d="M36.9748 90C37.0377 89.8705 37.0782 89.7067 37.0964 89.5085C36.0427 89.1859 34.6052 89.1982 32.7839 89.5455C34.7817 89.6221 36.1786 89.7736 36.9748 90ZM22.6527 83.7268C22.7024 83.5641 22.7447 83.4073 22.7796 83.2565L19.4976 83.7268H22.6527ZM56.3388 88.3036C56.2909 88.5353 56.2081 88.7555 56.0904 88.9642C57.2107 89.1606 58.2078 89.4143 59.0817 89.7252C58.7082 88.9899 57.7939 88.516 56.3388 88.3036ZM42.302 83.3463C41.4798 83.0338 40.6431 82.8172 39.7917 82.6963C39.7829 82.8875 39.7494 83.0743 39.6913 83.2565C39.9727 83.2847 40.2017 83.3094 40.3783 83.3305C40.8041 83.3862 41.4454 83.3915 42.302 83.3463Z" fill="#0C1015"/>
<path d="M36.8745 86.882V86.475C36.0153 86.6358 35.3424 86.8666 34.8556 87.1674C34.4677 87.4101 34.1999 87.6973 34.0523 88.0288C33.7334 88.2604 33.4533 88.5335 33.212 88.848C33.0521 89.0612 32.9094 89.2937 32.7839 89.5456C34.6052 89.1982 36.0427 89.1859 37.0964 89.5086C37.1538 88.9357 37.0287 88.076 36.7212 86.9295C36.7558 86.9194 36.7893 86.9088 36.8216 86.8978C36.8395 86.8945 36.8571 86.8892 36.8745 86.882ZM33.4287 89.0065C33.7969 88.5429 34.3817 88.1536 35.1833 87.8385C35.3939 87.756 35.6194 87.6784 35.8597 87.606C36.0048 87.6846 35.9555 87.8009 35.7118 87.9548C35.1673 88.0445 34.4063 88.3951 33.4287 89.0065ZM22.8324 81.021L22.6527 80.5718C21.7876 80.6084 20.9385 81.1422 20.1054 82.1731C19.6976 82.5929 19.495 83.1109 19.4976 83.7269L22.7796 83.2565C23.0021 82.2867 22.914 81.5644 22.5153 81.0897C22.6214 81.0677 22.7271 81.0448 22.8324 81.021ZM21.6116 81.5125C21.8164 81.513 21.8411 81.5746 21.6856 81.6975C21.1624 81.8209 20.6445 82.1645 20.1318 82.728C20.0512 82.4212 20.5445 82.016 21.6116 81.5125ZM39.7917 82.6963C40.6431 82.8172 41.4799 83.0339 42.3021 83.3464C41.9702 82.7676 41.0876 82.2286 39.6543 81.7292C39.7645 82.0613 39.8103 82.3837 39.7917 82.6963ZM40.2462 82.4215C40.1559 82.3494 40.1559 82.2842 40.2462 82.226C40.7253 82.2947 41.1023 82.4708 41.3772 82.7545C41.0277 82.5884 40.6507 82.4774 40.2462 82.4215ZM59.0817 89.7253C59.2088 89.7491 59.2475 89.6786 59.1979 89.5139C58.9891 88.26 57.9656 87.2612 56.1274 86.5173C56.3855 87.1689 56.4559 87.7643 56.3388 88.3036C57.7939 88.516 58.7082 88.9899 59.0817 89.7253ZM58.4052 88.3882C58.0584 88.1236 57.6162 87.8893 57.0787 87.6853C56.8994 87.4265 56.8977 87.2961 57.0734 87.2942C57.6889 87.6151 58.1328 87.9797 58.4052 88.3882Z" fill="#1E252E"/>
<path d="M35.1832 87.8385C34.3817 88.1536 33.7968 88.5429 33.4286 89.0065C34.4063 88.395 35.1673 88.0444 35.7117 87.9548C35.9555 87.8009 36.0048 87.6846 35.8597 87.606C35.6193 87.6784 35.3938 87.7559 35.1832 87.8385ZM21.6856 81.6974C21.841 81.5746 21.8164 81.5129 21.6116 81.5125C20.5444 82.016 20.0512 82.4212 20.1318 82.728C20.6444 82.1644 21.1623 81.8209 21.6856 81.6974ZM40.2462 82.2259C40.1558 82.2841 40.1558 82.3493 40.2462 82.4215C40.6507 82.4773 41.0277 82.5883 41.3772 82.7544C41.1022 82.4708 40.7252 82.2946 40.2462 82.2259ZM57.0786 87.6852C57.6161 87.8893 58.0583 88.1236 58.4052 88.3881C58.1328 87.9797 57.6889 87.615 57.0734 87.2942C56.8976 87.2961 56.8994 87.4264 57.0786 87.6852Z" fill="#5880AD"/>
<path d="M22.6527 80.5718L22.8324 81.021C24.7446 80.6171 26.4023 80.189 27.8055 79.7368C25.6837 79.989 23.9661 80.2673 22.6527 80.5718ZM40.9597 85.7352C41.851 85.404 42.7407 85.0763 43.6285 84.7522C44.0559 84.5948 44.4364 84.3851 44.7701 84.1233C42.8768 84.9454 41.0641 85.5796 39.3319 86.0258C38.352 86.2294 37.5328 86.3791 36.8744 86.475V86.882C37.2558 86.7769 37.6398 86.6818 38.0265 86.5966C39.0236 86.3746 40.0013 86.0875 40.9597 85.7352ZM50.3245 72.8241L50.2136 72.7871L50.3245 72.8294C50.3256 72.8277 50.3256 72.8259 50.3245 72.8241Z" fill="#E0900E"/>
<path d="M56.0904 88.9642C56.2081 88.7555 56.2909 88.5353 56.3388 88.3036C52.5516 87.275 46.1374 87.6766 37.0964 89.5086C37.0782 89.7067 37.0377 89.8706 36.9748 90.0001L45.6421 88.7898C47.9289 88.5162 50.0217 88.4316 51.9206 88.5362C53.4613 88.6086 54.8512 88.7513 56.0904 88.9642ZM39.6913 83.2565C39.7494 83.0743 39.7829 82.8876 39.7917 82.6963C37.9482 82.1539 35.8889 81.7593 33.6136 81.5125C30.115 81.8543 26.5036 82.4356 22.7795 83.2565C22.7447 83.4073 22.7024 83.5641 22.6527 83.7269C26.2625 83.1367 29.4757 82.8161 32.2924 82.765C35.1127 82.7176 36.9484 82.7758 37.7993 82.9394C38.6497 83.1061 39.2803 83.2118 39.6913 83.2565ZM49.3838 80.4661C49.2781 80.7832 49.1918 81.102 49.1249 81.4227C49.0685 81.6869 49.0209 81.9494 48.9822 82.2101C48.9258 82.5624 48.9276 82.9095 48.9875 83.2512C49.0368 83.5472 49.1178 83.8361 49.2306 84.118C49.3327 84.3787 49.3926 84.6517 49.4102 84.9371C49.4208 85.1309 49.4085 85.3247 49.3732 85.5185C49.3415 85.6911 49.3028 85.8638 49.257 86.0364C49.1865 86.2866 49.0896 86.5261 48.9663 86.7551C48.9487 86.7833 48.9311 86.8133 48.9135 86.845C49.1389 86.6583 49.3697 86.4786 49.6058 86.3059C49.8454 86.1298 50.0603 85.9325 50.2505 85.714C50.3739 85.5731 50.4426 85.411 50.4567 85.2278C50.4848 84.8684 50.4285 84.5267 50.2875 84.2025C50.1537 83.896 50.0356 83.5948 49.9335 83.2988C49.8348 83.0064 49.7608 82.7104 49.7115 82.4109C49.6516 82.0762 49.6199 81.7398 49.6164 81.4015C49.6128 81.095 49.6216 80.7938 49.6428 80.4978C49.6674 80.1631 49.7009 79.8249 49.7432 79.4831C49.6128 79.8108 49.493 80.1384 49.3838 80.4661ZM45.3884 66.4241C45.2687 66.457 45.1472 66.487 45.0238 66.5139L45.2404 69.1405C47.4674 69.5516 49.2889 69.5164 50.7051 69.0348C50.7662 70.2125 50.6024 71.4632 50.2136 72.7871L50.3245 72.8241C50.7982 71.5247 51.0977 70.1929 51.223 68.8287C51.8865 68.53 52.4467 68.116 52.9036 67.5868C53.0267 67.2239 53.1483 66.9543 53.2682 66.7782C50.4178 67.377 48.3232 67.1093 46.9845 65.9749C46.4486 66.1417 45.9166 66.2915 45.3884 66.4241ZM35.8544 76.3914C36.0659 75.9336 36.191 75.509 36.2297 75.1178C35.8773 75.4384 35.6413 75.8365 35.5215 76.3122C35.4158 76.7173 35.3436 77.1348 35.3048 77.5647C35.2731 77.8606 35.2749 78.1583 35.3101 78.4578C35.3277 78.6692 35.3347 78.8806 35.3312 79.092C35.3207 79.2823 35.2749 79.4672 35.1938 79.6469C35.1093 79.8196 35.0071 79.9799 34.8873 80.1279L34.882 80.1807C35.1672 80.1529 35.368 79.9802 35.4845 79.6628C35.6012 79.3446 35.6365 79.0152 35.5902 78.6745C35.544 78.3376 35.5228 77.987 35.5268 77.6228C35.5338 77.2627 35.643 76.8522 35.8544 76.3914ZM33.7035 66.6302C33.7132 67.1605 33.7167 67.6943 33.714 68.2315C34.9554 68.7392 36.2202 68.9577 37.5086 68.8868C37.5225 69.2577 37.3745 69.6276 37.0647 69.9967C37.5384 69.8101 37.8608 69.4261 38.0318 68.8446C38.3552 68.8082 38.6793 68.7536 39.0042 68.6807C39.1528 68.2234 39.3078 67.7583 39.4693 67.2855C37.4671 67.3338 35.5452 67.1154 33.7035 66.6302Z" fill="#CE5A06"/>
<path d="M59.8532 62.4391C62.4995 61.784 64.6804 60.9561 66.396 59.9552C62.6932 61.0367 58.8599 60.8746 54.896 59.469C55.9474 61.0441 57.5998 62.0342 59.8532 62.4391ZM59.9167 57.1701C61.0047 57.9053 62.5813 58.5254 64.6467 59.0304L69.4771 57.2969C67.0999 58.0339 63.9131 57.9916 59.9167 57.1701ZM49.3627 62.4814C50.7715 63.8784 52.3358 64.6835 54.0557 64.8966C56.0448 64.7873 58.0513 64.3891 60.0752 63.7022C56.0753 64.2848 52.5045 63.8778 49.3627 62.4814ZM26.1038 59.0991C25.9525 58.9884 25.801 58.8757 25.6493 58.7608C22.5542 56.4091 19.4942 53.187 16.4694 49.0947C17.7214 52.9023 19.5182 56.1243 21.86 58.7608C22.3874 59.3542 22.9423 59.9179 23.5247 60.452C24.3601 61.309 25.2198 62.0841 26.1038 62.7774C28.4638 64.6377 30.997 65.9219 33.7035 66.6301C35.5452 67.1153 37.4671 67.3337 39.4693 67.2854C41.2577 67.2414 43.1092 66.9842 45.0238 66.5138C45.1472 66.4869 45.2687 66.457 45.3884 66.424C45.9166 66.2914 46.4486 66.1416 46.9845 65.9748C43.04 62.7603 41.6888 57.1653 42.9309 49.1899C41.4241 55.2751 41.3307 59.8853 42.6508 63.0205C37.0247 64.3602 31.509 63.0531 26.1038 59.0991ZM17.7536 17.8186C17.6721 18.0512 17.5911 18.2838 17.5105 18.5162C17.5035 19.2549 18.0549 19.7658 19.1647 20.0488C20.2741 20.3353 21.6728 19.4986 23.3609 17.5385C23.5337 16.7856 23.7169 16.0351 23.9105 15.2871C23.9955 14.9588 24.0818 14.6293 24.1695 14.2988C23.9461 14.6051 23.6995 14.894 23.4296 15.1656C22.8764 15.7293 22.2475 16.1873 21.5429 16.5396C21.1815 16.7185 20.8133 16.8806 20.4383 17.0258C20.068 17.1709 19.691 17.2995 19.3074 17.4116C18.7945 17.553 18.2766 17.6886 17.7536 17.8186Z" fill="#DEBFA6"/>
<path d="M52.9035 67.5867C52.4467 68.1159 51.8865 68.5299 51.2229 68.8286C51.0976 70.1928 50.7981 71.5246 50.3245 72.824C50.3256 72.8259 50.3256 72.8276 50.3245 72.8293L50.2135 72.787C50.6023 71.4631 50.7662 70.2124 50.705 69.0347C49.2889 69.5163 47.4673 69.5515 45.2404 69.1404L45.9697 78.0561C46.0871 79.0143 46.1682 79.8845 46.2128 80.6668C46.2613 81.4531 46.1397 82.1419 45.8482 82.7332C45.556 83.3237 45.1966 83.787 44.7701 84.1232C44.4364 84.3851 44.0559 84.5947 43.6285 84.7521C42.7406 85.0762 41.851 85.4039 40.9596 85.7351C40.0013 86.0874 39.0236 86.3745 38.0265 86.5965C37.6398 86.6817 37.2557 86.7768 36.8744 86.8819C36.8571 86.8891 36.8395 86.8944 36.8215 86.8978C36.7892 86.9088 36.7557 86.9193 36.7211 86.9295C37.0287 88.076 37.1538 88.9356 37.0963 89.5085C46.1374 87.6765 52.5515 87.2749 56.3387 88.3035C56.4559 87.7643 56.3854 87.1688 56.1273 86.5172C54.9918 85.85 53.6988 85.251 52.2482 84.7204C51.6747 84.5059 51.1955 83.2023 50.8107 80.8095C51.5629 73.8741 52.2605 69.4665 52.9035 67.5867ZM49.1248 81.4226C49.1918 81.102 49.2781 80.7831 49.3838 80.466C49.493 80.1383 49.6128 79.8107 49.7432 79.483C49.7009 79.8248 49.6674 80.163 49.6427 80.4977C49.6216 80.7937 49.6128 81.0949 49.6163 81.4014C49.6198 81.7397 49.6516 82.0762 49.7115 82.4109C49.7608 82.7103 49.8348 83.0063 49.9334 83.2987C50.0356 83.5947 50.1536 83.8959 50.2875 84.2025C50.4284 84.5266 50.4848 84.8683 50.4566 85.2277C50.4425 85.4109 50.3738 85.573 50.2505 85.7139C50.0603 85.9324 49.8453 86.1297 49.6058 86.3058C49.3697 86.4785 49.1389 86.6582 48.9134 86.8449C48.931 86.8132 48.9487 86.7832 48.9663 86.7551C49.0896 86.526 49.1865 86.2865 49.2569 86.0363C49.3027 85.8637 49.3415 85.691 49.3732 85.5184C49.4084 85.3246 49.4208 85.1308 49.4102 84.937C49.3926 84.6517 49.3327 84.3786 49.2305 84.1179C49.1178 83.836 49.0367 83.5471 48.9874 83.2512C48.9275 82.9094 48.9258 82.5624 48.9821 82.21C49.0209 81.9493 49.0684 81.6868 49.1248 81.4226ZM37.0646 69.9966C37.3745 69.6275 37.5225 69.2576 37.5086 68.8868C36.2202 68.9576 34.9553 68.7392 33.714 68.2314C33.7008 70.952 33.53 73.7829 33.2014 76.7243C32.4377 77.818 30.6514 78.8186 27.8425 79.7261C27.8306 79.7296 27.8183 79.7331 27.8055 79.7367C26.4023 80.1889 24.7446 80.617 22.8324 81.0209C22.727 81.0447 22.6213 81.0676 22.5153 81.0896C22.914 81.5643 23.002 82.2866 22.7795 83.2564C26.5036 82.4355 30.115 81.8542 33.6136 81.5124C35.8888 81.7592 37.9482 82.1538 39.7917 82.6962C39.8102 82.3836 39.7644 82.0612 39.6542 81.7291C38.1327 80.9295 37.2413 79.5202 36.9801 77.5012C37.2641 74.9529 37.9389 72.0127 39.0042 68.6806C38.6793 68.7535 38.3552 68.8081 38.0318 68.8445C37.8608 69.426 37.5384 69.81 37.0646 69.9966ZM36.2296 75.1177C36.1909 75.5089 36.0658 75.9335 35.8544 76.3913C35.643 76.8521 35.5338 77.2626 35.5267 77.6227C35.5228 77.9869 35.5439 78.3375 35.5901 78.6744C35.6364 79.0151 35.6012 79.3445 35.4844 79.6627C35.368 79.9801 35.1672 80.1528 34.882 80.1806L34.8873 80.1278C35.007 79.9798 35.1092 79.8195 35.1938 79.6468C35.2748 79.4672 35.3206 79.2822 35.3312 79.0919C35.3347 78.8805 35.3277 78.6691 35.3101 78.4577C35.2748 78.1583 35.2731 77.8605 35.3048 77.5646C35.3435 77.1348 35.4157 76.7172 35.5214 76.3121C35.6412 75.8364 35.8773 75.4383 36.2296 75.1177Z" fill="#E39107"/>
<path d="M67.1676 34.3233C67.0866 34.2458 67.0038 34.1683 66.9192 34.0908L63.8434 31.6492L63.2409 32.0085C63.6355 32.2939 64.0248 32.5811 64.4089 32.87C64.8916 33.2364 65.3531 33.6257 65.7935 34.0379C66.2304 34.4537 66.6638 34.8818 67.0936 35.3222C67.5129 35.7591 67.9163 36.2101 68.3039 36.6751C68.7055 37.1578 69.0772 37.6599 69.419 38.1813C69.7642 38.7028 70.0884 39.2348 70.3914 39.7774C70.6838 40.3023 70.9516 40.8326 71.1947 41.3681C71.4378 41.9107 71.6703 42.4621 71.8923 43.0223C72.1248 43.6072 72.3257 44.1973 72.4948 44.7928L73.018 43.2548C72.7538 42.7158 72.4842 42.1873 72.2094 41.6694C71.9311 41.1444 71.6474 40.623 71.3585 40.105C71.0731 39.5942 70.7737 39.0886 70.4601 38.5883C70.143 38.0844 69.8171 37.5894 69.4824 37.1032C69.1547 36.6205 68.8024 36.1484 68.4254 35.6868C68.0378 35.2147 67.6186 34.7602 67.1676 34.3233ZM75.5706 42.5678C75.8971 42.7239 76.1789 42.9388 76.4162 43.2126C76.4574 41.445 76.1703 39.8947 75.5548 38.5618C75.7657 39.9362 75.771 41.2715 75.5706 42.5678Z" fill="#876348"/>
<path d="M32.4245 36.4004C31.9152 36.0565 31.6562 35.7324 31.6476 35.428C33.7084 33.8994 34.6703 31.7942 34.5332 29.1125C31.9961 30.294 29.787 31.89 27.9059 33.9007C28.7962 35.9018 30.3024 36.7351 32.4245 36.4004Z" fill="#484136"/>
<path d="M19.1646 20.0487C18.0549 19.7656 17.5035 19.2548 17.5104 18.516C14.6537 26.9657 13.7976 34.9741 14.942 42.5413C15.2994 44.8907 15.8085 47.0751 16.4693 49.0946C19.4942 53.1869 22.5541 56.4089 25.6492 58.7607C25.8009 58.8755 25.9524 58.9883 26.1037 59.0989C31.509 63.0529 37.0247 64.3601 42.6508 63.0203C41.3306 59.8851 41.424 55.2749 42.9309 49.1897C41.6888 57.1652 43.04 62.7601 46.9844 65.9746C48.3232 67.109 50.4178 67.3768 53.2682 66.7779C54.0987 66.6058 54.9936 66.3592 55.9529 66.038C55.6248 65.4921 54.9924 65.1116 54.0556 64.8965C52.3358 64.6834 50.7714 63.8783 49.3626 62.4813C52.5045 63.8777 56.0753 64.2846 60.0752 63.7021C60.4901 63.5608 60.9059 63.4075 61.3224 63.2423C61.0589 62.9009 60.5691 62.6332 59.8532 62.439C57.5998 62.034 55.9474 61.044 54.8959 59.4689C58.8598 60.8745 62.6932 61.0365 66.3959 59.9551C66.3386 59.4241 65.7555 59.1158 64.6466 59.0302C62.5813 58.5252 61.0046 57.9051 59.9166 57.1699C63.9131 57.9914 67.0999 58.0337 69.477 57.2968C69.4924 57.2925 69.5065 57.2873 69.5193 57.2809C70.2588 57.0491 70.9194 56.7409 71.5012 56.3561C71.3363 56.0923 70.9611 55.8474 70.3755 55.6214C71.269 55.0521 71.9596 54.3369 72.4472 53.4758C72.4589 53.4582 72.4695 53.4406 72.4789 53.4229C73.0899 52.3225 73.3753 50.9872 73.335 49.417L73.3086 48.8885C73.2051 47.7209 72.8968 46.9599 72.3837 46.6054C71.8979 47.5777 71.5825 48.0868 71.4377 48.1327C71.2962 48.1787 71.2099 48.0995 71.1788 47.8949C71.2797 46.4966 71.1335 45.5206 70.7401 44.9671C70.5873 44.7532 70.4059 44.7073 70.1958 44.8296C69.6001 45.2499 69.1773 45.7784 68.9274 46.4151C68.9133 46.4785 68.8974 46.542 68.8798 46.6054C68.8023 46.8379 68.716 47.0564 68.6209 47.2607C68.5363 47.4404 68.4659 47.5637 68.4095 47.6307C68.2236 47.6813 68.1267 47.6443 68.1188 47.5197C68.1146 47.3954 68.1322 47.2315 68.1717 47.0282C68.2106 46.8277 68.2282 46.6233 68.2245 46.4151C68.2719 43.3628 65.7634 40.7626 60.6988 38.6146C60.5946 39.6083 60.7302 40.4821 61.1057 41.2359C57.1298 36.2028 52.081 34.3143 45.9591 35.5705C44.2081 36.0708 42.6279 36.8882 41.2186 38.0227C39.242 39.6187 37.077 40.8677 34.7234 41.7697C32.3558 42.6787 29.9635 42.7491 27.5465 41.9811C25.1013 41.213 23.4384 39.624 22.5575 37.2141C21.6873 34.8394 21.3297 32.3819 21.4847 29.8416C21.8179 25.6472 22.4433 21.5461 23.3608 17.5383C21.6728 19.4984 20.274 20.3352 19.1646 20.0487Z" fill="#F4E3D4"/>
<path d="M9.22372 16.5713C9.21636 16.5724 9.20755 16.5724 9.1973 16.5713C9.18681 16.5747 9.17624 16.5764 9.16559 16.5766C8.52287 16.6792 8.02256 16.8078 7.66467 16.9624C7.22778 17.1491 6.8138 17.3816 6.42272 17.66C6.02459 17.9418 5.67402 18.2677 5.37102 18.6377C5.07507 19.0006 4.82844 19.3917 4.63113 19.8109C4.40564 20.2831 4.20658 20.7622 4.03394 21.2484C4.76792 21.5345 5.43382 21.7142 6.03164 21.7875C6.74806 21.8784 7.51437 21.9277 8.33058 21.9355C8.55835 21.94 8.78032 21.9206 8.99647 21.8773C10.081 19.9739 10.1568 18.2052 9.22372 16.5713Z" fill="#E59106"/>
<path d="M7.89724 16.2436C7.96885 16.1557 8.01113 15.9056 8.02408 15.4932C7.83659 15.5417 7.65162 15.5963 7.46917 15.657C7.4682 15.6567 7.46644 15.6567 7.46388 15.657C6.73456 15.967 6.06514 16.3828 5.45561 16.9042C4.8637 17.4151 4.37572 18.0123 3.99169 18.6958C3.63936 19.323 3.3945 19.9889 3.25709 20.6935C3.13025 21.3312 3.02807 21.976 2.95056 22.6278C3.17232 22.1138 3.38372 21.5941 3.58475 21.0688C3.6545 20.8844 3.72321 20.6994 3.79086 20.5138C4.05159 19.788 4.40744 19.1045 4.85842 18.4633C5.11259 18.099 5.39974 17.7714 5.71986 17.4803C5.75943 17.4445 5.79994 17.4093 5.84141 17.3746C6.04956 17.196 6.27153 17.0322 6.50731 16.8831C6.81348 16.6881 7.13058 16.526 7.4586 16.3969C7.52028 16.3733 7.58017 16.3504 7.63828 16.3282C7.72508 16.2998 7.8114 16.2717 7.89724 16.2436Z" fill="#171C20"/>
<path d="M8.50503 16.1011C8.29885 16.1393 8.09627 16.1869 7.89727 16.2438C7.81143 16.2718 7.72511 16.3 7.63831 16.3283C7.5802 16.3506 7.52031 16.3735 7.45863 16.397C7.1306 16.5262 6.81351 16.6883 6.50734 16.8832C6.27156 17.0324 6.04958 17.1962 5.84144 17.3747C5.79997 17.4094 5.75945 17.4447 5.71989 17.4804C5.39976 17.7715 5.11261 18.0992 4.85844 18.4634C4.40746 19.1047 4.05161 19.7882 3.79089 20.514C3.72323 20.6996 3.65453 20.8845 3.58478 21.0689C3.7369 21.1339 3.88664 21.1938 4.034 21.2486C4.20664 20.7624 4.4057 20.2832 4.63119 19.8111C4.8285 19.3918 5.07513 19.0007 5.37108 18.6378C5.67408 18.2679 6.02465 17.942 6.42278 17.6601C6.81386 17.3818 7.22785 17.1492 7.66473 16.9625C8.02262 16.8079 8.52293 16.6793 9.16565 16.5767C9.1763 16.5766 9.18687 16.5748 9.19736 16.5714C9.20761 16.5725 9.21642 16.5725 9.22378 16.5714C9.12327 16.3897 8.88369 16.233 8.50503 16.1011Z" fill="url(#paint0_linear_1808_3440)"/>
<path d="M7.42683 11.0222C7.10614 10.0465 6.55651 9.34365 5.77793 8.91356C5.51016 8.76911 5.22478 8.67398 4.92178 8.62817C4.25588 9.04392 3.62169 9.50371 3.01921 10.0075C2.40592 10.5254 1.88447 11.1015 1.45487 11.7357C1.02573 12.37 0.68045 13.0712 0.419025 13.8391C0.157601 14.607 0.0184302 15.4649 0.00151574 16.4129C-0.0158667 17.3642 0.116256 18.2344 0.397885 19.0236C0.6727 19.7882 1.06379 20.4875 1.57114 21.1217C1.99746 21.6502 2.45724 22.1523 2.9505 22.6279C3.02801 21.9761 3.13019 21.3314 3.25703 20.6936C3.39444 19.989 3.6393 19.3231 3.99163 18.6959C4.37567 18.0124 4.86364 17.4152 5.45555 16.9044C6.06508 16.3829 6.7345 15.9672 7.46382 15.6571C7.46638 15.6569 7.46814 15.6569 7.46911 15.6571C7.65156 15.5964 7.83653 15.5418 8.02402 15.4933C8.0344 15.1396 8.02207 14.6639 7.98703 14.0664C7.98711 14.002 7.98535 13.9351 7.98174 13.8655C7.9745 13.7313 7.96393 13.5957 7.95003 13.4586C7.87475 12.6657 7.70035 11.8536 7.42683 11.0222Z" fill="#1E252A"/>
<path d="M16.2949 14.6953C16.0249 14.7998 15.7518 14.8949 15.4758 14.9807C14.8683 15.1711 14.2659 15.3331 13.6683 15.4669C13.5577 15.4918 13.4467 15.5147 13.3354 15.5356C12.831 15.6424 12.2761 15.7234 11.6706 15.7787C11.4356 15.8022 11.1925 15.8216 10.9413 15.8369C10.9385 15.8366 10.9349 15.8366 10.9307 15.8369C10.9095 15.8395 10.8883 15.8412 10.8673 15.8421C10.8582 15.845 10.8494 15.8468 10.8409 15.8474C10.2148 15.9242 9.58589 15.9911 8.95416 16.0483C8.91122 16.0516 8.86894 16.0551 8.82732 16.0588C8.77899 16.0638 8.73143 16.0691 8.68463 16.0747C8.62425 16.0834 8.56436 16.0922 8.50494 16.1011C8.8836 16.233 9.12318 16.3898 9.22369 16.5715C11.0592 16.4853 13.4163 15.8599 16.2949 14.6953Z" fill="#6A7F99"/>
<path d="M20.5387 12.3328C19.7953 12.7379 19.0395 13.0991 18.2715 13.4162C17.5492 13.7192 16.8093 13.9869 16.0518 14.2195C15.3049 14.4555 14.5456 14.6476 13.774 14.7955C13.02 14.9259 12.2537 15.0157 11.475 15.0651C11.1829 15.0838 10.8904 15.1067 10.5977 15.1338C10.5226 15.1406 10.4468 15.1476 10.3705 15.1549C9.91499 15.1997 9.45873 15.2543 9.0017 15.3187C8.98015 15.3212 8.95902 15.323 8.93829 15.324C8.62748 15.3641 8.32272 15.4205 8.024 15.4931C8.01104 15.9056 7.96876 16.1557 7.89716 16.2436C8.09615 16.1867 8.29874 16.1392 8.50492 16.1009C8.56434 16.092 8.62423 16.0832 8.68461 16.0745C8.7314 16.0689 8.77896 16.0636 8.8273 16.0586C8.86892 16.0549 8.9112 16.0514 8.95414 16.0481C9.58587 15.9909 10.2148 15.924 10.8409 15.8472C10.8494 15.8466 10.8582 15.8448 10.8673 15.8419C10.8883 15.8411 10.9094 15.8393 10.9307 15.8367C10.9349 15.8364 10.9384 15.8364 10.9413 15.8367C11.1925 15.8214 11.4356 15.802 11.6706 15.7785C12.2761 15.7232 12.831 15.6422 13.3353 15.5354C13.4467 15.5145 13.5576 15.4916 13.6683 15.4667C14.2658 15.3329 14.8683 15.1709 15.4757 14.9805C15.7518 14.8947 16.0249 14.7996 16.2949 14.6951L16.5697 14.5894C16.6139 14.5707 16.658 14.5514 16.7018 14.5313C17.0077 14.4048 17.3125 14.2656 17.6161 14.1138C18.2926 13.7791 18.9532 13.4109 19.598 13.0092C19.9292 12.8084 20.2427 12.5829 20.5387 12.3328Z" fill="#566A83"/>
<path d="M13.3619 4.37391C13.2309 4.28582 13.0865 4.24178 12.9285 4.24178C12.6748 4.24178 12.4582 4.34748 12.2785 4.55888C12.1023 4.7738 12.0142 5.03276 12.0142 5.33576C12.0142 5.64229 12.1023 5.89773 12.2785 6.10208C12.2973 6.12438 12.3167 6.14553 12.3366 6.1655C12.606 5.80969 12.835 5.42917 13.0236 5.02395C13.1266 4.80431 13.2394 4.58763 13.3619 4.37391ZM12.1675 5.07152C12.2894 5.41124 12.3599 5.66315 12.3789 5.82726L12.3155 5.97524C12.1447 5.7024 12.0954 5.40116 12.1675 5.07152ZM12.511 4.99753C12.4173 4.8015 12.4561 4.62534 12.6273 4.46904C12.7979 4.36447 12.9054 4.39265 12.9496 4.5536C12.9164 4.8411 12.7702 4.98908 12.511 4.99753ZM22.0186 5.82198C22.2722 5.57182 22.3991 5.26706 22.3991 4.90768C22.3991 4.55183 22.2722 4.24707 22.0186 3.99339C21.7684 3.74324 21.4654 3.61816 21.1096 3.61816C20.7502 3.61816 20.4437 3.74324 20.19 3.99339C19.9398 4.24707 19.8148 4.55183 19.8148 4.90768C19.8148 5.26706 19.9398 5.57182 20.19 5.82198C20.4437 6.07565 20.7502 6.20249 21.1096 6.20249C21.4654 6.20249 21.7684 6.07565 22.0186 5.82198ZM21.8706 4.6223C21.7719 4.61173 21.6856 4.5765 21.6116 4.5166C21.4355 4.37215 21.3844 4.19951 21.4584 3.99868C21.476 3.9564 21.5042 3.9194 21.5429 3.8877C21.786 3.95816 21.9428 4.11847 22.0133 4.36862C22.0309 4.43557 22.0415 4.50427 22.045 4.57473C21.9957 4.62406 21.9375 4.63991 21.8706 4.6223ZM21.1994 5.90653C20.9986 5.91358 20.8101 5.8713 20.6339 5.7797C20.4437 5.68457 20.2992 5.54364 20.2006 5.3569C20.1477 5.2512 20.0984 5.1367 20.0526 5.01338C20.6477 5.64182 21.3295 5.71757 22.0978 5.24063C22.0098 5.43089 21.8794 5.5912 21.7068 5.72156C21.5588 5.83431 21.3897 5.89596 21.1994 5.90653Z" fill="#121E2B"/>
<path d="M12.6272 4.46879C12.456 4.6251 12.4173 4.80126 12.5109 4.99728C12.7701 4.98883 12.9163 4.84086 12.9496 4.55335C12.9053 4.39241 12.7979 4.36422 12.6272 4.46879ZM21.6116 4.51636C21.6855 4.57625 21.7719 4.61148 21.8705 4.62205C21.9375 4.63967 21.9956 4.62382 22.0449 4.57449C22.0414 4.50402 22.0308 4.43532 22.0132 4.36838C21.9427 4.11823 21.786 3.95792 21.5429 3.88745C21.5041 3.91916 21.4759 3.95616 21.4583 3.99843C21.3843 4.19926 21.4354 4.3719 21.6116 4.51636Z" fill="#D2E9FE"/>
<path d="M12.3788 5.82706C12.3598 5.66295 12.2894 5.41104 12.1674 5.07132C12.0953 5.40096 12.1446 5.70221 12.3154 5.97504L12.3788 5.82706ZM20.6339 5.7795C20.81 5.8711 20.9985 5.91338 21.1994 5.90633C21.3896 5.89576 21.5587 5.83411 21.7067 5.72136C21.8794 5.591 22.0097 5.43069 22.0978 5.24044C21.3294 5.71737 20.6477 5.64162 20.0525 5.01318C20.0983 5.1365 20.1477 5.251 20.2005 5.3567C20.2992 5.54344 20.4436 5.68437 20.6339 5.7795Z" fill="#453E62"/>
<path d="M9.00705 7.56575C8.94687 7.57328 8.88697 7.58033 8.82736 7.58689C8.00644 7.71373 7.18904 7.89166 6.37517 8.12067C5.87759 8.25027 5.39314 8.41939 4.92181 8.62802C5.22482 8.67382 5.5102 8.76895 5.77797 8.91341C6.55654 9.34349 7.10617 10.0464 7.42686 11.0221C7.70038 11.8535 7.87479 12.6656 7.95007 13.4584C7.96397 13.5955 7.97454 13.7312 7.98178 13.8654C7.98538 13.9349 7.98715 14.0018 7.98707 14.0662C8.02211 14.6638 8.03444 15.1394 8.02406 15.4931C8.32278 15.4205 8.62755 15.3641 8.93835 15.324C8.95908 15.323 8.98022 15.3212 9.00177 15.3187C9.45879 15.2543 9.91506 15.1997 10.3706 15.1549C10.4469 15.1476 10.5227 15.1406 10.5978 15.1338C10.8905 15.1067 11.1829 15.0838 11.4751 15.065C12.2538 15.0157 13.0201 14.9259 13.7741 14.7955C14.5456 14.6475 15.3049 14.4555 16.0518 14.2195C16.8094 13.9869 17.5492 13.7192 18.2715 13.4162C19.0396 13.0991 19.7953 12.7379 20.5387 12.3327C20.2428 12.5829 19.9292 12.8084 19.598 13.0092C18.9533 13.4109 18.2927 13.7791 17.6162 14.1138C17.3126 14.2656 17.0078 14.4048 16.7019 14.5313C16.658 14.5514 16.614 14.5707 16.5698 14.5894L16.295 14.6951C13.4163 15.8597 11.0592 16.4851 9.22373 16.5712C10.1568 18.2052 10.081 19.9739 8.99648 21.8773C9.55594 21.7725 10.0774 21.5188 10.5608 21.1163C10.9051 20.8326 11.2416 20.5507 11.5702 20.2707C11.8811 20.0058 12.1841 19.7433 12.4792 19.4832C12.6731 19.3149 12.8739 19.167 13.0817 19.0393C13.3121 18.8996 13.5517 18.7833 13.8005 18.6905C14.0527 18.5981 14.3152 18.5294 14.5879 18.4844C15.3525 18.347 16.1206 18.1937 16.8922 18.0246C17.0521 17.9874 17.2106 17.9486 17.3678 17.9083C17.4976 17.8798 17.6262 17.8498 17.7536 17.8185C18.2766 17.6885 18.7945 17.5529 19.3074 17.4116C19.691 17.2994 20.068 17.1708 20.4383 17.0258C20.8133 16.8805 21.1815 16.7185 21.5429 16.5395C22.2475 16.1872 22.8764 15.7292 23.4296 15.1655C23.6995 14.8939 23.9461 14.605 24.1695 14.2987C24.4375 13.9404 24.6736 13.5581 24.8777 13.1519C25.1243 12.6622 25.3198 12.1495 25.4643 11.614C26.7267 8.26657 26.1348 5.32815 23.6886 2.79876C21.5483 0.926203 19.2352 0.434706 16.7495 1.32426C16.3946 1.45092 16.0352 1.60595 15.6713 1.78934C15.4967 1.92314 15.3241 2.06231 15.1534 2.20685C14.6848 2.61202 14.2655 3.063 13.8956 3.55978C13.7397 3.77198 13.5935 3.98866 13.457 4.20983C13.4251 4.26525 13.3934 4.31986 13.3618 4.37366C13.2393 4.58738 13.1266 4.80407 13.0236 5.02371C12.835 5.42893 12.606 5.80944 12.3365 6.16525C12.2769 6.24392 12.2152 6.32143 12.1516 6.39779C12.1049 6.45286 12.0573 6.50748 12.0089 6.56162C11.7339 6.87014 11.4168 7.1062 11.0576 7.2698C11.0048 7.29692 10.9501 7.32159 10.8938 7.34379C10.8761 7.34983 10.8585 7.35511 10.8409 7.35964C10.8293 7.36623 10.817 7.37152 10.8039 7.3755C10.6755 7.421 10.5416 7.45799 10.4023 7.48648C9.92253 7.4964 9.45745 7.52283 9.00705 7.56575ZM22.399 4.90744C22.399 5.26681 22.2722 5.57158 22.0185 5.82173C21.7684 6.07541 21.4654 6.20224 21.1095 6.20224C20.7501 6.20224 20.4436 6.07541 20.1899 5.82173C19.9398 5.57158 19.8147 5.26681 19.8147 4.90744C19.8147 4.55159 19.9398 4.24682 20.1899 3.99315C20.4436 3.743 20.7501 3.61792 21.1095 3.61792C21.4654 3.61792 21.7684 3.743 22.0185 3.99315C22.2722 4.24682 22.399 4.55159 22.399 4.90744ZM7.99235 11.1701C7.99235 11.1031 7.99411 11.0379 7.99763 10.9745C8.00468 10.9499 8.00997 10.9234 8.01349 10.8953C8.03463 10.7719 8.07514 10.6627 8.13504 10.5676C8.24779 10.3949 8.40633 10.3086 8.61068 10.3086C8.69172 10.3086 8.76042 10.3597 8.8168 10.4619C8.86612 10.55 8.89255 10.6469 8.89607 10.7526C8.89959 10.9886 8.83089 11.2229 8.68996 11.4555C8.55255 11.6704 8.38872 11.8113 8.19846 11.8782C8.14914 11.7796 8.10862 11.6933 8.07691 11.6193C8.02406 11.4784 7.99587 11.3286 7.99235 11.1701Z" fill="#91B4E0"/>
<path d="M7.99765 10.9747C7.99413 11.0382 7.99237 11.1033 7.99237 11.1703C7.99589 11.3288 8.02408 11.4786 8.07693 11.6195C8.10864 11.6935 8.14916 11.7798 8.19848 11.8785C8.38874 11.8115 8.55257 11.6706 8.68998 11.4557C8.83091 11.2231 8.89961 10.9888 8.89609 10.7528C8.89257 10.6471 8.86614 10.5502 8.81682 10.4621C8.76044 10.3599 8.69174 10.3088 8.6107 10.3088C8.40635 10.3088 8.24781 10.3952 8.13506 10.5678C8.07517 10.6629 8.03465 10.7721 8.01351 10.8955C8.00999 10.9237 8.0047 10.9501 7.99765 10.9747Z" fill="#14191C"/>
<path d="M57.3746 29.086C53.5244 27.7082 49.4726 26.8926 45.2193 26.6391C41.174 26.8551 37.6119 27.6796 34.5332 29.1125C34.6703 31.7941 33.7084 33.8993 31.6476 35.4279C31.6562 35.7323 31.9152 36.0565 32.4245 36.4004C30.3024 36.735 28.7962 35.9017 27.9059 33.9006C26.6264 31.0117 26.6299 25.6916 27.9165 17.9402C28.1103 16.7669 28.2723 15.9671 28.4027 15.5408C28.5718 14.9806 28.7268 14.4151 28.8678 13.8443C29.0087 13.2841 29.1408 12.7257 29.2641 12.169C29.3945 11.5947 29.4861 11.0116 29.539 10.4197C29.5953 9.82781 29.5883 9.23413 29.5178 8.6387C29.4473 8.07145 29.3311 7.50773 29.169 6.94753C29.0105 6.3979 28.8096 5.86236 28.5665 5.34091C28.3269 4.82299 28.0398 4.33325 27.7051 3.8717C27.3492 3.38197 26.9581 2.92923 26.5318 2.51348C26.1267 2.11887 25.6898 1.75598 25.2212 1.42479C24.7173 1.06894 24.1853 0.772982 23.6251 0.536922C23.0579 0.307909 22.4765 0.151124 21.8811 0.0665651C21.254 -0.0144703 20.6321 -0.0215174 20.0155 0.0454249C19.4342 0.108844 18.8581 0.228636 18.2874 0.404799C17.7236 0.57744 17.1863 0.8135 16.6755 1.11298C16.3316 1.32021 15.9969 1.54569 15.6713 1.78945C16.0352 1.60606 16.3946 1.45103 16.7495 1.32438C19.2352 0.434817 21.5483 0.926314 23.6885 2.79887C26.1348 5.32826 26.7267 8.26668 25.4643 11.6141C25.3198 12.1496 25.1243 12.6623 24.8777 13.152C24.6736 13.5582 24.4375 13.9405 24.1695 14.2988C24.0818 14.6293 23.9955 14.9588 23.9105 15.2871C23.7169 16.0351 23.5336 16.7856 23.3609 17.5385C22.4434 21.5462 21.818 25.6473 21.4847 29.8418C21.3297 32.3821 21.6873 34.8396 22.5576 37.2142C23.4384 39.6242 25.1014 41.2132 27.5465 41.9812C29.9635 42.7493 32.3558 42.6789 34.7235 41.7698C37.077 40.8679 39.2421 39.6189 41.2186 38.0228C42.6279 36.8883 44.2081 36.0709 45.9592 35.5706C52.081 34.3145 57.1299 36.2029 61.1058 41.2361C60.7303 40.4822 60.5946 39.6085 60.6988 38.6148C65.7634 40.7628 68.272 43.363 68.2246 46.4153C68.2283 46.6235 68.2107 46.8278 68.1717 47.0283C68.1323 47.2317 68.1147 47.3955 68.1189 47.5198C68.1268 47.6445 68.2237 47.6815 68.4095 47.6308C68.4659 47.5639 68.5364 47.4406 68.6209 47.2609C68.7161 47.0565 68.8024 46.8381 68.8799 46.6055C68.8975 46.5421 68.9133 46.4787 68.9274 46.4153C69.1773 45.7785 69.6001 45.25 70.1958 44.8298C70.4059 44.7075 70.5874 44.7533 70.7402 44.9672C71.1335 45.5208 71.2797 46.4967 71.1788 47.8951C71.21 48.0996 71.2963 48.1789 71.4378 48.1329C71.5826 48.087 71.8979 47.5779 72.3838 46.6055C72.8968 46.9601 73.2051 47.7211 73.3086 48.8886C73.2577 48.1376 73.1362 47.3342 72.944 46.4787C72.8229 45.938 72.6732 45.376 72.4948 44.7928C72.3256 44.1974 72.1248 43.6072 71.8923 43.0224C71.6703 42.4622 71.4378 41.9108 71.1947 41.3682C70.9516 40.8327 70.6838 40.3024 70.3914 39.7774C70.0884 39.2349 69.7642 38.7028 69.4189 38.1814C69.0772 37.6599 68.7055 37.1579 68.3038 36.6752C67.9163 36.2101 67.5128 35.7591 67.0936 35.3223C66.6637 34.8818 66.2304 34.4538 65.7935 34.038C65.3531 33.6258 64.8915 33.2365 64.4088 32.87C64.0248 32.5811 63.6355 32.294 63.2409 32.0086C61.4931 30.8313 59.5376 29.8571 57.3746 29.086Z" fill="#595247"/>
<path d="M76.4161 43.2127C76.7427 43.5918 76.9841 44.0833 77.1402 44.6872C78.4556 39.7398 78.0082 36.0456 75.7978 33.6048C73.1698 31.0895 70.4499 30.0044 67.6379 30.3492C67.0205 30.4261 66.3986 30.5705 65.7723 30.7826C65.7424 30.795 65.7124 30.8055 65.6825 30.8143C65.6639 30.8226 65.6446 30.8296 65.6243 30.8355C65.0352 31.0472 64.4416 31.3185 63.8433 31.6493L66.9191 34.091C67.0037 34.1685 67.0865 34.246 67.1675 34.3235C67.6185 34.7604 68.0378 35.2149 68.4253 35.687C68.8023 36.1486 69.1547 36.6207 69.4823 37.1034C69.817 37.5896 70.1429 38.0846 70.46 38.5884C70.7736 39.0887 71.0731 39.5943 71.3585 40.1052C71.6474 40.6231 71.931 41.1446 72.2093 41.6695C72.4842 42.1875 72.7537 42.716 73.0179 43.255C74.0024 43.6469 74.4992 44.5717 74.5083 46.0296C75.0344 44.9084 75.3885 43.7546 75.5706 42.568C75.7709 41.2717 75.7656 39.9364 75.5547 38.562C76.1702 39.8949 76.4574 41.4451 76.4161 43.2127Z" fill="#B48C6E"/>
<defs>
<linearGradient id="paint0_linear_1808_3440" x1="3.37734" y1="18.9404" x2="11.8887" y2="18.1133" gradientUnits="userSpaceOnUse">
<stop stop-color="#CE5A06"/>
<stop offset="1" stop-color="#E39107"/>
</linearGradient>
</defs>
</svg>
