<svg width="91" height="90" viewBox="0 0 91 90" fill="none" xmlns="http://www.w3.org/2000/svg">
<path d="M8.87327 28.6919C8.25082 29.5928 7.78398 30.5483 7.47276 31.5585C6.64828 34.2121 7.02503 36.7101 8.603 39.0525C10.0936 41.2693 11.4668 43.153 12.7226 44.7037C13.356 45.4735 13.8365 46.025 14.1641 46.3581L12.9274 26.759L10.5113 26.8819C9.94891 27.3242 9.4029 27.9275 8.87327 28.6919Z" fill="#8B583A"/>
<path d="M10.5113 12.0655L10.5768 11.1318C9.65955 11.1318 8.99342 11.2956 8.57845 11.6232C8.44195 11.7324 8.31637 11.8717 8.2017 12.0409C8.05974 12.2593 7.9833 12.374 7.97238 12.3849C7.84133 12.5378 7.94781 12.7972 8.29179 13.163C8.46106 13.3486 8.64397 13.5206 8.84054 13.679L10.5113 12.0655Z" fill="#070707"/>
<path d="M10.5113 26.8819C9.94891 27.3242 9.4029 27.9275 8.87327 28.6919C8.25082 29.5928 7.78398 30.5483 7.47276 31.5585C6.64828 34.2121 7.02503 36.7101 8.603 39.0525C10.0936 41.2693 11.4668 43.153 12.7226 44.7037C13.356 45.4735 13.8365 46.025 14.1641 46.3581L12.9274 26.759L10.5113 26.8819Z" stroke="#835539" stroke-width="0.00819015" stroke-linecap="round" stroke-linejoin="round"/>
<path d="M10.5768 11.1318C9.65955 11.1318 8.99342 11.2956 8.57845 11.6232C8.44195 11.7324 8.31637 11.8717 8.2017 12.0409C8.05974 12.2593 7.9833 12.374 7.97238 12.3849C7.84133 12.5378 7.94781 12.7972 8.29179 13.163C8.46106 13.3486 8.64397 13.5206 8.84054 13.679L10.5113 12.0655L10.5768 11.1318Z" stroke="#070707" stroke-width="0.00819015" stroke-linecap="round" stroke-linejoin="round"/>
<path d="M47.5517 61.6851L34.8521 77.1206L42.7991 74.2507M23.4359 81.2386L34.8521 77.1206" stroke="#B9605E" stroke-width="2.29324" stroke-linecap="round" stroke-linejoin="round"/>
<path d="M27.7479 77.0115L34.8522 77.1208L33.456 83.8055" stroke="#B9605E" stroke-width="2.29324" stroke-linecap="round" stroke-linejoin="round"/>
<path d="M35.987 56.2363L23.2874 71.6719L31.2343 68.8019M11.8712 75.7899L23.2874 71.6719" stroke="#B9605E" stroke-width="2.29324" stroke-linecap="round" stroke-linejoin="round"/>
<path d="M16.1832 71.5623L23.2875 71.6716L21.8913 78.3563" stroke="#B9605E" stroke-width="2.29324" stroke-linecap="round" stroke-linejoin="round"/>
<path d="M69.4145 53.7621C69.4909 54.2098 69.5701 54.7094 69.652 55.2609C70.9515 54.7804 72.1473 54.8377 73.2393 55.4329C75.2104 56.503 80.1163 59.2495 87.957 63.6722L88.301 63.8196C88.5904 63.9561 88.8825 64.1199 89.1773 64.311C89.3739 64.4366 89.5732 64.4802 89.7752 64.442C89.9991 64.3983 90.1274 64.2646 90.1601 64.0407C90.242 63.4128 89.5732 62.389 88.1535 60.9694C87.1216 59.9375 85.631 58.5342 83.6817 56.7597C81.252 54.5538 78.8523 52.4571 76.4826 50.4696C69.8213 44.8949 64.8853 41.4277 61.6748 40.0681C59.6109 37.4145 58.2131 35.64 57.4814 34.7445C55.5977 32.4404 53.8095 30.442 52.1169 28.7493C47.4376 24.0646 43.0176 21.1926 38.857 20.1333C37.9343 19.6637 37.4156 19.3935 37.3009 19.3225C36.9187 19.0986 36.5583 18.8229 36.2198 18.4953C35.9031 18.184 35.4199 17.6326 34.7701 16.8409C33.7819 15.6287 32.8919 14.5394 32.1001 13.573C30.8825 11.9568 29.5721 10.5918 28.1689 9.47791C26.4872 8.13473 24.7536 7.23381 22.9681 6.77516C18.5018 5.61762 14.0245 7.23927 9.53628 11.6401C8.99573 12.3281 8.63809 12.8659 8.46337 13.2536C8.2941 13.6303 8.23405 14.0262 8.28319 14.4411C8.30503 14.6268 8.41969 15.1428 8.62717 15.9891C8.85103 16.8791 9.02576 17.7636 9.15134 18.6427C9.49533 21.1216 9.69189 23.0272 9.74103 24.3594C9.79563 25.9156 9.6837 27.2888 9.40523 28.4791C8.20947 33.6443 8.16579 38.5093 9.27419 43.0739C10.257 47.1417 12.1244 50.7044 14.8763 53.7621C18.2561 57.5241 22.8999 60.4343 28.8077 62.4928C32.0892 63.6503 36.0069 64.1117 40.5606 63.8769C44.2461 63.6913 48.2539 63.0606 52.5837 61.985C55.7888 61.1878 58.9666 60.2023 62.1171 59.0283C62.8269 58.7663 63.4903 58.5096 64.1073 58.2585C64.0909 58.2475 64.0772 58.2366 64.0663 58.2257C63.7496 58.0128 63.4439 57.7889 63.149 57.5541L62.7887 57.2756L69.2343 52.7629L69.4145 53.7621ZM69.1033 55.4902C69.2889 55.4028 69.4718 55.3264 69.652 55.2609C69.5701 54.7094 69.4909 54.2098 69.4145 53.7621L69.2343 52.7629L62.7887 57.2756L63.149 57.5541C63.4439 57.7889 63.7496 58.0128 64.0663 58.2257C64.0772 58.2366 64.0909 58.2475 64.1073 58.2585C64.4512 58.1165 64.7816 57.98 65.0983 57.849C65.8135 57.5377 66.2531 57.3302 66.4169 57.2265C66.5916 57.1228 66.9547 56.8634 67.5062 56.4484C68.0849 56.0389 68.6173 55.7195 69.1033 55.4902ZM69.9386 57.3248C69.8404 56.5658 69.7448 55.8779 69.652 55.2609C69.4718 55.3264 69.2889 55.4028 69.1033 55.4902C68.6173 55.7195 68.0849 56.0389 67.5062 56.4484C66.9547 56.8634 66.5916 57.1228 66.4169 57.2265C66.2531 57.3302 65.8135 57.5377 65.0983 57.849C64.7816 57.98 64.4512 58.1165 64.1073 58.2585C65.0955 58.9246 65.9801 59.3751 66.7609 59.6098L67.2441 59.7081C67.6372 59.7573 67.9976 59.7491 68.3252 59.6835C69.3735 59.4597 69.9113 58.6734 69.9386 57.3248Z" fill="#CFCFCF"/>
<path d="M69.652 55.2605C69.7448 55.8775 69.8403 56.5655 69.9386 57.3244C69.9113 58.6731 69.3735 59.4593 68.3252 59.6832C67.9976 59.7487 67.6372 59.7569 67.2441 59.7078L66.7609 59.6095C65.9801 59.3747 65.0955 58.9242 64.1072 58.2581C64.4512 58.1161 64.7816 57.9796 65.0982 57.8486C65.8135 57.5374 66.2531 57.3299 66.4169 57.2261C66.5916 57.1224 66.9547 56.863 67.5062 56.4481C68.0849 56.0386 68.6173 55.7192 69.1032 55.4898C69.2889 55.4025 69.4718 55.326 69.652 55.2605Z" stroke="#CFCFCF" stroke-width="0.0163803" stroke-linecap="round" stroke-linejoin="round"/>
<mask id="mask0_1808_2963" style="mask-type:luminance" maskUnits="userSpaceOnUse" x="8" y="6" width="83" height="59">
<path d="M69.9386 57.3248C69.8404 56.5658 69.7448 55.8779 69.652 55.2609C69.4718 55.3264 69.2889 55.4028 69.1033 55.4902C68.6173 55.7195 68.0849 56.0389 67.5062 56.4484C66.9547 56.8634 66.5916 57.1228 66.4169 57.2265C66.2531 57.3302 65.8135 57.5377 65.0983 57.849C64.7816 57.98 64.4512 58.1165 64.1073 58.2585C65.0955 58.9246 65.9801 59.3751 66.7609 59.6098L67.2441 59.7081C67.6372 59.7573 67.9976 59.7491 68.3252 59.6835C69.3735 59.4597 69.9113 58.6734 69.9386 57.3248ZM69.2343 52.7629L69.4145 53.7621C69.4909 54.2098 69.5701 54.7094 69.652 55.2609C70.9515 54.7804 72.1473 54.8377 73.2393 55.4329C75.2104 56.503 80.1163 59.2495 87.957 63.6722L88.301 63.8196C88.5904 63.9561 88.8825 64.1199 89.1773 64.311C89.3739 64.4366 89.5732 64.4802 89.7752 64.442C89.9991 64.3983 90.1274 64.2646 90.1601 64.0407C90.242 63.4128 89.5732 62.389 88.1535 60.9694C87.1216 59.9375 85.631 58.5342 83.6817 56.7597C81.252 54.5538 78.8523 52.4571 76.4826 50.4696C69.8213 44.8949 64.8853 41.4277 61.6748 40.0681C59.6109 37.4145 58.2131 35.64 57.4814 34.7445C55.5977 32.4404 53.8095 30.442 52.1169 28.7493C47.4376 24.0646 43.0176 21.1926 38.857 20.1333C37.9343 19.6637 37.4156 19.3935 37.3009 19.3225C36.9187 19.0986 36.5583 18.8229 36.2198 18.4953C35.9031 18.184 35.4199 17.6326 34.7701 16.8409C33.7819 15.6287 32.8919 14.5394 32.1001 13.573C30.8825 11.9568 29.5721 10.5918 28.1689 9.47791C26.4872 8.13473 24.7536 7.23381 22.9681 6.77516C18.5018 5.61762 14.0245 7.23927 9.53628 11.6401C8.99573 12.3281 8.63809 12.8659 8.46337 13.2536C8.2941 13.6303 8.23405 14.0262 8.28319 14.4411C8.30503 14.6268 8.41969 15.1428 8.62717 15.9891C8.85103 16.8791 9.02576 17.7636 9.15134 18.6427C9.49533 21.1216 9.69189 23.0272 9.74103 24.3594C9.79563 25.9156 9.6837 27.2888 9.40523 28.4791C8.20947 33.6443 8.16579 38.5093 9.27419 43.0739C10.257 47.1417 12.1244 50.7044 14.8763 53.7621C18.2561 57.5241 22.8999 60.4343 28.8077 62.4928C32.0892 63.6503 36.0069 64.1117 40.5606 63.8769C44.2461 63.6913 48.2539 63.0606 52.5837 61.985C55.7888 61.1878 58.9666 60.2023 62.1171 59.0283C62.8269 58.7663 63.4903 58.5096 64.1073 58.2585C64.0909 58.2475 64.0772 58.2366 64.0663 58.2257C63.7496 58.0128 63.4439 57.7889 63.149 57.5541L62.7887 57.2756L69.2343 52.7629ZM69.4145 53.7621L69.2343 52.7629L62.7887 57.2756L63.149 57.5541C63.4439 57.7889 63.7496 58.0128 64.0663 58.2257C64.0772 58.2366 64.0909 58.2475 64.1073 58.2585C64.4512 58.1165 64.7816 57.98 65.0983 57.849C65.8135 57.5377 66.2531 57.3302 66.4169 57.2265C66.5916 57.1228 66.9547 56.8634 67.5062 56.4484C68.0849 56.0389 68.6173 55.7195 69.1033 55.4902C69.2889 55.4028 69.4718 55.3264 69.652 55.2609C69.5701 54.7094 69.4909 54.2098 69.4145 53.7621Z" fill="white"/>
</mask>
<g mask="url(#mask0_1808_2963)">
<path d="M28.128 24.0071C29.0507 23.128 30.0909 22.4346 31.2484 21.9268C31.8327 21.6756 32.3213 21.5118 32.7145 21.4354L24.1558 4.50635L9.51996 5.16975L0.215942 20.9931L4.23731 40.0844L9.38892 45.1131C12.25 49.0662 14.5023 51.5014 16.1458 52.4187C16.7846 52.7736 17.4426 52.9675 18.1196 53.0002C18.5182 53.0166 19.1215 52.992 19.9296 52.9265C20.634 52.9101 21.2837 52.659 21.8789 52.173C22.5778 51.6052 23.1566 50.7425 23.6152 49.5849C24.7345 46.7239 25.0157 42.3394 24.4588 36.4316C24.1749 33.423 24.4315 30.794 25.2287 28.5444C25.862 26.7481 26.8285 25.2356 28.128 24.0071Z" fill="#DB6D09"/>
<path d="M9.38892 45.1131C12.25 49.0662 14.5023 51.5014 16.1458 52.4187C16.7846 52.7736 17.4426 52.9675 18.1196 53.0002C18.5182 53.0166 19.1215 52.992 19.9296 52.9265C20.634 52.9101 21.2837 52.659 21.8789 52.173C22.5778 51.6052 23.1566 50.7425 23.6152 49.5849C24.7345 46.7239 25.0157 42.3394 24.4588 36.4316C24.1749 33.423 24.4315 30.794 25.2287 28.5444C25.862 26.7481 26.8285 25.2356 28.128 24.0071C29.0507 23.128 30.0909 22.4346 31.2484 21.9268C31.8327 21.6756 32.3213 21.5118 32.7145 21.4354L24.1558 4.50635L9.51996 5.16975L0.215942 20.9931L4.23731 40.0844L9.38892 45.1131Z" stroke="#DB6D09" stroke-width="0.0163803" stroke-linecap="round" stroke-linejoin="round"/>
</g>
<mask id="mask1_1808_2963" style="mask-type:luminance" maskUnits="userSpaceOnUse" x="8" y="6" width="83" height="59">
<path d="M69.9386 57.3248C69.8404 56.5658 69.7448 55.8779 69.652 55.2609C69.4718 55.3264 69.2889 55.4028 69.1033 55.4902C68.6173 55.7195 68.0849 56.0389 67.5062 56.4484C66.9547 56.8634 66.5916 57.1228 66.4169 57.2265C66.2531 57.3302 65.8135 57.5377 65.0983 57.849C64.7816 57.98 64.4512 58.1165 64.1073 58.2585C65.0955 58.9246 65.9801 59.3751 66.7609 59.6098L67.2441 59.7081C67.6372 59.7573 67.9976 59.7491 68.3252 59.6835C69.3735 59.4597 69.9113 58.6734 69.9386 57.3248ZM69.2343 52.7629L69.4145 53.7621C69.4909 54.2098 69.5701 54.7094 69.652 55.2609C70.9515 54.7804 72.1473 54.8377 73.2393 55.4329C75.2104 56.503 80.1163 59.2495 87.957 63.6722L88.301 63.8196C88.5904 63.9561 88.8825 64.1199 89.1773 64.311C89.3739 64.4366 89.5732 64.4802 89.7752 64.442C89.9991 64.3983 90.1274 64.2646 90.1601 64.0407C90.242 63.4128 89.5732 62.389 88.1535 60.9694C87.1216 59.9375 85.631 58.5342 83.6817 56.7597C81.252 54.5538 78.8523 52.4571 76.4826 50.4696C69.8213 44.8949 64.8853 41.4277 61.6748 40.0681C59.6109 37.4145 58.2131 35.64 57.4814 34.7445C55.5977 32.4404 53.8095 30.442 52.1169 28.7493C47.4376 24.0646 43.0176 21.1926 38.857 20.1333C37.9343 19.6637 37.4156 19.3935 37.3009 19.3225C36.9187 19.0986 36.5583 18.8229 36.2198 18.4953C35.9031 18.184 35.4199 17.6326 34.7701 16.8409C33.7819 15.6287 32.8919 14.5394 32.1001 13.573C30.8825 11.9568 29.5721 10.5918 28.1689 9.47791C26.4872 8.13473 24.7536 7.23381 22.9681 6.77516C18.5018 5.61762 14.0245 7.23927 9.53628 11.6401C8.99573 12.3281 8.63809 12.8659 8.46337 13.2536C8.2941 13.6303 8.23405 14.0262 8.28319 14.4411C8.30503 14.6268 8.41969 15.1428 8.62717 15.9891C8.85103 16.8791 9.02576 17.7636 9.15134 18.6427C9.49533 21.1216 9.69189 23.0272 9.74103 24.3594C9.79563 25.9156 9.6837 27.2888 9.40523 28.4791C8.20947 33.6443 8.16579 38.5093 9.27419 43.0739C10.257 47.1417 12.1244 50.7044 14.8763 53.7621C18.2561 57.5241 22.8999 60.4343 28.8077 62.4928C32.0892 63.6503 36.0069 64.1117 40.5606 63.8769C44.2461 63.6913 48.2539 63.0606 52.5837 61.985C55.7888 61.1878 58.9666 60.2023 62.1171 59.0283C62.8269 58.7663 63.4903 58.5096 64.1073 58.2585C64.0909 58.2475 64.0772 58.2366 64.0663 58.2257C63.7496 58.0128 63.4439 57.7889 63.149 57.5541L62.7887 57.2756L69.2343 52.7629ZM69.4145 53.7621L69.2343 52.7629L62.7887 57.2756L63.149 57.5541C63.4439 57.7889 63.7496 58.0128 64.0663 58.2257C64.0772 58.2366 64.0909 58.2475 64.1073 58.2585C64.4512 58.1165 64.7816 57.98 65.0983 57.849C65.8135 57.5377 66.2531 57.3302 66.4169 57.2265C66.5916 57.1228 66.9547 56.8634 67.5062 56.4484C68.0849 56.0389 68.6173 55.7195 69.1033 55.4902C69.2889 55.4028 69.4718 55.3264 69.652 55.2609C69.5701 54.7094 69.4909 54.2098 69.4145 53.7621Z" fill="white"/>
</mask>
<g mask="url(#mask1_1808_2963)">
<path d="M50.4051 53.9746C50.5634 53.9746 50.7818 54.062 51.0603 54.2367C51.3224 54.406 52.4308 54.9383 54.3855 55.8338C56.4003 56.7511 57.7899 57.3572 58.5543 57.652C59.275 57.9305 59.8702 57.865 60.3397 57.4555C60.6837 57.1606 60.9376 56.7101 61.1014 56.1041C61.2052 55.7164 55.7696 51.878 44.7948 44.5887C41.3713 42.3119 37.593 39.8248 33.4597 37.1275L28.3081 33.7695L23.8444 35.7515C38.6358 47.4962 46.5284 53.7426 47.5221 54.4906C48.1828 54.982 48.7234 55.1677 49.1438 55.0475C49.4223 54.9711 49.668 54.7418 49.8809 54.3596C50.0229 54.1029 50.1976 53.9746 50.4051 53.9746Z" fill="#B9605E" fill-opacity="0.439216"/>
<path d="M18.0377 12.762C17.5682 13.2261 17.3334 13.7885 17.3334 14.4491C17.3334 15.1098 17.5682 15.6749 18.0377 16.1445C18.5073 16.6141 19.0724 16.8489 19.7331 16.8489C20.3938 16.8489 20.9561 16.6141 21.4203 16.1445C21.8898 15.6749 22.1246 15.1098 22.1246 14.4491C22.1246 13.7885 21.8898 13.2261 21.4203 12.762C20.9561 12.2924 20.3938 12.0576 19.7331 12.0576C19.0724 12.0576 18.5073 12.2924 18.0377 12.762Z" fill="#070707"/>
</g>
<mask id="mask2_1808_2963" style="mask-type:luminance" maskUnits="userSpaceOnUse" x="8" y="6" width="83" height="59">
<path d="M69.9386 57.3248C69.8404 56.5658 69.7448 55.8779 69.652 55.2609C69.4718 55.3264 69.2889 55.4028 69.1033 55.4902C68.6173 55.7195 68.0849 56.0389 67.5062 56.4484C66.9547 56.8634 66.5916 57.1228 66.4169 57.2265C66.2531 57.3302 65.8135 57.5377 65.0983 57.849C64.7816 57.98 64.4512 58.1165 64.1073 58.2585C65.0955 58.9246 65.9801 59.3751 66.7609 59.6098L67.2441 59.7081C67.6372 59.7573 67.9976 59.7491 68.3252 59.6835C69.3735 59.4597 69.9113 58.6734 69.9386 57.3248ZM69.2343 52.7629L69.4145 53.7621C69.4909 54.2098 69.5701 54.7094 69.652 55.2609C70.9515 54.7804 72.1473 54.8377 73.2393 55.4329C75.2104 56.503 80.1163 59.2495 87.957 63.6722L88.301 63.8196C88.5904 63.9561 88.8825 64.1199 89.1773 64.311C89.3739 64.4366 89.5732 64.4802 89.7752 64.442C89.9991 64.3983 90.1274 64.2646 90.1601 64.0407C90.242 63.4128 89.5732 62.389 88.1535 60.9694C87.1216 59.9375 85.631 58.5342 83.6817 56.7597C81.252 54.5538 78.8523 52.4571 76.4826 50.4696C69.8213 44.8949 64.8853 41.4277 61.6748 40.0681C59.6109 37.4145 58.2131 35.64 57.4814 34.7445C55.5977 32.4404 53.8095 30.442 52.1169 28.7493C47.4376 24.0646 43.0176 21.1926 38.857 20.1333C37.9343 19.6637 37.4156 19.3935 37.3009 19.3225C36.9187 19.0986 36.5583 18.8229 36.2198 18.4953C35.9031 18.184 35.4199 17.6326 34.7701 16.8409C33.7819 15.6287 32.8919 14.5394 32.1001 13.573C30.8825 11.9568 29.5721 10.5918 28.1689 9.47791C26.4872 8.13473 24.7536 7.23381 22.9681 6.77516C18.5018 5.61762 14.0245 7.23927 9.53628 11.6401C8.99573 12.3281 8.63809 12.8659 8.46337 13.2536C8.2941 13.6303 8.23405 14.0262 8.28319 14.4411C8.30503 14.6268 8.41969 15.1428 8.62717 15.9891C8.85103 16.8791 9.02576 17.7636 9.15134 18.6427C9.49533 21.1216 9.69189 23.0272 9.74103 24.3594C9.79563 25.9156 9.6837 27.2888 9.40523 28.4791C8.20947 33.6443 8.16579 38.5093 9.27419 43.0739C10.257 47.1417 12.1244 50.7044 14.8763 53.7621C18.2561 57.5241 22.8999 60.4343 28.8077 62.4928C32.0892 63.6503 36.0069 64.1117 40.5606 63.8769C44.2461 63.6913 48.2539 63.0606 52.5837 61.985C55.7888 61.1878 58.9666 60.2023 62.1171 59.0283C62.8269 58.7663 63.4903 58.5096 64.1073 58.2585C64.0909 58.2475 64.0772 58.2366 64.0663 58.2257C63.7496 58.0128 63.4439 57.7889 63.149 57.5541L62.7887 57.2756L69.2343 52.7629ZM69.4145 53.7621L69.2343 52.7629L62.7887 57.2756L63.149 57.5541C63.4439 57.7889 63.7496 58.0128 64.0663 58.2257C64.0772 58.2366 64.0909 58.2475 64.1073 58.2585C64.4512 58.1165 64.7816 57.98 65.0983 57.849C65.8135 57.5377 66.2531 57.3302 66.4169 57.2265C66.5916 57.1228 66.9547 56.8634 67.5062 56.4484C68.0849 56.0389 68.6173 55.7195 69.1033 55.4902C69.2889 55.4028 69.4718 55.3264 69.652 55.2609C69.5701 54.7094 69.4909 54.2098 69.4145 53.7621Z" fill="white"/>
</mask>
<g mask="url(#mask2_1808_2963)">
<path d="M68.1696 51.1487C69.955 51.9622 71.0525 52.4673 71.462 52.6639C73.4768 53.6139 75.3632 54.5776 77.1214 55.555C82.4941 58.5362 86.3462 61.3973 88.6777 64.1383C90.9764 66.8465 93.2915 69.1124 95.623 70.9361C96.786 71.8425 97.7196 72.4813 98.424 72.8526L91.9865 22.6797L38.2182 4.66138L9.13494 5.17736L8.79095 9.9686C9.73009 9.9686 11.0432 10.1652 12.7304 10.5583C14.4613 10.9623 15.7499 11.3855 16.5962 11.8278C17.164 11.5056 17.8356 11.2845 18.6109 11.1644C19.4955 11.0279 20.2845 11.077 20.9779 11.3118C21.8078 11.5902 22.4139 12.109 22.7961 12.8679C23.2384 13.7579 23.3476 14.9455 23.1237 16.4306C25.3569 17.812 26.6837 19.39 27.1041 21.1645C27.5628 23.1192 26.8557 25.1095 24.9829 27.1352C23.5305 28.7623 22.777 30.3566 22.7224 31.9182C22.6514 33.9002 23.7353 35.7102 25.9739 37.3483C28.1689 38.9535 32.2284 41.8256 38.1526 45.9643C43.6291 49.7864 46.7578 51.9513 47.5386 52.4591C48.2265 52.9068 48.8026 53.0215 49.2667 52.8031C49.8182 52.541 50.0557 51.8257 49.9792 50.6573C50.9347 51.1432 53.9105 52.683 58.9065 55.2765C63.553 57.6735 66.1493 58.9757 66.6953 59.1832C67.0339 59.3143 67.3806 59.3716 67.7355 59.3552C68.0959 59.3334 68.418 59.2378 68.7019 59.0686C69.368 58.67 69.6629 58.0038 69.5865 57.0702C69.5209 56.2293 69.3189 55.1837 68.9804 53.9333C68.5818 52.5792 68.3115 51.651 68.1696 51.1487Z" fill="#815439"/>
<path d="M8.79095 9.9686C9.73009 9.9686 11.0432 10.1652 12.7304 10.5583C14.4613 10.9623 15.7499 11.3855 16.5962 11.8278C17.164 11.5056 17.8356 11.2845 18.6109 11.1644C19.4955 11.0279 20.2845 11.077 20.9779 11.3118C21.8078 11.5902 22.4139 12.109 22.7961 12.8679C23.2384 13.7579 23.3476 14.9455 23.1237 16.4306C25.3569 17.812 26.6837 19.39 27.1041 21.1645C27.5628 23.1192 26.8557 25.1095 24.9829 27.1352C23.5305 28.7623 22.777 30.3566 22.7224 31.9182C22.6514 33.9002 23.7353 35.7102 25.9739 37.3483C28.1689 38.9535 32.2284 41.8256 38.1526 45.9643C43.6291 49.7864 46.7578 51.9513 47.5386 52.4591C48.2265 52.9068 48.8026 53.0215 49.2667 52.8031C49.8182 52.541 50.0557 51.8257 49.9792 50.6573C50.9347 51.1432 53.9105 52.683 58.9065 55.2765C63.553 57.6735 66.1493 58.9757 66.6953 59.1832C67.0339 59.3143 67.3806 59.3716 67.7355 59.3552C68.0959 59.3334 68.418 59.2378 68.7019 59.0686C69.368 58.67 69.6629 58.0038 69.5865 57.0702C69.5209 56.2293 69.3189 55.1837 68.9804 53.9333C68.5818 52.5792 68.3115 51.651 68.1696 51.1487C69.955 51.9622 71.0525 52.4673 71.462 52.6639C73.4768 53.6139 75.3632 54.5776 77.1214 55.555C82.4941 58.5362 86.3462 61.3973 88.6777 64.1383C90.9764 66.8465 93.2915 69.1124 95.623 70.9361C96.786 71.8425 97.7196 72.4813 98.424 72.8526L91.9865 22.6797L38.2182 4.66138L9.13494 5.17736L8.79095 9.9686Z" stroke="#815439" stroke-width="1.63803" stroke-linecap="round" stroke-linejoin="round"/>
</g>
<mask id="mask3_1808_2963" style="mask-type:luminance" maskUnits="userSpaceOnUse" x="8" y="6" width="83" height="59">
<path d="M69.9386 57.3248C69.8404 56.5658 69.7448 55.8779 69.652 55.2609C69.4718 55.3264 69.2889 55.4028 69.1033 55.4902C68.6173 55.7195 68.0849 56.0389 67.5062 56.4484C66.9547 56.8634 66.5916 57.1228 66.4169 57.2265C66.2531 57.3302 65.8135 57.5377 65.0983 57.849C64.7816 57.98 64.4512 58.1165 64.1073 58.2585C65.0955 58.9246 65.9801 59.3751 66.7609 59.6098L67.2441 59.7081C67.6372 59.7573 67.9976 59.7491 68.3252 59.6835C69.3735 59.4597 69.9113 58.6734 69.9386 57.3248ZM69.2343 52.7629L69.4145 53.7621C69.4909 54.2098 69.5701 54.7094 69.652 55.2609C70.9515 54.7804 72.1473 54.8377 73.2393 55.4329C75.2104 56.503 80.1163 59.2495 87.957 63.6722L88.301 63.8196C88.5904 63.9561 88.8825 64.1199 89.1773 64.311C89.3739 64.4366 89.5732 64.4802 89.7752 64.442C89.9991 64.3983 90.1274 64.2646 90.1601 64.0407C90.242 63.4128 89.5732 62.389 88.1535 60.9694C87.1216 59.9375 85.631 58.5342 83.6817 56.7597C81.252 54.5538 78.8523 52.4571 76.4826 50.4696C69.8213 44.8949 64.8853 41.4277 61.6748 40.0681C59.6109 37.4145 58.2131 35.64 57.4814 34.7445C55.5977 32.4404 53.8095 30.442 52.1169 28.7493C47.4376 24.0646 43.0176 21.1926 38.857 20.1333C37.9343 19.6637 37.4156 19.3935 37.3009 19.3225C36.9187 19.0986 36.5583 18.8229 36.2198 18.4953C35.9031 18.184 35.4199 17.6326 34.7701 16.8409C33.7819 15.6287 32.8919 14.5394 32.1001 13.573C30.8825 11.9568 29.5721 10.5918 28.1689 9.47791C26.4872 8.13473 24.7536 7.23381 22.9681 6.77516C18.5018 5.61762 14.0245 7.23927 9.53628 11.6401C8.99573 12.3281 8.63809 12.8659 8.46337 13.2536C8.2941 13.6303 8.23405 14.0262 8.28319 14.4411C8.30503 14.6268 8.41969 15.1428 8.62717 15.9891C8.85103 16.8791 9.02576 17.7636 9.15134 18.6427C9.49533 21.1216 9.69189 23.0272 9.74103 24.3594C9.79563 25.9156 9.6837 27.2888 9.40523 28.4791C8.20947 33.6443 8.16579 38.5093 9.27419 43.0739C10.257 47.1417 12.1244 50.7044 14.8763 53.7621C18.2561 57.5241 22.8999 60.4343 28.8077 62.4928C32.0892 63.6503 36.0069 64.1117 40.5606 63.8769C44.2461 63.6913 48.2539 63.0606 52.5837 61.985C55.7888 61.1878 58.9666 60.2023 62.1171 59.0283C62.8269 58.7663 63.4903 58.5096 64.1073 58.2585C64.0909 58.2475 64.0772 58.2366 64.0663 58.2257C63.7496 58.0128 63.4439 57.7889 63.149 57.5541L62.7887 57.2756L69.2343 52.7629ZM69.4145 53.7621L69.2343 52.7629L62.7887 57.2756L63.149 57.5541C63.4439 57.7889 63.7496 58.0128 64.0663 58.2257C64.0772 58.2366 64.0909 58.2475 64.1073 58.2585C64.4512 58.1165 64.7816 57.98 65.0983 57.849C65.8135 57.5377 66.2531 57.3302 66.4169 57.2265C66.5916 57.1228 66.9547 56.8634 67.5062 56.4484C68.0849 56.0389 68.6173 55.7195 69.1033 55.4902C69.2889 55.4028 69.4718 55.3264 69.652 55.2609C69.5701 54.7094 69.4909 54.2098 69.4145 53.7621Z" fill="white"/>
</mask>
<g mask="url(#mask3_1808_2963)">
<path d="M66.5645 60.9035L70.8807 59.028L69.6522 55.2605L64.0501 58.34L66.5645 60.9035Z" fill="#815439"/>
<path d="M64.0501 58.34L69.6522 55.2605L70.8807 59.028L66.5645 60.9035L64.0501 58.34Z" stroke="#815439" stroke-width="0.0163803" stroke-linecap="round" stroke-linejoin="round"/>
</g>
<mask id="mask4_1808_2963" style="mask-type:luminance" maskUnits="userSpaceOnUse" x="8" y="6" width="83" height="59">
<path d="M69.9386 57.3248C69.8404 56.5658 69.7448 55.8779 69.652 55.2609C69.4718 55.3264 69.2889 55.4028 69.1033 55.4902C68.6173 55.7195 68.0849 56.0389 67.5062 56.4484C66.9547 56.8634 66.5916 57.1228 66.4169 57.2265C66.2531 57.3302 65.8135 57.5377 65.0983 57.849C64.7816 57.98 64.4512 58.1165 64.1073 58.2585C65.0955 58.9246 65.9801 59.3751 66.7609 59.6098L67.2441 59.7081C67.6372 59.7573 67.9976 59.7491 68.3252 59.6835C69.3735 59.4597 69.9113 58.6734 69.9386 57.3248ZM69.2343 52.7629L69.4145 53.7621C69.4909 54.2098 69.5701 54.7094 69.652 55.2609C70.9515 54.7804 72.1473 54.8377 73.2393 55.4329C75.2104 56.503 80.1163 59.2495 87.957 63.6722L88.301 63.8196C88.5904 63.9561 88.8825 64.1199 89.1773 64.311C89.3739 64.4366 89.5732 64.4802 89.7752 64.442C89.9991 64.3983 90.1274 64.2646 90.1601 64.0407C90.242 63.4128 89.5732 62.389 88.1535 60.9694C87.1216 59.9375 85.631 58.5342 83.6817 56.7597C81.252 54.5538 78.8523 52.4571 76.4826 50.4696C69.8213 44.8949 64.8853 41.4277 61.6748 40.0681C59.6109 37.4145 58.2131 35.64 57.4814 34.7445C55.5977 32.4404 53.8095 30.442 52.1169 28.7493C47.4376 24.0646 43.0176 21.1926 38.857 20.1333C37.9343 19.6637 37.4156 19.3935 37.3009 19.3225C36.9187 19.0986 36.5583 18.8229 36.2198 18.4953C35.9031 18.184 35.4199 17.6326 34.7701 16.8409C33.7819 15.6287 32.8919 14.5394 32.1001 13.573C30.8825 11.9568 29.5721 10.5918 28.1689 9.47791C26.4872 8.13473 24.7536 7.23381 22.9681 6.77516C18.5018 5.61762 14.0245 7.23927 9.53628 11.6401C8.99573 12.3281 8.63809 12.8659 8.46337 13.2536C8.2941 13.6303 8.23405 14.0262 8.28319 14.4411C8.30503 14.6268 8.41969 15.1428 8.62717 15.9891C8.85103 16.8791 9.02576 17.7636 9.15134 18.6427C9.49533 21.1216 9.69189 23.0272 9.74103 24.3594C9.79563 25.9156 9.6837 27.2888 9.40523 28.4791C8.20947 33.6443 8.16579 38.5093 9.27419 43.0739C10.257 47.1417 12.1244 50.7044 14.8763 53.7621C18.2561 57.5241 22.8999 60.4343 28.8077 62.4928C32.0892 63.6503 36.0069 64.1117 40.5606 63.8769C44.2461 63.6913 48.2539 63.0606 52.5837 61.985C55.7888 61.1878 58.9666 60.2023 62.1171 59.0283C62.8269 58.7663 63.4903 58.5096 64.1073 58.2585C64.0909 58.2475 64.0772 58.2366 64.0663 58.2257C63.7496 58.0128 63.4439 57.7889 63.149 57.5541L62.7887 57.2756L69.2343 52.7629ZM69.4145 53.7621L69.2343 52.7629L62.7887 57.2756L63.149 57.5541C63.4439 57.7889 63.7496 58.0128 64.0663 58.2257C64.0772 58.2366 64.0909 58.2475 64.1073 58.2585C64.4512 58.1165 64.7816 57.98 65.0983 57.849C65.8135 57.5377 66.2531 57.3302 66.4169 57.2265C66.5916 57.1228 66.9547 56.8634 67.5062 56.4484C68.0849 56.0389 68.6173 55.7195 69.1033 55.4902C69.2889 55.4028 69.4718 55.3264 69.652 55.2609C69.5701 54.7094 69.4909 54.2098 69.4145 53.7621Z" fill="white"/>
</mask>
<g mask="url(#mask4_1808_2963)">
<path d="M10.2244 42.1884C9.80401 40.5995 9.42726 38.6721 9.09419 36.4062C8.77205 33.971 8.52362 32.2155 8.34889 31.1399L7.5954 52.1067L37.3666 68.9702L38.4068 68.8146C39.2858 68.6726 40.2059 68.5143 41.1668 68.3396C44.2245 67.7717 47.0555 67.1329 49.66 66.4231C53.3074 65.4239 56.2422 64.3455 58.4644 63.188C61.2382 61.7465 62.8161 60.2231 63.1983 58.6179C50.5691 60.8074 40.2277 61.296 32.174 60.0839C25.3162 59.0519 20.039 56.7669 16.3425 53.2287C14.77 51.7218 13.4595 49.9691 12.4112 47.9707C11.5212 46.278 10.7923 44.3506 10.2244 42.1884Z" fill="#B9605E" fill-opacity="0.317647"/>
</g>
<mask id="mask5_1808_2963" style="mask-type:luminance" maskUnits="userSpaceOnUse" x="8" y="6" width="83" height="59">
<path d="M69.9386 57.3248C69.8404 56.5658 69.7448 55.8779 69.652 55.2609C69.4718 55.3264 69.2889 55.4028 69.1033 55.4902C68.6173 55.7195 68.0849 56.0389 67.5062 56.4484C66.9547 56.8634 66.5916 57.1228 66.4169 57.2265C66.2531 57.3302 65.8135 57.5377 65.0983 57.849C64.7816 57.98 64.4512 58.1165 64.1073 58.2585C65.0955 58.9246 65.9801 59.3751 66.7609 59.6098L67.2441 59.7081C67.6372 59.7573 67.9976 59.7491 68.3252 59.6835C69.3735 59.4597 69.9113 58.6734 69.9386 57.3248ZM69.2343 52.7629L69.4145 53.7621C69.4909 54.2098 69.5701 54.7094 69.652 55.2609C70.9515 54.7804 72.1473 54.8377 73.2393 55.4329C75.2104 56.503 80.1163 59.2495 87.957 63.6722L88.301 63.8196C88.5904 63.9561 88.8825 64.1199 89.1773 64.311C89.3739 64.4366 89.5732 64.4802 89.7752 64.442C89.9991 64.3983 90.1274 64.2646 90.1601 64.0407C90.242 63.4128 89.5732 62.389 88.1535 60.9694C87.1216 59.9375 85.631 58.5342 83.6817 56.7597C81.252 54.5538 78.8523 52.4571 76.4826 50.4696C69.8213 44.8949 64.8853 41.4277 61.6748 40.0681C59.6109 37.4145 58.2131 35.64 57.4814 34.7445C55.5977 32.4404 53.8095 30.442 52.1169 28.7493C47.4376 24.0646 43.0176 21.1926 38.857 20.1333C37.9343 19.6637 37.4156 19.3935 37.3009 19.3225C36.9187 19.0986 36.5583 18.8229 36.2198 18.4953C35.9031 18.184 35.4199 17.6326 34.7701 16.8409C33.7819 15.6287 32.8919 14.5394 32.1001 13.573C30.8825 11.9568 29.5721 10.5918 28.1689 9.47791C26.4872 8.13473 24.7536 7.23381 22.9681 6.77516C18.5018 5.61762 14.0245 7.23927 9.53628 11.6401C8.99573 12.3281 8.63809 12.8659 8.46337 13.2536C8.2941 13.6303 8.23405 14.0262 8.28319 14.4411C8.30503 14.6268 8.41969 15.1428 8.62717 15.9891C8.85103 16.8791 9.02576 17.7636 9.15134 18.6427C9.49533 21.1216 9.69189 23.0272 9.74103 24.3594C9.79563 25.9156 9.6837 27.2888 9.40523 28.4791C8.20947 33.6443 8.16579 38.5093 9.27419 43.0739C10.257 47.1417 12.1244 50.7044 14.8763 53.7621C18.2561 57.5241 22.8999 60.4343 28.8077 62.4928C32.0892 63.6503 36.0069 64.1117 40.5606 63.8769C44.2461 63.6913 48.2539 63.0606 52.5837 61.985C55.7888 61.1878 58.9666 60.2023 62.1171 59.0283C62.8269 58.7663 63.4903 58.5096 64.1073 58.2585C64.0909 58.2475 64.0772 58.2366 64.0663 58.2257C63.7496 58.0128 63.4439 57.7889 63.149 57.5541L62.7887 57.2756L69.2343 52.7629ZM69.4145 53.7621L69.2343 52.7629L62.7887 57.2756L63.149 57.5541C63.4439 57.7889 63.7496 58.0128 64.0663 58.2257C64.0772 58.2366 64.0909 58.2475 64.1073 58.2585C64.4512 58.1165 64.7816 57.98 65.0983 57.849C65.8135 57.5377 66.2531 57.3302 66.4169 57.2265C66.5916 57.1228 66.9547 56.8634 67.5062 56.4484C68.0849 56.0389 68.6173 55.7195 69.1033 55.4902C69.2889 55.4028 69.4718 55.3264 69.652 55.2609C69.5701 54.7094 69.4909 54.2098 69.4145 53.7621Z" fill="white"/>
</mask>
<g mask="url(#mask5_1808_2963)">
<path d="M12.7879 21.0669C13.8362 20.0404 14.4177 18.7327 14.5324 17.1438L7.90656 16.5869C7.69908 17.5479 7.6008 18.5143 7.61172 19.4862C7.6281 21.43 8.17957 22.4292 9.26613 22.4838C9.91588 22.5111 10.5465 22.4019 11.1581 22.1562C11.7587 21.9105 12.3019 21.5474 12.7879 21.0669Z" fill="#B9605E" fill-opacity="0.317647"/>
</g>
<path d="M13.9264 15.4976C13.6534 15.4212 13.1729 15.129 12.4849 14.6213C11.8625 14.1571 11.4448 13.805 11.2318 13.5647C10.8496 13.1443 10.634 12.915 10.5848 12.8768C10.2736 12.6037 9.93233 12.4591 9.56104 12.4427C5.76081 12.2079 2.73864 12.6993 0.49454 13.9169C0.216075 14.0589 0.115064 14.2281 0.191506 14.4247C0.267947 14.6103 0.513649 14.8042 0.928617 15.0062C1.85683 15.4594 3.32014 15.8252 5.31854 16.1037C6.16486 16.4695 6.80369 16.7289 7.23503 16.8817C7.89571 17.1274 8.52089 17.3104 9.11058 17.4305C10.4701 17.7089 12.0454 17.7171 13.8363 17.455C14.1857 17.4114 14.4315 17.2885 14.5734 17.0865C14.6935 16.9172 14.729 16.7097 14.6799 16.464C14.6362 16.2456 14.5379 16.0381 14.385 15.8416C14.2376 15.6505 14.0847 15.5358 13.9264 15.4976Z" fill="#323232"/>
<path d="M9.56104 12.4427C5.76081 12.2079 2.73864 12.6993 0.49454 13.9169C0.216075 14.0589 0.115064 14.2281 0.191506 14.4247C0.267947 14.6103 0.513649 14.8042 0.928617 15.0062C1.85683 15.4594 3.32014 15.8252 5.31854 16.1037C6.16486 16.4695 6.80369 16.7289 7.23503 16.8817C7.89571 17.1274 8.52089 17.3104 9.11058 17.4305C10.4701 17.7089 12.0454 17.7171 13.8363 17.455C14.1857 17.4114 14.4315 17.2885 14.5734 17.0865C14.6935 16.9172 14.729 16.7097 14.6799 16.464C14.6362 16.2456 14.5379 16.0381 14.385 15.8416C14.2376 15.6505 14.0847 15.5358 13.9264 15.4976C13.6534 15.4212 13.1729 15.129 12.4849 14.6213C11.8625 14.1571 11.4448 13.805 11.2318 13.5647C10.8496 13.1443 10.634 12.915 10.5848 12.8768C10.2736 12.6037 9.93233 12.4591 9.56104 12.4427Z" stroke="#9498A8" stroke-opacity="0.01" stroke-width="0.00819015" stroke-linecap="round" stroke-linejoin="round"/>
<path d="M20.7156 12.7792C20.257 12.4734 19.9403 12.3942 19.7656 12.5417C19.711 12.5908 19.6618 12.6727 19.6182 12.7874L19.5363 13.0331C19.4871 13.1314 19.5417 13.2105 19.7001 13.2706C20.0167 13.4016 20.1887 13.4753 20.216 13.4917C20.2706 13.5299 20.399 13.6036 20.601 13.7129C20.803 13.8275 20.9695 13.9449 21.1006 14.065C21.4882 14.4199 21.5974 14.8404 21.4282 15.3263C21.379 15.4574 21.3545 15.5447 21.3545 15.5884C21.3545 15.6321 21.3736 15.6266 21.4118 15.572C21.5101 15.4301 21.5838 15.2144 21.6329 14.925C21.7913 13.9749 21.4855 13.2597 20.7156 12.7792Z" fill="#FDFFEA"/>
<path d="M20.7156 12.7792C20.257 12.4734 19.9403 12.3942 19.7656 12.5417C19.711 12.5908 19.6618 12.6727 19.6182 12.7874L19.5363 13.0331C19.4871 13.1314 19.5417 13.2105 19.7001 13.2706C20.0167 13.4016 20.1887 13.4753 20.216 13.4917C20.2706 13.5299 20.399 13.6036 20.601 13.7129C20.803 13.8275 20.9695 13.9449 21.1006 14.065C21.4882 14.4199 21.5974 14.8404 21.4282 15.3263C21.379 15.4574 21.3545 15.5447 21.3545 15.5884C21.3545 15.6321 21.3736 15.6266 21.4118 15.572C21.5101 15.4301 21.5838 15.2144 21.6329 14.925C21.7913 13.9749 21.4855 13.2597 20.7156 12.7792Z" stroke="#FDFFEA" stroke-width="0.00819015" stroke-linecap="round" stroke-linejoin="round"/>
<path d="M5.31824 16.1046C6.78154 16.2028 8.49329 16.1428 10.4535 15.9244C11.3762 15.8261 11.9168 15.7551 12.0751 15.7114" stroke="black" stroke-width="0.327606" stroke-linecap="round" stroke-linejoin="round"/>
</svg>
