<svg width="90" height="90" viewBox="0 0 90 90" fill="none" xmlns="http://www.w3.org/2000/svg">
<path d="M39.1197 89.1233C39.1098 89.2292 39.1032 89.3383 39.0999 89.4508C39.1627 89.7022 39.477 89.8758 40.0426 89.9718C40.605 90.0644 41.0482 89.9288 41.3724 89.5649C41.3591 89.3896 41.3443 89.2209 41.3277 89.0588C41.3277 89.0522 41.3277 89.0456 41.3277 89.039C41.1789 87.6331 40.8382 86.7235 40.3056 86.31C39.6242 86.5978 39.2289 87.5355 39.1197 89.1233ZM36.5793 88.8256C36.5595 89.0208 36.5462 89.2242 36.5396 89.4359C36.9498 89.7468 37.3252 89.8891 37.6659 89.8626C38.0066 89.8361 38.3043 89.6889 38.559 89.421C38.5657 89.3052 38.5706 89.1928 38.5739 89.0836C38.5905 87.7737 38.1919 86.8028 37.3782 86.171C36.9448 86.7433 36.6785 87.6282 36.5793 88.8256ZM34.674 84.6527C34.4656 84.6461 34.234 84.8694 33.9793 85.3226C33.8768 85.8518 33.852 86.3282 33.9049 86.7516C33.9049 86.7648 33.9066 86.7797 33.9099 86.7962C33.9231 86.8988 33.9413 86.998 33.9644 87.0939C34.4209 87.3619 34.8063 87.514 35.1205 87.5504C35.4348 87.5736 35.6597 87.4611 35.7953 87.213C35.8417 87.1303 35.8615 87.0046 35.8549 86.8359C35.8383 86.4952 35.716 85.9759 35.4877 85.2779C35.3355 84.9968 35.0643 84.7884 34.674 84.6527ZM31.1908 85.7294C31.1677 85.4516 31.1114 85.1737 31.0221 84.8959C30.8303 84.7338 30.6202 84.7288 30.392 84.881C30.3027 84.9339 30.2216 84.9901 30.1488 85.0497C29.8048 85.3275 29.6064 85.6881 29.5534 86.1313C29.5501 86.1446 29.5485 86.1595 29.5485 86.176C29.5319 86.3546 29.5385 86.5481 29.5683 86.7565C29.5915 86.9749 29.7602 87.1353 30.0744 87.2378H30.6847C30.8997 87.2544 31.0502 87.0939 31.1362 86.7565C31.1429 86.7268 31.1495 86.6953 31.1561 86.6623C31.166 86.6027 31.1743 86.5415 31.1809 86.4787C31.2107 86.2273 31.214 85.9775 31.1908 85.7294ZM32.1981 84.7073C31.811 84.9852 31.6076 85.3193 31.5878 85.7096C31.5514 86.0768 31.5547 86.4158 31.5977 86.7268C31.6241 86.9285 31.6688 87.1187 31.7317 87.2974C31.9533 87.4628 32.2444 87.5041 32.6049 87.4214C32.9622 87.3387 33.2152 87.218 33.3641 87.0592C33.3872 86.9798 33.4038 86.8905 33.4137 86.7913C33.4501 86.4969 33.4368 86.1214 33.374 85.6649C33.3376 85.354 33.2185 85.101 33.0168 84.9058C32.8084 84.7073 32.5355 84.6412 32.1981 84.7073ZM53.9654 87.9126C53.8297 87.2047 53.6395 86.6143 53.3948 86.1413C53.0507 85.4797 52.5976 85.0447 52.0352 84.8363C51.7904 85.6534 51.6449 86.4886 51.5986 87.342C51.592 87.471 51.5969 87.5818 51.6135 87.6745C51.6432 87.863 51.7127 87.9854 51.8219 88.0416C52.5529 88.3956 53.1516 88.4965 53.618 88.3443C53.7834 88.298 53.8992 88.1541 53.9654 87.9126ZM48.7059 88.0019C48.9176 88.4287 49.3592 88.642 50.0307 88.642C50.2126 88.642 50.4127 88.6271 50.631 88.5974C50.8494 88.5279 50.9618 88.4468 50.9684 88.3542C50.9784 88.1326 50.9784 87.9176 50.9684 87.7092C50.9651 87.6067 50.9585 87.5074 50.9486 87.4115C50.9453 87.4049 50.9436 87.3983 50.9436 87.3916C50.8378 86.4456 50.4921 85.5756 49.9066 84.7817C49.0896 85.4632 48.6877 86.4754 48.7009 87.8184C48.7009 87.8779 48.7026 87.9391 48.7059 88.0019ZM43.6697 88.7859C43.6465 88.6933 43.6234 88.6023 43.6002 88.513C43.3223 87.4843 42.9105 86.6308 42.3647 85.9527C41.8818 86.8855 41.68 87.8961 41.7594 88.9844C41.766 89.0571 41.7726 89.1299 41.7792 89.2027C42.0769 89.3912 42.3449 89.5004 42.583 89.5302C42.8212 89.5566 43.0197 89.5235 43.1785 89.4309C43.3968 89.3085 43.5605 89.0935 43.6697 88.7859ZM45.7983 87.7836C45.7917 87.863 45.785 87.9441 45.7784 88.0267C45.9934 88.6321 46.6137 88.8521 47.6391 88.6867C47.864 88.6106 47.9848 88.5213 48.0013 88.4187C48.0311 88.2269 48.0526 88.0367 48.0658 87.8481C48.1551 86.6143 47.9103 85.4896 47.3315 84.4741C46.5243 85.1522 46.0282 86.133 45.8429 87.4164C45.8264 87.5355 45.8115 87.6579 45.7983 87.7836Z" fill="#24181F"/>
<path d="M69.8827 77.9247C69.4759 77.5377 69.0194 77.2086 68.5133 76.9373C68.0204 76.6727 67.506 76.4511 66.9702 76.2724C66.4244 76.0971 65.8769 75.935 65.3278 75.7862C65.6685 76.1004 65.9646 76.4362 66.216 76.7934L66.0969 76.8827C65.1939 76.8927 64.309 77.1656 63.4424 77.7014C63.9848 77.6882 64.5058 77.708 65.0053 77.761C65.5974 77.8304 66.1598 77.9512 66.6923 78.1232C67.2381 78.2886 67.7624 78.4986 68.2652 78.7533C68.7812 79.0047 69.2526 79.3206 69.6793 79.701C70.1391 80.1211 70.3094 80.6338 70.1904 81.2392C70.0547 81.9404 69.6413 82.1819 68.9499 81.9636C68.7184 81.8412 68.4852 81.6113 68.2503 81.2739C68.3363 81.737 68.4422 82.0446 68.5679 82.1968C68.8953 82.7889 69.4726 83.1114 70.2995 83.1643C70.3028 83.1643 70.3061 83.1643 70.3094 83.1643C70.3227 83.1643 70.3359 83.1643 70.3491 83.1643C70.8023 83.0982 71.1364 82.8468 71.3514 82.4101C71.5664 81.9702 71.621 81.4542 71.5152 80.8621C71.4093 80.2667 71.2125 79.7258 70.9247 79.2396C70.6369 78.75 70.2896 78.3117 69.8827 77.9247ZM37.0854 35.8985C36.5529 35.4883 35.8979 35.0103 35.1206 34.4645C34.7765 34.1933 34.4077 33.9336 34.0141 33.6855C33.8388 34.1553 33.6883 34.6316 33.5626 35.1145C33.6883 35.1774 33.814 35.2419 33.9397 35.308C34.9221 35.8075 35.8764 36.4426 36.8026 37.2134C37.7255 37.9841 38.5739 38.7796 39.348 39.6C40.122 40.417 40.9821 41.1464 41.9281 41.7881C42.8708 42.4265 43.9244 42.534 45.0888 42.1106C46.2498 41.6872 47.1727 41.0885 47.8574 40.3145C48.5388 39.5404 49.3641 38.7052 50.3333 37.8088C51.3025 36.9124 52.1791 36.0159 52.9631 35.1195C52.8208 34.8317 52.667 34.5572 52.5016 34.2958C52.4256 34.3521 52.3511 34.4083 52.2784 34.4645C51.501 35.0103 50.8461 35.4883 50.3135 35.8985C49.7842 36.3087 49.1574 36.8363 48.433 37.4813C47.7119 38.123 46.837 38.7482 45.8082 39.3569C45.6031 39.4759 45.4129 39.5834 45.2376 39.6794C45.1979 39.7025 45.1582 39.724 45.1185 39.7439C45.1086 39.7488 45.0987 39.7538 45.0888 39.7588C44.2816 40.1689 43.4299 40.164 42.5334 39.7439C42.5103 39.7339 42.4871 39.724 42.464 39.7141C42.4441 39.7042 42.4243 39.6943 42.4044 39.6843C42.2093 39.5851 41.9959 39.4743 41.7644 39.3519C40.6199 38.7466 39.687 38.123 38.9659 37.4813C38.2415 36.8363 37.6147 36.3087 37.0854 35.8985Z" fill="#F0CBBB"/>
<path d="M52.7944 67.614C52.758 67.088 52.5992 66.7903 52.3181 66.7208C50.8593 74.6828 50.7518 80.0597 51.9955 82.8516C52.6075 82.1867 53.2178 81.4772 53.8264 80.723C56.1155 79.4528 58.1465 78.6059 59.9195 78.1825C61.1798 77.8881 62.3541 77.7277 63.4424 77.7013C64.309 77.1654 65.1939 76.8925 66.0969 76.8826L66.216 76.7932C65.9646 76.436 65.6685 76.1003 65.3278 75.786C65.2716 75.7331 65.2154 75.6818 65.1591 75.6322C62.3474 74.7986 59.6383 75.0219 57.0317 76.302C57.948 74.9061 58.8593 73.4093 59.7657 71.8116C58.7766 72.3078 57.6404 73.143 56.3569 74.3173C56.6282 73.5267 56.6282 72.8933 56.3569 72.417C56.0361 73.1745 55.6739 73.7566 55.2703 74.1635C53.6362 72.9032 52.8109 70.72 52.7944 67.614ZM42.717 67.733C42.7931 68.5567 42.8179 69.4316 42.7915 70.3578C42.7385 75.5478 42.9188 80.0763 43.3323 83.9432C43.7292 84.1019 44.1196 84.0854 44.5033 83.8935C44.2056 80.3872 44.6025 74.8317 45.6941 67.2269C45.8099 65.9468 45.8876 64.7213 45.9273 63.5503C44.9647 63.9208 43.9806 63.9191 42.975 63.5453C42.8262 64.885 42.7402 66.2809 42.717 67.733ZM35.7805 68.5319V68.5269C34.9568 64.5112 33.5741 60.9718 31.6324 57.9087C33.1673 61.4647 34.3548 65.2671 35.195 69.3159C34.3548 70.5265 33.5692 72.0184 32.8381 73.7914C31.7829 76.2557 30.6087 77.0116 29.3153 76.0589C28.8323 77.038 28.2898 77.8071 27.6878 78.3661C27.486 81.1679 28.1923 83.2386 29.8065 84.5783C29.9057 84.3037 30.0248 84.0358 30.1637 83.7745C30.2928 83.8042 30.4218 83.834 30.5508 83.8638C31.0767 83.9498 31.6093 84.0159 32.1485 84.0622C32.6579 84.0986 33.8288 83.9878 35.6614 83.7298C35.1189 83.796 35.1255 83.748 35.6812 83.5859C35.9789 83.5495 36.2386 83.5594 36.4602 83.6157C36.9167 78.0056 36.6901 72.9776 35.7805 68.5319ZM15.1643 62.2106C15.247 62.4157 15.3347 62.6191 15.4273 62.8209C17.0415 66.3537 19.8499 68.9652 23.8524 70.6555L24.2443 72.0696L27.4 64.3194L25.5096 67.9811L25.4997 68.001L25.3062 67.8968C21.3963 62.8457 20.5346 56.665 22.7211 49.3546C18.5797 52.4012 16.0607 56.6865 15.1643 62.2106ZM28.1641 5.12045C27.6746 5.75555 27.3339 6.64536 27.142 7.78988C27.883 11.0779 29.2706 14.6371 31.305 18.4676C31.6126 17.7763 31.9731 17.1263 32.3866 16.5176C30.6599 14.609 29.2524 10.8099 28.1641 5.12045ZM34.148 4.22733C33.9793 4.16117 33.8073 4.09832 33.632 4.03878C32.5669 3.68815 31.3595 3.49464 30.0099 3.45825C30.3837 3.72288 30.7443 3.98916 31.0916 4.2571C34.3366 6.76775 36.4073 9.43057 37.3037 12.2456C38.1406 11.8221 39.0387 11.4715 39.998 11.1937C38.4863 8.5143 36.7298 6.27819 34.7286 4.48534C34.54 4.39272 34.3465 4.30672 34.148 4.22733ZM47.4009 11.1937C48.3602 11.4715 49.2583 11.8221 50.0952 12.2456C51.0379 9.28503 53.2823 6.4932 56.8283 3.87008C55.0685 4.27033 53.0772 5.08406 50.8543 6.31127C49.5874 7.73034 48.4363 9.3578 47.4009 11.1937ZM60.4256 7.01088C60.2834 5.98214 59.9261 5.1436 59.3538 4.49526C58.2523 10.5321 56.8051 14.5395 55.0123 16.5176C55.4258 17.1263 55.7863 17.7763 56.094 18.4676C58.2904 14.3328 59.7343 10.5139 60.4256 7.01088Z" fill="#D64D1B"/>
<path d="M52.5016 34.2957C52.667 34.557 52.8208 34.8315 52.9631 35.1193L53.4592 34.3651C53.36 34.1865 53.2591 34.0095 53.1566 33.8342C52.9283 33.9831 52.71 34.1369 52.5016 34.2957ZM15.1643 62.2106C15.1213 62.4653 15.0832 62.7233 15.0502 62.9846C15.0204 70.07 18.712 76.6758 26.1248 82.802C27.319 83.6256 28.5462 84.2177 29.8065 84.5783C28.1922 83.2386 27.486 81.1679 27.6878 78.3661C27.185 77.7806 26.707 77.124 26.2538 76.3963C25.8007 75.6653 25.4103 74.9475 25.0829 74.2429C24.7521 73.5383 24.542 73.0322 24.4527 72.7246C24.3634 72.417 24.2939 72.1987 24.2443 72.0696L23.8523 70.6555C19.8498 68.9652 17.0415 66.3537 15.4273 62.8209C15.3346 62.6191 15.247 62.4157 15.1643 62.2106Z" fill="#D15716"/>
<path d="M35.7804 68.527V68.5319C36.6901 72.9777 36.9167 78.0056 36.4602 83.6157C36.2386 83.5595 35.9789 83.5496 35.6812 83.586C35.1255 83.748 35.1189 83.796 35.6613 83.7298C33.8288 83.9879 32.6578 84.0987 32.1484 84.0623C31.6092 84.016 31.0767 83.9498 30.5507 83.8638C30.4217 83.834 30.2927 83.8043 30.1637 83.7745C30.0248 84.0358 29.9057 84.3038 29.8065 84.5783L30.1488 85.0497C30.2216 84.9901 30.3026 84.9339 30.3919 84.881C30.6202 84.7288 30.8302 84.7338 31.0221 84.8959C31.1114 85.1737 31.1676 85.4516 31.1908 85.7294L31.5877 85.7096C31.6076 85.3193 31.811 84.9852 32.198 84.7073C32.5354 84.6412 32.8083 84.7073 33.0167 84.9058C33.2185 85.1009 33.3376 85.354 33.374 85.6649C33.4368 86.1214 33.4501 86.4969 33.4137 86.7913L33.9049 86.7516C33.852 86.3282 33.8768 85.8518 33.9793 85.3226C34.234 84.8694 34.4656 84.6461 34.674 84.6527C35.0643 84.7884 35.3355 84.9968 35.4877 85.2779C35.7159 85.9759 35.8383 86.4952 35.8549 86.8359L36.1675 86.8458C36.1112 87.6761 36.1063 88.2351 36.1526 88.5229C36.3279 88.7247 36.4701 88.8256 36.5793 88.8256C36.6785 87.6281 36.9448 86.7433 37.3781 86.171C38.1919 86.8028 38.5905 87.7737 38.5739 89.0836L39.1197 89.1233C39.2289 87.5355 39.6242 86.5978 40.3056 86.31C40.8381 86.7234 41.1788 87.6331 41.3277 89.0389L41.7594 88.9844C41.68 87.8961 41.8818 86.8855 42.3647 85.9527C42.9105 86.6308 43.3223 87.4843 43.6002 88.513L43.8731 88.3989C44.0716 88.3195 44.06 87.8117 43.8384 86.8756C43.7788 86.6209 43.7259 86.386 43.6796 86.171C44.0931 86.2901 44.4834 86.2686 44.8506 86.1065C44.9763 86.5994 45.1284 87.0129 45.307 87.347L45.8429 87.4164C46.0281 86.133 46.5243 85.1522 47.3314 84.4741C47.9103 85.4896 48.1551 86.6143 48.0658 87.8481C48.2775 87.9407 48.4892 87.9308 48.7009 87.8183C48.6877 86.4754 49.0896 85.4632 49.9066 84.7817C50.4921 85.5756 50.8378 86.4456 50.9436 87.3916C50.9436 87.3982 50.9453 87.4049 50.9486 87.4115C50.9585 87.5074 50.9651 87.6066 50.9684 87.7092C51.1834 87.8051 51.3984 87.7935 51.6134 87.6745C51.5969 87.5818 51.5919 87.471 51.5986 87.342C51.6449 86.4886 51.7904 85.6534 52.0352 84.8363C52.5975 85.0447 53.0507 85.4797 53.3947 86.1413C53.4377 85.6252 53.1367 84.8231 52.4917 83.7348C52.3064 83.4768 52.141 83.1824 51.9955 82.8516C50.7517 80.0598 50.8593 74.6829 52.318 66.7209C52.447 65.9965 52.5893 65.2522 52.7447 64.4881C52.318 62.553 51.8913 61.0893 51.4646 60.0969C48.3883 62.429 46.4648 64.8056 45.6941 67.227C44.6025 74.8317 44.2055 80.3873 44.5032 83.8936C44.1195 84.0854 43.7292 84.102 43.3323 83.9432C42.9188 80.0763 42.7385 75.5479 42.7914 70.3579C42.8179 69.4317 42.7931 68.5567 42.717 67.7331C42.4193 64.4881 41.3244 62.0502 39.4323 60.4194C37.4079 61.9146 36.1906 64.6171 35.7804 68.527Z" fill="#362331"/>
<path d="M33.1557 41.0685C32.9671 39.3352 33.03 37.6697 33.3442 36.072C30.9791 41.8574 27.4381 46.285 22.7211 49.3547C20.5346 56.665 21.3963 62.8457 25.3062 67.8968L25.5096 67.9812L27.4 64.3194L24.2444 72.0697C24.294 72.1987 24.3634 72.417 24.4527 72.7246C24.5421 73.0323 24.7521 73.5384 25.0829 74.2429C25.4104 74.9475 25.8007 75.6653 26.2539 76.3963C26.707 77.1241 27.185 77.7807 27.6878 78.3662C28.2899 77.8071 28.8323 77.0381 29.3153 76.0589C30.6087 77.0116 31.7829 76.2558 32.8381 73.7914C33.5692 72.0184 34.3548 70.5266 35.195 69.3159C34.3548 65.2671 33.1673 61.4647 31.6324 57.9088C33.5741 60.9718 34.9568 64.5112 35.7805 68.527C36.1906 64.6171 37.4079 61.9146 39.4323 60.4194C41.3244 62.0502 42.4193 64.4881 42.717 67.7331C42.7402 66.2809 42.8262 64.885 42.975 63.5453C43.9806 63.9191 44.9647 63.9208 45.9273 63.5503C45.8876 64.7213 45.8099 65.9468 45.6941 67.227C46.4648 64.8056 48.3883 62.4289 51.4646 60.0969C51.8913 61.0893 52.3181 62.553 52.7448 64.4881C52.5893 65.2522 52.4471 65.9965 52.3181 66.7209C52.5992 66.7903 52.758 67.0881 52.7944 67.614C52.8109 70.7201 53.6362 72.9032 55.2703 74.1635C55.6739 73.7567 56.0361 73.1745 56.3569 72.417C56.6282 72.8933 56.6282 73.5268 56.3569 74.3174C57.6404 73.1431 58.7766 72.3078 59.7657 71.8117C58.8593 73.4093 57.948 74.9062 57.0317 76.3021C59.6383 75.0219 62.3475 74.7986 65.1591 75.6322C64.7523 75.2783 64.2875 74.9492 63.7649 74.6448C65.389 73.9105 66.9487 73.5516 68.4438 73.5681C67.4217 72.1226 66.1366 70.9053 64.5885 69.9163C65.9613 69.4267 67.2365 69.1422 68.4141 69.0628C67.0711 67.3858 65.4552 66.2694 63.5664 65.7136C64.6282 65.3101 65.4816 65.2224 66.1267 65.4507C66.0671 64.9942 65.862 64.5575 65.5114 64.1408C65.389 63.9952 65.2501 63.853 65.0946 63.714C62.1539 62.2817 58.7651 61.4515 54.928 61.2232C54.5773 60.9189 54.2135 60.6229 53.8364 60.3351C54.9809 55.37 55.6639 50.1006 55.8856 44.5269C55.8459 40.6633 55.0371 37.2761 53.4593 34.3652L52.9631 35.1194C53.2906 35.7809 53.5486 36.5053 53.7371 37.2926C54.316 39.5486 54.2019 42.4396 53.3948 45.9658C53.0739 44.3747 52.6422 43.2203 52.0997 42.5025C53.1219 45.5192 52.6174 49.1628 50.5864 53.4333C50.4111 52.8279 50.1316 52.3962 49.7479 52.1382C50.0323 54.199 49.4336 56.2763 47.9517 58.3702C48.0509 58.003 48.0112 57.5598 47.8326 57.0405C47.7036 57.4308 47.563 57.798 47.4109 58.142C46.9048 59.2666 46.2614 60.1333 45.4807 60.7419C44.7034 59.5875 43.8599 58.1536 42.9502 56.4401C42.9238 57.0719 43.0313 57.8476 43.2727 58.7672C41.8107 57.7583 40.7373 56.0498 40.0526 53.6416C39.7052 54.376 39.482 55.3336 39.3827 56.5145C38.3341 54.8738 37.6759 53.157 37.4079 51.3642C37.2095 52.0026 37.0838 52.7717 37.0308 53.6714C35.3174 50.7771 34.9386 46.581 35.8946 41.0834C35.2231 41.7119 34.6508 43.2335 34.1778 45.6482C33.6552 44.0737 33.3145 42.5471 33.1557 41.0685ZM50.0952 12.2456C49.2583 11.8222 48.3602 11.4715 47.4009 11.1937C46.2564 10.8629 45.0226 10.6975 43.6995 10.6975C42.3763 10.6975 41.1425 10.8629 39.998 11.1937C39.0387 11.4715 38.1406 11.8222 37.3037 12.2456C36.8373 12.4804 36.3924 12.7368 35.969 13.0147C35.8698 13.0775 35.7739 13.1437 35.6812 13.2131C34.9767 13.7027 34.3366 14.2419 33.761 14.8307C33.2516 15.3533 32.7935 15.9156 32.3866 16.5177C31.9731 17.1263 31.6126 17.7763 31.305 18.4676C31.209 18.686 31.1181 18.9076 31.0321 19.1325C30.129 21.4844 28.9928 23.5105 27.6233 25.2107L27.6332 25.3893C27.6796 25.386 27.7259 25.3844 27.7722 25.3844C27.792 25.381 27.8135 25.3794 27.8367 25.3794C28.3163 25.3629 28.791 25.3595 29.2607 25.3695C29.8462 25.4125 30.4267 25.4869 31.0023 25.5927C31.5911 25.6986 32.1584 25.8574 32.7042 26.0691C33.2467 26.2841 33.771 26.5322 34.2771 26.8133C34.7865 27.1044 35.2826 27.4203 35.7656 27.761C36.2485 28.0951 36.7083 28.4524 37.145 28.8328C37.5088 29.147 37.8628 29.4795 38.2068 29.8301C38.6236 30.2568 39.0172 30.6968 39.3877 31.1499C39.7284 31.57 40.0393 32.0083 40.3205 32.4648C40.6182 32.9478 40.8613 33.4555 41.0499 33.9881C41.0366 33.9021 41.0482 33.8194 41.0846 33.74C41.1541 33.6474 41.2268 33.5597 41.3029 33.477C41.3062 33.4704 41.3129 33.4638 41.3228 33.4572C41.3327 33.4439 41.3443 33.4307 41.3575 33.4175C41.943 32.8055 42.7236 32.4929 43.6995 32.4797C44.1758 32.4863 44.6058 32.564 44.9895 32.7129C44.9961 32.7162 45.0028 32.7195 45.0094 32.7228C45.4096 32.8816 45.7603 33.1198 46.0613 33.4373C46.0745 33.4505 46.0877 33.4638 46.101 33.477C46.1737 33.5597 46.2449 33.6474 46.3143 33.74C46.3507 33.8194 46.3623 33.9021 46.349 33.9881C46.5376 33.4555 46.7807 32.9478 47.0784 32.4648C47.3596 32.0083 47.6705 31.57 48.0112 31.1499C48.3817 30.6968 48.7753 30.2568 49.1921 29.8301C49.5362 29.4795 49.8901 29.147 50.254 28.8328C50.6906 28.4524 51.1504 28.0951 51.6333 27.761C52.1163 27.4203 52.6125 27.1044 53.1219 26.8133C53.628 26.5322 54.1523 26.2841 54.6948 26.0691C55.2405 25.8574 55.8078 25.6986 56.3966 25.5927C56.9722 25.4869 57.5527 25.4125 58.1382 25.3695C58.6079 25.3595 59.0826 25.3629 59.5622 25.3794L59.7309 25.3893C59.7409 25.3893 59.7524 25.3893 59.7657 25.3893L59.7756 25.2107C58.4062 23.5138 57.2699 21.4877 56.3669 19.1325C56.2809 18.9076 56.1899 18.686 56.094 18.4676C55.7863 17.7763 55.4258 17.1263 55.0123 16.5177C54.6054 15.9156 54.1473 15.3533 53.6379 14.8307C53.0623 14.2419 52.4223 13.7027 51.7177 13.2131C51.6218 13.147 51.5258 13.0825 51.4299 13.0196C51.0065 12.7385 50.5616 12.4804 50.0952 12.2456ZM51.0478 20.8642C51.6532 20.8642 52.1709 21.1139 52.6009 21.6134C52.9945 22.0699 53.2079 22.6107 53.2409 23.2359C53.2443 23.2954 53.2459 23.3566 53.2459 23.4195C53.2459 24.1208 53.0309 24.7211 52.6009 25.2206C52.1709 25.7201 51.6532 25.9698 51.0478 25.9698C50.7766 25.9698 50.5219 25.9202 50.2837 25.821C49.9959 25.6953 49.7346 25.4952 49.4998 25.2206C49.0664 24.7211 48.8498 24.1208 48.8498 23.4195C48.8498 22.9895 48.9308 22.5975 49.0929 22.2436C49.0962 22.2336 49.1012 22.2237 49.1078 22.2138C49.1078 22.2072 49.1094 22.2022 49.1128 22.1989C49.212 21.9905 49.341 21.7953 49.4998 21.6134C49.9265 21.1139 50.4425 20.8642 51.0478 20.8642ZM36.3511 20.8642C36.9564 20.8642 37.4724 21.1139 37.8992 21.6134C38.0612 21.7986 38.1936 21.9988 38.2961 22.2138C38.2994 22.2237 38.3044 22.2336 38.311 22.2436C38.4698 22.5975 38.5491 22.9895 38.5491 23.4195C38.5491 24.1208 38.3325 24.7211 37.8992 25.2206C37.6643 25.4952 37.403 25.6953 37.1152 25.821C36.877 25.9202 36.6223 25.9698 36.3511 25.9698C35.7457 25.9698 35.2281 25.7201 34.798 25.2206C34.368 24.7211 34.153 24.1208 34.153 23.4195C34.153 23.3566 34.1547 23.2954 34.158 23.2359C34.1911 22.6107 34.4044 22.0699 34.798 21.6134C35.2281 21.1139 35.7457 20.8642 36.3511 20.8642Z" fill="#F4802A"/>
<path d="M41.9281 41.7881C40.982 41.1464 40.122 40.417 39.348 39.5999C38.5739 38.7796 37.7255 37.9841 36.8026 37.2133C35.8764 36.4426 34.9221 35.8075 33.9396 35.308C33.8139 35.2419 33.6882 35.1774 33.5625 35.1145C33.4765 35.4321 33.4038 35.7513 33.3442 36.0721C33.03 37.6698 32.9671 39.3353 33.1557 41.0686C33.3144 42.5472 33.6552 44.0738 34.1778 45.6483C34.6508 43.2336 35.2231 41.712 35.8946 41.0835C34.9386 46.5812 35.3173 50.7772 37.0308 53.6715C37.0837 52.7718 37.2094 52.0027 37.4079 51.3643C37.6758 53.1572 38.3341 54.8739 39.3827 56.5146C39.4819 55.3337 39.7052 54.3761 40.0525 53.6418C40.7373 56.0499 41.8106 57.7584 43.2727 58.7673C43.0312 57.8477 42.9237 57.072 42.9502 56.4402C43.8599 58.1537 44.7034 59.5876 45.4807 60.7421C46.2614 60.1334 46.9047 59.2668 47.4108 58.1421C47.563 57.7981 47.7036 57.4309 47.8326 57.0406C48.0112 57.5599 48.0509 58.0032 47.9517 58.3703C49.4336 56.2765 50.0323 54.1991 49.7478 52.1383C50.1315 52.3964 50.4111 52.828 50.5864 53.4334C52.6174 49.1629 53.1218 45.5193 52.0997 42.5026C52.6422 43.2204 53.0739 44.3748 53.3947 45.9659C54.2019 42.4397 54.316 39.5487 53.7371 37.2927C53.5486 36.5055 53.2905 35.781 52.9631 35.1195C52.1791 36.0159 51.3025 36.9123 50.3333 37.8087C49.3641 38.7052 48.5388 39.5404 47.8574 40.3144C47.1727 41.0885 46.2498 41.6872 45.0887 42.1106C43.9244 42.534 42.8708 42.4265 41.9281 41.7881ZM50.2539 28.8329C49.8901 29.1471 49.5361 29.4796 49.1921 29.8302C48.7753 30.2569 48.3817 30.6969 48.0112 31.15C47.6705 31.5701 47.3596 32.0084 47.0784 32.4649C46.7807 32.9479 46.5376 33.4556 46.349 33.9882C46.3259 34.1668 46.1555 34.4116 45.838 34.7225C45.5204 35.0335 45.1665 35.308 44.7761 35.5462C44.3825 35.7843 44.0749 35.9084 43.8533 35.9183V37.2332C44.624 37.2497 45.4873 37.0678 46.4433 36.6874C45.7189 37.3258 44.8737 37.6731 43.9078 37.7294C43.8946 37.7294 43.883 37.7294 43.8731 37.7294C43.8136 37.7327 43.7557 37.7343 43.6994 37.7343C43.6432 37.7343 43.587 37.7327 43.5307 37.7294C43.5175 37.7294 43.5059 37.7294 43.496 37.7294C42.5268 37.6731 41.68 37.3258 40.9556 36.6874C41.9115 37.0678 42.7749 37.2497 43.5456 37.2332V35.9183C43.3306 35.8985 43.0362 35.8009 42.6624 35.6256C42.2853 35.4503 41.9281 35.1807 41.5907 34.8168C41.2533 34.4496 41.073 34.1734 41.0498 33.9882C40.8613 33.4556 40.6182 32.9479 40.3205 32.4649C40.0393 32.0084 39.7284 31.5701 39.3877 31.15C39.0172 30.6969 38.6235 30.2569 38.2068 29.8302C37.8627 29.4796 37.5088 29.1471 37.1449 28.8329C36.7083 28.4525 36.2485 28.0953 35.7656 27.7612C35.2826 27.4205 34.7864 27.1046 34.277 26.8135C33.7709 26.5323 33.2466 26.2842 32.7041 26.0692C32.1583 25.8575 31.5911 25.6987 31.0023 25.5929C30.4267 25.487 29.8462 25.4126 29.2607 25.3696C28.791 25.3597 28.3163 25.363 27.8366 25.3795C27.8135 25.3795 27.792 25.3812 27.7721 25.3845C27.7258 25.3845 27.6795 25.3861 27.6332 25.3894C27.62 25.3894 27.6084 25.3911 27.5985 25.3944L27.4695 25.3994C25.9942 26.4182 24.9869 27.9481 24.4478 29.989L24.4825 30.0634C25.24 29.2265 26.4474 28.6559 28.1046 28.3516C26.7781 29.2381 26.1629 30.4769 26.2588 32.068C26.9998 31.5023 27.6663 31.2559 28.2584 31.3287C30.564 31.9406 32.4825 32.7262 34.0141 33.6855C34.4077 33.9336 34.7765 34.1933 35.1205 34.4645C35.8979 35.0103 36.5528 35.4883 37.0854 35.8985C37.6146 36.3086 38.2415 36.8362 38.9659 37.4813C39.687 38.123 40.6198 38.7465 41.7643 39.3519C41.9959 39.4743 42.2092 39.5851 42.4044 39.6843C42.4243 39.6942 42.4441 39.7041 42.464 39.7141C42.4871 39.724 42.5103 39.7339 42.5334 39.7438C43.4298 40.1639 44.2816 40.1689 45.0887 39.7587C45.0986 39.7538 45.1086 39.7488 45.1185 39.7438C45.1582 39.724 45.1979 39.7025 45.2376 39.6793C45.4129 39.5834 45.6031 39.4759 45.8082 39.3568C46.8369 38.7482 47.7119 38.123 48.433 37.4813C49.1574 36.8362 49.7842 36.3086 50.3135 35.8985C50.846 35.4883 51.501 35.0103 52.2783 34.4645C52.3511 34.4083 52.4255 34.352 52.5016 34.2958C52.71 34.137 52.9283 33.9832 53.1566 33.8344C53.2327 33.7848 53.3087 33.7351 53.3848 33.6855C54.9163 32.7262 56.8349 31.9406 59.1405 31.3287C59.7326 31.2559 60.3991 31.5023 61.1401 32.068C61.236 30.4769 60.6207 29.2381 59.2943 28.3516C60.634 28.5997 61.8413 29.1703 62.9164 30.0634L62.9511 29.989C62.4119 27.9481 61.4047 26.4182 59.9294 25.3994C59.8732 25.396 59.8186 25.3927 59.7657 25.3894C59.7524 25.3894 59.7408 25.3894 59.7309 25.3894L59.5622 25.3795C59.0826 25.363 58.6079 25.3597 58.1382 25.3696C57.5527 25.4126 56.9722 25.487 56.3966 25.5929C55.8078 25.6987 55.2405 25.8575 54.6947 26.0692C54.1522 26.2842 53.6279 26.5323 53.1218 26.8135C52.6124 27.1046 52.1163 27.4205 51.6333 27.7612C51.1504 28.0953 50.6906 28.4525 50.2539 28.8329ZM37.6907 21.9807C37.6146 21.9476 37.5319 21.9311 37.4426 21.9311C37.264 21.9311 37.1102 21.9939 36.9812 22.1196C36.8555 22.2486 36.8654 22.3264 37.011 22.3528C37.1532 22.3793 37.2905 22.4554 37.4228 22.5811C37.5518 22.7035 37.6328 22.8424 37.6659 22.9979C37.6957 23.1533 37.7734 23.1666 37.8991 23.0376C38.0281 22.9119 38.0926 22.7597 38.0926 22.5811C38.0926 22.4918 38.0777 22.4091 38.048 22.333C38.0149 22.2569 37.9653 22.1858 37.8991 22.1196C37.8363 22.0568 37.7668 22.0105 37.6907 21.9807ZM51.6184 21.6135C51.4398 21.6135 51.2876 21.6764 51.1619 21.8021C51.0958 21.8682 51.0478 21.9393 51.018 22.0154C50.985 22.0915 51.0362 22.156 51.1719 22.2089C51.3075 22.2586 51.4414 22.3462 51.5738 22.4719C51.7028 22.5943 51.7871 22.6985 51.8268 22.7845C51.8665 22.8705 51.9509 22.849 52.0799 22.72C52.2056 22.5943 52.2684 22.4421 52.2684 22.2635C52.2684 22.0849 52.2056 21.9311 52.0799 21.8021C51.9509 21.6764 51.797 21.6135 51.6184 21.6135Z" fill="#F8ECDB"/>
<path d="M41.5907 34.8168C41.9281 35.1806 42.2853 35.4502 42.6624 35.6255C43.0362 35.8008 43.3306 35.8984 43.5456 35.9183V37.2331C42.7749 37.2497 41.9115 37.0677 40.9556 36.6873C41.68 37.3258 42.5268 37.6731 43.496 37.7293C43.5059 37.7293 43.5175 37.7293 43.5307 37.7293C43.587 37.7326 43.6432 37.7343 43.6994 37.7343C43.7557 37.7343 43.8135 37.7326 43.8731 37.7293C43.883 37.7293 43.8946 37.7293 43.9078 37.7293C44.8737 37.6731 45.7189 37.3258 46.4433 36.6873C45.4873 37.0677 44.624 37.2497 43.8532 37.2331V35.9183C44.0749 35.9083 44.3825 35.7843 44.7761 35.5461C45.1665 35.308 45.5204 35.0334 45.838 34.7225C46.1555 34.4115 46.3259 34.1668 46.349 33.9881C46.3622 33.9021 46.3507 33.8194 46.3143 33.74C46.2448 33.6474 46.1737 33.5598 46.1009 33.4771C46.0877 33.4638 46.0745 33.4506 46.0612 33.4374C45.7602 33.1198 45.4096 32.8817 45.0093 32.7229C45.0027 32.7196 44.9961 32.7163 44.9895 32.713C44.6058 32.5641 44.1758 32.4864 43.6994 32.4798C42.7236 32.493 41.943 32.8056 41.3575 33.4175C41.3442 33.4308 41.3327 33.444 41.3227 33.4572C41.3128 33.4638 41.3062 33.4705 41.3029 33.4771C41.2268 33.5598 41.154 33.6474 41.0846 33.74C41.0482 33.8194 41.0366 33.9021 41.0498 33.9881C41.073 34.1734 41.2533 34.4496 41.5907 34.8168ZM44.9448 32.8668C45.0375 32.8999 45.1317 32.9495 45.2277 33.0156C45.4228 33.1446 45.5204 33.2571 45.5204 33.353C45.5204 33.4258 45.4741 33.4655 45.3815 33.4721C45.3484 33.4754 45.3104 33.4738 45.2674 33.4672C45.0953 33.4473 44.9465 33.4175 44.8208 33.3778C44.6951 33.3381 44.5396 33.3166 44.3544 33.3133C44.1691 33.3067 44.0765 33.2554 44.0765 33.1595C44.0765 33.0636 44.1344 32.9826 44.2502 32.9164C44.3693 32.8502 44.5132 32.8172 44.6819 32.8172C44.7679 32.8172 44.8555 32.8337 44.9448 32.8668ZM45.4261 33.8492C45.5055 33.836 45.5882 33.8294 45.6742 33.8294C45.0027 34.1436 44.4983 34.567 44.1609 35.0996C44.3825 34.3487 44.8042 33.9319 45.4261 33.8492ZM43.238 35.0996C42.9204 34.5869 42.416 34.1635 41.7246 33.8294C42.4821 33.8294 42.9866 34.2528 43.238 35.0996ZM33.632 4.03888L33.7461 3.65683C31.6324 1.97975 29.2673 0.760805 26.6508 0C26.3465 2.4015 26.5102 4.99816 27.142 7.78998C27.3338 6.64547 27.6746 5.75566 28.1641 5.12055C27.969 4.10504 27.7854 3.02999 27.6134 1.8954C28.4635 2.40811 29.2623 2.9291 30.0099 3.45835C31.3595 3.49474 32.5669 3.68825 33.632 4.03888ZM59.3538 4.49536C59.9261 5.1437 60.2833 5.98224 60.4256 7.01098C60.9151 4.51356 61.0226 2.17656 60.7481 0C56.9077 1.11474 53.6097 3.21854 50.8543 6.31137C53.0772 5.08416 55.0685 4.27043 56.8283 3.87018C57.728 3.19869 58.7137 2.54043 59.7855 1.8954C59.6466 2.80175 59.5027 3.6684 59.3538 4.49536Z" fill="#3C1B24"/>
<path d="M41.7247 33.8294C42.416 34.1635 42.9204 34.5869 43.238 35.0996C42.9866 34.2528 42.4822 33.8294 41.7247 33.8294ZM45.6742 33.8294C45.5882 33.8294 45.5055 33.836 45.4261 33.8493C44.8043 33.932 44.3825 34.3487 44.1609 35.0996C44.4983 34.5671 45.0027 34.1437 45.6742 33.8294ZM37.8991 21.6135L37.6907 21.9807C37.7668 22.0105 37.8363 22.0568 37.8991 22.1196C37.9653 22.1858 38.0149 22.2569 38.048 22.333L38.311 22.2437C38.3043 22.2337 38.2994 22.2238 38.2961 22.2139C38.1935 21.9989 38.0612 21.7988 37.8991 21.6135Z" fill="#09010D"/>
<path d="M45.2277 33.0156C45.1317 32.9495 45.0375 32.8998 44.9448 32.8668C44.8555 32.8337 44.7679 32.8171 44.6819 32.8171C44.5132 32.8171 44.3693 32.8502 44.2502 32.9164C44.1344 32.9825 44.0765 33.0636 44.0765 33.1595C44.0765 33.2554 44.1692 33.3067 44.3544 33.3133C44.5396 33.3166 44.6951 33.3381 44.8208 33.3778C44.9465 33.4175 45.0954 33.4473 45.2674 33.4671C45.3104 33.4737 45.3484 33.4754 45.3815 33.4721C45.4741 33.4655 45.5204 33.4258 45.5204 33.353C45.5204 33.2571 45.4228 33.1446 45.2277 33.0156Z" fill="#836678"/>
<path d="M27.5985 25.3943C27.6084 25.391 27.62 25.3893 27.6332 25.3893L27.6233 25.2107C27.5737 25.2735 27.5224 25.3364 27.4695 25.3992L27.5985 25.3943ZM59.7756 25.2107L59.7657 25.3893C59.8186 25.3926 59.8732 25.3959 59.9294 25.3992C59.8765 25.3364 59.8252 25.2735 59.7756 25.2107Z" fill="#F78633"/>
<path d="M35.6812 13.2133C35.7738 13.1438 35.8698 13.0777 35.969 13.0148C35.1089 11.4568 33.9264 10.309 32.4213 9.57135C32.3552 10.9607 32.8017 12.7138 33.761 14.8308C34.3366 14.242 34.9766 13.7029 35.6812 13.2133ZM51.7177 13.2133C52.4222 13.7029 53.0623 14.242 53.6379 14.8308C54.5442 12.9354 54.9891 11.1707 54.9726 9.53662C53.4708 10.2974 52.2982 11.4452 51.4547 12.9801L51.7177 13.2133Z" fill="#85647A"/>
<path d="M31.0916 4.25731C30.7443 3.98938 30.3837 3.72309 30.0099 3.45847C29.2624 2.92921 28.4635 2.40822 27.6134 1.89551C27.7854 3.0301 27.969 4.10515 28.1642 5.12066C29.2524 10.8102 30.6599 14.6092 32.3866 16.5179C32.7935 15.9158 33.2516 15.3535 33.761 14.8308C32.8018 12.7138 32.3552 10.9607 32.4214 9.57137C33.9264 10.309 35.109 11.4568 35.969 13.0148C36.3924 12.737 36.8373 12.4806 37.3037 12.2458C36.4073 9.43079 34.3366 6.76797 31.0916 4.25731ZM59.3539 4.49548C59.5027 3.66851 59.6466 2.80186 59.7855 1.89551C58.7138 2.54054 57.7281 3.1988 56.8283 3.87029C53.2823 6.49342 51.0379 9.28524 50.0952 12.2458C50.5616 12.4806 51.0065 12.7386 51.4299 13.0198L51.4547 12.9801C52.2982 11.4453 53.4708 10.2974 54.9726 9.53664C54.9891 11.1707 54.5442 12.9355 53.6379 14.8308C54.1473 15.3535 54.6054 15.9158 55.0123 16.5179C56.8052 14.5398 58.2523 10.5323 59.3539 4.49548Z" fill="#F1CBBB"/>
<path d="M35.4232 25.0372C35.8069 25.3382 36.308 25.4176 36.9266 25.2753C35.8945 24.9677 35.1602 24.3045 34.7236 23.2856C34.803 24.1457 35.0362 24.7295 35.4232 25.0372ZM51.9757 25.0372C52.3627 24.7295 52.5959 24.1457 52.6753 23.2856C52.2386 24.3045 51.5043 24.9677 50.4722 25.2753C51.0908 25.4176 51.5919 25.3382 51.9757 25.0372Z" fill="#83627B"/>
<path d="M34.7236 23.2857L34.1579 23.2361C34.1546 23.2956 34.153 23.3568 34.153 23.4197C34.153 24.1209 34.368 24.7213 34.798 25.2208C35.228 25.7203 35.7457 25.97 36.351 25.97C36.6223 25.97 36.877 25.9204 37.1151 25.8212L36.9266 25.2754C36.308 25.4176 35.8069 25.3382 35.4232 25.0372C35.0361 24.7296 34.8029 24.1457 34.7236 23.2857ZM50.4722 25.2754L50.2837 25.8212C50.5218 25.9204 50.7765 25.97 51.0478 25.97C51.6531 25.97 52.1708 25.7203 52.6008 25.2208C53.0308 24.7213 53.2459 24.1209 53.2459 23.4197C53.2459 23.3568 53.2442 23.2956 53.2409 23.2361L52.6753 23.2857C52.5959 24.1457 52.3627 24.7296 51.9756 25.0372C51.5919 25.3382 51.0908 25.4176 50.4722 25.2754Z" fill="#150403"/>
<path d="M37.8991 21.6135C37.4724 21.114 36.9564 20.8643 36.3511 20.8643C35.7457 20.8643 35.228 21.114 34.798 21.6135C34.4044 22.07 34.191 22.6108 34.158 23.236L34.7236 23.2856C35.1602 24.3044 35.8946 24.9676 36.9266 25.2753L37.1152 25.8211C37.403 25.6954 37.6643 25.4952 37.8991 25.2207C38.3325 24.7212 38.5491 24.1208 38.5491 23.4196C38.5491 22.9896 38.4697 22.5976 38.311 22.2436L38.048 22.3329C38.0778 22.409 38.0926 22.4917 38.0926 22.581C38.0926 22.7597 38.0281 22.9118 37.8991 23.0375C37.7734 23.1665 37.6957 23.1533 37.6659 22.9978C37.6329 22.8424 37.5518 22.7034 37.4228 22.581C37.2905 22.4553 37.1532 22.3793 37.011 22.3528C36.8654 22.3263 36.8555 22.2486 36.9812 22.1196C37.1102 21.9939 37.264 21.931 37.4426 21.931C37.532 21.931 37.6147 21.9476 37.6907 21.9807L37.8991 21.6135ZM52.6009 21.6135C52.1709 21.114 51.6532 20.8643 51.0478 20.8643C50.4425 20.8643 49.9265 21.114 49.4998 21.6135C49.341 21.7954 49.212 21.9906 49.1127 22.199C49.1094 22.2023 49.1078 22.2072 49.1078 22.2139C49.1012 22.2238 49.0962 22.2337 49.0929 22.2436C48.9308 22.5976 48.8498 22.9896 48.8498 23.4196C48.8498 24.1208 49.0664 24.7212 49.4998 25.2207C49.7346 25.4952 49.9959 25.6954 50.2837 25.8211L50.4723 25.2753C51.5043 24.9676 52.2387 24.3044 52.6753 23.2856L53.2409 23.236C53.2079 22.6108 52.9945 22.07 52.6009 21.6135ZM51.162 21.802C51.2877 21.6763 51.4398 21.6135 51.6184 21.6135C51.7971 21.6135 51.9509 21.6763 52.0799 21.802C52.2056 21.931 52.2684 22.0849 52.2684 22.2635C52.2684 22.4421 52.2056 22.5943 52.0799 22.72C51.9509 22.849 51.8665 22.8705 51.8268 22.7845C51.7871 22.6985 51.7028 22.5943 51.5738 22.4719C51.4415 22.3462 51.3075 22.2585 51.1719 22.2089C51.0363 22.156 50.985 22.0915 51.0181 22.0154C51.0478 21.9393 51.0958 21.8682 51.162 21.802Z" fill="#0D0114"/>
<path d="M75.5292 79.3833C75.7575 78.6754 75.8865 78.0916 75.9163 77.6318C75.946 77.1687 75.9361 76.7072 75.8865 76.2474C74.9338 71.4511 71.5334 67.3725 65.6851 64.0117L65.5114 64.1407C65.8621 64.5575 66.0671 64.9941 66.1267 65.4506C65.4816 65.2224 64.6282 65.31 63.5664 65.7136C65.4552 66.2693 67.0711 67.3857 68.4141 69.0628C67.2365 69.1422 65.9613 69.4267 64.5885 69.9162C66.1366 70.9053 67.4217 72.1226 68.4438 73.5681C66.9487 73.5516 65.389 73.9104 63.7649 74.6448C64.2875 74.9491 64.7523 75.2782 65.1591 75.6322C65.2154 75.6818 65.2716 75.7331 65.3278 75.786C65.8769 75.9349 66.4244 76.0969 66.9702 76.2723C67.506 76.4509 68.0204 76.6725 68.5133 76.9371C69.0194 77.2084 69.4759 77.5375 69.8827 77.9245C70.2896 78.3115 70.6369 78.7498 70.9247 79.2394C71.2125 79.7257 71.4093 80.2665 71.5152 80.8619C71.621 81.454 71.5664 81.97 71.3514 82.41C71.1364 82.8466 70.8023 83.098 70.3491 83.1642C70.9016 83.2138 71.4457 83.1542 71.9816 82.9855C72.5472 82.8003 73.0583 82.5373 73.5148 82.1966C73.9679 81.8559 74.3599 81.4788 74.6907 81.0653C75.0182 80.6485 75.2977 80.0879 75.5292 79.3833Z" fill="#F6EDDD"/>
</svg>
