<svg width="90" height="90" viewBox="0 0 90 90" fill="none" xmlns="http://www.w3.org/2000/svg">
<path d="M31.6808 28.9011C31.6808 32.1013 32.653 34.8323 34.5974 37.0941C36.5364 39.3559 38.8794 40.4869 41.6263 40.4869C44.3732 40.4869 46.7161 39.3559 48.6551 37.0941C50.5995 34.8323 51.5717 32.1013 51.5717 28.9011C51.5717 25.7064 50.5995 22.9754 48.6551 20.7082C46.7161 18.4463 44.3732 17.3154 41.6263 17.3154C38.8794 17.3154 36.5364 18.4463 34.5974 20.7082C32.653 22.9754 31.6808 25.7064 31.6808 28.9011ZM36.4314 27.1356C37.3632 26.859 38.4862 26.7207 39.8004 26.7207C41.1146 26.7207 42.2349 26.859 43.1613 27.1356C44.0931 27.4177 44.559 27.7567 44.559 28.1526C44.559 28.554 44.0931 28.893 43.1613 29.1696C42.2349 29.4517 41.1146 29.5927 39.8004 29.5927C38.4862 29.5927 37.3632 29.4517 36.4314 29.1696C35.505 28.893 35.0418 28.554 35.0418 28.1526C35.0418 27.7567 35.505 27.4177 36.4314 27.1356Z" fill="#D38839"/>
<path d="M39.8004 26.7207C38.4862 26.7207 37.3632 26.859 36.4314 27.1356C35.505 27.4177 35.0417 27.7567 35.0417 28.1526C35.0417 28.554 35.505 28.893 36.4314 29.1696C37.3632 29.4517 38.4862 29.5927 39.8004 29.5927C41.1146 29.5927 42.2349 29.4517 43.1613 29.1696C44.0931 28.893 44.559 28.554 44.559 28.1526C44.559 27.7567 44.0931 27.4177 43.1613 27.1356C42.2349 26.859 41.1146 26.7207 39.8004 26.7207Z" fill="#442C11"/>
<path d="M38.6611 81.0765L36.2293 82.0773L35.0982 80.7023L34.46 81.3776C33.819 82.099 33.3208 83.2326 32.9653 84.7784C32.7876 85.5758 32.6772 86.3026 32.6341 86.9589L32.4725 87.1948C32.3486 87.4009 32.2517 87.6098 32.1817 87.8213C31.9501 88.4884 32.0201 89.058 32.3917 89.5299C32.7634 90.0072 33.2427 90.1211 33.8298 89.8716C34.1207 89.7468 34.3765 89.5733 34.5973 89.3509L34.8882 89.5055C35.1252 89.6139 35.3648 89.6763 35.6072 89.6926C36.3774 89.7577 37.0103 89.3644 37.5058 88.5129C38.4268 89.0878 39.2186 89.18 39.8811 88.7895C40.0858 88.6702 40.2689 88.5074 40.4305 88.3013L40.6001 88.0328L41.0526 88.3257C41.4619 88.4939 41.9251 88.5156 42.4422 88.3908C43.4332 88.2173 44.1469 87.5582 44.5832 86.4138C44.7232 86.0504 44.8255 85.6625 44.8902 85.2503L44.9386 84.7377L45.3022 84.9818C45.7115 85.1391 46.3256 85.2178 47.1442 85.2178C47.6074 85.2178 47.9818 85.0957 48.2672 84.8516C48.5204 84.6293 48.6631 84.3472 48.6954 84.0055C48.7224 83.6746 48.6308 83.3736 48.4207 83.1024C48.1945 82.8041 47.866 82.6115 47.4351 82.5247C46.6918 82.3783 45.9081 81.8793 45.0841 81.0277L44.0661 79.791C43.2905 79.6283 42.6657 79.3408 42.1917 78.9286C41.5777 79.5578 40.4008 80.2738 38.6611 81.0765ZM56.6534 53.5442L57.0735 54.5612L56.9604 54.789C56.885 54.9843 56.8365 55.1904 56.815 55.4073C56.7557 56.1179 57.0008 56.8339 57.5502 57.5553C58.0942 58.2767 58.6032 58.5235 59.0771 58.2956C59.3141 58.1817 59.4973 57.9946 59.6265 57.7343L59.8285 58.0109C59.9955 58.2224 60.1705 58.3879 60.3536 58.5072C60.9515 58.8977 61.5224 58.7811 62.0664 58.1573C63.0575 58.8028 63.8115 58.7675 64.3286 58.0516C64.5871 57.6936 64.746 57.2678 64.8053 56.7742C65.2092 56.3566 65.5755 55.7301 65.904 54.8948C65.9148 54.8677 65.9256 54.8378 65.9363 54.8053C66.5611 53.1672 66.6796 51.3285 66.2918 49.2891C66.2918 49.6904 66.211 50.1705 66.0494 50.7291C65.9687 51.0112 65.8906 51.2498 65.8152 51.4451L65.3385 50.2491L64.9507 51.4776C64.6545 52.3346 64.4067 52.8635 64.2074 53.0642C64.0081 53.2649 62.9767 53.3761 61.1131 53.3978L58.3823 53.3652L58.2611 54.3253L56.6534 53.5442ZM67.4148 86.9589C67.5172 86.308 67.2559 85.291 66.6312 83.9079L65.6536 82.0203C65.6482 82.0149 65.6428 82.0122 65.6374 82.0122C64.711 81.4101 63.7873 80.8135 62.8663 80.2223L58.4066 81.2962L56.92 79.7992L55.7889 80.6372C55.051 81.0874 54.3239 81.3938 53.6076 81.5566C53.4567 82.1044 53.1632 82.6522 52.7269 83.2C52.2099 83.8509 51.6362 84.2848 51.0061 84.5018C50.2843 84.7567 49.8184 85.2178 49.6084 85.8849C49.3983 86.5792 49.6461 87.0565 50.3517 87.3169C51.0088 87.5555 51.7224 87.5447 52.4926 87.2843C52.9882 87.1216 53.5833 86.8124 54.2781 86.3568C54.4343 87.7942 54.8464 88.681 55.5142 89.0173C56.2414 89.3753 57.0574 88.9278 57.9622 87.6749C58.4524 88.3637 59.0583 88.6729 59.78 88.6024C60.4048 88.5427 60.8896 88.2525 61.2343 87.7318C61.789 88.2145 62.333 88.4668 62.8663 88.4885C63.2056 88.5047 63.6338 88.4125 64.1508 88.2118C64.9965 88.5752 65.7182 88.6512 66.3161 88.4396C66.9301 88.2173 67.2963 87.7237 67.4148 86.9589ZM48.4046 59.6625C47.8175 59.4998 47.2627 59.2286 46.7403 58.8489L46.1343 58.3363C45.892 58.8136 45.6334 59.1526 45.3587 59.3533C44.9602 59.1255 44.5428 58.6997 44.1065 58.076L43.5733 57.1973C43.7402 58.6455 43.9826 59.6842 44.3004 60.3134C44.699 61.089 45.2699 61.4063 46.0132 61.2653C46.4117 62.106 46.8857 62.6023 47.4351 62.7542C48.0276 62.9223 48.682 62.6864 49.3983 62.0464C50.3678 62.8437 51.2323 63.0037 51.9917 62.5264C52.3741 62.2877 52.6596 61.9677 52.8481 61.5663L53.1228 61.9406C53.3921 62.1792 53.7368 62.2742 54.1569 62.2253C54.9487 62.1494 55.5573 61.3277 55.9828 59.7601C56.1121 59.2611 56.2144 58.7214 56.2898 58.1411L56.3706 57.417L54.5124 59.1743C54.3562 58.735 54.1785 58.2143 53.9792 57.6122C52.1479 59.4835 50.2897 60.1669 48.4046 59.6625ZM35.0902 22.2123L35.3083 21.9845C35.6045 21.7133 35.9815 21.2414 36.4394 20.5689C36.6656 20.238 36.8622 19.9315 37.0291 19.6495C36.8029 20.5661 36.3074 21.4855 35.5426 22.4076C34.6431 23.5195 34.1153 24.7426 33.9591 26.077C33.8029 27.3679 34.0156 28.5205 34.5973 29.5348C36.5848 33.1255 38.89 34.4679 41.5131 33.5621C42.4287 33.2475 43.3255 32.6753 44.2034 31.8454C44.8659 31.2216 45.3695 30.6087 45.7142 30.0067C46.2744 29.052 46.5814 28.0757 46.6353 27.0777C46.6999 25.9224 46.4117 24.8837 45.7708 23.9616C45.2052 23.1371 44.7582 22.2205 44.4296 21.2116L44.1065 19.9505L44.6478 21.114C45.1433 22.0361 45.7358 22.847 46.4252 23.5466C46.7861 23.8667 47.0985 24.2274 47.3624 24.6287C47.3732 24.645 47.3839 24.6586 47.3947 24.6694C47.8148 25.2064 48.103 25.5318 48.2592 25.6457C48.5931 25.9061 49.024 26.0227 49.5518 25.9956C50.0689 25.9739 50.4755 24.9325 50.7718 22.8714C50.9872 21.3472 51.0949 19.8556 51.0949 18.3965C51.0949 15.9503 50.6802 13.7265 49.8508 11.725C48.4019 8.21565 45.9243 6.48539 42.4179 6.53421C38.9708 6.58845 36.7168 9.21639 35.6557 14.418C35.1225 17.0216 34.934 19.6197 35.0902 22.2123ZM36.7868 27.8262L35.7284 27.2567L36.399 27.4926C36.9753 27.6716 37.5839 27.8181 38.2249 27.932C40.2662 28.29 42.2267 28.2439 44.1065 27.7937C42.5661 28.5368 40.9421 28.7971 39.2348 28.5747C38.4645 28.4717 37.6485 28.2222 36.7868 27.8262Z" fill="#52524D"/>
<path d="M44.1954 68.1727C43.3713 66.8384 42.3452 65.5122 41.1172 64.1942L39.5337 62.6158L40.584 62.9006C41.435 63.1772 42.2321 63.5406 42.9754 63.9908C42.0167 62.5426 40.2877 61.4117 37.7886 60.5981C34.9932 59.6868 31.5703 59.3017 27.52 59.4428C23.949 59.5675 21.3745 60.6496 19.7963 62.689C19.01 63.7142 18.5764 64.723 18.4956 65.7156C18.8457 68.8073 20.0441 71.5085 22.0908 73.8191C24.6708 76.7318 28.6107 79.0641 33.9106 80.8161L33.5551 81.4426C33.1781 81.9687 32.6422 82.5192 31.9474 83.0942C32.863 82.644 33.6628 82.1097 34.3469 81.4914L34.46 81.3775L35.0982 80.7022L36.2293 82.0772L38.6611 81.0765C40.4009 80.2737 41.5777 79.5577 42.1917 78.9286C42.6657 79.3408 43.2905 79.6283 44.0661 79.791C44.1469 79.8072 44.2331 79.8235 44.3246 79.8398C44.7717 79.9157 45.1649 79.9428 45.5042 79.9211L44.672 78.7252C47.0042 75.9426 46.8453 72.4251 44.1954 68.1727ZM74.8557 56.0175C74.8342 55.8331 74.7669 55.627 74.6538 55.3992C74.4222 54.9435 74.0801 54.6181 73.6277 54.4228C72.1519 53.7882 69.8036 54.5422 66.5827 56.6846C66.4373 57.4603 66.0764 58.0434 65.5001 58.4339C65.3223 58.5532 65.1311 58.6481 64.9265 58.7187L64.6841 58.7837C64.4094 59.657 63.93 60.0774 63.246 60.0448C63.0359 60.0394 62.8151 59.9852 62.5835 59.8821L62.3007 59.7438C61.6059 60.3079 60.9623 60.4164 60.3698 60.0692C60.1813 59.9608 60.0117 59.8143 59.8608 59.6299L59.6912 59.3858C59.0448 59.7818 58.5143 59.7818 58.0996 59.3858C57.9703 59.261 57.8572 59.1038 57.7603 58.9139L57.6633 58.6617C57.3509 59.0143 56.9766 59.5078 56.5403 60.1425C55.6516 61.4171 54.8841 62.7731 54.2378 64.2105C52.1803 68.7938 51.709 73.312 52.8239 77.7651C52.9208 78.3129 53.139 78.877 53.4783 79.4574C53.6453 79.7449 53.8015 79.9781 53.9469 80.1571L53.6722 80.6371C53.446 81.0168 53.2225 81.3558 53.0016 81.6541C53.2009 81.6379 53.4029 81.6053 53.6076 81.5565C54.3239 81.3938 55.051 81.0873 55.7889 80.6371L56.92 79.7991L58.4066 81.2961L62.8663 80.2222C63.7873 80.8134 64.711 81.41 65.6374 82.0121C65.6428 82.0121 65.6482 82.0148 65.6536 82.0202L67.9238 83.4847C67.2883 82.6874 66.5342 81.8874 65.6617 81.0846C69.4535 76.6044 72.09 71.8475 73.5712 66.814C74.643 63.1799 75.0712 59.5811 74.8557 56.0175ZM46.7403 58.8488C47.2627 59.2285 47.8175 59.4997 48.4046 59.6624C50.2897 60.1669 52.1479 59.4834 53.9792 57.6122C54.1785 58.2142 54.3562 58.7349 54.5124 59.1743L56.3707 57.4169C56.403 56.9341 56.3141 56.4351 56.104 55.9199C55.6947 54.873 54.9083 54.2493 53.7449 54.0486C52.463 53.8316 50.9495 53.9265 49.2044 54.3333C47.7448 54.6696 46.4441 55.1361 45.3022 55.7327C44.4835 56.1558 43.9503 56.5273 43.7025 56.8474C43.5787 57.0047 43.5356 57.1213 43.5733 57.1972L44.1065 58.0759C44.5428 58.6997 44.9602 59.1255 45.3588 59.3533C45.6335 59.1526 45.892 58.8136 46.1344 58.3363L46.7403 58.8488ZM72.6986 36.6456C72.2192 35.7778 71.6376 34.8638 70.9535 33.9038C69.9463 26.3101 67.1698 20.021 62.6239 15.0363C61.0727 13.3386 59.3115 11.7927 57.3401 10.3988C56.7908 10.0137 55.5116 9.20548 53.5025 7.97422C52.9586 6.67788 52.1022 5.47104 50.9334 4.35369C50.5671 4.00113 50.1928 3.68111 49.8104 3.39364L49.3418 3.06006L49.6892 3.03565C49.9908 3.02481 50.3194 3.05464 50.6748 3.12515C51.7952 3.34211 52.937 3.90078 54.1004 4.80117C53.1848 3.32584 51.6417 2.26544 49.4711 1.61999C48.7924 1.41387 48.0895 1.26471 47.3624 1.1725L46.4898 1.09114L47.4997 0.806383C48.3723 0.605694 49.3041 0.480941 50.2951 0.432125C48.5823 -0.191638 46.5626 -0.14011 44.2358 0.586709C43.5086 0.814518 42.7923 1.09657 42.0867 1.43286L41.2546 1.86407C41.2761 1.58744 41.3246 1.28912 41.4 0.969103C40.856 1.1264 40.4062 1.35963 40.0508 1.6688C39.5229 2.12984 39.1028 2.81327 38.7904 3.71908C37.6486 4.32115 36.5713 5.53884 35.5588 7.37216C35.241 7.9471 34.9528 8.54917 34.6943 9.17836C34.5596 9.49295 34.4573 9.75059 34.3873 9.95128C29.1412 11.9961 24.9131 15.6031 21.703 20.7722C19.1392 24.9107 17.281 29.9496 16.1284 35.889C15.3043 40.1305 14.8734 44.6108 14.8357 49.3297C14.8196 51.6837 14.8842 53.6174 15.0296 55.1307L15.983 55.1876C16.0315 56.1368 16.2846 57.4115 16.7424 59.0115C16.9686 59.8089 17.1922 60.5113 17.413 61.1188L18.5683 60.6713C19.2308 60.118 19.9283 59.4292 20.6608 58.6047C22.1258 56.9558 23.0442 55.4588 23.4158 54.1137C23.4158 54.873 23.3969 55.692 23.3592 56.5707L23.9571 56.8555C24.4849 57.0779 25.0639 57.2786 25.6941 57.4576C27.7085 58.0434 29.863 58.3064 32.1574 58.2468C39.4987 58.0569 46.8615 54.694 54.2458 48.1581C54.3051 48.9663 54.5959 49.9426 55.1184 51.0871C55.6193 52.1827 56.131 53.0017 56.6534 53.5441L58.2612 54.3252L58.3824 53.3651L61.1131 53.3977C62.9767 53.376 64.0081 53.2648 64.2074 53.0641C64.4067 52.8634 64.6545 52.3346 64.9507 51.4776L65.3385 50.249L65.8152 51.445C65.8906 51.2498 65.9687 51.0111 66.0495 50.7291C66.211 50.1704 66.2918 49.6904 66.2918 49.289C66.6796 51.3284 66.5611 53.1672 65.9364 54.8052C66.8251 54.6805 67.3798 54.5964 67.6007 54.553C68.2847 54.4228 68.8583 54.2547 69.3215 54.0486C70.0002 53.7448 70.5684 53.5143 71.0262 53.357C71.7103 53.1183 72.4104 52.9312 73.1268 52.7956C73.0514 52.4702 72.8413 52.0444 72.4966 51.5183L71.9957 50.8186L74.169 51.5101L74.7022 51.6484C75.1116 51.7406 75.459 51.7732 75.7444 51.7461C75.9168 50.325 75.7014 48.5215 75.0981 46.3356C74.9096 45.6522 74.6942 44.9715 74.4518 44.2935L74.1367 43.4799L75.8333 44.3179C75.4455 43.8189 75.0496 43.0405 74.6457 41.9828C74.2848 41.0607 74.0074 40.1631 73.8135 39.2898C73.6466 38.5738 73.2749 37.6924 72.6986 36.6456ZM32.9896 16.2974L32.3836 18.844C32.0066 20.84 31.8908 22.5865 32.0362 24.0836C30.8998 25.2063 30.073 26.9908 29.5559 29.4371C29.2974 30.6575 29.1547 31.7667 29.1277 32.7647C29.3216 32.065 29.696 31.3762 30.2508 30.6982C30.5308 30.3619 30.7894 30.0934 31.0264 29.8927C30.8055 30.5924 30.6197 31.8779 30.4689 33.7492C30.3935 34.6875 30.3423 35.5581 30.3154 36.3608C30.4393 35.8618 30.714 35.3818 31.1395 34.9208C31.3495 34.693 31.5488 34.514 31.7373 34.3838L32.0847 35.1242C32.3863 35.71 32.7311 36.2496 33.1189 36.7432C34.3577 38.3216 35.7823 39.1108 37.3927 39.1108C39.3209 39.1108 41.3946 38.9589 43.6137 38.6552C45.8274 38.3515 47.3812 38.0043 48.2753 37.6138C49.2664 37.1799 50.4136 36.8924 51.717 36.7514C53.209 36.5941 54.5367 36.6836 55.7001 37.0199C56.7773 37.329 57.8249 37.1609 58.8429 36.5154C59.473 36.1195 60.0117 35.6069 60.4587 34.9777C60.6095 35.1784 60.7145 35.4496 60.7738 35.7913C60.8007 35.9595 60.8142 36.1086 60.8142 36.2388C61.2128 35.4686 61.6005 34.5601 61.9776 33.5132C62.7316 31.4196 63.0575 29.673 62.9552 28.2736C63.1814 28.4255 63.3672 28.8703 63.5126 29.6079C63.588 29.9768 63.6419 30.3293 63.6742 30.6656C63.8627 30.0364 63.9624 29.2472 63.9731 28.298C63.9839 26.405 63.5476 24.6802 62.6643 23.1235C63.386 24.1161 63.8843 25.3799 64.1589 26.9149C64.5037 28.835 64.3017 30.5463 63.553 32.0487C63.5261 31.7992 63.4587 31.3436 63.351 30.6819L63.1975 29.7707L63.0844 30.6087C62.9767 31.2975 62.842 31.9701 62.6805 32.6264C62.1796 34.7472 61.5198 36.331 60.7011 37.3778C61.0027 37.4646 61.3501 37.6572 61.7433 37.9555C62.2173 38.3135 62.6374 38.7447 63.0036 39.2491C64.0001 40.6214 64.3825 42.2323 64.1509 44.0819C63.2945 42.433 61.956 40.9387 60.1355 39.599C57.8734 37.9338 55.525 37.1121 53.0905 37.1338C52.0618 37.188 51.0923 37.3209 50.182 37.5324C49.805 37.6246 48.8517 37.8904 47.322 38.3298C45.48 38.8722 43.5033 39.2329 41.3919 39.4118C38.1872 39.6885 35.346 39.4498 32.8684 38.6959C30.7086 38.045 28.9096 37.8199 27.4715 38.0206C25.3279 38.3189 23.203 39.5013 21.0971 41.5679C21.6949 40.3855 23.0522 39.1488 25.169 37.8579C27.0918 36.6809 28.5676 36.0408 29.5963 35.9378C29.5479 35.4659 29.564 34.8448 29.6448 34.0746L29.7822 33.0657L29.0066 34.2617C28.8396 33.242 28.8207 32.0487 28.95 30.6819C29.2193 27.9482 30.1107 25.7081 31.6242 23.9615C31.5003 22.6652 31.6296 21.0597 32.012 19.145L32.6341 16.6554L31.6808 17.3144C31.7131 16.9076 31.7831 16.4601 31.8908 15.9719C32.1063 14.9902 32.4133 14.3013 32.8118 13.9054C32.4564 14.9034 32.2194 15.7604 32.1009 16.4764L32.9896 16.2974ZM35.0902 22.2123C34.934 19.6196 35.1225 17.0215 35.6557 14.418C36.7168 9.21633 38.9708 6.58839 42.4179 6.53415C45.9243 6.48533 48.4019 8.21559 49.8508 11.7249C50.6802 13.7264 51.095 15.9502 51.095 18.3965C51.095 19.8555 50.9872 21.3472 50.7718 22.8713C50.4756 24.9324 50.0689 25.9738 49.5518 25.9955C49.024 26.0227 48.5931 25.906 48.2592 25.6457C48.103 25.5318 47.8148 25.2063 47.3947 24.6694C48.1003 25.7487 48.4665 27.0776 48.4935 28.656C48.515 29.7462 48.4019 30.7171 48.1541 31.5687C47.9172 31.1673 47.699 30.8663 47.4997 30.6656C46.9557 32.64 45.9108 34.1994 44.365 35.3438C43.8803 35.7072 43.3767 36.0056 42.8542 36.2388L42.2079 36.4747L42.7007 35.9052C43.0562 35.4496 43.3067 35.0211 43.4521 34.6197C41.7447 35.2218 40.0346 35.2028 38.3218 34.5628C37.7832 34.3621 37.2796 34.1126 36.811 33.8143L36.2616 33.4237L36.3344 34.0095C36.4151 34.5465 36.5283 35.1892 36.6737 35.9378C35.4133 34.6631 34.5489 33.3234 34.0803 31.9186C33.9402 31.4792 33.8433 31.0589 33.7894 30.6575L33.7652 30.1937C33.5659 30.4324 33.3666 30.6114 33.1673 30.7307C32.7903 28.6804 32.8926 26.7902 33.4743 25.0599C33.8621 23.9154 34.4007 22.9662 35.0902 22.2123ZM52.1937 31.8047C51.5312 32.5694 50.5617 33.3125 49.2852 34.0339C47.9225 34.8096 46.7726 35.2245 45.8354 35.2787L46.8938 34.8069C47.7556 34.3946 48.5635 33.9471 49.3175 33.4644C51.7251 31.9131 53.1417 30.3022 53.5672 28.6316C53.6372 28.9299 53.6587 29.3286 53.6318 29.8276C53.6157 30.0771 53.5941 30.2968 53.5672 30.4866C53.8419 29.9171 54.1031 29.2364 54.3509 28.4445C54.8464 26.8607 55.0187 25.5074 54.8679 24.3846C55.4173 24.8836 56.2952 25.3908 57.5017 25.906C58.105 26.1664 58.6544 26.3779 59.1499 26.5406C58.7244 26.519 58.2558 26.4647 57.7441 26.3779C56.71 26.2098 55.9694 25.963 55.5223 25.6376C55.1507 27.7041 54.7952 29.2038 54.4559 30.1368C53.7988 31.9484 52.8481 33.2827 51.604 34.1397L52.1937 31.8047Z" fill="#9B4C24"/>
<path d="M69.3215 54.0485C68.8583 54.2546 68.2847 54.4227 67.6007 54.5529C67.3798 54.5963 66.825 54.6804 65.9363 54.8051C65.9256 54.8377 65.9148 54.8675 65.904 54.8946C65.5755 55.7299 65.2092 56.3564 64.8053 56.774C64.746 57.2676 64.5871 57.6934 64.3286 58.0514C63.8115 58.7674 63.0575 58.8026 62.0664 58.1572C61.5224 58.7809 60.9515 58.8975 60.3536 58.507C60.1705 58.3877 59.9955 58.2222 59.8285 58.0107L59.6265 57.7341C59.4973 57.9944 59.3141 58.1816 59.0771 58.2955C58.6032 58.5233 58.0942 58.2765 57.5502 57.5551C57.0008 56.8337 56.7557 56.1177 56.815 55.4072C56.8365 55.1902 56.885 54.9841 56.9604 54.7888L57.0735 54.561L56.6534 53.544C56.131 53.0016 55.6193 52.1826 55.1184 51.0869C54.5959 49.9425 54.3051 48.9661 54.2458 48.158C46.8615 54.6939 39.4987 58.0568 32.1574 58.2466C29.8629 58.3063 27.7085 58.0432 25.6941 57.4575C25.0639 57.2785 24.4849 57.0778 23.9571 56.8554L23.3592 56.5706C23.3969 55.6919 23.4158 54.8729 23.4158 54.1135C23.0441 55.4587 22.1258 56.9557 20.6608 58.6046C19.9283 59.4291 19.2308 60.1179 18.5683 60.6712C18.3529 62.5425 18.3286 64.2239 18.4956 65.7155C18.5764 64.7229 19.01 63.7141 19.7963 62.6889C21.3745 60.6495 23.949 59.5674 27.52 59.4426C31.5703 59.3016 34.9932 59.6867 37.7886 60.598C40.2877 61.4116 42.0167 62.5425 42.9754 63.9907C42.2321 63.5405 41.435 63.1771 40.584 62.9005L39.5337 62.6157L41.1172 64.1941C42.3452 65.5121 43.3713 66.8383 44.1954 68.1726C46.8453 72.425 47.0042 75.9425 44.672 78.725L52.8239 77.765C51.709 73.3119 52.1802 68.7937 54.2377 64.2104C54.8841 62.773 55.6516 61.417 56.5403 60.1423C56.9766 59.5077 57.3509 59.0142 57.6633 58.6616L57.7602 58.9138C57.8572 59.1036 57.9703 59.2609 58.0996 59.3857C58.5143 59.7816 59.0448 59.7816 59.6912 59.3857L59.8608 59.6298C60.0116 59.8142 60.1813 59.9606 60.3698 60.0691C60.9623 60.4163 61.6059 60.3078 62.3007 59.7437L62.5835 59.882C62.8151 59.9851 63.0359 60.0393 63.246 60.0447C63.93 60.0773 64.4094 59.6569 64.6841 58.7836L64.9264 58.7185C65.1311 58.648 65.3223 58.5531 65.5001 58.4338C66.0764 58.0432 66.4372 57.4602 66.5827 56.6845C69.8036 54.542 72.1519 53.7881 73.6277 54.4227C74.0801 54.618 74.4221 54.9434 74.6537 55.399C74.7668 55.6268 74.8342 55.833 74.8557 56.0174C74.7857 54.8404 74.651 53.7366 74.4518 52.706L74.169 51.51L71.9957 50.8185L72.4966 51.5182C72.8413 52.0443 73.0514 52.4701 73.1268 52.7955C72.4104 52.9311 71.7102 53.1182 71.0262 53.3569C70.5684 53.5142 70.0001 53.7447 69.3215 54.0485ZM52.8481 61.5662C52.6596 61.9675 52.3741 62.2875 51.9917 62.5262C51.2323 63.0035 50.3678 62.8435 49.3983 62.0462C48.682 62.6862 48.0276 62.9222 47.4351 62.754C46.8857 62.6021 46.4117 62.1058 46.0132 61.2651C45.2699 61.4061 44.699 61.0888 44.3004 60.3132C43.9826 59.684 43.7402 58.6453 43.5733 57.1971C43.5356 57.1212 43.5786 57.0045 43.7025 56.8473C43.9503 56.5272 44.4835 56.1557 45.3022 55.7326C46.4441 55.136 47.7448 54.6695 49.2044 54.3332C50.9495 53.9264 52.463 53.8315 53.7449 54.0485C54.9083 54.2491 55.6947 54.8729 56.104 55.9197C56.3141 56.435 56.403 56.934 56.3706 57.4168L56.2898 58.1409C56.2144 58.7213 56.1121 59.2609 55.9828 59.76C55.5573 61.3275 54.9487 62.1492 54.1569 62.2252C53.7368 62.274 53.3921 62.1791 53.1228 61.9404L52.8481 61.5662ZM49.2852 34.0338C50.5617 33.3124 51.5312 32.5693 52.1937 31.8045L51.6039 34.1396C52.8481 33.2826 53.7988 31.9483 54.4559 30.1367C54.7952 29.2037 55.1507 27.704 55.5223 25.6374C55.9694 25.9629 56.71 26.2097 57.7441 26.3778C58.2558 26.4646 58.7243 26.5188 59.1499 26.5405C58.6543 26.3778 58.105 26.1663 57.5017 25.9059C56.2952 25.3906 55.4173 24.8835 54.8679 24.3845C55.0187 25.5073 54.8464 26.8605 54.3508 28.4444C54.1031 29.2363 53.8419 29.917 53.5672 30.4865C53.5941 30.2967 53.6156 30.077 53.6318 29.8275C53.6587 29.3285 53.6372 28.9298 53.5672 28.6315C53.1417 30.3021 51.7251 31.913 49.3175 33.4643C48.5635 33.947 47.7556 34.3945 46.8938 34.8067L45.8354 35.2786C46.7726 35.2244 47.9225 34.8095 49.2852 34.0338ZM32.3836 18.8438L32.9896 16.2973L32.1009 16.4763C32.2194 15.7603 32.4564 14.9033 32.8118 13.9053C32.4133 14.3012 32.1063 14.9901 31.8908 15.9718C31.7831 16.46 31.7131 16.9075 31.6808 17.3143L32.6341 16.6553L32.012 19.1449C31.6296 21.0596 31.5003 22.6651 31.6242 23.9614C30.1107 25.7079 29.2193 27.9481 28.95 30.6818C28.8207 32.0486 28.8396 33.2419 29.0066 34.2616L29.7822 33.0656L29.6448 34.0745C29.564 34.8447 29.5479 35.4658 29.5963 35.9376C28.5676 36.0407 27.0918 36.6807 25.169 37.8577C23.0522 39.1487 21.6949 40.3853 21.0971 41.5678C23.203 39.5012 25.3278 38.3188 27.4715 38.0205C28.9096 37.8198 30.7086 38.0449 32.8684 38.6958C35.346 39.4497 38.1872 39.6884 41.3919 39.4117C43.5032 39.2327 45.4799 38.872 47.322 38.3296C48.8516 37.8903 49.805 37.6245 50.182 37.5323C51.0922 37.3208 52.0617 37.1879 53.0905 37.1336C55.525 37.1119 57.8734 37.9337 60.1355 39.5989C61.956 40.9386 63.2945 42.4329 64.1508 44.0818C64.3825 42.2322 64 40.6213 63.0036 39.249C62.6374 38.7446 62.2172 38.3134 61.7433 37.9554C61.3501 37.6571 61.0027 37.4645 60.7011 37.3777C61.5197 36.3309 62.1795 34.7471 62.6804 32.6263C62.842 31.97 62.9767 31.2974 63.0844 30.6085L63.1975 29.7705L63.351 30.6818C63.4587 31.3435 63.5261 31.7991 63.553 32.0486C64.3017 30.5462 64.5036 28.8349 64.1589 26.9148C63.8842 25.3798 63.386 24.116 62.6643 23.1234C63.5476 24.6801 63.9839 26.4049 63.9731 28.2979C63.9623 29.2471 63.8627 30.0363 63.6742 30.6655C63.6419 30.3292 63.588 29.9767 63.5126 29.6078C63.3672 28.8701 63.1814 28.4254 62.9551 28.2735C63.0575 29.6729 62.7316 31.4194 61.9776 33.5131C61.6005 34.5599 61.2127 35.4685 60.8142 36.2387C60.8142 36.1085 60.8007 35.9593 60.7738 35.7912C60.7145 35.4495 60.6095 35.1783 60.4587 34.9776C60.0116 35.6068 59.473 36.1194 58.8428 36.5153C57.8249 37.1608 56.7773 37.3289 55.7001 37.0197C54.5367 36.6835 53.209 36.594 51.717 36.7513C50.4136 36.8923 49.2664 37.1797 48.2753 37.6137C47.3812 38.0042 45.8273 38.3513 43.6137 38.6551C41.3946 38.9588 39.3209 39.1107 37.3927 39.1107C35.7823 39.1107 34.3576 38.3215 33.1188 36.7431C32.731 36.2495 32.3863 35.7098 32.0847 35.124L31.7373 34.3837C31.5488 34.5138 31.3495 34.6928 31.1395 34.9206C30.7139 35.3817 30.4393 35.8617 30.3154 36.3607C30.3423 35.558 30.3935 34.6874 30.4689 33.7491C30.6197 31.8778 30.8055 30.5923 31.0263 29.8926C30.7894 30.0933 30.5308 30.3618 30.2507 30.698C29.696 31.376 29.3216 32.0649 29.1277 32.7646C29.1547 31.7666 29.2974 30.6574 29.5559 29.437C30.073 26.9907 30.8998 25.2062 32.0362 24.0834C31.8908 22.5864 32.0066 20.8399 32.3836 18.8438Z" fill="#802908"/>
<path d="M42.1189 21.2525C42.1189 21.0193 42.0328 20.8186 41.8604 20.6505C41.6988 20.4823 41.5022 20.3982 41.2706 20.3982C41.039 20.3982 40.837 20.4823 40.6647 20.6505C40.5031 20.8186 40.4223 21.0193 40.4223 21.2525C40.4223 21.4858 40.5031 21.6865 40.6647 21.8546C40.837 22.0227 41.039 22.1068 41.2706 22.1068C41.5022 22.1068 41.6988 22.0227 41.8604 21.8546C42.0328 21.6865 42.1189 21.4858 42.1189 21.2525ZM42.3209 16.078C42.2886 16.2624 42.2697 16.4143 42.2644 16.5336L43.6136 16.8103C44.75 16.9676 45.9269 16.9974 47.1442 16.8997C47.0957 16.1567 46.953 15.5736 46.716 15.1505C46.3228 14.4508 45.6334 14.0359 44.6477 13.9057C43.7051 13.7809 43.0238 14.1823 42.6037 15.1098C42.4798 15.3973 42.3856 15.72 42.3209 16.078ZM37.5704 29.413L37.9178 29.9581C38.2625 30.3269 38.7203 30.5249 39.2912 30.552C39.9053 30.5737 40.3523 30.5059 40.6324 30.3486C40.7886 30.251 40.9959 30.0177 41.2545 29.6489C40.5381 29.7248 39.7087 29.7086 38.7661 29.6001L37.5704 29.413ZM39.2347 21.1468C39.2347 20.919 39.1754 20.721 39.0569 20.5528C38.9438 20.3901 38.8038 20.3087 38.6368 20.3087C38.4752 20.3087 38.3352 20.3901 38.2167 20.5528C38.1036 20.721 38.047 20.919 38.047 21.1468C38.047 21.3746 38.1036 21.5725 38.2167 21.7407C38.3352 21.9034 38.4752 21.9848 38.6368 21.9848C38.8038 21.9848 38.9438 21.9034 39.0569 21.7407C39.1754 21.5725 39.2347 21.3746 39.2347 21.1468ZM35.801 15.6305C35.7418 15.7987 35.696 15.9424 35.6637 16.0617C37.1179 16.3872 38.6449 16.4848 40.2446 16.3546C40.1853 15.8882 40.0507 15.4163 39.8406 14.939C39.4259 13.9789 38.8469 13.4745 38.1036 13.4257C37.3603 13.3768 36.7301 13.7999 36.2131 14.6949C36.0569 14.9769 35.9195 15.2888 35.801 15.6305Z" fill="#442C11"/>
<path d="M43.3067 16.7205C43.9584 16.7747 44.5913 16.8127 45.2053 16.8344C45.4315 16.8452 45.5823 16.7693 45.6577 16.6066C45.7277 16.4493 45.717 16.2676 45.6254 16.0615C45.41 15.5136 44.9764 15.2153 44.3247 15.1665C43.6999 15.1177 43.2663 15.3564 43.0239 15.8825C42.9324 16.0886 42.9135 16.273 42.9674 16.4357C43.0105 16.6147 43.1236 16.7096 43.3067 16.7205ZM37.312 16.2649C37.9314 16.3245 38.5669 16.3761 39.2186 16.4195C39.3964 16.4303 39.523 16.3544 39.5984 16.1916C39.6684 16.0398 39.6738 15.8554 39.6145 15.6384C39.4422 15.0797 39.0436 14.7814 38.4188 14.7434C37.7671 14.7 37.2985 14.9306 37.013 15.435C36.8945 15.6357 36.8595 15.8147 36.908 15.972C36.9565 16.151 37.0911 16.2486 37.312 16.2649Z" fill="#081A02"/>
<path d="M43.3471 16.0625L43.339 15.7615L43.0805 16.152C42.9943 16.4123 43.1478 16.5615 43.541 16.5995C43.444 16.4639 43.3794 16.2849 43.3471 16.0625ZM37.3281 15.6394L37.312 15.3384L37.0615 15.7289C36.9753 15.9947 37.1288 16.1438 37.522 16.1764C37.4251 16.0408 37.3604 15.8618 37.3281 15.6394Z" fill="#172C10"/>
<path d="M45.1891 15.6312C45.0006 15.4576 44.7905 15.36 44.5589 15.3383C44.3435 15.3383 44.2439 15.4088 44.26 15.5498C44.2708 15.6908 44.4485 15.7695 44.7932 15.7858C44.9818 15.802 45.1568 15.9241 45.3184 16.1519C45.3992 16.2604 45.4611 16.3688 45.5042 16.4773C45.5311 16.1302 45.4261 15.8481 45.1891 15.6312ZM38.7743 15.3708C38.9628 15.3871 39.1378 15.5064 39.2994 15.7288C39.3802 15.8373 39.4421 15.9485 39.4852 16.0624C39.5122 15.7098 39.4071 15.4278 39.1702 15.2162C38.9816 15.0372 38.7689 14.9396 38.5319 14.9233C38.3218 14.9233 38.2249 14.9911 38.2411 15.1267C38.2518 15.2678 38.4296 15.3491 38.7743 15.3708Z" fill="#E8FFE1"/>
</svg>
