<svg width="90" height="90" viewBox="0 0 90 90" fill="none" xmlns="http://www.w3.org/2000/svg">
<path d="M35.0456 54.936L35.022 54.5022C34.6874 54.3286 34.3658 54.1288 34.0573 53.9027C34.1881 54.4811 34.3319 55.0202 34.4887 55.5197C34.0756 55.5092 33.5972 55.4303 33.0534 55.2831C31.9606 54.9939 31.0796 54.5206 30.4103 53.8632C30.4497 54.0152 30.489 54.1756 30.528 54.3444C30.6524 54.8464 30.7831 55.4222 30.9201 56.0719C30.5175 55.972 30.0705 55.8195 29.579 55.6144C28.6064 55.1989 27.9162 54.7204 27.5084 54.1787C27.5345 54.8624 27.5738 55.4409 27.626 55.9142C27.4535 55.7932 27.2496 55.6275 27.0143 55.4172C26.5489 54.9965 26.1725 54.56 25.8849 54.1077L26.1045 54.6599C26.3136 55.1174 26.5672 55.5697 26.8653 56.0167C27.8326 57.4366 29.0927 58.5251 30.6456 59.2824C30.7763 58.888 30.9018 58.4936 31.0221 58.0992L31.1554 57.6259L31.4064 57.8941C31.6312 58.115 31.877 58.3174 32.1436 58.5015C33.0064 59.0852 33.9449 59.385 34.9593 59.4007C35.0273 59.1062 35.0796 58.7802 35.1162 58.4226L35.1554 57.9809L35.4377 58.2017C35.6782 58.3647 35.9214 58.4804 36.1671 58.5488C35.7762 57.7394 35.4781 56.94 35.273 56.1508C35.1632 55.7143 35.0874 55.3094 35.0456 54.936ZM67.108 40.264C67.4053 39.9733 67.6249 39.6289 67.7668 39.2306L65.359 38.9624C65.2648 39.1359 65.1367 39.3147 64.9747 39.4988C64.6505 39.8617 64.3106 40.0641 63.9551 40.1062V40.1141C63.9496 40.13 63.9444 40.1458 63.9394 40.1614C63.824 40.5174 63.6802 40.8041 63.508 41.0212L63.759 41.3762C64.0047 41.7338 64.193 41.9941 64.3237 42.1571C64.8622 41.8311 65.2465 41.2789 65.4766 40.5006L65.657 39.4357L66.0727 39.6408C66.4124 39.822 66.7523 40.0245 67.0923 40.2482C67.0974 40.2551 67.1026 40.2603 67.108 40.264Z" fill="#9B8C85"/>
<path d="M26.9202 50.4477L26.4888 51.1576C25.1189 49.3854 24.3868 47.3397 24.2927 45.0206C24.2666 44.3001 24.3032 43.5928 24.4025 42.8987L24.5672 42.0783C24.1489 42.3675 23.7829 42.6305 23.4692 42.8671C23.0352 42.2571 22.8888 41.3736 23.03 40.2167C23.1189 39.5015 23.3568 38.5181 23.7437 37.2665C23.6444 37.2507 23.4588 37.3454 23.1869 37.5505C23.0509 37.6504 22.9228 37.7529 22.8026 37.8581L22.9202 34.971C21.9529 37.3007 21.4797 40.1273 21.5006 43.4508C21.5111 45.1179 21.6183 46.5483 21.8222 47.742L22.6065 46.7244C22.5908 49.1645 23.0039 51.1602 23.8457 52.7116C24.2692 53.4846 24.6927 54.0131 25.1163 54.2971L25.6261 53.6266C25.6993 53.7791 25.7855 53.9395 25.8849 54.1078C26.1724 54.5601 26.5489 54.9965 27.0143 55.4172C27.2496 55.6276 27.4535 55.7932 27.626 55.9142C27.5737 55.4409 27.5345 54.8624 27.5084 54.1788C27.9162 54.7205 28.6064 55.199 29.5789 55.6144C30.0704 55.8195 30.5175 55.972 30.9201 56.072C30.7831 55.4223 30.6524 54.8465 30.528 54.3444C29.5854 54.2739 28.7017 53.6034 27.877 52.333C27.6208 51.9333 27.3829 51.4994 27.1633 51.0314L26.9202 50.4477ZM47.3905 54.8651L47.265 54.0999C45.3461 53.8685 43.9526 53.553 43.0847 53.1533C43.0324 53.6529 42.9932 54.1525 42.967 54.6521C42.5958 54.6205 42.1723 54.5627 41.6965 54.4785C41.2001 54.3931 40.7635 54.2958 40.3867 54.1867C40.1671 55.3331 40.1906 56.5742 40.4573 57.9099C40.5335 58.2719 40.6093 58.5953 40.6847 58.8802C41.0821 58.8749 41.5657 58.7986 42.1357 58.6514C42.6638 58.5199 43.1762 58.349 43.6729 58.1387L43.2808 56.561C44.0023 56.9081 44.9775 57.0343 46.2062 56.9397C46.8232 56.8923 47.367 56.8108 47.8376 56.6951C47.6598 56.1061 47.5108 55.4961 47.3905 54.8651ZM47.0454 50.3925C46.1147 48.8201 45.4559 47.5212 45.069 46.4957C44.2788 44.3935 43.85 42.1848 43.7827 39.8696C43.798 43.3311 44.428 46.6599 45.6729 49.8561C46.3944 51.7019 47.1343 53.1428 47.8925 54.1788C48.3944 54.2366 48.8179 54.2761 49.163 54.2971L49.3513 53.7371C48.7814 53.0692 48.2245 52.3119 47.6807 51.4653L47.0454 50.3925ZM26.1907 32.7623C26.1365 32.4694 26.1026 32.1512 26.0888 31.8079L25.4692 38.292L26.0574 38.0159L25.9555 38.5128C25.8823 38.9283 25.8509 39.3516 25.8613 39.7828C25.8875 41.1606 26.2927 42.3596 27.077 43.3798C27.3123 43.1958 27.5345 42.9591 27.7437 42.6699L27.8848 43.2221C28.0156 43.6743 28.1724 44.1029 28.3554 44.5079C28.9515 45.8015 29.7149 46.6219 30.6456 46.969C30.6613 46.7744 30.6717 46.5325 30.677 46.2433L30.6848 45.8646L31.5789 46.3931C32.2953 46.7823 32.9384 47.0663 33.5083 47.2451C32.9384 47.0505 32.256 46.664 31.4613 46.0855L30.4495 45.273L30.4103 46.4562C30.1018 46.2722 29.7698 45.933 29.4142 45.4387C28.6927 44.4553 28.2012 43.1905 27.9398 41.6444L27.1162 42.7094C26.86 42.336 26.6483 41.8338 26.4809 41.2027C26.1515 39.9406 26.2064 38.668 26.6456 37.3848L25.8613 37.6609L26.1907 32.7623ZM63.9394 40.1615C63.9444 40.1459 63.9496 40.1301 63.955 40.1141L63.2413 39.1202L62.8021 40.2561C62.4727 41.066 62.2008 41.5945 61.9864 41.8416C61.9237 41.6628 61.6623 41.371 61.2021 40.9661L60.5355 40.4218L58.7316 34.9789L60.8727 42.5674C60.8466 42.2729 60.81 41.9757 60.7629 41.676L60.6923 41.3131L60.8806 41.5577C61.0322 41.7733 61.1786 42.0231 61.3198 42.3071C61.6074 42.8803 61.84 43.5166 62.0178 44.216C62.5616 43.8742 62.959 43.2195 63.2099 42.2518L63.4217 40.8951L63.508 41.0213C63.6801 40.8041 63.8239 40.5175 63.9394 40.1615Z" fill="#271620"/>
<path d="M41.1631 59.9923C41.0472 59.8507 40.9348 59.6298 40.8259 59.3297C39.4821 58.5777 38.4442 58.4778 37.7122 59.0299C37.3462 59.3034 37.1135 59.6531 37.0142 60.0791C37.0854 60.1944 37.1586 60.3101 37.2338 60.4262C37.192 61.8145 37.2416 62.9136 37.3828 63.7234C37.5344 64.5754 37.8508 65.514 38.3318 66.5395C38.4782 69.4319 38.7344 73.8256 39.1004 79.7207L38.3553 81.4482C37.6913 82.7629 36.9514 83.8305 36.1358 84.6508C35.3933 84.9033 34.907 85.082 34.6769 85.1872C34.3371 85.3397 34.1044 85.5159 33.9789 85.7157C33.7959 86.005 33.4038 86.4257 32.8025 86.9779L32.7711 87.2855C32.7711 87.5274 32.8155 87.7456 32.9044 87.9402C33.1763 88.566 33.8351 88.8368 34.8809 88.7527C36.2142 88.6475 37.2599 88.4556 38.0181 88.1769C38.8651 87.8613 39.4011 87.4222 39.6259 86.8595C40.1174 85.8551 40.5069 85.0242 40.7945 84.3669C41.3226 83.1521 41.5631 82.195 41.5161 81.4956C41.469 80.7909 41.388 78.4349 41.273 74.4277L41.1239 68.6299C41.3279 68.1461 41.5213 67.5229 41.7043 66.7604C42.0703 65.2353 42.2037 63.7813 42.1043 62.3982C42.0677 61.7777 41.9448 61.2544 41.7357 60.8285C41.6311 60.6129 41.4403 60.3341 41.1631 59.9923ZM49.1866 58.6829L48.8572 59.1483C49.1604 59.6689 49.4846 60.108 49.8297 60.4656C49.7199 61.2912 49.8454 62.201 50.2062 63.1949C50.5251 64.0679 50.9356 64.7883 51.4375 65.3563C51.516 66.6184 51.8166 72.0902 52.3395 81.7716L52.0807 82.0951C51.8768 82.379 51.6911 82.684 51.5238 83.0101C50.9905 84.0566 50.7395 85.1294 50.7709 86.2285C50.1957 86.7123 49.7931 87.1751 49.5631 87.6168C49.1866 88.3267 49.2624 88.9552 49.7905 89.5021C50.3291 90.0595 51.1029 90.1489 52.112 89.7703C52.4937 89.6283 52.8467 89.4363 53.1709 89.1944C53.4741 88.9736 53.6676 88.7737 53.7512 88.5949C54.1068 88.9736 54.5251 89.1813 55.0061 89.2181C55.3931 89.2496 55.746 89.1734 56.0649 88.9893C56.5303 88.7211 56.8519 88.3083 57.0296 87.7509C57.2806 86.9726 56.9983 86.2416 56.1826 85.558C56.1826 84.7692 56.0806 84.0671 55.8767 83.4518C55.631 82.7314 55.2623 82.1976 54.7708 81.8505L54.7316 64.5675C54.9565 64.2467 55.0846 63.7602 55.1159 63.1081C55.1787 61.8092 54.7369 60.3368 53.7905 58.6908L53.7434 58.1307C52.4561 57.2163 51.2562 57.1111 50.1434 57.8152C49.7931 58.036 49.4742 58.3253 49.1866 58.6829ZM29.9868 0.176075C29.7515 0.270733 29.592 0.360132 29.5084 0.444273C28.2012 0.01831 27.2993 0.120859 26.8025 0.751915C26.6457 0.94649 26.5411 1.18314 26.4888 1.46185C26.4574 1.60384 26.4444 1.72479 26.4496 1.82471L27.1868 1.78527C27.7568 1.82734 28.23 2.0114 28.6064 2.33744C29.0195 2.69504 29.3384 2.93958 29.5633 3.07105C29.7254 3.16044 29.877 3.20514 30.0182 3.20514C30.2587 3.15256 30.4861 3.1657 30.7005 3.24458C30.9097 3.32873 31.0169 3.44442 31.0221 3.59167C31.0221 3.74943 30.9018 3.89668 30.6613 4.0334L30.3711 4.71179C30.1515 5.18508 29.9685 5.47169 29.8221 5.5716C29.6757 5.67152 29.8482 5.6426 30.3397 5.48484C30.5855 5.40595 30.8469 5.31655 31.124 5.21663L31.0691 5.74515C31.0064 6.17111 30.9123 6.57341 30.7868 6.95204C30.3901 8.16982 29.7575 8.92972 28.8888 9.23173C28.8729 9.45153 28.8493 9.6724 28.8182 9.89434C28.7607 10.2993 28.5463 11.2643 28.1751 12.7893C27.877 14.0199 27.6731 14.9402 27.5633 15.5502C27.3332 16.8228 27.1581 18.2953 27.0378 19.9676C26.8548 22.5181 26.5228 26.0757 26.0417 30.6403C26.0627 30.9243 26.0783 31.3134 26.0888 31.8078C26.1026 32.1511 26.1366 32.4693 26.1908 32.7622C26.237 33.0328 26.2998 33.2825 26.379 33.5116C26.6091 34.1795 27.0326 34.9446 27.6496 35.8071C27.7541 35.7545 27.8326 35.623 27.8849 35.4127L28.1829 35.6809C28.4443 35.8754 28.7371 35.9964 29.0613 36.0437C29.192 35.9964 29.179 35.857 29.0221 35.6257L28.7476 35.2943L29.3201 35.4994C29.7332 35.6204 30.0129 35.6572 30.1593 35.6099C30.3058 35.5625 30.3293 35.41 30.2299 35.1524L30.0417 34.7816L30.6299 35.2155L30.7162 35.2312C30.7842 35.226 30.8469 35.1971 30.9044 35.1445C31.0874 34.9657 31.1789 34.5555 31.1789 33.9139C31.2992 34.0927 31.3933 34.2058 31.4613 34.2531C31.5816 34.332 31.6835 34.2847 31.7672 34.1111C31.8508 33.9481 31.8482 33.6694 31.7593 33.275L31.6103 32.7307C32.0025 32.757 32.2116 32.7044 32.2378 32.5729C32.2639 32.4414 32.0417 32.2048 31.5711 31.863L31.8221 31.7762C31.9842 31.7078 32.0574 31.6316 32.0417 31.5475C32.026 31.4738 31.958 31.4239 31.8378 31.3976C31.6338 31.3608 31.5057 31.3318 31.4535 31.3108C31.2338 31.2161 30.9567 30.9716 30.6221 30.5772C30.209 30.0829 30.0025 29.6306 30.0025 29.2204C30.0025 28.826 30.0156 28.5236 30.0417 28.3133L30.0809 28.1161L30.9201 17.3881C31.077 16.6098 31.2731 15.9051 31.5084 15.2741C32.0312 13.87 32.3946 12.8261 32.5985 12.1425C33.158 10.2441 33.4613 8.52705 33.5083 6.99148C33.5658 5.16142 33.5502 3.97293 33.4613 3.42601C33.3619 2.85281 33.09 2.37162 32.6456 1.98247C32.3632 0.699325 31.7829 0.0393471 30.9044 0.00253554C30.6116 -0.0132409 30.3058 0.0446045 29.9868 0.176075ZM29.9084 1.1621C29.9387 1.13895 29.9831 1.10214 30.0417 1.05167C30.1724 0.941231 30.3031 0.864978 30.4339 0.822908C30.8574 0.670403 31.2312 0.841314 31.5554 1.33564C31.341 1.03063 31.0221 0.899161 30.5986 0.941231C30.3092 0.970339 30.0792 1.04396 29.9084 1.1621ZM29.179 1.6985C29.4456 1.58806 29.7045 1.50655 29.9554 1.45396C30.7554 1.28568 31.3149 1.4487 31.6338 1.94303L28.8496 1.84837L29.179 1.6985Z" fill="#A39A99"/>
<path d="M40.3867 54.1867C40.0475 54.0886 39.7573 53.9808 39.5161 53.8632C39.5684 54.2577 39.6337 54.6784 39.7122 55.1254C39.3252 55.22 38.839 55.2673 38.2533 55.2673C37.0821 55.2568 36.005 55.0018 35.022 54.5022L35.0455 54.936C35.0874 55.3094 35.1632 55.7143 35.273 56.1508C35.4781 56.94 35.7761 57.7394 36.1671 58.5488C36.4054 59.037 36.6747 59.5261 36.9749 60.016C36.9891 60.039 37.0022 60.0601 37.0141 60.0791C37.1135 59.6532 37.3462 59.3035 37.7122 59.03C38.4442 58.4778 39.4821 58.5778 40.8259 59.3298C40.7966 59.2512 40.7679 59.167 40.7396 59.0773C40.7217 59.0143 40.7034 58.9486 40.6847 58.8801C40.6093 58.5953 40.5334 58.2718 40.4572 57.9099C40.1906 56.5742 40.167 55.3331 40.3867 54.1867ZM49.3513 53.737L49.163 54.2971C48.8179 54.2761 48.3944 54.2366 47.8925 54.1788L47.265 54.0999L47.3905 54.865C47.5108 55.4961 47.6598 56.1061 47.8375 56.6951C48.1251 57.6417 48.465 58.4594 48.8571 59.1483L49.1866 58.6829C49.4741 58.3253 49.7931 58.0361 50.1434 57.8152C51.2561 57.1112 52.4561 57.2164 53.7434 58.1308L53.5316 55.3304C53.339 55.1995 53.1507 55.0575 52.9669 54.9045L52.614 54.5732C52.4571 55.0202 52.2349 55.4803 51.9473 55.9536C51.1055 55.5224 50.2401 54.7835 49.3513 53.737ZM27.6809 4.42L27.7358 4.92484C27.8718 5.31399 28.2012 5.64793 28.724 5.92664C28.9335 7.01499 28.9884 8.11671 28.8887 9.2318C29.7574 8.92979 30.3901 8.16989 30.7868 6.95211C30.9122 6.57347 31.0064 6.17118 31.0691 5.74521L31.124 5.2167C30.8469 5.31662 30.5855 5.40602 30.3397 5.4849C29.8482 5.64267 29.6757 5.67159 29.8221 5.57167C29.9685 5.47176 30.1515 5.18515 30.3711 4.71186L30.6613 4.03347C30.4939 4.13339 30.2796 4.22542 30.0181 4.30956C29.2809 4.53569 28.5018 4.5725 27.6809 4.42ZM29.9554 1.45403C29.7044 1.50662 29.4456 1.58813 29.1789 1.69857L28.8495 1.84844L31.6338 1.9431C31.3149 1.44877 30.7554 1.28575 29.9554 1.45403ZM30.0417 1.05174C29.9831 1.10221 29.9387 1.13902 29.9083 1.16217C30.0791 1.04403 30.3092 0.970409 30.5985 0.941301C31.022 0.89923 31.341 1.0307 31.5554 1.33571C31.2312 0.841384 30.8573 0.670473 30.4338 0.822978C30.3031 0.865048 30.1724 0.9413 30.0417 1.05174Z" fill="#685D5C"/>
<path d="M59.9551 44.208L59.6727 43.8373L59.7668 44.3737C59.8296 44.8154 59.861 45.2493 59.861 45.6752C59.8714 47.0268 59.5734 48.0312 58.9668 48.6885C58.8048 48.5413 58.6061 48.3467 58.3708 48.1048L58.0649 47.7814L58.261 49.359C58.0571 49.4642 57.8113 49.5352 57.5237 49.572C56.9381 49.6404 56.4257 49.4931 55.9865 49.1303C56.2741 49.8139 56.4832 50.3267 56.6139 50.6685C56.3316 50.7684 55.9708 50.8052 55.5316 50.7789C54.6479 50.7263 53.8061 50.3871 53.0061 49.7613C53.1368 50.4713 53.2545 51.0629 53.3591 51.5362C53.0087 51.5625 52.6297 51.4994 52.2218 51.3469C51.4114 51.0366 50.8754 50.4292 50.614 49.5247L49.9081 50.984C49.6362 50.984 49.3042 50.8315 48.9121 50.5265C48.4362 50.1531 48.0755 49.6746 47.8297 49.0908L47.0454 50.3924L47.6807 51.4652C48.2245 52.3118 48.7813 53.0691 49.3513 53.737C50.2401 54.7835 51.1055 55.5223 51.9473 55.9536C52.2349 55.4803 52.4571 55.0201 52.614 54.5731L52.9669 54.9044C53.1507 55.0574 53.339 55.1994 53.5316 55.3304C53.6581 55.4136 53.7862 55.4925 53.9159 55.567C54.9773 56.1718 55.9813 56.3269 56.9277 56.0325C56.8963 55.6854 56.8545 55.3514 56.8022 55.0306L56.7316 54.652L57.1237 54.8492C57.4479 54.9965 57.7616 55.1095 58.0649 55.1884C59.0479 55.4461 59.7668 55.3199 60.2217 54.8098L60.0257 53.8238L60.5747 54.5731C60.7838 54.4364 60.9668 54.0893 61.1237 53.5319C61.4374 52.4223 61.4636 50.8236 61.2021 48.7359C61.4636 49.104 61.6858 49.4721 61.8688 49.8402C62.0047 49.6772 62.1198 49.3511 62.2139 48.8621C62.4073 47.8839 62.3969 46.5903 62.1825 44.9811C62.1347 44.7176 62.0798 44.4626 62.0178 44.2159C61.84 43.5165 61.6073 42.8802 61.3198 42.307C61.1786 42.023 61.0322 41.7732 60.8806 41.5576L60.6923 41.3131L60.7629 41.6759C60.81 41.9757 60.8466 42.2728 60.8727 42.5673C60.9825 43.6664 60.8962 44.4841 60.6139 45.0205C60.3995 44.7734 60.1799 44.5025 59.9551 44.208ZM65.6413 29.0864L65.1472 29.0627C65.6962 28.195 65.8531 27.8795 65.6178 28.1161C65.4295 28.3054 65.1132 28.4842 64.6687 28.6525C64.1929 28.8366 63.7119 28.947 63.2256 28.9838C62.8805 29.0101 62.4701 28.968 61.9943 28.8576C61.4923 28.7472 61.0531 28.6972 60.6766 28.7077C60.0074 28.734 59.4322 28.8313 58.9512 28.9996L59.2649 29.0785C59.4897 29.1679 59.6518 29.3204 59.7512 29.536C60.6243 29.2836 61.5524 29.2178 62.5354 29.3388L61.9864 29.9698L63.0374 30.0093C63.8165 30.1039 64.3942 30.3143 64.7707 30.6403C64.4047 31.3766 64.1171 31.9156 63.908 32.2574L64.8256 32.3126C65.5001 32.4388 65.9916 32.7228 66.3001 33.1646C65.9916 33.3802 65.67 33.5826 65.3354 33.7719L64.9276 33.9928L65.1707 34.3715C65.3589 34.6975 65.5027 35.0446 65.6021 35.4127C65.9315 36.5854 65.7851 37.7292 65.1629 38.8441C64.9851 38.7126 64.7812 38.5417 64.5511 38.3313L64.2609 38.0552L64.1589 39.1833C64.1067 39.5313 64.0387 39.8389 63.955 40.1062C64.3106 40.0641 64.6504 39.8616 64.9746 39.4988C65.1367 39.3147 65.2648 39.1359 65.3589 38.9624L67.7667 39.2306C67.8902 38.8869 67.9556 38.503 67.9628 38.0789C67.9681 37.7949 67.9445 37.5083 67.8922 37.2191L67.8138 36.872L68.2922 37.014C68.6896 37.0771 69.0922 37.0429 69.5001 36.9114C69.5001 35.6441 69.1863 34.3977 68.5589 33.1724C68.3602 32.7886 68.1458 32.4283 67.9158 32.0918L67.6177 31.7052L68.7158 31.7841C68.538 30.6009 67.8896 29.7937 66.7707 29.3624C66.4204 29.2257 66.0439 29.1337 65.6413 29.0864Z" fill="#F2E8DE"/>
<path d="M26.0182 3.95448C26.06 3.965 26.3005 4.03863 26.7397 4.17535C27.0953 4.28579 27.409 4.3673 27.6809 4.41989C28.5018 4.57239 29.2809 4.53558 30.0181 4.30945C30.2796 4.22531 30.494 4.13328 30.6613 4.03337C30.9018 3.89664 31.0221 3.74939 31.0221 3.59163C30.5881 3.67577 30.2273 3.71784 29.9397 3.71784C29.8404 3.71784 29.5319 3.69943 29.0142 3.66262C28.4966 3.62055 28.06 3.59951 27.7044 3.59951C27.3123 3.59951 26.9149 3.65999 26.5123 3.78094L26.0182 3.95448ZM27.2417 3.0079C27.3463 2.96057 27.3986 2.90009 27.3986 2.82647C27.3986 2.75285 27.3463 2.68974 27.2417 2.63716C27.1371 2.58983 27.0116 2.56616 26.8652 2.56616C26.7188 2.56616 26.5933 2.58983 26.4888 2.63716C26.3842 2.68974 26.3319 2.75285 26.3319 2.82647C26.3319 2.90009 26.3842 2.96057 26.4888 3.0079C26.5933 3.06049 26.7188 3.08678 26.8652 3.08678C27.0116 3.08678 27.1371 3.06049 27.2417 3.0079Z" fill="#754542"/>
<path d="M25.2339 2.65286C24.9829 2.68967 24.7816 2.78433 24.63 2.93683C24.4784 3.08934 24.4182 3.2471 24.4496 3.41013C24.528 3.82557 25.0509 4.007 26.0182 3.95441L26.5123 3.78087C26.9149 3.65992 27.3123 3.59944 27.7045 3.59944C28.06 3.59944 28.4966 3.62048 29.0142 3.66255C29.5319 3.69936 29.8404 3.71777 29.9397 3.71777C30.2273 3.71777 30.5881 3.6757 31.0221 3.59156C31.0168 3.44431 30.9097 3.32861 30.7005 3.24447C30.4861 3.16559 30.2587 3.15244 30.0182 3.20503C29.877 3.20503 29.7254 3.16033 29.5633 3.07093C29.3384 2.93946 29.0195 2.69493 28.6064 2.33733C28.2299 2.01128 27.7567 1.82723 27.1868 1.78516L26.4496 1.8246C26.277 1.84037 26.0705 1.97973 25.83 2.24267C25.5842 2.50561 25.3855 2.64234 25.2339 2.65286ZM27.3986 2.8264C27.3986 2.90002 27.3463 2.9605 27.2417 3.00783C27.1371 3.06042 27.0117 3.08671 26.8653 3.08671C26.7189 3.08671 26.5934 3.06042 26.4888 3.00783C26.3842 2.9605 26.3319 2.90002 26.3319 2.8264C26.3319 2.75278 26.3842 2.68967 26.4888 2.63708C26.5934 2.58975 26.7189 2.56609 26.8653 2.56609C27.0117 2.56609 27.1371 2.58975 27.2417 2.63708C27.3463 2.68967 27.3986 2.75278 27.3986 2.8264Z" fill="#B7726E"/>
<path d="M66.3001 33.1645C65.9916 32.7227 65.5001 32.4388 64.8256 32.3126L63.908 32.2573C64.1171 31.9155 64.4047 31.3765 64.7707 30.6403C64.3942 30.3142 63.8165 30.1039 63.0374 30.0092L61.9864 29.9698L62.5354 29.3387C61.5525 29.2177 60.6244 29.2835 59.7512 29.5359C59.6518 29.3203 59.4897 29.1678 59.2649 29.0784L58.9512 28.9995C58.6165 29.1152 58.3133 29.2677 58.0414 29.457C57.2571 28.847 56.8231 28.5104 56.7394 28.4473C55.9813 27.9057 55.1761 27.4324 54.3238 27.0275C51.7931 25.8127 48.8885 25.1895 45.6101 25.158C42.4363 25.1264 39.2625 25.6076 36.0887 26.6015C35.1998 26.875 34.2273 27.222 33.1711 27.6427C32.3397 27.974 31.8717 28.1449 31.7672 28.1555C31.443 28.187 31.0639 28.1897 30.6299 28.1634L30.0809 28.116L30.0417 28.3132C30.0155 28.5236 30.0025 28.826 30.0025 29.2204C30.0025 29.6306 30.209 30.0828 30.6221 30.5771C30.9567 30.9716 31.2338 31.2161 31.4534 31.3107C31.5057 31.3318 31.6338 31.3607 31.8377 31.3975C31.958 31.4238 32.026 31.4738 32.0417 31.5474C32.0574 31.6315 31.9841 31.7078 31.8221 31.7762L31.5711 31.8629C32.0417 32.2047 32.2639 32.4414 32.2377 32.5729C32.2116 32.7043 32.0024 32.7569 31.6103 32.7306L31.7593 33.2749C31.8482 33.6693 31.8508 33.948 31.7672 34.1111C31.6835 34.2846 31.5815 34.3319 31.4613 34.2531C31.3933 34.2057 31.2992 34.0927 31.1789 33.9139C31.1789 34.5554 31.0874 34.9656 30.9044 35.1444C30.8469 35.197 30.7842 35.2259 30.7162 35.2312L30.6299 35.2154L30.0417 34.7816L30.2299 35.1523C30.3293 35.41 30.3057 35.5625 30.1593 35.6098C30.0129 35.6571 29.7332 35.6203 29.3201 35.4994L28.7476 35.2943L29.0221 35.6256C29.179 35.857 29.192 35.9963 29.0613 36.0437C28.7371 35.9963 28.4443 35.8754 28.1829 35.6808L27.8848 35.4126C27.8326 35.623 27.7541 35.7544 27.6496 35.807C27.0326 34.9446 26.609 34.1794 26.379 33.5116C26.2998 33.2825 26.237 33.0327 26.1907 32.7622L25.8613 37.6608L26.6456 37.3847C26.2064 38.6678 26.1515 39.9404 26.4809 41.2026C26.6483 41.8336 26.86 42.3358 27.1162 42.7092L27.9397 41.6443C28.2012 43.1904 28.6927 44.4551 29.4142 45.4385C29.7698 45.9328 30.1018 46.272 30.4103 46.4561L30.4495 45.2729L31.4613 46.0854C32.256 46.6638 32.9384 47.0503 33.5083 47.2449C32.9384 47.0661 32.2953 46.7821 31.5789 46.393L30.6848 45.8645L30.677 46.2431C30.6717 46.5324 30.6613 46.7743 30.6456 46.9688C29.7149 46.6217 28.9515 45.8014 28.3554 44.5077C28.1724 44.1028 28.0156 43.6742 27.8848 43.2219L27.7437 42.6698C27.5345 42.959 27.3123 43.1956 27.077 43.3797C26.2927 42.3595 25.8875 41.1605 25.8613 39.7827C25.8509 39.3515 25.8823 38.9281 25.9555 38.5127L26.0574 38.0157L25.4692 38.2918L26.0888 31.8077C26.0783 31.3134 26.0626 30.9242 26.0417 30.6403C24.7241 31.6973 23.6836 33.1408 22.9202 34.9709L22.8026 37.858C22.9228 37.7528 23.0509 37.6502 23.1869 37.5503C23.4588 37.3452 23.6444 37.2506 23.7437 37.2663C23.3568 38.5179 23.1189 39.5013 23.03 40.2165C22.8888 41.3735 23.0352 42.2569 23.4692 42.867C23.7829 42.6303 24.1489 42.3674 24.5672 42.0781L24.4025 42.8985C24.3032 43.5927 24.2666 44.3 24.2927 45.0204C24.3868 47.3396 25.1189 49.3853 26.4888 51.1575L26.9202 50.4475L27.1633 51.0313C27.3829 51.4993 27.6208 51.9331 27.877 52.3328C28.7017 53.6033 29.5854 54.2738 30.528 54.3443C30.4889 54.1755 30.4497 54.0151 30.4103 53.8631C31.0796 54.5205 31.9606 54.9938 33.0534 55.283C33.5972 55.4302 34.0756 55.5091 34.4887 55.5196C34.3318 55.0201 34.188 54.481 34.0573 53.9026C34.3658 54.1287 34.6874 54.3285 35.022 54.5021C36.005 55.0016 37.0821 55.2567 38.2534 55.2672C38.839 55.2672 39.3252 55.2199 39.7122 55.1252C39.6337 54.6782 39.5684 54.2575 39.5161 53.8631C39.7573 53.9807 40.0475 54.0885 40.3867 54.1865C40.7635 54.2956 41.2001 54.3929 41.6965 54.4784C42.1723 54.5625 42.5958 54.6204 42.967 54.6519C42.9932 54.1524 43.0324 53.6528 43.0847 53.1532C43.9526 53.5528 45.3461 53.8684 47.265 54.0998L47.8925 54.1786C47.1343 53.1427 46.3944 51.7018 45.6729 49.8559C44.428 46.6598 43.7979 43.3309 43.7827 39.8694C43.85 42.1846 44.2788 44.3933 45.069 46.4955C45.4559 47.521 46.1147 48.8199 47.0454 50.3923L47.8297 49.0908C48.0755 49.6745 48.4363 50.153 48.9121 50.5264C49.3042 50.8314 49.6362 50.9839 49.9081 50.9839L50.614 49.5246C50.8754 50.4291 51.4114 51.0365 52.2218 51.3468C52.6297 51.4993 53.0088 51.5624 53.3591 51.5361C53.2545 51.0628 53.1369 50.4712 53.0061 49.7613C53.8061 50.3871 54.6479 50.7262 55.5316 50.7788C55.9708 50.8051 56.3316 50.7683 56.6139 50.6684C56.4832 50.3266 56.2741 49.8138 55.9865 49.1302C56.4257 49.4931 56.9381 49.6403 57.5237 49.5719C57.8113 49.5351 58.0571 49.4641 58.261 49.359L58.0649 47.7813L58.3708 48.1047C58.6061 48.3466 58.8048 48.5412 58.9669 48.6885C59.5734 48.0311 59.8714 47.0267 59.861 45.6752C59.861 45.2492 59.8296 44.8154 59.7668 44.3736L59.6727 43.8372L59.9551 44.208C60.1799 44.5025 60.3995 44.7733 60.6139 45.0204C60.8962 44.484 60.9825 43.6663 60.8727 42.5672L58.7316 34.9788L60.5355 40.4216L61.2021 40.9659C61.6623 41.3708 61.9237 41.6627 61.9864 41.8415C62.2008 41.5943 62.4727 41.0658 62.8021 40.256L63.2413 39.1201L63.955 40.114V40.1061C64.0388 39.8388 64.1067 39.5312 64.159 39.1832L64.2609 38.0552L64.5511 38.3312C64.7812 38.5416 64.9851 38.7125 65.1629 38.844C65.7851 37.7291 65.9315 36.5853 65.6021 35.4126C65.5027 35.0445 65.3589 34.6974 65.1707 34.3714L64.9276 33.9927L65.3354 33.7719C65.67 33.5826 65.9916 33.3801 66.3001 33.1645Z" fill="#3D2536"/>
<path d="M50.1434 88.1528C50.18 88.442 50.2323 88.6155 50.3003 88.6734C50.7708 88.4841 51.1708 88.2579 51.5003 87.995C52.1591 87.4691 52.1382 87.0248 51.4375 86.6619C50.7159 86.2885 50.2872 86.491 50.1512 87.2693C50.099 87.5427 50.0963 87.8372 50.1434 88.1528ZM34.2926 85.8731C33.8534 85.6259 33.3331 85.6732 32.7318 86.0151C32.2194 86.3043 31.8639 86.6382 31.6652 87.0169L34.0181 86.8985C34.2272 86.8197 34.3946 86.7171 34.52 86.5909C34.7763 86.3437 34.7004 86.1045 34.2926 85.8731ZM30.9985 1.72174L30.5201 1.64286C30.358 1.63234 30.2038 1.64286 30.0574 1.67441C29.7698 1.74804 29.6809 1.90843 29.7907 2.15559C29.9162 2.44483 30.1593 2.58681 30.5201 2.58156C30.8756 2.5763 31.124 2.4422 31.2652 2.17926C31.3802 1.96365 31.2913 1.81114 30.9985 1.72174Z" fill="#1A0314"/>
<path d="M29.9084 2.11646L29.9633 2.26633C30.0313 2.37151 30.1516 2.43461 30.3241 2.45565C30.2823 2.31366 30.2013 2.21374 30.081 2.1559L29.9084 2.11646Z" fill="#2C200A"/>
<path d="M31.0065 1.83246L30.6614 1.78513C30.5463 1.77987 30.4915 1.81931 30.4967 1.90345C30.5019 1.9876 30.562 2.0323 30.6771 2.03756C30.9542 2.05859 31.0927 2.13221 31.0927 2.25842C31.2392 2.04281 31.2104 1.90083 31.0065 1.83246Z" fill="#F8EEDD"/>
</svg>
