<svg width="91" height="90" viewBox="0 0 91 90" fill="none" xmlns="http://www.w3.org/2000/svg">
<path d="M27.9105 59.473C27.3449 59.7879 27.2207 60.3153 27.5379 61.0553C27.8392 61.7691 28.3493 62.4802 29.0682 63.1887C29.5439 63.6505 30.1809 64.1805 30.9791 64.7788C30.9844 64.7788 30.9923 64.7788 31.0029 64.7788C31.3888 64.9468 31.7588 64.9389 32.113 64.7552C32.3297 64.6345 32.5279 64.4482 32.7077 64.1963C33.0883 64.1438 33.3896 64.0493 33.6116 63.9129C34.0186 63.6452 34.1614 63.1545 34.0398 62.4408C34.3094 62.4303 34.6212 62.2597 34.9754 61.9291C35.3877 61.5303 35.512 61.1314 35.3481 60.7326C34.7983 60.8113 34.1402 60.8218 33.3737 60.764C31.8408 60.6486 30.5509 60.2445 29.5043 59.5517C28.9704 59.2001 28.4392 59.1739 27.9105 59.473ZM42.7381 64.7788C42.6482 65.5765 43.0182 66.5737 43.8481 67.7702C44.7045 68.993 45.8331 69.9718 47.2339 70.7065C48.3862 71.31 49.4514 71.6407 50.4293 71.6984C50.6989 71.6197 50.9738 71.5278 51.254 71.4229C51.3015 71.4176 51.357 71.3783 51.4205 71.3048C51.542 71.1683 51.624 70.9348 51.6663 70.6042C52.3588 70.4677 52.7949 70.3392 52.9746 70.2184C53.4292 69.9246 53.4873 69.447 53.149 68.7857C53.6988 68.3816 54.0582 67.9749 54.2274 67.5655C54.5023 66.941 54.2036 66.4713 53.3314 66.1564C53.4741 65.9413 53.5323 65.7025 53.5058 65.4401C53.4847 65.1724 53.3763 64.9468 53.1807 64.7631C52.7156 64.296 52.0099 64.2593 51.0637 64.6529C49.5994 65.2721 48.6823 64.7185 48.3122 62.9919C47.8101 63.1965 47.2392 63.3881 46.5995 63.5665C45.3097 63.9234 44.3107 64.0284 43.6023 63.8814C43.4015 63.8447 43.2191 63.905 43.0552 64.0625C42.8808 64.2199 42.7751 64.4587 42.7381 64.7788ZM82.5424 38.2341C81.945 37.6463 81.0332 37.7329 79.8068 38.4939L78.0466 39.5723L78.0386 39.5802C78.0862 39.8636 78.1998 40.5065 78.3796 41.5089C78.517 42.548 78.5091 43.5215 78.3558 44.4294C77.917 47.1427 76.2546 49.4203 73.3684 51.2624C73.4001 51.2939 73.4265 51.328 73.4476 51.3648C74.3727 52.4668 75.2872 52.6715 76.1911 51.9788C76.577 52.3094 77.0158 52.48 77.5074 52.4905C78.1258 52.4957 78.5249 52.173 78.7047 51.5222C78.9055 50.798 79.1646 50.3204 79.4817 50.0895C79.7725 49.8638 80.2879 49.7274 81.0279 49.6801C81.6887 49.6329 82.0878 49.255 82.2252 48.5465C82.3468 47.901 82.2543 47.4051 81.9477 47.0587C81.694 46.7648 81.7363 46.3397 82.0746 45.7834C82.4234 45.2061 82.849 44.928 83.3512 44.949C83.6102 44.9595 83.8295 44.8309 84.0093 44.5633C84.1837 44.3009 84.2736 43.9912 84.2789 43.6343C84.3 42.7212 83.8613 42.136 82.9626 41.8789C82.5609 41.6952 82.3759 41.3304 82.4076 40.7846C82.4287 40.3018 82.5688 39.9213 82.8278 39.6432C82.9441 39.5225 82.9785 39.3178 82.9309 39.0292C82.878 38.7143 82.7485 38.4493 82.5424 38.2341Z" fill="#342C1F"/>
<path d="M20.1398 55.5373C20.2878 55.2067 20.3962 54.876 20.4649 54.5454C20.4702 54.5192 20.4755 54.4877 20.4808 54.4509C20.4966 54.3617 20.5072 54.2699 20.5125 54.1754C20.5812 53.4669 20.4543 52.8529 20.1319 52.3333C19.8887 51.945 19.5927 51.6957 19.2438 51.5855C19.2914 52.9185 18.7311 54.9154 17.5628 57.5762C17.8272 57.4397 18.1311 57.2508 18.4747 57.0094C19.1513 56.5371 19.7064 56.0464 20.1398 55.5373ZM8.30953 50.4677C7.52719 50.7196 7.1413 50.9059 7.15188 51.0266C6.84 51.1683 6.59155 51.3362 6.40653 51.5304C6.10523 51.8558 5.87793 52.3097 5.72463 52.8923C5.57133 53.5115 5.05858 54.3302 4.18637 55.3484C3.38817 56.2878 2.79877 56.8467 2.41817 57.0251C1.51425 57.4345 0.919565 57.9803 0.634115 58.6625C0.332808 59.3658 0.538964 59.9011 1.25259 60.2684C4.74141 62.1945 7.86814 62.7481 10.6328 61.9294C11.5578 61.6461 12.4406 61.2105 13.2811 60.6227C13.408 60.5335 13.8864 60.1425 14.7163 59.4497C15.8316 58.2374 16.7224 56.8834 17.3884 55.3877C17.5946 54.9154 17.7664 54.4614 17.9038 54.0259L18.0465 53.5063C16.4713 51.1027 14.1824 49.9376 11.1799 50.0111C10.1914 50.0321 9.2346 50.1843 8.30953 50.4677ZM9.09452 46.6103C8.05844 47.2086 7.41882 48.0824 7.17566 49.2317C7.10694 49.5781 7.08051 49.9848 7.09637 50.4519C10.268 49.2554 13.0591 49.237 15.4696 50.3968C16.2678 50.7799 16.9655 51.2706 17.5628 51.8689C18.0069 52.3097 18.2659 52.6456 18.3399 52.8765C18.4456 52.7663 18.5778 52.5065 18.7364 52.0972L18.9504 51.5225C18.1998 47.8436 16.3338 45.9228 13.3525 45.7601C12.4221 45.7024 11.4336 45.8257 10.387 46.1301L9.09452 46.6103Z" fill="#2E2F31"/>
<path d="M27.712 57.2454L27.7913 57.2611C28.6424 57.4973 29.5463 57.7544 30.5031 58.0326C31.9832 58.4262 33.4818 58.7043 34.9989 58.867C35.0254 58.8723 35.0465 58.8749 35.0624 58.8749C35.6755 58.9431 36.3257 58.9956 37.0129 59.0323C36.6535 58.5967 36.3865 58.2687 36.2121 58.0483C35.9266 57.6809 35.6333 57.2664 35.3319 56.8045C35.1099 56.7258 34.8906 56.6523 34.6738 56.5841C34.1241 56.9882 32.9796 57.2139 31.2405 57.2611C29.3798 57.2296 28.2036 57.2244 27.712 57.2454ZM52.8237 56.2377C52.5646 56.7783 52.2078 57.3267 51.7532 57.883C51.5153 58.1664 51.3118 58.3894 51.1427 58.5521C54.0712 57.8279 55.916 57.3608 56.6772 57.1509C58.4428 56.6733 59.9572 56.1957 61.2206 55.7182C64.017 54.6686 66.9322 53.0495 69.9665 50.8611C68.4864 51.8687 65.8063 52.9813 61.9263 54.1989C57.9459 55.4479 54.9117 56.1275 52.8237 56.2377Z" fill="#B88B54"/>
<path d="M27.7123 57.2453L27.3555 57.1509L27.0462 57.9853C26.8454 58.6676 26.774 59.3393 26.8321 60.0006C27.0066 62.105 28.3889 63.6978 30.9791 64.7789C30.1809 64.1806 29.5439 63.6506 29.0682 63.1888C28.3493 62.4803 27.8391 61.7692 27.5378 61.0554C27.2207 60.3155 27.3449 59.788 27.9105 59.4731C28.4391 59.174 28.9704 59.2002 29.5043 59.5519C30.5509 60.2446 31.8407 60.6487 33.3737 60.7642C34.1402 60.8219 34.7983 60.8114 35.348 60.7327C35.2476 60.4808 35.0362 60.2472 34.7137 60.0321C34.8564 59.9166 34.9489 59.7828 34.9912 59.6306C35.0494 59.4364 35.052 59.1819 34.9992 58.867C33.4821 58.7043 31.9834 58.4261 30.5033 58.0325C29.5466 57.7544 28.6426 57.4972 27.7916 57.2611L27.7123 57.2453ZM41.4376 61.1971C41.4271 61.1919 41.4112 61.1866 41.3901 61.1814C41.4482 62.147 41.6464 63.2491 41.9847 64.4877C42.4182 66.0306 42.9838 67.3689 43.6816 68.5024C45.4366 71.3469 47.6858 72.4122 50.4293 71.6985C49.4514 71.6408 48.3862 71.3102 47.2338 70.7066C45.833 69.9719 44.7044 68.9931 43.8481 67.7703C43.0182 66.5738 42.6482 65.5766 42.738 64.7789C42.775 64.4588 42.8807 64.22 43.0552 64.0626C43.2191 63.9051 43.4014 63.8448 43.6023 63.8815C44.3106 64.0285 45.3097 63.9235 46.5995 63.5666C47.2391 63.3882 47.81 63.1966 48.3122 62.992C48.1853 62.3727 48.1245 61.6038 48.1298 60.6854C47.6805 60.9321 47.2603 61.1289 46.8691 61.2758C45.2146 61.8584 43.4041 61.8321 41.4376 61.1971ZM78.3795 41.509C78.1998 40.5066 78.0862 39.8637 78.0386 39.5803L76.2783 40.6745C76.2783 40.706 76.281 40.7375 76.2863 40.769C76.3867 41.8029 76.3708 42.7554 76.2387 43.6266C75.8528 46.0302 74.5498 47.9877 72.3296 49.4992L72.6309 50.1211C72.8582 50.5567 73.104 50.9371 73.3683 51.2625C76.2545 49.4205 77.917 47.1428 78.3558 44.4295C78.5091 43.5216 78.517 42.5481 78.3795 41.509Z" fill="#2C2012"/>
<path d="M23.2957 56.9304L22.3838 57.4106C23.3406 57.0747 24.2313 56.8963 25.0559 56.8753C25.7378 56.8543 26.5043 56.9462 27.3554 57.1508L27.7122 57.2453C28.2038 57.2243 29.38 57.2295 31.2407 57.261C32.9798 57.2138 34.1242 56.9881 34.674 56.584C31.6028 55.6236 28.6716 55.4531 25.8806 56.0723C25.4682 56.1668 24.8207 56.3741 23.9379 56.6942L23.2957 56.9304ZM19.6165 47.5154C19.3839 47.5049 19.2148 47.434 19.1091 47.3028C19.3945 48.5938 19.8703 49.4047 20.5363 49.7353C20.8693 49.8927 21.1733 49.9216 21.4482 49.8219C22.0402 49.6277 22.3336 49.1711 22.3283 48.4521C22.323 47.9273 22.1803 47.3684 21.9001 46.7754C21.8473 46.9748 21.7019 47.1218 21.464 47.2162C21.39 47.2372 21.1257 47.2949 20.6711 47.3894C20.1848 47.4944 19.8333 47.5364 19.6165 47.5154Z" fill="#D9BC92"/>
<path d="M22.3839 57.4105L23.2958 56.9303L23.938 56.6941C24.1389 56.5787 24.3662 56.4055 24.6199 56.1746C25.1115 55.7127 25.4683 55.2037 25.6904 54.6474C24.6067 55.4293 23.7451 55.9804 23.1055 56.3005C22.0218 56.8201 20.8483 57.1271 19.5849 57.2215C19.7276 56.9959 19.8942 56.6075 20.0845 56.0565C20.3012 55.4424 20.428 54.9386 20.465 54.545C20.3963 54.8757 20.288 55.2063 20.14 55.5369C20.0607 55.6944 19.9734 55.8518 19.8783 56.0092C19.4607 56.6967 18.8634 57.3318 18.0863 57.9143C18.6255 57.888 19.3391 57.8723 20.2272 57.8671C20.9778 57.8251 21.6967 57.6729 22.3839 57.4105ZM76.2783 36.2424C75.903 35.6231 75.3955 34.9697 74.7559 34.2822C75.0837 35.0957 75.3295 35.7832 75.4933 36.3447C75.6678 36.9482 75.8211 37.6515 75.9532 38.4544C76.2863 38.3285 76.6193 38.1973 76.9523 38.0608C76.8994 37.5203 76.6748 36.9141 76.2783 36.2424Z" fill="#462C1B"/>
<path d="M7.15194 51.0264C7.14137 50.9057 7.52725 50.7193 8.30959 50.4674C9.23466 50.184 10.1914 50.0318 11.1799 50.0109C14.1825 49.9374 16.4713 51.1025 18.0466 53.5061L17.9039 54.0256C17.7664 54.4612 17.5946 54.9152 17.3885 55.3875C16.7224 56.8832 15.8317 58.2372 14.7163 59.4495C15.5833 59.3393 16.2017 59.174 16.5718 58.9536C17.0369 58.5862 17.5418 58.2398 18.0862 57.9144C18.8633 57.3319 19.4606 56.6969 19.8782 56.0094C19.9734 55.852 20.0606 55.6945 20.1399 55.5371C19.7064 56.0461 19.1514 56.5368 18.4748 57.0092C18.1312 57.2506 17.8272 57.4395 17.5629 57.5759C18.7311 54.9152 19.2915 52.9183 19.2439 51.5853C19.1805 51.559 19.1091 51.5433 19.0298 51.538C19.0034 51.5328 18.9769 51.5275 18.9505 51.5223L18.7364 52.097C18.5778 52.5063 18.4457 52.7661 18.34 52.8763C18.266 52.6454 18.0069 52.3095 17.5629 51.8687C16.9656 51.2704 16.2678 50.7797 15.4696 50.3966C13.0592 49.2368 10.2681 49.2551 7.09644 50.4517C7.10701 50.6354 7.12551 50.8269 7.15194 51.0264Z" fill="#26231C"/>
<path d="M86.4433 19.0498C84.9156 18.7454 83.3641 18.9501 81.7889 19.6639C80.166 20.3933 79.0454 21.4377 78.4269 22.797C77.9353 23.5999 77.6102 24.1221 77.4516 24.3635C76.9706 25.0667 76.442 25.6886 75.8658 26.2292C74.2641 27.7406 72.1285 28.827 69.459 29.4882C63.2109 25.2793 56.2174 24.4212 48.4785 26.9141C45.92 27.738 43.3193 28.9241 40.6762 30.4723C39.8199 30.9761 38.9186 31.5429 37.9724 32.1726C37.0949 32.7709 36.5266 33.154 36.2676 33.322C34.9461 33.5214 33.2466 34.117 31.1692 35.1089C30.556 35.4028 29.4565 35.9854 27.8706 36.8565C27.2997 37.1714 26.6522 37.4312 25.928 37.6359C24.8602 37.935 23.8347 38.0478 22.8515 37.9744C20.8956 37.3761 19.0244 37.2344 17.2377 37.5493C15.6307 37.8379 14.1823 38.4703 12.8925 39.4465C11.7084 40.3491 10.7754 41.4538 10.0935 42.7606C9.42744 44.0306 9.09442 45.3138 9.09442 46.6101L10.3869 46.1299C11.4335 45.8255 12.422 45.7022 13.3524 45.7599C16.3337 45.9226 18.1997 47.8434 18.9504 51.5223C18.9768 51.5275 19.0032 51.5328 19.0296 51.538H19.0693C19.1592 51.5485 19.2173 51.5642 19.2437 51.5852C19.5926 51.6954 19.8886 51.9447 20.1318 52.3331C20.4542 52.8526 20.5811 53.4667 20.5124 54.1752C20.5071 54.2696 20.4965 54.3615 20.4807 54.4507C20.4754 54.4874 20.4701 54.5189 20.4648 54.5452C20.4278 54.9388 20.301 55.4426 20.0842 56.0566C19.8939 56.6076 19.7274 56.996 19.5847 57.2217C20.8481 57.1272 22.0216 56.8202 23.1052 56.3006C23.7448 55.9805 24.6065 55.4295 25.6901 54.6475C25.4681 55.2038 25.1113 55.7129 24.6197 56.1747C24.366 56.4056 24.1387 56.5788 23.9378 56.6942C24.8206 56.3741 25.4681 56.1668 25.8804 56.0723C28.6715 55.4531 31.6026 55.6236 34.6739 56.584C34.8906 56.6523 35.11 56.7257 35.332 56.8045C35.6333 57.2663 35.9267 57.6809 36.2121 58.0482C36.3866 58.2687 36.6535 58.5967 37.013 59.0322C38.6094 60.0346 40.0683 60.751 41.3898 61.1813C41.411 61.1866 41.4268 61.1918 41.4374 61.1971C43.4038 61.8321 45.2143 61.8583 46.8689 61.2758C47.2601 61.1289 47.6803 60.9321 48.1296 60.6854C49.0177 60.1921 50.022 59.481 51.1427 58.5521C51.3118 58.3894 51.5154 58.1663 51.7532 57.8829C52.2078 57.3266 52.5647 56.7782 52.8237 56.2377C54.9117 56.1274 57.9459 55.4478 61.9263 54.1988C65.8063 52.9812 68.4864 51.8686 69.9665 50.861L70.1092 50.7587C70.1304 50.7377 70.1542 50.7193 70.1806 50.7036C70.9682 50.3362 71.6845 49.9347 72.3294 49.4991C74.5495 47.9877 75.8526 46.0302 76.2384 43.6265C76.3706 42.7554 76.3865 41.8028 76.286 40.769C76.2807 40.7375 76.2781 40.706 76.2781 40.6745C76.2305 40.2074 76.1222 39.4674 75.953 38.4546C75.8209 37.6516 75.6676 36.9484 75.4931 36.3448C75.3292 35.7833 75.0834 35.0958 74.7557 34.2824C75.3953 34.9699 75.9028 35.6232 76.2781 36.2425C76.6746 36.9143 76.8992 37.5204 76.9521 38.061C79.4365 37.0428 81.736 35.8699 83.8504 34.5421C87.26 32.3957 89.2581 30.3306 89.8449 28.3468C90.6854 25.5916 90.7171 23.3769 89.94 21.7027C89.2687 20.27 88.1031 19.3857 86.4433 19.0498ZM20.5996 45.1144C20.8375 45.1826 21.0516 45.2849 21.2419 45.4214C21.6436 45.2954 22.1299 45.1564 22.7008 45.0042C23.0127 44.9307 23.3986 44.831 23.8585 44.705C24.1704 44.6316 24.4373 44.6788 24.6593 44.8467C24.8602 45.0042 24.9791 45.2141 25.0162 45.4765C25.0532 45.7494 24.9871 45.9619 24.8179 46.1141C24.6276 46.3031 24.3422 46.3634 23.9616 46.2952C23.5281 46.2375 23.1449 46.2191 22.8118 46.2401C22.648 46.2506 22.3414 46.2847 21.8921 46.3424C21.9238 46.4999 21.9264 46.6389 21.9 46.7596C21.9 46.7649 21.9 46.7701 21.9 46.7754C22.1802 47.3684 22.3229 47.9273 22.3282 48.4521C22.3335 49.1711 22.0401 49.6277 21.448 49.8219C21.1732 49.9216 20.8692 49.8927 20.5362 49.7353C19.8701 49.4047 19.3944 48.5938 19.1089 47.3028C19.0402 47.2241 18.9953 47.127 18.9741 47.0115C18.8896 46.576 18.9081 46.1902 19.0296 45.8543C19.1882 45.4293 19.4948 45.1669 19.9494 45.0671C20.1292 45.0252 20.3459 45.0409 20.5996 45.1144Z" fill="#523C2F"/>
<path d="M21.8921 46.3426C21.8392 45.9962 21.6384 45.6971 21.2895 45.4452C21.2736 45.4399 21.2578 45.4321 21.2419 45.4216C21.0516 45.2851 20.8375 45.1828 20.5996 45.1146C20.3459 45.0411 20.1292 45.0253 19.9495 45.0673C19.4948 45.167 19.1883 45.4295 19.0297 45.8545C18.9081 46.1904 18.8896 46.5762 18.9742 47.0117C18.9953 47.1272 19.0402 47.2243 19.109 47.303C19.2147 47.4342 19.3838 47.5051 19.6164 47.5156C19.8332 47.5366 20.1847 47.4946 20.671 47.3896C21.1256 47.2951 21.3899 47.2374 21.4639 47.2164C21.7018 47.122 21.8472 46.975 21.9 46.7756C21.9 46.7703 21.9 46.7651 21.9 46.7598C21.9265 46.6391 21.9238 46.5001 21.8921 46.3426Z" fill="#11110F"/>
<path d="M21.2896 45.4451C21.6385 45.6971 21.8393 45.9962 21.8922 46.3426C22.3415 46.2848 22.6481 46.2507 22.812 46.2402C23.145 46.2192 23.5282 46.2376 23.9617 46.2953C24.3423 46.3636 24.6278 46.3032 24.8181 46.1143C24.9872 45.9621 25.0533 45.7495 25.0163 45.4766C24.9793 45.2142 24.8603 45.0043 24.6595 44.8469C24.4375 44.6789 24.1705 44.6317 23.8586 44.7052C23.3987 44.8311 23.0128 44.9308 22.701 45.0043C22.1301 45.1565 21.6437 45.2956 21.242 45.4215C21.2579 45.432 21.2737 45.4399 21.2896 45.4451Z" fill="#1E1B16"/>
</svg>
