<svg width="91" height="90" viewBox="0 0 91 90" fill="none" xmlns="http://www.w3.org/2000/svg">
<path d="M68.0889 73.2187C75.1433 66.0951 78.6704 57.5011 78.6704 47.4366C78.6704 37.3722 75.1433 28.7751 68.0889 21.6454C61.0345 14.5218 52.5241 10.96 42.5575 10.96C32.591 10.96 24.0775 14.5218 17.0171 21.6454C9.96273 28.7751 6.43555 37.3722 6.43555 47.4366C6.43555 57.5011 9.96273 66.0951 17.0171 73.2187C24.0775 80.3484 32.591 83.9133 42.5575 83.9133C52.5241 83.9133 61.0345 80.3484 68.0889 73.2187Z" fill="#874528"/>
<path d="M83.5539 47.618C83.3188 46.9726 82.8334 46.3059 82.0978 45.6179L73.4607 47.1796L64.6156 48.6683L59.551 55.3901L72.285 63.6097L73.0537 63.8197C73.729 63.9172 74.4767 63.8745 75.2967 63.6919C77.9134 63.1074 80.7442 61.2169 83.789 58.0204C85.4773 56.2486 86.4992 55.0735 86.855 54.4951C87.1323 54.0506 87.0359 53.8862 86.5656 54.0019C85.8903 54.2393 85.4109 54.3733 85.1276 54.4037C84.6211 54.4585 84.4885 54.1785 84.7296 53.5635C85.1818 52.425 85.1698 51.5452 84.6934 50.9241C84.4161 50.6258 84.2171 50.4035 84.0965 50.2574C83.8915 50.0078 83.789 49.746 83.789 49.472C83.789 48.6805 83.7107 48.0625 83.5539 47.618Z" fill="#EFC09C"/>
<path d="M48.9063 25.8453C43.0337 25.3826 40.022 25.1969 39.8712 25.2882C39.6301 25.4343 36.8083 27.0174 31.406 30.0373L40.5948 48.8875L60.2023 55.0979L67.727 45.965L60.4917 27.6262L57.67 26.5577C54.7638 26.308 51.8426 26.0706 48.9063 25.8453Z" fill="#2A0601"/>
<path d="M67.0033 48.4588C67.7569 48.8728 68.7759 48.8972 70.0602 48.5319C70.8319 48.3066 72.3182 47.6977 74.5189 46.7053C77.015 45.585 79.1193 44.7235 80.8316 44.1207C77.5577 38.3244 73.4065 33.6149 68.378 29.9922C65.8215 28.1473 63.3706 26.7956 61.0251 25.9372C60.3981 25.7058 59.9399 25.6449 59.6504 25.7545C59.1862 25.925 58.7702 26.5034 58.4024 27.4897C57.5583 30.5462 55.9876 32.4306 53.6904 33.143C52.1348 33.624 49.9974 33.5661 47.2782 32.9695C46.3074 32.7564 45.5266 32.7899 44.9358 33.0699C44.4233 33.3135 44.1188 33.7031 44.0223 34.2389C43.9258 34.7443 44.0253 35.2436 44.3208 35.7367C44.6343 36.2543 45.0775 36.6135 45.6502 36.8144L48.4358 37.682C50.9681 38.4431 53.9286 39.2803 57.3171 40.1936C60.7116 41.1069 62.9967 42.2485 64.1725 43.6184C64.7573 44.3064 65.0045 44.9 64.9141 45.3993C65.4809 46.9823 66.1772 48.0022 67.0033 48.4588Z" fill="#D55A20"/>
<mask id="mask0_1808_2957" style="mask-type:luminance" maskUnits="userSpaceOnUse" x="43" y="25" width="38" height="24">
<path d="M67.0033 48.4588C67.7569 48.8728 68.7759 48.8972 70.0602 48.5319C70.8319 48.3066 72.3182 47.6977 74.5189 46.7053C77.015 45.585 79.1193 44.7235 80.8316 44.1207C77.5577 38.3244 73.4065 33.6149 68.378 29.9922C65.8215 28.1473 63.3706 26.7956 61.0251 25.9372C60.3981 25.7058 59.9399 25.6449 59.6504 25.7545C59.1862 25.925 58.7702 26.5034 58.4024 27.4897C57.5583 30.5462 55.9876 32.4306 53.6904 33.143C52.1348 33.624 49.9974 33.5661 47.2782 32.9695C46.3074 32.7564 45.5266 32.7899 44.9358 33.0699C44.4233 33.3135 44.1188 33.7031 44.0223 34.2389C43.9258 34.7443 44.0253 35.2436 44.3208 35.7367C44.6343 36.2543 45.0775 36.6135 45.6502 36.8144L48.4358 37.682C50.9681 38.4431 53.9286 39.2803 57.3171 40.1936C60.7116 41.1069 62.9967 42.2485 64.1725 43.6184C64.7573 44.3064 65.0045 44.9 64.9141 45.3993C65.4809 46.9823 66.1772 48.0022 67.0033 48.4588Z" fill="white"/>
</mask>
<g mask="url(#mask0_1808_2957)">
<path d="M43.7781 29.5995C41.0528 29.7822 39.0179 30.1445 37.6734 30.6863C34.9903 31.764 37.1066 33.1979 44.0223 34.9879C51.2395 36.8571 56.1594 36.4979 58.7822 33.9102C59.7529 32.9482 60.5187 31.5722 61.0794 29.7822C61.2663 29.1733 61.4713 28.3849 61.6944 27.4168C62.0079 26.0347 62.1858 25.2523 62.228 25.0696L58.6827 23.9919L43.7781 29.5995Z" fill="#FFFFE9"/>
</g>
<mask id="mask1_1808_2957" style="mask-type:luminance" maskUnits="userSpaceOnUse" x="43" y="25" width="38" height="24">
<path d="M67.0033 48.4588C67.7569 48.8728 68.7759 48.8972 70.0602 48.5319C70.8319 48.3066 72.3182 47.6977 74.5189 46.7053C77.015 45.585 79.1193 44.7235 80.8316 44.1207C77.5577 38.3244 73.4065 33.6149 68.378 29.9922C65.8215 28.1473 63.3706 26.7956 61.0251 25.9372C60.3981 25.7058 59.9399 25.6449 59.6504 25.7545C59.1862 25.925 58.7702 26.5034 58.4024 27.4897C57.5583 30.5462 55.9876 32.4306 53.6904 33.143C52.1348 33.624 49.9974 33.5661 47.2782 32.9695C46.3074 32.7564 45.5266 32.7899 44.9358 33.0699C44.4233 33.3135 44.1188 33.7031 44.0223 34.2389C43.9258 34.7443 44.0253 35.2436 44.3208 35.7367C44.6343 36.2543 45.0775 36.6135 45.6502 36.8144L48.4358 37.682C50.9681 38.4431 53.9286 39.2803 57.3171 40.1936C60.7116 41.1069 62.9967 42.2485 64.1725 43.6184C64.7573 44.3064 65.0045 44.9 64.9141 45.3993C65.4809 46.9823 66.1772 48.0022 67.0033 48.4588Z" fill="white"/>
</mask>
<g mask="url(#mask1_1808_2957)">
<path d="M60.8533 35.2253C60.4131 35.2253 60.0363 35.3806 59.7228 35.6911C59.4153 36.0077 59.2615 36.3882 59.2615 36.8327C59.2615 37.2772 59.4153 37.6547 59.7228 37.9652C60.0363 38.2818 60.4131 38.4401 60.8533 38.4401C61.2934 38.4401 61.6673 38.2818 61.9748 37.9652C62.2883 37.6547 62.445 37.2772 62.445 36.8327C62.445 36.3882 62.2883 36.0077 61.9748 35.6911C61.6673 35.3806 61.2934 35.2253 60.8533 35.2253ZM64.2539 31.4626C64.3744 31.3469 64.4347 31.2069 64.4347 31.0425C64.4347 30.8781 64.3744 30.735 64.2539 30.6132C64.1393 30.4975 64.0006 30.4397 63.8378 30.4397C63.675 30.4397 63.5333 30.4975 63.4128 30.6132C63.2982 30.735 63.2409 30.8781 63.2409 31.0425C63.2409 31.2069 63.2982 31.3469 63.4128 31.4626C63.5333 31.5844 63.675 31.6452 63.8378 31.6452C64.0006 31.6452 64.1393 31.5844 64.2539 31.4626ZM67.5188 40.6959C67.5188 40.4767 67.4434 40.291 67.2927 40.1388C67.1419 39.9866 66.958 39.9105 66.741 39.9105C66.5239 39.9105 66.34 39.9866 66.1893 40.1388C66.0385 40.291 65.9632 40.4767 65.9632 40.6959C65.9632 40.9151 66.0385 41.1008 66.1893 41.253C66.34 41.4052 66.5239 41.4813 66.741 41.4813C66.958 41.4813 67.1419 41.4052 67.2927 41.253C67.4434 41.1008 67.5188 40.9151 67.5188 40.6959ZM75.568 39.0703C75.2002 38.6989 74.757 38.5132 74.2385 38.5132C73.72 38.5132 73.2768 38.6989 72.909 39.0703C72.5412 39.4417 72.3573 39.8892 72.3573 40.4128C72.3573 40.9364 72.5412 41.3839 72.909 41.7553C73.2768 42.1267 73.72 42.3124 74.2385 42.3124C74.757 42.3124 75.2002 42.1267 75.568 41.7553C75.9358 41.3839 76.1197 40.9364 76.1197 40.4128C76.1197 39.8892 75.9358 39.4417 75.568 39.0703ZM71.887 38.2392C71.887 38.0443 71.8177 37.8769 71.679 37.7369C71.5403 37.5968 71.3745 37.5268 71.1816 37.5268C70.9887 37.5268 70.8229 37.5968 70.6842 37.7369C70.5455 37.8769 70.4762 38.0443 70.4762 38.2392C70.4762 38.434 70.5455 38.6014 70.6842 38.7415C70.8229 38.8815 70.9887 38.9515 71.1816 38.9515C71.3745 38.9515 71.5403 38.8815 71.679 38.7415C71.8177 38.6014 71.887 38.434 71.887 38.2392ZM65.7733 33.6545C65.7733 34.1111 65.93 34.4977 66.2435 34.8143C66.5631 35.137 66.949 35.2984 67.4012 35.2984C67.8534 35.2984 68.2363 35.137 68.5498 34.8143C68.8693 34.4977 69.0291 34.1111 69.0291 33.6545C69.0291 33.1978 68.8693 32.8082 68.5498 32.4855C68.2363 32.1689 67.8534 32.0106 67.4012 32.0106C66.949 32.0106 66.5631 32.1689 66.2435 32.4855C65.93 32.8082 65.7733 33.1978 65.7733 33.6545Z" fill="#FFFFE9"/>
<path d="M69.0291 33.6545C69.0291 34.1111 68.8693 34.4977 68.5498 34.8143C68.2363 35.137 67.8534 35.2984 67.4012 35.2984C66.949 35.2984 66.5631 35.137 66.2435 34.8143C65.93 34.4977 65.7733 34.1111 65.7733 33.6545C65.7733 33.1978 65.93 32.8082 66.2435 32.4855C66.5631 32.1689 66.949 32.0106 67.4012 32.0106C67.8534 32.0106 68.2363 32.1689 68.5498 32.4855C68.8693 32.8082 69.0291 33.1978 69.0291 33.6545ZM71.887 38.2392C71.887 38.434 71.8177 38.6014 71.679 38.7415C71.5403 38.8815 71.3745 38.9515 71.1816 38.9515C70.9887 38.9515 70.8229 38.8815 70.6842 38.7415C70.5455 38.6014 70.4762 38.434 70.4762 38.2392C70.4762 38.0443 70.5455 37.8769 70.6842 37.7369C70.8229 37.5968 70.9887 37.5268 71.1816 37.5268C71.3745 37.5268 71.5403 37.5968 71.679 37.7369C71.8177 37.8769 71.887 38.0443 71.887 38.2392ZM76.1197 40.4128C76.1197 40.9364 75.9358 41.3839 75.568 41.7553C75.2002 42.1267 74.757 42.3124 74.2385 42.3124C73.72 42.3124 73.2768 42.1267 72.909 41.7553C72.5412 41.3839 72.3573 40.9364 72.3573 40.4128C72.3573 39.8892 72.5412 39.4417 72.909 39.0703C73.2768 38.6989 73.72 38.5132 74.2385 38.5132C74.757 38.5132 75.2002 38.6989 75.568 39.0703C75.9358 39.4417 76.1197 39.8892 76.1197 40.4128ZM67.5188 40.6959C67.5188 40.9151 67.4434 41.1008 67.2927 41.253C67.1419 41.4052 66.958 41.4813 66.741 41.4813C66.5239 41.4813 66.34 41.4052 66.1893 41.253C66.0385 41.1008 65.9632 40.9151 65.9632 40.6959C65.9632 40.4767 66.0385 40.291 66.1893 40.1388C66.34 39.9866 66.5239 39.9105 66.741 39.9105C66.958 39.9105 67.1419 39.9866 67.2927 40.1388C67.4434 40.291 67.5188 40.4767 67.5188 40.6959ZM64.4347 31.0425C64.4347 31.2069 64.3744 31.3469 64.2539 31.4626C64.1393 31.5844 64.0006 31.6452 63.8378 31.6452C63.675 31.6452 63.5333 31.5844 63.4128 31.4626C63.2982 31.3469 63.2409 31.2069 63.2409 31.0425C63.2409 30.8781 63.2982 30.735 63.4128 30.6132C63.5333 30.4975 63.675 30.4397 63.8378 30.4397C64.0006 30.4397 64.1393 30.4975 64.2539 30.6132C64.3744 30.735 64.4347 30.8781 64.4347 31.0425ZM62.445 36.8327C62.445 37.2772 62.2883 37.6547 61.9748 37.9652C61.6673 38.2818 61.2934 38.4401 60.8533 38.4401C60.4131 38.4401 60.0363 38.2818 59.7228 37.9652C59.4153 37.6547 59.2615 37.2772 59.2615 36.8327C59.2615 36.3882 59.4153 36.0077 59.7228 35.6911C60.0363 35.3806 60.4131 35.2253 60.8533 35.2253C61.2934 35.2253 61.6673 35.3806 61.9748 35.6911C62.2883 36.0077 62.445 36.3882 62.445 36.8327Z" stroke="#FFFFE9" stroke-width="0.1" stroke-linecap="round" stroke-linejoin="round"/>
</g>
<path d="M82.3063 47.1705C83.476 46.6104 84.6939 45.831 85.9601 44.8325C86.7861 44.181 87.2172 43.5265 87.2534 42.8689C87.2714 42.4914 87.178 42.1718 86.973 41.91C86.8162 41.7091 86.5238 41.5903 86.0957 41.5538C85.4445 41.4929 84.724 41.7212 83.9342 42.2388C81.2813 43.974 79.3036 44.8264 78.0013 44.796C75.6317 44.7412 72.4965 44.6559 68.5955 44.5403C66.2742 44.4672 64.5528 44.9025 63.4313 45.8463C62.4304 46.6743 61.4748 48.3213 60.5643 50.7871L63.4946 52.906L63.6484 52.9699C63.781 53.0125 63.9136 53.0216 64.0463 52.9973C64.4623 52.9181 64.803 52.5406 65.0683 51.8648C65.4059 51.0002 65.8822 50.3061 66.4972 49.7825C67.1786 49.198 67.9895 48.8571 68.9301 48.7596C71.0765 48.5405 73.9073 48.4126 77.4225 48.3761C79.0202 48.3578 80.6482 47.9559 82.3063 47.1705Z" fill="#FFFFE9"/>
<mask id="mask2_1808_2957" style="mask-type:luminance" maskUnits="userSpaceOnUse" x="60" y="41" width="28" height="13">
<path d="M82.3063 47.1705C83.476 46.6104 84.6939 45.831 85.9601 44.8325C86.7861 44.181 87.2172 43.5265 87.2534 42.8689C87.2714 42.4914 87.178 42.1718 86.973 41.91C86.8162 41.7091 86.5238 41.5903 86.0957 41.5538C85.4445 41.4929 84.724 41.7212 83.9342 42.2388C81.2813 43.974 79.3036 44.8264 78.0013 44.796C75.6317 44.7412 72.4965 44.6559 68.5955 44.5403C66.2742 44.4672 64.5528 44.9025 63.4313 45.8463C62.4304 46.6743 61.4748 48.3213 60.5643 50.7871L63.4946 52.906L63.6484 52.9699C63.781 53.0125 63.9136 53.0216 64.0463 52.9973C64.4623 52.9181 64.803 52.5406 65.0683 51.8648C65.4059 51.0002 65.8822 50.3061 66.4972 49.7825C67.1786 49.198 67.9895 48.8571 68.9301 48.7596C71.0765 48.5405 73.9073 48.4126 77.4225 48.3761C79.0202 48.3578 80.6482 47.9559 82.3063 47.1705Z" fill="white"/>
</mask>
<g mask="url(#mask2_1808_2957)">
<path d="M87.4071 41.6177L87.0815 40.4487L65.3034 41.4351L58.647 50.9333L59.0178 51.6456C59.3313 52.1753 59.6478 52.5802 59.9674 52.8603C60.9864 53.7614 61.8486 53.253 62.554 51.3351C63.2896 49.3381 64.3447 47.9712 65.7194 47.2345C66.5213 46.8022 67.4921 46.586 68.6316 46.586C72.3216 46.586 75.4689 46.5982 78.0736 46.6225C79.7679 46.6408 81.4832 46.0898 83.2197 44.9695C83.8407 44.5677 85.2365 43.4504 87.4071 41.6177Z" fill="#D55A20"/>
</g>
<path d="M89.2247 47.8843C89.6528 47.1354 89.7342 46.5935 89.4689 46.2587C89.2157 45.936 88.8931 45.7868 88.5012 45.8112C87.9827 45.8355 87.2682 46.1308 86.3578 46.697C83.4998 48.621 81.1122 49.5222 79.1949 49.4004C78.2181 49.3273 77.3529 49.2695 76.5992 49.2269C75.1944 49.1416 73.8408 49.0899 72.5384 49.0716C70.9768 49.0533 69.6353 49.3243 68.5138 49.8844C67.3743 50.4507 66.3644 51.3609 65.4841 52.6151L65.3936 53.1083C65.3454 53.4919 65.3544 53.8207 65.4208 54.0947C65.6378 54.9532 66.3945 55.0688 67.6908 54.4417C69.2585 53.6867 70.4673 53.227 71.3175 53.0627C72.2038 52.8861 74.0096 52.7613 76.7349 52.6882C79.219 52.6212 81.2599 52.3503 82.8577 51.8754C83.9068 51.5649 85.2061 50.9834 86.7557 50.131C87.9013 49.5039 88.7243 48.755 89.2247 47.8843Z" fill="#FFFFE9"/>
<mask id="mask3_1808_2957" style="mask-type:luminance" maskUnits="userSpaceOnUse" x="65" y="45" width="25" height="10">
<path d="M89.2247 47.8843C89.6528 47.1354 89.7342 46.5935 89.4689 46.2587C89.2157 45.936 88.8931 45.7868 88.5012 45.8112C87.9827 45.8355 87.2682 46.1308 86.3578 46.697C83.4998 48.621 81.1122 49.5222 79.1949 49.4004C78.2181 49.3273 77.3529 49.2695 76.5992 49.2269C75.1944 49.1416 73.8408 49.0899 72.5384 49.0716C70.9768 49.0533 69.6353 49.3243 68.5138 49.8844C67.3743 50.4507 66.3644 51.3609 65.4841 52.6151L65.3936 53.1083C65.3454 53.4919 65.3544 53.8207 65.4208 54.0947C65.6378 54.9532 66.3945 55.0688 67.6908 54.4417C69.2585 53.6867 70.4673 53.227 71.3175 53.0627C72.2038 52.8861 74.0096 52.7613 76.7349 52.6882C79.219 52.6212 81.2599 52.3503 82.8577 51.8754C83.9068 51.5649 85.2061 50.9834 86.7557 50.131C87.9013 49.5039 88.7243 48.755 89.2247 47.8843Z" fill="white"/>
</mask>
<g mask="url(#mask3_1808_2957)">
<path d="M89.686 45.5646L85.5619 44.834L68.6314 46.8067L63.4944 52.9074L63.7928 53.2545C64.0521 53.5163 64.3264 53.7264 64.6159 53.8847C65.5263 54.39 66.3945 54.2835 67.2205 53.565C68.1792 52.737 69.1017 52.1098 69.988 51.6836C70.808 51.2818 71.5376 51.0809 72.1767 51.0809C72.5867 51.0809 73.3554 51.093 74.4829 51.1174C75.8214 51.1113 77.573 51.0382 79.7375 50.8982C82.0226 50.7521 84.0395 50.1189 85.788 48.9986C86.7708 48.3654 88.0701 47.2207 89.686 45.5646Z" fill="#D55A20"/>
</g>
<path d="M81.6553 56.8519C83.1687 56.444 84.7785 55.7012 86.4849 54.6235C87.4435 54.0208 88.366 53.351 89.2523 52.6143C89.7287 52.2246 90.0814 51.7862 90.3105 51.2992C90.5878 50.7207 90.5607 50.2824 90.2291 49.984C89.8975 49.6857 89.4935 49.6157 89.0172 49.774C88.6856 49.8836 88.1248 50.1971 87.335 50.7147C86.6054 51.1957 85.7674 51.6279 84.8207 52.0115C83.6872 52.4743 82.1497 52.9796 80.2083 53.5276C77.9834 54.1547 76.1204 54.6327 74.619 54.9614C72.8585 55.345 71.1401 55.6221 69.4639 55.7925L70.1151 58.0849C70.6276 59.5644 71.0858 60.1885 71.4898 59.9571C71.8576 59.7501 72.2495 59.5614 72.6655 59.3909C73.2685 59.1291 73.7207 58.9281 74.0221 58.7881C74.4804 58.5689 75.4632 58.2919 76.9705 57.957C79.1893 57.4638 80.7509 57.0955 81.6553 56.8519Z" fill="#FFFFE9"/>
<mask id="mask4_1808_2957" style="mask-type:luminance" maskUnits="userSpaceOnUse" x="69" y="49" width="22" height="12">
<path d="M81.6553 56.8519C83.1687 56.444 84.7785 55.7012 86.4849 54.6235C87.4435 54.0208 88.366 53.351 89.2523 52.6143C89.7287 52.2246 90.0814 51.7862 90.3105 51.2992C90.5878 50.7207 90.5607 50.2824 90.2291 49.984C89.8975 49.6857 89.4935 49.6157 89.0172 49.774C88.6856 49.8836 88.1248 50.1971 87.335 50.7147C86.6054 51.1957 85.7674 51.6279 84.8207 52.0115C83.6872 52.4743 82.1497 52.9796 80.2083 53.5276C77.9834 54.1547 76.1204 54.6327 74.619 54.9614C72.8585 55.345 71.1401 55.6221 69.4639 55.7925L70.1151 58.0849C70.6276 59.5644 71.0858 60.1885 71.4898 59.9571C71.8576 59.7501 72.2495 59.5614 72.6655 59.3909C73.2685 59.1291 73.7207 58.9281 74.0221 58.7881C74.4804 58.5689 75.4632 58.2919 76.9705 57.957C79.1893 57.4638 80.7509 57.0955 81.6553 56.8519Z" fill="white"/>
</mask>
<g mask="url(#mask4_1808_2957)">
<path d="M81.8362 55.0254C83.7777 54.4835 85.4719 53.7072 86.919 52.6965C87.8174 52.0694 89.1016 50.946 90.7718 49.3265L90.8803 49.2169L89.8312 46.9519L77.2057 51.4818L67.4019 55.9752L67.6009 56.5962C67.7818 57.0772 68.0049 57.4943 68.2701 57.8474C69.1082 58.9616 70.1815 59.19 71.4898 58.5324C72.8826 57.8383 74.4623 57.2081 76.2289 56.6419C77.0007 56.3983 78.8698 55.8595 81.8362 55.0254Z" fill="#D55A20"/>
</g>
<path d="M87.0812 57.6112C86.3818 57.2703 85.4292 57.1637 84.2233 57.2916C82.8667 57.4316 81.5885 57.6782 80.3886 58.0313C79.2611 58.354 78.0191 58.8259 76.6625 59.4469C75.6495 59.9097 74.6487 60.3328 73.6598 60.7164C72.6107 61.1243 71.9596 61.3831 71.7063 61.4927C71.1938 61.7241 71.2993 62.3907 72.0229 63.4928C72.3846 64.0408 72.7976 64.5674 73.2619 65.0728C75.3782 63.7759 77.2443 62.7621 78.8602 62.0315C81.0006 61.0695 82.8848 60.5124 84.5127 60.3602C86.8762 60.141 87.9977 59.4835 87.8771 58.3875C87.8469 58.1074 87.5817 57.8487 87.0812 57.6112Z" fill="#FFFFE9"/>
<mask id="mask5_1808_2957" style="mask-type:luminance" maskUnits="userSpaceOnUse" x="71" y="57" width="17" height="9">
<path d="M87.0812 57.6112C86.3818 57.2703 85.4292 57.1637 84.2233 57.2916C82.8667 57.4316 81.5885 57.6782 80.3886 58.0313C79.2611 58.354 78.0191 58.8259 76.6625 59.4469C75.6495 59.9097 74.6487 60.3328 73.6598 60.7164C72.6107 61.1243 71.9596 61.3831 71.7063 61.4927C71.1938 61.7241 71.2993 62.3907 72.0229 63.4928C72.3846 64.0408 72.7976 64.5674 73.2619 65.0728C75.3782 63.7759 77.2443 62.7621 78.8602 62.0315C81.0006 61.0695 82.8848 60.5124 84.5127 60.3602C86.8762 60.141 87.9977 59.4835 87.8771 58.3875C87.8469 58.1074 87.5817 57.8487 87.0812 57.6112Z" fill="white"/>
</mask>
<g mask="url(#mask5_1808_2957)">
<path d="M73.1172 63.1731C74.4316 62.1685 75.4626 61.4683 76.2103 61.0725C77.1931 60.5489 78.5135 60.0557 80.1716 59.593C81.8598 59.1242 83.3581 58.8472 84.6665 58.7619C85.806 58.6828 87.0692 58.7406 88.4559 58.9354L89.6136 58.3509L86.5386 55.9033L75.6857 57.876L69.789 61.0543L69.9699 61.6388C70.1387 62.0954 70.3347 62.482 70.5577 62.7986C71.2692 63.8093 72.1224 63.9342 73.1172 63.1731Z" fill="#D55A20"/>
</g>
<path d="M80.5968 55.83C80.7114 55.7813 80.835 55.6352 80.9677 55.3916C81.1063 55.1359 81.0762 54.9045 80.8772 54.6975C80.4974 54.3018 79.5508 53.8025 78.0374 53.1997C76.4577 52.5665 74.6338 52.256 72.5657 52.2682C70.9318 52.2743 69.2586 52.4752 67.5463 52.8709L65.3033 55.1724L66.678 55.6291C67.7633 55.8787 68.728 55.8726 69.5721 55.6108C70.5549 55.3125 71.384 55.1207 72.0593 55.0354C72.6622 54.9624 73.5395 54.9319 74.6911 54.9441C75.6678 54.9563 76.5391 55.0385 77.3048 55.1907C77.6304 55.2577 78.2966 55.4342 79.3036 55.7204C79.9185 55.897 80.3496 55.9335 80.5968 55.83Z" fill="#FFFFE9"/>
<mask id="mask6_1808_2957" style="mask-type:luminance" maskUnits="userSpaceOnUse" x="65" y="52" width="17" height="4">
<path d="M80.5968 55.83C80.7114 55.7813 80.835 55.6352 80.9677 55.3916C81.1063 55.1359 81.0762 54.9045 80.8772 54.6975C80.4974 54.3018 79.5508 53.8025 78.0374 53.1997C76.4577 52.5665 74.6338 52.256 72.5657 52.2682C70.9318 52.2743 69.2586 52.4752 67.5463 52.8709L65.3033 55.1724L66.678 55.6291C67.7633 55.8787 68.728 55.8726 69.5721 55.6108C70.5549 55.3125 71.384 55.1207 72.0593 55.0354C72.6622 54.9624 73.5395 54.9319 74.6911 54.9441C75.6678 54.9563 76.5391 55.0385 77.3048 55.1907C77.6304 55.2577 78.2966 55.4342 79.3036 55.7204C79.9185 55.897 80.3496 55.9335 80.5968 55.83Z" fill="white"/>
</mask>
<g mask="url(#mask6_1808_2957)">
<path d="M81.438 55.7205L82.8127 55.6109L82.1434 52.0673L73.3707 49.2544L61.9752 51.9943L61.6225 52.6336C61.4054 53.1267 61.3572 53.5499 61.4777 53.903C61.8636 55.0355 63.8533 55.2547 67.4468 54.5606C71.2634 53.8178 74.2841 53.623 76.509 53.9761C77.3953 54.11 78.2756 54.3505 79.1498 54.6976C79.4694 54.8194 80.2321 55.1603 81.438 55.7205Z" fill="#D55A20"/>
</g>
<path d="M69.771 55.254C68.8305 54.2859 67.7844 53.4426 66.6328 52.7242C65.7223 52.1579 64.9656 51.7865 64.3627 51.61C63.6392 51.403 61.9751 50.8824 59.3704 50.0482C56.416 49.1045 54.7036 48.5596 54.2333 48.4135C53.4857 48.1821 53.0606 48.0451 52.9581 48.0025C52.5903 47.8503 52.2617 47.6311 51.9723 47.3449C51.4176 46.7787 50.4831 45.2778 49.1687 42.8424C47.9628 40.6079 46.6514 38.9061 45.2345 37.7371C44.4627 37.1039 43.6036 36.6138 42.6569 36.2667C42.1746 36.0719 41.7857 35.9167 41.4903 35.801C40.9657 35.594 40.1487 35.323 39.0393 34.9881C38.3942 34.7933 37.9269 34.4067 37.6375 33.8283C37.3722 33.2986 37.3119 32.7384 37.4566 32.1478C37.6074 31.539 37.9329 31.0854 38.4334 30.787C38.9941 30.4521 39.6784 30.3913 40.4864 30.6044C41.1195 30.7627 42.4942 31.1249 44.6105 31.6912C46.6303 32.2148 48.1196 32.5497 49.0782 32.6958C50.2298 32.8724 51.3302 32.8115 52.3793 32.5131C53.3802 32.227 54.3901 31.7094 55.4091 30.9605C56.2954 30.3091 56.9918 29.0731 57.4983 27.2526C57.9143 25.767 58.0921 24.5067 58.0319 23.4716C58.0017 22.9541 57.848 22.2691 57.5706 21.4167C57.2088 20.2964 56.7144 19.1791 56.0874 18.0649C54.3027 14.9111 51.7854 12.3569 48.5356 10.4025C46.6725 9.28216 44.4477 8.42063 41.8611 7.81786C39.3468 7.22727 36.6788 6.92588 33.8571 6.9137C27.7976 6.88935 22.4405 8.05531 17.7858 10.4116C12.6066 13.0358 8.50659 16.6615 5.48587 21.2888C2.00089 26.6285 0.342817 32.8084 0.51164 39.8286C0.60208 43.5974 1.24722 47.3236 2.44706 51.0072C3.665 54.7334 5.38639 58.2374 7.61123 61.5191C12.4106 68.5941 18.847 73.815 26.9203 77.182C33.9566 80.1167 42.0299 81.0178 51.1403 79.8853C56.1386 79.2643 60.727 78.1805 64.9053 76.634C67.0759 75.8303 68.8666 74.7131 70.2775 73.2823C72.5144 71.0112 73.651 68.11 73.6871 64.5786C73.7233 61.0777 72.4179 57.9695 69.771 55.254Z" fill="#FFFFE9"/>
<mask id="mask7_1808_2957" style="mask-type:luminance" maskUnits="userSpaceOnUse" x="0" y="6" width="74" height="75">
<path d="M69.771 55.254C68.8305 54.2859 67.7844 53.4426 66.6328 52.7242C65.7223 52.1579 64.9656 51.7865 64.3627 51.61C63.6392 51.403 61.9751 50.8824 59.3704 50.0482C56.416 49.1045 54.7036 48.5596 54.2333 48.4135C53.4857 48.1821 53.0606 48.0451 52.9581 48.0025C52.5903 47.8503 52.2617 47.6311 51.9723 47.3449C51.4176 46.7787 50.4831 45.2778 49.1687 42.8424C47.9628 40.6079 46.6514 38.9061 45.2345 37.7371C44.4627 37.1039 43.6036 36.6138 42.6569 36.2667C42.1746 36.0719 41.7857 35.9167 41.4903 35.801C40.9657 35.594 40.1487 35.323 39.0393 34.9881C38.3942 34.7933 37.9269 34.4067 37.6375 33.8283C37.3722 33.2986 37.3119 32.7384 37.4566 32.1478C37.6074 31.539 37.9329 31.0854 38.4334 30.787C38.9941 30.4521 39.6784 30.3913 40.4864 30.6044C41.1195 30.7627 42.4942 31.1249 44.6105 31.6912C46.6303 32.2148 48.1196 32.5497 49.0782 32.6958C50.2298 32.8724 51.3302 32.8115 52.3793 32.5131C53.3802 32.227 54.3901 31.7094 55.4091 30.9605C56.2954 30.3091 56.9918 29.0731 57.4983 27.2526C57.9143 25.767 58.0921 24.5067 58.0319 23.4716C58.0017 22.9541 57.848 22.2691 57.5706 21.4167C57.2088 20.2964 56.7144 19.1791 56.0874 18.0649C54.3027 14.9111 51.7854 12.3569 48.5356 10.4025C46.6725 9.28216 44.4477 8.42063 41.8611 7.81786C39.3468 7.22727 36.6788 6.92588 33.8571 6.9137C27.7976 6.88935 22.4405 8.05531 17.7858 10.4116C12.6066 13.0358 8.50659 16.6615 5.48587 21.2888C2.00089 26.6285 0.342817 32.8084 0.51164 39.8286C0.60208 43.5974 1.24722 47.3236 2.44706 51.0072C3.665 54.7334 5.38639 58.2374 7.61123 61.5191C12.4106 68.5941 18.847 73.815 26.9203 77.182C33.9566 80.1167 42.0299 81.0178 51.1403 79.8853C56.1386 79.2643 60.727 78.1805 64.9053 76.634C67.0759 75.8303 68.8666 74.7131 70.2775 73.2823C72.5144 71.0112 73.651 68.11 73.6871 64.5786C73.7233 61.0777 72.4179 57.9695 69.771 55.254Z" fill="white"/>
</mask>
<g mask="url(#mask7_1808_2957)">
<path d="M34.4359 70.3688C34.0742 70.0035 33.637 69.8208 33.1245 69.8208C32.612 69.8208 32.1719 70.0035 31.8041 70.3688C31.4423 70.7402 31.2614 71.1846 31.2614 71.7022C31.2614 72.2197 31.4423 72.6611 31.8041 73.0264C32.1719 73.3978 32.612 73.5835 33.1245 73.5835C33.637 73.5835 34.0742 73.3978 34.4359 73.0264C34.8037 72.6611 34.9876 72.2197 34.9876 71.7022C34.9876 71.1846 34.8037 70.7402 34.4359 70.3688ZM33.432 67.8481C33.432 67.5559 33.3295 67.3062 33.1245 67.0992C32.9195 66.8922 32.6723 66.7887 32.3829 66.7887C32.0935 66.7887 31.8463 66.8922 31.6413 67.0992C31.4363 67.3062 31.3338 67.5559 31.3338 67.8481C31.3338 68.1404 31.4363 68.39 31.6413 68.597C31.8463 68.804 32.0935 68.9075 32.3829 68.9075C32.6723 68.9075 32.9195 68.804 33.1245 68.597C33.3295 68.39 33.432 68.1404 33.432 67.8481ZM16.4654 47.8471C16.4654 47.1774 16.2302 46.6051 15.7599 46.1301C15.2896 45.6552 14.7229 45.4178 14.0596 45.4178C13.3964 45.4178 12.8297 45.6552 12.3594 46.1301C11.8891 46.6051 11.6539 47.1774 11.6539 47.8471C11.6539 48.5169 11.8891 49.0892 12.3594 49.5641C12.8297 50.039 13.3964 50.2765 14.0596 50.2765C14.7229 50.2765 15.2896 50.039 15.7599 49.5641C16.2302 49.0892 16.4654 48.5169 16.4654 47.8471ZM15.6333 42.6414C15.3921 42.891 15.2716 43.1894 15.2716 43.5364C15.2716 43.8835 15.3921 44.1788 15.6333 44.4223C15.8805 44.6719 16.176 44.7967 16.5196 44.7967C16.8633 44.7967 17.1557 44.6719 17.3969 44.4223C17.6441 44.1788 17.7677 43.8835 17.7677 43.5364C17.7677 43.1894 17.6441 42.891 17.3969 42.6414C17.1557 42.3978 16.8633 42.2761 16.5196 42.2761C16.176 42.2761 15.8805 42.3978 15.6333 42.6414ZM29.6335 46.3493C29.6335 45.9901 29.5069 45.6826 29.2537 45.4269C29.0065 45.1773 28.705 45.0525 28.3493 45.0525C27.9935 45.0525 27.689 45.1773 27.4358 45.4269C27.1886 45.6826 27.065 45.9901 27.065 46.3493C27.065 46.7086 27.1886 47.013 27.4358 47.2626C27.689 47.5183 27.9935 47.6462 28.3493 47.6462C28.705 47.6462 29.0065 47.5183 29.2537 47.2626C29.5069 47.013 29.6335 46.7086 29.6335 46.3493ZM39.5096 62.0761C39.5096 61.863 39.4343 61.6804 39.2835 61.5282C39.1388 61.382 38.961 61.309 38.7499 61.309C38.5389 61.309 38.358 61.382 38.2073 61.5282C38.0626 61.6804 37.9902 61.863 37.9902 62.0761C37.9902 62.2892 38.0626 62.4688 38.2073 62.615C38.358 62.7672 38.5389 62.8433 38.7499 62.8433C38.961 62.8433 39.1388 62.7672 39.2835 62.615C39.4343 62.4688 39.5096 62.2892 39.5096 62.0761ZM43.0278 49.8838C42.8529 50.0664 42.7655 50.2826 42.7655 50.5322C42.7655 50.7818 42.8529 50.9949 43.0278 51.1715C43.2087 51.3541 43.4227 51.4455 43.6699 51.4455C43.9171 51.4455 44.1281 51.3541 44.303 51.1715C44.4839 50.9949 44.5743 50.7818 44.5743 50.5322C44.5743 50.2826 44.4839 50.0664 44.303 49.8838C44.1281 49.7072 43.9171 49.6189 43.6699 49.6189C43.4227 49.6189 43.2087 49.7072 43.0278 49.8838ZM41.8973 48.3403C41.8973 47.8471 41.7224 47.424 41.3727 47.0708C41.029 46.7238 40.613 46.5503 40.1246 46.5503C39.6362 46.5503 39.2172 46.7238 38.8675 47.0708C38.5238 47.424 38.352 47.8471 38.352 48.3403C38.352 48.8335 38.5238 49.2536 38.8675 49.6006C39.2172 49.9538 39.6362 50.1303 40.1246 50.1303C40.613 50.1303 41.029 49.9538 41.3727 49.6006C41.7224 49.2536 41.8973 48.8335 41.8973 48.3403ZM48.6894 29.965C48.5205 29.7945 48.3125 29.7092 48.0653 29.7092C47.8181 29.7092 47.6071 29.7945 47.4322 29.965C47.2634 30.1415 47.179 30.3546 47.179 30.6043C47.179 30.8539 47.2634 31.064 47.4322 31.2344C47.6071 31.411 47.8181 31.4993 48.0653 31.4993C48.3125 31.4993 48.5205 31.411 48.6894 31.2344C48.8642 31.064 48.9516 30.8539 48.9516 30.6043C48.9516 30.3546 48.8642 30.1415 48.6894 29.965ZM25.5094 36.1936C25.5094 35.9135 25.413 35.6761 25.22 35.4812C25.0271 35.2864 24.7919 35.189 24.5146 35.189C24.2372 35.189 24.0021 35.2864 23.8091 35.4812C23.6162 35.6761 23.5197 35.9135 23.5197 36.1936C23.5197 36.4737 23.6162 36.7111 23.8091 36.9059C24.0021 37.1008 24.2372 37.1982 24.5146 37.1982C24.7919 37.1982 25.0271 37.1008 25.22 36.9059C25.413 36.7111 25.5094 36.4737 25.5094 36.1936ZM31.5509 28.3576C31.5509 28.1567 31.4785 27.9831 31.3338 27.837C31.1951 27.697 31.0263 27.627 30.8273 27.627C30.6284 27.627 30.4565 27.697 30.3118 27.837C30.1731 27.9831 30.1038 28.1567 30.1038 28.3576C30.1038 28.5585 30.1731 28.729 30.3118 28.869C30.4565 29.0151 30.6284 29.0882 30.8273 29.0882C31.0263 29.0882 31.1951 29.0151 31.3338 28.869C31.4785 28.729 31.5509 28.5585 31.5509 28.3576Z" fill="#E1AD94"/>
</g>
<mask id="mask8_1808_2957" style="mask-type:luminance" maskUnits="userSpaceOnUse" x="0" y="6" width="74" height="75">
<path d="M69.771 55.254C68.8305 54.2859 67.7844 53.4426 66.6328 52.7242C65.7223 52.1579 64.9656 51.7865 64.3627 51.61C63.6392 51.403 61.9751 50.8824 59.3704 50.0482C56.416 49.1045 54.7036 48.5596 54.2333 48.4135C53.4857 48.1821 53.0606 48.0451 52.9581 48.0025C52.5903 47.8503 52.2617 47.6311 51.9723 47.3449C51.4176 46.7787 50.4831 45.2778 49.1687 42.8424C47.9628 40.6079 46.6514 38.9061 45.2345 37.7371C44.4627 37.1039 43.6036 36.6138 42.6569 36.2667C42.1746 36.0719 41.7857 35.9167 41.4903 35.801C40.9657 35.594 40.1487 35.323 39.0393 34.9881C38.3942 34.7933 37.9269 34.4067 37.6375 33.8283C37.3722 33.2986 37.3119 32.7384 37.4566 32.1478C37.6074 31.539 37.9329 31.0854 38.4334 30.787C38.9941 30.4521 39.6784 30.3913 40.4864 30.6044C41.1195 30.7627 42.4942 31.1249 44.6105 31.6912C46.6303 32.2148 48.1196 32.5497 49.0782 32.6958C50.2298 32.8724 51.3302 32.8115 52.3793 32.5131C53.3802 32.227 54.3901 31.7094 55.4091 30.9605C56.2954 30.3091 56.9918 29.0731 57.4983 27.2526C57.9143 25.767 58.0921 24.5067 58.0319 23.4716C58.0017 22.9541 57.848 22.2691 57.5706 21.4167C57.2088 20.2964 56.7144 19.1791 56.0874 18.0649C54.3027 14.9111 51.7854 12.3569 48.5356 10.4025C46.6725 9.28216 44.4477 8.42063 41.8611 7.81786C39.3468 7.22727 36.6788 6.92588 33.8571 6.9137C27.7976 6.88935 22.4405 8.05531 17.7858 10.4116C12.6066 13.0358 8.50659 16.6615 5.48587 21.2888C2.00089 26.6285 0.342817 32.8084 0.51164 39.8286C0.60208 43.5974 1.24722 47.3236 2.44706 51.0072C3.665 54.7334 5.38639 58.2374 7.61123 61.5191C12.4106 68.5941 18.847 73.815 26.9203 77.182C33.9566 80.1167 42.0299 81.0178 51.1403 79.8853C56.1386 79.2643 60.727 78.1805 64.9053 76.634C67.0759 75.8303 68.8666 74.7131 70.2775 73.2823C72.5144 71.0112 73.651 68.11 73.6871 64.5786C73.7233 61.0777 72.4179 57.9695 69.771 55.254Z" fill="white"/>
</mask>
<g mask="url(#mask8_1808_2957)">
<path d="M15.5609 70.2228L15.579 70.7616C15.6092 71.1817 15.6815 71.544 15.7961 71.8484C16.1578 72.8226 16.8512 73.0357 17.8762 72.4877C18.9916 71.8911 20.1402 71.0874 21.322 70.0767C22.3048 69.2365 23.0373 68.5058 23.5197 67.8848C23.9116 67.3855 23.9086 67.0507 23.5107 66.8802C23.1187 66.7097 22.7359 66.8497 22.3621 67.3003C21.934 67.8178 21.0085 68.4145 19.5855 69.0903C17.9938 69.8453 16.6522 70.2228 15.5609 70.2228ZM24.2704 57.3455C24.5779 55.8659 24.7015 54.5751 24.6412 53.4731C24.5809 52.3833 24.3638 51.8353 23.99 51.8292C23.5679 51.817 23.0494 52.5172 22.4344 53.9298C21.1622 56.8584 19.3534 59.2268 17.008 61.0351C14.753 62.7643 12.2809 63.7719 9.59185 64.0581L9.75465 65.0171C9.91744 65.766 10.1315 66.4357 10.3968 67.0263C11.2409 68.8955 12.4317 69.5713 13.9692 69.0538C14.5842 68.8468 15.4223 68.5728 16.4834 68.2318C17.3456 67.9274 18.0661 67.5834 18.645 67.1998C20.086 66.2439 21.4456 64.4752 22.7238 61.8936C23.4051 60.5237 23.9207 59.0076 24.2704 57.3455ZM2.10337 52.5416L2.36565 53.7471C2.58874 54.6969 2.83292 55.5432 3.09822 56.286C3.94233 58.6728 4.81659 59.5921 5.72099 59.0442C6.8726 58.3501 8.06943 57.2572 9.31149 55.7655C10.6078 54.219 11.0992 53.2174 10.7857 52.7608C10.5385 52.4015 10.1767 52.1945 9.70038 52.1397C8.6573 52.024 7.86142 51.8901 7.31275 51.7379C6.09482 51.403 5.22658 51.2721 4.70806 51.3452C4.1413 51.4243 3.27307 51.8231 2.10337 52.5416ZM28.6658 39.1162C28.7442 38.5074 28.0176 38.55 26.4862 39.2441C25.0632 39.8895 23.4202 41.6461 21.5571 44.5138C20.5744 46.0298 19.4921 47.8777 18.3103 50.0574C17.5386 51.3299 16.0493 52.9556 13.8426 54.9344C11.268 57.2541 8.72965 59.0624 6.22746 60.3593L8.32568 62.9896C10.9123 62.3624 13.5019 60.6729 16.0945 57.9208C17.1316 56.8188 18.0239 55.6894 18.7716 54.5325C19.483 53.4427 19.9322 52.5355 20.1191 51.8109C20.4628 50.4836 21.5541 48.4287 23.3931 45.6462C25.1718 42.9551 26.444 41.3568 27.2097 40.8515C27.5714 40.614 27.897 40.3248 28.1864 39.9839C28.4758 39.6429 28.6356 39.3537 28.6658 39.1162ZM14.6927 38.1482C15.4705 37.5576 16.1186 37.1375 16.6372 36.8878C17.2763 36.5773 18.1958 36.2668 19.3956 35.9563C20.493 35.6701 20.8698 35.3322 20.5261 34.9425C20.4055 34.8025 20.2096 34.6777 19.9383 34.5681C19.6911 34.4707 19.4861 34.422 19.3233 34.422C19.0881 34.3976 18.862 34.3885 18.645 34.3946C18.235 34.4067 17.7677 34.4889 17.2431 34.6411C15.6634 35.1039 13.5592 36.1998 10.9304 37.929C8.03627 39.8286 5.72099 40.9276 3.98453 41.2259C2.59778 41.4634 1.29544 41.1925 0.0775037 40.4131L0.0413251 42.1575C0.0352957 43.5518 0.0744855 44.8152 0.158897 45.9476C0.436248 49.5764 1.13264 51.2386 2.24808 50.9342C4.4488 50.3314 6.95701 48.8945 9.77273 46.6235C10.5505 45.9963 11.461 44.5016 12.504 42.1392C13.0768 40.8424 13.4476 40.0265 13.6165 39.6916C14.0144 38.9001 14.3731 38.3856 14.6927 38.1482ZM7.85539 38.8971C8.69951 38.4465 9.61597 37.792 10.6048 36.9335C10.8701 36.696 11.7986 35.8345 13.3904 34.3489C15.1087 32.7415 16.8512 31.813 18.6178 31.5634C19.3956 31.4538 20.5955 31.5299 22.2174 31.7917C22.6515 31.8587 22.9439 31.8282 23.0946 31.7004C23.2333 31.5847 23.2273 31.4142 23.0765 31.1889C22.7088 30.6349 21.9641 30.2513 20.8427 30.0382C19.5705 29.8007 18.1505 29.9834 16.5829 30.5861C14.7922 31.2802 13.0286 32.4614 11.2921 34.1297C9.53156 35.8223 7.70164 36.9487 5.80239 37.5089C4.1202 38.002 2.23602 38.0934 0.149855 37.7828C-0.115438 37.8255 -0.413894 37.8803 -0.745509 37.9472C-1.40271 38.0873 -1.89109 38.2365 -2.21065 38.3948C-3.23564 38.894 -2.37646 39.372 0.366909 39.8286C3.29718 40.3157 5.79335 40.0052 7.85539 38.8971ZM15.995 29.3075C15.995 28.7839 15.772 28.4673 15.3258 28.3577C14.759 28.3334 14.3551 28.309 14.1139 28.2847C13.728 28.3334 13.4024 28.3425 13.1371 28.3121C12.6668 28.2573 11.9795 27.9559 11.0751 27.4079C9.92347 26.7138 8.70855 26.3455 7.43032 26.3028C5.97724 26.2602 4.05689 26.6042 1.66926 27.3348L1.37984 27.481L0.45735 28.9331C-0.236028 30.1021 -0.778672 31.1767 -1.17058 32.157C-2.42469 35.2987 -1.93631 36.9304 0.294558 37.0522C2.6641 37.1801 4.50909 37.0309 5.82952 36.6047C6.64952 36.3368 7.40922 35.8771 8.10863 35.2256C8.6573 34.7081 9.49237 34.0171 10.6138 33.1525C11.8076 32.227 12.6608 31.6273 13.1733 31.3533C13.5351 31.1585 14.141 30.8997 14.9912 30.577C15.6604 30.2421 15.995 29.819 15.995 29.3075ZM35.8196 11.6263C35.3976 10.4086 34.9333 8.60638 34.4268 6.21965L33.7938 3.00488L24.4603 7.02334C25.4431 8.64291 26.7695 10.1133 28.4397 11.4345C29.3501 12.1591 29.944 12.6492 30.2214 12.9049C30.8424 13.4894 31.3579 14.1287 31.7679 14.8228C32.1839 15.523 32.7326 16.1014 33.4139 16.5581C33.7877 16.8138 34.451 17.1578 35.4036 17.5901C36.314 18.0102 37.0225 18.3968 37.5289 18.7499C38.3248 19.3162 39.0182 20.0316 39.6091 20.8962C40.7125 22.5157 41.1225 22.7471 40.8391 21.5903L40.0884 19.371C39.5458 18.5673 38.9609 17.6418 38.3339 16.5946C37.0798 14.5001 36.2417 12.844 35.8196 11.6263Z" fill="#D55A20"/>
<path d="M24.4603 7.02335C25.4431 8.64291 26.7695 10.1133 28.4397 11.4345C29.3501 12.1591 29.944 12.6492 30.2214 12.9049C30.8424 13.4894 31.3579 14.1287 31.7679 14.8228C32.1839 15.523 32.7326 16.1014 33.4139 16.5581C33.7877 16.8138 34.451 17.1578 35.4036 17.5901C36.314 18.0102 37.0225 18.3968 37.529 18.7499C38.3248 19.3162 39.0182 20.0316 39.6091 20.8962C40.7125 22.5157 41.1225 22.7471 40.8391 21.5903L40.0884 19.371C39.5458 18.5673 38.9609 17.6418 38.3339 16.5946C37.0798 14.5001 36.2417 12.844 35.8196 11.6263C35.3976 10.4086 34.9333 8.60638 34.4268 6.21965L33.7938 3.00488L24.4603 7.02335ZM1.66926 27.3348C4.05689 26.6042 5.97724 26.2602 7.43032 26.3028C8.70855 26.3455 9.92347 26.7138 11.0751 27.4079C11.9795 27.9559 12.6668 28.2573 13.1371 28.3121C13.4024 28.3425 13.728 28.3334 14.1139 28.2847C14.3551 28.309 14.759 28.3334 15.3258 28.3577C15.772 28.4673 15.995 28.7839 15.995 29.3075C15.995 29.819 15.6604 30.2421 14.9912 30.577C14.141 30.8997 13.5351 31.1585 13.1733 31.3533C12.6608 31.6273 11.8076 32.227 10.6138 33.1525C9.49237 34.0171 8.6573 34.7081 8.10863 35.2256C7.40922 35.8771 6.64952 36.3368 5.82952 36.6047C4.50909 37.0309 2.6641 37.1801 0.294558 37.0522C-1.93631 36.9304 -2.42469 35.2987 -1.17058 32.157C-0.778672 31.1767 -0.236028 30.1021 0.45735 28.9331L1.37984 27.481L1.66926 27.3348ZM0.149855 37.7828C2.23602 38.0934 4.1202 38.002 5.80239 37.5089C7.70164 36.9487 9.53156 35.8223 11.2921 34.1297C13.0286 32.4614 14.7922 31.2802 16.5829 30.5861C18.1505 29.9834 19.5705 29.8007 20.8427 30.0382C21.9641 30.2513 22.7088 30.6349 23.0765 31.1889C23.2273 31.4142 23.2333 31.5847 23.0946 31.7004C22.9439 31.8282 22.6515 31.8587 22.2174 31.7917C20.5955 31.5299 19.3956 31.4538 18.6178 31.5634C16.8512 31.813 15.1087 32.7415 13.3904 34.3489C11.7986 35.8345 10.8701 36.696 10.6048 36.9335C9.61597 37.792 8.69951 38.4465 7.85539 38.8971C5.79335 40.0052 3.29718 40.3157 0.366909 39.8286C-2.37646 39.372 -3.23564 38.894 -2.21065 38.3948C-1.89109 38.2364 -1.40271 38.0873 -0.745509 37.9472C-0.413894 37.8803 -0.115437 37.8255 0.149855 37.7828ZM0.0775036 40.4131C1.29544 41.1925 2.59778 41.4634 3.98453 41.2259C5.72099 40.9276 8.03628 39.8286 10.9304 37.929C13.5592 36.1998 15.6634 35.1039 17.2431 34.6411C17.7677 34.4889 18.235 34.4067 18.645 34.3946C18.862 34.3885 19.0881 34.3976 19.3233 34.422C19.4861 34.422 19.6911 34.4707 19.9383 34.5681C20.2096 34.6777 20.4055 34.8025 20.5261 34.9425C20.8698 35.3322 20.493 35.6701 19.3956 35.9563C18.1958 36.2668 17.2763 36.5773 16.6372 36.8878C16.1186 37.1375 15.4705 37.5576 14.6927 38.1482C14.3731 38.3856 14.0144 38.9001 13.6165 39.6916C13.4476 40.0265 13.0768 40.8424 12.504 42.1392C11.461 44.5016 10.5505 45.9963 9.77273 46.6235C6.95701 48.8945 4.4488 50.3314 2.24808 50.9342C1.13264 51.2386 0.436248 49.5764 0.158897 45.9476C0.0744856 44.8152 0.0352958 43.5518 0.0413251 42.1575L0.0775036 40.4131ZM6.22746 60.3593C8.72965 59.0624 11.268 57.2541 13.8426 54.9344C16.0493 52.9556 17.5386 51.3299 18.3103 50.0574C19.4921 47.8777 20.5744 46.0298 21.5571 44.5138C23.4202 41.6461 25.0632 39.8895 26.4862 39.2441C28.0176 38.55 28.7442 38.5074 28.6658 39.1162C28.6356 39.3537 28.4758 39.6429 28.1864 39.9839C27.897 40.3248 27.5714 40.614 27.2097 40.8515C26.444 41.3568 25.1718 42.9551 23.3931 45.6462C21.5541 48.4287 20.4628 50.4836 20.1191 51.8109C19.9322 52.5355 19.483 53.4427 18.7716 54.5325C18.0239 55.6894 17.1316 56.8188 16.0945 57.9208C13.5019 60.6729 10.9123 62.3624 8.32568 62.9896L6.22746 60.3593ZM2.10337 52.5416C3.27307 51.8231 4.1413 51.4243 4.70806 51.3452C5.22658 51.2721 6.09482 51.403 7.31275 51.7379C7.86142 51.8901 8.6573 52.024 9.70038 52.1397C10.1767 52.1945 10.5385 52.4015 10.7857 52.7608C11.0992 53.2174 10.6078 54.219 9.31149 55.7655C8.06943 57.2572 6.8726 58.3501 5.72099 59.0442C4.81659 59.5921 3.94233 58.6728 3.09822 56.286C2.83292 55.5432 2.58874 54.6969 2.36565 53.7471L2.10337 52.5416ZM9.59185 64.0581C12.2809 63.7719 14.753 62.7643 17.008 61.0351C19.3534 59.2268 21.1622 56.8584 22.4344 53.9298C23.0494 52.5172 23.5679 51.817 23.99 51.8292C24.3638 51.8353 24.5809 52.3833 24.6412 53.4731C24.7015 54.5751 24.5779 55.8659 24.2704 57.3455C23.9207 59.0076 23.4051 60.5237 22.7238 61.8936C21.4456 64.4752 20.086 66.2439 18.645 67.1998C18.0661 67.5834 17.3456 67.9274 16.4834 68.2318C15.4223 68.5728 14.5842 68.8468 13.9692 69.0538C12.4317 69.5713 11.2409 68.8955 10.3968 67.0263C10.1315 66.4357 9.91744 65.766 9.75465 65.0171L9.59185 64.0581ZM15.5609 70.2228C16.6522 70.2228 17.9938 69.8453 19.5855 69.0903C21.0085 68.4145 21.934 67.8178 22.3621 67.3003C22.7359 66.8497 23.1187 66.7097 23.5107 66.8802C23.9086 67.0506 23.9116 67.3855 23.5197 67.8848C23.0374 68.5058 22.3048 69.2364 21.322 70.0767C20.1402 71.0874 18.9916 71.8911 17.8762 72.4877C16.8512 73.0357 16.1578 72.8226 15.7961 71.8484C15.6815 71.544 15.6092 71.1818 15.579 70.7616L15.5609 70.2228Z" stroke="#D55A20" stroke-linecap="round" stroke-linejoin="round"/>
</g>
<mask id="mask9_1808_2957" style="mask-type:luminance" maskUnits="userSpaceOnUse" x="0" y="6" width="74" height="75">
<path d="M69.771 55.254C68.8305 54.2859 67.7844 53.4426 66.6328 52.7242C65.7223 52.1579 64.9656 51.7865 64.3627 51.61C63.6392 51.403 61.9751 50.8824 59.3704 50.0482C56.416 49.1045 54.7036 48.5596 54.2333 48.4135C53.4857 48.1821 53.0606 48.0451 52.9581 48.0025C52.5903 47.8503 52.2617 47.6311 51.9723 47.3449C51.4176 46.7787 50.4831 45.2778 49.1687 42.8424C47.9628 40.6079 46.6514 38.9061 45.2345 37.7371C44.4627 37.1039 43.6036 36.6138 42.6569 36.2667C42.1746 36.0719 41.7857 35.9167 41.4903 35.801C40.9657 35.594 40.1487 35.323 39.0393 34.9881C38.3942 34.7933 37.9269 34.4067 37.6375 33.8283C37.3722 33.2986 37.3119 32.7384 37.4566 32.1478C37.6074 31.539 37.9329 31.0854 38.4334 30.787C38.9941 30.4521 39.6784 30.3913 40.4864 30.6044C41.1195 30.7627 42.4942 31.1249 44.6105 31.6912C46.6303 32.2148 48.1196 32.5497 49.0782 32.6958C50.2298 32.8724 51.3302 32.8115 52.3793 32.5131C53.3802 32.227 54.3901 31.7094 55.4091 30.9605C56.2954 30.3091 56.9918 29.0731 57.4983 27.2526C57.9143 25.767 58.0921 24.5067 58.0319 23.4716C58.0017 22.9541 57.848 22.2691 57.5706 21.4167C57.2088 20.2964 56.7144 19.1791 56.0874 18.0649C54.3027 14.9111 51.7854 12.3569 48.5356 10.4025C46.6725 9.28216 44.4477 8.42063 41.8611 7.81786C39.3468 7.22727 36.6788 6.92588 33.8571 6.9137C27.7976 6.88935 22.4405 8.05531 17.7858 10.4116C12.6066 13.0358 8.50659 16.6615 5.48587 21.2888C2.00089 26.6285 0.342817 32.8084 0.51164 39.8286C0.60208 43.5974 1.24722 47.3236 2.44706 51.0072C3.665 54.7334 5.38639 58.2374 7.61123 61.5191C12.4106 68.5941 18.847 73.815 26.9203 77.182C33.9566 80.1167 42.0299 81.0178 51.1403 79.8853C56.1386 79.2643 60.727 78.1805 64.9053 76.634C67.0759 75.8303 68.8666 74.7131 70.2775 73.2823C72.5144 71.0112 73.651 68.11 73.6871 64.5786C73.7233 61.0777 72.4179 57.9695 69.771 55.254Z" fill="white"/>
</mask>
<g mask="url(#mask9_1808_2957)">
<path d="M40.2693 6.3383L37.8455 6.65795C37.4536 7.5347 37.5109 9.00205 38.0174 11.06C38.5962 13.4163 39.576 15.3585 40.9567 16.8868C42.2229 18.2871 42.9223 18.5794 43.0549 17.7635C43.0911 17.52 43.0851 17.0968 43.0368 16.494C42.9765 15.8852 42.9584 15.5047 42.9826 15.3524C43.0127 15.1454 43.1996 14.36 43.5433 12.9962C43.8448 11.8028 43.9955 10.9808 43.9955 10.5303C43.9955 9.38563 43.7061 8.19227 43.1273 6.9502C42.8861 6.43267 41.9334 6.2287 40.2693 6.3383ZM48.9788 10.028L46.3108 9.06903C45.6536 10.4755 45.1019 11.9276 44.6557 13.4254C44.1312 15.1728 43.887 16.5702 43.9231 17.6174C43.9714 19.0299 44.3331 20.1442 45.0084 20.96C45.7983 21.9159 46.6665 21.7515 47.6131 20.4668C48.5899 19.1395 49.5063 17.5139 50.3625 15.5899C51.1403 13.8364 51.5503 12.6126 51.5925 11.9185C51.6226 11.401 50.7514 10.7708 48.9788 10.028ZM57.3174 19.3252L55.391 14.7314C54.7037 15.7421 53.9409 17.1425 53.1029 18.9325C52.2346 20.7652 51.5865 22.0073 51.1584 22.6587C50.3866 23.9008 49.85 24.7319 49.5485 25.152C49.0843 25.7974 48.5115 26.3545 47.8302 26.8233C46.7449 27.5722 46.1389 28.041 46.0123 28.2298C45.747 28.6255 46.2083 28.8386 47.396 28.8691C48.5477 28.8995 49.6721 28.5707 50.7695 27.8827C51.1071 27.6696 51.8879 27.0486 53.1119 26.0196C53.6847 25.5386 54.1399 25.289 54.4776 25.2707C54.7127 25.2586 55.1498 25.3377 55.7889 25.5082C56.416 25.6178 56.9104 25.6178 57.2722 25.5082C57.652 25.3925 58.0741 25.1003 58.5383 24.6314C58.9302 24.2357 58.5233 22.4669 57.3174 19.3252ZM16.4292 18.7681C15.1992 17.6783 13.6316 15.8578 11.7263 13.3067C9.74865 15.389 7.92175 17.4317 6.24558 19.4348C2.89325 23.4411 1.97076 25.2464 3.4781 24.8506C5.08192 24.4305 6.62544 24.3453 8.10866 24.5949C8.72366 24.6984 10.2672 25.1246 12.7392 25.8735C14.3551 26.3606 15.7358 26.6011 16.8814 26.595C17.2854 26.595 18.7023 26.4519 21.1321 26.1658C22.549 26.0014 24.0111 26.1536 25.5185 26.6224C25.8742 26.732 26.3083 26.869 26.8208 27.0334C27.1826 27.1186 27.4328 27.0973 27.5715 26.9694C27.7524 26.8111 27.8127 26.5554 27.7524 26.2023C27.6921 25.8126 27.4901 25.4016 27.1464 24.9694C26.242 23.8308 24.6713 22.8901 22.4344 22.1473C20.0951 21.374 18.0933 20.2477 16.4292 18.7681ZM24.9216 11.2792C23.7639 10.0128 23.0555 8.93508 22.7962 8.04615C22.5852 7.31552 21.4487 7.46164 19.3866 8.48452C18.7415 8.80722 18.0421 9.19689 17.2884 9.65353L16.3568 10.238C17.5205 12.5334 18.7294 14.2321 19.9835 15.3342C21.8707 16.9842 24.4 17.9888 27.5715 18.348C29.2115 18.5368 30.3239 18.4454 30.9087 18.074C31.3911 17.7635 31.4845 17.2795 31.1891 16.6219C30.9419 16.0739 30.4746 15.4955 29.7873 14.8867C29.1542 14.3204 28.5844 13.9399 28.0779 13.7451C27.1494 13.3858 26.0973 12.5639 24.9216 11.2792Z" fill="#D55A20"/>
<path d="M16.3568 10.238C17.5205 12.5334 18.7294 14.2321 19.9835 15.3342C21.8707 16.9842 24.4 17.9888 27.5715 18.348C29.2115 18.5368 30.3239 18.4454 30.9087 18.074C31.3911 17.7635 31.4845 17.2795 31.1891 16.6219C30.9419 16.0739 30.4746 15.4955 29.7873 14.8867C29.1542 14.3204 28.5844 13.9399 28.0779 13.7451C27.1494 13.3858 26.0973 12.5639 24.9216 11.2792C23.7639 10.0128 23.0555 8.93508 22.7962 8.04615C22.5852 7.31552 21.4487 7.46164 19.3866 8.48452C18.7415 8.80722 18.0421 9.19689 17.2884 9.65353L16.3568 10.238ZM11.7263 13.3067C13.6316 15.8578 15.1992 17.6783 16.4292 18.7681C18.0933 20.2477 20.0951 21.374 22.4344 22.1473C24.6713 22.8901 26.242 23.8308 27.1464 24.9694C27.4901 25.4016 27.6921 25.8126 27.7524 26.2023C27.8127 26.5554 27.7524 26.8111 27.5715 26.9695C27.4328 27.0973 27.1826 27.1186 26.8208 27.0334C26.3083 26.869 25.8742 26.732 25.5185 26.6224C24.0111 26.1536 22.549 26.0014 21.1321 26.1658C18.7023 26.4519 17.2854 26.595 16.8814 26.595C15.7358 26.6011 14.3551 26.3606 12.7392 25.8735C10.2672 25.1246 8.72366 24.6984 8.10866 24.5949C6.62544 24.3453 5.08192 24.4305 3.4781 24.8506C1.97076 25.2464 2.89325 23.4411 6.24558 19.4348C7.92175 17.4317 9.74865 15.389 11.7263 13.3067ZM55.391 14.7314C54.7037 15.7421 53.9409 17.1425 53.1029 18.9325C52.2346 20.7652 51.5865 22.0073 51.1584 22.6587C50.3866 23.9008 49.85 24.7319 49.5485 25.152C49.0843 25.7974 48.5115 26.3545 47.8302 26.8233C46.7449 27.5722 46.1389 28.041 46.0123 28.2298C45.747 28.6255 46.2083 28.8386 47.3961 28.8691C48.5477 28.8995 49.6721 28.5707 50.7695 27.8827C51.1071 27.6696 51.8879 27.0486 53.1119 26.0196C53.6847 25.5386 54.1399 25.289 54.4776 25.2707C54.7127 25.2586 55.1498 25.3377 55.7889 25.5082C56.416 25.6178 56.9104 25.6178 57.2722 25.5082C57.652 25.3925 58.0741 25.1003 58.5383 24.6314C58.9302 24.2357 58.5233 22.4669 57.3174 19.3252L55.391 14.7314ZM46.3108 9.06903C45.6536 10.4755 45.1019 11.9276 44.6557 13.4254C44.1312 15.1728 43.887 16.5702 43.9231 17.6174C43.9714 19.0299 44.3331 20.1442 45.0084 20.96C45.7983 21.9159 46.6665 21.7515 47.6131 20.4668C48.5899 19.1395 49.5063 17.5139 50.3625 15.5899C51.1403 13.8364 51.5503 12.6126 51.5925 11.9185C51.6226 11.401 50.7514 10.7708 48.9788 10.028L46.3108 9.06903ZM37.8455 6.65795C37.4536 7.5347 37.5109 9.00205 38.0174 11.06C38.5962 13.4163 39.576 15.3585 40.9567 16.8868C42.2229 18.2871 42.9223 18.5794 43.0549 17.7635C43.0911 17.52 43.0851 17.0968 43.0368 16.494C42.9765 15.8852 42.9584 15.5047 42.9826 15.3524C43.0127 15.1454 43.1996 14.36 43.5433 12.9962C43.8448 11.8028 43.9955 10.9808 43.9955 10.5303C43.9955 9.38563 43.7061 8.19227 43.1273 6.9502C42.8861 6.43267 41.9334 6.2287 40.2693 6.3383L37.8455 6.65795Z" stroke="#D55A20" stroke-linecap="round" stroke-linejoin="round"/>
</g>
<mask id="mask10_1808_2957" style="mask-type:luminance" maskUnits="userSpaceOnUse" x="0" y="6" width="74" height="75">
<path d="M69.771 55.254C68.8305 54.2859 67.7844 53.4426 66.6328 52.7242C65.7223 52.1579 64.9656 51.7865 64.3627 51.61C63.6392 51.403 61.9751 50.8824 59.3704 50.0482C56.416 49.1045 54.7036 48.5596 54.2333 48.4135C53.4857 48.1821 53.0606 48.0451 52.9581 48.0025C52.5903 47.8503 52.2617 47.6311 51.9723 47.3449C51.4176 46.7787 50.4831 45.2778 49.1687 42.8424C47.9628 40.6079 46.6514 38.9061 45.2345 37.7371C44.4627 37.1039 43.6036 36.6138 42.6569 36.2667C42.1746 36.0719 41.7857 35.9167 41.4903 35.801C40.9657 35.594 40.1487 35.323 39.0393 34.9881C38.3942 34.7933 37.9269 34.4067 37.6375 33.8283C37.3722 33.2986 37.3119 32.7384 37.4566 32.1478C37.6074 31.539 37.9329 31.0854 38.4334 30.787C38.9941 30.4521 39.6784 30.3913 40.4864 30.6044C41.1195 30.7627 42.4942 31.1249 44.6105 31.6912C46.6303 32.2148 48.1196 32.5497 49.0782 32.6958C50.2298 32.8724 51.3302 32.8115 52.3793 32.5131C53.3802 32.227 54.3901 31.7094 55.4091 30.9605C56.2954 30.3091 56.9918 29.0731 57.4983 27.2526C57.9143 25.767 58.0921 24.5067 58.0319 23.4716C58.0017 22.9541 57.848 22.2691 57.5706 21.4167C57.2088 20.2964 56.7144 19.1791 56.0874 18.0649C54.3027 14.9111 51.7854 12.3569 48.5356 10.4025C46.6725 9.28216 44.4477 8.42063 41.8611 7.81786C39.3468 7.22727 36.6788 6.92588 33.8571 6.9137C27.7976 6.88935 22.4405 8.05531 17.7858 10.4116C12.6066 13.0358 8.50659 16.6615 5.48587 21.2888C2.00089 26.6285 0.342817 32.8084 0.51164 39.8286C0.60208 43.5974 1.24722 47.3236 2.44706 51.0072C3.665 54.7334 5.38639 58.2374 7.61123 61.5191C12.4106 68.5941 18.847 73.815 26.9203 77.182C33.9566 80.1167 42.0299 81.0178 51.1403 79.8853C56.1386 79.2643 60.727 78.1805 64.9053 76.634C67.0759 75.8303 68.8666 74.7131 70.2775 73.2823C72.5144 71.0112 73.651 68.11 73.6871 64.5786C73.7233 61.0777 72.4179 57.9695 69.771 55.254Z" fill="white"/>
</mask>
<g mask="url(#mask10_1808_2957)">
<path d="M35.5122 5.16009C35.1323 4.75824 34.6771 4.52992 34.1465 4.47512C33.6159 4.42032 33.1909 4.55732 32.8713 4.8861C32.5156 5.26359 32.389 5.80547 32.4915 6.51175C32.7085 8.00345 33.022 9.3399 33.432 10.5211C33.836 11.6779 34.4359 12.987 35.2318 14.4482C35.7081 15.3189 36.908 17.0998 38.8313 19.7909C40.4412 22.0437 41.2461 23.3406 41.2461 23.6815C41.2461 23.8398 41.2762 24.1869 41.3365 24.7227C41.3787 25.2646 41.3667 25.7304 41.3004 26.12C41.0954 27.3195 40.3538 28.041 39.0755 28.2845C38.3942 28.4185 37.7973 28.321 37.2848 27.9923C37.0376 27.8279 36.4648 27.2982 35.5664 26.4031C33.3295 24.1747 30.4234 22.1959 26.848 20.4668C22.2958 18.2688 19.3173 16.5336 17.9124 15.261C17.2854 14.6948 16.806 14.089 16.4744 13.4436C16.2996 13.1087 16.0433 12.4542 15.7057 11.48C15.4645 10.7798 15.1178 10.2471 14.6656 9.88178C14.2436 9.54082 13.8577 9.43427 13.508 9.56213C13.1402 9.69608 12.9412 10.0553 12.9111 10.6398C12.8749 11.3156 13.0829 12.1802 13.5351 13.2335C14.3672 15.1636 16.3991 17.0633 19.6308 18.9325C21.0356 19.7483 23.1761 20.7712 26.0521 22.0011C28.096 22.8779 29.8717 23.986 31.379 25.3255C33.628 27.3286 34.4329 29.3013 33.7938 31.2436C33.4381 32.3151 33.1095 33.0732 32.808 33.5176C32.5487 33.9073 32.2352 34.1478 31.8674 34.2391C31.8373 34.2452 31.4273 34.2848 30.6374 34.3579C30.0104 34.4127 29.3984 34.5679 28.8015 34.8236C27.4208 35.4081 26.7334 35.9561 26.7394 36.4676C26.7394 36.6685 26.863 36.8116 27.1102 36.8968C27.3574 36.982 27.6559 36.9851 28.0056 36.9059C28.6568 36.7537 29.3743 36.7233 30.1581 36.8146C30.8093 36.8938 31.4544 37.046 32.0935 37.2713C32.6784 37.4783 33.1547 37.9349 33.5225 38.6412C33.8963 39.3657 33.9264 39.9563 33.6129 40.413C33.1185 41.1375 32.8954 41.8072 32.9437 42.4222C33.01 43.2563 33.6913 43.5608 34.9876 43.3355C35.7533 43.2015 36.4497 43.168 37.0768 43.235C37.7581 43.302 38.7198 43.5181 39.9618 43.8835C41.6561 44.3766 46.5218 45.9353 54.559 48.5595C52.8104 46.1423 51.0016 43.6034 49.1325 40.9427C45.3943 35.6152 43.2237 32.3456 42.6208 31.134C42.0118 29.9102 42.4459 28.7077 43.9231 27.5265C44.707 26.8994 45.7922 26.2266 47.179 25.5081C47.9568 24.9662 48.3819 24.4883 48.4542 24.0743C48.5326 23.6054 47.8181 23.6937 46.3108 24.3391C44.8758 24.9541 43.8779 24.7805 43.3172 23.8185C43.1363 23.5019 42.9765 23.0544 42.8379 22.476C42.669 21.7332 42.5726 21.3314 42.5484 21.2705C42.3736 20.7651 41.8822 19.9462 41.0743 18.8137C40.0553 17.4316 39.2926 16.3752 38.7861 15.6446C38.0385 14.5669 37.4235 13.197 36.9411 11.5348C36.4708 9.92135 36.2176 8.36877 36.1814 6.87706C36.1633 6.18906 35.9403 5.61673 35.5122 5.16009Z" fill="#D55A20"/>
<path d="M54.559 48.5595C46.5218 45.9353 41.6561 44.3766 39.9618 43.8835C38.7198 43.5181 37.7581 43.302 37.0768 43.235C36.4497 43.168 35.7533 43.2015 34.9876 43.3355C33.6913 43.5608 33.01 43.2563 32.9437 42.4222C32.8954 41.8072 33.1185 41.1375 33.6129 40.413C33.9264 39.9563 33.8963 39.3657 33.5225 38.6412C33.1547 37.9349 32.6784 37.4783 32.0935 37.2713C31.4544 37.046 30.8093 36.8938 30.1581 36.8146C29.3743 36.7233 28.6568 36.7537 28.0056 36.9059C27.6559 36.9851 27.3574 36.982 27.1102 36.8968C26.863 36.8116 26.7394 36.6685 26.7394 36.4676C26.7334 35.9561 27.4208 35.4081 28.8015 34.8236C29.3984 34.5679 30.0104 34.4127 30.6374 34.3579C31.4273 34.2848 31.8373 34.2452 31.8674 34.2391C32.2352 34.1478 32.5487 33.9073 32.808 33.5176C33.1095 33.0732 33.4381 32.3151 33.7938 31.2436C34.4329 29.3013 33.628 27.3286 31.379 25.3255C29.8717 23.986 28.096 22.8779 26.0521 22.0011C23.1761 20.7712 21.0356 19.7483 19.6308 18.9325C16.3991 17.0633 14.3672 15.1636 13.5351 13.2335C13.0829 12.1802 12.8749 11.3156 12.9111 10.6398C12.9412 10.0553 13.1402 9.69608 13.508 9.56213C13.8577 9.43427 14.2436 9.54082 14.6656 9.88178C15.1178 10.2471 15.4645 10.7798 15.7057 11.48C16.0433 12.4542 16.2996 13.1087 16.4744 13.4436C16.806 14.089 17.2854 14.6948 17.9124 15.261C19.3173 16.5336 22.2958 18.2688 26.848 20.4668C30.4234 22.1959 33.3295 24.1747 35.5664 26.4031C36.4648 27.2982 37.0376 27.8279 37.2848 27.9923C37.7973 28.321 38.3942 28.4185 39.0755 28.2845C40.3538 28.041 41.0954 27.3195 41.3004 26.12C41.3667 25.7304 41.3787 25.2646 41.3365 24.7227C41.2762 24.1869 41.2461 23.8398 41.2461 23.6815C41.2461 23.3406 40.4412 22.0437 38.8313 19.7909C36.908 17.0998 35.7081 15.3189 35.2318 14.4482C34.4359 12.987 33.836 11.6779 33.432 10.5211C33.022 9.3399 32.7085 8.00345 32.4915 6.51175C32.389 5.80547 32.5156 5.26359 32.8713 4.8861C33.1909 4.55732 33.6159 4.42032 34.1465 4.47512C34.6771 4.52992 35.1323 4.75824 35.5122 5.16009C35.9403 5.61673 36.1633 6.18906 36.1814 6.87706C36.2176 8.36877 36.4708 9.92135 36.9411 11.5348C37.4235 13.197 38.0385 14.5669 38.7861 15.6446C39.2926 16.3752 40.0553 17.4316 41.0743 18.8137C41.8822 19.9462 42.3736 20.7651 42.5484 21.2705C42.5726 21.3314 42.669 21.7332 42.8379 22.476C42.9765 23.0544 43.1363 23.5019 43.3172 23.8185C43.8779 24.7805 44.8758 24.9541 46.3108 24.3391C47.8181 23.6937 48.5326 23.6054 48.4542 24.0743C48.3819 24.4883 47.9568 24.9662 47.179 25.5081C45.7922 26.2266 44.707 26.8994 43.9231 27.5265C42.4459 28.7077 42.0118 29.9102 42.6208 31.134C43.2237 32.3456 45.3943 35.6152 49.1325 40.9427C51.0016 43.6034 52.8104 46.1423 54.559 48.5595Z" stroke="#D55A20" stroke-linecap="round" stroke-linejoin="round"/>
</g>
<path d="M61.5955 46.3667C61.9271 45.3378 61.7613 44.3088 61.098 43.2798C60.4348 42.2569 59.4671 41.5355 58.1949 41.1153C56.9227 40.7013 55.7198 40.7104 54.5863 41.1427C53.4588 41.5811 52.7293 42.3148 52.3977 43.3438C52.066 44.3727 52.2288 45.3987 52.886 46.4215C53.5553 47.4505 54.526 48.172 55.7982 48.586C57.0704 49.0061 58.2703 48.997 59.3978 48.5586C60.5313 48.1263 61.2638 47.3957 61.5955 46.3667Z" fill="#FFFFE9"/>
<mask id="mask11_1808_2957" style="mask-type:luminance" maskUnits="userSpaceOnUse" x="52" y="40" width="10" height="9">
<path d="M61.5955 46.3667C61.9271 45.3378 61.7613 44.3088 61.098 43.2798C60.4348 42.2569 59.4671 41.5355 58.1949 41.1153C56.9227 40.7013 55.7198 40.7104 54.5863 41.1427C53.4588 41.5811 52.7293 42.3148 52.3977 43.3438C52.066 44.3727 52.2288 45.3987 52.886 46.4215C53.5553 47.4505 54.526 48.172 55.7982 48.586C57.0704 49.0061 58.2703 48.997 59.3978 48.5586C60.5313 48.1263 61.2638 47.3957 61.5955 46.3667Z" fill="white"/>
</mask>
<g mask="url(#mask11_1808_2957)">
<path d="M59.9495 44.8872C59.9495 44.0835 59.6691 43.3985 59.1084 42.8323C58.5476 42.266 57.8693 41.9829 57.0735 41.9829C56.7177 41.9829 56.3831 42.0407 56.0696 42.1564C55.6897 42.2965 55.346 42.5217 55.0385 42.8323C54.4778 43.3985 54.1974 44.0835 54.1974 44.8872C54.1974 45.6909 54.4778 46.3758 55.0385 46.9421C55.3943 47.3013 55.8013 47.5479 56.2595 47.6818C56.3077 47.694 56.362 47.7092 56.4223 47.7275C56.6273 47.7701 56.8443 47.7914 57.0735 47.7914C57.8573 47.7914 58.5296 47.5144 59.0903 46.9603C59.0963 46.9542 59.1023 46.9481 59.1084 46.9421C59.6691 46.3758 59.9495 45.6909 59.9495 44.8872Z" fill="#2A0601"/>
<path d="M56.4223 47.7276L56.7298 46.6956" stroke="#2A0601" stroke-width="0.1" stroke-linecap="round" stroke-linejoin="round"/>
<path d="M55.7259 49.399L56.2595 47.682L56.2866 47.5815" stroke="#2A0601" stroke-width="11" stroke-linecap="round" stroke-linejoin="round"/>
</g>
<path d="M58.5112 44.3776C58.7464 44.8403 58.9122 45.1265 59.0086 45.236C59.2016 44.7916 59.1654 44.3258 58.9001 43.8387C58.6408 43.376 58.2791 43.0655 57.8148 42.9072C57.6098 42.828 57.4259 42.8067 57.2631 42.8432C57.1184 42.8798 57.025 42.9559 56.9828 43.0716C56.8803 43.3516 57.1033 43.5891 57.652 43.7839C58.0982 43.9422 58.3846 44.1401 58.5112 44.3776Z" fill="#E6F0FF"/>
<path d="M57.8148 42.9072C58.2791 43.0655 58.6408 43.376 58.9001 43.8387C59.1654 44.3258 59.2016 44.7916 59.0086 45.236C58.9122 45.1265 58.7464 44.8403 58.5112 44.3776C58.3846 44.1401 58.0982 43.9422 57.652 43.7839C57.1033 43.5891 56.8803 43.3516 56.9828 43.0716C57.025 42.9559 57.1184 42.8798 57.2631 42.8432C57.4259 42.8067 57.6098 42.828 57.8148 42.9072Z" stroke="#E6F0FF" stroke-width="2" stroke-linecap="round" stroke-linejoin="round"/>
<path d="M54.6586 44.5505C54.5802 45.1046 54.7129 45.6313 55.0566 46.1305C55.4183 46.6541 55.9037 46.9738 56.5126 47.0895C56.7659 47.1382 56.8503 47.1351 56.7659 47.0803C56.5126 46.9525 56.2835 46.8216 56.0785 46.6876C55.144 46.0727 54.6707 45.3603 54.6586 44.5505Z" stroke="#1A345B" stroke-width="2" stroke-linecap="round" stroke-linejoin="round"/>
</svg>
