<svg width="91" height="90" viewBox="0 0 91 90" fill="none" xmlns="http://www.w3.org/2000/svg">
<path d="M26.6028 9.20799C25.3012 8.12993 23.9358 7.56639 22.5064 7.51738C21.7097 7.49288 20.849 7.64908 19.9245 7.98598C18.5682 8.48213 17.3609 8.84353 16.3026 9.07017C14.1008 9.5357 12.2031 9.57245 10.6096 9.18042C8.97345 8.77615 7.45897 9.20493 6.06614 10.4668C5.1903 11.2508 4.37528 12.3626 3.62108 13.802C2.52019 15.8969 1.97279 18.0377 1.97887 20.2245C1.98495 24.1019 3.79746 27.4678 7.4164 30.3222C9.03427 31.6269 10.8194 32.4385 12.7718 32.757C13.8727 32.9408 15.1317 32.9531 16.5489 32.7938C15.892 33.5595 15.3355 34.7754 14.8793 36.4415C14.3684 38.3281 14.1525 40.276 14.2316 42.2851C14.3289 44.674 14.8489 46.8608 15.7917 48.8454C16.694 50.7424 17.95 52.3778 19.5596 53.7518C20.6427 54.5229 21.5672 55.1814 22.3331 55.7272C26.3083 58.2326 30.7301 59.96 35.5985 60.9093C40.1845 61.8098 45.3605 62.0425 51.1264 61.6076C46.3823 61.8098 41.7507 61.3289 37.2316 60.1651C32.8767 59.0503 29.0631 57.4209 25.7909 55.277C22.4821 53.1086 20.1009 50.6554 18.6473 47.9174C17.1145 45.0201 16.78 42.0768 17.6437 39.0876C18.9757 34.4752 22.8349 30.4631 29.2212 27.0512C32.4083 25.3423 35.4647 24.0957 38.3902 23.3117L39.0927 23.1831C37.8215 22.8645 35.933 22.9626 33.4271 23.4771C31.2618 23.9242 29.6196 24.4296 28.5005 24.9931C29.2121 24.0314 29.7048 22.7972 29.9785 21.2903C30.24 19.857 30.2765 18.3471 30.088 16.7606C29.9055 15.168 29.5223 13.7163 28.9384 12.4054C28.312 11.015 27.5334 9.94917 26.6028 9.20799ZM14.8155 18.8555C15.1135 18.9045 15.2625 19.0944 15.2625 19.4251C15.2625 19.8662 15.3598 20.3501 15.5544 20.8769C15.8221 21.6119 16.2265 22.1999 16.7678 22.641L16.8591 23.7435L17.5068 23.5414C18.0117 23.3086 18.4344 22.9625 18.775 22.5031C18.9879 22.8094 19.0943 23.0697 19.0943 23.2841L19.7056 23.1831C20.1982 23.0116 20.6635 22.6471 21.1014 22.0897C21.2535 22.2122 21.3934 22.35 21.5211 22.5031L21.9682 22.3286C22.3027 22.1754 22.5642 22.0039 22.7528 21.814C22.5034 22.1877 22.3514 22.4021 22.2966 22.4572C22.1263 22.6287 21.8374 22.7972 21.4299 22.9625L21.1471 22.595C21.0193 22.7482 20.8308 22.9135 20.5814 23.0912C20.0888 23.4403 19.5474 23.6731 18.9575 23.7895C18.8601 23.6731 18.778 23.5383 18.7111 23.3852L18.6381 23.1922C18.5165 23.3331 18.3401 23.4801 18.109 23.6333C17.6467 23.9396 17.1389 24.1294 16.5854 24.2029L16.3208 23.2382C15.8646 23.8079 15.5636 24.2183 15.4176 24.4694C15.1196 24.9839 14.9462 25.5383 14.8976 26.1324C14.8246 25.4219 14.4536 24.6195 13.7845 23.7252L13.2006 23.0544L13.1641 24.2489C12.5559 24.1754 12.0176 23.9855 11.5493 23.6792L11.0201 23.2382C10.9593 23.422 10.8681 23.6057 10.7464 23.7895C10.0409 23.6731 9.45091 23.4311 8.9765 23.0636L8.46558 22.5491L8.19188 22.8707C7.82695 22.7298 7.5715 22.5797 7.42552 22.4205C7.38295 22.3776 7.24305 22.1601 7.00584 21.7681C7.25522 22.0744 7.51067 22.2888 7.77221 22.4113C7.90602 22.4725 8.0155 22.5031 8.10065 22.5031C8.22229 22.3194 8.34394 22.1203 8.46558 21.9059C8.97649 22.5981 9.49653 23.0207 10.0257 23.1739C10.2872 23.2474 10.4971 23.2535 10.6552 23.1922L10.792 22.4113C11.1509 22.8523 11.601 23.2076 12.1423 23.4771C12.416 23.6118 12.6502 23.7007 12.8448 23.7435L12.7992 22.595C13.0364 22.4174 13.2766 22.154 13.5199 21.8049C14.0065 21.1004 14.268 20.3133 14.3045 19.4435C14.3471 19.0025 14.5174 18.8065 14.8155 18.8555ZM36.082 70.4282C33.12 67.9351 29.6805 67.1848 25.7635 68.1771C25.1796 69.1817 24.5896 69.9963 23.9936 70.6211C23.5617 71.0744 22.9961 71.5461 22.2966 72.0361C21.5667 72.5445 21.065 72.9182 20.7913 73.157C20.3594 73.5368 20.0401 73.9319 19.8333 74.3423L19.6782 75.0774C19.5931 75.6654 19.5961 76.2105 19.6873 76.7128C19.9732 78.3054 21.0862 79.1385 23.0265 79.212C23.0265 79.6408 22.9961 80.0695 22.9352 80.4983L25.6723 79.7633L25.8547 80.774L27.7706 80.1308L28.2359 82.5748L29.5041 81.9684L29.8234 82.6851C30.1093 83.2241 30.4377 83.6406 30.8087 83.9347C31.9948 84.8718 33.3845 84.4002 34.9781 82.5197C35.4039 82.7647 35.9269 83.0342 36.5473 83.3282L36.0729 81.1415L37.2589 81.8765L37.8063 80.3972L38.8099 81.8765L40.2696 80.9577L41.2094 81.555C41.9088 81.8673 42.4471 81.7908 42.8242 81.3252C43.2864 80.7617 43.402 80.14 43.1709 79.4601C42.9276 78.7618 42.3559 78.0941 41.4557 77.4571C40.2636 76.6118 39.5611 75.6164 39.3482 74.4709C38.6548 73.0253 37.5661 71.6778 36.082 70.4282ZM20.6088 67.635C18.9666 68.8785 17.37 69.5186 15.819 69.5553C14.9249 69.8493 14.338 70.2352 14.0582 70.713C13.821 71.1357 13.8362 71.5859 14.1038 72.0637C14.3471 72.4986 14.7516 72.8722 15.3172 73.1846C15.889 73.5031 16.482 73.6746 17.0963 73.6991C17.1571 74.3117 17.1571 74.8323 17.0963 75.2611L18.6838 74.7282C18.9453 74.1095 19.3863 73.5521 20.0066 73.056C20.3351 72.7926 21.0376 72.3301 22.1141 71.6686C22.8014 71.2459 23.6317 70.2781 24.6048 68.7651L25.8547 66.6151L23.3914 64.5754C22.7041 65.7392 21.7766 66.7591 20.6088 67.635ZM87.2641 62.3335C87.5378 62.1865 87.7507 62.0211 87.9028 61.8373L85.0654 58.5572L76.8635 57.9783C73.4027 60.0855 68.1932 61.9996 61.2351 63.7209C59.0638 64.2599 56.8468 64.7469 54.5842 65.1818L51.8381 65.6688C52.0126 66.9901 52.1038 68.1937 52.1118 69.2797C53.1579 70.4619 55.0373 71.4664 57.75 72.2934C58.8692 72.6364 59.8393 72.8385 60.6604 72.8998C61.524 72.9733 62.0258 72.8691 62.1657 72.5874C62.3908 72.128 62.5337 71.7574 62.5945 71.4756C62.7405 70.8141 62.8135 70.4802 62.8135 70.4741C66.1709 73.4572 70.6383 75.4571 76.2157 76.4739C78.2289 76.8415 80.1813 77.0405 82.0729 77.0712C83.6665 77.0957 84.7886 77.013 85.4394 76.8231C85.3665 76.2902 85.0106 75.5337 84.372 74.5536L83.4323 73.2397L86.297 74.0942C88.3772 74.6149 89.8552 74.7588 90.731 74.5261C90.9074 73.9013 90.8557 73.0407 90.5759 71.9442C90.3022 70.8906 89.9281 70.0055 89.4537 69.2889C90.0255 69.442 90.3934 69.3042 90.5576 68.8754L90.6398 68.1863C88.4502 65.6075 86.7471 63.7056 85.5307 62.4805C86.1389 62.6704 86.7167 62.6214 87.2641 62.3335Z" fill="#E7E9EB"/>
<path d="M8.4656 21.9059C8.34395 22.1203 8.22231 22.3194 8.10066 22.5031C8.01551 22.5031 7.90603 22.4725 7.77222 22.4112C7.51069 22.2887 7.25523 22.0743 7.00586 21.7681C7.24307 22.1601 7.38296 22.3775 7.42554 22.4204C7.57151 22.5797 7.82696 22.7298 8.1919 22.8706L8.4656 22.5491L8.97651 23.0636C9.45093 23.4311 10.0409 23.6731 10.7464 23.7894C10.8681 23.6057 10.9593 23.4219 11.0201 23.2382L11.5493 23.6792C12.0176 23.9855 12.5559 24.1753 13.1641 24.2488L13.2006 23.0544C13.1895 23.0415 13.1774 23.0292 13.1641 23.0176C13.0437 22.8762 12.9221 22.7354 12.7992 22.595L12.8448 23.7435C12.6502 23.7006 12.416 23.6118 12.1423 23.4771C11.601 23.2075 11.1509 22.8523 10.7921 22.4112L10.6552 23.1922C10.4971 23.2535 10.2872 23.2474 10.0257 23.1738C9.49654 23.0207 8.97651 22.5981 8.4656 21.9059ZM24.2217 62.848C24.2098 62.8423 24.1976 62.8361 24.1852 62.8296C23.9844 63.436 23.7199 64.0179 23.3914 64.5753L25.8547 66.6151L24.6048 68.7651C23.6317 70.2781 22.8015 71.2459 22.1142 71.6685C21.0376 72.3301 20.3351 72.7926 20.0067 73.0559C19.3863 73.5521 18.9453 74.1095 18.6838 74.7282L19.8333 74.3423C20.0401 73.9319 20.3594 73.5368 20.7913 73.157C21.065 72.9181 21.5668 72.5445 22.2966 72.0361C22.9961 71.546 23.5617 71.0744 23.9936 70.6211C24.5896 69.9963 25.1796 69.1816 25.7635 68.1771C29.6805 67.1848 33.12 67.9351 36.082 70.4281C37.5661 71.6777 38.6548 73.0253 39.3482 74.4709C39.2509 73.938 39.2478 73.3561 39.3391 72.7252C39.3398 72.7289 39.3398 72.7289 39.3391 72.7252C37.2472 70.9478 35.1853 68.6661 33.1534 65.88C29.9724 65.2001 26.9952 64.1894 24.2217 62.848ZM85.0654 58.5571L82.155 55.2127L71.1158 54.4409C69.6682 55.5557 67.7523 56.692 65.368 57.8497C60.5874 60.1589 55.8402 61.4116 51.1265 61.6076C51.169 61.8097 51.2724 62.3273 51.4367 63.1604C51.5965 64.0129 51.7273 64.8275 51.829 65.6044C51.8323 65.626 51.8353 65.6474 51.8381 65.6687L54.5842 65.1818C56.8468 64.7469 59.0638 64.2599 61.2352 63.7208C68.1932 61.9996 73.4027 60.0854 76.8635 57.9783L85.0654 58.5571Z" fill="#B4B1AF"/>
<path d="M15.2625 19.4252C15.2625 19.0944 15.1135 18.9045 14.8155 18.8555C14.5174 18.8065 14.3471 19.0025 14.3045 19.4435C14.2681 20.3133 14.0065 21.1004 13.5199 21.8049C13.2767 22.154 13.0364 22.4174 12.7992 22.595C12.9221 22.7354 13.0437 22.8763 13.1641 23.0177C13.1774 23.0293 13.1895 23.0415 13.2006 23.0544L13.7845 23.7252C14.4536 24.6195 14.8246 25.4219 14.8976 26.1325C14.9462 25.5383 15.1196 24.9839 15.4176 24.4694C15.5636 24.2183 15.8646 23.8079 16.3208 23.2382C16.5641 22.9258 16.7131 22.7267 16.7679 22.641C16.2265 22.2 15.8221 21.6119 15.5545 20.8769C15.3598 20.3501 15.2625 19.8662 15.2625 19.4252Z" fill="#464543"/>
<path d="M82.155 55.2127L85.5307 55.4516L80.8595 49.2864C76.2601 43.5353 71.6285 38.684 66.9646 34.7325C65.4745 33.4645 63.9691 32.2854 62.4486 31.1951C58.9939 28.7082 55.5726 26.7695 52.1848 25.379C48.724 23.9579 45.47 23.1678 42.4228 23.0085C42.1265 22.9913 41.8376 22.979 41.5561 22.9718C38.4784 22.1693 36.3983 21.4067 35.3157 20.6839C34.9751 20.4573 34.7561 20.249 34.6588 20.0591L34.6132 19.8386C34.4672 19.2383 34.2057 18.488 33.8286 17.5875C33.0683 15.7805 32.1043 14.1267 30.9365 12.626C27.1776 7.81754 22.0473 5.41333 15.5453 5.41333C9.04342 5.41333 4.64292 8.66285 2.34383 15.1619C1.62612 17.1894 1.16083 19.4221 0.947953 21.86C0.844555 23.0728 0.811099 24.0866 0.847592 24.9013L0.947953 26.0957C1.06352 27.1248 1.21861 28.209 1.41324 29.3483C1.85116 31.8413 2.44418 34.2884 3.1923 36.6896L3.54811 37.6084C3.87655 38.3924 4.25669 39.2193 4.68853 40.0891C6.0692 42.8578 7.72661 45.5193 9.66077 48.0736C15.8464 56.2326 23.6165 61.7393 32.971 64.5938C33.0683 64.753 33.1109 64.9215 33.0987 65.0991C33.0804 65.3625 33.0987 65.6228 33.1534 65.8801C35.1853 68.6661 37.2472 70.9478 39.3391 72.7252C39.3398 72.7289 39.3398 72.7289 39.3391 72.7252C39.6229 72.9699 39.9057 73.2026 40.1876 73.4235C43.3382 75.8921 46.1634 76.8568 48.6632 76.3178C50.3662 75.9502 51.4397 74.5904 51.8837 72.2383C52.0466 71.3748 52.1226 70.3886 52.1118 69.2797C52.1039 68.1938 52.0126 66.9901 51.8381 65.6688C51.8353 65.6475 51.8323 65.626 51.829 65.6045C46.1094 65.757 40.8847 65.2302 36.155 64.0241C28.7469 62.1314 23.215 58.7073 19.5596 53.7518C17.95 52.3778 16.694 50.7424 15.7917 48.8454C14.8489 46.8608 14.3289 44.674 14.2316 42.2851C14.1525 40.276 14.3684 38.3281 14.8793 36.4415C15.3355 34.7754 15.892 33.5595 16.5489 32.7938C15.1317 32.9531 13.8727 32.9408 12.7718 32.7571C10.8194 32.4385 9.03429 31.6269 7.41642 30.3222C3.79748 27.4678 1.98497 24.1019 1.97889 20.2245C1.97281 18.0378 2.52021 15.8969 3.6211 13.8021C4.3753 12.3626 5.19032 11.2508 6.06616 10.4668C7.45899 9.20494 8.97347 8.77617 10.6096 9.18044C12.2031 9.57247 14.1008 9.53572 16.3026 9.07019C17.3609 8.84355 18.5682 8.48215 19.9246 7.98599C20.8491 7.6491 21.7097 7.4929 22.5065 7.5174C23.9358 7.5664 25.3013 8.12994 26.6029 9.20801C27.5334 9.94918 28.312 11.015 28.9384 12.4055C29.5223 13.7163 29.9055 15.168 30.088 16.7606C30.2765 18.3471 30.24 19.857 29.9785 21.2903C29.7048 22.7972 29.2121 24.0314 28.5005 24.9931C29.6197 24.4296 31.2619 23.9243 33.4271 23.4771C35.933 22.9626 37.8216 22.8646 39.0928 23.1831L38.3902 23.3117C35.4647 24.0958 32.4084 25.3423 29.2213 27.0513C22.8349 30.4631 18.9757 34.4752 17.6437 39.0876C16.78 42.0768 17.1146 45.0201 18.6473 47.9174C20.1009 50.6554 22.4821 53.1087 25.7909 55.277C29.0631 57.4209 32.8767 59.0503 37.2316 60.1651C41.7507 61.3289 46.3823 61.8098 51.1265 61.6076C55.8402 61.4116 60.5874 60.159 65.368 57.8497C67.7523 56.692 69.6682 55.5558 71.1158 54.4409L82.155 55.2127Z" fill="#DDDDDD"/>
<path d="M80.8595 49.2864L84.6184 49.3323C80.4338 43.1273 75.4828 38.2423 69.7655 34.6773C67.9774 33.5625 66.2226 32.6468 64.5014 31.9301L62.4486 31.1951C63.9692 32.2854 65.4745 33.4645 66.9647 34.7325C71.6285 38.684 76.2602 43.5353 80.8595 49.2864ZM51.829 65.6044C51.7273 64.8276 51.5965 64.0129 51.4367 63.1604C51.2725 62.3274 51.1691 61.8098 51.1265 61.6076C45.3605 62.0425 40.1845 61.8098 35.5985 60.9093C30.7301 59.96 26.3083 58.2326 22.3331 55.7272C24.1889 57.0738 23.6689 56.7277 20.7731 54.689C20.7635 54.6829 20.7544 54.6768 20.7457 54.6706C20.3312 54.3784 19.9359 54.0722 19.5596 53.7518C23.2151 58.7072 28.7469 62.1313 36.155 64.0241C40.8847 65.2302 46.1094 65.757 51.829 65.6044ZM4.68856 40.0891C4.25672 39.2193 3.87658 38.3924 3.54814 37.6083L3.19232 36.6895C3.53901 37.7737 3.91307 38.8487 4.31449 39.9146C8.44448 50.7899 15.065 58.4282 24.1761 62.8296H24.1852C24.1976 62.8362 24.2098 62.8423 24.2217 62.848C26.9952 64.1895 29.9724 65.2002 33.1535 65.8801C33.0987 65.6228 33.0805 65.3625 33.0987 65.0991C33.1109 64.9214 33.0683 64.753 32.971 64.5937C23.6165 61.7393 15.8464 56.2326 9.66079 48.0736C7.72664 45.5193 6.06923 42.8578 4.68856 40.0891Z" fill="#ACA8A5"/>
<path d="M7.51655 13.8021L7.28846 13.701C7.08775 13.6336 6.87487 13.6061 6.64983 13.6183C5.93212 13.6673 5.23266 14.1114 4.55145 14.9506L4.73392 15.0884L4.6883 15.511C4.67006 15.8663 4.69135 16.2093 4.75217 16.5401C4.96505 17.6059 5.56719 18.3777 6.55859 18.8555C7.54392 19.3333 8.54749 19.3088 9.5693 18.782C9.88558 18.6166 10.1866 18.4114 10.4725 18.1664L10.801 17.8448H11.5764C11.6494 17.5386 11.6707 17.2047 11.6403 16.8433C11.5734 16.1144 11.2632 15.606 10.7097 15.3181C9.8278 14.8587 8.76341 14.3534 7.51655 13.8021ZM8.26466 14.7301L9.61492 15.3824L9.7244 15.4375L9.97073 15.5478L10.7553 15.9153L10.9469 16.2093C11.0564 16.4482 11.0534 16.6718 10.9378 16.8801C10.4573 17.8234 9.74569 18.4084 8.80294 18.635C8.09132 18.8065 7.49526 18.7728 7.01476 18.5339C6.57684 18.3134 6.19062 17.9643 5.85609 17.4865C5.41209 16.8556 5.2205 16.1634 5.28132 15.41C5.71924 14.7974 6.19974 14.4299 6.72281 14.3074H7.3797L8.22817 14.7209L8.26466 14.7301ZM22.634 13.701L22.4059 13.8021C21.159 14.3534 20.0946 14.8587 19.2127 15.3181C18.6592 15.606 18.349 16.1144 18.2821 16.8433C18.2517 17.2047 18.273 17.5386 18.346 17.8448H19.1215L19.4499 18.1664C19.7358 18.4114 20.0368 18.6166 20.3531 18.782C21.3749 19.3088 22.3785 19.3333 23.3638 18.8555C24.3552 18.3777 24.9574 17.6059 25.1703 16.5401C25.2311 16.2093 25.2524 15.8663 25.2341 15.511L25.1885 15.0884L25.371 14.9506C24.6898 14.1114 23.9903 13.6673 23.2726 13.6183C23.0476 13.6061 22.8347 13.6336 22.634 13.701ZM21.6578 14.7301L21.6851 14.7117L22.5427 14.3074H23.1996C23.7227 14.4299 24.2032 14.7974 24.6411 15.41C24.7019 16.1634 24.5103 16.8556 24.0663 17.4865C23.7318 17.9643 23.3456 18.3134 22.9077 18.5339C22.4272 18.7728 21.8311 18.8065 21.1195 18.635C20.1767 18.4084 19.4651 17.8234 18.9846 16.8801C18.8691 16.6718 18.866 16.4482 18.9755 16.2093L19.1671 15.9153L19.9517 15.5478L20.1889 15.4284L20.3075 15.3732L21.6578 14.7301Z" fill="#464543"/>
<path d="M9.97072 15.5478L9.7244 15.4375C9.80347 15.5968 9.843 15.7744 9.843 15.9704C9.843 16.3257 9.72136 16.6258 9.47807 16.8708C9.22869 17.122 8.92762 17.2476 8.57485 17.2476C8.22208 17.2476 7.92405 17.122 7.68076 16.8708C7.43139 16.6258 7.30671 16.3257 7.30671 15.9704C7.30671 15.6151 7.43139 15.3119 7.68076 15.0608C7.85106 14.8893 8.0457 14.779 8.26466 14.73L8.22816 14.7208L7.37969 14.3074H6.72281C6.19973 14.4299 5.71924 14.7974 5.28132 15.4099C5.22049 16.1634 5.41208 16.8555 5.85609 17.4864C6.19061 17.9642 6.57683 18.3134 7.01476 18.5339C7.49525 18.7728 8.09131 18.8065 8.80293 18.635C9.74568 18.4083 10.4573 17.8233 10.9378 16.88C11.0534 16.6718 11.0564 16.4482 10.9469 16.2093L10.7553 15.9153L9.97072 15.5478ZM21.6851 14.7116L21.6578 14.73C21.8783 14.7806 22.0729 14.8908 22.2417 15.0608C22.491 15.3119 22.6157 15.6151 22.6157 15.9704C22.6157 16.3257 22.491 16.6258 22.2417 16.8708C21.9984 17.122 21.7003 17.2476 21.3476 17.2476C20.9948 17.2476 20.6937 17.122 20.4444 16.8708C20.2011 16.6258 20.0794 16.3257 20.0794 15.9704C20.0794 15.7762 20.1159 15.5955 20.1889 15.4283L19.9517 15.5478L19.1671 15.9153L18.9755 16.2093C18.866 16.4482 18.8691 16.6718 18.9846 16.88C19.4651 17.8233 20.1767 18.4083 21.1195 18.635C21.8311 18.8065 22.4272 18.7728 22.9077 18.5339C23.3456 18.3134 23.7318 17.9642 24.0663 17.4864C24.5103 16.8555 24.7019 16.1634 24.6411 15.4099C24.2032 14.7974 23.7227 14.4299 23.1996 14.3074H22.5427L21.6851 14.7116Z" fill="#FEC000"/>
<path d="M9.61491 15.3823L8.26466 14.73C8.04569 14.779 7.85106 14.8892 7.68076 15.0607C7.43139 15.3119 7.3067 15.6151 7.3067 15.9704C7.3067 16.3256 7.43139 16.6258 7.68076 16.8708C7.92405 17.1219 8.22208 17.2475 8.57485 17.2475C8.92762 17.2475 9.22869 17.1219 9.47806 16.8708C9.72135 16.6258 9.843 16.3256 9.843 15.9704C9.843 15.7744 9.80346 15.5967 9.72439 15.4375L9.61491 15.3823ZM22.2416 15.0607C22.0729 14.8908 21.8783 14.7805 21.6578 14.73L20.3075 15.3731L20.1889 15.4283C20.1159 15.5955 20.0794 15.7762 20.0794 15.9704C20.0794 16.3256 20.2011 16.6258 20.4444 16.8708C20.6937 17.1219 20.9948 17.2475 21.3476 17.2475C21.7003 17.2475 21.9984 17.1219 22.2416 16.8708C22.491 16.6258 22.6157 16.3256 22.6157 15.9704C22.6157 15.6151 22.491 15.3119 22.2416 15.0607Z" fill="#0A0800"/>
<path d="M71.3804 49.0473C71.6297 49.1698 71.9034 49.2311 72.2015 49.2311C72.7367 49.2311 73.1929 49.0381 73.57 48.6522C73.9531 48.2725 74.1447 47.8131 74.1447 47.274C74.1447 46.735 73.9531 46.2756 73.57 45.8958C73.5091 45.8346 73.4483 45.7794 73.3875 45.7304L71.3804 49.0473ZM65.1035 37.9022C65.1035 37.3631 64.9119 36.9037 64.5287 36.524C64.4679 36.4627 64.4071 36.4076 64.3462 36.3586L62.3391 39.6755C62.5885 39.798 62.8622 39.8592 63.1602 39.8592C63.6954 39.8592 64.1516 39.6663 64.5287 39.2804C64.9119 38.9006 65.1035 38.4412 65.1035 37.9022ZM58.0511 36.1564C57.9903 36.0952 57.9295 36.0401 57.8686 35.9911L55.8615 39.308C56.1109 39.4305 56.3846 39.4917 56.6826 39.4917C57.2178 39.4917 57.674 39.2988 58.0511 38.9129C58.4343 38.5331 58.6259 38.0737 58.6259 37.5347C58.6259 36.9956 58.4343 36.5362 58.0511 36.1564ZM52.0297 38.9129C52.4129 38.5331 52.6045 38.0737 52.6045 37.5347C52.6045 36.9956 52.4129 36.5362 52.0297 36.1564C51.9689 36.0952 51.908 36.0401 51.8472 35.9911L49.8401 39.308C50.0895 39.4305 50.3632 39.4917 50.6612 39.4917C51.1964 39.4917 51.6526 39.2988 52.0297 38.9129ZM66.3534 42.9556C66.2926 42.8944 66.2317 42.8392 66.1709 42.7902L64.1638 46.1071C64.4131 46.2296 64.6868 46.2909 64.9849 46.2909C65.5201 46.2909 65.9763 46.0979 66.3534 45.7121C66.7366 45.3323 66.9282 44.8729 66.9282 44.3338C66.9282 43.7948 66.7366 43.3354 66.3534 42.9556ZM57.6862 42.9556C57.6254 42.8944 57.5645 42.8392 57.5037 42.7902L55.4966 46.1071C55.7459 46.2296 56.0196 46.2909 56.3177 46.2909C56.8529 46.2909 57.3091 46.0979 57.6862 45.7121C58.0694 45.3323 58.261 44.8729 58.261 44.3338C58.261 43.7948 58.0694 43.3354 57.6862 42.9556ZM66.0797 54.1743C66.4629 53.7945 66.6545 53.3351 66.6545 52.7961C66.6545 52.257 66.4629 51.7976 66.0797 51.4178C66.0189 51.3566 65.958 51.3015 65.8972 51.2525L63.8901 54.5694C64.1394 54.6919 64.4131 54.7531 64.7112 54.7531C65.2464 54.7531 65.7026 54.5602 66.0797 54.1743ZM57.6862 50.4899C57.6254 50.4286 57.5645 50.3735 57.5037 50.3245L55.4966 53.6414C55.7459 53.7639 56.0196 53.8251 56.3177 53.8251C56.8529 53.8251 57.3091 53.6322 57.6862 53.2463C58.0694 52.8665 58.261 52.4071 58.261 51.8681C58.261 51.329 58.0694 50.8696 57.6862 50.4899ZM49.6576 55.9476C49.907 56.0701 50.1807 56.1313 50.4787 56.1313C51.014 56.1313 51.4701 55.9384 51.8472 55.5525C52.2304 55.1727 52.422 54.7133 52.422 54.1743C52.422 53.6352 52.2304 53.1758 51.8472 52.7961C51.7864 52.7348 51.7256 52.6797 51.6648 52.6307L49.6576 55.9476ZM46.4644 56.7469C46.8476 56.3672 47.0392 55.9078 47.0392 55.3687C47.0392 54.8297 46.8476 54.3703 46.4644 53.9905C46.4036 53.9293 46.3428 53.8741 46.282 53.8251L44.2748 57.142C44.5242 57.2645 44.7979 57.3258 45.0959 57.3258C45.6312 57.3258 46.0873 57.1328 46.4644 56.7469ZM47.3768 47.8253C47.76 47.4455 47.9516 46.9861 47.9516 46.4471C47.9516 45.9081 47.76 45.4487 47.3768 45.0689C47.316 45.0076 47.2551 44.9525 47.1943 44.9035L45.1872 48.2204C45.4365 48.3429 45.7102 48.4042 46.0083 48.4042C46.5435 48.4042 46.9997 48.2112 47.3768 47.8253ZM42.4319 49.5802C42.4319 49.0412 42.2403 48.5818 41.8571 48.202C41.7963 48.1408 41.7355 48.0856 41.6747 48.0366L39.6675 51.3535C39.9169 51.476 40.1906 51.5373 40.4886 51.5373C41.0239 51.5373 41.48 51.3443 41.8571 50.9584C42.2403 50.5787 42.4319 50.1193 42.4319 49.5802ZM39.9868 42.1379C39.926 42.0766 39.8652 42.0215 39.8044 41.9725L37.7972 45.2894C38.0466 45.4119 38.3203 45.4732 38.6183 45.4732C39.1536 45.4732 39.6097 45.2802 39.9868 44.8943C40.37 44.5145 40.5616 44.0551 40.5616 43.5161C40.5616 42.9771 40.37 42.5177 39.9868 42.1379ZM34.1753 51.9691C34.1144 51.9079 34.0536 51.8528 33.9928 51.8037L31.9857 55.1206C32.235 55.2432 32.5087 55.3044 32.8068 55.3044C33.342 55.3044 33.7982 55.1115 34.1753 54.7256C34.5584 54.3458 34.75 53.8864 34.75 53.3473C34.75 52.8083 34.5584 52.3489 34.1753 51.9691ZM51.6648 31.9575C52.2 31.9575 52.6562 31.7645 53.0333 31.3786C53.4164 30.9989 53.608 30.5395 53.608 30.0004C53.608 29.4614 53.4164 29.002 53.0333 28.6222C52.9724 28.561 52.9116 28.5058 52.8508 28.4568L50.8437 31.7737C51.093 31.8962 51.3667 31.9575 51.6648 31.9575ZM46.282 33.7584C46.2211 33.6971 46.1603 33.642 46.0995 33.593L44.0924 36.9099C44.3417 37.0324 44.6154 37.0936 44.9135 37.0936C45.4487 37.0936 45.9049 36.9007 46.282 36.5148C46.6652 36.135 46.8567 35.6756 46.8567 35.1366C46.8567 34.5975 46.6652 34.1381 46.282 33.7584ZM31.9857 49.5802C31.9857 49.0412 31.7941 48.5818 31.4109 48.202C31.3501 48.1408 31.2892 48.0856 31.2284 48.0366L29.2213 51.3535C29.4706 51.476 29.7443 51.5373 30.0424 51.5373C30.5776 51.5373 31.0338 51.3443 31.4109 50.9584C31.7941 50.5787 31.9857 50.1193 31.9857 49.5802ZM44.9135 31.3143C45.4487 31.3143 45.9049 31.1214 46.282 30.7355C46.6652 30.3557 46.8567 29.8963 46.8567 29.3573C46.8567 28.8182 46.6652 28.3588 46.282 27.9791C46.2211 27.9178 46.1603 27.8627 46.0995 27.8137L44.0924 31.1306C44.3417 31.2531 44.6154 31.3143 44.9135 31.3143ZM37.7243 38.481C38.2595 38.481 38.7157 38.2881 39.0928 37.9022C39.4759 37.5224 39.6675 37.063 39.6675 36.524C39.6675 35.9849 39.4759 35.5255 39.0928 35.1458C39.0319 35.0845 38.9711 35.0294 38.9103 34.9804L36.9032 38.2973C37.1525 38.4198 37.4262 38.481 37.7243 38.481ZM33.6005 42.1379C33.5397 42.0766 33.4788 42.0215 33.418 41.9725L31.4109 45.2894C31.6603 45.4119 31.934 45.4732 32.232 45.4732C32.7672 45.4732 33.2234 45.2802 33.6005 44.8943C33.9837 44.5145 34.1753 44.0551 34.1753 43.5161C34.1753 42.9771 33.9837 42.5177 33.6005 42.1379ZM34.6041 33.4092C34.5432 33.348 34.4824 33.2928 34.4216 33.2438L32.4145 36.5607C32.6638 36.6832 32.9375 36.7445 33.2356 36.7445C33.7708 36.7445 34.227 36.5515 34.6041 36.1656C34.9872 35.7859 35.1788 35.3265 35.1788 34.7874C35.1788 34.2484 34.9872 33.789 34.6041 33.4092ZM40.7167 29.541C40.6559 29.4798 40.5951 29.4246 40.5343 29.3756L38.5271 32.6925C38.7765 32.815 39.0502 32.8763 39.3482 32.8763C39.8834 32.8763 40.3396 32.6834 40.7167 32.2975C41.0999 31.9177 41.2915 31.4583 41.2915 30.9192C41.2915 30.3802 41.0999 29.9208 40.7167 29.541ZM41.6291 24.0282C41.5682 23.9669 41.5074 23.9118 41.4466 23.8628L39.4394 27.1797C39.6888 27.3022 39.9625 27.3635 40.2605 27.3635C40.7958 27.3635 41.252 27.1705 41.6291 26.7846C42.0122 26.4048 42.2038 25.9454 42.2038 25.4064C42.2038 24.8674 42.0122 24.408 41.6291 24.0282ZM35.8175 28.0709C35.8175 27.5319 35.6259 27.0725 35.2427 26.6927C35.1819 26.6315 35.1211 26.5763 35.0602 26.5273L33.0531 29.8442C33.3025 29.9667 33.5762 30.028 33.8742 30.028C34.4094 30.028 34.8656 29.835 35.2427 29.4491C35.6259 29.0694 35.8175 28.61 35.8175 28.0709ZM29.2213 33.2438C29.7565 33.2438 30.2127 33.0509 30.5898 32.665C30.973 32.2852 31.1646 31.8258 31.1646 31.2868C31.1646 30.7477 30.973 30.2883 30.5898 29.9085C30.529 29.8473 30.4681 29.7922 30.4073 29.7432L28.4002 33.0601C28.6495 33.1826 28.9232 33.2438 29.2213 33.2438ZM26.7853 38.3708C26.7245 38.3095 26.6637 38.2544 26.6029 38.2054L24.5957 41.5223C24.8451 41.6448 25.1188 41.706 25.4168 41.706C25.9521 41.706 26.4082 41.5131 26.7853 41.1272C27.1685 40.7474 27.3601 40.288 27.3601 39.749C27.3601 39.2099 27.1685 38.7505 26.7853 38.3708ZM22.6524 46.6676C23.1877 46.6676 23.6439 46.4747 24.021 46.0888C24.4041 45.709 24.5957 45.2496 24.5957 44.7105C24.5957 44.1715 24.4041 43.7121 24.021 43.3323C23.9601 43.2711 23.8993 43.216 23.8385 43.167L21.8313 46.4838C22.0807 46.6064 22.3544 46.6676 22.6524 46.6676ZM21.9226 40.0154C22.3058 39.6357 22.4974 39.1763 22.4974 38.6372C22.4974 38.0982 22.3058 37.6388 21.9226 37.259C21.8618 37.1978 21.8009 37.1426 21.7401 37.0936L19.733 40.4105C19.9823 40.533 20.256 40.5943 20.5541 40.5943C21.0893 40.5943 21.5455 40.4013 21.9226 40.0154ZM26.1741 33.74C26.5573 33.3602 26.7488 32.9008 26.7488 32.3618C26.7488 31.8227 26.5573 31.3633 26.1741 30.9836C26.115 30.924 26.0542 30.8689 25.9916 30.8182L23.9845 34.1351C24.235 34.2576 24.5087 34.3188 24.8056 34.3188C25.3408 34.3188 25.797 34.1259 26.1741 33.74Z" fill="#656261"/>
<path d="M42.067 78.0168C41.8055 78.1516 41.5865 78.2863 41.4102 78.4211C41.2703 78.5129 41.1821 78.6661 41.1456 78.8805C41.1152 79.0887 41.1456 79.2786 41.2368 79.4501C41.4862 79.8973 41.9393 79.8942 42.5962 79.441C43.2896 78.9632 43.8522 78.8897 44.284 79.2204C44.6489 79.5022 45.0291 80.1883 45.4244 81.2786C45.5035 78.7549 44.8588 77.5206 43.4903 77.5758C43.0584 77.5941 42.584 77.7412 42.067 78.0168ZM33.3177 83.6767C33.8043 82.3781 34.0081 81.3643 33.929 80.6354C33.8438 79.8085 33.5337 79.3797 32.9984 79.3491C32.4753 79.3184 32.1165 79.6247 31.9219 80.2679C31.7698 80.9233 31.8306 81.9769 32.1043 83.4286C32.2442 84.1575 32.3963 84.819 32.5605 85.4132C32.822 84.9109 33.0744 84.3321 33.3177 83.6767ZM22.1142 77.0521C22.3393 76.8744 22.4092 76.5804 22.3241 76.17C22.2328 75.7412 21.9926 75.4043 21.6033 75.1593C21.1472 74.8592 20.5724 74.7826 19.879 74.9296C18.8998 75.1991 18.1821 75.9097 17.7259 77.0612C17.2819 78.1761 17.2697 79.1837 17.6894 80.0841C18.0604 78.7182 18.4527 77.7534 18.8663 77.1899C19.4806 76.3568 20.2135 76.2466 21.065 76.8591C21.5151 77.1837 21.8649 77.2481 22.1142 77.0521ZM15.9286 69.9772C15.5637 69.6893 15.0223 69.5025 14.3046 69.4167C13.076 69.5454 12.1971 70.2804 11.668 71.6219C11.1875 72.8347 11.154 73.9373 11.5676 74.9296C11.8961 73.7106 12.3309 72.7428 12.8723 72.0262C13.5474 71.138 14.2377 70.8807 14.9433 71.2544C15.3143 71.4504 15.6458 71.4871 15.9377 71.3646C16.2114 71.2544 16.3574 71.0614 16.3756 70.7858C16.3939 70.4856 16.2449 70.2161 15.9286 69.9772Z" fill="#464543"/>
</svg>
