<svg width="91" height="90" viewBox="0 0 91 90" fill="none" xmlns="http://www.w3.org/2000/svg">
<path d="M14.8676 76.5342L15.0491 77.3117C15.8031 77.9594 16.5919 78.0558 17.4155 77.6011L18.1021 77.1925C17.3614 76.655 17.2082 75.7811 17.6425 74.5708L16.7345 74.6956C16.5253 75.6042 15.903 76.2171 14.8676 76.5342ZM37.0952 74.4289C37.0282 74.3752 36.962 74.3279 36.8965 74.2871C36.6911 74.1569 36.4925 74.0888 36.3007 74.0828C36.2943 74.0828 36.2867 74.0828 36.278 74.0828C35.8732 74.0828 35.493 74.2663 35.1374 74.6332C34.9162 74.862 34.7686 75.0852 34.6948 75.3028C34.662 75.3974 34.6431 75.49 34.638 75.5809C34.638 75.597 34.638 75.6121 34.638 75.6263C34.638 75.643 34.6721 75.7697 34.7402 76.0065C34.7511 76.0341 34.7606 76.055 34.7686 76.0689C34.7795 76.0832 34.7908 76.0965 34.8026 76.1086C35.1725 76.5254 35.5168 76.828 35.8354 77.0166C36.5655 77.4478 37.5227 77.6635 38.7068 77.6635C38.7851 77.6635 38.8608 77.6616 38.9337 77.6578C38.8215 77.5918 38.7288 77.5067 38.6557 77.4024C38.5383 77.2359 38.5118 77.1016 38.5762 76.9995C38.6412 76.8976 38.6733 76.7879 38.6727 76.6704C38.6752 76.5532 38.6677 76.4454 38.65 76.347L38.6443 76.3072C38.6793 76.2122 38.7209 76.1176 38.7692 76.0235C38.2552 75.7379 37.9393 75.4939 37.8215 75.2915C37.6134 74.9396 37.3713 74.6521 37.0952 74.4289ZM65.9905 72.8457C65.9402 72.924 65.8589 73.0091 65.7465 73.1011C65.3618 73.4164 65.0289 73.6207 64.7477 73.7139C64.713 73.7245 64.679 73.732 64.6456 73.7366C64.7601 74.6437 65.1403 75.459 65.7862 76.1824C65.9799 76.304 66.1955 76.3494 66.4331 76.3186C66.5323 76.3069 66.6344 76.2823 66.7395 76.2448C67.1208 76.0365 67.257 75.7338 67.1481 75.3369C67.0862 75.0843 66.9991 74.8214 66.8871 74.5481C66.6788 74.0197 66.3799 73.4522 65.9905 72.8457Z" fill="#211712"/>
<path d="M7.38837 66.4788C6.84078 66.7005 6.84835 67.3871 7.41107 68.5387C9.541 71.0575 11.9395 73.3614 14.6065 75.4505C14.8976 75.7335 14.9771 76.0664 14.8449 76.4492L14.8676 76.5343C15.903 76.2172 16.5253 75.6043 16.7345 74.6957C16.763 74.5703 16.7838 74.4398 16.7969 74.3042C16.7174 74.1769 16.3731 74.0369 15.7642 73.8843C13.6697 72.1135 11.869 70.0706 10.3619 67.7556C10.1334 66.8602 9.5243 66.3476 8.53465 66.2178C8.23076 66.1968 7.84867 66.2838 7.38837 66.4788ZM59.4135 58.4265C58.2929 58.6885 57.8862 59.1633 58.1935 59.8509C60.5433 63.6951 62.5029 67.7184 64.0724 71.9208C64.2337 72.3388 64.298 72.7285 64.2654 73.0898C64.0943 73.3792 64.0678 73.574 64.1859 73.6743C64.2911 73.7638 64.4443 73.7846 64.6456 73.7367C64.679 73.7321 64.713 73.7246 64.7477 73.714C65.0289 73.6208 65.3618 73.4165 65.7465 73.1012C65.8589 73.0092 65.9402 72.9241 65.9905 72.8458C66.1187 72.6566 66.0676 72.5072 65.8372 72.3975C65.5158 72.2476 65.302 71.9204 65.196 71.4158C63.6874 66.7464 61.7599 62.4167 59.4135 58.4265ZM35.2906 71.5236C35.2687 71.5596 35.246 71.5956 35.2225 71.6314L34.1784 72.6756C33.9779 73.6585 33.9495 74.3905 34.0933 74.8717C34.2366 75.3564 34.4182 75.5928 34.638 75.581C34.6431 75.4901 34.662 75.3975 34.6948 75.3029C34.7686 75.0853 34.9162 74.8621 35.1374 74.6333C35.493 74.2664 35.8732 74.0829 36.278 74.0829C36.2867 74.0829 36.2943 74.0829 36.3007 74.0829C36.4434 73.9536 36.5133 73.7096 36.5107 73.3509C39.1209 69.9468 41.5364 66.455 43.7572 62.8754C43.2332 61.9019 42.3214 61.5009 41.022 61.6724C39.2095 64.7647 37.8306 67.1348 36.8852 68.7828C35.9393 70.4339 35.4078 71.3475 35.2906 71.5236Z" fill="#251B17"/>
<path d="M51.0094 48.2859C50.9559 48.2144 50.903 48.1425 50.8505 48.0702C49.4853 46.1344 48.2293 45.6521 47.0825 46.6232C45.9355 47.5945 45.5534 48.6424 45.9362 49.7669C46.3232 50.8912 46.762 51.2846 47.2527 50.9473C47.4519 50.7179 47.7924 50.7368 48.2742 51.004C48.8292 51.3157 49.5707 51.955 50.4986 52.922L55.5491 58.1768L56.701 59.4649C57.2199 59.9517 57.7174 60.0803 58.1935 59.8508C57.8862 59.1632 58.2929 58.6884 59.4135 58.4265C59.5791 58.0174 59.5791 57.535 59.4135 56.9794C59.0947 56.515 58.4024 56.2805 57.3366 56.2758C55.1403 53.7213 53.0312 51.058 51.0094 48.2859ZM15.3555 58.7102C14.8922 58.9551 14.3531 59.341 13.7383 59.8678C13.0802 60.4249 12.3804 61.0416 11.6387 61.7178C10.8875 62.4107 10.0931 63.1655 9.2553 63.9819C8.43268 64.456 7.75551 64.6735 7.22377 64.6345C6.67438 64.8863 6.3566 65.4349 6.27043 66.2802C6.18865 67.1257 6.43077 67.7764 6.99679 68.2323C7.1057 68.3182 7.24379 68.4203 7.41104 68.5387C6.84832 67.3871 6.84075 66.7005 7.38834 66.4788C7.84864 66.2838 8.23073 66.1968 8.53462 66.2178C9.52427 66.3475 10.1333 66.8601 10.3619 67.7556C11.7233 65.7735 13.3425 64.0144 15.2194 62.4782C15.6501 62.1248 16.0947 61.7824 16.5529 61.451C17.0898 61.3984 17.6308 61.2206 18.1758 60.9176C18.7408 60.6181 18.9602 60.2133 18.8341 59.7033C18.3561 58.8525 17.6222 58.3852 16.6323 58.3016C16.266 58.3198 15.8405 58.456 15.3555 58.7102ZM40.2502 48.4788C40.1447 48.2928 39.9348 48.1755 39.6203 48.127C37.1845 48.267 36.269 49.4984 36.8738 51.8212C37.6813 52.2725 38.3887 52.857 38.9961 53.5746C40.3312 55.1482 41.19 57.3613 41.5724 60.214L41.2263 60.5488C40.7415 61.215 40.6734 61.5895 41.022 61.6724C42.3214 61.5009 43.2331 61.9019 43.7572 62.8754C43.9142 62.9471 44.0712 62.8866 44.2282 62.6938C44.5701 62.2056 44.7309 61.7838 44.7105 61.4283C44.6898 61.0729 44.6406 60.7873 44.563 60.5715C43.8843 57.3066 43.0464 54.4712 42.0491 52.0652C41.8499 51.5885 41.6437 51.1269 41.4306 50.6806C41.3833 50.579 41.3342 50.4769 41.283 50.3741C40.9544 49.7022 40.6101 49.0704 40.2502 48.4788ZM75.5182 75.5753C75.1928 75.2045 74.8221 74.8621 74.4059 74.5482C73.2445 73.6667 72.0358 73.226 70.7798 73.226C69.7092 73.226 68.7635 73.4227 67.9425 73.8161C67.4015 74.0734 67.0497 74.3174 66.887 74.5482C66.9991 74.8215 67.0861 75.0844 67.1481 75.3369C67.257 75.7339 67.1208 76.0365 66.7395 76.2449C66.6344 76.2824 66.5322 76.307 66.4331 76.3186C66.6262 76.3792 66.8304 76.4094 67.0459 76.4094C67.4507 76.4094 68.1222 76.243 69.0604 75.9101C69.9948 75.5734 70.7647 75.405 71.37 75.405C72.5995 75.405 74.1563 75.7058 76.0402 76.3073V76.2959C75.9608 76.1181 75.7868 75.8779 75.5182 75.5753ZM22.7893 77.6749C23.5819 78.1448 24.0604 78.0767 24.225 77.4706C23.3284 76.3332 22.0914 75.4007 20.5138 74.673C19.7582 74.3211 18.801 74.2871 17.6424 74.5709C17.2082 75.7812 17.3614 76.6551 18.1021 77.1925C18.9463 76.9123 19.8277 76.812 20.7465 76.8918C21.32 76.9448 22.001 77.2059 22.7893 77.6749ZM47.5535 75.7001C47.2282 75.4126 46.9463 75.2197 46.708 75.1213C45.8492 74.7619 45.208 74.5198 44.7843 74.3949C44.1638 74.2096 43.568 74.1169 42.9968 74.1169C41.7256 74.1169 40.6777 74.3874 39.853 74.9284C39.3503 75.2584 38.989 75.6234 38.7691 76.0236C38.7209 76.1177 38.6792 76.2122 38.6443 76.3073L38.6557 76.313C38.6545 76.325 38.6526 76.3364 38.65 76.347C38.6676 76.4454 38.6752 76.5533 38.6727 76.6705C38.6733 76.7879 38.6411 76.8976 38.5762 76.9996C38.5118 77.1016 38.5383 77.2359 38.6557 77.4025C38.7288 77.5068 38.8215 77.5919 38.9337 77.6579C39.1381 77.7789 39.4067 77.8395 39.7395 77.8395C40.1973 77.8395 40.8801 77.6673 41.7881 77.3231C42.696 76.975 43.4186 76.801 43.9558 76.801L44.3189 76.8294C44.6329 76.8294 45.1739 76.9239 45.9419 77.1131C46.7099 77.2985 47.1809 77.3912 47.3549 77.3912C47.7218 77.3912 47.9753 77.3476 48.1153 77.2606C48.2326 77.185 48.2912 77.0601 48.2912 76.8861L48.2515 76.7669C48.2401 76.7518 48.2345 76.7348 48.2345 76.7159C48.2345 76.6175 48.2042 76.5248 48.1437 76.4378C48.0793 76.3697 48.0472 76.3281 48.0472 76.313C48.0472 76.1957 47.8826 75.9914 47.5535 75.7001ZM61.7685 13.1711C61.3978 13.4397 61.1008 13.7726 60.8776 14.1698C60.2647 14.3893 59.684 14.673 59.1355 15.021C58.5907 15.3766 58.1329 15.8174 57.7622 16.3432C57.3763 16.8918 57.0775 17.4838 56.8656 18.1194C56.6689 18.7247 56.5194 19.3394 56.4173 19.9637C56.3227 20.5463 56.2735 21.1307 56.2698 21.7171C56.2698 21.9819 56.2716 22.2486 56.2754 22.5172C56.2906 22.8426 56.2792 23.166 56.2414 23.4876C56.2376 23.5368 56.2319 23.5841 56.2244 23.6295C56.1906 23.7294 56.1414 23.8164 56.0768 23.8905C55.736 24.3253 55.422 24.715 55.1348 25.0595C55.1035 25.097 55.0714 25.1329 55.0384 25.1673C54.9796 25.2423 54.9209 25.3142 54.8624 25.3829C53.9408 26.4579 53.3298 27.0065 53.0295 27.0286C52.6049 27.0656 52.4706 27.2794 52.6266 27.6698C52.6513 27.7261 52.6759 27.7791 52.7004 27.8287C52.8516 28.1242 53.0464 28.3039 53.2849 28.3678C53.5631 28.4429 53.8393 28.2689 54.1134 27.8457C54.1179 27.8401 54.1217 27.8344 54.1247 27.8287C54.4054 27.4789 54.6854 27.1328 54.9646 26.7903C55.2353 26.4491 55.5039 26.1086 55.7704 25.7688C55.8226 25.7027 55.8737 25.6365 55.9236 25.5702C55.9645 25.5211 56.0042 25.4719 56.0428 25.4227C56.1367 25.3032 56.2275 25.1822 56.3152 25.0595C56.5189 24.7821 56.7099 24.4964 56.8883 24.2026C56.9337 24.127 56.964 24.0456 56.9791 23.9586C57.0025 23.8257 57.0158 23.6933 57.0188 23.5614C56.8751 21.6169 57.0529 19.7934 57.5522 18.091C57.9911 16.5929 58.9633 15.6377 60.469 15.2253C60.6619 15.6112 60.974 15.7795 61.4053 15.7304C61.8252 15.6547 62.2054 15.4788 62.5459 15.2026C62.8561 14.9529 63.0604 14.6408 63.1588 14.2663C63.2723 13.8312 63.2515 13.4075 63.0964 12.9952C63.0737 12.9271 63.0339 12.8855 62.9772 12.8703C62.5535 12.7909 62.1506 12.8911 61.7685 13.1711Z" fill="#150F0C"/>
<path d="M40.1765 39.1157C40.0736 39.0215 39.9563 38.9326 39.8247 38.8489C39.3439 38.56 38.8464 38.2914 38.3323 38.0431C32.7393 35.3583 25.3074 35.3034 16.0366 37.8786L14.7087 38.395C5.3529 42.9043 0.449997 48.2574 0 54.4542C0.120099 54.8205 0.632714 55.2064 1.53784 55.6119C1.55306 55.6174 1.56629 55.6231 1.57756 55.6289C3.10044 56.3002 5.70133 57.0246 9.3802 57.8023C14.8508 58.2607 20.3363 57.0728 25.8367 54.2386C31.3375 51.4094 35.4724 48.4094 38.2415 45.2386C38.9122 44.4753 39.4513 43.7716 39.8587 43.1276C40.0407 42.8398 40.1959 42.5636 40.3241 42.2991C41.0164 40.8967 40.9672 39.8355 40.1765 39.1157ZM16.4395 40.6932C16.3445 40.6673 16.2575 40.6427 16.1784 40.6194C16.1179 40.5816 16.0876 40.4587 16.0876 40.2506C16.0876 39.9025 16.2579 39.5829 16.5983 39.2916C16.9956 38.9511 17.5082 38.7808 18.1362 38.7808C18.4842 38.7808 18.768 38.8357 18.9874 38.9454C19.2333 39.0665 19.3562 39.2405 19.3562 39.4675C19.3562 39.9479 18.9609 40.2998 18.1702 40.523C17.6898 40.6592 17.2301 40.7273 16.7913 40.7273C16.6513 40.7273 16.534 40.7159 16.4395 40.6932ZM13.8178 41.2607C14.5556 41.3554 14.9509 41.7337 15.0038 42.3956C15.0564 43.0573 14.8464 43.6077 14.3739 44.0469C13.9051 44.4861 13.4133 44.8568 12.8985 45.1592C12.3839 45.4617 11.8372 45.7095 11.2585 45.9025C10.6002 46.122 9.95712 46.1144 9.32912 45.8798C9.05674 45.7739 8.83543 45.598 8.66519 45.3521C8.45712 44.6636 8.57251 44.0375 9.01135 43.4738C9.41614 42.9631 9.89659 42.5318 10.4527 42.18C10.9256 41.8849 11.4287 41.6409 11.9622 41.4479C12.5637 41.2361 13.1822 41.1737 13.8178 41.2607ZM5.92434 48.9441C5.53475 48.3656 5.53286 47.7584 5.91866 47.1226C6.30805 46.4863 6.71663 46.2025 7.14438 46.2714C7.57213 46.3402 7.8029 46.5861 7.8367 47.0091C7.87066 47.4325 7.70798 47.9376 7.34867 48.5242C7.00441 49.0879 6.52963 49.2279 5.92434 48.9441ZM49.0063 22.9145C48.37 23.1283 47.9765 23.8187 47.8259 24.9858V30.6207C47.7642 31.8468 47.5694 32.5997 47.2415 32.8792C46.8488 32.4322 46.6048 32.4076 46.5094 32.8054C46.3674 33.3962 45.8151 33.7234 44.8524 33.7871C41.5223 34.0079 39.3848 35.3282 38.4401 37.7481C38.5522 37.7129 39.1273 37.955 40.1652 38.4744C41.2023 38.993 41.8266 39.4886 42.0378 39.9612C42.2533 40.4341 42.2306 40.837 41.9697 41.1699C41.7162 41.4952 41.5346 41.8603 41.4249 42.2651C41.3433 42.5734 41.4228 43.347 41.6633 44.586C42.8328 45.1581 44.4595 44.8082 46.5435 43.5362C48.6307 42.2647 49.5557 40.5794 49.3184 38.4801C49.2387 36.9419 48.868 35.5573 48.2061 34.3262C49.1089 35.0389 49.9885 36.0319 50.8449 37.3054L51.4464 38.1964C52.7968 39.3442 54.1266 39.9079 55.4357 39.8874C56.1971 39.8766 57.088 39.6553 58.1084 39.2235C59.4276 38.5675 60.485 37.8506 61.2805 37.0728C61.9063 36.5015 62.4038 35.6919 62.773 34.644C63.9468 34.0233 64.8982 33.8114 65.6273 34.0085C65.7623 33.5354 65.7888 33.0625 65.7068 32.5898C65.0015 33.0558 64.3394 33.1901 63.7206 32.9927C63.3741 32.9041 63.0469 32.7849 62.7389 32.6352C62.0417 32.3002 61.4497 31.8103 60.9628 31.1655C60.2553 30.2386 59.9035 29.185 59.9073 28.0047C59.9098 27.6144 59.9627 27.2399 60.0662 26.8811C59.9107 26.7282 59.4492 26.7282 58.6816 26.8811C57.3434 26.2033 56.4241 25.7664 55.9237 25.5703C55.8738 25.6366 55.8227 25.7028 55.7705 25.7689C55.5039 26.1087 55.2353 26.4492 54.9647 26.7903C54.6855 27.1328 54.4055 27.4789 54.1248 27.8288C54.1218 27.8344 54.118 27.8401 54.1135 27.8458C53.8394 28.2689 53.5632 28.4429 53.285 28.3679C53.0465 28.3039 52.8516 28.1242 52.7005 27.8288C52.676 27.7791 52.6514 27.7261 52.6267 27.6699C52.4706 27.2794 52.6049 27.0657 53.0296 27.0286C53.3299 27.0065 53.9409 26.458 54.8625 25.383C54.921 25.3142 54.9796 25.2424 55.0384 25.1674C54.6235 24.9995 53.9539 24.7573 53.0296 24.441C52.7478 24.0283 52.3581 23.6443 51.8606 23.289C50.9344 22.7928 49.9829 22.6679 49.0063 22.9145ZM50.6008 27.3748C50.8014 27.4353 50.9848 27.5394 51.1513 27.6869C51.3215 27.8382 51.4691 28.0028 51.5939 28.1806C51.715 28.347 51.819 28.523 51.906 28.7083C52.0044 28.9051 52.0933 29.1112 52.1727 29.3269C52.2446 29.516 52.2824 29.7146 52.2862 29.9227C52.2673 29.8887 52.2503 29.8546 52.2351 29.8206C52.099 29.5633 51.9609 29.3174 51.8209 29.0829C51.6847 28.8483 51.522 28.627 51.3329 28.4189C51.1437 28.2109 50.9224 28.0368 50.6689 27.8969C50.4155 27.7455 50.1525 27.7266 49.8802 27.8401C49.6948 27.9233 49.5624 28.0501 49.4829 28.2203C49.3732 28.4662 49.2862 28.7235 49.2219 28.9921C49.1538 29.2682 49.1103 29.5501 49.0914 29.8376C49.0735 30.0842 49.0622 30.3282 49.0573 30.5696C49.0559 30.4722 49.0503 30.3738 49.0403 30.2745C49.0214 30.0513 49.0176 29.8262 49.029 29.5993C49.0403 29.3836 49.0668 29.1718 49.1084 28.9637C49.15 28.7443 49.1973 28.5343 49.2503 28.3338C49.307 28.1295 49.3959 27.9479 49.517 27.789C49.6494 27.6188 49.8121 27.4977 50.005 27.4259C50.2017 27.3426 50.4003 27.3256 50.6008 27.3748ZM57.7055 28.2203C58.1823 28.3933 58.6098 28.6884 58.988 29.1056C59.6122 29.7903 59.9243 30.6075 59.9243 31.557C59.9243 32.5066 59.6122 33.318 58.988 33.9914C58.3638 34.6648 57.6053 35.0015 56.7125 35.0015C55.8121 35.0015 55.0403 34.6592 54.3972 33.9744C53.7541 33.2859 53.4325 32.4574 53.4325 31.4889C53.4325 30.5167 53.7541 29.6938 54.3972 29.0204C54.4156 29.0012 54.4345 28.9823 54.4539 28.9637C55.085 28.3325 55.8379 28.026 56.7125 28.0444C57.0643 28.0519 57.3954 28.1105 57.7055 28.2203Z" fill="#512D2A"/>
<path d="M5.91868 47.1226C5.53288 47.7584 5.53477 48.3656 5.92435 48.9442C6.52965 49.2279 7.00442 49.0879 7.34869 48.5242C7.70799 47.9376 7.87067 47.4326 7.83671 47.0091C7.80292 46.5862 7.57214 46.3403 7.1444 46.2714C6.71664 46.2025 6.30807 46.4863 5.91868 47.1226ZM15.0038 42.3956C14.9509 41.7337 14.5556 41.3554 13.8178 41.2607C13.1822 41.1737 12.5637 41.2361 11.9622 41.448C11.4288 41.6409 10.9256 41.8849 10.4527 42.18C9.89661 42.5318 9.41615 42.9631 9.01136 43.4738C8.57252 44.0375 8.45714 44.6636 8.66521 45.3521C8.83545 45.598 9.05676 45.7739 9.32914 45.8799C9.95713 46.1144 10.6003 46.122 11.2585 45.9026C11.8372 45.7095 12.3839 45.4617 12.8985 45.1592C13.4133 44.8569 13.9051 44.4861 14.3739 44.0469C14.8465 43.6077 15.0564 43.0573 15.0038 42.3956ZM16.1784 40.6195C16.2576 40.6427 16.3446 40.6673 16.4395 40.6932C16.5341 40.7159 16.6513 40.7273 16.7913 40.7273C17.2301 40.7273 17.6898 40.6592 18.1702 40.523C18.9609 40.2998 19.3562 39.948 19.3562 39.4675C19.3562 39.2405 19.2333 39.0665 18.9874 38.9454C18.768 38.8357 18.4842 38.7809 18.1362 38.7809C17.5082 38.7809 16.9956 38.9511 16.5984 39.2916C16.2579 39.5829 16.0876 39.9026 16.0876 40.2506C16.0876 40.4587 16.1179 40.5816 16.1784 40.6195ZM56.2471 34.3603C55.9747 34.1447 55.7175 33.9139 55.4754 33.668C55.1576 33.354 54.9117 32.9927 54.7377 32.5841C54.5826 32.2247 54.5126 31.8389 54.5277 31.4265C54.3159 31.6043 54.1797 31.7954 54.1191 31.9997C54.0359 32.2985 54.0378 32.5974 54.1248 32.8963C54.2761 33.3918 54.5599 33.7891 54.976 34.0879C55.3354 34.349 55.7345 34.4606 56.1734 34.4227L56.2471 34.3603Z" fill="#8C3630"/>
<path d="M38.3946 37.8672C38.3907 37.8834 38.385 37.8985 38.3776 37.9126C38.3639 37.958 38.3488 38.0015 38.3322 38.0432C38.8463 38.2914 39.3438 38.56 39.8246 38.849C39.9562 38.9326 40.0735 39.0215 40.1765 39.1157C40.9672 39.8356 41.0164 40.8967 40.324 42.2992C40.1958 42.5637 40.0407 42.8398 39.8587 43.1277C39.4512 43.7717 38.9121 44.4753 38.2414 45.2386C35.4724 48.4095 31.3375 51.4095 25.8366 54.2386C20.3363 57.0728 14.8508 58.2607 9.38016 57.8023C5.70128 57.0246 3.1004 56.3002 1.57751 55.6289C4.90419 59.197 8.25791 61.2266 11.6387 61.7178C12.3804 61.0417 13.0803 60.425 13.7383 59.8679C14.3532 59.341 14.8923 58.9552 15.3556 58.7103C15.8405 58.4561 16.2661 58.3199 16.6324 58.3017C17.6222 58.3853 18.3561 58.8525 18.8341 59.7033C18.9602 60.2134 18.7408 60.6182 18.1759 60.9177C17.6308 61.2207 17.0898 61.3985 16.5529 61.4511C16.0947 61.7825 15.6502 62.1248 15.2194 62.4782C23.4121 63.3568 31.3377 60.3889 38.9962 53.5747C38.3888 52.8571 37.6813 52.2726 36.8738 51.8212C36.269 49.4984 37.1845 48.267 39.6204 48.127C39.9348 48.1756 40.1448 48.2929 40.2502 48.4789C40.6101 49.0705 40.9544 49.7023 41.283 50.3742C41.3342 50.477 41.3834 50.5791 41.4306 50.6806C41.6437 51.127 41.8499 51.5885 42.0491 52.0652C44.3591 52.28 46.4341 51.9262 48.2742 51.0041C47.7924 50.7369 47.4519 50.7179 47.2528 50.9473C46.762 51.2847 46.3232 50.8912 45.9362 49.767C45.5534 48.6425 45.9355 47.5946 47.0825 46.6232C48.2293 45.6522 49.4853 46.1345 50.8505 48.0703C50.903 48.1425 50.956 48.2144 51.0094 48.2859C53.469 45.7891 54.392 43.5287 53.7786 41.5047C54.2847 41.4266 54.8295 41.2923 55.4129 41.1018C57.1556 40.5349 58.9564 39.7254 60.8152 38.673C63.5842 37.1164 65.1883 35.5615 65.6273 34.0085C64.8982 33.8114 63.9467 34.0233 62.7729 34.644C62.4038 35.692 61.9063 36.5015 61.2805 37.0728C60.4849 37.8506 59.4276 38.5675 58.1084 39.2235C57.0879 39.6553 56.197 39.8767 55.4356 39.8874C54.1265 39.9079 52.7968 39.3442 51.4463 38.1964L50.8448 37.3055C49.9885 36.0319 49.1089 35.0389 48.2061 34.3263C48.8679 35.5574 49.2387 36.942 49.3183 38.4801C49.5556 40.5794 48.6306 42.2648 46.5434 43.5362C44.4595 44.8082 42.8327 45.1581 41.6632 44.586C41.4227 43.347 41.3433 42.5734 41.4249 42.2651C41.5346 41.8603 41.7162 41.4952 41.9697 41.1699C42.2306 40.837 42.2533 40.4341 42.0378 39.9612C41.8265 39.4886 41.2023 38.993 40.1651 38.4744C39.1272 37.9551 38.5522 37.7129 38.44 37.7481C38.4264 37.7875 38.4113 37.8272 38.3946 37.8672ZM51.1512 27.6869C50.9848 27.5394 50.8013 27.4353 50.6008 27.3748C50.4003 27.3256 50.2017 27.3427 50.005 27.4259C49.812 27.4978 49.6494 27.6188 49.517 27.7891C49.3959 27.948 49.307 28.1295 49.2502 28.3338C49.1973 28.5343 49.15 28.7443 49.1084 28.9637C49.0668 29.1718 49.0403 29.3836 49.0289 29.5993C49.0176 29.8263 49.0214 30.0514 49.0403 30.2746C49.0502 30.3739 49.0559 30.4722 49.0573 30.5696C49.0621 30.3283 49.0735 30.0843 49.0914 29.8376C49.1103 29.5501 49.1538 29.2683 49.2219 28.9921C49.2862 28.7235 49.3732 28.4662 49.4829 28.2203C49.5623 28.0501 49.6948 27.9234 49.8801 27.8401C50.1525 27.7266 50.4154 27.7456 50.6689 27.8969C50.9224 28.0369 51.1437 28.2109 51.3328 28.4189C51.522 28.627 51.6847 28.8483 51.8209 29.0829C51.9608 29.3174 52.0989 29.5633 52.2351 29.8206C52.2502 29.8546 52.2673 29.8887 52.2862 29.9227C52.2824 29.7147 52.2446 29.516 52.1727 29.3269C52.0932 29.1113 52.0043 28.9051 51.906 28.7084C51.819 28.523 51.7149 28.3471 51.5939 28.1806C51.469 28.0028 51.3215 27.8382 51.1512 27.6869Z" fill="#2F1C19"/>
<path d="M58.988 29.1054C58.6098 28.6882 58.1823 28.3932 57.7055 28.2201C57.3954 28.1103 57.0643 28.0517 56.7124 28.0442C55.8379 28.0259 55.085 28.3323 54.4539 28.9635C54.4345 28.9822 54.4156 29.0011 54.3972 29.0203C53.7541 29.6937 53.4325 30.5165 53.4325 31.4887C53.4325 32.4572 53.7541 33.2857 54.3972 33.9742C55.0403 34.659 55.8121 35.0014 56.7124 35.0014C57.6053 35.0014 58.3638 34.6647 58.988 33.9913C59.6122 33.3179 59.9243 32.5064 59.9243 31.5568C59.9243 30.6073 59.6122 29.7901 58.988 29.1054ZM57.4728 28.8387C57.7377 28.8387 57.9627 28.9314 58.1481 29.1167C58.3335 29.3021 58.4262 29.5272 58.4262 29.792C58.4262 30.0567 58.3524 30.2308 58.2049 30.3141C58.0611 30.4014 57.8682 30.4165 57.6261 30.3595C57.3839 30.3025 57.138 30.259 56.8884 30.229C56.6424 30.2026 56.5195 30.0569 56.5195 29.792C56.5195 29.5272 56.6122 29.3021 56.7976 29.1167C56.9829 28.9314 57.208 28.8387 57.4728 28.8387ZM55.4754 33.6678C55.7175 33.9137 55.9747 34.1445 56.2471 34.3601L56.1734 34.4225C55.7345 34.4604 55.3354 34.3488 54.976 34.0877C54.5599 33.7889 54.2761 33.3917 54.1248 32.8961C54.0378 32.5972 54.0359 32.2983 54.1191 31.9995C54.1796 31.7952 54.3159 31.6041 54.5277 31.4263C54.5126 31.8387 54.5826 32.2246 54.7377 32.584C54.9117 32.9925 55.1576 33.3538 55.4754 33.6678Z" fill="#120D0D"/>
<path d="M58.1482 29.1169C57.9628 28.9316 57.7377 28.8389 57.4729 28.8389C57.2081 28.8389 56.983 28.9316 56.7976 29.1169C56.6122 29.3023 56.5195 29.5274 56.5195 29.7922C56.5195 30.0571 56.6425 30.2028 56.8884 30.2292C57.1381 30.2591 57.384 30.3026 57.6261 30.3597C57.8682 30.4167 58.0611 30.4016 58.2049 30.3143C58.3524 30.2309 58.4262 30.0569 58.4262 29.7922C58.4262 29.5274 58.3335 29.3023 58.1482 29.1169Z" fill="#ECBBBA"/>
<path d="M89.9999 23.5444L88.2067 25.105C86.0157 26.7893 84.249 27.8372 82.9066 28.2487C80.8588 28.8791 78.9654 29.0078 77.2263 28.6346C74.8875 28.0448 72.8485 27.8064 71.109 27.9196C69.3699 28.0356 67.8434 28.5218 66.5296 29.378C64.845 30.4836 63.5815 31.5693 62.7389 32.6352C63.0469 32.7849 63.3741 32.9041 63.7206 32.9927C64.3394 33.1901 65.0014 33.0558 65.7067 32.5898L68.1638 30.4391C69.8313 29.6454 71.2008 29.2955 72.2723 29.3893C72.4309 29.4024 73.4126 29.4856 75.2174 29.639C77.0255 29.796 78.3647 29.9019 79.2351 29.9568C80.1088 30.0145 81.605 29.6872 83.7237 28.9751C85.8426 28.2639 87.9346 26.4537 89.9999 23.5444Z" fill="#7B3A32"/>
<path d="M86.7371 23.7429C85.8253 24.3937 84.8266 24.9782 83.7408 25.4964C82.6588 26.0182 81.6166 26.3492 80.6141 26.4894C79.6159 26.633 78.3278 26.6557 76.7497 26.5575C75.1752 26.4646 73.6998 26.1771 72.3235 25.695C70.9469 25.2164 69.1953 24.84 67.0687 24.5657C64.9425 24.2912 62.7218 24.8133 60.4067 26.1319C60.3499 26.1963 60.3046 26.2662 60.2705 26.3419C60.1898 26.5175 60.1217 26.6972 60.0662 26.881C59.9628 27.2398 59.9098 27.6143 59.9073 28.0046C59.9035 29.1849 60.2554 30.2385 60.9628 31.1654C61.4497 31.8102 62.0418 32.3001 62.739 32.6351C63.5815 31.5692 64.8451 30.4835 66.5296 29.3778C67.8435 28.5216 69.37 28.0355 71.1091 27.9195C72.8485 27.8063 74.8876 28.0446 77.2264 28.6345C78.9654 29.0076 80.8589 28.879 82.9067 28.2486C84.249 27.8371 86.0158 26.7891 88.2068 25.1048L90 23.5443C89.8306 22.9932 89.0134 22.8608 87.5485 23.1471C87.2799 23.3476 87.0094 23.5462 86.7371 23.7429Z" fill="#8D5251"/>
</svg>
