<svg width="90" height="90" viewBox="0 0 90 90" fill="none" xmlns="http://www.w3.org/2000/svg">
<path d="M25.0396 75.1954L23.955 72.3807L16.86 70.4739L15.8115 71.5453L15.7664 73.6064C15.9833 74.575 16.1219 75.0592 16.1821 75.0592C16.2122 75.0592 17.2637 75.3256 19.3365 75.8583C21.4032 76.3789 22.4456 76.6119 22.4637 76.5574C22.4757 76.5151 22.9156 76.2881 23.7833 75.8764C24.6389 75.4709 25.0576 75.2439 25.0396 75.1954ZM25.8078 44.2691C25.0004 43.3672 24.5726 42.8859 24.5244 42.8254C24.434 42.7043 23.5242 42.438 21.7948 42.0264L21.4062 43.3066C21.129 44.2389 20.9543 44.9198 20.882 45.3496C20.8097 45.7794 20.9362 46.3878 21.2616 47.1747C21.4243 47.5682 21.593 47.9193 21.7677 48.228L22.6716 49.363L27.3262 50.1348C27.2961 49.4689 27.263 48.7909 27.2268 48.1009C27.1485 46.7147 27.0912 45.955 27.0551 45.8218C27.0189 45.6947 26.6032 45.1771 25.8078 44.2691Z" fill="#7E3115"/>
<path d="M78.3829 51.3874C78.5335 51.2542 78.5968 50.9939 78.5727 50.6065C78.5185 49.8377 78.0485 48.8359 77.1627 47.601C76.277 46.3662 75.5419 45.4915 74.9574 44.9769C74.1982 44.4079 73.4721 43.8208 72.7792 43.2154C70.9414 42.1258 69.42 41.7778 68.2149 42.1712C67.2086 42.5102 66.5308 43.3092 66.1813 44.5683C65.868 45.7003 65.8891 46.8535 66.2446 48.0278C66.6121 49.2385 67.1936 49.9649 67.9889 50.207C68.5915 50.437 69.3477 51.0181 70.2575 51.9503C70.7155 52.4164 71.1101 52.8614 71.4415 53.2851L73.0503 55.0194L76.1233 55.8638L78.3829 51.3874Z" fill="#0F0117"/>
<path d="M39.4191 88.3517C39.6576 88.2133 39.8896 88.065 40.1151 87.9068C40.9647 87.0169 41.2659 86.2663 41.0189 85.6549C40.9225 85.4189 40.7538 85.2585 40.5127 85.1737C40.4137 85.138 40.3113 85.1198 40.2054 85.1192C39.7295 85.7126 39.2354 86.2635 38.7232 86.7718C37.2289 88.2488 35.9243 89.1447 34.8096 89.4594C36.3164 89.6352 37.8529 89.266 39.4191 88.3517ZM27.2356 66.9956C26.157 65.5428 25.1869 64.6833 24.3253 64.4169C24.4848 65.1418 24.6354 65.8955 24.7772 66.6778C24.9915 67.2446 25.2024 67.7652 25.4099 68.2396L25.8979 69.4382C26.2776 70.4127 26.5999 71.348 26.865 72.2439C27.7267 75.1071 27.8743 77.0108 27.3079 77.9552C26.7837 78.8389 25.7865 79.9497 24.3163 81.2875C22.7557 82.704 21.9151 83.4969 21.7946 83.6664C21.421 84.1931 21.2011 84.641 21.1348 85.0103C21.0685 85.4158 21.168 85.8184 21.4331 86.2179C21.5807 86.639 21.8639 86.9962 22.2827 87.2893C21.0717 85.4449 21.7254 83.6683 24.244 81.9594C25.0273 81.4267 25.9552 80.9334 27.0277 80.4794C27.2393 80.3886 27.4381 80.3069 27.6242 80.2342C27.9128 80.0984 28.1689 80.0046 28.3925 79.9527L28.5733 71.5901L28.9167 72.1077C29.218 72.5314 29.5464 72.94 29.9019 73.3335C31.0286 74.5925 32.2006 75.4672 33.4177 75.9576C33.581 75.6264 33.7527 75.2571 33.9329 74.8498L34.7192 72.9612C32.3695 71.353 30.2787 69.428 28.4467 67.1863C28.6337 67.847 28.6819 68.4826 28.5913 69.0931C28.2238 68.4212 27.7719 67.722 27.2356 66.9956ZM23.4305 60.9938L24.3163 61.702C24.6563 61.9857 24.9787 62.2733 25.2833 62.5646C24.4818 61.1576 23.7527 59.6594 23.0961 58.0701C22.9704 57.7653 22.8469 57.4596 22.7255 57.153C22.7293 57.1518 22.7293 57.1487 22.7255 57.1439C22.7617 58.0337 22.9967 59.317 23.4305 60.9938ZM43.9292 39.1565L42.5373 38.5845C42.0848 39.0373 41.5998 39.3914 41.0821 39.6468C40.7869 40.5911 40.2597 41.4507 39.5005 42.2255C38.1869 43.5573 36.4727 44.205 34.3577 44.1686C32.285 44.1323 30.6219 43.3484 29.3686 41.8169C28.977 41.3387 28.6516 40.8121 28.3925 40.237L28.1123 39.5288C27.6285 39.3313 27.1494 39.065 26.6752 38.7297C25.6107 39.5002 24.74 40.5655 24.0632 41.9259C25.0736 42.9572 25.9714 43.6715 26.7566 44.0688L27.1091 45.004C27.4405 45.7486 27.8382 46.4296 28.3021 47.047C29.7784 49.0143 31.6463 49.9586 33.9058 49.8799C36.2919 49.8012 38.1688 49.0748 39.5366 47.7007C40.4525 46.7746 41.1062 45.5942 41.4979 44.1596L43.4954 42.4616C43.6507 41.3783 43.7954 40.2766 43.9292 39.1565Z" fill="#EEB990"/>
<path d="M47.192 87.9067C47.7222 87.8583 48.1741 87.7493 48.5477 87.5798C49.3371 87.9975 50.1776 88.0913 51.0694 87.8613C51.5153 87.7463 51.8798 87.5889 52.163 87.3891C52.5004 87.6131 52.9343 87.7433 53.4645 87.7796C53.7296 87.7977 53.9616 87.7917 54.1605 87.7614L57.4504 87.0895C57.8721 86.8958 58.1794 86.581 58.3723 86.1452C58.5651 85.7094 58.5771 85.2917 58.4084 84.8922C57.9625 83.857 56.664 83.5423 54.5129 83.9479C51.8195 84.4563 49.5329 84.6198 47.6529 84.4382C45.4657 84.2202 44.2877 83.5423 44.119 82.4043C43.9141 83.1367 43.6279 83.8268 43.2604 84.4745C43.0193 84.8861 42.6427 85.437 42.1306 86.127C42.5102 86.6961 43.0163 87.0471 43.649 87.1803C43.9623 87.253 44.2395 87.2651 44.4805 87.2166C45.2337 87.7856 46.1375 88.0157 47.192 87.9067ZM22.2827 87.2893C22.3937 87.3709 22.5142 87.4465 22.6442 87.5163C22.9515 87.6797 23.2407 87.7917 23.5119 87.8522C24.1927 89.0629 25.1357 89.6077 26.3408 89.4866C26.9434 89.4261 27.4766 89.2445 27.9406 88.9418C28.8444 89.9285 29.9441 90.2251 31.2395 89.8316C31.8903 89.6319 32.4476 89.3353 32.9116 88.9418L34.8096 89.4594C35.9243 89.1446 37.2289 88.2487 38.7232 86.7717C39.2354 86.2634 39.7295 85.7125 40.2054 85.1192C40.0687 85.1192 39.9271 85.1525 39.7806 85.219C38.4068 85.8486 37.033 86.2723 35.6592 86.4902C32.9357 86.9261 30.2725 86.6234 27.6694 85.5822C25.0484 84.535 24.253 83.3244 25.2834 81.9503C25.6389 81.4781 26.1842 81.0302 26.9193 80.6064C27.1727 80.4584 27.4076 80.3343 27.6243 80.2341C27.4381 80.3068 27.2393 80.3885 27.0277 80.4793C25.9552 80.9333 25.0273 81.4267 24.244 81.9593C21.7255 83.6682 21.0717 85.4449 22.2827 87.2893ZM25.898 69.4381L25.4099 68.2395C25.2024 67.7652 24.9915 67.2446 24.7772 66.6778C25.0751 68.319 25.3342 70.0865 25.5545 71.9805C26.0667 76.3691 25.9582 79.0265 25.2291 79.9527C24.2831 81.1573 22.9304 82.15 21.171 82.9309C19.1524 83.8268 16.8296 84.3171 14.2025 84.4018C11.8707 84.4805 10.4758 84.0447 10.0178 83.0943C9.87321 82.7977 9.83103 82.4678 9.89128 82.1046L10.0269 81.6506C9.40021 82.2438 8.95131 82.7675 8.68016 83.2215C8.07761 84.2445 8.00531 85.1706 8.46325 85.9999C8.92721 86.8474 9.69244 87.0714 10.7589 86.6718C11.3976 87.4285 12.1779 87.6706 13.0998 87.3982C13.5638 87.2651 13.9615 87.0532 14.2929 86.7626C15.1244 87.3316 15.9619 87.4406 16.8055 87.0895C17.2273 86.92 17.5647 86.69 17.8178 86.3994C18.4565 86.8898 19.2519 87.0078 20.2039 86.7535C20.6799 86.6264 21.0896 86.4479 21.4331 86.2178C21.168 85.8183 21.0685 85.4158 21.1348 85.0102C21.2011 84.641 21.421 84.193 21.7946 83.6664C21.9151 83.4969 22.7557 82.7039 24.3163 81.2874C25.7865 79.9496 26.7837 78.8389 27.3079 77.9551C27.8743 77.0108 27.7267 75.107 26.865 72.2438C26.5999 71.3479 26.2776 70.4127 25.898 69.4381ZM43.4954 42.4615L41.4979 44.1595C41.1063 45.5941 40.4525 46.7745 39.5366 47.7007C38.1688 49.0748 36.2919 49.8012 33.9058 49.8799C31.6463 49.9586 29.7784 49.0142 28.3021 47.0469C27.8382 46.4295 27.4405 45.7485 27.1091 45.0039L26.7566 44.0687C25.9714 43.6714 25.0736 42.9571 24.0632 41.9258C23.5878 42.895 23.2082 44.0118 22.9244 45.2763C23.7562 47.1773 24.7113 48.5786 25.7895 49.4803C25.2894 49.3956 24.7109 49.1625 24.0542 48.7812C23.5042 48.4568 22.9981 48.0664 22.5357 47.6099C22.4631 48.2506 22.4089 48.9195 22.3731 49.6165C22.3076 50.8911 22.2986 52.1229 22.3459 53.3121L22.59 53.4483C23.1262 53.7933 23.5962 54.1898 23.9999 54.6378C25.3014 56.0784 25.7021 57.7794 25.202 59.7407C24.9791 58.9538 24.6718 58.0851 24.2801 57.1347C23.6508 55.5959 23.0121 54.4125 22.364 53.5845C22.423 54.8189 22.5436 56.0053 22.7255 57.1438C22.7293 57.1487 22.7293 57.1517 22.7255 57.1529C22.8469 57.4596 22.9704 57.7653 23.0961 58.07C23.7527 59.6594 24.4818 61.1575 25.2834 62.5646C25.6205 62.8867 25.9368 63.2136 26.2324 63.5452C27.3848 64.8332 28.1229 66.0469 28.4467 67.1862C30.2787 69.428 32.3696 71.3529 34.7193 72.9611C35.8344 70.6921 36.8527 68.3192 37.7742 65.8424C36.8342 65.9453 35.7225 66.6838 34.4391 68.0579C33.8004 68.748 33.2551 69.426 32.8032 70.0918C32.8996 68.0882 33.8817 66.4266 35.7496 65.1069C36.6896 64.4532 37.6175 63.9962 38.5334 63.7359C39.4191 61.1693 40.2115 58.5088 40.9104 55.7546C40.9084 55.7539 40.9053 55.7539 40.9014 55.7546C40.3243 56.2106 39.7308 56.7282 39.1209 57.3073C38.0303 58.3484 37.1144 59.3412 36.3732 60.2855C36.2889 58.5603 37.3373 56.932 39.5185 55.4005C40.0723 55.0099 40.6447 54.674 41.2358 54.3926C41.6419 52.7112 42.0154 50.986 42.3565 49.217C41.3332 49.4394 40.3029 49.4969 39.2655 49.3895C40.4359 49.0302 41.5507 48.5308 42.6096 47.8914C42.9329 46.128 43.2281 44.3181 43.4954 42.4615ZM41.0731 39.6468C41.0616 39.6538 41.0466 39.6599 41.0279 39.6649C40.1638 40.0777 39.2058 40.2139 38.1538 40.0735C37.3644 39.9706 36.5721 39.7164 35.7767 39.3108C35.2103 39.0202 34.7675 38.7327 34.4481 38.4482C33.3876 39.1443 32.3874 39.5953 31.4474 39.8011C30.3026 40.0493 29.1909 39.9585 28.1123 39.5287L28.3925 40.237C28.6516 40.812 28.977 41.3387 29.3686 41.8169C30.6219 43.3483 32.285 44.1323 34.3577 44.1686C36.4727 44.2049 38.1869 43.5572 39.5005 42.2255C40.2597 41.4506 40.7869 40.5911 41.0822 39.6468C41.0803 39.6462 41.0773 39.6462 41.0731 39.6468ZM51.5303 16.1932C51.1326 15.6787 50.5271 15.37 49.7136 15.2671C48.9243 15.1702 48.1681 15.2852 47.4451 15.6121C46.6557 15.9693 46.1104 16.4989 45.8091 17.2011C45.4657 18.0123 45.5048 18.9475 45.9266 20.0068C47.2101 23.2272 46.2761 25.8604 43.1248 27.9064C42.3716 28.3967 41.9197 29.0293 41.7691 29.8041C41.6244 30.5547 41.8052 31.1631 42.3113 31.6292C43.1007 32.3495 43.646 33.0396 43.9473 33.6994C44.4474 34.789 44.3841 35.8877 43.7575 36.9954C43.3823 37.6182 42.9756 38.1479 42.5373 38.5844L43.9292 39.1564L44.3901 39.3471C45.2216 38.3907 45.8784 37.2103 46.3605 35.8059C46.3666 35.7882 46.3726 35.7701 46.3785 35.7515C46.3782 35.7498 46.3782 35.7468 46.3785 35.7424C46.5213 35.3301 46.6388 34.9185 46.731 34.5075L46.8305 33.9899L48.5929 34.226C49.9486 34.3047 51.0784 34.1352 51.9822 33.7175C52.8861 32.1982 53.1572 29.9887 52.7957 27.0892C52.6812 26.1812 52.5125 25.2581 52.2895 24.3198L51.9822 23.1848L54.1514 22.186C53.9887 21.5383 53.7567 20.7998 53.4555 19.9705C52.8529 18.324 52.2112 17.0649 51.5303 16.1932ZM18.9928 15.2943C17.8841 15.5728 17.161 15.9935 16.8236 16.5564C16.2271 17.4281 15.6848 18.5813 15.1967 20.0159C14.9557 20.7362 14.7749 21.3688 14.6544 21.9136L16.6428 23.1848L16.3988 24.4106C16.2241 25.4154 16.0915 26.3809 16.0011 27.3071C15.7119 30.2914 15.9258 32.3707 16.6428 33.545C17.6069 34.1625 18.6493 34.4591 19.77 34.4349C20.0894 34.4228 20.7944 34.3077 21.885 34.0898C22.0718 34.6709 22.2917 35.4972 22.5448 36.5687C22.7896 37.396 23.124 38.0679 23.548 38.5844C23.5839 38.6284 23.62 38.6707 23.6565 38.7115C23.8372 38.9113 24.0301 39.0929 24.2349 39.2563C24.8375 39.1352 25.5605 38.8931 26.4041 38.5299C25.4099 37.7672 24.9761 36.5747 25.1026 34.9524C25.1508 34.3471 25.2743 33.7751 25.4732 33.2363C25.66 32.7399 25.8498 32.4191 26.0426 32.2738C26.8018 31.7048 27.2688 31.1267 27.4435 30.5396C27.7568 29.4984 27.1392 28.5299 25.5907 27.634C24.0843 26.7623 23.2106 25.2581 22.9696 23.1212C22.8973 22.4554 22.8912 21.7683 22.9515 21.0601L23.06 20.1884C23.1503 19.5104 23.1744 18.7992 23.1323 18.0546C23.0419 16.5716 22.6563 15.6787 21.9754 15.376C21.1499 15.0249 20.1557 14.9977 18.9928 15.2943ZM43.2965 16.3385C41.0008 14.9039 39.3769 14.9432 38.4249 16.4566C37.9489 17.2132 37.7049 18.1121 37.6928 19.1533L38.5966 25.1461C38.7172 25.3277 39.0787 25.5698 39.6812 25.8725C40.567 26.2054 41.4587 26.1388 42.3565 25.6727C43.2242 25.2248 43.9051 24.5074 44.3992 23.5208C44.9294 22.4796 45.1283 21.3597 44.9957 20.1612C44.8451 18.8113 44.2787 17.5371 43.2965 16.3385ZM26.8018 25.7998C27.6996 26.2659 28.5913 26.3325 29.4771 25.9996C30.0796 25.6969 30.4412 25.4548 30.5617 25.2732L31.4655 19.2804C31.4534 18.2393 31.2094 17.3403 30.7334 16.5837C29.7814 15.0704 28.1575 15.031 25.8618 16.4656C24.8797 17.6642 24.3133 18.9384 24.1626 20.2883C24.0301 21.4869 24.2289 22.6067 24.7591 23.6479C25.2532 24.6346 25.9341 25.3519 26.8018 25.7998Z" fill="#FFF9E7"/>
<path d="M48.6924 78.155C47.9211 78.0521 47.195 77.8645 46.5141 77.5921L45.7278 77.2198C47.249 78.6018 48.8487 79.2617 50.5271 79.1992C49.8554 78.9106 49.3011 78.5686 48.8641 78.1732C48.8088 78.1692 48.7515 78.1632 48.6924 78.155ZM24.3163 61.7021L23.4305 60.9939L24.3253 64.417C25.187 64.6834 26.1571 65.543 27.2356 66.9957C27.7719 67.7221 28.2238 68.4213 28.5914 69.0932C28.682 68.4827 28.6338 67.8472 28.4467 67.1864C28.1229 66.0471 27.3848 64.8334 26.2324 63.5454C25.9369 63.2137 25.6205 62.8869 25.2834 62.5647C24.9787 62.2734 24.6563 61.9858 24.3163 61.7021ZM49.6414 68.9298C49.7238 68.6216 49.8021 68.2978 49.8764 67.9582C49.3343 68.4875 48.8703 69.0626 48.4845 69.6834C48.8657 69.4165 49.2514 69.1653 49.6414 68.9298Z" fill="#76240D"/>
<path d="M45.6464 74.7046C45.6698 74.635 45.6939 74.5654 45.7187 74.4957C44.604 74.2778 43.3206 74.1961 41.8685 74.2506C38.9642 74.3535 36.6655 75.0859 34.9723 76.4479L36.328 76.1665C37.4247 75.9546 38.4611 75.7911 39.4372 75.6761C42.5524 75.3129 44.4383 75.4915 45.0951 76.2119C45.2844 75.7218 45.4682 75.2194 45.6464 74.7046ZM52.8408 78.6816C54.1122 78.1671 55.1607 77.4528 55.9861 76.5387C53.6341 77.921 51.2601 78.4658 48.864 78.1731C49.3011 78.5685 49.8554 78.9105 50.5271 79.1992C51.2826 79.1734 52.0539 79.0009 52.8408 78.6816ZM15.9198 68.6029L15.8926 69.1204L16.6518 69.6107C17.2845 69.9921 17.9172 70.325 18.5499 70.6095C20.5925 71.5296 22.2827 71.8111 23.6203 71.454C22.4333 71.1876 20.8275 70.21 18.8029 68.5211L16.1276 66.0605C16.0252 67.0169 15.9559 67.8644 15.9198 68.6029ZM16.6699 62.5465C16.5383 63.2653 16.4358 63.8616 16.3626 64.3353C17.0314 65.0556 17.9413 65.7215 19.0922 66.3329C20.2792 66.9685 21.2011 67.253 21.8579 67.1864C20.5082 66.6053 19.2549 65.5762 18.098 64.0992C17.7364 63.6391 17.405 63.1609 17.1038 62.6646L16.7603 62.0562L16.6699 62.5465ZM17.8178 57.371C17.8205 57.375 17.8205 57.378 17.8178 57.38L18.6041 58.052C19.2609 58.4999 19.9387 58.7148 20.6377 58.6966C19.9809 58.3576 19.3633 57.8431 18.7849 57.153L18.1251 56.2269C18.0662 56.4461 18.0059 56.664 17.9443 56.8806L17.8178 57.371ZM22.59 53.4484L22.3459 53.3122C22.3527 53.4065 22.3587 53.4973 22.364 53.5846C23.0121 54.4126 23.6508 55.5961 24.2801 57.1349C24.6718 58.0852 24.9791 58.9539 25.202 59.7408C25.7021 57.7796 25.3014 56.0786 23.9999 54.6379C23.5962 54.1899 23.1262 53.7935 22.59 53.4484ZM49.8763 67.9582C49.8021 68.2977 49.7238 68.6216 49.6413 68.9297C52.1921 67.4083 54.9638 66.5821 57.9565 66.4509C59.6798 66.3722 61.1168 66.4963 62.2677 66.8232C58.5982 64.6682 55.1998 64.4987 52.0726 66.3147C51.2362 66.8013 50.5041 67.3492 49.8763 67.9582ZM47.1558 70.3735C47.1639 70.346 47.173 70.3187 47.1829 70.2917C46.3333 70.0193 45.303 69.8892 44.0919 69.9013C41.6817 69.9316 39.5908 70.6761 37.8193 72.135L38.9853 71.8807C39.9313 71.687 40.82 71.5478 41.6515 71.463C44.3208 71.1846 45.9326 71.4661 46.487 72.3075C46.7093 71.6834 46.9323 71.0388 47.1558 70.3735ZM50.4276 57.4708L46.0893 59.5592L50.1927 59.1143C50.293 58.5304 50.3713 57.9826 50.4276 57.4708ZM42.2029 67.6404L44.6613 67.3771C46.379 67.2926 47.4666 67.4833 47.9241 67.9491C47.933 67.9321 47.939 67.914 47.9421 67.8946C48.055 67.5406 48.1665 67.1835 48.2766 66.8232L48.3579 66.5508C47.9783 66.2965 47.439 66.1482 46.7401 66.1059C45.3361 66.0332 43.8237 66.5447 42.2029 67.6404ZM32.8031 70.092C33.255 69.4261 33.8003 68.7481 34.439 68.0581C35.7225 66.684 36.8342 65.9455 37.7742 65.8426C38.0361 65.149 38.2891 64.4468 38.5334 63.736C37.6175 63.9963 36.6896 64.4533 35.7496 65.1071C33.8817 66.4267 32.8995 68.0883 32.8031 70.092ZM42.4108 53.9115C42.0123 54.0489 41.6206 54.2093 41.2358 54.3927C40.6447 54.6741 40.0723 55.0101 39.5185 55.4006C37.3373 56.9321 36.2889 58.5604 36.3732 60.2856C37.1144 59.3413 38.0302 58.3486 39.1208 57.3074C39.7308 56.7283 40.3243 56.2107 40.9014 55.7547C40.9053 55.754 40.9083 55.754 40.9104 55.7547C42.4091 54.576 43.804 53.8163 45.0951 53.4757C44.3299 53.4091 43.4351 53.5543 42.4108 53.9115ZM57.4323 48.4817C56.7152 47.5071 55.9379 46.5598 55.1004 45.6397L54.9016 46.8019C54.7208 47.7523 54.5069 48.6754 54.2599 49.5713C53.4524 52.4527 52.4462 54.5259 51.2411 55.791C52.5968 55.1857 54.0369 53.7874 55.5614 51.5961C56.3206 50.4944 56.9442 49.4563 57.4323 48.4817ZM51.4128 42.1348C50.7687 41.5942 50.0818 41.0706 49.3521 40.564C48.8339 41.6778 48.0235 42.8824 46.9208 44.1778C45.6061 45.7187 44.1691 46.9566 42.6096 47.8915C41.5506 48.5309 40.4359 49.0303 39.2655 49.3897C40.3028 49.497 41.3332 49.4395 42.3565 49.2172C43.5313 48.9606 44.6972 48.4884 45.8543 47.8007C48.0297 46.5027 49.8826 44.6141 51.4128 42.1348ZM67.4556 69.9195C66.4012 69.5563 65.1539 69.411 63.7138 69.4836C60.8216 69.6349 58.3963 70.8063 56.4381 72.9976L57.7576 72.4255C58.8482 72.0018 59.9057 71.6991 60.93 71.5175C64.2116 70.9258 66.5736 71.6129 68.016 73.5787C67.9822 72.9978 67.9219 72.4136 67.8352 71.8262C67.7388 71.1846 67.6123 70.549 67.4556 69.9195ZM70.3479 69.2748C70.3471 69.2788 70.3471 69.2818 70.3479 69.2839L70.9896 69.2385C71.5078 69.2142 72.0019 69.2233 72.4719 69.2657C73.9601 69.3989 74.8911 69.8256 75.2647 70.546C75.2466 69.523 74.6079 68.6997 73.3486 68.0762C72.9569 67.8825 72.5261 67.7191 72.0561 67.5859L71.4686 67.4497C71.4339 67.5173 71.3978 67.5839 71.3601 67.6495C71.3549 67.6649 71.3489 67.6801 71.3421 67.6949C71.0401 68.2559 70.7087 68.7825 70.3479 69.2748ZM72.2911 65.4794C72.2906 65.4837 72.2906 65.4868 72.2911 65.4884C73.0081 65.0587 73.7914 64.7984 74.641 64.7076C75.1291 64.6591 75.8642 64.6137 76.8463 64.5714C76.1293 64.0992 75.2195 63.8752 74.1168 63.8994L72.6797 64.081C72.6134 64.4019 72.4839 64.868 72.2911 65.4794ZM60.6951 53.9751C60.1708 52.8611 59.5834 51.7745 58.9326 50.7154C58.7518 52.2045 58.0017 53.9327 56.6821 55.9C55.5433 57.601 54.3472 58.9872 53.0939 60.0586C54.8293 59.9618 56.6188 58.9206 58.4626 56.9351C59.3831 55.9379 60.1272 54.9512 60.6951 53.9751ZM62.6925 59.3685C62.6941 59.3621 62.6941 59.356 62.6925 59.3504C62.4997 58.6785 62.34 58.1518 62.2135 57.7705C62.0267 57.1833 61.8188 56.6022 61.5898 56.0271C61.1138 57.0804 60.4781 58.1791 59.6828 59.3231C58.086 61.6234 56.4772 63.0187 54.8564 63.509L55.4077 63.6634C55.8837 63.736 56.4049 63.7027 56.9713 63.5635C58.779 63.1277 60.686 61.7293 62.6925 59.3685ZM73.5203 56.018L72.517 55.8909C72.6255 56.3025 72.7159 56.7384 72.7882 57.1984L73.7282 57.5526C74.4934 57.7826 75.2255 57.8976 75.9244 57.8976C78.1659 57.8794 79.6633 56.6748 80.4164 54.2838L79.7747 52.3861C79.3694 54.3718 78.0408 55.5522 75.7889 55.9272C75.0839 56.0423 74.3277 56.0725 73.5203 56.018ZM73.0232 59.5047C73.0282 59.5472 73.0312 59.5895 73.0322 59.6319C73.0429 59.8905 73.0489 60.1538 73.0503 60.4218C73.0521 60.577 73.0521 60.7314 73.0503 60.8849L80.9045 60.8032C80.9641 60.3861 81.0062 59.9654 81.031 59.5411C79.9784 59.1011 78.3575 58.9589 76.1685 59.1143L73.0232 59.5047Z" fill="#7E3115"/>
<path d="M29.9019 73.3334C29.5464 72.9399 29.218 72.5313 28.9167 72.1076L28.5733 71.59L28.3925 79.9527C29.1457 79.7771 29.8567 79.5229 30.5255 79.19C31.4113 78.7541 32.056 78.2517 32.4597 77.6827C32.7258 77.3136 33.0451 76.7385 33.4178 75.9575C32.2006 75.4672 31.0287 74.5925 29.9019 73.3334ZM20.6196 49.435C20.5052 49.6166 20.3877 49.8405 20.2672 50.1069L21.8579 56.9259C22.8923 61.0141 23.8654 64.2647 24.7772 66.6778C24.6354 65.8954 24.4848 65.1418 24.3253 64.4169L23.4305 60.9937C22.9967 59.317 22.7617 58.0337 22.7255 57.1438C22.0659 55.4298 21.5267 53.6925 21.1077 51.9319L20.6196 49.435ZM23.6565 38.7115C23.62 38.6707 23.5839 38.6284 23.548 38.5844L22.5448 40.2279H22.5538L23.9095 41.7715C23.9619 41.8258 24.0131 41.8773 24.0632 41.9258C24.74 40.5655 25.6107 39.5001 26.6752 38.7297C26.5861 38.6668 26.4957 38.6002 26.4041 38.5299C25.5605 38.8931 24.8375 39.1353 24.2349 39.2563C24.0301 39.0929 23.8372 38.9113 23.6565 38.7115ZM50.7169 61.2571C50.7492 60.4871 50.7613 59.7547 50.753 59.0597L50.1927 59.1142C49.8553 61.1057 49.2437 63.5845 48.3579 66.5507L48.2766 66.8231C48.1665 67.1834 48.055 67.5405 47.9422 67.8945C47.9391 67.9138 47.933 67.932 47.9241 67.949C47.9268 67.9529 47.9268 67.9559 47.9241 67.958C47.9233 67.9693 47.9203 67.9784 47.915 67.9853C47.9098 68.0085 47.9037 68.0297 47.897 68.0488C47.8848 68.088 47.8728 68.1274 47.8608 68.1669C47.8489 68.2062 47.8369 68.2455 47.8247 68.2849C47.7514 68.5158 47.6761 68.7458 47.5987 68.975C47.5543 69.1243 47.5091 69.2726 47.4631 69.4199L47.1829 70.2825V70.2916C47.173 70.3186 47.164 70.3458 47.1558 70.3733C46.9323 71.0386 46.7093 71.6833 46.487 72.3074C46.3299 72.7441 46.1732 73.1708 46.017 73.5876C45.9185 73.8931 45.8191 74.1928 45.7188 74.4865V74.4956C45.694 74.5653 45.6698 74.6349 45.6465 74.7045C45.4682 75.2192 45.2845 75.7216 45.0951 76.2117C43.7163 79.8298 42.0864 82.7989 40.2055 85.1192C40.3113 85.1198 40.4138 85.1379 40.5128 85.1736C40.7538 85.2584 40.9225 85.4188 41.0189 85.6549C41.2659 86.2663 40.9647 87.0169 40.1151 87.9067C40.1251 87.9018 40.1342 87.8958 40.1422 87.8885L42.1306 86.127C42.6427 85.437 43.0193 84.8861 43.2604 84.4745C43.6279 83.8268 43.9141 83.1367 44.119 82.4043C45.5892 81.0846 47.7975 80.4611 50.744 80.5338C51.7623 80.558 52.7897 80.667 53.826 80.8607C54.6455 81.012 55.236 81.1633 55.5975 81.3147C55.8506 81.4236 56.0735 81.4206 56.2664 81.3056C56.4351 81.2087 56.5465 81.0574 56.6008 80.8516C56.661 80.6458 56.6429 80.4642 56.5465 80.3068C56.4501 80.1312 56.2844 80.0435 56.0494 80.0435C55.4469 80.0435 54.9618 80.0314 54.5943 80.0072C54.0158 79.9708 53.2355 79.8921 52.2534 79.7711C51.6104 79.6103 51.035 79.4196 50.5271 79.199C48.8487 79.2615 47.249 78.6017 45.7278 77.2196L46.5141 77.5919C47.195 77.8643 47.9211 78.0519 48.6923 78.1548C48.7515 78.163 48.8088 78.1691 48.8641 78.173C48.2366 77.605 47.86 76.927 47.7343 76.1391C47.5595 75.0374 47.9512 73.3697 48.9092 71.136C49.1785 70.5129 49.4225 69.7775 49.6413 68.9296C49.2513 69.1651 48.8657 69.4163 48.4845 69.6832C48.8703 69.0624 49.3343 68.4874 49.8763 67.958C49.959 67.5862 50.0373 67.1957 50.1113 66.7867C50.4307 65.0252 50.6325 63.182 50.7169 61.2571ZM46.3785 35.7515C46.3726 35.7701 46.3666 35.7882 46.3605 35.8059C45.8784 37.2103 45.2217 38.3907 44.3901 39.3471L43.9292 39.1564C43.7954 40.2765 43.6508 41.3782 43.4954 42.4616L43.7575 42.2436C45.389 40.7134 46.5097 39.3212 47.1197 38.0669L46.3785 35.7515ZM81.1666 60.8031H80.9045C80.3806 64.7267 78.6061 68.5373 75.581 72.2347C74.2434 73.8752 72.8063 75.3007 71.2698 76.5114C69.9803 77.5404 69.0976 78.0822 68.6216 78.1367C68.959 77.1137 69.0765 75.6367 68.9741 73.7057L68.712 71.1088C68.4951 71.3086 68.2842 71.4871 68.0793 71.6445L67.8353 71.8261C67.9219 72.4135 67.9822 72.9976 68.016 73.5785C68.1609 76.1998 67.7602 78.7755 66.814 81.3056C71.2728 79.9678 74.8429 77.1227 77.5242 72.7704C78.7173 70.8334 79.6301 68.7329 80.2628 66.4689C80.7909 64.5758 81.0921 62.6872 81.1666 60.8031Z" fill="#D25305"/>
<path d="M17.8178 57.38C17.8059 57.4338 17.7909 57.4882 17.7726 57.5434C17.3809 59.087 17.0435 60.5913 16.7603 62.0562L17.1038 62.6645C17.405 63.1609 17.7364 63.6391 18.098 64.0992C19.2549 65.5762 20.5082 66.6052 21.8579 67.1863C21.2011 67.2529 20.2792 66.9684 19.0922 66.3328C17.9413 65.7214 17.0315 65.0556 16.3626 64.3352C16.3602 64.3595 16.3572 64.3837 16.3536 64.4079C16.2753 64.8921 16.1999 65.443 16.1276 66.0604L18.8029 68.5211C20.8275 70.21 22.4333 71.1876 23.6203 71.4539C22.2827 71.8111 20.5925 71.5296 18.5499 70.6095C17.9172 70.325 17.2845 69.992 16.6518 69.6107L15.8926 69.1204L15.8113 71.5447L18.6131 73.17C20.7401 74.2838 22.4544 74.9073 23.7559 75.0405C23.1955 75.2281 22.4423 75.3099 21.4963 75.2857C19.5983 75.2312 17.6852 74.6712 15.7571 73.6059C15.7481 74.4489 15.7541 75.1329 15.7751 75.6579C15.8053 76.3601 15.8836 77.0653 16.0101 77.7736C15.4498 77.8825 14.552 78.3335 13.3168 79.1265C12.0514 79.9376 10.9548 80.779 10.0268 81.6507L9.89127 82.1047C9.83101 82.4679 9.87319 82.7978 10.0178 83.0944C10.4757 84.0448 11.8706 84.4806 14.2025 84.4019C16.8296 84.3172 19.1524 83.8269 21.171 82.931C22.9304 82.1501 24.2831 81.1574 25.2291 79.9528C25.9582 79.0266 26.0667 76.3692 25.5545 71.9806C25.3341 70.0866 25.075 68.3191 24.7772 66.6779C23.8654 64.2648 22.8923 61.0141 21.8579 56.926L20.2671 50.1069C19.5802 51.5234 18.8662 53.5634 18.1251 56.2268L18.7849 57.153C19.3633 57.8431 19.9809 58.3576 20.6377 58.6966C19.9388 58.7147 19.2609 58.4998 18.6041 58.0519L17.8178 57.38ZM22.5357 47.61C21.8989 46.9824 21.3446 46.2288 20.8727 45.3491C20.5761 46.8679 20.4917 48.2299 20.6196 49.435L21.1077 51.932C21.5266 53.6926 22.0659 55.4299 22.7255 57.1439C22.5435 56.0054 22.423 54.819 22.364 53.5846C22.2104 53.394 22.0568 53.2215 21.9031 53.067L22.3459 53.3122C22.2986 52.123 22.3076 50.8912 22.373 49.6166C22.4089 48.9196 22.4631 48.2507 22.5357 47.61ZM24.0632 41.9259C24.0131 41.8773 23.9619 41.8259 23.9095 41.7715L22.5538 40.228C22.2822 40.7861 22.0291 41.3854 21.7946 42.0258L22.0296 42.8611C22.2405 43.5512 22.4845 44.2262 22.7617 44.886C22.8165 45.0185 22.8707 45.1487 22.9244 45.2764C23.2082 44.0119 23.5878 42.8951 24.0632 41.9259ZM47.1287 38.1033L47.1197 38.0669C46.5097 39.3212 45.389 40.7135 43.7574 42.2437L43.4953 42.4616C43.2281 44.3181 42.9329 46.1281 42.6096 47.8914C44.1691 46.9565 45.6061 45.7186 46.9208 44.1777C48.0235 42.8823 48.8339 41.6777 49.3521 40.5639C48.8942 40.2491 48.4603 39.9677 48.0506 39.7195L47.5625 39.438L47.1287 38.1033ZM28.9348 5.4699C27.567 4.48321 26.0395 3.57522 24.3524 2.74592C22.352 1.76528 20.5292 1.10245 18.8843 0.757407C14.552 -0.138482 12.2653 1.31128 12.0243 5.1067L13.1089 5.8331C12.5847 6.43843 12.2171 7.48262 12.0062 8.96568C11.8978 9.71024 11.8435 10.3912 11.8435 11.0087L14.9436 11.0632L13.7867 15.5123L13.9856 15.7484C14.1543 15.9361 14.3471 16.0995 14.564 16.2387C15.2449 16.6806 15.9981 16.7865 16.8236 16.5565C17.161 15.9936 17.8841 15.5729 18.9927 15.2944C20.1557 14.9978 21.1499 15.025 21.9754 15.3761C22.6562 15.6788 23.0419 16.5717 23.1322 18.0547C23.1744 18.7993 23.1503 19.5105 23.0599 20.1885L22.9515 21.0602C22.8912 21.7684 22.8973 22.4555 22.9696 23.1213C23.2106 25.2581 24.0843 26.7624 25.5906 27.6341C27.1392 28.53 27.7568 29.4985 27.4435 30.5396C27.2687 31.1268 26.8018 31.7049 26.0426 32.2739C25.8497 32.4192 25.6599 32.74 25.4731 33.2364C25.2743 33.7751 25.1508 34.3472 25.1026 34.9525C24.976 36.5748 25.4099 37.7673 26.4041 38.53C26.4957 38.6003 26.5861 38.6669 26.6752 38.7298C27.1494 39.065 27.6285 39.3313 28.1123 39.5288C29.1909 39.9586 30.3026 40.0494 31.4474 39.8012C32.3874 39.5954 33.3876 39.1444 34.4481 38.4483C34.7674 38.7328 35.2103 39.0203 35.7767 39.3109C36.5721 39.7165 37.3644 39.9707 38.1538 40.0736C39.2058 40.214 40.1638 40.0778 41.0279 39.665C41.0466 39.6599 41.0616 39.6539 41.0731 39.6468L42.5373 38.5845C42.9756 38.148 43.3823 37.6183 43.7574 36.9955C44.3841 35.8877 44.4474 34.7891 43.9473 33.6995C43.646 33.0397 43.1007 32.3496 42.3113 31.6292C41.8052 31.1631 41.6244 30.5548 41.769 29.8042C41.9197 29.0294 42.3716 28.3968 43.1248 27.9065C46.2761 25.8604 47.21 23.2273 45.9266 20.0069C45.5048 18.9476 45.4657 18.0123 45.8091 17.2012C46.1104 16.499 46.6557 15.9694 47.445 15.6122C48.1681 15.2853 48.9243 15.1703 49.7136 15.2672C50.5271 15.3701 51.1326 15.6788 51.5303 16.1933C52.3196 16.272 53.0999 16.0965 53.8712 15.6667C54.2568 15.4548 54.5611 15.2339 54.7841 15.0039L53.6091 10.3731L54.4497 10.4003C55.1426 10.4003 55.8265 10.361 56.5013 10.2823C56.5797 8.99898 56.3929 7.78226 55.941 6.63213C55.7963 6.26894 55.6367 5.93601 55.4619 5.63334L55.236 5.2883L55.5885 5.14302C55.8717 5.0038 56.1458 4.84036 56.4109 4.65271C56.4893 1.46262 54.7841 -0.0870302 51.2953 0.00376935C50.0782 0.0279826 48.7044 0.258009 47.1739 0.693846C46.0712 1.00862 45.083 1.35971 44.2094 1.74712C43.1007 2.24349 42.1366 2.8004 41.3171 3.41783C40.7447 3.84762 40.0518 4.47111 39.2383 5.2883C35.7496 4.22292 32.3151 4.28345 28.9348 5.4699ZM23.3672 6.2871L24.2891 7.69449L22.0025 10.0734C21.6409 10.473 21.3065 10.8513 20.9992 11.2084C20.6618 11.5958 20.3575 11.9621 20.0864 12.3071C19.4959 13.0638 19.059 13.7054 18.7758 14.2321L17.9172 13.3604C17.2363 12.6279 16.6398 11.8803 16.1276 11.1176C14.4827 8.68421 13.9555 6.55647 14.5459 4.73443C14.6544 4.40755 14.799 4.09278 14.9798 3.79011C15.9318 2.71868 16.9742 2.22836 18.107 2.31916C19.0289 2.3918 19.993 2.84579 20.9992 3.68115C21.0053 3.6872 21.0113 3.69326 21.0173 3.69931C21.8127 4.35912 22.596 5.22172 23.3672 6.2871ZM29.4771 25.9997C28.5913 26.3326 27.6996 26.266 26.8018 25.7999C25.9341 25.352 25.2532 24.6347 24.7591 23.648C24.2289 22.6068 24.03 21.4869 24.1626 20.2884C24.3132 18.9385 24.8796 17.6643 25.8618 16.4657C28.1575 15.0311 29.7814 15.0704 30.7334 16.5838C31.2094 17.3404 31.4534 18.2393 31.4655 19.2805L30.5617 25.2733C30.4412 25.4549 30.0796 25.697 29.4771 25.9997ZM53.5187 3.29071C53.6995 3.59338 53.8441 3.90815 53.9526 4.23503C54.543 6.05707 54.0158 8.18481 52.3709 10.6182C51.8587 11.381 51.2622 12.1285 50.5813 12.861L49.7227 13.7327C49.4419 13.2042 49.0021 12.5595 48.4031 11.7986C48.1356 11.4593 47.8344 11.0931 47.4993 10.7C47.1921 10.3464 46.8577 9.97105 46.496 9.57404L44.2094 7.19509L45.1313 5.7877C45.9026 4.72449 46.6859 3.85887 47.4812 3.19083C47.4871 3.18991 47.4931 3.18688 47.4993 3.18175C48.5055 2.3464 49.4696 1.8924 50.3915 1.81976C51.5243 1.72896 52.5667 2.21928 53.5187 3.29071ZM38.4249 16.4566C39.3769 14.9433 41.0008 14.904 43.2965 16.3386C44.2787 17.5372 44.8451 18.8114 44.9957 20.1613C45.1282 21.3598 44.9294 22.4797 44.3992 23.5208C43.9051 24.5075 43.2242 25.2249 42.3565 25.6728C41.4587 26.1389 40.567 26.2055 39.6812 25.8726C39.0787 25.5699 38.7171 25.3278 38.5966 25.1462L37.6928 19.1534C37.7049 18.1122 37.9489 17.2133 38.4249 16.4566ZM30.6701 30.358L31.4564 34.6983C31.6656 34.7086 31.8795 34.8388 32.0982 35.0887C32.3994 35.4277 32.8965 35.6971 33.5895 35.8968C33.9389 35.9937 34.2553 36.0572 34.5385 36.0875C35.2194 36.0875 35.8008 35.9755 36.2828 35.7515C36.566 35.6123 36.9185 35.3611 37.3403 34.9979C37.4613 34.8937 37.5758 34.8271 37.6838 34.7981L38.443 30.358L38.3345 35.3157C38.3526 35.4731 38.2923 35.6547 38.1538 35.8605C38.1031 35.934 38.0428 36.0096 37.973 36.0875C37.6175 36.481 37.2861 36.7867 36.9788 37.0046C36.5811 37.283 36.1443 37.4798 35.6682 37.5948C35.6504 37.5991 35.6324 37.6021 35.614 37.6039C35.2801 37.6825 34.9216 37.7219 34.5385 37.7219C34.2032 37.7219 33.8718 37.6735 33.5443 37.5766C33.1339 37.4596 32.7302 37.2659 32.3331 36.9955C31.827 36.6505 31.3872 36.2267 31.0136 35.7243L30.9774 35.6698C30.8569 35.4822 30.8087 35.3187 30.8328 35.1795L30.6701 30.358ZM72.6797 64.081L74.1168 63.8994C75.2195 63.8752 76.1293 64.0992 76.8464 64.5713C75.8642 64.6137 75.1291 64.6591 74.641 64.7075C73.7914 64.7983 73.0081 65.0586 72.2911 65.4884C71.9594 66.3728 71.6852 67.0266 71.4686 67.4497L72.0561 67.5859C72.5261 67.719 72.9569 67.8825 73.3486 68.0762C74.6079 68.6997 75.2466 69.5229 75.2647 70.5459C74.8911 69.8256 73.9602 69.3988 72.4719 69.2656C72.0019 69.2233 71.5078 69.2142 70.9896 69.2384L70.3479 69.2838C69.8561 69.9513 69.3108 70.5596 68.712 71.1089L68.9741 73.7057C69.0765 75.6367 68.959 77.1138 68.6216 78.1368C69.0976 78.0823 69.9803 77.5405 71.2698 76.5115C72.8063 75.3008 74.2433 73.8752 75.581 72.2348C78.6061 68.5373 80.3806 64.7268 80.9045 60.8031L73.0503 60.8849C73.0322 62.0289 72.9087 63.0943 72.6797 64.081ZM63.7952 62.1651L63.1987 61.4206C63.0611 60.7659 62.8924 60.0819 62.6925 59.3685C60.686 61.7293 58.779 63.1276 56.9713 63.5634C56.4049 63.7027 55.8837 63.736 55.4077 63.6633L54.8564 63.509C56.4772 63.0186 58.086 61.6234 59.6828 59.3231C60.4781 58.179 61.1138 57.0803 61.5898 56.0271C61.3368 55.3733 61.0385 54.6893 60.6951 53.975C60.1272 54.9511 59.3831 55.9378 58.4626 56.9351C56.6188 58.9206 54.8293 59.9617 53.0939 60.0586C54.3472 58.9871 55.5433 57.6009 56.6821 55.9C58.0017 53.9326 58.7518 52.2044 58.9326 50.7153C58.4265 49.8981 57.9264 49.1536 57.4323 48.4816C56.9442 49.4562 56.3206 50.4944 55.5614 51.5961C54.0369 53.7874 52.5968 55.1857 51.2411 55.791C52.4462 54.5259 53.4524 52.4526 54.2599 49.5712C54.5069 48.6753 54.7208 47.7522 54.9016 46.8018L55.1004 45.6396C53.9556 44.3866 52.7384 43.2274 51.449 42.162C51.4389 42.1535 51.4268 42.1444 51.4128 42.1347C49.8826 44.614 48.0297 46.5027 45.8543 47.8006C44.6972 48.4884 43.5313 48.9606 42.3565 49.2171C42.0154 50.9861 41.6419 52.7113 41.2358 54.3927C41.6206 54.2093 42.0123 54.0489 42.4108 53.9114C43.4351 53.5543 44.3299 53.409 45.0951 53.4756C43.804 53.8162 42.4091 54.5759 40.9104 55.7547C40.2115 58.5089 39.4191 61.1694 38.5334 63.736C38.2891 64.4468 38.0361 65.149 37.7742 65.8425C36.8527 68.3193 35.8344 70.6922 34.7192 72.9612L33.9329 74.8498C33.7527 75.2572 33.581 75.6264 33.4177 75.9576C33.0451 76.7386 32.7258 77.3136 32.4597 77.6828C32.056 78.2518 31.4113 78.7542 30.5255 79.19C29.8567 79.523 29.1457 79.7772 28.3925 79.9528C28.1689 80.0046 27.9128 80.0984 27.6242 80.2342C27.4076 80.3344 27.1726 80.4584 26.9193 80.6065C26.1842 81.0302 25.6388 81.4782 25.2833 81.9503C24.253 83.3244 25.0484 84.5351 27.6694 85.5823C30.2724 86.6235 32.9357 86.9262 35.6592 86.4903C37.033 86.2724 38.4068 85.8487 39.7806 85.2191C39.9271 85.1526 40.0687 85.1193 40.2054 85.1192C42.0863 82.799 43.7162 79.8298 45.0951 76.2118C44.4383 75.4915 42.5524 75.3129 39.4372 75.6761C38.4611 75.7911 37.4247 75.9545 36.328 76.1664L34.9723 76.4479C36.6655 75.0859 38.9642 74.3534 41.8685 74.2505C43.3206 74.1961 44.604 74.2778 45.7187 74.4957V74.4866C45.8191 74.1929 45.9185 73.8932 46.017 73.5877C46.1732 73.1709 46.3299 72.7441 46.487 72.3074C45.9326 71.466 44.3208 71.1845 41.6515 71.463C40.82 71.5477 39.9313 71.687 38.9853 71.8807L37.8193 72.1349C39.5908 70.6761 41.6817 69.9315 44.0919 69.9012C45.303 69.8891 46.3333 70.0193 47.1829 70.2917V70.2826L47.4631 69.42C47.5091 69.2727 47.5543 69.1244 47.5987 68.9751C47.6761 68.7459 47.7514 68.5159 47.8246 68.285C47.8369 68.2456 47.8489 68.2063 47.8608 68.167C47.8728 68.1275 47.8848 68.0881 47.8969 68.0489C47.9037 68.0298 47.9098 68.0086 47.915 67.9854C47.9203 67.9785 47.9233 67.9694 47.9241 67.9581C47.9268 67.956 47.9268 67.953 47.9241 67.9491C47.4666 67.4832 46.379 67.2926 44.6613 67.377L42.2029 67.6403C43.8237 66.5447 45.3361 66.0332 46.7401 66.1058C47.439 66.1482 47.9783 66.2965 48.3579 66.5507C49.2436 63.5846 49.8552 61.1058 50.1927 59.1143L46.0893 59.5592L50.4277 57.4708C50.5 56.8189 50.5361 56.2287 50.5361 55.7002C50.6024 56.2753 50.6536 56.8231 50.6898 57.3437C50.7261 57.8878 50.7471 58.4598 50.753 59.0598C50.7613 59.7547 50.7492 60.4872 50.7169 61.2571C50.6325 63.1821 50.4307 65.0253 50.1113 66.7868C50.0373 67.1958 49.959 67.5863 49.8763 67.9581C50.5041 67.3491 51.2362 66.8013 52.0726 66.3147C55.1998 64.4987 58.5982 64.6682 62.2677 66.8231C61.1168 66.4963 59.6798 66.3722 57.9565 66.4509C54.9638 66.582 52.1921 67.4083 49.6413 68.9297C49.4225 69.7776 49.1784 70.513 48.9092 71.1361C47.9512 73.3698 47.5595 75.0375 47.7343 76.1392C47.86 76.9271 48.2366 77.605 48.864 78.1731C51.2601 78.4658 53.6341 77.921 55.9862 76.5387C55.1607 77.4527 54.1122 78.167 52.8409 78.6816C52.0539 79.0008 51.2826 79.1733 50.5271 79.1991C51.035 79.4197 51.6104 79.6104 52.2534 79.7712C53.2355 79.8922 54.0158 79.9709 54.5943 80.0072C54.9618 80.0314 55.4469 80.0436 56.0494 80.0436C56.2844 80.0436 56.4501 80.1313 56.5465 80.3069C56.6429 80.4642 56.661 80.6459 56.6008 80.8517C56.5465 81.0575 56.4351 81.2088 56.2663 81.3057C56.0735 81.4207 55.8506 81.4237 55.5975 81.3148C55.236 81.1634 54.6455 81.0121 53.826 80.8607C52.7896 80.667 51.7623 80.5581 50.744 80.5339C47.7975 80.4612 45.5892 81.0847 44.119 82.4043C44.2877 83.5424 45.4657 84.2203 47.6529 84.4382C49.5329 84.6198 51.8195 84.4564 54.5129 83.9479C56.664 83.5424 57.9625 83.8571 58.4084 84.8922C58.5771 85.2918 58.5651 85.7094 58.3722 86.1453C58.1794 86.5811 57.8721 86.8959 57.4503 87.0896C59.8425 86.5872 61.5477 86.2028 62.566 85.9364C63.5843 85.6701 64.5966 84.8166 65.6028 83.3759C66.109 82.6616 66.5127 81.9715 66.8139 81.3057C67.7602 78.7755 68.1609 76.1999 68.016 73.5786C66.5736 71.6128 64.2116 70.9258 60.9301 71.5175C59.9057 71.6991 58.8483 72.0017 57.7576 72.4255L56.4381 72.9975C58.3963 70.8062 60.8216 69.6349 63.7138 69.4836C65.1539 69.4109 66.4012 69.5562 67.4557 69.9194C66.9736 67.9763 66.2114 66.0967 65.169 64.2807C64.8574 63.7373 64.532 63.2198 64.1929 62.7281C64.0636 62.537 63.931 62.3493 63.7952 62.1651ZM72.7882 57.1984C72.9111 57.9217 72.9895 58.6875 73.0232 59.4956C73.0263 59.5002 73.0263 59.5032 73.0232 59.5047L76.1685 59.1143C78.3576 58.9588 79.9784 59.1011 81.031 59.541C81.0761 58.9197 81.0882 58.2931 81.0672 57.6615C81.0655 57.648 81.0624 57.6329 81.0582 57.6161C81.0592 57.5982 81.0592 57.58 81.0582 57.5616L80.4165 54.2837C79.6633 56.6748 78.1659 57.8794 75.9245 57.8975C75.2255 57.8975 74.4934 57.7825 73.7282 57.5525L72.7882 57.1984ZM79.7747 52.386V52.3769C79.3365 51.2696 78.7973 50.183 78.1569 49.1172C77.8978 48.6814 77.5664 48.1759 77.1627 47.6009L77.4248 48.3545C77.6056 48.972 77.7231 49.5682 77.7773 50.1433C77.94 51.9774 77.4188 53.2547 76.2137 53.975C75.2134 54.5622 74.2735 54.7347 73.3937 54.4926C72.6782 54.2993 71.9853 53.8271 71.315 53.0761C71.8271 53.8509 72.2278 54.7892 72.517 55.8909L73.5203 56.018C74.3277 56.0725 75.0839 56.0422 75.7889 55.9272C78.0408 55.5522 79.3694 54.3718 79.7747 52.386Z" fill="#E17008"/>
<path d="M50.6898 57.3438L50.4277 57.4709C50.3714 57.9826 50.293 58.5305 50.1927 59.1143L50.7531 59.0599C50.7472 58.4599 50.7261 57.8879 50.6898 57.3438Z" fill="#78250D"/>
<path d="M30.9774 35.6697L31.0136 35.7242C31.3872 36.2266 31.827 36.6504 32.3331 36.9954C32.7302 37.2658 33.1339 37.4595 33.5443 37.5765C33.4739 37.0716 33.0491 36.5632 32.2699 36.0511C31.4961 35.5384 31.0653 35.4113 30.9774 35.6697ZM37.973 36.0874C38.0428 36.0095 38.1031 35.9339 38.1538 35.8604C37.6597 35.8422 37.1234 36.0299 36.545 36.4234C35.9632 36.815 35.6529 37.2085 35.614 37.6038C35.6324 37.602 35.6504 37.599 35.6682 37.5947C36.1443 37.4797 36.5811 37.2829 36.9788 37.0045C37.2861 36.7866 37.6175 36.4809 37.973 36.0874Z" fill="#BA3612"/>
<path d="M38.3346 35.3158L38.443 30.3582L37.6838 34.7983C37.8766 34.7451 38.0483 34.8117 38.199 34.998C38.2773 35.0949 38.3225 35.2008 38.3346 35.3158ZM31.4565 34.6984L30.6702 30.3582L30.8329 35.1796C30.8509 35.0404 30.9353 34.9223 31.0859 34.8255C31.2077 34.7416 31.3313 34.6993 31.4565 34.6984Z" fill="#D35405"/>
<path d="M31.4564 34.6982C31.3312 34.6991 31.2077 34.7415 31.0859 34.8254C30.9352 34.9222 30.8509 35.0403 30.8328 35.1795C30.8087 35.3187 30.8569 35.4821 30.9774 35.6698C31.0653 35.4113 31.4961 35.5385 32.2699 36.0512C33.0491 36.5632 33.4739 37.0717 33.5443 37.5766C33.8718 37.6734 34.2032 37.7219 34.5385 37.7219C34.9216 37.7219 35.2801 37.6825 35.614 37.6038C35.6529 37.2085 35.9632 36.8151 36.545 36.4234C37.1234 36.03 37.6597 35.8423 38.1538 35.8605C38.2923 35.6547 38.3526 35.4731 38.3345 35.3157C38.3225 35.2007 38.2773 35.0947 38.1989 34.9979C38.0482 34.8115 37.8765 34.7449 37.6838 34.7981C37.5758 34.8271 37.4613 34.8937 37.3403 34.9979C36.9185 35.3611 36.566 35.6123 36.2828 35.7515C35.8008 35.9755 35.2194 36.0875 34.5385 36.0875C34.2553 36.0572 33.9389 35.9936 33.5895 35.8968C32.8965 35.697 32.3994 35.4277 32.0982 35.0887C31.8795 34.8387 31.6656 34.7086 31.4564 34.6982Z" fill="#FF5E26"/>
<path d="M50.6084 3.72664C50.176 3.41102 49.6759 3.2052 49.1081 3.1092C48.5329 3.00686 47.9906 3.0341 47.4812 3.19092C46.6859 3.85896 45.9026 4.72458 45.1313 5.78779L44.2093 7.19518L46.496 9.57413C46.8577 9.97114 47.1921 10.3464 47.4993 10.7C48.0109 6.81682 49.0473 4.49236 50.6084 3.72664ZM24.2891 7.69458L23.3672 6.28719C22.596 5.22181 21.8127 4.35921 21.0173 3.6994C20.5051 3.53596 19.9628 3.50569 19.3904 3.6086C18.824 3.70545 18.3239 3.91429 17.8901 4.23512C19.4507 4.99178 20.4871 7.31625 20.9992 11.2085C21.3065 10.8514 21.6409 10.473 22.0025 10.0735L24.2891 7.69458Z" fill="#723F2C"/>
<path d="M50.6988 3.7992C50.6685 3.77527 50.6384 3.75106 50.6084 3.72656C49.0473 4.49228 48.0109 6.81675 47.4993 10.7C47.8344 11.0931 48.1357 11.4593 48.4031 11.7986C49.2587 11.3325 50.0511 10.5153 50.7802 9.34706C51.1477 8.76594 51.4279 8.23022 51.6207 7.7399C52.1148 6.0026 51.8075 4.68904 50.6988 3.7992ZM17.7997 4.2986C16.691 5.18844 16.3837 6.502 16.8778 8.2393C17.0706 8.72962 17.3508 9.26534 17.7184 9.84645C18.4475 11.0147 19.2368 11.835 20.0864 12.3071C20.3575 11.9621 20.6618 11.5959 20.9993 11.2084C20.4871 7.31617 19.4507 4.9917 17.8901 4.23504C17.86 4.2532 17.8298 4.27439 17.7997 4.2986Z" fill="#7A5546"/>
<path d="M50.6084 3.72656C50.6384 3.75106 50.6686 3.77527 50.6988 3.7992C51.8075 4.68904 52.1148 6.00261 51.6207 7.7399C51.4279 8.23022 51.1477 8.76594 50.7802 9.34706C50.0511 10.5153 49.2587 11.3325 48.4031 11.7986C49.0021 12.5596 49.442 13.2042 49.7227 13.7327L50.5813 12.861C51.2622 12.1285 51.8587 11.381 52.3709 10.6182C54.0159 8.18482 54.5431 6.05708 53.9526 4.23504C53.109 3.55102 52.2082 3.30889 51.2502 3.50864C51.0267 3.55511 50.8128 3.62775 50.6084 3.72656ZM17.8901 4.23504C17.6853 4.13213 17.4714 4.05647 17.2484 4.00804C16.2904 3.80828 15.3895 4.05041 14.546 4.73444C13.9555 6.55648 14.4827 8.68422 16.1277 11.1176C16.6398 11.8804 17.2364 12.6279 17.9172 13.3604L18.7759 14.2321C19.0591 13.7054 19.4959 13.0638 20.0864 12.3071C19.2368 11.835 18.4475 11.0147 17.7184 9.84645C17.3508 9.26534 17.0707 8.72962 16.8778 8.2393C16.3838 6.502 16.6911 5.18844 17.7997 4.2986C17.8299 4.27439 17.86 4.2532 17.8901 4.23504Z" fill="#EEBD9F"/>
<path d="M53.9526 4.23499C53.8441 3.90811 53.6995 3.59334 53.5187 3.29068C52.5667 2.21924 51.5243 1.72892 50.3915 1.81972C49.4696 1.89236 48.5055 2.34636 47.4993 3.18172C47.4931 3.18685 47.4871 3.18987 47.4812 3.1908C47.9906 3.03398 48.5329 3.00674 49.1081 3.10908C49.6759 3.20508 50.176 3.41089 50.6084 3.72651C50.8128 3.6277 51.0267 3.55506 51.2501 3.50859C52.2082 3.30884 53.109 3.55097 53.9526 4.23499ZM17.8901 4.23499C18.3239 3.91417 18.824 3.70533 19.3904 3.60847C19.9629 3.50557 20.5052 3.53583 21.0173 3.69927C21.0113 3.69322 21.0053 3.68717 20.9992 3.68111C19.993 2.84576 19.0289 2.39176 18.107 2.31912C16.9742 2.22832 15.9318 2.71864 14.9798 3.79007C14.799 4.09274 14.6544 4.40751 14.546 4.73439C15.3895 4.05036 16.2903 3.80823 17.2484 4.00799C17.4713 4.05642 17.6852 4.13208 17.8901 4.23499Z" fill="#DE8C63"/>
<path d="M47.9244 18.3901C48.6233 19.177 49.1867 20.0547 49.6145 21.0233C50.0604 22.0402 50.4611 23.375 50.8166 25.0275C51.6843 22.5699 51.4613 20.7267 50.1478 19.4978C49.491 18.8804 48.7498 18.5111 47.9244 18.3901ZM46.7223 23.838C46.4089 25.0063 45.945 25.8871 45.3304 26.4803C44.6977 27.0978 43.7457 27.5639 42.4743 27.8786C44.8664 28.5808 46.2915 28.1177 46.7494 26.4894C46.894 25.9809 46.9332 25.3877 46.8669 24.7097L46.7223 23.838ZM47.2194 21.4319C46.7253 21.0808 46.3427 20.9113 46.0715 20.9234C45.8365 20.9355 45.7251 21.0717 45.7371 21.332C45.7492 21.5862 45.8697 21.8677 46.0986 22.1764C46.3517 22.5154 46.665 22.7817 47.0386 22.9755C47.7255 23.3326 48.075 24.0166 48.087 25.0275C48.0991 25.7055 47.9756 26.4137 47.7165 27.1522C48.1744 26.6922 48.4968 26.108 48.6836 25.3998C49.0632 23.9833 48.5751 22.6607 47.2194 21.4319ZM42.2484 17.4821C42.7244 16.4288 42.5888 15.8537 41.8416 15.7569C41.5223 15.7145 41.212 15.8447 40.9107 16.1473C40.4889 16.5711 40.3473 17.2127 40.4859 18.0723C40.6245 18.95 40.9619 19.4918 41.4982 19.6976C41.8597 19.8429 42.2905 19.8308 42.7906 19.6613C43.3751 19.4676 43.8331 19.2042 44.1645 18.8713C44.6706 18.3628 44.7098 17.7938 44.282 17.1643C44.0952 17.0008 43.8752 16.9978 43.6222 17.1552C43.4113 17.2823 43.2245 17.4821 43.0618 17.7545C42.869 18.0753 42.6159 18.2751 42.3026 18.3538C41.9652 18.4325 41.9471 18.1419 42.2484 17.4821ZM35.6053 13.9772C35.2076 13.6503 34.9485 13.3507 34.828 13.0783L35.1082 14.0226C35.4094 14.8338 35.8433 15.6842 36.4097 16.5741C37.0845 17.6334 37.5003 18.381 37.6569 18.8168C37.8136 19.2406 37.9251 19.9306 37.9914 20.8871C38.2444 20.3544 38.3921 19.9337 38.4342 19.625C38.4885 19.1952 38.4312 18.6019 38.2625 17.8453C38.0998 17.1189 37.8799 16.5317 37.6027 16.0838C37.4702 15.8659 37.1629 15.4845 36.6808 14.9397C36.5061 14.7399 36.1476 14.4191 35.6053 13.9772ZM33.3819 13.9591C32.8396 14.401 32.4811 14.7218 32.3063 14.9215C31.8243 15.4663 31.517 15.8477 31.3844 16.0656C31.1073 16.5136 30.8873 17.1007 30.7246 17.8271C30.5559 18.5838 30.4987 19.177 30.5529 19.6068C30.5951 19.9155 30.7427 20.3362 30.9958 20.8689C31.0621 19.9125 31.1735 19.2224 31.3302 18.7987C31.4869 18.3628 31.9026 17.6153 32.5775 16.5559C33.1439 15.6661 33.5777 14.8156 33.879 14.0045L34.1592 13.0601C34.0386 13.3325 33.7796 13.6322 33.3819 13.9591ZM37.5123 12.4518C37.0062 11.7799 36.729 11.3682 36.6808 11.2169C37.0544 11.4469 37.5937 11.6285 38.2987 11.7617C38.9133 11.8767 39.4284 11.9221 39.8442 11.8979C40.1816 11.8797 40.6094 12.1461 41.1276 12.6969C41.5976 13.1994 41.9832 13.7502 42.2845 14.3495C42.5075 14.8035 42.7183 14.9336 42.9172 14.7399L43.1431 14.3041C43.0407 13.7714 42.6822 13.1782 42.0676 12.5244C41.3807 11.792 40.6396 11.3107 39.8442 11.0807C38.9223 10.8144 38.1601 10.5238 37.5575 10.209C36.8827 9.864 36.4699 9.51896 36.3193 9.17392C36.1446 8.76835 35.9156 8.59886 35.6324 8.66545C35.3251 8.73203 35.1624 9.08312 35.1443 9.71872C35.1202 10.4935 35.3522 11.4651 35.8403 12.6334C36.3946 13.9409 37.0363 14.8459 37.7654 15.3483C38.4824 15.8386 38.8771 15.9264 38.9494 15.6116C39.0097 15.3755 38.8861 14.8943 38.5788 14.1679C38.3981 13.7321 38.0426 13.16 37.5123 12.4518ZM37.6027 8.02985L37.2773 8.24777L38.4975 9.01957C38.5216 8.88639 38.5276 8.74111 38.5156 8.58373C38.4915 8.27501 38.3951 8.07222 38.2264 7.97537C38.0576 7.87852 37.8498 7.89668 37.6027 8.02985ZM35.5601 7.33977L36.6447 7.92997C36.6748 7.83312 36.6929 7.72416 36.6989 7.60309C36.7049 7.36701 36.6447 7.20055 36.5181 7.1037C36.3916 7.00684 36.1928 7.01592 35.9216 7.13093L35.5601 7.33977ZM33.3909 7.11278C33.2041 7.09462 32.9872 7.09462 32.7402 7.11278C32.2521 7.15515 31.8665 7.27319 31.5833 7.46689C31.3001 7.6606 31.0349 7.98445 30.7879 8.43845L30.4987 9.05589L33.3909 7.11278ZM46.9573 17.3005C46.8307 17.0402 46.647 16.7738 46.4059 16.5014C46.2915 16.3622 46.186 16.2502 46.0896 16.1655C45.7943 16.7103 45.6497 17.3731 45.6558 18.154C45.6618 18.9651 45.8667 19.286 46.2704 19.1165C47.138 18.7412 47.367 18.1358 46.9573 17.3005ZM19.3726 21.0051C19.8005 20.0366 20.3638 19.1588 21.0628 18.3719C20.2373 18.493 19.4962 18.8622 18.8394 19.4797C17.5258 20.7085 17.3029 22.5517 18.1706 25.0094C18.5261 23.3568 18.9268 22.0221 19.3726 21.0051ZM22.2649 23.8199L22.1203 24.6916C22.054 25.3695 22.0931 25.9628 22.2378 26.4712C22.6957 28.0996 24.1207 28.5626 26.5128 27.8605C25.2415 27.5457 24.2894 27.0796 23.6568 26.4622C23.0422 25.8689 22.5782 24.9882 22.2649 23.8199ZM22.9156 20.9052C22.6445 20.8931 22.2619 21.0626 21.7678 21.4137C20.412 22.6425 19.924 23.9652 20.3036 25.3816C20.4904 26.0899 20.8127 26.674 21.2707 27.1341C21.0116 26.3956 20.888 25.6873 20.9001 25.0094C20.9121 23.9985 21.2616 23.3144 21.9485 22.9573C22.3221 22.7636 22.6354 22.4972 22.8885 22.1583C23.1175 21.8495 23.238 21.5681 23.25 21.3138C23.2621 21.0535 23.1506 20.9173 22.9156 20.9052ZM25.365 17.137C25.1119 16.9797 24.892 16.9827 24.7052 17.1461C24.2774 17.7757 24.3165 18.3447 24.8227 18.8532C25.1541 19.1861 25.612 19.4494 26.1965 19.6431C26.6966 19.8126 27.1274 19.8247 27.489 19.6794C28.0252 19.4736 28.3627 18.9318 28.5012 18.0541C28.6398 17.1945 28.4982 16.5529 28.0764 16.1292C27.7752 15.8265 27.4649 15.6964 27.1455 15.7387C26.3983 15.8356 26.2628 16.4106 26.7388 17.4639C27.0401 18.1237 27.022 18.4143 26.6846 18.3356C26.3712 18.2569 26.1182 18.0571 25.9253 17.7363C25.7627 17.4639 25.5759 17.2642 25.365 17.137ZM26.6846 9.0922C25.9555 9.9094 25.5247 10.43 25.3921 10.654C25.2174 10.9566 25.2113 11.226 25.374 11.4621C25.5367 11.6982 25.7536 11.6255 26.0248 11.2442C26.308 10.8507 26.6213 10.315 26.9647 9.637C27.2901 9.0014 27.5492 8.4324 27.742 7.92997C27.4046 8.29317 27.0521 8.68058 26.6846 9.0922ZM29.1429 11.0626C28.3476 11.2926 27.6065 11.7738 26.9195 12.5063C26.305 13.16 25.9464 13.7532 25.844 14.2859L26.07 14.7218C26.2688 14.9155 26.4797 14.7853 26.7026 14.3313C27.0039 13.7321 27.3895 13.1812 27.8595 12.6788C28.3777 12.1279 28.8055 11.8616 29.1429 11.8797C29.5587 11.904 30.0739 11.8586 30.6885 11.7435C31.3935 11.6104 31.9327 11.4288 32.3063 11.1988C32.2581 11.3501 31.9809 11.7617 31.4748 12.4336C30.9446 13.1419 30.5891 13.7139 30.4083 14.1497C30.101 14.8761 29.9775 15.3574 30.0377 15.5935C30.11 15.9082 30.5047 15.8204 31.2217 15.3301C31.9508 14.8277 32.5925 13.9227 33.1469 12.6152C33.6349 11.4469 33.8669 10.4754 33.8428 9.70056C33.8247 9.06497 33.6621 8.71387 33.3548 8.64729C33.0716 8.5807 32.8426 8.75019 32.6679 9.15577C32.5172 9.5008 32.1045 9.84584 31.4296 10.1909C30.8271 10.5057 30.0648 10.7962 29.1429 11.0626ZM22.5812 16.4833C22.3402 16.7557 22.1564 17.022 22.0299 17.2823C21.6201 18.1177 21.8491 18.723 22.7168 19.0983C23.1205 19.2678 23.3254 18.947 23.3314 18.1358C23.3374 17.355 23.1928 16.6921 22.8975 16.1473C22.8011 16.2321 22.6957 16.3441 22.5812 16.4833ZM28.7814 7.95721L29.2785 7.64849C29.7063 7.40031 30.1673 7.17634 30.6614 6.97658C32.228 6.33493 33.8006 6.06253 35.3793 6.15938C36.5784 6.21991 37.9763 6.78287 39.573 7.84825C40.736 8.62913 41.6579 9.39789 42.3387 10.1546C42.7123 10.5722 42.9865 10.7205 43.1612 10.5995C43.2757 10.5208 43.3329 10.3422 43.3329 10.0638C43.3329 9.79136 43.2185 9.49475 42.9895 9.17392C42.6159 8.65939 41.9411 8.03591 40.9649 7.30346C38.4463 5.42088 35.8011 4.66119 33.0294 5.02439C31.7279 5.19388 30.6312 5.73262 29.7395 6.64062C29.4563 6.92512 29.2122 7.23081 29.0074 7.55769L28.7814 7.95721Z" fill="#7E3115"/>
<path d="M38.6057 23.1761C38.6057 23.164 38.6057 23.1519 38.6057 23.1398L38.4972 24.4564C38.455 25.3644 38.5002 25.894 38.6328 26.0454C38.7834 26.1967 39.16 26.1604 39.7626 25.9364C40.0638 25.8214 40.35 25.6912 40.6212 25.546C40.1205 25.4728 39.6807 25.2458 39.3016 24.865C38.8376 24.3989 38.6057 23.8359 38.6057 23.1761ZM40.6935 21.124C40.1934 21.124 39.7656 21.2996 39.4101 21.6507C39.0546 22.0078 38.8768 22.4406 38.8768 22.9491C38.8768 23.4455 39.0546 23.8722 39.4101 24.2294C39.7656 24.5865 40.1934 24.7651 40.6935 24.7651C41.1996 24.7651 41.6244 24.5865 41.9679 24.2294C42.3294 23.8722 42.5102 23.4455 42.5102 22.9491C42.5102 22.4406 42.3294 22.0078 41.9679 21.6507C41.6244 21.2996 41.1996 21.124 40.6935 21.124ZM29.7934 24.865C29.4138 25.2463 28.9739 25.4733 28.4738 25.546C28.745 25.6912 29.0312 25.8214 29.3325 25.9364C29.935 26.1604 30.3116 26.1967 30.4622 26.0454C30.5948 25.894 30.64 25.3644 30.5978 24.4564L30.4893 23.1398C30.4893 23.1519 30.4893 23.164 30.4893 23.1761C30.4893 23.8359 30.2574 24.3989 29.7934 24.865ZM28.4015 21.124C27.8954 21.124 27.4706 21.2996 27.1271 21.6507C26.7656 22.0078 26.5848 22.4406 26.5848 22.9491C26.5848 23.4455 26.7656 23.8722 27.1271 24.2294C27.4706 24.5865 27.8954 24.7651 28.4015 24.7651C28.9016 24.7651 29.3294 24.5865 29.6849 24.2294C30.0404 23.8722 30.2182 23.4455 30.2182 22.9491C30.2182 22.4406 30.0404 22.0078 29.6849 21.6507C29.3294 21.2996 28.9016 21.124 28.4015 21.124Z" fill="#0F0117"/>
<path d="M40.9917 20.7791C40.335 20.7791 39.7716 21.0121 39.3016 21.4782C38.8461 21.9358 38.6141 22.4897 38.6057 23.1398C38.6057 23.1519 38.6057 23.164 38.6057 23.1762C38.6057 23.836 38.8376 24.3989 39.3016 24.865C39.6807 25.2458 40.1205 25.4728 40.6212 25.546C40.7412 25.5642 40.8647 25.5733 40.9917 25.5733C41.6545 25.5733 42.2149 25.3372 42.6728 24.865C43.1428 24.3989 43.3778 23.836 43.3778 23.1762C43.3778 22.5103 43.1428 21.9443 42.6728 21.4782C42.2149 21.0121 41.6545 20.7791 40.9917 20.7791ZM39.4101 21.6507C39.7656 21.2996 40.1934 21.1241 40.6935 21.1241C41.1996 21.1241 41.6244 21.2996 41.9679 21.6507C42.3294 22.0079 42.5102 22.4407 42.5102 22.9492C42.5102 23.4455 42.3294 23.8723 41.9679 24.2294C41.6244 24.5866 41.1996 24.7652 40.6935 24.7652C40.1934 24.7652 39.7656 24.5866 39.4101 24.2294C39.0546 23.8723 38.8768 23.4455 38.8768 22.9492C38.8768 22.4407 39.0546 22.0079 39.4101 21.6507ZM29.7934 21.4782C29.3234 21.0121 28.76 20.7791 28.1033 20.7791C27.4405 20.7791 26.8801 21.0121 26.4221 21.4782C25.9522 21.9443 25.7172 22.5103 25.7172 23.1762C25.7172 23.836 25.9522 24.3989 26.4221 24.865C26.8801 25.3372 27.4405 25.5733 28.1033 25.5733C28.2298 25.5733 28.3533 25.5642 28.4738 25.546C28.9739 25.4734 29.4138 25.2464 29.7934 24.865C30.2574 24.3989 30.4893 23.836 30.4893 23.1762C30.4893 23.1641 30.4893 23.1519 30.4893 23.1398C30.4833 22.4921 30.2513 21.9383 29.7934 21.4782ZM27.1271 21.6507C27.4706 21.2996 27.8954 21.1241 28.4015 21.1241C28.9016 21.1241 29.3294 21.2996 29.6849 21.6507C30.0404 22.0079 30.2182 22.4407 30.2182 22.9492C30.2182 23.4455 30.0404 23.8723 29.6849 24.2294C29.3294 24.5866 28.9016 24.7652 28.4015 24.7652C27.8954 24.7652 27.4706 24.5866 27.1271 24.2294C26.7656 23.8723 26.5848 23.4455 26.5848 22.9492C26.5848 22.4407 26.7656 22.0079 27.1271 21.6507Z" fill="#6B7248"/>
<path d="M40.1785 24.5013L38.8589 23.6387L39.1662 24.3197C39.4795 24.7918 39.9194 25.0794 40.4858 25.1823C41.0522 25.2852 40.9498 25.0582 40.1785 24.5013ZM26.1422 23.6387L26.4495 24.3197C26.7628 24.7918 27.2026 25.0794 27.769 25.1823C28.3354 25.2852 28.233 25.0582 27.4617 24.5013L26.1422 23.6387Z" fill="#C2AA3B"/>
<path d="M41.0281 21.0508L40.9377 21.4957C40.9678 21.7984 41.2089 21.9679 41.6608 22.0042C42.0585 22.0405 42.4109 22.3371 42.7182 22.894C42.8327 23.0998 42.893 23.2027 42.899 23.2027C42.9291 23.2148 42.9382 23.0877 42.9261 22.8214C42.908 22.2766 42.6881 21.8407 42.2663 21.5139C41.9108 21.2294 41.4981 21.075 41.0281 21.0508ZM29.5496 21.5139C29.1941 21.2294 28.7813 21.075 28.3113 21.0508L28.2209 21.4957C28.2511 21.7984 28.4921 21.9679 28.944 22.0042C29.3417 22.0405 29.6942 22.3371 30.0015 22.894C30.116 23.0998 30.1762 23.2027 30.1822 23.2027C30.2124 23.2148 30.2214 23.0877 30.2094 22.8214C30.1913 22.2766 29.9713 21.8407 29.5496 21.5139Z" fill="#F1E3FF"/>
<path d="M27.9767 38.2491C27.9828 38.3339 28.0159 38.4307 28.0762 38.5397C28.3413 39.0119 28.7601 39.0391 29.3325 38.6214L30.1098 37.8587L28.8534 37.777C28.2509 37.8072 27.9587 37.9646 27.9767 38.2491ZM27.3531 36.642C27.3531 36.6541 27.3531 36.6662 27.3531 36.6783C27.335 37.2655 27.7056 37.4652 28.4648 37.2776L29.6127 36.8145L28.501 36.2152C27.7719 35.9428 27.3893 36.0851 27.3531 36.642ZM41.8866 36.6511C41.8861 36.6369 41.8861 36.6217 41.8866 36.6057C41.8504 36.0555 41.4678 35.9163 40.7387 36.188L39.627 36.7873L40.7748 37.2503C41.5341 37.438 41.9046 37.2382 41.8866 36.6511ZM41.2629 38.2219C41.2809 37.9351 40.9886 37.7777 40.3862 37.7497L39.1299 37.8315L39.9072 38.5942C40.4796 39.0119 40.8984 38.9846 41.1635 38.5125C41.2247 38.4034 41.2579 38.3066 41.2629 38.2219ZM41.2629 34.8714C41.2555 34.7885 41.2223 34.7008 41.1635 34.6081C40.8984 34.1904 40.4947 34.2691 39.9524 34.8442L39.2203 35.8339L40.4314 35.5978C41.0175 35.4094 41.2946 35.1672 41.2629 34.8714ZM28.0762 34.6353C28.0159 34.7261 27.9828 34.8139 27.9767 34.8986C27.9466 35.1952 28.2238 35.4374 28.8083 35.625L30.0194 35.8611L29.2873 34.8714C28.745 34.2963 28.3413 34.2176 28.0762 34.6353Z" fill="#7E3115"/>
<path d="M9.14111 33.2733C10.3944 32.7346 12.1538 32.4137 14.4194 32.3108C18.7096 32.1111 23.2287 32.9737 27.9767 34.8986C28.2358 35.0076 28.4949 35.1165 28.754 35.2255M41.2629 34.8714C46.0102 32.9453 50.5293 32.0827 54.8202 32.2836C57.0858 32.3865 58.8453 32.7073 60.0986 33.2461M41.2629 34.8714C41.0051 34.9778 40.746 35.0867 40.4856 35.1983M50.0209 41.3726C49.2617 40.8581 48.3007 40.3405 47.1378 39.8199C45.0475 38.8764 43.0892 38.3437 41.2629 38.2219C41.0626 38.2073 40.8638 38.1982 40.6664 38.1946M56.5285 38.3308C55.3896 37.8405 53.8863 37.4047 52.0184 37.0233C48.6053 36.332 45.228 36.1943 41.8866 36.6102C41.5693 36.6488 41.253 36.6927 40.9375 36.7418M28.3021 36.7691C27.9888 36.7207 27.6725 36.6783 27.3531 36.642C24.009 36.2243 20.6317 36.3605 17.2213 37.0506C15.3534 37.4319 13.85 37.8678 12.7112 38.3581M28.5733 38.2219C28.3744 38.2279 28.1756 38.237 27.9767 38.2491C26.151 38.3702 24.1927 38.9029 22.1019 39.8472C20.939 40.3678 19.9779 40.8853 19.2187 41.3999" stroke="white" stroke-width="3" stroke-linecap="round" stroke-linejoin="round"/>
</svg>
