<svg width="83" height="89" viewBox="0 0 83 89" fill="none" xmlns="http://www.w3.org/2000/svg">
<path d="M33.5047 11.778C33.489 12.0096 33.4871 12.2471 33.4989 12.4904C33.5146 12.8358 33.6794 13.1243 33.9934 13.3558C34.0797 13.3912 34.17 13.4245 34.2642 13.4559C33.9698 12.8868 33.7167 12.3275 33.5047 11.778ZM38.1557 10.9303C38.1518 10.9146 38.1479 10.9008 38.144 10.889C37.3237 10.3945 36.5701 9.81952 35.8832 9.16406C35.2003 9.81952 34.4487 10.3945 33.6284 10.889C33.5931 11.0421 33.5656 11.1991 33.546 11.36C33.7932 12.0547 34.0778 12.7671 34.3996 13.4971C34.8274 13.611 35.322 13.6679 35.8832 13.6679C36.4877 13.6679 37.0116 13.6031 37.4551 13.4736C37.7417 12.614 37.9752 11.7663 38.1557 10.9303ZM38.2735 12.4904C38.2931 12.1372 38.2833 11.7977 38.244 11.4719C38.087 12.1313 37.8653 12.7848 37.5788 13.4324C37.6455 13.4088 37.7103 13.3833 37.7731 13.3558C38.091 13.1243 38.2578 12.8358 38.2735 12.4904ZM28.8126 8.52823C28.7694 8.27311 28.7537 8.00622 28.7655 7.72755C28.4122 7.85315 28.0982 7.99837 27.8235 8.16321C27.796 8.25741 27.7685 8.35161 27.7411 8.4458C27.4035 9.56047 27.4173 10.4907 27.7823 11.2364C27.798 11.205 27.8117 11.1736 27.8235 11.1422C28.0119 10.7811 28.2748 10.3906 28.6124 9.97062C28.7458 9.79793 28.8832 9.64093 29.0245 9.49964C28.9421 9.22097 28.8714 8.89717 28.8126 8.52823ZM43.6368 7.13882C43.4131 7.06424 43.1737 7.00733 42.9186 6.96808C43.0245 7.52149 43.0383 8.04154 42.9598 8.52823C42.9559 8.55177 42.9539 8.57336 42.9539 8.59299C42.9931 8.62439 43.0304 8.65775 43.0658 8.69307C43.1246 8.74802 43.1835 8.80297 43.2424 8.85792C43.3366 8.95211 43.4268 9.04631 43.5132 9.14051C43.7094 9.3446 43.8782 9.54674 44.0195 9.74691C44.0862 9.8411 44.153 9.9353 44.2197 10.0295C44.2354 10.0609 44.253 10.0903 44.2727 10.1178C44.3001 9.61542 44.2197 9.05809 44.0313 8.4458C43.9057 8.02977 43.7742 7.5941 43.6368 7.13882ZM42.4594 3.72416C42.2553 3.81443 42.0492 3.80855 41.8412 3.7065C41.6567 3.61623 41.5017 3.48278 41.3761 3.30616C41.2309 3.11776 41.1288 2.91171 41.07 2.68799C41.015 2.45642 41.0248 2.27195 41.0994 2.13458C41.17 1.99721 41.2309 1.91086 41.2819 1.87554C40.2379 0.996362 38.5875 0.380154 36.3307 0.0269134C36.1266 -0.0044857 35.8813 -0.00841041 35.5947 0.0151389C33.703 0.293806 32.2292 0.756943 31.1734 1.40455C30.9104 1.55762 30.6729 1.72639 30.461 1.91086C30.516 1.94226 30.5827 2.03057 30.6612 2.17579C30.7357 2.32101 30.7456 2.50744 30.6906 2.73509C30.6317 2.95881 30.5297 3.16486 30.3845 3.35326C30.2549 3.52988 30.0999 3.66332 29.9194 3.7536C29.6957 3.86349 29.47 3.85957 29.2423 3.74182C29.1756 3.94199 29.1108 4.14216 29.048 4.34233C28.6045 5.67287 28.2199 6.86996 27.8941 7.93361C27.9452 7.90613 27.9942 7.88062 28.0413 7.85707C28.2925 7.72755 28.5378 7.61961 28.7772 7.53327C28.8322 6.82679 29.0461 6.05751 29.419 5.22543C29.2894 6.04966 29.2188 6.77576 29.207 7.40375C29.2698 7.38412 29.3346 7.36842 29.4013 7.35665C29.8252 7.2703 30.0195 7.27619 29.9841 7.37431C29.9292 7.37431 29.6701 7.44692 29.207 7.59214C29.2031 8.22405 29.2659 8.74606 29.3954 9.15817C29.4778 9.08752 29.5622 9.0208 29.6486 8.958C30.0018 8.71073 30.1823 8.63812 30.1902 8.74017C30.1352 8.76372 29.8919 8.96193 29.4602 9.33479C29.6132 9.72728 29.837 9.9981 30.1313 10.1472C30.4061 10.2061 30.6926 10.2356 30.9909 10.2356C31.038 9.77634 31.1047 9.3289 31.191 8.89324C31.2146 8.85007 31.2342 8.80493 31.2499 8.75783C31.2774 8.70288 31.3049 8.6499 31.3323 8.59888C31.3559 8.56355 31.3833 8.53215 31.4147 8.50468C31.4265 8.4929 31.4403 8.48701 31.456 8.48701L31.4677 8.49879C31.4285 8.62439 31.4049 8.70485 31.3971 8.74017C31.3814 8.77549 31.3147 9.23471 31.1969 10.1178C31.1891 10.1531 31.1851 10.1904 31.1851 10.2297C31.7268 10.2061 32.3077 10.0864 32.9278 9.87054C32.6884 8.92464 32.6099 8.4615 32.6923 8.48113C32.7943 8.92464 32.9121 9.37404 33.0455 9.82933C33.5793 9.62916 34.1445 9.3603 34.7411 9.02276C35.1846 8.76372 35.5653 7.80212 35.8832 6.13797C34.9373 5.28234 34.274 4.59745 33.8933 4.08329C33.5126 3.56913 33.2751 3.07067 33.1809 2.5879C33.5303 1.84218 34.431 1.44772 35.8832 1.40455C36.6643 1.43202 37.2923 1.56155 37.7672 1.79311C37.8771 1.84806 37.983 1.91086 38.0851 1.98151C38.3363 2.16205 38.5286 2.38185 38.662 2.64089C38.5482 3.10403 38.3049 3.59268 37.932 4.10684C37.5552 4.621 36.8723 5.29804 35.8832 6.13797C36.2051 7.80212 36.5877 8.76372 37.0313 9.02276C37.4983 9.28573 37.9497 9.50749 38.3853 9.68803C38.4599 9.1935 38.5168 8.70092 38.5561 8.21031C38.6385 8.17891 38.6228 8.68915 38.509 9.74102C39.1841 10.0079 39.814 10.1669 40.3988 10.2179C40.3556 10.0256 40.3125 9.85484 40.2693 9.70569C40.022 8.85007 39.8905 8.40656 39.8748 8.37516C39.8631 8.33591 39.8258 8.25937 39.763 8.14555L39.7747 8.12789C39.7904 8.12789 39.8061 8.13377 39.8218 8.14555C39.8572 8.1691 39.8846 8.19461 39.9043 8.22208C39.9435 8.26918 39.9808 8.31824 40.0161 8.36927C40.0436 8.40852 40.0711 8.44973 40.0985 8.4929C40.2987 9.04631 40.4655 9.62523 40.599 10.2297C40.964 10.2454 41.3133 10.2179 41.6469 10.1472C42.1179 9.90783 42.4083 9.34657 42.5182 8.46347C42.4083 8.37712 42.2965 8.29862 42.1827 8.22797C41.9746 8.09453 41.802 7.98659 41.6646 7.90417C41.4723 7.79035 41.3584 7.72755 41.3231 7.71577C41.3153 7.60588 41.5056 7.65298 41.8942 7.85707C41.9295 7.87277 41.9629 7.88847 41.9943 7.90417C42.1748 8.00622 42.3554 8.12396 42.5359 8.25741C42.5712 7.86492 42.5732 7.41356 42.5418 6.90332C42.0708 6.8366 41.8098 6.80912 41.7588 6.8209C41.7078 6.72278 41.9001 6.68549 42.3357 6.70904C42.4025 6.71296 42.4692 6.71689 42.5359 6.72081C42.4967 6.26553 42.4358 5.76707 42.3534 5.22543C42.5967 5.76707 42.7734 6.28319 42.8833 6.7738C43.103 6.81305 43.3326 6.86996 43.5721 6.94453C43.262 5.96331 42.9088 4.882 42.5123 3.70061C42.4927 3.70846 42.4751 3.71631 42.4594 3.72416ZM77.642 84.8458C78.3916 84.1707 78.843 84.0098 78.9961 84.363C79.5063 84.5985 80.6857 84.887 82.5344 85.2284L78.531 82.8853L70.9717 79.3058L69.6176 78.9113C69.9591 78.4992 70.0925 78.0282 70.0179 77.4984C68.9621 70.0215 67.8671 64.0223 66.7328 59.5008L65.102 53.6959C63.7244 50.1517 62.0269 46.6801 60.0095 43.2812C57.5329 39.4152 55.4919 36.391 53.8867 34.2088C52.8309 32.7566 51.7653 31.2847 50.6898 29.7933C49.6144 28.2979 48.751 26.8535 48.0994 25.4602C47.4479 24.0669 46.9082 22.8011 46.4804 21.6629C46.3862 21.4156 46.292 21.1605 46.1978 20.8975C44.8908 17.2709 44.047 14.2193 43.6663 11.7427C43.9724 11.3659 44.1628 10.9303 44.2373 10.4357C44.2256 10.42 44.2158 10.4024 44.2079 10.3827C44.1333 10.265 44.0548 10.1472 43.9724 10.0295C43.8272 9.8254 43.6741 9.61935 43.5132 9.41133C43.4739 9.36423 43.4347 9.31713 43.3954 9.27003C43.2816 9.13266 43.1521 8.99529 43.0069 8.85792C42.9755 8.82652 42.946 8.79904 42.9186 8.77549C42.7616 9.59972 42.5457 10.1629 42.271 10.4652C42.1768 10.5672 42.0531 10.6536 41.9001 10.7242L41.9236 10.8066C42.528 13.1105 42.8538 15.7657 42.9009 18.7722L43.837 18.8134C43.9351 18.8173 43.9979 18.833 44.0254 18.8605C44.0646 18.8841 44.0843 18.9272 44.0843 18.99C44.0803 19.0528 44.0588 19.098 44.0195 19.1254C44.3531 19.1097 44.6966 19.1215 45.0498 19.1608C45.1989 19.1765 45.2833 19.2275 45.3029 19.3138C45.3108 19.3727 45.2872 19.4316 45.2323 19.4904C45.1106 19.5964 44.9242 19.6651 44.673 19.6965C44.5984 19.6965 44.5101 19.7044 44.4081 19.7201C44.255 19.7318 44.0705 19.7475 43.8547 19.7672C43.5446 19.7868 43.2286 19.8084 42.9068 19.8319C42.8991 20.6146 42.8775 21.4192 42.842 22.2457C42.8579 22.2669 42.8677 22.2963 42.8715 22.334C42.8793 22.3811 42.8675 22.4223 42.8362 22.4577H42.8303C42.6929 25.0363 42.3868 27.8348 41.9118 30.853C42.163 30.853 42.3926 30.8726 42.6007 30.9119C42.7106 30.9158 42.7891 30.9511 42.8362 31.0179C42.8519 31.0453 42.8597 31.0826 42.8597 31.1297C42.8597 31.1376 42.8597 31.1474 42.8597 31.1591C42.8322 31.2062 42.8008 31.2337 42.7655 31.2416C42.7891 31.269 42.7949 31.3122 42.7832 31.3711C42.7635 31.4103 42.7361 31.4496 42.7007 31.4888C42.6419 31.5163 42.5614 31.532 42.4594 31.5359C42.2396 31.532 42.0198 31.534 41.8 31.5418C41.7411 31.8951 41.6803 32.2503 41.6175 32.6074C41.5115 32.8665 41.4036 32.8586 41.2937 32.5839C41.2662 32.2424 41.2407 31.9049 41.2171 31.5713C40.9071 31.587 40.6049 31.6164 40.3105 31.6596C40.3105 31.7263 40.2771 31.7793 40.2104 31.8185C40.1594 31.8342 40.1005 31.8382 40.0338 31.8303C40.0495 31.8499 40.0534 31.8774 40.0456 31.9127C40.0338 31.9441 40.0181 31.9736 39.9985 32.001C39.9631 32.0246 39.9102 32.0481 39.8395 32.0717C39.6786 32.0992 39.5196 32.1207 39.3626 32.1364C39.029 32.1639 38.7033 32.1718 38.3853 32.16C38.2754 32.1561 38.2009 32.1404 38.1616 32.1129C38.1263 32.0854 38.1027 32.0521 38.091 32.0128C38.0674 31.9657 38.0655 31.9284 38.0851 31.901C37.9634 31.9402 37.8437 31.95 37.726 31.9304C37.6161 31.9068 37.5572 31.8578 37.5493 31.7832C37.5493 31.7754 37.5493 31.7695 37.5493 31.7655C37.5493 31.7145 37.5729 31.6753 37.62 31.6478C37.6632 31.6125 37.7122 31.5928 37.7672 31.5889C37.9595 31.5379 38.142 31.5124 38.3147 31.5124C38.4167 31.5006 38.4893 31.4908 38.5325 31.4829C38.5639 31.4476 38.6189 31.4084 38.6974 31.3652C38.7562 31.3103 38.8112 31.2926 38.8622 31.3122C38.8504 31.2376 38.9132 31.1866 39.0506 31.1591C39.341 31.0689 39.7905 30.9982 40.3988 30.9472C40.548 30.9315 40.7069 30.9197 40.8757 30.9119C40.9777 30.904 41.0719 30.8962 41.1583 30.8883C40.9895 28.8278 40.8207 26.9163 40.652 25.1541C40.6206 25.1698 40.5793 25.1855 40.5283 25.2012C40.2654 25.26 40.0632 25.3012 39.9219 25.3248C39.7728 25.3405 39.6119 25.3523 39.4392 25.3601C38.2539 25.4033 37.0627 25.3974 35.8656 25.3425C35.4809 25.3189 35.214 25.3209 35.0649 25.3483C34.9589 25.3601 34.8902 25.3562 34.8588 25.3366C34.8117 25.3209 34.7784 25.2993 34.7588 25.2718C34.7313 25.2365 34.7234 25.2012 34.7352 25.1658C34.7509 25.0952 34.8196 25.0599 34.9413 25.0599C37.1235 24.8401 38.9937 24.7478 40.5519 24.7832C40.5754 24.7832 40.597 24.7832 40.6166 24.7832C40.5499 24.1002 40.4851 23.4389 40.4223 22.7991C40.4067 22.7991 40.3929 22.7991 40.3811 22.7991C39.082 22.8109 37.8103 22.9659 36.5662 23.2642C36.3974 23.2917 36.2875 23.2721 36.2365 23.2054C36.1972 23.1504 36.1953 23.0915 36.2306 23.0287C36.2502 22.962 36.2895 22.9326 36.3483 22.9404C36.1403 22.8855 35.9421 22.8855 35.7537 22.9404C35.6556 22.9444 35.5889 22.9385 35.5535 22.9228C35.5064 22.8953 35.4849 22.8325 35.4888 22.7344C35.4809 22.6323 35.4888 22.5715 35.5123 22.5519C35.5359 22.5087 35.5967 22.4793 35.6948 22.4636C36.9469 22.2987 37.9772 22.1986 38.7857 22.1633C39.1939 22.1397 39.6649 22.124 40.1986 22.1162H40.3458C40.2555 21.2409 40.1633 20.4108 40.0691 19.6259C39.9945 19.6141 39.8454 19.6278 39.6217 19.6671C39.4529 19.6906 39.1723 19.6906 38.7798 19.6671C38.4266 19.6474 38.0753 19.6357 37.726 19.6317C37.726 19.6239 37.7279 19.618 37.7318 19.6141C37.7515 19.5945 37.777 19.5709 37.8084 19.5434C37.7809 19.5199 37.7495 19.4904 37.7142 19.4551C37.6789 19.408 37.6553 19.3727 37.6435 19.3492C37.6357 19.3217 37.6357 19.2765 37.6435 19.2137C37.6396 19.1431 37.6376 19.0881 37.6376 19.0489C37.6337 18.99 37.6455 18.941 37.673 18.9017C37.724 18.8389 37.8103 18.8232 37.932 18.8546C37.9556 18.8625 37.983 18.8742 38.0144 18.8899C38.6189 18.8428 38.9839 18.8193 39.1095 18.8193C39.082 18.78 39.082 18.7428 39.1095 18.7074C39.1213 18.6643 39.1527 18.6368 39.2037 18.625C39.2272 18.6172 39.2665 18.6211 39.3214 18.6368C39.345 18.6329 39.3862 18.6407 39.4451 18.6603C39.5039 18.6643 39.6413 18.6643 39.8572 18.6603C39.8886 18.6564 39.9219 18.6544 39.9573 18.6544C39.867 17.9597 39.7806 17.3023 39.6982 16.6822C39.1841 16.7332 38.7896 16.7823 38.5149 16.8294C38.0164 16.9236 37.6435 16.9903 37.3963 17.0295C36.886 17.1002 36.4072 17.1316 35.9598 17.1237C35.8695 17.1237 35.8087 17.1061 35.7773 17.0708C35.7498 17.0315 35.7419 16.9903 35.7537 16.9471C35.7616 16.9 35.789 16.8745 35.8361 16.8706C35.7812 16.8353 35.7635 16.7823 35.7831 16.7116C35.8028 16.6449 35.844 16.5978 35.9068 16.5703C35.9696 16.5311 36.0598 16.5173 36.1776 16.5291C36.2247 16.5173 36.315 16.5173 36.4484 16.5291C36.5505 16.5173 36.7035 16.4958 36.9076 16.4644C36.9233 16.4526 36.9449 16.4467 36.9724 16.4467C37.1726 16.3682 37.3452 16.3132 37.4905 16.2818C37.726 16.2191 38.0007 16.1798 38.3147 16.1641C38.5973 16.1366 38.8956 16.1209 39.2096 16.117C39.2645 16.117 39.3253 16.117 39.3921 16.117L39.6158 16.1229C39.6197 16.1386 39.6236 16.1543 39.6276 16.17C39.4038 14.6118 39.1821 13.3264 38.9623 12.3138C38.8838 12.9575 38.7582 13.3676 38.5855 13.5442C38.1891 13.7169 37.7711 13.8523 37.3315 13.9505C37.2844 14.0368 37.2373 14.1232 37.1902 14.2095C37.2216 14.1271 37.253 14.0447 37.2844 13.9622C36.8409 14.0525 36.3738 14.1075 35.8832 14.1271C35.4476 14.1349 35.0335 14.1016 34.641 14.027C34.7234 14.2115 34.8098 14.3959 34.9 14.5804C34.7823 14.3881 34.6724 14.1997 34.5704 14.0152C34.1268 13.925 33.7108 13.7876 33.3222 13.6031C33.1574 13.4932 33.0141 13.2518 32.8925 12.879C32.6531 14.5392 32.4313 16.2171 32.2272 17.9126C32.0741 19.2314 31.9328 20.5659 31.8033 21.916C31.8151 21.8218 31.8249 21.7296 31.8328 21.6393C31.872 21.6393 31.9093 21.6432 31.9446 21.6511C32.0506 21.6707 32.1428 21.7217 32.2213 21.8042C32.2527 21.8356 32.2743 21.8886 32.2861 21.9631C32.29 22.022 32.2821 22.073 32.2625 22.1162C32.2154 22.1711 32.1507 22.2045 32.0682 22.2163C32.0251 22.2124 31.9525 22.2025 31.8504 22.1868C31.8779 22.2143 31.9034 22.2496 31.9269 22.2928C31.9387 22.3281 31.9387 22.3713 31.9269 22.4223C31.9034 22.4577 31.8779 22.491 31.8504 22.5224C31.8072 22.5342 31.7719 22.5362 31.7444 22.5283C31.7327 22.6107 31.7248 22.6951 31.7209 22.7815C31.7248 22.7383 31.7287 22.6932 31.7327 22.6461L32.7865 22.7403C32.9082 22.7442 32.9984 22.7658 33.0573 22.805C33.0848 22.8129 33.126 22.8403 33.1809 22.8874C33.2359 22.9267 33.3321 22.9522 33.4694 22.964C33.5872 22.9522 33.6814 22.9718 33.752 23.0228C33.7834 23.0503 33.8109 23.0935 33.8344 23.1524C33.8384 23.2034 33.8305 23.2505 33.8109 23.2937C33.752 23.3447 33.6578 23.3545 33.5283 23.3231C33.281 23.2564 32.9847 23.2191 32.6393 23.2112C32.239 23.2034 31.9446 23.1936 31.7562 23.1818C31.7327 23.1818 31.7091 23.1779 31.6856 23.17C31.4108 26.1961 31.2048 29.2811 31.0674 32.4249C31.0125 32.5309 30.9438 32.5309 30.8613 32.4249C30.2491 30.8079 29.7977 29.0377 29.5073 27.1145C29.1069 27.0792 28.6732 27.0616 28.2062 27.0616C27.8647 27.0498 27.3152 27.0596 26.5577 27.091C26.2594 27.091 26.0592 27.0871 25.9572 27.0792C25.7256 27.0635 25.5274 27.038 25.3626 27.0027C25.1703 26.9399 25.0466 26.8535 24.9917 26.7436C24.9446 26.6455 24.9465 26.5709 24.9976 26.5199C25.025 26.4768 25.0859 26.4532 25.1801 26.4493H29.0068C29.1481 26.4493 29.2816 26.4493 29.4072 26.4493C29.4111 26.4768 29.417 26.5042 29.4248 26.5317C29.2796 25.4484 29.1854 24.3181 29.1422 23.1406C29.0402 23.1406 28.9637 23.1229 28.9126 23.0876L28.8067 22.9875C28.7596 22.9601 28.7027 22.9502 28.6359 22.9581C28.1963 22.9502 27.7352 22.9659 27.2524 23.0052C27.1464 23.0052 27.0719 22.9914 27.0287 22.964C26.9973 22.9365 26.9757 22.9031 26.9639 22.8639C26.9404 22.8246 26.9423 22.7913 26.9698 22.7638C26.9227 22.7442 26.8737 22.7344 26.8226 22.7344C26.7559 22.7344 26.7088 22.7383 26.6813 22.7461C26.6146 22.7383 26.5616 22.7246 26.5224 22.7049C26.4792 22.6735 26.4576 22.6382 26.4576 22.599C26.4341 22.5322 26.4478 22.4753 26.4988 22.4282C26.6205 22.2712 26.8187 22.181 27.0935 22.1574C27.1092 22.1496 27.221 22.1417 27.429 22.1339C27.5546 22.1339 27.6665 22.128 27.7646 22.1162C27.7214 22.0966 27.6979 22.0652 27.694 22.022C27.6861 21.971 27.6959 21.9317 27.7234 21.9043C27.7626 21.8375 27.8333 21.8042 27.9353 21.8042C27.9196 21.7767 27.9177 21.7453 27.9295 21.71C27.9334 21.6707 27.951 21.6491 27.9824 21.6452C28.006 21.6256 28.0472 21.6177 28.1061 21.6217H29.1128C29.1128 20.4285 29.1619 19.1922 29.26 17.9126C29.4209 15.6794 29.727 13.3107 30.1784 10.8066C29.8801 10.7478 29.6544 10.6339 29.5014 10.4652C29.3404 10.2925 29.2011 10.0315 29.0834 9.68214C28.7851 9.98044 28.5476 10.2787 28.371 10.577C28.2022 10.8675 28.0452 11.1579 27.9 11.4483C27.9628 11.5504 28.0315 11.6485 28.1061 11.7427C27.6037 13.8504 27.0758 15.907 26.5224 17.9126C24.4265 25.4995 21.9617 32.3916 19.1279 38.589C14.6535 49.8495 12.1514 59.124 11.6216 66.4125L11.6039 66.7245C11.6 66.8227 11.5921 66.9228 11.5804 67.0248C11.2821 71.8053 11.6333 76.4504 12.6342 80.9601C10.189 81.7569 8.24225 82.5733 6.79397 83.4093C5.34961 84.2492 4.19766 84.989 3.33812 85.6288C2.47072 86.2646 1.61313 86.7866 0.765352 87.1948C0.48276 87.3322 0.249229 87.4676 0.0647591 87.601V87.707H0C2.26858 88.4567 5.99918 87.0182 11.1918 83.3916C9.63754 84.5965 8.48952 85.6661 7.74771 86.6002C7.37093 87.0829 7.52008 87.5147 8.19516 87.8954C9.85538 88.7471 12.2967 88.8766 15.519 88.284C18.7452 87.6874 20.3544 87.1006 20.3466 86.5237L24.4324 64.034L22.3542 81.072C22.5308 83.1129 23.5807 84.5494 25.5039 85.3815C32.9023 87.1556 40.5735 86.3588 48.5174 82.9912C49.3102 82.5203 49.5987 81.8903 49.3829 81.1014C48.3899 77.8948 47.5166 74.3271 46.763 70.3982L52.2206 85.4875C52.4639 86.1233 52.7543 86.5413 53.0919 86.7415C53.4294 86.9377 53.7709 87.0947 54.1163 87.2125C54.4617 87.3302 54.913 87.446 55.4703 87.5598C55.8942 87.654 56.3201 87.7443 56.7479 87.8306C59.0479 88.231 61.497 88.2094 64.0953 87.7659C64.3661 87.8012 64.4721 87.7188 64.4132 87.5186L63.7361 86.0527C63.5752 85.8643 63.5752 85.7642 63.7361 85.7524C65.5848 87.1261 67.2254 87.9288 68.658 88.1603C70.0827 88.3958 70.9932 88.4292 71.3897 88.2604C71.7939 88.0838 72.1825 88.0171 72.5554 88.0602C72.4455 87.6167 72.1805 87.1654 71.7606 86.7062C70.2338 85.0263 66.6621 83.2307 61.0456 81.3193C59.8015 71.3814 58.1765 61.3219 56.1709 51.1408C56.5595 52.1887 56.9363 53.2739 57.3013 54.3965L57.5015 55.05L57.5074 55.0441C57.5702 55.2482 57.633 55.4542 57.6958 55.6622L57.89 56.2863C57.9214 56.3962 57.9548 56.51 57.9901 56.6278C59.9565 63.253 61.5206 71.038 62.6823 79.9828C65.5946 81.0268 68.238 82.6517 70.6125 84.8575C71.4014 84.5946 72.0903 84.1687 72.679 83.58C73.5228 83.8861 74.1037 84.2786 74.4216 84.7574C75.0889 84.8987 75.4441 84.7084 75.4872 84.1864C76.2761 84.2335 76.9944 84.4533 77.642 84.8458ZM48.8177 29.8757C48.8765 29.8914 48.9197 29.9405 48.9472 30.0229C48.9511 30.0935 48.9315 30.1544 48.8883 30.2054C48.8451 30.2368 48.7804 30.2584 48.694 30.2702C48.6626 30.2702 48.6312 30.2702 48.5998 30.2702L46.1154 30.123C45.9976 30.1112 45.9152 30.119 45.8681 30.1465L45.7209 30.1936C45.6228 30.2289 45.4796 30.2407 45.2912 30.2289C45.3069 30.2446 45.3088 30.2859 45.2971 30.3526C45.2696 30.3801 45.2362 30.4016 45.197 30.4173C45.146 30.4409 45.0596 30.4468 44.9379 30.435C44.7888 30.4075 44.518 30.3997 44.1255 30.4115C43.784 30.4075 43.521 30.382 43.3366 30.3349C43.2188 30.3035 43.1344 30.2623 43.0834 30.2113C43.0285 30.172 42.9873 30.1171 42.9598 30.0464C42.9127 29.9483 42.9166 29.8718 42.9716 29.8168C43.0069 29.754 43.0775 29.7325 43.1835 29.7521C43.3052 29.756 43.3876 29.756 43.4308 29.7521C43.4033 29.7207 43.3974 29.6912 43.4131 29.6638C43.4092 29.6245 43.4288 29.597 43.472 29.5813C43.4995 29.5421 43.5603 29.5264 43.6545 29.5342L44.4611 29.4813H43.1541C43.0638 29.4813 42.999 29.4734 42.9598 29.4577C42.8931 29.4302 42.8597 29.389 42.8597 29.3341C42.8597 29.3223 42.8617 29.3086 42.8656 29.2929C42.8774 29.2104 42.9559 29.1692 43.1011 29.1692L45.4442 29.1104C45.7308 29.0947 46.0212 29.0907 46.3156 29.0986C46.4765 29.0986 46.7218 29.1064 47.0515 29.1221C47.3341 29.1378 47.5774 29.1398 47.7815 29.128C47.8678 29.1162 47.9463 29.1182 48.017 29.1339C48.1112 29.1614 48.1661 29.2144 48.1818 29.2929C48.1936 29.3243 48.1877 29.3655 48.1642 29.4165C48.1485 29.444 48.121 29.4656 48.0818 29.4813L48.8648 29.546C48.9904 29.5578 49.0649 29.597 49.0885 29.6638C49.0924 29.6755 49.0944 29.6912 49.0944 29.7109C49.0944 29.7226 49.0924 29.7403 49.0885 29.7638C49.0689 29.7874 49.0453 29.8129 49.0178 29.8404C48.959 29.8639 48.8923 29.8757 48.8177 29.8757ZM45.6268 22.1574C45.7288 22.1653 45.8544 22.1888 46.0035 22.2281C46.0663 22.2359 46.1134 22.2575 46.1448 22.2928C46.1605 22.2928 46.1821 22.3321 46.2096 22.4106C46.2135 22.4812 46.2155 22.5283 46.2155 22.5519C46.1998 22.6186 46.1507 22.6598 46.0683 22.6755C46.0369 22.6755 45.9977 22.6716 45.9506 22.6637L45.8505 22.6578L45.2323 22.6932C45.0949 22.6853 44.9085 22.6755 44.673 22.6637L44.4611 22.6402C44.3708 22.6245 44.3099 22.6029 44.2785 22.5754L44.1961 22.5224C44.1844 22.5067 44.1549 22.5008 44.1078 22.5048C44.0646 22.493 44.0372 22.4675 44.0254 22.4282C44.0018 22.3772 44.0018 22.3399 44.0254 22.3164C44.0411 22.2575 44.098 22.2222 44.1961 22.2104C44.255 22.1868 44.3531 22.1731 44.4905 22.1692C44.6239 22.1456 44.7476 22.1437 44.8614 22.1633C44.9203 22.1594 44.9576 22.1535 44.9733 22.1456L45.0321 22.1103C45.0714 22.0593 45.1381 22.0455 45.2323 22.0691C45.2637 22.073 45.3343 22.0946 45.4442 22.1339L45.6268 22.1574ZM43.5132 25.4425C43.5485 25.419 43.6035 25.3896 43.678 25.3542C43.7291 25.3346 43.7801 25.3287 43.8311 25.3366C43.8586 25.3326 43.9096 25.3346 43.9842 25.3425C44.0352 25.3425 44.0823 25.3346 44.1255 25.3189C44.149 25.2914 44.1863 25.2581 44.2373 25.2188C44.2727 25.1874 44.3708 25.1835 44.5317 25.2071C44.6063 25.2031 44.7456 25.2051 44.9497 25.2129C45.1106 25.2129 45.2401 25.2227 45.3383 25.2424C45.4285 25.2659 45.5679 25.3091 45.7563 25.3719C45.8662 25.3797 45.9996 25.3935 46.1566 25.4131C46.4274 25.4288 46.6747 25.4386 46.8984 25.4425C47.024 25.4425 47.1084 25.4739 47.1516 25.5367C47.1633 25.5642 47.1673 25.5995 47.1633 25.6427C47.1555 25.682 47.1359 25.7173 47.1045 25.7487C47.0417 25.7879 46.9632 25.8076 46.869 25.8076C46.7316 25.8036 46.6531 25.8095 46.6335 25.8252C46.5982 25.8134 46.5569 25.8213 46.5098 25.8488C46.4314 25.8723 46.3862 25.8861 46.3744 25.89C46.347 25.89 46.2704 25.8998 46.1448 25.9194C45.3402 25.9233 44.6004 25.9194 43.9253 25.9076C43.8115 25.8959 43.7291 25.8762 43.678 25.8488C43.6388 25.8213 43.6152 25.8056 43.6074 25.8017L43.5132 25.784L43.3248 25.8076C43.2267 25.8076 43.1678 25.8017 43.1482 25.7899C43.0658 25.7624 43.0246 25.7192 43.0246 25.6604C43.001 25.6094 43.0147 25.5681 43.0658 25.5367C43.0972 25.4857 43.1423 25.4661 43.2012 25.4779C43.2208 25.4622 43.2757 25.4563 43.366 25.4602C43.4249 25.4563 43.4739 25.4504 43.5132 25.4425ZM45.1381 34.356C45.3029 34.2853 45.4776 34.248 45.6621 34.2441C45.611 34.2363 45.5855 34.2049 45.5855 34.1499C45.5581 34.095 45.5698 34.0518 45.6209 34.0204C45.6523 33.9694 45.7327 33.9439 45.8622 33.9439C46.6943 33.9085 47.2987 33.8928 47.6755 33.8968C48.3506 33.8889 48.9609 33.9105 49.5065 33.9615C49.6007 33.9615 49.6851 33.9753 49.7596 34.0027L49.9539 34.0852C49.9893 34.0852 50.0521 34.0812 50.1423 34.0734C50.2169 34.0538 50.2718 34.0518 50.3072 34.0675C50.37 34.0675 50.4269 34.093 50.4779 34.144C50.5171 34.1872 50.5309 34.2363 50.5191 34.2912C50.4877 34.3736 50.4033 34.4109 50.2659 34.4031C49.9363 34.3913 49.6399 34.409 49.377 34.4561C49.373 34.4953 49.3534 34.5385 49.3181 34.5856C49.2671 34.617 49.22 34.6307 49.1768 34.6268C49.1925 34.6543 49.1984 34.6857 49.1945 34.721C49.1905 34.7524 49.1788 34.7779 49.1591 34.7975C49.112 34.8211 49.0492 34.8407 48.9707 34.8564C48.5547 34.8682 48.0268 34.8603 47.3871 34.8328C46.5589 34.7857 46.033 34.7622 45.8092 34.7622C45.5777 34.7583 45.4089 34.7602 45.3029 34.7681C45.0949 34.7602 44.9242 34.7504 44.7907 34.7386C44.6416 34.7151 44.5611 34.666 44.5494 34.5915C44.5376 34.5483 44.5513 34.513 44.5906 34.4855C44.6063 34.4423 44.6396 34.4168 44.6907 34.409C44.7417 34.4011 44.83 34.3991 44.9556 34.4031C44.9948 34.3952 45.0557 34.3795 45.1381 34.356ZM43.8017 34.3854C43.8723 34.4207 43.9076 34.4757 43.9076 34.5503C43.8841 34.6366 43.7997 34.6798 43.6545 34.6798C43.4425 34.6798 43.2581 34.6739 43.1011 34.6621C43.0972 34.721 43.0736 34.7681 43.0304 34.8034C42.9716 34.8387 42.9107 34.8623 42.8479 34.8741C42.6831 34.8466 42.5653 34.8407 42.4947 34.8564C42.4515 34.8564 42.3769 34.876 42.271 34.9153C42.1061 34.9584 41.851 34.9722 41.5056 34.9565C40.022 34.8623 38.5934 34.8701 37.2197 34.98C37.0666 34.98 36.9704 34.9526 36.9312 34.8976C36.8762 34.8466 36.8625 34.7877 36.89 34.721C36.8939 34.6425 36.9233 34.5836 36.9783 34.5444C36.9626 34.5169 36.9606 34.4933 36.9724 34.4737C36.9763 34.4384 36.9861 34.4188 37.0018 34.4148C37.0371 34.3874 37.0842 34.3795 37.1431 34.3913C39.918 34.3049 42.0688 34.2932 43.5956 34.356C43.6741 34.3403 43.7428 34.3501 43.8017 34.3854ZM41.4055 38.7891C41.4723 38.8205 41.5095 38.8716 41.5174 38.9422C41.5095 38.9501 41.5056 38.9599 41.5056 38.9716C41.4781 39.0462 41.4055 39.0874 41.2878 39.0953C41.2682 39.0953 41.2466 39.0972 41.223 39.1012C40.6539 39.0501 39.7316 39.0285 38.456 39.0364C37.671 39.0364 37.1235 39.0521 36.8134 39.0835C36.4994 39.0914 36.3189 39.0992 36.2718 39.107C36.1697 39.0835 36.0991 39.0757 36.0598 39.0835C35.9696 39.0717 35.9009 39.0698 35.8538 39.0776C35.7949 39.0776 35.7517 39.0815 35.7243 39.0894C35.6772 39.0855 35.6379 39.0835 35.6065 39.0835C35.5634 39.0639 35.528 39.0403 35.5005 39.0129C35.4731 38.9775 35.4593 38.9461 35.4593 38.9187C35.4593 38.9069 35.4613 38.8951 35.4652 38.8833C35.4809 38.8127 35.5359 38.7774 35.6301 38.7774C35.6576 38.7656 35.6929 38.7656 35.736 38.7774C35.7674 38.7656 35.8028 38.7577 35.842 38.7538C35.842 38.746 35.895 38.7126 36.001 38.6537C36.0716 38.587 36.1992 38.5556 36.3836 38.5595C36.572 38.5399 36.7075 38.5164 36.7899 38.4889C36.5662 38.5007 36.3778 38.5065 36.2247 38.5065C36.1187 38.4987 36.052 38.4751 36.0245 38.4359C36.0049 38.4045 36.0049 38.3692 36.0245 38.3299C36.0324 38.2907 36.052 38.2652 36.0834 38.2534C36.1187 38.2102 36.1835 38.1827 36.2777 38.171C37.4159 38.0454 38.3638 37.9629 39.1213 37.9237C39.447 37.908 39.7355 37.9021 39.9867 37.906C40.128 37.8903 40.2241 37.91 40.2752 37.9649C40.3144 38.0002 40.3282 38.0552 40.3164 38.1298C40.3085 38.1847 40.2791 38.2161 40.2281 38.2239C40.3026 38.2789 40.3242 38.3692 40.2928 38.4948C40.3792 38.4555 40.4557 38.481 40.5224 38.5713C40.5578 38.6263 40.5852 38.6596 40.6049 38.6714C40.6363 38.7028 40.6971 38.7224 40.7874 38.7303L41.1995 38.7361C41.2819 38.7361 41.3506 38.7538 41.4055 38.7891ZM43.6133 39.3543C43.5858 39.2994 43.5976 39.2542 43.6486 39.2189C43.6643 39.164 43.7016 39.1306 43.7605 39.1188C43.7833 39.1036 43.8166 39.0938 43.8605 39.0894L43.366 39.1247C43.2836 39.1208 43.2365 39.1012 43.2247 39.0658C43.1972 39.0109 43.2208 38.9697 43.2954 38.9422C43.315 38.9226 43.3601 38.899 43.4308 38.8716L43.5132 38.7774C43.5407 38.746 43.5956 38.7263 43.678 38.7185C43.7055 38.7146 43.7369 38.7126 43.7722 38.7126L46.3332 38.6007C46.5177 38.5929 46.6394 38.6302 46.6982 38.7126L46.7394 38.7597C46.7355 38.7832 46.7493 38.8009 46.7807 38.8127H46.9102C47.0358 38.8009 47.128 38.8362 47.1869 38.9187C47.2144 38.9618 47.2222 39.0187 47.2104 39.0894C47.1908 39.1365 47.1575 39.1679 47.1104 39.1836C47.2595 39.2032 47.3498 39.2268 47.3812 39.2542C47.4243 39.266 47.4597 39.2974 47.4871 39.3484C47.4989 39.3681 47.5048 39.3955 47.5048 39.4309C47.5048 39.4505 47.5028 39.4701 47.4989 39.4897C47.4675 39.5525 47.3772 39.5839 47.2281 39.5839L46.6629 39.5722C46.6511 39.6271 46.6158 39.6781 46.5569 39.7252C46.5295 39.7291 46.4902 39.7311 46.4392 39.7311C46.4117 39.739 46.3842 39.7448 46.3568 39.7488C45.6895 39.7488 44.5396 39.7959 42.9068 39.8901C42.7459 39.9018 42.6635 39.8665 42.6595 39.7841C42.6556 39.7645 42.6536 39.7507 42.6536 39.7429C42.6536 39.7193 42.6615 39.6997 42.6772 39.684C42.6929 39.6369 42.7184 39.6134 42.7537 39.6134C42.7891 39.582 42.8558 39.5682 42.9539 39.5722C43.2443 39.5604 43.6015 39.5388 44.0254 39.5074C43.9979 39.4838 43.9606 39.478 43.9135 39.4897C43.8586 39.4858 43.8193 39.4799 43.7958 39.4721C43.6898 39.4642 43.629 39.425 43.6133 39.3543ZM47.3694 36.7109C47.4871 36.6991 47.7992 36.6677 48.3055 36.6167C48.694 36.5618 49.0159 36.5421 49.271 36.5578C49.3573 36.5657 49.4162 36.5853 49.4476 36.6167C49.4672 36.6324 49.4849 36.656 49.5006 36.6874C49.5124 36.7227 49.5104 36.7541 49.4947 36.7816L50.1953 36.8051C50.2895 36.7973 50.3739 36.8071 50.4485 36.8345C50.527 36.8699 50.576 36.8895 50.5956 36.8934C50.6467 36.9052 50.7232 36.917 50.8252 36.9287C50.9037 36.9287 50.9705 36.968 51.0254 37.0465C51.049 37.074 51.0568 37.1132 51.049 37.1642C51.045 37.2074 51.0293 37.2388 51.0019 37.2584C50.9705 37.2702 50.9253 37.2761 50.8665 37.2761C50.7762 37.2643 50.7212 37.2604 50.7016 37.2643L50.5898 37.2996C50.5505 37.3114 50.4661 37.3153 50.3366 37.3114L49.8421 37.2584C49.4221 37.2035 48.6391 37.1623 47.493 37.1348C47.3517 37.123 47.2634 37.1034 47.2281 37.0759C47.1732 37.0484 47.1378 37.0131 47.1221 36.9699C47.0868 36.9189 47.0809 36.8738 47.1045 36.8345C47.128 36.7443 47.2163 36.7031 47.3694 36.7109ZM51.049 38.8186C51.0686 38.8735 51.0666 38.9285 51.0431 38.9834C51.0038 39.0344 50.9234 39.0658 50.8017 39.0776C50.4642 39.109 50.2012 39.0972 50.0128 39.0423C49.8833 38.9952 49.8126 38.9344 49.8009 38.8598C49.7891 38.7774 49.8264 38.7204 49.9127 38.689C49.948 38.6655 50.0207 38.6537 50.1306 38.6537C50.4131 38.6498 50.627 38.6576 50.7723 38.6773C50.9096 38.693 51.0019 38.7401 51.049 38.8186ZM29.1481 18.6368C29.1678 18.6329 29.1874 18.6329 29.207 18.6368C29.1795 19.0607 29.1579 19.4865 29.1422 19.9143C29.1305 19.9026 29.1207 19.8967 29.1128 19.8967C29.0422 19.8692 28.9892 19.8339 28.9539 19.7907C28.8989 19.7318 28.8734 19.673 28.8773 19.6141C28.8106 19.6141 28.7341 19.5886 28.6477 19.5375C28.53 19.4551 28.4495 19.4139 28.4063 19.4139C28.3435 19.3943 28.3023 19.3806 28.2827 19.3727L28.1649 19.2903C28.0825 19.2353 28.0217 19.2 27.9824 19.1843C27.9157 19.1294 27.8824 19.0744 27.8824 19.0195C27.8706 18.9135 27.9432 18.833 28.1002 18.7781C28.3867 18.6721 28.736 18.625 29.1481 18.6368ZM33.3222 18.6839C33.4361 18.68 33.6048 18.6662 33.8285 18.6427C34.0287 18.6152 34.1975 18.6054 34.3349 18.6132C34.4683 18.6054 34.6842 18.6191 34.9825 18.6544C34.9825 18.7957 35.0237 18.9272 35.1061 19.0489C35.1375 19.0999 35.1807 19.1706 35.2356 19.2608C35.2866 19.3354 35.3063 19.408 35.2945 19.4787C35.2906 19.5336 35.2533 19.6141 35.1826 19.7201C35.1159 19.8143 35.0826 19.8927 35.0826 19.9555C35.0826 19.9752 35.0845 19.9968 35.0884 20.0203C34.8686 20.0321 34.6155 20.0458 34.329 20.0615C33.9169 20.0497 33.6166 20.0497 33.4282 20.0615C33.3654 20.0694 32.8827 20.1027 31.9799 20.1616C32.031 19.6749 32.0839 19.1902 32.1389 18.7074H32.3685C32.7845 18.7074 33.1024 18.6996 33.3222 18.6839ZM32.9101 26.9791C32.8905 27.0812 32.8042 27.1342 32.6511 27.1381C32.082 27.1028 31.6561 27.1008 31.3735 27.1322C31.3853 26.9399 31.399 26.7476 31.4147 26.5552C31.6581 26.5827 31.9034 26.618 32.1507 26.6612C32.3783 26.6965 32.553 26.7299 32.6746 26.7613C32.7335 26.777 32.7865 26.8045 32.8336 26.8437C32.8846 26.8791 32.9101 26.9242 32.9101 26.9791ZM31.7209 29.9581C31.717 29.9267 31.7209 29.8993 31.7327 29.8757C31.768 29.7894 31.8328 29.7383 31.9269 29.7226C31.9583 29.7069 32.0054 29.6912 32.0682 29.6755C32.0879 29.6559 32.1389 29.6245 32.2213 29.5813C32.2645 29.5382 32.3116 29.5185 32.3626 29.5225C32.3273 29.5068 32.3155 29.4793 32.3273 29.44C32.3273 29.3969 32.341 29.3674 32.3685 29.3517C32.4038 29.3125 32.4686 29.2929 32.5628 29.2929L37.2138 29.234C37.308 29.2301 37.3688 29.236 37.3963 29.2517C37.4591 29.2791 37.4905 29.3262 37.4905 29.3929C37.4865 29.4911 37.4002 29.5519 37.2314 29.5755L35.9421 29.6461C35.9656 29.6814 35.9715 29.7266 35.9598 29.7815C35.9323 29.8208 35.9107 29.86 35.895 29.8993C35.8283 29.9228 35.7478 29.9424 35.6536 29.9581C35.3318 29.9738 34.7215 30.0013 33.8227 30.0406C33.0612 30.068 32.4588 30.1092 32.0153 30.1642C31.9093 30.1681 31.8386 30.1544 31.8033 30.123C31.7641 30.0916 31.7366 30.0543 31.7209 30.0111C31.717 29.9915 31.717 29.9738 31.7209 29.9581ZM23.4198 30.7824C23.4158 30.7784 23.4178 30.7725 23.4257 30.7647C23.4257 30.7608 23.4276 30.7568 23.4315 30.7529C23.4355 30.7451 23.4414 30.7392 23.4492 30.7353C23.4531 30.7274 23.459 30.7235 23.4669 30.7235C23.4708 30.7156 23.4767 30.7137 23.4845 30.7176C23.4845 30.7137 23.4884 30.7117 23.4963 30.7117C23.5042 30.7039 23.514 30.7039 23.5257 30.7117C23.5297 30.6999 23.5356 30.696 23.5434 30.6999C23.5513 30.6921 23.5611 30.6901 23.5728 30.694C23.5768 30.6901 23.5827 30.6862 23.5905 30.6823C23.6062 30.6705 23.618 30.6725 23.6258 30.6882C23.6297 30.6685 23.6396 30.6646 23.6553 30.6764C23.6553 30.6725 23.6631 30.6685 23.6788 30.6646C23.6827 30.645 23.6886 30.643 23.6965 30.6587C23.7082 30.6469 23.7181 30.6411 23.7259 30.6411C23.7259 30.6371 23.7318 30.6352 23.7436 30.6352C23.7396 30.6234 23.7377 30.6116 23.7377 30.5998C23.7298 30.592 23.7259 30.5861 23.7259 30.5822C23.722 30.5743 23.72 30.5665 23.72 30.5586C23.72 30.5469 23.722 30.539 23.7259 30.5351C23.7259 30.5233 23.7298 30.5174 23.7377 30.5174V30.5115C23.7377 30.4998 23.7396 30.4939 23.7436 30.4939C23.7436 30.4821 23.7495 30.4801 23.7612 30.488C23.7612 30.4762 23.7632 30.4723 23.7671 30.4762C23.775 30.4723 23.7809 30.4664 23.7848 30.4586C23.7966 30.4546 23.8083 30.4507 23.8201 30.4468C23.8201 30.4389 23.828 30.435 23.8437 30.435C23.8515 30.435 23.8574 30.435 23.8613 30.435C23.8652 30.4232 23.8731 30.4213 23.8849 30.4291C23.8966 30.4173 23.9084 30.4173 23.9202 30.4291C23.9202 30.4173 23.9261 30.4173 23.9378 30.4291C23.9378 30.4173 23.9398 30.4173 23.9437 30.4291C23.9555 30.4213 23.9693 30.4232 23.985 30.435C23.9928 30.4311 24.0007 30.4291 24.0085 30.4291C24.0164 30.4213 24.0222 30.4154 24.0262 30.4115C24.034 30.4115 24.0419 30.4115 24.0497 30.4115C24.0576 30.3997 24.0654 30.3938 24.0733 30.3938C24.0772 30.3938 24.0831 30.3997 24.0909 30.4115C24.0988 30.4075 24.1086 30.4075 24.1204 30.4115C24.1321 30.3997 24.1439 30.3977 24.1557 30.4056C24.1635 30.4056 24.1773 30.4056 24.1969 30.4056C24.2008 30.3977 24.2126 30.3997 24.2322 30.4115C24.2401 30.4075 24.2518 30.4075 24.2675 30.4115C24.2754 30.4115 24.2872 30.4095 24.3029 30.4056C24.3107 30.3977 24.3205 30.3938 24.3323 30.3938C24.3362 30.382 24.3441 30.382 24.3559 30.3938C24.3637 30.3899 24.3735 30.3879 24.3853 30.3879C24.3892 30.3761 24.399 30.3722 24.4147 30.3761C24.4147 30.3722 24.4226 30.3722 24.4383 30.3761C24.45 30.3722 24.4638 30.3702 24.4795 30.3702C24.4913 30.3702 24.505 30.3702 24.5207 30.3702C24.5285 30.3702 24.5403 30.3761 24.556 30.3879C24.5717 30.3761 24.5894 30.3722 24.609 30.3761C24.609 30.3722 24.6169 30.3702 24.6326 30.3702C24.6443 30.3624 24.6581 30.3624 24.6738 30.3702C24.6777 30.3702 24.6895 30.3702 24.7091 30.3702C24.713 30.3702 24.7209 30.3722 24.7326 30.3761C24.7366 30.3722 24.7444 30.3663 24.7562 30.3585C24.768 30.3506 24.7817 30.3545 24.7974 30.3702C24.8053 30.3585 24.817 30.3545 24.8327 30.3585C24.8367 30.3545 24.8445 30.3526 24.8563 30.3526C24.8602 30.3526 24.868 30.3545 24.8798 30.3585C24.8916 30.3506 24.9053 30.3506 24.921 30.3585C24.9289 30.3506 24.9407 30.3487 24.9564 30.3526C24.9603 30.3487 24.9701 30.3487 24.9858 30.3526C24.9976 30.3408 25.0093 30.3388 25.0211 30.3467C25.029 30.3467 25.0407 30.3487 25.0564 30.3526C25.0682 30.3408 25.08 30.3388 25.0918 30.3467C25.1035 30.3467 25.1192 30.3487 25.1389 30.3526C25.1506 30.3526 25.1644 30.3526 25.1801 30.3526C25.1958 30.3487 25.2095 30.3506 25.2213 30.3585C25.237 30.3585 25.2547 30.3585 25.2743 30.3585C25.286 30.3545 25.2998 30.3545 25.3155 30.3585C25.3155 30.3545 25.3233 30.3585 25.339 30.3702C25.3508 30.3585 25.3645 30.3585 25.3802 30.3702C25.3959 30.3702 25.4116 30.3663 25.4273 30.3585C25.4313 30.3585 25.4391 30.3585 25.4509 30.3585C25.4627 30.3585 25.4764 30.3624 25.4921 30.3702C25.5039 30.3585 25.5176 30.3545 25.5333 30.3585C25.5412 30.3506 25.551 30.3506 25.5628 30.3585C25.5706 30.3585 25.5804 30.3585 25.5922 30.3585C25.6 30.3545 25.6118 30.3526 25.6275 30.3526C25.6393 30.3526 25.653 30.3526 25.6687 30.3526C25.6805 30.3408 25.6942 30.3408 25.7099 30.3526C25.7139 30.3487 25.7276 30.3487 25.7511 30.3526C25.7551 30.3487 25.7668 30.3487 25.7865 30.3526C25.7904 30.3487 25.8002 30.3487 25.8159 30.3526C25.8277 30.3369 25.8414 30.3369 25.8571 30.3526C25.865 30.3526 25.8767 30.3545 25.8924 30.3585C25.9003 30.3545 25.9121 30.3545 25.9278 30.3585C25.9356 30.3545 25.9454 30.3526 25.9572 30.3526C25.969 30.3526 25.9827 30.3526 25.9984 30.3526C26.0102 30.3369 26.022 30.3369 26.0337 30.3526C26.0416 30.3526 26.0553 30.3545 26.0749 30.3585C26.0867 30.3545 26.1005 30.3526 26.1162 30.3526C26.124 30.3526 26.1358 30.3526 26.1515 30.3526C26.1633 30.3487 26.177 30.3487 26.1927 30.3526C26.1966 30.3408 26.2064 30.3349 26.2221 30.3349C26.2339 30.3349 26.2457 30.3388 26.2575 30.3467C26.2692 30.3388 26.281 30.3388 26.2928 30.3467C26.3046 30.3467 26.3183 30.3487 26.334 30.3526C26.3458 30.3487 26.3595 30.3487 26.3752 30.3526C26.387 30.3526 26.4007 30.3526 26.4164 30.3526C26.4243 30.3487 26.438 30.3467 26.4576 30.3467C26.4694 30.3467 26.4831 30.3545 26.4988 30.3702C26.5106 30.3585 26.5243 30.3545 26.54 30.3585C26.5518 30.3545 26.5656 30.3545 26.5813 30.3585C26.593 30.3545 26.6068 30.3545 26.6225 30.3585C26.6264 30.3545 26.6342 30.3585 26.646 30.3702C26.6578 30.3585 26.6755 30.3545 26.699 30.3585C26.7029 30.3545 26.7108 30.3545 26.7226 30.3585C26.7343 30.3545 26.75 30.3526 26.7697 30.3526C26.7814 30.3487 26.7952 30.3487 26.8109 30.3526C26.8187 30.3526 26.8285 30.3585 26.8403 30.3702C26.8482 30.3624 26.8639 30.3585 26.8874 30.3585C26.9031 30.3545 26.9188 30.3585 26.9345 30.3702C26.9463 30.3624 26.96 30.3624 26.9757 30.3702C26.9875 30.3702 27.0051 30.3722 27.0287 30.3761C27.0326 30.3644 27.0424 30.3624 27.0581 30.3702C27.0699 30.3624 27.0836 30.3683 27.0993 30.3879C27.1111 30.3801 27.1249 30.3761 27.1406 30.3761C27.1523 30.3722 27.1641 30.3761 27.1759 30.3879C27.1877 30.3801 27.1994 30.382 27.2112 30.3938C27.2191 30.382 27.2289 30.3801 27.2406 30.3879C27.2485 30.3801 27.2642 30.382 27.2877 30.3938C27.2917 30.3938 27.2995 30.3938 27.3113 30.3938C27.327 30.3938 27.3466 30.3938 27.3702 30.3938C27.378 30.3938 27.3878 30.3997 27.3996 30.4115C27.4074 30.4075 27.4173 30.4075 27.429 30.4115C27.433 30.4154 27.4467 30.4173 27.4702 30.4173C27.4781 30.4173 27.4918 30.4213 27.5115 30.4291C27.5272 30.4291 27.5429 30.437 27.5586 30.4527C27.5703 30.4409 27.5841 30.4429 27.5998 30.4586C27.6076 30.4703 27.6194 30.4821 27.6351 30.4939C27.639 30.4978 27.6469 30.5096 27.6586 30.5292C27.6586 30.5331 27.6645 30.5429 27.6763 30.5586L27.6822 30.5763C27.6783 30.5842 27.6763 30.592 27.6763 30.5998V30.6175C27.6763 30.6214 27.6763 30.6273 27.6763 30.6352C27.6684 30.6391 27.6645 30.645 27.6645 30.6528C27.6606 30.6568 27.6586 30.6626 27.6586 30.6705C27.6547 30.6744 27.6528 30.6783 27.6528 30.6823C27.6449 30.6862 27.641 30.694 27.641 30.7058C27.6371 30.7058 27.6351 30.7097 27.6351 30.7176C27.6233 30.7215 27.6174 30.7254 27.6174 30.7294C27.6056 30.7294 27.5998 30.7333 27.5998 30.7411C27.588 30.7411 27.5801 30.7431 27.5762 30.747C27.5762 30.751 27.5743 30.7549 27.5703 30.7588C27.5625 30.7627 27.5527 30.7667 27.5409 30.7706C27.5291 30.7706 27.5213 30.7745 27.5173 30.7824C27.5056 30.7824 27.4938 30.7863 27.482 30.7941C27.4781 30.7941 27.4742 30.8 27.4702 30.8118C27.4624 30.7961 27.4565 30.7961 27.4526 30.8118L27.4585 30.8236C27.4702 30.8157 27.4761 30.8177 27.4761 30.8295C27.4879 30.8295 27.5036 30.8314 27.5232 30.8353C27.5311 30.8432 27.5429 30.853 27.5586 30.8648C27.5703 30.8648 27.5821 30.8687 27.5939 30.8766C27.5978 30.8805 27.6135 30.8824 27.641 30.8824C27.6488 30.8746 27.6606 30.8726 27.6763 30.8766C27.6802 30.8766 27.6881 30.8785 27.6998 30.8824C27.7116 30.8746 27.7254 30.8746 27.7411 30.8824C27.7411 30.8785 27.7489 30.8766 27.7646 30.8766C27.7646 30.8726 27.7764 30.8707 27.7999 30.8707C27.8039 30.8667 27.8117 30.8667 27.8235 30.8707C27.8431 30.8628 27.8608 30.8609 27.8765 30.8648C27.8843 30.8609 27.8961 30.8609 27.9118 30.8648C27.9118 30.8569 27.9196 30.8589 27.9353 30.8707C27.9393 30.851 27.9471 30.8491 27.9589 30.8648C27.9667 30.8609 27.9805 30.8569 28.0001 30.853C28.004 30.8491 28.0099 30.8452 28.0178 30.8412C28.0217 30.8412 28.0276 30.8412 28.0354 30.8412C28.0433 30.8295 28.0511 30.8295 28.059 30.8412C28.0668 30.8295 28.0786 30.8236 28.0943 30.8236C28.1061 30.8196 28.1218 30.8177 28.1414 30.8177C28.1453 30.8138 28.1532 30.8157 28.1649 30.8236C28.1689 30.8157 28.1767 30.8118 28.1885 30.8118C28.2003 30.8157 28.212 30.8196 28.2238 30.8236C28.2317 30.8236 28.2415 30.8255 28.2533 30.8295L28.2591 30.8353C28.2748 30.8432 28.2886 30.855 28.3004 30.8707C28.3082 30.8746 28.3161 30.8883 28.3239 30.9119C28.3239 30.9158 28.3278 30.9217 28.3357 30.9295C28.3357 30.9335 28.3396 30.9394 28.3475 30.9472C28.3475 30.9551 28.3475 30.9649 28.3475 30.9766V30.9884C28.3475 30.9923 28.3475 30.9982 28.3475 31.0061C28.3396 31.0139 28.3357 31.0198 28.3357 31.0237C28.3318 31.0277 28.3318 31.0335 28.3357 31.0414C28.3278 31.0453 28.3239 31.0571 28.3239 31.0767C28.3161 31.0767 28.3121 31.0787 28.3121 31.0826C28.3043 31.0787 28.2984 31.0846 28.2945 31.1003C28.2905 31.0924 28.2886 31.0944 28.2886 31.1062C28.2847 31.1022 28.2827 31.1062 28.2827 31.1179C28.267 31.1179 28.2572 31.1258 28.2533 31.1415C28.2493 31.1336 28.2454 31.1395 28.2415 31.1591C28.2336 31.1591 28.2317 31.1611 28.2356 31.165C28.2277 31.165 28.2238 31.1709 28.2238 31.1827C28.216 31.1827 28.2101 31.1847 28.2062 31.1886C28.1944 31.1886 28.1865 31.1925 28.1826 31.2004C28.1669 31.1886 28.1551 31.1886 28.1473 31.2004C28.1355 31.1925 28.1296 31.1925 28.1296 31.2004C28.1218 31.1925 28.1159 31.1886 28.112 31.1886C28.0963 31.1886 28.0825 31.1886 28.0708 31.1886C28.0511 31.1886 28.0335 31.1886 28.0178 31.1886C28.006 31.1768 27.9981 31.1748 27.9942 31.1827C27.9824 31.1866 27.9746 31.1925 27.9707 31.2004C27.955 31.2004 27.9432 31.2004 27.9353 31.2004C27.9275 31.2004 27.9216 31.2004 27.9177 31.2004C27.902 31.1886 27.8902 31.1886 27.8824 31.2004C27.8588 31.1886 27.8431 31.1847 27.8353 31.1886C27.8156 31.1847 27.8058 31.1886 27.8058 31.2004C27.7901 31.1886 27.7764 31.1847 27.7646 31.1886C27.7489 31.1886 27.7391 31.1925 27.7352 31.2004C27.7195 31.2004 27.7057 31.2004 27.694 31.2004C27.6822 31.1925 27.6704 31.1886 27.6586 31.1886C27.6469 31.1847 27.6331 31.1886 27.6174 31.2004C27.6056 31.2004 27.5919 31.2004 27.5762 31.2004C27.5644 31.1886 27.5566 31.1886 27.5527 31.2004C27.533 31.2004 27.5213 31.2004 27.5173 31.2004C27.4899 31.2004 27.4702 31.2004 27.4585 31.2004C27.4467 31.1886 27.4369 31.1847 27.429 31.1886C27.4173 31.1886 27.4055 31.1886 27.3937 31.1886C27.378 31.1768 27.3623 31.1748 27.3466 31.1827C27.3348 31.1748 27.3231 31.1748 27.3113 31.1827C27.2995 31.1748 27.2877 31.1748 27.276 31.1827C27.2642 31.1827 27.2524 31.1847 27.2406 31.1886C27.221 31.1768 27.2073 31.1748 27.1994 31.1827C27.1837 31.1748 27.168 31.1748 27.1523 31.1827C27.1406 31.1748 27.1288 31.1748 27.117 31.1827C27.1052 31.1709 27.0954 31.1709 27.0876 31.1827C27.0758 31.1709 27.064 31.167 27.0522 31.1709C27.0365 31.1709 27.0248 31.1748 27.0169 31.1827C27.0012 31.1709 26.9934 31.167 26.9934 31.1709C26.9737 31.167 26.9561 31.167 26.9404 31.1709C26.9208 31.167 26.907 31.165 26.8992 31.165C26.8796 31.1611 26.8678 31.1611 26.8639 31.165C26.8482 31.169 26.8364 31.1709 26.8285 31.1709C26.8128 31.1631 26.7991 31.1631 26.7873 31.1709C26.7755 31.1631 26.7618 31.1591 26.7461 31.1591C26.7343 31.1591 26.7226 31.1611 26.7108 31.165C26.6951 31.1611 26.6813 31.1631 26.6696 31.1709C26.6617 31.1631 26.6519 31.1631 26.6401 31.1709C26.6244 31.1631 26.6107 31.1611 26.5989 31.165C26.5793 31.1611 26.5656 31.1591 26.5577 31.1591C26.5459 31.1591 26.5342 31.1611 26.5224 31.165C26.5067 31.1611 26.4988 31.1611 26.4988 31.165C26.4753 31.1611 26.4635 31.1631 26.4635 31.1709C26.4439 31.1631 26.4282 31.1631 26.4164 31.1709C26.4007 31.167 26.387 31.165 26.3752 31.165C26.3634 31.1611 26.3536 31.167 26.3458 31.1827C26.3301 31.167 26.3144 31.1611 26.2987 31.165C26.2869 31.1611 26.2771 31.167 26.2692 31.1827C26.2575 31.1748 26.2457 31.1748 26.2339 31.1827C26.2104 31.1709 26.1927 31.167 26.1809 31.1709C26.1652 31.167 26.1554 31.165 26.1515 31.165C26.1358 31.165 26.124 31.167 26.1162 31.1709C26.1005 31.1631 26.0887 31.1611 26.0808 31.165C26.0691 31.1533 26.0592 31.1552 26.0514 31.1709C26.0396 31.167 26.0279 31.1709 26.0161 31.1827C26.0004 31.1709 25.9866 31.165 25.9749 31.165C25.9631 31.165 25.9533 31.165 25.9454 31.165C25.9258 31.165 25.914 31.1709 25.9101 31.1827C25.8983 31.1827 25.8866 31.1827 25.8748 31.1827C25.863 31.167 25.8532 31.1631 25.8453 31.1709C25.8257 31.1709 25.8139 31.1748 25.81 31.1827C25.7982 31.1748 25.7865 31.1748 25.7747 31.1827C25.759 31.1709 25.7492 31.1729 25.7453 31.1886C25.7256 31.1886 25.7139 31.1886 25.7099 31.1886C25.6864 31.1847 25.6726 31.1847 25.6687 31.1886C25.653 31.1847 25.6393 31.1847 25.6275 31.1886C25.6118 31.1768 25.5981 31.1768 25.5863 31.1886C25.5745 31.1847 25.5667 31.1847 25.5628 31.1886C25.5431 31.1847 25.5294 31.1847 25.5215 31.1886C25.5098 31.1847 25.498 31.1847 25.4862 31.1886C25.4705 31.1886 25.4568 31.1886 25.445 31.1886C25.4293 31.1729 25.4156 31.1768 25.4038 31.2004C25.392 31.1886 25.3802 31.1827 25.3685 31.1827C25.3567 31.1827 25.3469 31.1886 25.339 31.2004C25.3312 31.1886 25.3233 31.1905 25.3155 31.2062C25.3076 31.2062 25.3018 31.2102 25.2978 31.218C25.2821 31.2062 25.2723 31.2062 25.2684 31.218C25.2527 31.2062 25.2429 31.2082 25.239 31.2239C25.2233 31.2121 25.2115 31.2121 25.2036 31.2239C25.1918 31.2121 25.182 31.2102 25.1742 31.218C25.1585 31.2102 25.1448 31.2102 25.133 31.218C25.1173 31.2219 25.1075 31.2239 25.1035 31.2239C25.0918 31.2121 25.08 31.218 25.0682 31.2416C25.0525 31.2298 25.0388 31.2239 25.027 31.2239L25.0035 31.2298C24.9917 31.2298 24.9819 31.2337 24.974 31.2416C24.9622 31.2298 24.9524 31.2318 24.9446 31.2475L24.921 31.2416C24.9053 31.2416 24.8916 31.2416 24.8798 31.2416C24.8641 31.2337 24.8504 31.2337 24.8386 31.2416H24.8327L24.8092 31.2592C24.7896 31.2514 24.7778 31.2533 24.7739 31.2651C24.7621 31.2651 24.7503 31.2651 24.7385 31.2651C24.7268 31.2612 24.7189 31.2612 24.715 31.2651H24.7091C24.6816 31.2494 24.6581 31.2376 24.6384 31.2298C24.6345 31.2219 24.6267 31.2121 24.6149 31.2004L24.609 31.165C24.6012 31.1611 24.5972 31.1533 24.5972 31.1415C24.5933 31.1336 24.5913 31.1258 24.5913 31.1179V31.1003C24.5835 31.1003 24.5776 31.1003 24.5737 31.1003C24.5619 31.0924 24.5541 31.0924 24.5501 31.1003C24.5344 31.0924 24.5227 31.0924 24.5148 31.1003C24.503 31.1003 24.4952 31.1003 24.4913 31.1003C24.4756 31.1003 24.4638 31.1062 24.4559 31.1179C24.4442 31.1101 24.4324 31.1101 24.4206 31.1179C24.4088 31.1101 24.399 31.1101 24.3912 31.1179C24.3716 31.1101 24.3578 31.1062 24.35 31.1062C24.3343 31.1022 24.3205 31.1062 24.3088 31.1179C24.297 31.1062 24.2852 31.1062 24.2734 31.1179C24.2577 31.1062 24.244 31.1022 24.2322 31.1062C24.2204 31.1062 24.2126 31.1101 24.2087 31.1179C24.193 31.1179 24.1812 31.1179 24.1733 31.1179C24.1655 31.1179 24.1576 31.1179 24.1498 31.1179C24.138 31.1179 24.1302 31.1219 24.1262 31.1297C24.1145 31.1219 24.1027 31.1258 24.0909 31.1415C24.0792 31.1258 24.0693 31.1258 24.0615 31.1415C24.0497 31.1297 24.0379 31.1297 24.0262 31.1415C24.0144 31.1415 24.0046 31.1415 23.9967 31.1415C23.9849 31.1336 23.9751 31.1336 23.9673 31.1415C23.9516 31.1336 23.9437 31.1336 23.9437 31.1415C23.9202 31.1336 23.9006 31.1297 23.8849 31.1297C23.8692 31.1376 23.8613 31.1434 23.8613 31.1474C23.8495 31.1434 23.8417 31.1415 23.8378 31.1415C23.8299 31.1336 23.826 31.1356 23.826 31.1474C23.8142 31.1356 23.8064 31.1336 23.8024 31.1415H23.7966C23.773 31.1336 23.7553 31.1277 23.7436 31.1238C23.7279 31.1081 23.7141 31.0963 23.7024 31.0885C23.6984 31.0806 23.6925 31.0728 23.6847 31.0649C23.6808 31.0532 23.6749 31.0473 23.667 31.0473L23.6611 31.0591C23.6494 31.0512 23.6376 31.0473 23.6258 31.0473C23.618 31.0277 23.6062 31.0257 23.5905 31.0414C23.5787 31.0375 23.565 31.0335 23.5493 31.0296C23.5297 31.0257 23.5159 31.0277 23.5081 31.0355C23.4767 31.0159 23.4492 31.0022 23.4257 30.9943C23.4178 30.9825 23.4119 30.9727 23.408 30.9649L23.3962 30.9178C23.3923 30.9021 23.3903 30.8923 23.3903 30.8883V30.8648C23.3903 30.853 23.3923 30.8452 23.3962 30.8412C23.3923 30.8334 23.3923 30.8275 23.3962 30.8236C23.3962 30.8196 23.3982 30.8177 23.4021 30.8177C23.3982 30.8059 23.4001 30.8 23.408 30.8C23.4041 30.7882 23.408 30.7824 23.4198 30.7824ZM29.1893 33.3728C29.1933 33.2707 29.2443 33.2197 29.3424 33.2197C29.3542 33.2119 29.4288 33.2119 29.5661 33.2197C29.6957 33.2315 29.8448 33.2099 30.0136 33.155L30.1784 33.0666C30.2687 33.0313 30.4276 33.0019 30.6553 32.9783C31.3147 32.9155 32.0682 32.8704 32.916 32.8429C33.4145 32.8194 34.1798 32.8076 35.2121 32.8076C35.318 32.7958 35.4064 32.8115 35.477 32.8547C35.5005 32.8625 35.5261 32.8939 35.5535 32.9489C35.5732 32.9999 35.5771 33.0411 35.5653 33.0725C35.5378 33.1275 35.4652 33.1628 35.3475 33.1785C34.8765 33.202 34.4369 33.2079 34.0287 33.1962C34.0444 33.2197 34.0464 33.259 34.0346 33.3139C34.0111 33.3453 33.9855 33.3787 33.9581 33.414C33.8953 33.4336 33.8148 33.4454 33.7167 33.4493C33.3438 33.4297 32.7943 33.4375 32.0682 33.4729L29.5249 33.5494C29.4307 33.5533 29.364 33.5435 29.3247 33.52C29.2306 33.4886 29.1854 33.4395 29.1893 33.3728ZM25.916 35.3686C25.8767 35.349 25.8296 35.349 25.7747 35.3686L24.5207 35.4392C24.3637 35.4432 24.2774 35.4059 24.2617 35.3274C24.2499 35.2607 24.2656 35.2077 24.3088 35.1684C24.348 35.1252 24.399 35.1076 24.4618 35.1154C24.4069 35.0958 24.2872 35.1056 24.1027 35.1449C23.9457 35.1566 23.8319 35.1409 23.7612 35.0978L23.6553 34.98C23.6121 34.9526 23.5866 34.931 23.5787 34.9153C23.5434 34.8878 23.5257 34.8603 23.5257 34.8328C23.5218 34.8211 23.5218 34.8152 23.5257 34.8152C23.5218 34.7642 23.5512 34.7288 23.614 34.7092C23.6297 34.6896 23.6572 34.6778 23.6965 34.6739C23.7122 34.6739 23.7318 34.6758 23.7553 34.6798L24.2911 34.6327C25.0447 34.562 25.6295 34.5287 26.0455 34.5326C26.6853 34.513 27.272 34.5444 27.8058 34.6268C27.9981 34.6621 28.1375 34.6798 28.2238 34.6798C28.3612 34.6562 28.4377 34.6484 28.4534 34.6562C28.5476 34.6523 28.6202 34.6896 28.6713 34.7681C28.6752 34.7995 28.6771 34.8427 28.6771 34.8976C28.6614 34.9251 28.634 34.9526 28.5947 34.98C28.6301 34.9761 28.6634 34.9898 28.6948 35.0212C28.7105 35.0487 28.7223 35.084 28.7301 35.1272C28.7066 35.2096 28.6595 35.2665 28.5888 35.2979C28.5143 35.3136 28.4456 35.3038 28.3828 35.2685C28.3867 35.3038 28.3808 35.345 28.3651 35.3921C28.3298 35.4235 28.2964 35.453 28.265 35.4805C28.2258 35.4962 28.1767 35.5079 28.1178 35.5158C28.0864 35.5158 28.0531 35.5177 28.0178 35.5217C27.4408 35.4746 26.8658 35.4628 26.2928 35.4863C26.1672 35.4824 26.0769 35.4687 26.022 35.4451C25.9709 35.4098 25.9356 35.3843 25.916 35.3686ZM21.0413 38.4653C21.0374 38.3986 21.0923 38.3652 21.2061 38.3652L26.5989 38.3888C26.6931 38.3849 26.7598 38.3966 26.7991 38.4241C26.8737 38.4673 26.9109 38.5321 26.9109 38.6184C26.8952 38.693 26.8128 38.7381 26.6637 38.7538L25.6628 38.7774C26.2045 38.8598 26.7481 38.9265 27.2936 38.9775C27.3878 38.9815 27.4604 38.9972 27.5115 39.0246C27.5782 39.0678 27.6115 39.1286 27.6115 39.2071C27.5762 39.2974 27.482 39.3327 27.329 39.3131L26.2398 39.1659C24.87 38.9854 23.8809 38.8892 23.2726 38.8774C22.6917 38.85 22.3287 38.8362 22.1834 38.8362C21.842 38.7852 21.5084 38.7106 21.1826 38.6125C21.0845 38.5615 21.0374 38.5124 21.0413 38.4653ZM21.9126 41.2559C21.9558 41.2363 22.0382 41.2245 22.1599 41.2206C22.4268 41.201 22.6289 41.1951 22.7663 41.2029C23.092 41.199 23.4963 41.2481 23.9791 41.3501C24.0654 41.3619 24.1302 41.3953 24.1733 41.4502C24.1812 41.4777 24.1871 41.513 24.191 41.5562C24.1792 41.5837 24.1675 41.6092 24.1557 41.6327C24.1125 41.6523 24.085 41.672 24.0733 41.6916L24.0203 41.7446C23.9575 41.772 23.8711 41.7995 23.7612 41.827C23.5611 41.8349 23.2902 41.825 22.9488 41.7976L22.0421 41.6975C21.9401 41.67 21.8636 41.6563 21.8125 41.6563H21.6477C21.5692 41.6445 21.5123 41.619 21.477 41.5797C21.4142 41.5248 21.4004 41.4698 21.4357 41.4149C21.4514 41.3756 21.4868 41.354 21.5417 41.3501H21.6712C21.7223 41.3305 21.8027 41.2991 21.9126 41.2559ZM34.6057 36.3636C34.6135 36.4381 34.5625 36.5048 34.4526 36.5637C34.484 36.5873 34.4958 36.6363 34.4879 36.7109C34.4722 36.7619 34.4467 36.7953 34.4114 36.811C34.3918 36.811 34.378 36.8149 34.3702 36.8228C34.3388 36.8228 34.3094 36.8228 34.2819 36.8228C34.1013 36.8031 33.9659 36.7933 33.8757 36.7933C33.7658 36.7855 33.699 36.7894 33.6755 36.8051C33.6205 36.809 33.5813 36.8169 33.5577 36.8286C33.4714 36.8561 33.3517 36.862 33.1986 36.8463C32.6334 36.8306 32.0938 36.8561 31.5796 36.9228C31.5089 36.9228 31.4618 36.9189 31.4383 36.9111C31.3677 36.8914 31.3264 36.8581 31.3147 36.811C31.3147 36.7953 31.3147 36.7796 31.3147 36.7639C31.3147 36.7129 31.3421 36.6736 31.3971 36.6461C31.4363 36.6069 31.5011 36.5833 31.5914 36.5755C31.662 36.5755 31.7268 36.5676 31.7857 36.5519L31.556 36.5696C31.4344 36.5696 31.3657 36.548 31.35 36.5048C31.3264 36.4381 31.3461 36.3891 31.4089 36.3577C31.4285 36.342 31.4795 36.3282 31.5619 36.3165C31.6169 36.3086 31.6699 36.3027 31.7209 36.2988C32.1409 36.2478 32.4686 36.2203 32.7041 36.2164C32.8336 36.2046 33.0455 36.2007 33.3399 36.2046C33.6657 36.1967 34.0189 36.2124 34.3996 36.2517C34.5095 36.2517 34.5782 36.289 34.6057 36.3636ZM32.4097 38.4594C32.4921 38.4437 32.6216 38.4398 32.7983 38.4477H33.5754C33.6264 38.4437 33.6676 38.4516 33.699 38.4712C33.7187 38.4751 33.7344 38.5026 33.7461 38.5536C33.7501 38.5772 33.7481 38.6086 33.7402 38.6478C33.6971 38.6949 33.6264 38.7244 33.5283 38.7361L31.5384 38.795C31.4717 38.7911 31.4304 38.7852 31.4147 38.7774C31.3598 38.7538 31.3323 38.7244 31.3323 38.689C31.3284 38.6655 31.3264 38.6478 31.3264 38.6361C31.3264 38.5929 31.3539 38.5595 31.4089 38.536C31.4363 38.5164 31.4775 38.5065 31.5325 38.5065C31.5364 38.4987 31.5462 38.4987 31.5619 38.5065L32.4097 38.4594ZM30.9791 42.3156C31.0144 42.3117 31.0439 42.3156 31.0674 42.3274C31.1498 42.351 31.1969 42.4 31.2087 42.4746C31.2126 42.5413 31.1793 42.5943 31.1086 42.6336C31.0654 42.6336 31.0066 42.6336 30.932 42.6336L30.6965 42.6159C30.5552 42.6041 30.4551 42.6041 30.3962 42.6159H30.2962C30.2451 42.5963 30.2098 42.5825 30.1902 42.5747C30.1313 42.5472 30.0646 42.5335 29.99 42.5335L29.8193 42.5158C29.7329 42.508 29.6623 42.4923 29.6073 42.4687C29.5249 42.4255 29.4719 42.3726 29.4484 42.3098C29.5033 42.2784 29.5779 42.2627 29.6721 42.2627L29.9665 42.245L30.8731 42.3098C30.8849 42.3058 30.9202 42.3078 30.9791 42.3156ZM31.6031 41.2029C31.5992 41.1833 31.6051 41.1735 31.6208 41.1735C31.7896 41.0832 32.0054 41.0538 32.2684 41.0852C32.3351 41.0891 32.3881 41.1068 32.4274 41.1382C32.4431 41.146 32.4588 41.1735 32.4745 41.2206C32.4862 41.2402 32.4862 41.2657 32.4745 41.2971C32.4588 41.3168 32.4274 41.3364 32.3803 41.356C32.2625 41.3678 32.1212 41.3619 31.9564 41.3384C31.8072 41.303 31.6954 41.2716 31.6208 41.2442C31.6051 41.2285 31.5992 41.2147 31.6031 41.2029ZM36.9135 42.9044C36.9292 42.8416 36.9959 42.8063 37.1137 42.7984C37.6592 42.7552 38.4913 42.7533 39.6099 42.7925L40.7756 42.8337C40.858 42.8298 40.9189 42.8377 40.9581 42.8573C41.0288 42.8769 41.07 42.9279 41.0817 43.0104C41.0817 43.0771 41.0405 43.132 40.9581 43.1752C40.9149 43.1752 40.8462 43.1713 40.752 43.1634C40.5637 43.132 40.3537 43.1301 40.1221 43.1575C40.1496 43.1772 40.1613 43.2105 40.1574 43.2576C40.1496 43.2851 40.1339 43.3126 40.1103 43.34C40.0672 43.3597 39.9985 43.3754 39.9043 43.3871C39.5785 43.3832 39.137 43.3499 38.5796 43.2871C37.9399 43.2125 37.4944 43.1713 37.2432 43.1634C37.1333 43.1595 37.0568 43.1458 37.0136 43.1222C36.9704 43.0987 36.939 43.0673 36.9194 43.028C36.8998 42.977 36.8978 42.9358 36.9135 42.9044ZM35.5771 46.79L35.6595 46.7959C36.4406 46.7606 37.2216 46.7155 38.0027 46.6605C37.9987 46.637 38.0007 46.6134 38.0085 46.5899C38.0125 46.5624 38.0203 46.5408 38.0321 46.5251L38.5149 46.5604C38.6483 46.5683 38.7602 46.58 38.8504 46.5957C38.9682 46.5879 39.0879 46.5781 39.2096 46.5663C39.3116 46.5585 39.3862 46.5643 39.4333 46.584C39.4686 46.6036 39.4941 46.6311 39.5098 46.6664C39.5294 46.7017 39.5314 46.7351 39.5157 46.7665C39.5471 46.7586 39.5805 46.7606 39.6158 46.7724C39.6472 46.7881 39.6707 46.8096 39.6864 46.8371C39.7296 46.9078 39.7218 46.9706 39.6629 47.0255C39.6354 47.0491 39.5883 47.0687 39.5216 47.0844C39.3842 47.1119 39.2606 47.1276 39.1507 47.1315C39.0604 47.1393 38.9898 47.1315 38.9387 47.1079C38.9152 47.0962 38.8975 47.0844 38.8858 47.0726C38.4972 47.1158 38.1008 47.1472 37.6965 47.1668C37.5435 47.1747 37.4277 47.1747 37.3492 47.1668C37.2667 47.1629 37.0941 47.1374 36.8311 47.0903C36.7879 47.0824 36.7428 47.0765 36.6957 47.0726C36.5151 47.0844 36.3267 47.0962 36.1305 47.1079C35.9892 47.1158 35.8832 47.1295 35.8126 47.1492C35.687 47.1884 35.6104 47.208 35.583 47.208C35.5398 47.208 35.4633 47.1884 35.3534 47.1492C35.3259 47.1413 35.3004 47.1354 35.2768 47.1315C35.2297 47.1393 35.1826 47.1492 35.1355 47.1609C35.1316 47.1492 35.1277 47.1393 35.1238 47.1315C35.0806 47.1511 35.0472 47.1648 35.0237 47.1727C34.9844 47.1923 34.9491 47.2002 34.9177 47.1963C34.8785 47.1884 34.851 47.1609 34.8353 47.1138C34.8274 47.0864 34.8235 47.0589 34.8235 47.0314C34.8 47.0314 34.7764 47.0334 34.7529 47.0373C34.7646 47.0177 34.7803 47 34.8 46.9843C34.8117 46.9725 34.8235 46.9647 34.8353 46.9608C34.851 46.9254 34.8667 46.898 34.8824 46.8783C34.9256 46.8352 35.0021 46.8136 35.112 46.8136C35.1238 46.8136 35.1336 46.8136 35.1414 46.8136C35.1807 46.8057 35.2219 46.7979 35.2651 46.79L35.318 46.7841C35.3926 46.7841 35.479 46.7861 35.5771 46.79ZM32.0859 44.7353C32.0035 44.7393 31.925 44.7667 31.8504 44.8178C31.8426 44.8727 31.8171 44.9159 31.7739 44.9473C31.7346 44.963 31.6836 44.9767 31.6208 44.9885C30.6592 45.0513 29.9939 45.0905 29.625 45.1062C29.4759 45.0945 29.3758 45.0748 29.3247 45.0474L29.0834 44.8825C29.052 44.8511 29.0382 44.8178 29.0422 44.7824C29.0382 44.7432 29.048 44.7098 29.0716 44.6824C29.0991 44.651 29.1481 44.6372 29.2188 44.6411C29.7055 44.5705 30.2118 44.5352 30.7377 44.5352C30.7338 44.4802 30.7573 44.439 30.8084 44.4115C30.8476 44.3762 30.8947 44.3644 30.9497 44.3762C31.0674 44.3487 31.2146 44.3487 31.3912 44.3762C31.4776 44.3801 31.6228 44.3958 31.8269 44.4233C31.9799 44.4429 32.2154 44.4528 32.5333 44.4528L33.6402 44.441C33.703 44.441 33.7501 44.4469 33.7815 44.4586C33.8325 44.4743 33.8678 44.5155 33.8874 44.5823C33.8796 44.6333 33.8541 44.6725 33.8109 44.7C33.7638 44.7196 33.7128 44.7295 33.6578 44.7295H32.3803C32.2625 44.7216 32.1644 44.7236 32.0859 44.7353ZM33.7285 48.9683L33.9463 48.986C34.3702 49.0409 34.8471 49.0723 35.3769 49.0802C35.4672 49.0723 35.5339 49.088 35.5771 49.1273C35.6203 49.1705 35.632 49.2254 35.6124 49.2921C35.6791 49.2921 35.7674 49.3157 35.8773 49.3628C35.9166 49.3746 35.9519 49.3961 35.9833 49.4275C36.0108 49.4668 36.0284 49.508 36.0363 49.5512C36.0167 49.614 35.9558 49.6454 35.8538 49.6454C35.7635 49.6454 35.6693 49.6395 35.5712 49.6277C34.747 49.5296 34.0189 49.4256 33.387 49.3157C33.3046 49.3039 33.2418 49.2902 33.1986 49.2745C33.128 49.2274 33.0946 49.1724 33.0985 49.1096C33.0868 49.0272 33.1319 48.9781 33.2339 48.9625L33.3222 48.933L33.3576 48.8624C33.3772 48.8388 33.4047 48.8447 33.44 48.88L33.5106 48.9448C33.542 48.9723 33.6146 48.9801 33.7285 48.9683ZM30.5199 50.5108C30.096 50.499 29.7859 50.5049 29.5897 50.5285C29.4916 50.5285 29.4288 50.5226 29.4013 50.5108C29.366 50.4951 29.3248 50.4755 29.2777 50.4519C29.2384 50.4127 29.205 50.3734 29.1776 50.3342C29.1383 50.2714 29.1285 50.2165 29.1481 50.1694C29.1795 50.1144 29.2364 50.0869 29.3189 50.0869C29.3934 50.083 29.5112 50.0889 29.6721 50.1046C29.7506 50.1046 29.886 50.0987 30.0783 50.0869L30.3138 50.0752C30.5611 50.0791 30.8142 50.1007 31.0733 50.1399C31.1557 50.1321 31.2283 50.1458 31.2911 50.1811C31.3147 50.1851 31.3363 50.1988 31.3559 50.2223C31.3559 50.187 31.3618 50.1694 31.3735 50.1694L31.4147 50.1223L31.556 50.0634H31.6326C31.6679 50.0791 31.7013 50.0987 31.7327 50.1223C31.7758 50.1654 31.7915 50.2145 31.7798 50.2694C31.7444 50.3283 31.6993 50.3519 31.6444 50.3401C31.5973 50.3126 31.5541 50.3087 31.5148 50.3283C31.4756 50.3244 31.4462 50.3264 31.4265 50.3342C31.4305 50.346 31.4324 50.3715 31.4324 50.4107C31.4089 50.4578 31.3755 50.4912 31.3323 50.5108C31.2813 50.5226 31.2342 50.5285 31.191 50.5285L30.5199 50.5108ZM29.7133 51.7001C30.0391 51.6412 30.4394 51.6019 30.9143 51.5823C31.1812 51.5666 31.5835 51.5588 32.1212 51.5588C32.2193 51.5352 32.2959 51.5431 32.3508 51.5823C32.3901 51.5941 32.4176 51.6275 32.4333 51.6824C32.4529 51.7216 32.4529 51.7589 32.4333 51.7943C32.5392 51.8178 32.604 51.8649 32.6275 51.9356C32.6472 51.9748 32.6491 52.0199 32.6334 52.071C32.6099 52.1102 32.5804 52.1416 32.5451 52.1652C32.4823 52.1966 32.4038 52.2083 32.3096 52.2005C31.2146 52.1691 30.1941 52.1593 29.2482 52.171C29.154 52.171 29.0834 52.1593 29.0363 52.1357C28.9931 52.1161 28.9637 52.0886 28.948 52.0533C28.9244 52.0101 28.9185 51.9689 28.9303 51.9297C28.9342 51.8747 28.9735 51.8335 29.048 51.806C29.0755 51.7943 29.1854 51.7805 29.3777 51.7648C29.4484 51.7491 29.5602 51.7275 29.7133 51.7001ZM26.7579 45.1946C26.7304 45.2299 26.6931 45.2613 26.646 45.2888L26.5813 45.4183C26.4046 45.4261 26.1456 45.432 25.8041 45.4359H25.6923C25.6569 45.4359 25.6216 45.4359 25.5863 45.4359L24.6208 45.4124L24.1145 45.4065C23.9771 45.4026 23.7985 45.3986 23.5787 45.3947L23.5846 45.3771C23.565 45.3771 23.5473 45.3771 23.5316 45.3771C23.4845 45.3692 23.4571 45.3614 23.4492 45.3535C23.4296 45.33 23.4178 45.3025 23.4139 45.2711C23.41 45.2554 23.41 45.2417 23.4139 45.2299C23.41 45.2024 23.4158 45.1808 23.4315 45.1651C23.4433 45.1298 23.4708 45.1102 23.514 45.1062C23.9339 45.0945 24.4579 45.067 25.0859 45.0238H25.0918C25.708 44.9414 26.1927 44.91 26.5459 44.9296C26.5773 44.9296 26.6087 44.9316 26.6401 44.9355C26.7147 44.9316 26.7598 44.961 26.7755 45.0238C26.7834 45.0434 26.7873 45.065 26.7873 45.0886C26.7873 45.1278 26.7775 45.1632 26.7579 45.1946ZM20.5526 48.0264C20.5173 48.0303 20.48 48.0342 20.4408 48.0381C20.0601 48.0224 19.7794 48.0205 19.5989 48.0323C19.3399 48.0205 19.1083 48.0322 18.9042 48.0676C18.8375 48.0558 18.8021 48.0499 18.7982 48.0499C18.7511 48.0381 18.7178 48.0107 18.6981 47.9675C18.6707 47.9125 18.6765 47.8713 18.7158 47.8439C18.7315 47.8203 18.7649 47.8066 18.8159 47.8026C18.9964 47.7752 19.1573 47.7654 19.2986 47.7732C19.2594 47.7183 19.2496 47.6633 19.2692 47.6084C19.2849 47.5495 19.3183 47.5083 19.3693 47.4847C19.4007 47.473 19.4517 47.471 19.5224 47.4788L19.7284 47.4965C19.7873 47.5004 19.8619 47.5279 19.9521 47.5789C19.9875 47.5907 20.0247 47.6182 20.064 47.6613C20.0915 47.6967 20.1052 47.7398 20.1052 47.7909L20.4526 47.8321C20.4957 47.8321 20.5252 47.838 20.5409 47.8497C20.5605 47.8537 20.5801 47.8792 20.5997 47.9263C20.6076 47.9577 20.5919 47.991 20.5526 48.0264ZM22.8252 50.9995C22.7584 50.9798 22.7074 50.97 22.6721 50.97H22.3542C22.2796 50.9622 22.1854 50.972 22.0716 50.9995C22.0048 51.0112 21.9479 51.0171 21.9008 51.0171C21.8302 51.0054 21.7811 50.972 21.7537 50.917C21.7105 50.8503 21.7144 50.7934 21.7654 50.7463C21.7811 50.7188 21.8106 50.7051 21.8537 50.7051L21.9715 50.6874C22.05 50.6796 22.1304 50.6678 22.2129 50.6521L22.2717 50.6462C22.3659 50.6345 22.417 50.6305 22.4248 50.6345C22.4444 50.6266 22.4778 50.6188 22.5249 50.6109C22.5406 50.607 22.572 50.6129 22.6191 50.6286L22.7309 50.6227L22.8664 50.6462C22.8781 50.6384 22.8919 50.6384 22.9076 50.6462C22.9743 50.6345 23.0783 50.6246 23.2196 50.6168L23.5787 50.5697C23.8103 50.5422 23.9889 50.5285 24.1145 50.5285C24.3068 50.5363 24.4795 50.5756 24.6326 50.6462C24.7111 50.6737 24.7601 50.7208 24.7797 50.7875C24.7876 50.8071 24.7856 50.8405 24.7739 50.8876C24.7503 50.9072 24.7287 50.9308 24.7091 50.9583C24.6698 50.97 24.607 50.9838 24.5207 50.9995C24.4304 50.9955 24.2381 51.0093 23.9437 51.0407C23.6965 51.0525 23.5081 51.0623 23.3786 51.0701C23.2687 51.0623 23.1803 51.0485 23.1136 51.0289L22.9664 50.9936L22.8252 50.9995ZM27.3466 56.1685C27.6174 56.1411 27.8392 56.1273 28.0119 56.1273L29.5014 56.0744C29.5799 56.0704 29.6407 56.0802 29.6839 56.1038C29.7467 56.1273 29.7859 56.1725 29.8016 56.2392C29.8056 56.3138 29.7761 56.3668 29.7133 56.3982C29.6701 56.4099 29.6073 56.4178 29.5249 56.4217C29.3875 56.4178 29.2011 56.4296 28.9656 56.457L26.9109 56.5336C26.7775 56.5336 26.2535 56.561 25.339 56.616C25.1977 56.6278 25.1153 56.5944 25.0918 56.5159C25.0721 56.4727 25.0721 56.4237 25.0918 56.3687C25.1192 56.247 25.1526 56.1725 25.1919 56.145C25.2193 56.1097 25.2723 56.0802 25.3508 56.0567C25.496 56.0096 25.657 56.0135 25.8336 56.0685C25.8807 56.0763 25.9592 56.1018 26.0691 56.145C26.1593 56.1764 26.2359 56.2 26.2987 56.2156C26.3772 56.2274 26.5047 56.2294 26.6813 56.2215C26.7755 56.2137 26.9973 56.196 27.3466 56.1685ZM22.9841 55.8918H23.3432C23.4139 55.8879 23.4747 55.8977 23.5257 55.9213C23.5375 55.9291 23.5669 55.9507 23.614 55.986C23.6297 55.986 23.667 55.9841 23.7259 55.9802C23.7809 55.988 23.8201 56.0214 23.8437 56.0802C23.8711 56.1273 23.8711 56.1744 23.8437 56.2215C23.8123 56.2647 23.7691 56.2902 23.7141 56.2981L23.5493 56.2804C23.4512 56.2529 23.3118 56.249 23.1313 56.2686C22.9978 56.2569 22.9115 56.2431 22.8722 56.2274C22.7859 56.1842 22.7427 56.1293 22.7427 56.0626C22.7349 55.9919 22.7624 55.9448 22.8252 55.9213C22.8526 55.9017 22.9056 55.8918 22.9841 55.8918ZM25.0564 62.2796C25.08 62.2914 25.1094 62.3267 25.1448 62.3856C25.1683 62.413 25.2252 62.4229 25.3155 62.415C25.3587 62.3915 25.4215 62.3875 25.5039 62.4032C25.602 62.4032 25.6707 62.4386 25.7099 62.5092C25.7256 62.5406 25.7276 62.5818 25.7158 62.6328C25.6962 62.676 25.6687 62.7113 25.6334 62.7388C25.5863 62.7584 25.5117 62.7643 25.4097 62.7565C25.2919 62.7329 25.2095 62.7369 25.1624 62.7682C25.1232 62.784 25.0957 62.7997 25.08 62.8154C25.0486 62.8232 25.0231 62.833 25.0035 62.8448C24.9878 62.8448 24.974 62.8448 24.9622 62.8448C24.9191 62.8291 24.87 62.7997 24.8151 62.7565C24.7483 62.7015 24.7209 62.6623 24.7326 62.6387C24.7366 62.5956 24.764 62.5818 24.8151 62.5975C24.819 62.5897 24.8465 62.5995 24.8975 62.627C24.8308 62.5681 24.8033 62.4974 24.8151 62.415C24.819 62.313 24.8622 62.2561 24.9446 62.2443C24.9799 62.2168 25.0172 62.2286 25.0564 62.2796ZM38.7209 54.9145C38.509 54.8988 38.3638 54.8871 38.2853 54.8792C38.1714 54.8321 38.1086 54.7693 38.0969 54.6908C38.0969 54.6791 38.0969 54.6712 38.0969 54.6673C38.0969 54.6006 38.1302 54.5476 38.1969 54.5083C38.2401 54.4808 38.3147 54.4651 38.4207 54.4612L38.7445 54.473C39.0428 54.4534 39.2763 54.4534 39.4451 54.473L39.8748 54.5083C40.0711 54.5201 40.3301 54.5181 40.652 54.5024C41.0601 54.4632 41.3212 54.4455 41.435 54.4494C41.5174 54.4494 41.5743 54.4632 41.6057 54.4907C41.6332 54.4985 41.6587 54.5358 41.6822 54.6025C41.6822 54.6064 41.6822 54.6143 41.6822 54.6261C41.6822 54.6535 41.6764 54.683 41.6646 54.7144C41.6253 54.7772 41.5311 54.8046 41.382 54.7968C41.1386 54.7889 40.9345 54.7948 40.7697 54.8145C40.7187 54.8145 40.6912 54.8262 40.6873 54.8498C40.6637 54.893 40.65 54.9263 40.6461 54.9499C40.5911 54.9499 40.5538 54.9597 40.5342 54.9793C40.5146 54.9715 40.4969 54.9852 40.4812 55.0205C40.4538 55.0441 40.4381 55.0598 40.4341 55.0676C40.4067 55.0794 40.3753 55.0872 40.3399 55.0912C40.3085 55.0912 40.2752 55.0892 40.2398 55.0853C39.7296 54.9754 39.2233 54.9185 38.7209 54.9145ZM37.6612 55.4797C37.461 55.4915 37.1843 55.4778 36.8311 55.4385C36.5524 55.3836 36.3483 55.3522 36.2188 55.3443C35.9676 55.3011 35.7576 55.2815 35.5889 55.2854C35.3769 55.2697 35.1748 55.2756 34.9825 55.3031C34.904 55.311 34.849 55.307 34.8176 55.2913C34.7509 55.2639 34.7136 55.2128 34.7058 55.1383C34.6979 55.0755 34.7215 55.0264 34.7764 54.9911C34.8 54.9715 34.8451 54.9656 34.9118 54.9734L35.7831 54.9793C35.8067 54.9793 35.844 54.9773 35.895 54.9734L35.9598 54.9204C35.999 54.893 36.0441 54.8851 36.0952 54.8969C36.3621 54.8694 36.6604 54.8773 36.99 54.9204C37.2726 54.9518 37.5101 55.0205 37.7024 55.1265C37.8045 55.1854 37.8555 55.2482 37.8555 55.3149C37.8555 55.3541 37.8339 55.3953 37.7907 55.4385C37.7515 55.4503 37.7083 55.464 37.6612 55.4797ZM33.1751 59.9894C33.1908 59.9894 33.2379 59.9875 33.3164 59.9835C33.3478 59.9718 33.3772 59.9796 33.4047 60.0071C33.4164 60.0228 33.4243 60.0562 33.4282 60.1072C33.4125 60.1857 33.3811 60.2524 33.334 60.3073C33.1535 60.2406 32.9925 60.2563 32.8513 60.3544C32.8356 60.327 32.8022 60.2995 32.7512 60.272C32.708 60.2289 32.6805 60.2014 32.6688 60.1896C32.6491 60.1543 32.6452 60.1288 32.657 60.1131C32.6413 60.0542 32.657 60.0051 32.7041 59.9659C32.7433 59.9109 32.7904 59.8952 32.8454 59.9188C32.8807 59.9109 32.9376 59.9325 33.0161 59.9835C33.0554 59.9875 33.1083 59.9894 33.1751 59.9894ZM19.2398 52.2005C19.2358 52.2437 19.228 52.2809 19.2162 52.3123C19.1966 52.332 19.1613 52.3536 19.1102 52.3771C19.0278 52.3967 18.9415 52.4026 18.8512 52.3948L18.6805 52.3712C18.6098 52.3516 18.5568 52.3477 18.5215 52.3594C18.4391 52.3751 18.3802 52.385 18.3449 52.3889C18.2625 52.385 18.2075 52.3575 18.1801 52.3065C18.1565 52.2594 18.1702 52.2162 18.2213 52.1769C18.2487 52.1495 18.2899 52.1338 18.3449 52.1298L18.9572 51.9709C19.0357 51.9316 19.0965 51.9316 19.1397 51.9709C19.2064 51.9984 19.2398 52.0749 19.2398 52.2005ZM17.7856 54.6025C17.8052 54.579 17.8307 54.5495 17.8621 54.5142C17.8896 54.4867 17.9485 54.4769 18.0388 54.4848C18.2546 54.473 18.5981 54.5083 19.069 54.5907C19.1515 54.6025 19.2143 54.628 19.2574 54.6673C19.3242 54.7222 19.3516 54.789 19.3399 54.8674C19.3085 54.9263 19.2319 54.9499 19.1102 54.9381C18.6 54.8831 18.1173 54.8694 17.662 54.8969C17.6188 54.9518 17.556 54.9852 17.4736 54.997C17.4186 54.9656 17.3813 54.9244 17.3617 54.8733C17.3342 54.8576 17.3087 54.8498 17.2852 54.8498C17.2302 54.838 17.1851 54.8125 17.1498 54.7733C17.1144 54.7419 17.0987 54.7026 17.1027 54.6555C17.0948 54.6084 17.1066 54.575 17.138 54.5554C17.1537 54.5358 17.1851 54.5221 17.2322 54.5142C17.3342 54.4828 17.4147 54.473 17.4736 54.4848C17.5481 54.4691 17.6227 54.4848 17.6973 54.5319C17.7326 54.5397 17.762 54.5633 17.7856 54.6025ZM16.6847 58.2409L17.0379 58.2468C17.348 58.2468 17.5874 58.2644 17.7562 58.2998C17.8621 58.2998 17.9446 58.3057 18.0034 58.3174C18.0819 58.3057 18.1349 58.3076 18.1624 58.3233C18.2291 58.3115 18.2762 58.339 18.3037 58.4057C18.3429 58.4725 18.3351 58.5313 18.2801 58.5824C18.2527 58.602 18.2115 58.6177 18.1565 58.6295L17.6266 58.6353L17.4441 58.6118C17.4206 58.6 17.3401 58.5961 17.2028 58.6C17.0418 58.6 16.7789 58.6 16.4139 58.6C16.4256 58.6196 16.4237 58.6471 16.408 58.6824C16.3726 58.706 16.3471 58.7197 16.3314 58.7237C16.2804 58.7001 16.2529 58.6628 16.249 58.6118L16.0017 58.6059C15.9743 58.602 15.9488 58.5981 15.9252 58.5941C15.8781 58.5667 15.8487 58.5294 15.8369 58.4823C15.8251 58.4587 15.8212 58.4391 15.8251 58.4234L15.8192 58.4116C15.8192 58.4077 15.8232 58.4057 15.831 58.4057C15.8271 58.394 15.8271 58.3881 15.831 58.3881C15.8271 58.3685 15.833 58.3528 15.8487 58.341C15.8722 58.3017 15.9272 58.2762 16.0135 58.2644C16.1587 58.2487 16.3825 58.2409 16.6847 58.2409ZM59.562 49.6572C59.6288 49.6572 59.6778 49.6689 59.7092 49.6925C59.7367 49.716 59.7504 49.7474 59.7504 49.7867C59.7504 49.7906 59.7504 49.7945 59.7504 49.7985C59.8093 49.7985 59.8701 49.7985 59.9329 49.7985C59.9447 49.8024 59.9585 49.8063 59.9742 49.8102C59.9859 49.8181 59.9957 49.824 60.0036 49.8279C60.0075 49.8318 60.0134 49.8377 60.0213 49.8456C60.0252 49.8495 60.0291 49.8554 60.033 49.8632C60.0369 49.8671 60.0409 49.873 60.0448 49.8809C60.0448 49.8848 60.0468 49.8887 60.0507 49.8927C60.0507 49.9005 60.0507 49.9064 60.0507 49.9103C60.0507 49.9182 60.0507 49.924 60.0507 49.928C60.0507 49.9358 60.0507 49.9417 60.0507 49.9456C60.0468 49.9496 60.0448 49.9554 60.0448 49.9633C60.0409 49.9672 60.0389 49.9731 60.0389 49.981C60.035 49.9849 60.0311 49.9888 60.0271 49.9927C60.0193 50.0006 60.0134 50.0065 60.0095 50.0104C60.0016 50.0182 59.9938 50.0241 59.9859 50.0281C59.9781 50.032 59.9702 50.0359 59.9624 50.0398C59.9506 50.0438 59.9388 50.0457 59.927 50.0457C59.3815 50.0457 58.8359 50.0457 58.2904 50.0457C58.2786 50.0457 58.2668 50.0438 58.2551 50.0398C58.2511 50.0398 58.2452 50.0379 58.2374 50.0339C58.2295 50.0339 58.2197 50.032 58.208 50.0281C58.1687 50.0281 58.1295 50.0261 58.0902 50.0222C58.047 50.0222 58.0058 50.0202 57.9666 50.0163C57.9626 50.0163 57.9587 50.0163 57.9548 50.0163H57.9489C57.8979 50.0163 57.8547 50.0104 57.8194 49.9986C57.8155 49.9947 57.8115 49.9927 57.8076 49.9927C57.7919 49.9927 57.7782 49.9927 57.7664 49.9927C57.7507 49.9888 57.735 49.9868 57.7193 49.9868C57.7115 49.9829 57.7016 49.979 57.6899 49.9751C57.682 49.9672 57.6742 49.9613 57.6663 49.9574C57.6624 49.9496 57.6585 49.9437 57.6545 49.9397C57.6545 49.9358 57.6545 49.9299 57.6545 49.9221C57.6545 49.9182 57.6545 49.9123 57.6545 49.9044C57.6585 49.9005 57.6624 49.8946 57.6663 49.8868C57.6742 49.8828 57.682 49.8789 57.6899 49.875C57.6938 49.875 57.6997 49.873 57.7075 49.8691C57.7036 49.8456 57.7075 49.822 57.7193 49.7985C57.7311 49.7749 57.7605 49.7494 57.8076 49.7219C57.8665 49.6944 57.9038 49.6787 57.9195 49.6748C57.9509 49.663 57.9862 49.6611 58.0254 49.6689C58.0529 49.6689 58.0765 49.6729 58.0961 49.6807C58.1039 49.6689 58.1157 49.6611 58.1314 49.6572C58.1785 49.6415 58.2511 49.6375 58.3492 49.6454C58.4945 49.6611 58.6868 49.667 58.9262 49.663L59.0381 49.6513C59.0812 49.6513 59.1166 49.6552 59.144 49.663C59.356 49.6552 59.4953 49.6532 59.562 49.6572ZM57.2954 46.7135C57.4014 46.7056 57.476 46.7194 57.5191 46.7547C57.5466 46.7861 57.5584 46.8371 57.5545 46.9078C57.5427 46.9549 57.5172 46.9922 57.4779 47.0196C57.5054 47.0707 57.5191 47.1256 57.5191 47.1845C57.6722 47.1766 57.788 47.1904 57.8665 47.2257C57.9097 47.2492 57.9411 47.2944 57.9607 47.3611C57.9646 47.3768 57.9666 47.3964 57.9666 47.42C57.9666 47.4514 57.9568 47.4808 57.9371 47.5083C57.8979 47.5358 57.839 47.5554 57.7605 47.5672L56.1062 47.573C55.2192 47.522 54.3694 47.5358 53.557 47.6143C53.3804 47.6221 53.2567 47.6084 53.1861 47.573C53.1233 47.5299 53.0801 47.5063 53.0565 47.5024C53.0173 47.4788 52.9702 47.4788 52.9152 47.5024C52.7543 47.5181 52.6444 47.5161 52.5856 47.4965C52.5228 47.4651 52.4757 47.4278 52.4443 47.3846C52.3972 47.3375 52.3775 47.2846 52.3854 47.2257C52.3265 47.21 52.2461 47.2218 52.144 47.261C52.0341 47.2767 51.9576 47.2767 51.9144 47.261C51.8751 47.2375 51.8477 47.2119 51.832 47.1845C51.8084 47.157 51.7967 47.1334 51.7967 47.1138C51.7967 47.1021 51.8025 47.0883 51.8143 47.0726C51.8261 47.0098 51.8948 46.9725 52.0204 46.9608C52.3461 46.9137 52.6974 46.8764 53.0742 46.8489C53.4432 46.8136 53.8415 46.792 54.2693 46.7841C54.7599 46.7449 55.5174 46.7253 56.5418 46.7253L57.2954 46.7135ZM52.6915 43.028C52.6915 43.0751 52.6699 43.1203 52.6268 43.1634C52.5836 43.1987 52.5385 43.2164 52.4914 43.2164C52.4835 43.2164 52.4776 43.2184 52.4737 43.2223C52.4344 43.2223 52.3795 43.2203 52.3089 43.2164C52.2304 43.1929 52.1754 43.187 52.144 43.1987C52.1008 43.1948 52.0518 43.2066 51.9968 43.2341C51.9301 43.2537 51.883 43.2655 51.8555 43.2694C51.8281 43.2772 51.7927 43.2831 51.7496 43.2871C51.6671 43.2949 51.569 43.2949 51.4552 43.2871C50.105 43.2164 48.8118 43.2262 47.5754 43.3165C47.4734 43.3086 47.4047 43.3028 47.3694 43.2988C47.287 43.2714 47.2477 43.2184 47.2516 43.1399C47.2516 43.0692 47.285 43.0221 47.3517 42.9986C47.3753 42.979 47.4341 42.9672 47.5283 42.9633L48.4468 42.8926C48.3526 42.8298 48.3114 42.7709 48.3231 42.716C48.3114 42.6571 48.3447 42.61 48.4232 42.5747C48.435 42.5708 48.4566 42.5649 48.488 42.557C48.5115 42.5531 48.5449 42.557 48.5881 42.5688C49.8166 42.5688 50.9783 42.6081 52.0734 42.6866C52.1597 42.6787 52.2205 42.7003 52.2559 42.7513L52.3147 42.8396C52.3187 42.8396 52.354 42.8455 52.4207 42.8573C52.4796 42.8455 52.5404 42.8612 52.6032 42.9044C52.6621 42.924 52.6915 42.9652 52.6915 43.028ZM49.7479 49.5453C49.7557 49.5728 49.7518 49.6061 49.7361 49.6454C49.7008 49.6689 49.6537 49.6787 49.5948 49.6748C49.5987 49.7062 49.5909 49.7396 49.5713 49.7749C49.532 49.8024 49.4967 49.822 49.4653 49.8338L49.1945 49.8161L48.541 49.8985C48.4782 49.8907 48.4271 49.873 48.3879 49.8456C48.3604 49.8102 48.3467 49.7729 48.3467 49.7337C48.3388 49.667 48.3506 49.6258 48.382 49.6101C48.3663 49.5944 48.3408 49.5924 48.3055 49.6042C48.2074 49.6159 48.1367 49.5944 48.0935 49.5394C48.0543 49.508 48.0366 49.4727 48.0406 49.4334C48.0288 49.3785 48.0405 49.3432 48.0759 49.3275C48.0876 49.3039 48.1348 49.2921 48.2172 49.2921C48.2917 49.2921 48.3997 49.2961 48.541 49.3039C48.6116 49.3 48.7196 49.3078 48.8648 49.3275H48.959C48.9943 49.3196 49.1336 49.3314 49.377 49.3628L49.4888 49.3863C49.5791 49.3942 49.6458 49.4177 49.689 49.457C49.7165 49.4766 49.7361 49.506 49.7479 49.5453ZM50.0246 53.7547C50.0678 53.7587 50.2189 53.7704 50.4779 53.7901C50.6781 53.7822 50.8939 53.8058 51.1255 53.8607C51.2079 53.8686 51.2727 53.896 51.3198 53.9431C51.3708 53.9785 51.3983 54.0216 51.4022 54.0727C51.3983 54.0884 51.3944 54.106 51.3904 54.1256C51.3551 54.1963 51.2668 54.2277 51.1255 54.2198L50.5368 54.1492C50.5368 54.1845 50.5191 54.2238 50.4838 54.2669C50.4445 54.2944 50.4053 54.318 50.366 54.3376C50.3189 54.3337 50.2267 54.318 50.0893 54.2905C49.897 54.2316 49.6792 54.2022 49.4358 54.2022C49.3024 54.1904 49.0846 54.1943 48.7823 54.214L47.5637 54.2728C47.5676 54.2728 47.5754 54.2807 47.5872 54.2964C47.599 54.3121 47.599 54.3337 47.5872 54.3611C47.2144 54.3258 46.8513 54.3474 46.4981 54.4259C46.4274 54.4298 46.3803 54.4279 46.3568 54.42C46.3175 54.3925 46.2979 54.3553 46.2979 54.3082C46.2979 54.2532 46.3175 54.214 46.3568 54.1904C46.3921 54.1472 46.4745 54.1296 46.604 54.1374C46.5452 54.0982 46.4569 54.0864 46.3391 54.1021C46.2096 54.106 46.1213 54.0942 46.0742 54.0668C46.0271 54.0432 45.9957 54.0118 45.98 53.9726C45.9682 53.9412 45.9623 53.9157 45.9623 53.896C45.9623 53.8725 45.9682 53.8529 45.98 53.8372C45.9957 53.7704 46.0546 53.7371 46.1566 53.7371C46.3803 53.6782 46.6413 53.637 46.9396 53.6134C47.0338 53.6017 47.13 53.5938 47.2281 53.5899C47.4597 53.582 47.8227 53.5762 48.3173 53.5722C48.6195 53.5565 48.8294 53.5526 48.9472 53.5605C49.1827 53.5526 49.3907 53.5762 49.5713 53.6311C49.587 53.6233 49.6596 53.6448 49.7891 53.6959C49.8794 53.7233 49.9579 53.743 50.0246 53.7547ZM53.1449 52.6185C53.1684 52.5949 53.2057 52.5812 53.2567 52.5773C53.3077 52.5537 53.347 52.5459 53.3745 52.5537C53.3234 52.4674 53.3254 52.4065 53.3804 52.3712C53.4039 52.3241 53.451 52.3006 53.5216 52.3006L53.922 52.2476C54.0986 52.2358 54.2203 52.2358 54.287 52.2476C54.4008 52.2633 54.4715 52.2731 54.4989 52.277C54.601 52.2731 54.6658 52.279 54.6932 52.2947L54.7992 52.3477C54.811 52.3516 54.8502 52.3536 54.9169 52.3536C54.9444 52.3536 55.0013 52.3712 55.0877 52.4065C55.1465 52.4183 55.1956 52.4262 55.2349 52.4301C55.2623 52.4183 55.3153 52.4065 55.3938 52.3948C55.4134 52.383 55.4468 52.3967 55.4939 52.436C55.5292 52.4556 55.5528 52.485 55.5645 52.5243C55.5685 52.5714 55.5626 52.6224 55.5469 52.6774C55.5116 52.7205 55.4664 52.748 55.4115 52.7598C55.3487 52.7833 55.2466 52.7833 55.1053 52.7598L54.7109 52.6832C54.5382 52.6636 54.3832 52.6695 54.2458 52.7009C54.2497 52.7166 54.2713 52.75 54.3106 52.801C54.338 52.8285 54.3459 52.8638 54.3341 52.907C54.3184 52.9423 54.2929 52.9619 54.2576 52.9658C54.2222 52.9541 54.1869 52.9403 54.1516 52.9246L54.028 52.8422C53.9966 52.8147 53.9769 52.801 53.9691 52.801L53.9279 52.8069C53.8141 52.8422 53.6531 52.8815 53.4451 52.9246C53.3077 52.9521 53.2135 52.9462 53.1625 52.907C53.1115 52.8638 53.0879 52.8147 53.0919 52.7598C53.084 52.6931 53.1017 52.646 53.1449 52.6185ZM46.4156 44.9944C46.4981 44.9787 46.5687 44.9787 46.6276 44.9944L46.9573 45.0297C47.0162 45.0258 47.1712 45.0454 47.4224 45.0886C47.5127 45.1121 47.5676 45.1318 47.5872 45.1475C47.65 45.1749 47.6893 45.2161 47.705 45.2711L47.7168 45.3535C47.7207 45.3653 47.7442 45.3771 47.7874 45.3888C47.858 45.3928 47.913 45.4281 47.9522 45.4948C47.9679 45.5262 47.9758 45.5615 47.9758 45.6008C47.9601 45.644 47.9385 45.6773 47.911 45.7009C47.8757 45.7126 47.8168 45.7225 47.7344 45.7303L47.181 45.6891L47.0515 45.6597L45.9211 45.6302C45.874 45.6263 45.8308 45.6165 45.7916 45.6008C45.7092 45.5694 45.6739 45.5144 45.6856 45.4359C45.6739 45.4085 45.6837 45.3751 45.7151 45.3358L45.7445 45.2534C45.7563 45.2103 45.7759 45.1847 45.8034 45.1769C45.8308 45.1455 45.8917 45.1455 45.9859 45.1769C45.9741 45.1337 45.982 45.0984 46.0094 45.0709C46.0212 45.0552 46.0526 45.0434 46.1036 45.0356C46.1664 45.016 46.2704 45.0022 46.4156 44.9944ZM44.2668 48.1382C44.8045 48.1735 45.2715 48.2128 45.668 48.256C45.7465 48.2638 45.7994 48.2756 45.8269 48.2913C45.874 48.3188 45.9054 48.3619 45.9211 48.4208C45.925 48.4797 45.8897 48.5288 45.8151 48.568C45.7955 48.5641 45.7366 48.5719 45.6385 48.5915C45.3834 48.6033 45.2048 48.6151 45.1028 48.6269L43.9901 48.6504C43.9155 48.6465 43.8566 48.6367 43.8135 48.621C43.735 48.5778 43.7036 48.5268 43.7192 48.4679C43.6094 48.4365 43.4936 48.4228 43.3719 48.4267C43.3209 48.4306 43.2856 48.4306 43.2659 48.4267C43.2188 48.4032 43.1894 48.3737 43.1776 48.3384C43.1541 48.2952 43.1541 48.256 43.1776 48.2206C43.1972 48.1618 43.2699 48.1304 43.3954 48.1264C43.5995 48.1147 43.89 48.1186 44.2668 48.1382ZM41.7293 51.1231C41.6862 51.1427 41.6194 51.1565 41.5292 51.1643L40.5519 51.2232C40.4067 51.231 40.3007 51.2448 40.234 51.2644C40.1908 51.2801 40.1594 51.2958 40.1398 51.3115C40.0927 51.3154 40.0593 51.3174 40.0397 51.3174C40.0318 51.3056 40.0063 51.2978 39.9631 51.2938C39.92 51.2742 39.8729 51.2762 39.8218 51.2997C39.7198 51.3076 39.6511 51.3017 39.6158 51.2821L39.5687 51.235C39.5569 51.2153 39.5157 51.2094 39.4451 51.2173C39.4058 51.2094 39.3724 51.1957 39.345 51.1761C39.3253 51.1368 39.3155 51.1035 39.3155 51.076C39.3155 51.0642 39.3155 51.0564 39.3155 51.0525C39.3077 50.9779 39.3469 50.9249 39.4333 50.8935C39.4451 50.8896 39.5118 50.8817 39.6335 50.8699C39.7512 50.8582 39.8729 50.8346 39.9985 50.7993C40.073 50.7718 40.1221 50.7581 40.1456 50.7581C40.1496 50.7542 40.1535 50.7542 40.1574 50.7581C40.1692 50.7542 40.179 50.7522 40.1869 50.7522C40.234 50.7483 40.2732 50.7601 40.3046 50.7875C40.3242 50.7915 40.3556 50.8091 40.3988 50.8405C40.4224 50.8484 40.4675 50.8523 40.5342 50.8523C40.9306 50.7973 41.2799 50.7836 41.5822 50.8111C41.6489 50.7993 41.6979 50.8091 41.7293 50.8405C41.7961 50.8601 41.8334 50.8994 41.8412 50.9583C41.8451 51.025 41.8078 51.0799 41.7293 51.1231ZM41.0758 63.9693C41.1151 63.9104 41.174 63.8849 41.2525 63.8927C41.2956 63.8927 41.3702 63.9163 41.4762 63.9634C41.5115 63.9634 41.5586 63.9555 41.6175 63.9398C41.6371 63.9163 41.6842 63.8967 41.7588 63.881C41.8255 63.8535 41.8824 63.8574 41.9295 63.8927C41.9766 63.9281 41.9982 63.9752 41.9943 64.034C41.8844 64.1125 41.6862 64.1832 41.3997 64.246C41.3094 64.2617 41.2446 64.2695 41.2054 64.2695C41.119 64.2617 41.0582 64.2303 41.0229 64.1753C41.0032 64.1008 41.0209 64.0321 41.0758 63.9693ZM54.2929 56.6808C54.2497 56.6964 54.1889 56.7043 54.1104 56.7043L53.6453 56.6631C53.2449 56.6199 52.9525 56.6062 52.7681 56.6219L52.6268 56.616L52.5326 56.5807C52.4933 56.5689 52.4344 56.5669 52.3559 56.5748C52.2892 56.5591 52.2402 56.5473 52.2088 56.5395C52.1381 56.4963 52.0949 56.4472 52.0792 56.3923C52.0518 56.3216 52.0636 56.2686 52.1146 56.2333C52.1342 56.2019 52.1813 56.1843 52.2559 56.1803L52.8093 56.1273C53.292 56.0763 53.7983 56.0744 54.3282 56.1215C54.4106 56.1254 54.4774 56.1234 54.5284 56.1156C54.5441 56.1077 54.5735 56.0979 54.6167 56.0861C54.6834 56.0744 54.758 56.1136 54.8404 56.2039C54.8954 56.2667 54.915 56.3314 54.8993 56.3982C54.8718 56.4492 54.7953 56.4708 54.6697 56.4629L54.2635 56.3923C54.3105 56.4197 54.338 56.4688 54.3459 56.5395C54.3498 56.5944 54.3321 56.6415 54.2929 56.6808ZM60.4863 81.5312C59.8309 81.7667 59.2186 82.0826 58.6495 82.4791C58.1589 82.8166 57.6565 83.1227 57.1423 83.3975C57.2836 83.0599 57.6271 82.7224 58.1726 82.3849C58.5612 81.6588 56.7342 81.9394 52.6915 83.2267C54.9444 81.9629 57.2346 81.2133 59.562 80.9778C59.9271 80.8326 60.2352 81.017 60.4863 81.5312ZM48.959 42.8573C48.9393 42.8455 48.9256 42.8435 48.9178 42.8514L48.8471 42.8632C48.7765 42.8475 48.7294 42.8534 48.7058 42.8808H48.7647L48.9766 42.8573H48.959ZM44.0725 39.0776L44.1078 39.0658L44.1373 39.0776L44.1137 39.06C44.1019 39.0521 44.0803 39.0541 44.0489 39.0658L44.0725 39.0776Z" fill="#563B31"/>
</svg>
