<svg width="99" height="112" viewBox="0 0 99 112" fill="none" xmlns="http://www.w3.org/2000/svg">
<path d="M52.6182 30.4527C53.186 30.3318 53.7285 30.2306 54.2456 30.1491C54.8022 30.0563 55.3531 29.9734 55.8984 29.9003C56.1008 29.8694 56.3045 29.8399 56.5097 29.8118C60.071 33.4911 62.21 37.8506 62.9268 42.8904C66.1817 42.9466 68.828 43.9318 70.8658 45.8459C67.2118 44.2016 64.172 43.4891 61.7462 43.7083C61.3555 43.7589 60.9859 43.8531 60.6374 43.9908C59.6648 44.3928 59.0338 45.1938 58.7443 46.394C57.7043 50.7142 58.8624 53.5925 62.2184 55.0288C62.3309 55.0794 62.4461 55.1272 62.5642 55.1721C62.6654 55.2087 62.7652 55.2438 62.8635 55.2775C63.1615 55.3394 63.4187 55.3267 63.6351 55.2396L71.1146 51.4619C70.3473 52.0718 69.5771 52.6579 68.8041 53.22C67.0221 55.0105 65.0082 56.6942 62.7623 58.271C62.4644 58.3497 62.1173 58.4074 61.7209 58.4439L61.3373 59.3082C64.3645 59.0412 67.5154 58.5549 70.79 57.8494C71.7175 57.6583 72.6268 57.4404 73.5178 57.1959C74.8024 56.8446 76.0489 56.4412 77.2576 55.9859C72.3415 47.5535 72.1321 39.1689 76.6294 30.8321C75.0806 30.3374 73.4349 29.9565 71.6922 29.6895C69.1316 24.3659 64.5078 22.4293 57.821 23.8796C54.7375 24.928 52.2514 26.7087 50.3625 29.2215C51.6358 29.7471 52.3877 30.1575 52.6182 30.4527ZM23.5012 40.6643C22.9953 40.6024 22.4922 40.5012 21.9918 40.3607C20.311 40.0093 18.5402 39.308 16.6794 38.2568C14.7316 37.155 12.771 36.4073 10.7979 36.0138C8.91183 36.0082 7.63714 36.5689 6.97379 37.6961C3.85944 43.624 4.39067 50.1015 8.56751 57.1284C9.15777 57.9661 10.6095 58.1094 12.9228 57.5585C14.7245 56.6703 16.5291 55.6303 18.3364 54.4385C20.0594 53.3086 21.7979 52.2939 23.5518 51.3944C23.6699 51.3326 23.7893 51.275 23.9102 51.2216C24.6157 47.6041 24.4794 44.085 23.5012 40.6643ZM33.814 30.5412C31.1128 30.8082 28.7504 32.4483 26.7266 35.4615C26.5523 35.8297 26.7547 36.3764 27.3337 37.1016C27.9128 37.8211 28.6647 38.4606 29.5894 39.0199C29.8452 39.0818 30.1038 39.1267 30.3652 39.1549L29.9351 39.3614C33.2743 42.903 33.7845 47.1544 31.4656 52.1154C31.564 52.166 31.6638 52.2152 31.765 52.263C32.6588 52.7071 33.5343 53.1947 34.3916 53.726C35.9235 54.662 37.5369 55.4406 39.2318 56.0618C41.5057 57.2507 44.0045 58.1347 46.7282 58.7137C46.9193 58.7559 47.1105 58.7952 47.3016 58.8318C47.8328 58.9358 48.3711 59.0285 48.9164 59.1101C52.8431 49.5196 51.4967 40.7022 44.8773 32.6577C44.6918 32.43 44.4936 32.2164 44.2828 32.0169C41.0504 30.6424 37.5608 30.1505 33.814 30.5412ZM92.7563 45.1882C93.0683 44.9493 93.057 44.7005 92.7225 44.4419C91.483 45.3217 90.0945 45.5761 88.557 45.2051C89.9876 45.4328 91.2848 45.0955 92.4485 44.1932C92.679 44.0105 92.9038 43.8081 93.1231 43.5861C93.2721 42.9902 93.1666 42.4828 92.8069 42.064C89.611 38.5421 85.9106 35.6048 81.7057 33.2522C78.8892 40.2623 78.6096 47.3104 80.8666 54.3964C85.1784 52.4569 88.7804 49.7164 91.6727 46.1748C92.0803 45.9893 92.4415 45.6604 92.7563 45.1882ZM83.1181 39.4795C83.5341 39.4795 83.8924 39.6285 84.1932 39.9264C84.4911 40.2244 84.6401 40.5827 84.6401 41.0015C84.6401 41.4204 84.4911 41.7787 84.1932 42.0767C83.8924 42.3746 83.5341 42.5236 83.1181 42.5236C82.6993 42.5236 82.3409 42.3746 82.0429 42.0767C81.745 41.7787 81.596 41.4204 81.596 41.0015C81.596 40.5827 81.745 40.2244 82.0429 39.9264C82.3409 39.6285 82.6993 39.4795 83.1181 39.4795Z" fill="#F46E02"/>
<path d="M54.6884 23.6814C53.0862 24.5049 51.8171 25.5477 50.8812 26.8098C49.9367 28.0746 49.7639 28.8785 50.3626 29.2214C52.2514 26.7086 54.7376 24.928 57.821 23.8795C64.5079 22.4292 69.1316 24.3658 71.6922 29.6894C71.2847 26.5357 69.185 24.2112 65.3933 22.7159C62.3183 21.5072 58.75 21.8291 54.6884 23.6814ZM77.0299 30.9627C76.895 30.9177 76.7615 30.8742 76.6294 30.832C72.1321 39.1688 72.3415 47.5534 77.2576 55.9858C77.4825 55.8986 77.7059 55.8115 77.928 55.7244C73.3351 47.3707 73.1595 39.1702 77.4009 31.1229C77.2773 31.0695 77.1536 31.0161 77.0299 30.9627ZM56.5098 29.8117C56.3046 29.8398 56.1008 29.8693 55.8984 29.9002C59.1786 33.9225 60.9986 38.2623 61.3584 42.9198C60.9508 42.9507 60.539 43.0027 60.123 43.0758C59.1393 43.2417 58.386 43.8586 57.8632 44.9267C56.944 46.8071 56.7993 49.0642 57.4289 51.6979C57.8336 53.4181 58.6178 54.7785 59.7815 55.7792C60.0795 56.0378 60.4041 56.2725 60.7555 56.4833C61.0787 56.6772 61.4258 56.8515 61.7969 57.0061C61.9543 57.0707 62.1173 57.1017 62.2859 57.0988C62.5052 57.0904 62.7371 57.0215 62.9816 56.8923C64.9435 55.8242 66.8844 54.6001 68.8041 53.22C69.5771 52.6578 70.3473 52.0717 71.1146 51.4618L63.6351 55.2395C63.4187 55.3266 63.1615 55.3393 62.8635 55.2775C62.7652 55.2437 62.6654 55.2086 62.5642 55.172C62.4461 55.1271 62.3309 55.0793 62.2185 55.0287C58.8624 53.5924 57.7043 50.7141 58.7443 46.394C59.0338 45.1937 59.6649 44.3927 60.6374 43.9907C60.9859 43.853 61.3556 43.7588 61.7463 43.7082C64.172 43.489 67.2118 44.2015 70.8659 45.8458C68.828 43.9317 66.1817 42.9465 62.9268 42.8903C62.21 37.8506 60.071 33.491 56.5098 29.8117ZM10.7979 36.0137C9.80568 35.8141 8.81348 35.7045 7.82127 35.6848C6.84311 35.7551 6.0308 36.0699 5.38431 36.6293C3.34368 39.8532 2.72531 43.6605 3.52919 48.0509C4.33308 52.4414 5.87901 56.0054 8.167 58.7432C8.73477 59.1086 9.46417 59.1029 10.3552 58.7263C11.2097 58.3693 12.0656 57.98 12.9228 57.5584C10.6096 58.1093 9.1578 57.966 8.56753 57.1284C4.3907 50.1014 3.85946 43.6239 6.97382 37.696C7.63716 36.5688 8.91185 36.0081 10.7979 36.0137ZM60.7133 59.3587C60.9213 59.3419 61.1293 59.325 61.3373 59.3081L61.721 58.4438C61.2572 58.292 60.8384 57.9112 60.4645 57.3012L59.6129 59.4388C59.9783 59.4135 60.3451 59.3868 60.7133 59.3587ZM28.5902 54.742C28.4806 54.8038 28.4145 54.8896 28.392 54.9992C28.0969 56.1038 28.7406 57.5781 30.323 59.422C31.9955 61.3642 34.7416 62.2932 38.5615 62.2089C42.3785 62.1189 45.2919 60.9932 47.3016 58.8317C47.1105 58.7952 46.9193 58.7558 46.7282 58.7136C44.5105 60.3917 41.9499 61.2574 39.0463 61.3108C36.0303 61.3642 33.7255 60.7585 32.1318 59.4936C30.5353 58.2316 29.6456 57.1452 29.4629 56.2345C29.283 55.3238 29.4559 54.5495 29.9815 53.9114C29.5346 54.2346 29.0708 54.5115 28.5902 54.742ZM24.0957 40.7148C23.899 40.7035 23.7008 40.6866 23.5013 40.6642C24.4794 44.0849 24.6157 47.604 23.9102 51.2215C24.0901 51.1372 24.27 51.0627 24.4499 50.998C25.7176 47.5773 25.5995 44.1495 24.0957 40.7148ZM29.9352 39.3614C29.8283 39.4148 29.7215 39.4682 29.6147 39.5216C32.4086 43.2121 32.9202 47.3609 31.1494 51.9677C31.2562 52.0155 31.3616 52.0647 31.4656 52.1153C33.7845 47.1543 33.2744 42.903 29.9352 39.3614ZM45.476 32.4595C45.2764 32.5213 45.0769 32.5874 44.8773 32.6576C51.4967 40.7021 52.8431 49.5196 48.9164 59.11C49.1778 59.1465 49.4406 59.1816 49.7048 59.2154C53.8142 48.0369 52.4046 39.1182 45.476 32.4595ZM25.5503 35.3096C25.407 35.8437 25.5025 36.2835 25.837 36.6293C27.0766 37.8997 28.3274 38.6966 29.5894 39.0198C28.6647 38.4605 27.9128 37.821 27.3338 37.1015C26.7547 36.3763 26.5524 35.8296 26.7266 35.4614C28.7504 32.4482 31.1129 30.8081 33.814 30.5411C37.5608 30.1504 41.0504 30.6423 44.2828 32.0168C42.4193 30.2403 39.4553 29.2833 35.3909 29.1455C31.1747 29.3198 27.8945 31.3745 25.5503 35.3096ZM81.7057 33.2521C81.5539 33.1678 81.4007 33.0835 81.2461 32.9991C77.8619 40.1442 77.564 47.3609 80.3523 54.6492C80.5265 54.5677 80.698 54.4834 80.8667 54.3963C78.6096 47.3103 78.8893 40.2622 81.7057 33.2521Z" fill="#311831"/>
<path d="M62.9816 56.8923C62.737 57.0216 62.5051 57.0904 62.2859 57.0989L61.7209 58.4438C62.1173 58.4073 62.4644 58.3497 62.7623 58.271C65.0082 56.6941 67.0221 55.0104 68.8041 53.22C66.8844 54.6001 64.9435 55.8242 62.9816 56.8923ZM61.3373 59.3081C60.8566 60.1008 60.3521 60.878 59.8237 61.6397C59.2699 62.4464 58.9931 63.3557 58.9931 64.3676C58.9931 64.6908 59.0535 64.9452 59.1744 65.1307C59.3486 65.4118 59.6592 65.5312 60.1061 65.4891C61.0421 65.3823 61.9613 65.17 62.8635 64.8524C63.7236 64.5545 64.5725 64.227 65.4101 63.87C66.2421 63.5187 67.0474 63.1153 67.826 62.66C68.672 62.1653 69.4942 61.6425 70.2924 61.0916C70.8518 60.7065 71.3788 60.2849 71.8735 59.8267C72.5959 58.9975 73.144 58.1206 73.5178 57.1958C72.6268 57.4404 71.7175 57.6582 70.79 57.8493C67.5154 58.5548 64.3645 59.0411 61.3373 59.3081ZM60.4645 57.3012L60.7554 56.4833C60.4041 56.2725 60.0794 56.0378 59.7815 55.7792C59.9895 56.3835 60.2172 56.8909 60.4645 57.3012ZM34.3916 53.7259C33.5343 53.1947 32.6588 52.707 31.7649 52.2629C31.2 52.9009 30.6055 53.4476 29.9815 53.903V53.9114C29.4559 54.5495 29.283 55.3238 29.4629 56.2345C29.6456 57.1452 30.5352 58.2316 32.1317 59.4936C33.7255 60.7585 36.0303 61.3642 39.0463 61.3108C41.9498 61.2574 44.5105 60.3917 46.7282 58.7137C44.0045 58.1346 41.5057 57.2506 39.2318 56.0617C37.5369 55.4405 35.9235 54.6619 34.3916 53.7259ZM92.7225 44.4419L92.4485 44.1931C91.2848 45.0954 89.9876 45.4327 88.5569 45.205C90.0944 45.576 91.483 45.3216 92.7225 44.4419Z" fill="#C74B0D"/>
<path d="M59.8236 61.6395C60.352 60.8778 60.8565 60.1006 61.3372 59.308C61.1292 59.3249 60.9212 59.3417 60.7132 59.3586C59.9768 60.3367 59.3289 61.4653 58.7695 62.7442C58.6796 62.955 58.591 63.17 58.5039 63.3893C58.3915 63.6675 58.2832 63.9514 58.1792 64.2409C57.9881 64.775 58.1202 65.2556 58.5756 65.6829C58.6374 65.7447 58.7077 65.8009 58.7864 65.8515C59.1237 66.0539 59.5636 66.1115 60.106 66.0244C60.2887 65.9963 60.4813 65.9513 60.6837 65.8895C61.4622 65.6562 62.2057 65.413 62.914 65.1601C63.1839 65.0645 63.4481 64.9675 63.7067 64.8691C67.4282 63.4609 70.1504 61.7801 71.8734 59.8266C71.3787 60.2847 70.8517 60.7064 70.2923 61.0914C69.4941 61.6424 68.6719 62.1652 67.8259 62.6599C67.0473 63.1152 66.242 63.5186 65.41 63.8699C64.5724 64.2269 63.7235 64.5543 62.8634 64.8523C61.9612 65.1699 61.042 65.3821 60.106 65.4889C59.6591 65.5311 59.3485 65.4116 59.1743 65.1306C59.0534 64.945 58.993 64.6907 58.993 64.3674C58.993 63.3555 59.2698 62.4462 59.8236 61.6395ZM60.7553 56.4832L60.4644 57.3011C60.8383 57.911 61.2571 58.2919 61.7208 58.4437L62.2858 57.0987C62.1172 57.1015 61.9541 57.0706 61.7967 57.006C61.4257 56.8514 61.0786 56.6771 60.7553 56.4832Z" fill="#1C0C1C"/>
<path d="M29.1805 51.1078C29.8466 51.3748 30.503 51.6615 31.1494 51.9679C32.9202 47.361 32.4087 43.2123 29.6147 39.5217C27.7456 40.424 25.9059 40.8217 24.0958 40.7149C25.5995 44.1497 25.7176 47.5774 24.4499 50.9982C25.9959 50.4332 27.5727 50.4697 29.1805 51.1078ZM54.2457 30.1491C53.7285 30.2307 53.186 30.3318 52.6182 30.4527C50.5607 30.8828 48.18 31.5517 45.476 32.4596C52.4046 39.1184 53.8142 48.037 49.7049 59.2155C51.3126 59.4179 52.9907 59.5261 54.739 59.5402C56.3243 59.5739 57.9489 59.5402 59.6129 59.439L60.4646 57.3014C60.2172 56.891 59.9895 56.3836 59.7815 55.7793C58.6179 54.7787 57.8337 53.4183 57.4289 51.6981C56.7993 49.0644 56.9441 46.8073 57.8632 44.9269C58.386 43.8588 59.1393 43.2418 60.1231 43.076C60.5391 43.0029 60.9508 42.9509 61.3584 42.92C60.9986 38.2625 59.1786 33.9226 55.8984 29.9004C55.3531 29.9735 54.8022 30.0564 54.2457 30.1491ZM83.1392 40.6854C83.1392 40.8428 83.194 40.9749 83.3036 41.0817C83.4161 41.1941 83.551 41.2504 83.7084 41.2504C83.8658 41.2504 83.9979 41.1941 84.1047 41.0817C84.2171 40.9749 84.2733 40.8428 84.2733 40.6854C84.2733 40.528 84.2171 40.3931 84.1047 40.2806C83.9979 40.1738 83.8658 40.1204 83.7084 40.1204C83.551 40.1204 83.4161 40.1738 83.3036 40.2806C83.194 40.3931 83.1392 40.528 83.1392 40.6854ZM81.2461 32.9993C80.0094 32.3247 78.7277 31.6993 77.401 31.1231C73.1595 39.1704 73.3352 47.3708 77.928 55.7245C78.7516 55.3928 79.5597 55.0345 80.3523 54.6494C77.564 47.361 77.8619 40.1443 81.2461 32.9993Z" fill="#F0FEFE"/>
<path d="M84.1931 39.9264C83.8924 39.6285 83.534 39.4795 83.118 39.4795C82.6992 39.4795 82.3408 39.6285 82.0429 39.9264C81.7449 40.2244 81.5959 40.5827 81.5959 41.0015C81.5959 41.4203 81.7449 41.7787 82.0429 42.0767C82.3408 42.3746 82.6992 42.5236 83.118 42.5236C83.534 42.5236 83.8924 42.3746 84.1931 42.0767C84.4911 41.7787 84.64 41.4203 84.64 41.0015C84.64 40.5827 84.4911 40.2244 84.1931 39.9264ZM83.3035 41.0816C83.1939 40.9748 83.1391 40.8427 83.1391 40.6853C83.1391 40.5279 83.1939 40.393 83.3035 40.2806C83.4159 40.1738 83.5509 40.1204 83.7083 40.1204C83.8657 40.1204 83.9978 40.1738 84.1046 40.2806C84.217 40.393 84.2732 40.5279 84.2732 40.6853C84.2732 40.8427 84.217 40.9748 84.1046 41.0816C83.9978 41.1941 83.8657 41.2503 83.7083 41.2503C83.5509 41.2503 83.4159 41.1941 83.3035 41.0816Z" fill="#060206"/>
<path d="M15.0264 108.16C11.9864 108.16 10.1864 106.08 10.1864 100.6C10.1864 95.12 12.0264 93.02 15.0264 93.02C18.1064 93.02 19.3264 94.82 19.5064 98.74L16.2664 99.02C16.1264 96.66 15.8464 96.06 15.0264 96.06C13.9464 96.06 13.6664 97.32 13.6664 100.6C13.6664 103.94 13.9864 105.26 15.0464 105.26C15.9064 105.26 16.2064 104.68 16.3864 102.18L19.6264 102.48C19.2864 105.56 18.2464 108.16 15.0264 108.16ZM21.6059 108V93.2H24.8859V108H21.6059ZM31.0715 108.14C28.7115 108.14 26.8715 106.48 26.8715 102.62C26.8715 98.7 28.6915 97.14 31.0715 97.14C33.4115 97.14 35.2715 98.7 35.2715 102.62C35.2715 106.48 33.4115 108.14 31.0715 108.14ZM31.0715 105.74C31.7515 105.74 31.9915 105.12 31.9915 102.62C31.9915 100.3 31.7915 99.64 31.0715 99.64C30.3915 99.64 30.1315 100.14 30.1315 102.62C30.1315 104.92 30.3515 105.74 31.0715 105.74ZM38.1239 108.04L36.1639 97.3H39.2239L39.6839 100.74C39.8039 101.58 39.8639 102.26 39.9639 103.38H40.0439C40.1639 102.3 40.2839 101.56 40.4239 100.7L41.0039 97.3H43.6039L44.1839 100.8C44.3239 101.62 44.3839 102.16 44.5439 103.36H44.6239C44.7639 102.12 44.8239 101.62 44.9239 100.8L45.3839 97.3H47.9239L45.9639 108.04H43.1039L42.0839 102.18H42.0039L40.9839 108.04H38.1239ZM49.4473 108V97.3H52.7273V98.6C53.1673 97.96 54.2073 97.14 55.3873 97.14C56.5873 97.14 57.4473 97.62 57.4473 99.56V108H54.1673V100.74C54.1673 100.28 54.0273 100.04 53.7073 100.04C53.3473 100.04 52.9673 100.28 52.7273 100.46V108H49.4473ZM64.986 96.36V93.46H68.286V96.36H64.986ZM60.306 108V99.74H59.146V97.3H60.306V96.38C60.306 94.66 60.806 93.16 63.306 93.16C63.966 93.16 64.406 93.2 64.546 93.22V95.76C64.406 95.74 64.326 95.74 64.146 95.74C63.686 95.74 63.566 96.12 63.566 96.64V97.3H64.506V99.74H63.566V108H60.306ZM65.006 108V97.3H68.286V108H65.006ZM74.2251 108.18C72.0451 108.18 70.8251 107.06 70.0851 105.46L72.4251 104.36C72.8851 105.38 73.5651 105.82 74.1651 105.82C74.5451 105.82 74.9451 105.66 74.9451 105.2C74.9451 103.86 70.4651 104.02 70.4651 100.32C70.4651 97.98 72.5851 97.08 74.0651 97.08C75.9051 97.08 77.1251 97.8 77.9451 99.58L75.5651 100.72C75.1851 99.86 74.6851 99.54 74.1451 99.54C73.8051 99.54 73.5451 99.74 73.5451 100.12C73.5451 101.56 78.0251 101.34 78.0251 105.02C78.0251 107 76.5251 108.18 74.2251 108.18ZM79.9082 108V93.2H83.1882V98.6C83.6282 97.96 84.6682 97.14 85.8482 97.14C87.0482 97.14 87.9082 97.62 87.9082 99.56V108H84.6282V100.74C84.6282 100.28 84.4882 100.04 84.1682 100.04C83.8082 100.04 83.4282 100.28 83.1882 100.46V108H79.9082Z" fill="#3A2E27"/>
</svg>
