<svg width="99" height="112" viewBox="0 0 99 112" fill="none" xmlns="http://www.w3.org/2000/svg">
<path d="M47.2034 90C47.2662 89.8705 47.3068 89.7067 47.3249 89.5085C46.2712 89.1859 44.8337 89.1982 43.0124 89.5455C45.0102 89.6221 46.4072 89.7736 47.2034 90ZM32.8812 83.7268C32.9309 83.5641 32.9732 83.4073 33.0081 83.2565L29.7261 83.7268H32.8812ZM66.5673 88.3036C66.5194 88.5353 66.4366 88.7555 66.3189 88.9642C67.4392 89.1606 68.4363 89.4143 69.3102 89.7252C68.9367 88.9899 68.0224 88.516 66.5673 88.3036ZM52.5306 83.3463C51.7083 83.0338 50.8716 82.8172 50.0202 82.6963C50.0114 82.8875 49.9779 83.0743 49.9198 83.2565C50.2013 83.2847 50.4303 83.3094 50.6068 83.3305C51.0326 83.3862 51.6739 83.3915 52.5306 83.3463Z" fill="#0C1015"/>
<path d="M47.103 86.882V86.475C46.2438 86.6358 45.5709 86.8666 45.0841 87.1674C44.6962 87.4101 44.4284 87.6973 44.2808 88.0288C43.9619 88.2604 43.6818 88.5335 43.4405 88.848C43.2806 89.0612 43.1379 89.2937 43.0124 89.5456C44.8337 89.1982 46.2712 89.1859 47.3249 89.5086C47.3823 88.9357 47.2573 88.076 46.9497 86.9295C46.9843 86.9194 47.0178 86.9088 47.0501 86.8978C47.068 86.8945 47.0857 86.8892 47.103 86.882ZM43.6572 89.0065C44.0254 88.5429 44.6102 88.1536 45.4118 87.8385C45.6224 87.756 45.8479 87.6784 46.0883 87.606C46.2333 87.6846 46.184 87.8009 45.9403 87.9548C45.3958 88.0445 44.6348 88.3951 43.6572 89.0065ZM33.0609 81.021L32.8813 80.5718C32.0161 80.6084 31.167 81.1422 30.3339 82.1731C29.9261 82.5929 29.7235 83.1109 29.7262 83.7269L33.0081 83.2565C33.2306 82.2867 33.1425 81.5644 32.7438 81.0897C32.8499 81.0677 32.9556 81.0448 33.0609 81.021ZM31.8401 81.5125C32.0449 81.513 32.0696 81.5746 31.9141 81.6975C31.3909 81.8209 30.873 82.1645 30.3604 82.728C30.2797 82.4212 30.773 82.016 31.8401 81.5125ZM50.0202 82.6963C50.8716 82.8172 51.7084 83.0339 52.5306 83.3464C52.1987 82.7676 51.3161 82.2286 49.8828 81.7292C49.993 82.0613 50.0388 82.3837 50.0202 82.6963ZM50.4747 82.4215C50.3844 82.3494 50.3844 82.2842 50.4747 82.226C50.9538 82.2947 51.3308 82.4708 51.6057 82.7545C51.2563 82.5884 50.8793 82.4774 50.4747 82.4215ZM69.3102 89.7253C69.4373 89.7491 69.476 89.6786 69.4265 89.5139C69.2176 88.26 68.1941 87.2612 66.3559 86.5173C66.614 87.1689 66.6844 87.7643 66.5673 88.3036C68.0224 88.516 68.9367 88.9899 69.3102 89.7253ZM68.6337 88.3882C68.2869 88.1236 67.8447 87.8893 67.3072 87.6853C67.1279 87.4265 67.1262 87.2961 67.3019 87.2942C67.9174 87.6151 68.3613 87.9797 68.6337 88.3882Z" fill="#1E252E"/>
<path d="M45.4118 87.8385C44.6102 88.1536 44.0253 88.5429 43.6572 89.0065C44.6348 88.395 45.3958 88.0444 45.9402 87.9548C46.184 87.8009 46.2333 87.6846 46.0882 87.606C45.8478 87.6784 45.6223 87.7559 45.4118 87.8385ZM31.9141 81.6974C32.0695 81.5746 32.0449 81.5129 31.8401 81.5125C30.7729 82.016 30.2797 82.4212 30.3603 82.728C30.8729 82.1644 31.3909 81.8209 31.9141 81.6974ZM50.4747 82.2259C50.3843 82.2841 50.3843 82.3493 50.4747 82.4215C50.8792 82.4773 51.2562 82.5883 51.6057 82.7544C51.3307 82.4708 50.9538 82.2946 50.4747 82.2259ZM67.3072 87.6852C67.8447 87.8893 68.2868 88.1236 68.6337 88.3881C68.3613 87.9797 67.9174 87.615 67.3019 87.2942C67.1261 87.2961 67.1279 87.4264 67.3072 87.6852Z" fill="#5880AD"/>
<path d="M32.8812 80.5718L33.0609 81.021C34.9731 80.6171 36.6308 80.189 38.034 79.7368C35.9123 79.989 34.1947 80.2673 32.8812 80.5718ZM51.1882 85.7352C52.0796 85.404 52.9692 85.0763 53.8571 84.7522C54.2844 84.5948 54.665 84.3851 54.9986 84.1233C53.1053 84.9454 51.2926 85.5796 49.5604 86.0258C48.5805 86.2294 47.7613 86.3791 47.1029 86.475V86.882C47.4843 86.7769 47.8683 86.6818 48.255 86.5966C49.2521 86.3746 50.2298 86.0875 51.1882 85.7352ZM60.553 72.8241L60.4421 72.7871L60.553 72.8294C60.5541 72.8277 60.5541 72.8259 60.553 72.8241Z" fill="#E0900E"/>
<path d="M66.3189 88.9642C66.4366 88.7555 66.5194 88.5353 66.5673 88.3036C62.7801 87.275 56.3659 87.6766 47.3249 89.5086C47.3067 89.7067 47.2662 89.8706 47.2034 90.0001L55.8706 88.7898C58.1574 88.5162 60.2502 88.4316 62.1491 88.5362C63.6898 88.6086 65.0797 88.7513 66.3189 88.9642ZM49.9198 83.2565C49.9779 83.0743 50.0114 82.8876 50.0202 82.6963C48.1767 82.1539 46.1174 81.7593 43.8421 81.5125C40.3435 81.8543 36.7322 82.4356 33.0081 83.2565C32.9732 83.4073 32.9309 83.5641 32.8812 83.7269C36.491 83.1367 39.7043 82.8161 42.5209 82.765C45.3412 82.7176 47.1769 82.7758 48.0278 82.9394C48.8782 83.1061 49.5089 83.2118 49.9198 83.2565ZM59.6123 80.4661C59.5066 80.7832 59.4203 81.102 59.3534 81.4227C59.297 81.6869 59.2494 81.9494 59.2107 82.2101C59.1543 82.5624 59.1561 82.9095 59.216 83.2512C59.2653 83.5472 59.3463 83.8361 59.4591 84.118C59.5612 84.3787 59.6211 84.6517 59.6388 84.9371C59.6493 85.1309 59.637 85.3247 59.6018 85.5185C59.5701 85.6911 59.5313 85.8638 59.4855 86.0364C59.415 86.2866 59.3181 86.5261 59.1948 86.7551C59.1772 86.7833 59.1596 86.8133 59.142 86.845C59.3675 86.6583 59.5982 86.4786 59.8343 86.3059C60.0739 86.1298 60.2888 85.9325 60.4791 85.714C60.6024 85.5731 60.6711 85.411 60.6852 85.2278C60.7134 84.8684 60.657 84.5267 60.5161 84.2025C60.3822 83.896 60.2641 83.5948 60.162 83.2988C60.0633 83.0064 59.9893 82.7104 59.94 82.4109C59.8801 82.0762 59.8484 81.7398 59.8449 81.4015C59.8413 81.095 59.8502 80.7938 59.8713 80.4978C59.896 80.1631 59.9294 79.8249 59.9717 79.4831C59.8413 79.8108 59.7216 80.1384 59.6123 80.4661ZM55.6169 66.4241C55.4972 66.457 55.3757 66.487 55.2523 66.5139L55.469 69.1405C57.6959 69.5516 59.5174 69.5164 60.9336 69.0348C60.9947 70.2125 60.8309 71.4632 60.4421 72.7871L60.553 72.8241C61.0267 71.5247 61.3262 70.1929 61.4515 68.8287C62.115 68.53 62.6752 68.116 63.1321 67.5868C63.2553 67.2239 63.3768 66.9543 63.4968 66.7782C60.6464 67.377 58.5518 67.1093 57.213 65.9749C56.6771 66.1417 56.1451 66.2915 55.6169 66.4241ZM46.0829 76.3914C46.2944 75.9336 46.4195 75.509 46.4582 75.1178C46.1058 75.4384 45.8698 75.8365 45.75 76.3122C45.6443 76.7173 45.5721 77.1348 45.5333 77.5647C45.5016 77.8606 45.5034 78.1583 45.5386 78.4578C45.5562 78.6692 45.5633 78.8806 45.5597 79.092C45.5492 79.2823 45.5034 79.4672 45.4223 79.6469C45.3378 79.8196 45.2356 79.9799 45.1158 80.1279L45.1105 80.1807C45.3957 80.1529 45.5966 79.9802 45.713 79.6628C45.8298 79.3446 45.865 79.0152 45.8187 78.6745C45.7725 78.3376 45.7513 77.987 45.7553 77.6228C45.7623 77.2627 45.8716 76.8522 46.0829 76.3914ZM43.932 66.6302C43.9417 67.1605 43.9452 67.6943 43.9426 68.2315C45.1839 68.7392 46.4487 68.9577 47.7371 68.8868C47.751 69.2577 47.6031 69.6276 47.2932 69.9967C47.767 69.8101 48.0893 69.4261 48.2603 68.8446C48.5837 68.8082 48.9079 68.7536 49.2328 68.6807C49.3813 68.2234 49.5363 67.7583 49.6978 67.2855C47.6956 67.3338 45.7737 67.1154 43.932 66.6302Z" fill="#CE5A06"/>
<path d="M70.0818 62.4391C72.728 61.784 74.9089 60.9561 76.6245 59.9552C72.9217 61.0367 69.0884 60.8746 65.1245 59.469C66.1759 61.0441 67.8284 62.0342 70.0818 62.4391ZM70.1452 57.1701C71.2332 57.9053 72.8098 58.5254 74.8752 59.0304L79.7056 57.2969C77.3284 58.0339 74.1416 57.9916 70.1452 57.1701ZM59.5912 62.4814C61 63.8784 62.5644 64.6835 64.2842 64.8966C66.2733 64.7873 68.2798 64.3891 70.3037 63.7022C66.3039 64.2848 62.733 63.8778 59.5912 62.4814ZM36.3323 59.0991C36.181 58.9884 36.0295 58.8757 35.8778 58.7608C32.7827 56.4091 29.7227 53.187 26.6979 49.0947C27.9499 52.9023 29.7468 56.1243 32.0885 58.7608C32.6159 59.3542 33.1708 59.9179 33.7532 60.452C34.5886 61.309 35.4483 62.0841 36.3323 62.7774C38.6923 64.6377 41.2255 65.9219 43.932 66.6301C45.7737 67.1153 47.6956 67.3337 49.6978 67.2854C51.4863 67.2414 53.3377 66.9842 55.2523 66.5138C55.3757 66.4869 55.4972 66.457 55.6169 66.424C56.1451 66.2914 56.6771 66.1416 57.213 65.9748C53.2685 62.7603 51.9173 57.1653 53.1595 49.1899C51.6526 55.2751 51.5592 59.8853 52.8794 63.0205C47.2532 64.3602 41.7375 63.0531 36.3323 59.0991ZM27.9821 17.8186C27.9006 18.0512 27.8196 18.2838 27.739 18.5162C27.732 19.2549 28.2834 19.7658 29.3932 20.0488C30.5026 20.3353 31.9013 19.4986 33.5894 17.5385C33.7622 16.7856 33.9454 16.0351 34.139 15.2871C34.224 14.9588 34.3103 14.6293 34.398 14.2988C34.1746 14.6051 33.928 14.894 33.6581 15.1656C33.105 15.7293 32.4761 16.1873 31.7714 16.5396C31.41 16.7185 31.0418 16.8806 30.6668 17.0258C30.2965 17.1709 29.9195 17.2995 29.5359 17.4116C29.0231 17.553 28.5051 17.6886 27.9821 17.8186Z" fill="#DEBFA6"/>
<path d="M63.1321 67.5867C62.6752 68.1159 62.115 68.5299 61.4514 68.8286C61.3261 70.1928 61.0267 71.5246 60.553 72.824C60.5541 72.8259 60.5541 72.8276 60.553 72.8293L60.442 72.787C60.8309 71.4631 60.9947 70.2124 60.9335 69.0347C59.5174 69.5163 57.6958 69.5515 55.4689 69.1404L56.1982 78.0561C56.3157 79.0143 56.3967 79.8845 56.4414 80.6668C56.4898 81.4531 56.3683 82.1419 56.0767 82.7332C55.7845 83.3237 55.4251 83.787 54.9986 84.1232C54.6649 84.3851 54.2844 84.5947 53.857 84.7521C52.9692 85.0762 52.0795 85.4039 51.1881 85.7351C50.2298 86.0874 49.2521 86.3745 48.255 86.5965C47.8683 86.6817 47.4843 86.7768 47.1029 86.8819C47.0856 86.8891 47.068 86.8944 47.0501 86.8978C47.0177 86.9088 46.9842 86.9193 46.9496 86.9295C47.2572 88.076 47.3823 88.9356 47.3249 89.5085C56.3659 87.6765 62.78 87.2749 66.5672 88.3035C66.6844 87.7643 66.6139 87.1688 66.3559 86.5172C65.2203 85.85 63.9273 85.251 62.4767 84.7204C61.9032 84.5059 61.4241 83.2023 61.0392 80.8095C61.7914 73.8741 62.489 69.4665 63.1321 67.5867ZM59.3533 81.4226C59.4203 81.102 59.5066 80.7831 59.6123 80.466C59.7215 80.1383 59.8413 79.8107 59.9717 79.483C59.9294 79.8248 59.8959 80.163 59.8713 80.4977C59.8501 80.7937 59.8413 81.0949 59.8448 81.4014C59.8484 81.7397 59.8801 82.0762 59.94 82.4109C59.9893 82.7103 60.0633 83.0063 60.1619 83.2987C60.2641 83.5947 60.3821 83.8959 60.516 84.2025C60.6569 84.5266 60.7133 84.8683 60.6851 85.2277C60.671 85.4109 60.6023 85.573 60.479 85.7139C60.2888 85.9324 60.0739 86.1297 59.8343 86.3058C59.5982 86.4785 59.3674 86.6582 59.1419 86.8449C59.1596 86.8132 59.1772 86.7832 59.1948 86.7551C59.3181 86.526 59.415 86.2865 59.4855 86.0363C59.5313 85.8637 59.57 85.691 59.6017 85.5184C59.637 85.3246 59.6493 85.1308 59.6387 84.937C59.6211 84.6517 59.5612 84.3786 59.459 84.1179C59.3463 83.836 59.2653 83.5471 59.2159 83.2512C59.156 82.9094 59.1543 82.5624 59.2106 82.21C59.2494 81.9493 59.297 81.6868 59.3533 81.4226ZM47.2932 69.9966C47.603 69.6275 47.751 69.2576 47.7371 68.8868C46.4487 68.9576 45.1839 68.7392 43.9425 68.2314C43.9293 70.952 43.7585 73.7829 43.4299 76.7243C42.6662 77.818 40.8799 78.8186 38.071 79.7261C38.0591 79.7296 38.0468 79.7331 38.034 79.7367C36.6308 80.1889 34.9731 80.617 33.0609 81.0209C32.9555 81.0447 32.8498 81.0676 32.7438 81.0896C33.1425 81.5643 33.2306 82.2866 33.008 83.2564C36.7321 82.4355 40.3435 81.8542 43.8421 81.5124C46.1173 81.7592 48.1767 82.1538 50.0202 82.6962C50.0388 82.3836 49.993 82.0612 49.8828 81.7291C48.3612 80.9295 47.4699 79.5202 47.2086 77.5012C47.4927 74.9529 48.1674 72.0127 49.2327 68.6806C48.9078 68.7535 48.5837 68.8081 48.2603 68.8445C48.0893 69.426 47.7669 69.81 47.2932 69.9966ZM46.4581 75.1177C46.4194 75.5089 46.2944 75.9335 46.0829 76.3913C45.8715 76.8521 45.7623 77.2626 45.7552 77.6227C45.7513 77.9869 45.7724 78.3375 45.8187 78.6744C45.8649 79.0151 45.8297 79.3445 45.713 79.6627C45.5965 79.9801 45.3957 80.1528 45.1105 80.1806L45.1158 80.1278C45.2356 79.9798 45.3377 79.8195 45.4223 79.6468C45.5033 79.4672 45.5491 79.2822 45.5597 79.0919C45.5632 78.8805 45.5562 78.6691 45.5386 78.4577C45.5033 78.1583 45.5016 77.8605 45.5333 77.5646C45.572 77.1348 45.6443 76.7172 45.75 76.3121C45.8698 75.8364 46.1058 75.4383 46.4581 75.1177Z" fill="#E39107"/>
<path d="M77.3961 34.3233C77.3151 34.2458 77.2323 34.1683 77.1477 34.0908L74.0719 31.6492L73.4694 32.0085C73.864 32.2939 74.2533 32.5811 74.6374 32.87C75.1201 33.2364 75.5816 33.6257 76.022 34.0379C76.4589 34.4537 76.8923 34.8818 77.3221 35.3222C77.7414 35.7591 78.1448 36.2101 78.5324 36.6751C78.934 37.1578 79.3057 37.6599 79.6475 38.1813C79.9928 38.7028 80.3169 39.2348 80.6199 39.7774C80.9123 40.3023 81.1801 40.8326 81.4232 41.3681C81.6663 41.9107 81.8989 42.4621 82.1208 43.0223C82.3534 43.6072 82.5542 44.1973 82.7233 44.7928L83.2465 43.2548C82.9823 42.7158 82.7127 42.1873 82.4379 41.6694C82.1596 41.1444 81.876 40.623 81.587 40.105C81.3017 39.5942 81.0022 39.0886 80.6886 38.5883C80.3715 38.0844 80.0456 37.5894 79.7109 37.1032C79.3832 36.6205 79.0309 36.1484 78.6539 35.6868C78.2664 35.2147 77.8471 34.7602 77.3961 34.3233ZM85.7991 42.5678C86.1256 42.7239 86.4075 42.9388 86.6447 43.2126C86.686 41.445 86.3988 39.8947 85.7833 38.5618C85.9942 39.9362 85.9995 41.2715 85.7991 42.5678Z" fill="#876348"/>
<path d="M42.653 36.4004C42.1437 36.0565 41.8847 35.7324 41.8761 35.428C43.9369 33.8994 44.8988 31.7942 44.7617 29.1125C42.2246 30.294 40.0155 31.89 38.1344 33.9007C39.0247 35.9018 40.5309 36.7351 42.653 36.4004Z" fill="#484136"/>
<path d="M29.3931 20.0487C28.2834 19.7656 27.732 19.2548 27.739 18.516C24.8822 26.9657 24.0261 34.9741 25.1705 42.5413C25.5279 44.8907 26.037 47.0751 26.6978 49.0946C29.7227 53.1869 32.7826 56.4089 35.8777 58.7607C36.0294 58.8755 36.1809 58.9883 36.3322 59.0989C41.7375 63.0529 47.2532 64.3601 52.8793 63.0203C51.5592 59.8851 51.6525 55.2749 53.1594 49.1897C51.9173 57.1652 53.2685 62.7601 57.2129 65.9746C58.5517 67.109 60.6463 67.3768 63.4967 66.7779C64.3272 66.6058 65.2221 66.3592 66.1814 66.038C65.8533 65.4921 65.2209 65.1116 64.2842 64.8965C62.5643 64.6834 61 63.8783 59.5911 62.4813C62.733 63.8777 66.3038 64.2846 70.3037 63.7021C70.7186 63.5608 71.1344 63.4075 71.5509 63.2423C71.2874 62.9009 70.7977 62.6332 70.0817 62.439C67.8283 62.034 66.1759 61.044 65.1245 59.4689C69.0883 60.8745 72.9217 61.0365 76.6244 59.9551C76.5672 59.4241 75.984 59.1158 74.8751 59.0302C72.8098 58.5252 71.2331 57.9051 70.1451 57.1699C74.1416 57.9914 77.3284 58.0337 79.7055 57.2968C79.7209 57.2925 79.735 57.2873 79.7478 57.2809C80.4873 57.0491 81.1479 56.7409 81.7297 56.3561C81.5649 56.0923 81.1896 55.8474 80.604 55.6214C81.4975 55.0521 82.1881 54.3369 82.6757 53.4758C82.6874 53.4582 82.698 53.4406 82.7074 53.4229C83.3185 52.3225 83.6038 50.9872 83.5635 49.417L83.5371 48.8885C83.4336 47.7209 83.1253 46.9599 82.6123 46.6054C82.1264 47.5777 81.8111 48.0868 81.6662 48.1327C81.5247 48.1787 81.4384 48.0995 81.4073 47.8949C81.5082 46.4966 81.362 45.5206 80.9686 44.9671C80.8159 44.7532 80.6344 44.7073 80.4243 44.8296C79.8286 45.2499 79.4058 45.7784 79.1559 46.4151C79.1418 46.4785 79.126 46.542 79.1083 46.6054C79.0308 46.8379 78.9445 47.0564 78.8494 47.2607C78.7648 47.4404 78.6944 47.5637 78.638 47.6307C78.4521 47.6813 78.3553 47.6443 78.3473 47.5197C78.3431 47.3954 78.3608 47.2315 78.4002 47.0282C78.4391 46.8277 78.4568 46.6233 78.453 46.4151C78.5005 43.3628 75.9919 40.7626 70.9273 38.6146C70.8231 39.6083 70.9587 40.4821 71.3342 41.2359C67.3583 36.2028 62.3095 34.3143 56.1877 35.5705C54.4366 36.0708 52.8564 36.8882 51.4471 38.0227C49.4705 39.6187 47.3055 40.8677 44.9519 41.7697C42.5843 42.6787 40.192 42.7491 37.775 41.9811C35.3299 41.213 33.6669 39.624 32.786 37.2141C31.9158 34.8394 31.5582 32.3819 31.7132 29.8416C32.0465 25.6472 32.6718 21.5461 33.5894 17.5383C31.9013 19.4984 30.5025 20.3352 29.3931 20.0487Z" fill="#F4E3D4"/>
<path d="M19.4522 16.5713C19.4449 16.5724 19.4361 16.5724 19.4258 16.5713C19.4153 16.5747 19.4048 16.5764 19.3941 16.5766C18.7514 16.6792 18.2511 16.8078 17.8932 16.9624C17.4563 17.1491 17.0423 17.3816 16.6512 17.66C16.2531 17.9418 15.9025 18.2677 15.5995 18.6377C15.3036 19.0006 15.057 19.3917 14.8596 19.8109C14.6342 20.2831 14.4351 20.7622 14.2625 21.2484C14.9964 21.5345 15.6623 21.7142 16.2602 21.7875C16.9766 21.8784 17.7429 21.9277 18.5591 21.9355C18.7869 21.94 19.0088 21.9206 19.225 21.8773C20.3096 19.9739 20.3853 18.2052 19.4522 16.5713Z" fill="#E59106"/>
<path d="M18.1258 16.2436C18.1974 16.1557 18.2396 15.9056 18.2526 15.4932C18.0651 15.5417 17.8801 15.5963 17.6977 15.657C17.6967 15.6567 17.695 15.6567 17.6924 15.657C16.9631 15.967 16.2937 16.3828 15.6841 16.9042C15.0922 17.4151 14.6042 18.0123 14.2202 18.6958C13.8679 19.323 13.623 19.9889 13.4856 20.6935C13.3588 21.3312 13.2566 21.976 13.1791 22.6278C13.4008 22.1138 13.6122 21.5941 13.8133 21.0688C13.883 20.8844 13.9517 20.6994 14.0194 20.5138C14.2801 19.788 14.636 19.1045 15.0869 18.4633C15.3411 18.099 15.6283 17.7714 15.9484 17.4803C15.9879 17.4445 16.0285 17.4093 16.0699 17.3746C16.2781 17.196 16.5 17.0322 16.7358 16.8831C17.042 16.6881 17.3591 16.526 17.6871 16.3969C17.7488 16.3733 17.8087 16.3504 17.8668 16.3282C17.9536 16.2998 18.0399 16.2717 18.1258 16.2436Z" fill="#171C20"/>
<path d="M18.7336 16.1011C18.5274 16.1393 18.3248 16.1869 18.1258 16.2438C18.0399 16.2718 17.9536 16.3 17.8668 16.3283C17.8087 16.3506 17.7488 16.3735 17.6871 16.397C17.3591 16.5262 17.042 16.6883 16.7359 16.8832C16.5001 17.0324 16.2781 17.1962 16.07 17.3747C16.0285 17.4094 15.988 17.4447 15.9484 17.4804C15.6283 17.7715 15.3411 18.0992 15.087 18.4634C14.636 19.1047 14.2801 19.7882 14.0194 20.514C13.9517 20.6996 13.883 20.8845 13.8133 21.0689C13.9654 21.1339 14.1152 21.1938 14.2625 21.2486C14.4352 20.7624 14.6342 20.2832 14.8597 19.8111C15.057 19.3918 15.3036 19.0007 15.5996 18.6378C15.9026 18.2679 16.2532 17.942 16.6513 17.6601C17.0424 17.3818 17.4564 17.1492 17.8932 16.9625C18.2511 16.8079 18.7514 16.6793 19.3942 16.5767C19.4048 16.5766 19.4154 16.5748 19.4259 16.5714C19.4361 16.5725 19.4449 16.5725 19.4523 16.5714C19.3518 16.3897 19.1122 16.233 18.7336 16.1011Z" fill="url(#paint0_linear_1808_3326)"/>
<path d="M17.6553 11.0222C17.3347 10.0465 16.785 9.34365 16.0064 8.91356C15.7387 8.76911 15.4533 8.67398 15.1503 8.62817C14.4844 9.04392 13.8502 9.50371 13.2477 10.0075C12.6344 10.5254 12.113 11.1015 11.6834 11.7357C11.2542 12.37 10.909 13.0712 10.6475 13.8391C10.3861 14.607 10.2469 15.4649 10.23 16.4129C10.2126 17.3642 10.3448 18.2344 10.6264 19.0236C10.9012 19.7882 11.2923 20.4875 11.7997 21.1217C12.226 21.6502 12.6858 22.1523 13.179 22.6279C13.2565 21.9761 13.3587 21.3314 13.4855 20.6936C13.623 19.989 13.8678 19.3231 14.2201 18.6959C14.6042 18.0124 15.0922 17.4152 15.6841 16.9044C16.2936 16.3829 16.963 15.9672 17.6923 15.6571C17.6949 15.6569 17.6967 15.6569 17.6976 15.6571C17.8801 15.5964 18.065 15.5418 18.2525 15.4933C18.2629 15.1396 18.2506 14.6639 18.2155 14.0664C18.2156 14.002 18.2139 13.9351 18.2103 13.8655C18.203 13.7313 18.1924 13.5957 18.1785 13.4586C18.1033 12.6657 17.9289 11.8536 17.6553 11.0222Z" fill="#1E252A"/>
<path d="M26.5234 14.6953C26.2534 14.7998 25.9803 14.8949 25.7043 14.9807C25.0969 15.1711 24.4944 15.3331 23.8968 15.4669C23.7862 15.4918 23.6752 15.5147 23.5639 15.5356C23.0595 15.6424 22.5046 15.7234 21.8991 15.7787C21.6641 15.8022 21.421 15.8216 21.1698 15.8369C21.167 15.8366 21.1634 15.8366 21.1592 15.8369C21.138 15.8395 21.1169 15.8412 21.0958 15.8421C21.0868 15.845 21.0779 15.8468 21.0694 15.8474C20.4433 15.9242 19.8144 15.9911 19.1827 16.0483C19.1397 16.0516 19.0975 16.0551 19.0558 16.0588C19.0075 16.0638 18.9599 16.0691 18.9131 16.0747C18.8528 16.0834 18.7929 16.0922 18.7335 16.1011C19.1121 16.233 19.3517 16.3898 19.4522 16.5715C21.2877 16.4853 23.6448 15.8599 26.5234 14.6953Z" fill="#6A7F99"/>
<path d="M30.7672 12.3328C30.0238 12.7379 29.268 13.0991 28.5 13.4162C27.7777 13.7192 27.0378 13.9869 26.2803 14.2195C25.5334 14.4555 24.7741 14.6476 24.0025 14.7955C23.2485 14.9259 22.4822 15.0157 21.7036 15.0651C21.4114 15.0838 21.1189 15.1067 20.8263 15.1338C20.7511 15.1406 20.6754 15.1476 20.599 15.1549C20.1435 15.1997 19.6872 15.2543 19.2302 15.3187C19.2087 15.3212 19.1875 15.323 19.1668 15.324C18.856 15.3641 18.5512 15.4205 18.2525 15.4931C18.2396 15.9056 18.1973 16.1557 18.1257 16.2436C18.3247 16.1867 18.5273 16.1392 18.7334 16.1009C18.7929 16.092 18.8527 16.0832 18.9131 16.0745C18.9599 16.0689 19.0075 16.0636 19.0558 16.0586C19.0974 16.0549 19.1397 16.0514 19.1827 16.0481C19.8144 15.9909 20.4433 15.924 21.0694 15.8472C21.0779 15.8466 21.0867 15.8448 21.0958 15.8419C21.1168 15.8411 21.138 15.8393 21.1592 15.8367C21.1634 15.8364 21.1669 15.8364 21.1698 15.8367C21.421 15.8214 21.6641 15.802 21.8991 15.7785C22.5046 15.7232 23.0595 15.6422 23.5639 15.5354C23.6752 15.5145 23.7862 15.4916 23.8968 15.4667C24.4944 15.3329 25.0968 15.1709 25.7042 14.9805C25.9803 14.8947 26.2534 14.7996 26.5234 14.6951L26.7982 14.5894C26.8424 14.5707 26.8865 14.5514 26.9303 14.5313C27.2363 14.4048 27.541 14.2656 27.8446 14.1138C28.5211 13.7791 29.1817 13.4109 29.8265 13.0092C30.1577 12.8084 30.4712 12.5829 30.7672 12.3328Z" fill="#566A83"/>
<path d="M23.5904 4.37391C23.4594 4.28582 23.315 4.24178 23.157 4.24178C22.9034 4.24178 22.6867 4.34748 22.507 4.55888C22.3308 4.7738 22.2427 5.03276 22.2427 5.33576C22.2427 5.64229 22.3308 5.89773 22.507 6.10208C22.5258 6.12438 22.5452 6.14553 22.5651 6.1655C22.8345 5.80969 23.0636 5.42917 23.2522 5.02395C23.3552 4.80431 23.4679 4.58763 23.5904 4.37391ZM22.396 5.07152C22.5179 5.41124 22.5884 5.66315 22.6074 5.82726L22.544 5.97524C22.3732 5.7024 22.3239 5.40116 22.396 5.07152ZM22.7395 4.99753C22.6459 4.8015 22.6846 4.62534 22.8558 4.46904C23.0265 4.36447 23.1339 4.39265 23.1782 4.5536C23.1449 4.8411 22.9987 4.98908 22.7395 4.99753ZM32.2471 5.82198C32.5008 5.57182 32.6276 5.26706 32.6276 4.90768C32.6276 4.55183 32.5008 4.24707 32.2471 3.99339C31.9969 3.74324 31.6939 3.61816 31.3381 3.61816C30.9787 3.61816 30.6722 3.74324 30.4185 3.99339C30.1683 4.24707 30.0433 4.55183 30.0433 4.90768C30.0433 5.26706 30.1683 5.57182 30.4185 5.82198C30.6722 6.07565 30.9787 6.20249 31.3381 6.20249C31.6939 6.20249 31.9969 6.07565 32.2471 5.82198ZM32.0991 4.6223C32.0005 4.61173 31.9141 4.5765 31.8401 4.5166C31.664 4.37215 31.6129 4.19951 31.6869 3.99868C31.7045 3.9564 31.7327 3.9194 31.7714 3.8877C32.0146 3.95816 32.1713 4.11847 32.2418 4.36862C32.2594 4.43557 32.27 4.50427 32.2735 4.57473C32.2242 4.62406 32.166 4.63991 32.0991 4.6223ZM31.4279 5.90653C31.2271 5.91358 31.0386 5.8713 30.8624 5.7797C30.6722 5.68457 30.5277 5.54364 30.4291 5.3569C30.3762 5.2512 30.3269 5.1367 30.2811 5.01338C30.8763 5.64182 31.558 5.71757 32.3264 5.24063C32.2383 5.43089 32.1079 5.5912 31.9353 5.72156C31.7873 5.83431 31.6182 5.89596 31.4279 5.90653Z" fill="#121E2B"/>
<path d="M22.8557 4.46879C22.6845 4.6251 22.6458 4.80126 22.7395 4.99728C22.9986 4.98883 23.1448 4.84086 23.1781 4.55335C23.1338 4.39241 23.0264 4.36422 22.8557 4.46879ZM31.8401 4.51636C31.9141 4.57625 32.0004 4.61148 32.099 4.62205C32.166 4.63967 32.2241 4.62382 32.2734 4.57449C32.2699 4.50402 32.2593 4.43532 32.2417 4.36838C32.1713 4.11823 32.0145 3.95792 31.7714 3.88745C31.7326 3.91916 31.7044 3.95616 31.6868 3.99843C31.6128 4.19926 31.6639 4.3719 31.8401 4.51636Z" fill="#D2E9FE"/>
<path d="M22.6073 5.82706C22.5883 5.66295 22.5179 5.41104 22.396 5.07132C22.3238 5.40096 22.3732 5.70221 22.5439 5.97504L22.6073 5.82706ZM30.8624 5.7795C31.0385 5.8711 31.227 5.91338 31.4279 5.90633C31.6181 5.89576 31.7872 5.83411 31.9352 5.72136C32.1079 5.591 32.2382 5.43069 32.3263 5.24044C31.558 5.71737 30.8762 5.64162 30.281 5.01318C30.3268 5.1365 30.3762 5.251 30.429 5.3567C30.5277 5.54344 30.6721 5.68437 30.8624 5.7795Z" fill="#453E62"/>
<path d="M19.2356 7.56575C19.1754 7.57328 19.1155 7.58033 19.0559 7.58689C18.235 7.71373 17.4176 7.89166 16.6037 8.12067C16.1061 8.25027 15.6217 8.41939 15.1503 8.62802C15.4533 8.67382 15.7387 8.76895 16.0065 8.91341C16.7851 9.34349 17.3347 10.0464 17.6554 11.0221C17.9289 11.8535 18.1033 12.6656 18.1786 13.4584C18.1925 13.5955 18.2031 13.7312 18.2103 13.8654C18.2139 13.9349 18.2157 14.0018 18.2156 14.0662C18.2506 14.6638 18.263 15.1394 18.2526 15.4931C18.5513 15.4205 18.8561 15.3641 19.1669 15.324C19.1876 15.323 19.2087 15.3212 19.2303 15.3187C19.6873 15.2543 20.1436 15.1997 20.5991 15.1549C20.6754 15.1476 20.7512 15.1406 20.8263 15.1338C21.119 15.1067 21.4114 15.0838 21.7036 15.065C22.4823 15.0157 23.2486 14.9259 24.0026 14.7955C24.7742 14.6475 25.5334 14.4555 26.2804 14.2195C27.0379 13.9869 27.7778 13.7192 28.5 13.4162C29.2681 13.0991 30.0238 12.7379 30.7673 12.3327C30.4713 12.5829 30.1577 12.8084 29.8265 13.0092C29.1818 13.4109 28.5212 13.7791 27.8447 14.1138C27.5411 14.2656 27.2363 14.4048 26.9304 14.5313C26.8865 14.5514 26.8425 14.5707 26.7983 14.5894L26.5235 14.6951C23.6448 15.8597 21.2877 16.4851 19.4522 16.5712C20.3853 18.2052 20.3096 19.9739 19.225 21.8773C19.7845 21.7725 20.3059 21.5188 20.7893 21.1163C21.1336 20.8326 21.4701 20.5507 21.7988 20.2707C22.1096 20.0058 22.4126 19.7433 22.7078 19.4832C22.9016 19.3149 23.1025 19.167 23.3102 19.0393C23.5406 18.8996 23.7802 18.7833 24.029 18.6905C24.2812 18.5981 24.5437 18.5294 24.8164 18.4844C25.581 18.347 26.3491 18.1937 27.1207 18.0246C27.2806 17.9874 27.4392 17.9486 27.5963 17.9083C27.7261 17.8798 27.8547 17.8498 27.9821 17.8185C28.5051 17.6885 29.0231 17.5529 29.5359 17.4116C29.9195 17.2994 30.2965 17.1708 30.6668 17.0258C31.0418 16.8805 31.41 16.7185 31.7714 16.5395C32.4761 16.1872 33.105 15.7292 33.6581 15.1655C33.928 14.8939 34.1746 14.605 34.398 14.2987C34.6661 13.9404 34.9021 13.5581 35.1062 13.1519C35.3528 12.6622 35.5483 12.1495 35.6928 11.614C36.9553 8.26657 36.3634 5.32815 33.9171 2.79876C31.7768 0.926203 29.4637 0.434706 26.978 1.32426C26.6231 1.45092 26.2637 1.60595 25.8998 1.78934C25.7253 1.92314 25.5526 2.06231 25.3819 2.20685C24.9133 2.61202 24.4941 3.063 24.1241 3.55978C23.9682 3.77198 23.822 3.98866 23.6855 4.20983C23.6537 4.26525 23.622 4.31986 23.5903 4.37366C23.4679 4.58738 23.3551 4.80407 23.2521 5.02371C23.0635 5.42893 22.8345 5.80944 22.5651 6.16525C22.5054 6.24392 22.4437 6.32143 22.3801 6.39779C22.3334 6.45286 22.2858 6.50748 22.2374 6.56162C21.9624 6.87014 21.6453 7.1062 21.2861 7.2698C21.2333 7.29692 21.1787 7.32159 21.1223 7.34379C21.1047 7.34983 21.087 7.35511 21.0694 7.35964C21.0578 7.36623 21.0455 7.37152 21.0324 7.3755C20.904 7.421 20.7701 7.45799 20.6308 7.48648C20.151 7.4964 19.686 7.52283 19.2356 7.56575ZM32.6276 4.90744C32.6276 5.26681 32.5007 5.57158 32.247 5.82173C31.9969 6.07541 31.6939 6.20224 31.338 6.20224C30.9787 6.20224 30.6721 6.07541 30.4185 5.82173C30.1683 5.57158 30.0432 5.26681 30.0432 4.90744C30.0432 4.55159 30.1683 4.24682 30.4185 3.99315C30.6721 3.743 30.9787 3.61792 31.338 3.61792C31.6939 3.61792 31.9969 3.743 32.247 3.99315C32.5007 4.24682 32.6276 4.55159 32.6276 4.90744ZM18.2209 11.1701C18.2209 11.1031 18.2226 11.0379 18.2261 10.9745C18.2332 10.9499 18.2385 10.9234 18.242 10.8953C18.2631 10.7719 18.3037 10.6627 18.3636 10.5676C18.4763 10.3949 18.6348 10.3086 18.8392 10.3086C18.9202 10.3086 18.9889 10.3597 19.0453 10.4619C19.0946 10.55 19.1211 10.6469 19.1246 10.7526C19.1281 10.9886 19.0594 11.2229 18.9185 11.4555C18.7811 11.6704 18.6172 11.8113 18.427 11.8782C18.3777 11.7796 18.3371 11.6933 18.3054 11.6193C18.2526 11.4784 18.2244 11.3286 18.2209 11.1701Z" fill="#91B4E0"/>
<path d="M18.2262 10.9747C18.2226 11.0382 18.2209 11.1033 18.2209 11.1703C18.2244 11.3288 18.2526 11.4786 18.3054 11.6195C18.3372 11.6935 18.3777 11.7798 18.427 11.8785C18.6173 11.8115 18.7811 11.6706 18.9185 11.4557C19.0594 11.2231 19.1281 10.9888 19.1246 10.7528C19.1211 10.6471 19.0947 10.5502 19.0453 10.4621C18.989 10.3599 18.9203 10.3088 18.8392 10.3088C18.6349 10.3088 18.4763 10.3952 18.3636 10.5678C18.3037 10.6629 18.2632 10.7721 18.242 10.8955C18.2385 10.9237 18.2332 10.9501 18.2262 10.9747Z" fill="#14191C"/>
<path d="M67.6031 29.086C63.7529 27.7082 59.7011 26.8926 55.4478 26.6391C51.4025 26.8551 47.8405 27.6796 44.7617 29.1125C44.8988 31.7941 43.937 33.8993 41.8762 35.4279C41.8848 35.7323 42.1437 36.0565 42.653 36.4004C40.5309 36.735 39.0247 35.9017 38.1344 33.9006C36.8549 31.0117 36.8584 25.6916 38.145 17.9402C38.3388 16.7669 38.5008 15.9671 38.6312 15.5408C38.8003 14.9806 38.9554 14.4151 39.0963 13.8443C39.2372 13.2841 39.3693 12.7257 39.4927 12.169C39.623 11.5947 39.7146 11.0116 39.7675 10.4197C39.8238 9.82781 39.8168 9.23413 39.7463 8.6387C39.6759 8.07145 39.5596 7.50773 39.3975 6.94753C39.239 6.3979 39.0381 5.86236 38.795 5.34091C38.5555 4.82299 38.2683 4.33325 37.9336 3.8717C37.5778 3.38197 37.1867 2.92923 36.7603 2.51348C36.3552 2.11887 35.9183 1.75598 35.4497 1.42479C34.9459 1.06894 34.4138 0.772982 33.8536 0.536922C33.2864 0.307909 32.7051 0.151124 32.1096 0.0665651C31.4825 -0.0144703 30.8606 -0.0215174 30.244 0.0454249C29.6627 0.108844 29.0866 0.228636 28.5159 0.404799C27.9522 0.57744 27.4149 0.8135 26.904 1.11298C26.5601 1.32021 26.2254 1.54569 25.8998 1.78945C26.2637 1.60606 26.6231 1.45103 26.978 1.32438C29.4637 0.434817 31.7768 0.926314 33.9171 2.79887C36.3633 5.32826 36.9553 8.26668 35.6928 11.6141C35.5483 12.1496 35.3528 12.6623 35.1062 13.152C34.9021 13.5582 34.666 13.9405 34.398 14.2988C34.3103 14.6293 34.224 14.9588 34.139 15.2871C33.9454 16.0351 33.7622 16.7856 33.5894 17.5385C32.6719 21.5462 32.0465 25.6473 31.7133 29.8418C31.5582 32.3821 31.9158 34.8396 32.7861 37.2142C33.6669 39.6242 35.3299 41.2132 37.7751 41.9812C40.192 42.7493 42.5843 42.6789 44.952 41.7698C47.3055 40.8679 49.4706 39.6189 51.4471 38.0228C52.8564 36.8883 54.4366 36.0709 56.1877 35.5706C62.3095 34.3145 67.3584 36.2029 71.3343 41.2361C70.9588 40.4822 70.8231 39.6085 70.9273 38.6148C75.9919 40.7628 78.5005 43.363 78.4531 46.4153C78.4568 46.6235 78.4392 46.8278 78.4002 47.0283C78.3608 47.2317 78.3432 47.3955 78.3474 47.5198C78.3553 47.6445 78.4522 47.6815 78.638 47.6308C78.6944 47.5639 78.7649 47.4406 78.8494 47.2609C78.9446 47.0565 79.0309 46.8381 79.1084 46.6055C79.126 46.5421 79.1419 46.4787 79.156 46.4153C79.4058 45.7785 79.8286 45.25 80.4243 44.8298C80.6345 44.7075 80.8159 44.7533 80.9687 44.9672C81.362 45.5208 81.5082 46.4967 81.4073 47.8951C81.4385 48.0996 81.5248 48.1789 81.6663 48.1329C81.8111 48.087 82.1264 47.5779 82.6123 46.6055C83.1254 46.9601 83.4337 47.7211 83.5372 48.8886C83.4863 48.1376 83.3647 47.3342 83.1725 46.4787C83.0514 45.938 82.9017 45.376 82.7233 44.7928C82.5542 44.1974 82.3533 43.6072 82.1208 43.0224C81.8988 42.4622 81.6663 41.9108 81.4232 41.3682C81.1801 40.8327 80.9123 40.3024 80.6199 39.7774C80.3169 39.2349 79.9927 38.7028 79.6475 38.1814C79.3057 37.6599 78.934 37.1579 78.5323 36.6752C78.1448 36.2101 77.7414 35.7591 77.3221 35.3223C76.8923 34.8818 76.4589 34.4538 76.022 34.038C75.5816 33.6258 75.12 33.2365 74.6373 32.87C74.2533 32.5811 73.864 32.294 73.4694 32.0086C71.7216 30.8313 69.7662 29.8571 67.6031 29.086Z" fill="#595247"/>
<path d="M86.6447 43.2127C86.9713 43.5918 87.2126 44.0833 87.3687 44.6872C88.6841 39.7398 88.2367 36.0456 86.0263 33.6048C83.3983 31.0895 80.6784 30.0044 77.8664 30.3492C77.249 30.4261 76.6271 30.5705 76.0008 30.7826C75.9709 30.795 75.9409 30.8055 75.911 30.8143C75.8925 30.8226 75.8731 30.8296 75.8529 30.8355C75.2637 31.0472 74.6701 31.3185 74.0718 31.6493L77.1477 34.091C77.2322 34.1685 77.315 34.246 77.3961 34.3235C77.847 34.7604 78.2663 35.2149 78.6539 35.687C79.0308 36.1486 79.3832 36.6207 79.7108 37.1034C80.0456 37.5896 80.3715 38.0846 80.6886 38.5884C81.0021 39.0887 81.3016 39.5943 81.587 40.1052C81.8759 40.6231 82.1595 41.1446 82.4379 41.6695C82.7127 42.1875 82.9822 42.716 83.2465 43.255C84.2309 43.6469 84.7277 44.5717 84.7368 46.0296C85.2629 44.9084 85.617 43.7546 85.7991 42.568C85.9994 41.2717 85.9941 39.9364 85.7832 38.562C86.3987 39.8949 86.6859 41.4451 86.6447 43.2127Z" fill="#B48C6E"/>
<path d="M29.6967 108V93.2H33.2167C36.6567 93.2 39.1367 94.3 39.1367 100.56C39.1367 106.88 36.5967 108 33.2167 108H29.6967ZM33.1367 105.14H33.6367C35.2967 105.14 35.6567 104.16 35.6567 100.56C35.6567 97 35.2967 96.12 33.6167 96.12H33.1367V105.14ZM44.9035 108.14C42.5435 108.14 40.7035 106.48 40.7035 102.62C40.7035 98.7 42.5235 97.14 44.9035 97.14C47.2435 97.14 49.1035 98.7 49.1035 102.62C49.1035 106.48 47.2435 108.14 44.9035 108.14ZM44.9035 105.74C45.5835 105.74 45.8235 105.12 45.8235 102.62C45.8235 100.3 45.6235 99.64 44.9035 99.64C44.2235 99.64 43.9635 100.14 43.9635 102.62C43.9635 104.92 44.1835 105.74 44.9035 105.74ZM53.4103 108.12C51.6903 108.12 50.6103 106.58 50.6103 102.66C50.6103 98.74 51.7103 97.14 53.4103 97.14C54.4303 97.14 55.1703 97.76 55.6103 98.4V93.2H58.8903V105.4C58.8903 106.68 58.9503 107.46 59.1303 108H55.7703C55.6903 107.68 55.6103 106.9 55.6103 106.84C55.1903 107.48 54.4503 108.12 53.4103 108.12ZM54.7703 105.44C55.1503 105.44 55.3503 105.26 55.6103 105.06V100.36C55.4303 100.2 55.1303 99.96 54.7703 99.96C54.1103 99.96 53.9303 100.48 53.9303 102.64C53.9303 104.86 54.1303 105.44 54.7703 105.44ZM64.9699 108.14C62.6099 108.14 60.7699 106.48 60.7699 102.62C60.7699 98.7 62.5899 97.14 64.9699 97.14C67.3099 97.14 69.1699 98.7 69.1699 102.62C69.1699 106.48 67.3099 108.14 64.9699 108.14ZM64.9699 105.74C65.6499 105.74 65.8899 105.12 65.8899 102.62C65.8899 100.3 65.6899 99.64 64.9699 99.64C64.2899 99.64 64.0299 100.14 64.0299 102.62C64.0299 104.92 64.2499 105.74 64.9699 105.74Z" fill="#3A2E27"/>
<defs>
<linearGradient id="paint0_linear_1808_3326" x1="13.6059" y1="18.9404" x2="22.1172" y2="18.1133" gradientUnits="userSpaceOnUse">
<stop stop-color="#CE5A06"/>
<stop offset="1" stop-color="#E39107"/>
</linearGradient>
</defs>
</svg>
