<svg width="96" height="112" viewBox="0 0 96 112" fill="none" xmlns="http://www.w3.org/2000/svg">
<path d="M42.0697 89.1233C42.0598 89.2292 42.0532 89.3383 42.0499 89.4508C42.1127 89.7022 42.427 89.8758 42.9926 89.9718C43.555 90.0644 43.9982 89.9288 44.3224 89.5649C44.3092 89.3896 44.2943 89.2209 44.2777 89.0588C44.2777 89.0522 44.2777 89.0456 44.2777 89.039C44.1289 87.6331 43.7882 86.7235 43.2556 86.31C42.5742 86.5978 42.1789 87.5355 42.0697 89.1233ZM39.5293 88.8256C39.5095 89.0208 39.4962 89.2242 39.4896 89.4359C39.8998 89.7468 40.2752 89.8891 40.6159 89.8626C40.9567 89.8361 41.2544 89.6889 41.5091 89.421C41.5157 89.3052 41.5206 89.1928 41.5239 89.0836C41.5405 87.7737 41.1419 86.8028 40.3282 86.171C39.8948 86.7433 39.6285 87.6282 39.5293 88.8256ZM37.624 84.6527C37.4156 84.6461 37.1841 84.8694 36.9293 85.3226C36.8268 85.8518 36.802 86.3282 36.8549 86.7516C36.8549 86.7648 36.8566 86.7797 36.8599 86.7962C36.8731 86.8988 36.8913 86.998 36.9145 87.0939C37.3709 87.3619 37.7563 87.514 38.0706 87.5504C38.3848 87.5736 38.6097 87.4611 38.7454 87.213C38.7917 87.1303 38.8115 87.0046 38.8049 86.8359C38.7884 86.4952 38.666 85.9759 38.4377 85.2779C38.2856 84.9968 38.0143 84.7884 37.624 84.6527ZM34.1408 85.7294C34.1177 85.4516 34.0614 85.1737 33.9721 84.8959C33.7803 84.7338 33.5702 84.7288 33.342 84.881C33.2527 84.9339 33.1716 84.9901 33.0989 85.0497C32.7548 85.3275 32.5564 85.6881 32.5034 86.1313C32.5001 86.1446 32.4985 86.1595 32.4985 86.176C32.4819 86.3546 32.4886 86.5481 32.5183 86.7565C32.5415 86.9749 32.7102 87.1353 33.0244 87.2378H33.6347C33.8497 87.2544 34.0002 87.0939 34.0863 86.7565C34.0929 86.7268 34.0995 86.6953 34.1061 86.6623C34.116 86.6027 34.1243 86.5415 34.1309 86.4787C34.1607 86.2273 34.164 85.9775 34.1408 85.7294ZM35.1481 84.7073C34.7611 84.9852 34.5576 85.3193 34.5378 85.7096C34.5014 86.0768 34.5047 86.4158 34.5477 86.7268C34.5742 86.9285 34.6188 87.1187 34.6817 87.2974C34.9033 87.4628 35.1944 87.5041 35.5549 87.4214C35.9122 87.3387 36.1652 87.218 36.3141 87.0592C36.3372 86.9798 36.3538 86.8905 36.3637 86.7913C36.4001 86.4969 36.3869 86.1214 36.324 85.6649C36.2876 85.354 36.1685 85.101 35.9668 84.9058C35.7584 84.7073 35.4855 84.6412 35.1481 84.7073ZM56.9154 87.9126C56.7797 87.2047 56.5895 86.6143 56.3448 86.1413C56.0007 85.4797 55.5476 85.0447 54.9852 84.8363C54.7405 85.6534 54.5949 86.4886 54.5486 87.342C54.542 87.471 54.5469 87.5818 54.5635 87.6745C54.5933 87.863 54.6627 87.9854 54.7719 88.0416C55.5029 88.3956 56.1016 88.4965 56.568 88.3443C56.7334 88.298 56.8492 88.1541 56.9154 87.9126ZM51.6559 88.0019C51.8676 88.4287 52.3092 88.642 52.9807 88.642C53.1626 88.642 53.3627 88.6271 53.581 88.5974C53.7994 88.5279 53.9118 88.4468 53.9185 88.3542C53.9284 88.1326 53.9284 87.9176 53.9185 87.7092C53.9151 87.6067 53.9085 87.5074 53.8986 87.4115C53.8953 87.4049 53.8936 87.3983 53.8936 87.3916C53.7878 86.4456 53.4421 85.5756 52.8566 84.7817C52.0396 85.4632 51.6377 86.4754 51.6509 87.8184C51.6509 87.8779 51.6526 87.9391 51.6559 88.0019ZM46.6197 88.7859C46.5965 88.6933 46.5734 88.6023 46.5502 88.513C46.2724 87.4843 45.8605 86.6308 45.3147 85.9527C44.8318 86.8855 44.63 87.8961 44.7094 88.9844C44.716 89.0571 44.7226 89.1299 44.7293 89.2027C45.027 89.3912 45.2949 89.5004 45.5331 89.5302C45.7712 89.5566 45.9697 89.5235 46.1285 89.4309C46.3468 89.3085 46.5105 89.0935 46.6197 88.7859ZM48.7483 87.7836C48.7417 87.863 48.7351 87.9441 48.7284 88.0267C48.9434 88.6321 49.5637 88.8521 50.5891 88.6867C50.814 88.6106 50.9348 88.5213 50.9513 88.4187C50.9811 88.2269 51.0026 88.0367 51.0158 87.8481C51.1051 86.6143 50.8603 85.4896 50.2815 84.4741C49.4744 85.1522 48.9782 86.133 48.7929 87.4164C48.7764 87.5355 48.7615 87.6579 48.7483 87.7836Z" fill="#24181F"/>
<path d="M72.8327 77.9247C72.4259 77.5377 71.9694 77.2086 71.4633 76.9373C70.9704 76.6727 70.4561 76.4511 69.9202 76.2724C69.3744 76.0971 68.8269 75.935 68.2778 75.7862C68.6186 76.1004 68.9146 76.4362 69.166 76.7934L69.0469 76.8827C68.1439 76.8927 67.259 77.1656 66.3924 77.7014C66.9349 77.6882 67.4558 77.708 67.9553 77.761C68.5474 77.8304 69.1098 77.9512 69.6423 78.1232C70.1881 78.2886 70.7124 78.4986 71.2152 78.7533C71.7312 79.0047 72.2026 79.3206 72.6293 79.701C73.0891 80.1211 73.2595 80.6338 73.1404 81.2392C73.0048 81.9404 72.5913 82.1819 71.8999 81.9636C71.6684 81.8412 71.4352 81.6113 71.2003 81.2739C71.2863 81.737 71.3922 82.0446 71.5179 82.1968C71.8453 82.7889 72.4226 83.1114 73.2495 83.1643C73.2528 83.1643 73.2561 83.1643 73.2595 83.1643C73.2727 83.1643 73.2859 83.1643 73.2992 83.1643C73.7523 83.0982 74.0864 82.8468 74.3014 82.4101C74.5164 81.9702 74.571 81.4542 74.4652 80.8621C74.3593 80.2667 74.1625 79.7258 73.8747 79.2396C73.5869 78.75 73.2396 78.3117 72.8327 77.9247ZM40.0354 35.8985C39.5029 35.4883 38.8479 35.0103 38.0706 34.4645C37.7266 34.1933 37.3577 33.9336 36.9641 33.6855C36.7888 34.1553 36.6383 34.6316 36.5126 35.1145C36.6383 35.1774 36.764 35.2419 36.8897 35.308C37.8721 35.8075 38.8264 36.4426 39.7526 37.2134C40.6755 37.9841 41.524 38.7796 42.298 39.6C43.072 40.417 43.9321 41.1464 44.8781 41.7881C45.8209 42.4265 46.8744 42.534 48.0388 42.1106C49.1998 41.6872 50.1227 41.0885 50.8074 40.3145C51.4889 39.5404 52.3142 38.7052 53.2834 37.8088C54.2526 36.9124 55.1291 36.0159 55.9131 35.1195C55.7709 34.8317 55.6171 34.5572 55.4517 34.2958C55.3756 34.3521 55.3012 34.4083 55.2284 34.4645C54.451 35.0103 53.7961 35.4883 53.2635 35.8985C52.7343 36.3087 52.1074 36.8363 51.383 37.4813C50.6619 38.123 49.787 38.7482 48.7582 39.3569C48.5531 39.4759 48.3629 39.5834 48.1876 39.6794C48.1479 39.7025 48.1082 39.724 48.0685 39.7439C48.0586 39.7488 48.0487 39.7538 48.0388 39.7588C47.2317 40.1689 46.3799 40.164 45.4835 39.7439C45.4603 39.7339 45.4371 39.724 45.414 39.7141C45.3941 39.7042 45.3743 39.6943 45.3544 39.6843C45.1593 39.5851 44.9459 39.4743 44.7144 39.3519C43.5699 38.7466 42.6371 38.123 41.9159 37.4813C41.1915 36.8363 40.5647 36.3087 40.0354 35.8985Z" fill="#F0CBBB"/>
<path d="M55.7444 67.614C55.708 67.088 55.5492 66.7903 55.2681 66.7208C53.8093 74.6828 53.7018 80.0597 54.9455 82.8516C55.5575 82.1867 56.1678 81.4772 56.7764 80.723C59.0655 79.4528 61.0965 78.6059 62.8695 78.1825C64.1298 77.8881 65.3041 77.7277 66.3924 77.7013C67.259 77.1654 68.1439 76.8925 69.0469 76.8826L69.166 76.7932C68.9146 76.436 68.6185 76.1003 68.2778 75.786C68.2216 75.7331 68.1654 75.6818 68.1091 75.6322C65.2975 74.7986 62.5883 75.0219 59.9817 76.302C60.898 74.9061 61.8093 73.4093 62.7157 71.8116C61.7266 72.3078 60.5904 73.143 59.307 74.3173C59.5782 73.5267 59.5782 72.8933 59.307 72.417C58.9861 73.1745 58.6239 73.7566 58.2203 74.1635C56.5862 72.9032 55.7609 70.72 55.7444 67.614ZM45.667 67.733C45.7431 68.5567 45.7679 69.4316 45.7415 70.3578C45.6885 75.5478 45.8688 80.0763 46.2823 83.9432C46.6792 84.1019 47.0696 84.0854 47.4533 83.8935C47.1556 80.3872 47.5525 74.8317 48.6441 67.2269C48.7599 65.9468 48.8376 64.7213 48.8773 63.5503C47.9147 63.9208 46.9306 63.9191 45.9251 63.5453C45.7762 64.885 45.6902 66.2809 45.667 67.733ZM38.7305 68.5319V68.5269C37.9068 64.5112 36.5241 60.9718 34.5824 57.9087C36.1173 61.4647 37.3048 65.2671 38.145 69.3159C37.3048 70.5265 36.5192 72.0184 35.7882 73.7914C34.733 76.2557 33.5587 77.0116 32.2653 76.0589C31.7824 77.038 31.2399 77.8071 30.6378 78.3661C30.4361 81.1679 31.1423 83.2386 32.7565 84.5783C32.8557 84.3037 32.9748 84.0358 33.1138 83.7745C33.2428 83.8042 33.3718 83.834 33.5008 83.8638C34.0267 83.9498 34.5593 84.0159 35.0985 84.0622C35.6079 84.0986 36.7788 83.9878 38.6114 83.7298C38.0689 83.796 38.0755 83.748 38.6312 83.5859C38.929 83.5495 39.1886 83.5594 39.4102 83.6157C39.8667 78.0056 39.6401 72.9776 38.7305 68.5319ZM18.1143 62.2106C18.197 62.4157 18.2847 62.6191 18.3773 62.8209C19.9915 66.3537 22.7999 68.9652 26.8024 70.6555L27.1944 72.0696L30.35 64.3194L28.4596 67.9811L28.4497 68.001L28.2562 67.8968C24.3463 62.8457 23.4846 56.665 25.6711 49.3546C21.5297 52.4012 19.0107 56.6865 18.1143 62.2106ZM31.1142 5.12045C30.6246 5.75555 30.2839 6.64536 30.092 7.78988C30.833 11.0779 32.2206 14.6371 34.255 18.4676C34.5626 17.7763 34.9231 17.1263 35.3366 16.5176C33.6099 14.609 32.2024 10.8099 31.1142 5.12045ZM37.0981 4.22733C36.9294 4.16117 36.7574 4.09832 36.582 4.03878C35.5169 3.68815 34.3095 3.49464 32.9599 3.45825C33.3337 3.72288 33.6943 3.98916 34.0416 4.2571C37.2866 6.76775 39.3573 9.43057 40.2537 12.2456C41.0906 11.8221 41.9887 11.4715 42.948 11.1937C41.4363 8.5143 39.6798 6.27819 37.6786 4.48534C37.49 4.39272 37.2965 4.30672 37.0981 4.22733ZM50.351 11.1937C51.3102 11.4715 52.2083 11.8221 53.0452 12.2456C53.9879 9.28503 56.2323 6.4932 59.7783 3.87008C58.0185 4.27033 56.0272 5.08406 53.8043 6.31127C52.5374 7.73034 51.3863 9.3578 50.351 11.1937ZM63.3756 7.01088C63.2334 5.98214 62.8761 5.1436 62.3039 4.49526C61.2023 10.5321 59.7552 14.5395 57.9623 16.5176C58.3758 17.1263 58.7363 17.7763 59.044 18.4676C61.2404 14.3328 62.6843 10.5139 63.3756 7.01088Z" fill="#D64D1B"/>
<path d="M55.4516 34.2957C55.617 34.557 55.7708 34.8315 55.9131 35.1193L56.4092 34.3651C56.31 34.1865 56.2091 34.0095 56.1066 33.8342C55.8783 33.9831 55.66 34.1369 55.4516 34.2957ZM18.1143 62.2106C18.0713 62.4653 18.0333 62.7233 18.0002 62.9846C17.9704 70.07 21.662 76.6758 29.0749 82.802C30.269 83.6256 31.4962 84.2177 32.7565 84.5783C31.1423 83.2386 30.436 81.1679 30.6378 78.3661C30.135 77.7806 29.657 77.124 29.2039 76.3963C28.7507 75.6653 28.3604 74.9475 28.0329 74.2429C27.7021 73.5383 27.492 73.0322 27.4027 72.7246C27.3134 72.417 27.244 72.1987 27.1943 72.0696L26.8024 70.6555C22.7999 68.9652 19.9915 66.3537 18.3773 62.8209C18.2847 62.6191 18.197 62.4157 18.1143 62.2106Z" fill="#D15716"/>
<path d="M38.7304 68.527V68.5319C39.6401 72.9777 39.8667 78.0056 39.4102 83.6157C39.1886 83.5595 38.9289 83.5496 38.6312 83.586C38.0755 83.748 38.0689 83.796 38.6114 83.7298C36.7788 83.9879 35.6078 84.0987 35.0984 84.0623C34.5593 84.016 34.0267 83.9498 33.5007 83.8638C33.3717 83.834 33.2427 83.8043 33.1137 83.7745C32.9748 84.0358 32.8557 84.3038 32.7565 84.5783L33.0988 85.0497C33.1716 84.9901 33.2526 84.9339 33.342 84.881C33.5702 84.7288 33.7802 84.7338 33.9721 84.8959C34.0614 85.1737 34.1177 85.4516 34.1408 85.7294L34.5377 85.7096C34.5576 85.3193 34.761 84.9852 35.148 84.7073C35.4854 84.6412 35.7583 84.7073 35.9667 84.9058C36.1685 85.1009 36.2876 85.354 36.324 85.6649C36.3868 86.1214 36.4001 86.4969 36.3637 86.7913L36.8549 86.7516C36.802 86.3282 36.8268 85.8518 36.9293 85.3226C37.184 84.8694 37.4156 84.6461 37.624 84.6527C38.0143 84.7884 38.2855 84.9968 38.4377 85.2779C38.6659 85.9759 38.7883 86.4952 38.8049 86.8359L39.1175 86.8458C39.0612 87.6761 39.0563 88.2351 39.1026 88.5229C39.2779 88.7247 39.4201 88.8256 39.5293 88.8256C39.6285 87.6281 39.8948 86.7433 40.3281 86.171C41.1419 86.8028 41.5405 87.7737 41.5239 89.0836L42.0697 89.1233C42.1789 87.5355 42.5742 86.5978 43.2556 86.31C43.7881 86.7234 44.1289 87.6331 44.2777 89.0389L44.7094 88.9844C44.63 87.8961 44.8318 86.8855 45.3147 85.9527C45.8605 86.6308 46.2723 87.4843 46.5502 88.513L46.8231 88.3989C47.0216 88.3195 47.01 87.8117 46.7884 86.8756C46.7288 86.6209 46.6759 86.386 46.6296 86.171C47.0431 86.2901 47.4334 86.2686 47.8006 86.1065C47.9263 86.5994 48.0784 87.0129 48.257 87.347L48.7929 87.4164C48.9782 86.133 49.4743 85.1522 50.2815 84.4741C50.8603 85.4896 51.1051 86.6143 51.0158 87.8481C51.2275 87.9407 51.4392 87.9308 51.6509 87.8183C51.6377 86.4754 52.0396 85.4632 52.8566 84.7817C53.4421 85.5756 53.7878 86.4456 53.8936 87.3916C53.8936 87.3982 53.8953 87.4049 53.8986 87.4115C53.9085 87.5074 53.9151 87.6066 53.9184 87.7092C54.1334 87.8051 54.3484 87.7935 54.5635 87.6745C54.5469 87.5818 54.542 87.471 54.5486 87.342C54.5949 86.4886 54.7404 85.6534 54.9852 84.8363C55.5475 85.0447 56.0007 85.4797 56.3447 86.1413C56.3877 85.6252 56.0867 84.8231 55.4417 83.7348C55.2564 83.4768 55.0911 83.1824 54.9455 82.8516C53.7018 80.0598 53.8093 74.6829 55.268 66.7209C55.397 65.9965 55.5393 65.2522 55.6947 64.4881C55.268 62.553 54.8413 61.0893 54.4146 60.0969C51.3383 62.429 49.4148 64.8056 48.6441 67.227C47.5525 74.8317 47.1555 80.3873 47.4532 83.8936C47.0695 84.0854 46.6792 84.102 46.2823 83.9432C45.8688 80.0763 45.6885 75.5479 45.7414 70.3579C45.7679 69.4317 45.7431 68.5567 45.667 67.7331C45.3693 64.4881 44.2744 62.0502 42.3823 60.4194C40.3579 61.9146 39.1406 64.6171 38.7304 68.527Z" fill="#362331"/>
<path d="M36.1057 41.0685C35.9172 39.3352 35.98 37.6697 36.2943 36.072C33.9291 41.8574 30.3881 46.285 25.6711 49.3547C23.4846 56.665 24.3463 62.8457 28.2562 67.8968L28.4596 67.9812L30.35 64.3194L27.1944 72.0697C27.244 72.1987 27.3135 72.417 27.4028 72.7246C27.4921 73.0323 27.7021 73.5384 28.0329 74.2429C28.3604 74.9475 28.7507 75.6653 29.2039 76.3963C29.6571 77.1241 30.135 77.7807 30.6378 78.3662C31.2399 77.8071 31.7824 77.0381 32.2653 76.0589C33.5587 77.0116 34.733 76.2558 35.7882 73.7914C36.5192 72.0184 37.3048 70.5266 38.145 69.3159C37.3048 65.2671 36.1173 61.4647 34.5824 57.9088C36.5242 60.9718 37.9068 64.5112 38.7305 68.527C39.1407 64.6171 40.3579 61.9146 42.3823 60.4194C44.2744 62.0502 45.3693 64.4881 45.667 67.7331C45.6902 66.2809 45.7762 64.885 45.9251 63.5453C46.9306 63.9191 47.9147 63.9208 48.8773 63.5503C48.8376 64.7213 48.7599 65.9468 48.6441 67.227C49.4148 64.8056 51.3383 62.4289 54.4146 60.0969C54.8414 61.0893 55.2681 62.553 55.6948 64.4881C55.5393 65.2522 55.3971 65.9965 55.2681 66.7209C55.5492 66.7903 55.708 67.0881 55.7444 67.614C55.7609 70.7201 56.5862 72.9032 58.2203 74.1635C58.6239 73.7567 58.9861 73.1745 59.307 72.417C59.5782 72.8933 59.5782 73.5268 59.307 74.3174C60.5904 73.1431 61.7266 72.3078 62.7157 71.8117C61.8093 73.4093 60.898 74.9062 59.9818 76.3021C62.5883 75.0219 65.2975 74.7986 68.1091 75.6322C67.7023 75.2783 67.2375 74.9492 66.7149 74.6448C68.339 73.9105 69.8987 73.5516 71.3938 73.5681C70.3717 72.1226 69.0866 70.9053 67.5385 69.9163C68.9113 69.4267 70.1865 69.1422 71.3641 69.0628C70.0211 67.3858 68.4052 66.2694 66.5164 65.7136C67.5782 65.3101 68.4317 65.2224 69.0767 65.4507C69.0171 64.9942 68.8121 64.5575 68.4614 64.1408C68.339 63.9952 68.2001 63.853 68.0446 63.714C65.104 62.2817 61.7151 61.4515 57.878 61.2232C57.5273 60.9189 57.1635 60.6229 56.7864 60.3351C57.9309 55.37 58.614 50.1006 58.8356 44.5269C58.7959 40.6633 57.9871 37.2761 56.4093 34.3652L55.9131 35.1194C56.2406 35.7809 56.4986 36.5053 56.6871 37.2926C57.266 39.5486 57.1519 42.4396 56.3448 45.9658C56.0239 44.3747 55.5922 43.2203 55.0498 42.5025C56.0719 45.5192 55.5674 49.1628 53.5364 53.4333C53.3611 52.8279 53.0816 52.3962 52.6979 52.1382C52.9824 54.199 52.3836 56.2763 50.9017 58.3702C51.0009 58.003 50.9613 57.5598 50.7826 57.0405C50.6536 57.4308 50.513 57.798 50.3609 58.142C49.8548 59.2666 49.2114 60.1333 48.4307 60.7419C47.6534 59.5875 46.8099 58.1536 45.9002 56.4401C45.8738 57.0719 45.9813 57.8476 46.2228 58.7672C44.7607 57.7583 43.6873 56.0498 43.0026 53.6416C42.6552 54.376 42.432 55.3336 42.3327 56.5145C41.2841 54.8738 40.6259 53.157 40.3579 51.3642C40.1595 52.0026 40.0338 52.7717 39.9809 53.6714C38.2674 50.7771 37.8886 46.581 38.8446 41.0834C38.1731 41.7119 37.6009 43.2335 37.1278 45.6482C36.6052 44.0737 36.2645 42.5471 36.1057 41.0685ZM53.0452 12.2456C52.2083 11.8222 51.3102 11.4715 50.351 11.1937C49.2064 10.8629 47.9726 10.6975 46.6495 10.6975C45.3263 10.6975 44.0925 10.8629 42.948 11.1937C41.9887 11.4715 41.0906 11.8222 40.2538 12.2456C39.7873 12.4804 39.3424 12.7368 38.919 13.0147C38.8198 13.0775 38.7239 13.1437 38.6312 13.2131C37.9267 13.7027 37.2866 14.2419 36.711 14.8307C36.2016 15.3533 35.7435 15.9156 35.3366 16.5177C34.9232 17.1263 34.5626 17.7763 34.255 18.4676C34.159 18.686 34.0681 18.9076 33.9821 19.1325C33.079 21.4844 31.9428 23.5105 30.5733 25.2107L30.5833 25.3893C30.6296 25.386 30.6759 25.3844 30.7222 25.3844C30.742 25.381 30.7635 25.3794 30.7867 25.3794C31.2663 25.3629 31.741 25.3595 32.2107 25.3695C32.7962 25.4125 33.3767 25.4869 33.9523 25.5927C34.5411 25.6986 35.1084 25.8574 35.6542 26.0691C36.1967 26.2841 36.721 26.5322 37.2271 26.8133C37.7365 27.1044 38.2327 27.4203 38.7156 27.761C39.1985 28.0951 39.6583 28.4524 40.095 28.8328C40.4588 29.147 40.8128 29.4795 41.1568 29.8301C41.5736 30.2568 41.9672 30.6968 42.3377 31.1499C42.6784 31.57 42.9893 32.0083 43.2705 32.4648C43.5682 32.9478 43.8113 33.4555 43.9999 33.9881C43.9867 33.9021 43.9982 33.8194 44.0346 33.74C44.1041 33.6474 44.1769 33.5597 44.2529 33.477C44.2562 33.4704 44.2629 33.4638 44.2728 33.4572C44.2827 33.4439 44.2943 33.4307 44.3075 33.4175C44.893 32.8055 45.6737 32.4929 46.6495 32.4797C47.1258 32.4863 47.5558 32.564 47.9395 32.7129C47.9461 32.7162 47.9528 32.7195 47.9594 32.7228C48.3596 32.8816 48.7103 33.1198 49.0113 33.4373C49.0245 33.4505 49.0377 33.4638 49.051 33.477C49.1237 33.5597 49.1949 33.6474 49.2643 33.74C49.3007 33.8194 49.3123 33.9021 49.2991 33.9881C49.4876 33.4555 49.7307 32.9478 50.0284 32.4648C50.3096 32.0083 50.6206 31.57 50.9613 31.1499C51.3317 30.6968 51.7254 30.2568 52.1421 29.8301C52.4862 29.4795 52.8401 29.147 53.204 28.8328C53.6406 28.4524 54.1004 28.0951 54.5834 27.761C55.0663 27.4203 55.5625 27.1044 56.0719 26.8133C56.578 26.5322 57.1023 26.2841 57.6448 26.0691C58.1906 25.8574 58.7579 25.6986 59.3467 25.5927C59.9222 25.4869 60.5027 25.4125 61.0882 25.3695C61.5579 25.3595 62.0326 25.3629 62.5123 25.3794L62.681 25.3893C62.6909 25.3893 62.7025 25.3893 62.7157 25.3893L62.7256 25.2107C61.3562 23.5138 60.2199 21.4877 59.3169 19.1325C59.2309 18.9076 59.1399 18.686 59.044 18.4676C58.7364 17.7763 58.3758 17.1263 57.9623 16.5177C57.5554 15.9156 57.0973 15.3533 56.5879 14.8307C56.0123 14.2419 55.3723 13.7027 54.6677 13.2131C54.5718 13.147 54.4758 13.0825 54.3799 13.0196C53.9565 12.7385 53.5116 12.4804 53.0452 12.2456ZM53.9979 20.8642C54.6032 20.8642 55.1209 21.1139 55.5509 21.6134C55.9445 22.0699 56.1579 22.6107 56.191 23.2359C56.1943 23.2954 56.1959 23.3566 56.1959 23.4195C56.1959 24.1208 55.9809 24.7211 55.5509 25.2206C55.1209 25.7201 54.6032 25.9698 53.9979 25.9698C53.7266 25.9698 53.4719 25.9202 53.2337 25.821C52.946 25.6953 52.6846 25.4952 52.4498 25.2206C52.0165 24.7211 51.7998 24.1208 51.7998 23.4195C51.7998 22.9895 51.8808 22.5975 52.0429 22.2436C52.0462 22.2336 52.0512 22.2237 52.0578 22.2138C52.0578 22.2072 52.0595 22.2022 52.0628 22.1989C52.162 21.9905 52.291 21.7953 52.4498 21.6134C52.8765 21.1139 53.3925 20.8642 53.9979 20.8642ZM39.3011 20.8642C39.9064 20.8642 40.4225 21.1139 40.8492 21.6134C41.0112 21.7986 41.1436 21.9988 41.2461 22.2138C41.2494 22.2237 41.2544 22.2336 41.261 22.2436C41.4198 22.5975 41.4992 22.9895 41.4992 23.4195C41.4992 24.1208 41.2825 24.7211 40.8492 25.2206C40.6143 25.4952 40.353 25.6953 40.0652 25.821C39.827 25.9202 39.5723 25.9698 39.3011 25.9698C38.6958 25.9698 38.1781 25.7201 37.7481 25.2206C37.318 24.7211 37.103 24.1208 37.103 23.4195C37.103 23.3566 37.1047 23.2954 37.108 23.2359C37.1411 22.6107 37.3544 22.0699 37.7481 21.6134C38.1781 21.1139 38.6958 20.8642 39.3011 20.8642Z" fill="#F4802A"/>
<path d="M44.8781 41.7881C43.932 41.1464 43.072 40.417 42.298 39.5999C41.5239 38.7796 40.6755 37.9841 39.7526 37.2133C38.8264 36.4426 37.8721 35.8075 36.8896 35.308C36.7639 35.2419 36.6382 35.1774 36.5125 35.1145C36.4265 35.4321 36.3538 35.7513 36.2942 36.0721C35.98 37.6698 35.9171 39.3353 36.1057 41.0686C36.2645 42.5472 36.6052 44.0738 37.1278 45.6483C37.6008 43.2336 38.1731 41.712 38.8446 41.0835C37.8886 46.5812 38.2674 50.7772 39.9808 53.6715C40.0338 52.7718 40.1594 52.0027 40.3579 51.3643C40.6259 53.1572 41.2841 54.8739 42.3327 56.5146C42.4319 55.3337 42.6552 54.3761 43.0025 53.6418C43.6873 56.0499 44.7607 57.7584 46.2227 58.7673C45.9813 57.8477 45.8738 57.072 45.9002 56.4402C46.8099 58.1537 47.6534 59.5876 48.4307 60.7421C49.2114 60.1334 49.8547 59.2668 50.3609 58.1421C50.513 57.7981 50.6536 57.4309 50.7826 57.0406C50.9612 57.5599 51.0009 58.0032 50.9017 58.3703C52.3836 56.2765 52.9823 54.1991 52.6978 52.1383C53.0816 52.3964 53.3611 52.828 53.5364 53.4334C55.5674 49.1629 56.0718 45.5193 55.0497 42.5026C55.5922 43.2204 56.0239 44.3748 56.3448 45.9659C57.1519 42.4397 57.266 39.5487 56.6871 37.2927C56.4986 36.5055 56.2405 35.781 55.9131 35.1195C55.1291 36.0159 54.2525 36.9123 53.2833 37.8087C52.3141 38.7052 51.4888 39.5404 50.8074 40.3144C50.1227 41.0885 49.1998 41.6872 48.0387 42.1106C46.8744 42.534 45.8208 42.4265 44.8781 41.7881ZM53.2039 28.8329C52.8401 29.1471 52.4861 29.4796 52.1421 29.8302C51.7253 30.2569 51.3317 30.6969 50.9612 31.15C50.6205 31.5701 50.3096 32.0084 50.0284 32.4649C49.7307 32.9479 49.4876 33.4556 49.299 33.9882C49.2759 34.1668 49.1055 34.4116 48.788 34.7225C48.4704 35.0335 48.1165 35.308 47.7262 35.5462C47.3325 35.7843 47.0249 35.9084 46.8033 35.9183V37.2332C47.574 37.2497 48.4373 37.0678 49.3933 36.6874C48.6689 37.3258 47.8237 37.6731 46.8578 37.7294C46.8446 37.7294 46.833 37.7294 46.8231 37.7294C46.7636 37.7327 46.7057 37.7343 46.6494 37.7343C46.5932 37.7343 46.537 37.7327 46.4807 37.7294C46.4675 37.7294 46.4559 37.7294 46.446 37.7294C45.4768 37.6731 44.63 37.3258 43.9056 36.6874C44.8616 37.0678 45.7249 37.2497 46.4956 37.2332V35.9183C46.2806 35.8985 45.9862 35.8009 45.6124 35.6256C45.2353 35.4503 44.8781 35.1807 44.5407 34.8168C44.2033 34.4496 44.023 34.1734 43.9999 33.9882C43.8113 33.4556 43.5682 32.9479 43.2705 32.4649C42.9893 32.0084 42.6784 31.5701 42.3377 31.15C41.9672 30.6969 41.5736 30.2569 41.1568 29.8302C40.8127 29.4796 40.4588 29.1471 40.0949 28.8329C39.6583 28.4525 39.1985 28.0953 38.7156 27.7612C38.2326 27.4205 37.7365 27.1046 37.227 26.8135C36.7209 26.5323 36.1966 26.2842 35.6542 26.0692C35.1084 25.8575 34.5411 25.6987 33.9523 25.5929C33.3767 25.487 32.7962 25.4126 32.2107 25.3696C31.741 25.3597 31.2663 25.363 30.7867 25.3795C30.7635 25.3795 30.742 25.3812 30.7222 25.3845C30.6758 25.3845 30.6295 25.3861 30.5832 25.3894C30.57 25.3894 30.5584 25.3911 30.5485 25.3944L30.4195 25.3994C28.9442 26.4182 27.9369 27.9481 27.3978 29.989L27.4325 30.0634C28.19 29.2265 29.3974 28.6559 31.0546 28.3516C29.7281 29.2381 29.1129 30.4769 29.2088 32.068C29.9498 31.5023 30.6163 31.2559 31.2084 31.3287C33.514 31.9406 35.4325 32.7262 36.9641 33.6855C37.3577 33.9336 37.7265 34.1933 38.0705 34.4645C38.8479 35.0103 39.5028 35.4883 40.0354 35.8985C40.5647 36.3086 41.1915 36.8362 41.9159 37.4813C42.637 38.123 43.5698 38.7465 44.7144 39.3519C44.9459 39.4743 45.1593 39.5851 45.3544 39.6843C45.3743 39.6942 45.3941 39.7041 45.414 39.7141C45.4371 39.724 45.4603 39.7339 45.4834 39.7438C46.3799 40.1639 47.2316 40.1689 48.0387 39.7587C48.0487 39.7538 48.0586 39.7488 48.0685 39.7438C48.1082 39.724 48.1479 39.7025 48.1876 39.6793C48.3629 39.5834 48.5531 39.4759 48.7582 39.3568C49.7869 38.7482 50.6619 38.123 51.383 37.4813C52.1074 36.8362 52.7342 36.3086 53.2635 35.8985C53.7961 35.4883 54.451 35.0103 55.2284 34.4645C55.3011 34.4083 55.3756 34.352 55.4516 34.2958C55.66 34.137 55.8783 33.9832 56.1066 33.8344C56.1827 33.7848 56.2587 33.7351 56.3348 33.6855C57.8664 32.7262 59.7849 31.9406 62.0905 31.3287C62.6826 31.2559 63.3491 31.5023 64.0901 32.068C64.186 30.4769 63.5707 29.2381 62.2443 28.3516C63.584 28.5997 64.7913 29.1703 65.8664 30.0634L65.9011 29.989C65.3619 27.9481 64.3547 26.4182 62.8794 25.3994C62.8232 25.396 62.7686 25.3927 62.7157 25.3894C62.7024 25.3894 62.6909 25.3894 62.6809 25.3894L62.5122 25.3795C62.0326 25.363 61.5579 25.3597 61.0882 25.3696C60.5027 25.4126 59.9222 25.487 59.3466 25.5929C58.7578 25.6987 58.1905 25.8575 57.6447 26.0692C57.1022 26.2842 56.578 26.5323 56.0719 26.8135C55.5624 27.1046 55.0663 27.4205 54.5833 27.7612C54.1004 28.0953 53.6406 28.4525 53.2039 28.8329ZM40.6407 21.9807C40.5647 21.9476 40.482 21.9311 40.3926 21.9311C40.214 21.9311 40.0602 21.9939 39.9312 22.1196C39.8055 22.2486 39.8154 22.3264 39.961 22.3528C40.1032 22.3793 40.2405 22.4554 40.3728 22.5811C40.5018 22.7035 40.5829 22.8424 40.6159 22.9979C40.6457 23.1533 40.7234 23.1666 40.8491 23.0376C40.9781 22.9119 41.0426 22.7597 41.0426 22.5811C41.0426 22.4918 41.0278 22.4091 40.998 22.333C40.9649 22.2569 40.9153 22.1858 40.8491 22.1196C40.7863 22.0568 40.7168 22.0105 40.6407 21.9807ZM54.5684 21.6135C54.3898 21.6135 54.2377 21.6764 54.112 21.8021C54.0458 21.8682 53.9978 21.9393 53.9681 22.0154C53.935 22.0915 53.9863 22.156 54.1219 22.2089C54.2575 22.2586 54.3915 22.3462 54.5238 22.4719C54.6528 22.5943 54.7371 22.6985 54.7768 22.7845C54.8165 22.8705 54.9009 22.849 55.0299 22.72C55.1556 22.5943 55.2184 22.4421 55.2184 22.2635C55.2184 22.0849 55.1556 21.9311 55.0299 21.8021C54.9009 21.6764 54.7471 21.6135 54.5684 21.6135Z" fill="#F8ECDB"/>
<path d="M44.5407 34.8168C44.8781 35.1806 45.2353 35.4502 45.6124 35.6255C45.9862 35.8008 46.2806 35.8984 46.4956 35.9183V37.2331C45.7249 37.2497 44.8616 37.0677 43.9056 36.6873C44.63 37.3258 45.4768 37.6731 46.446 37.7293C46.4559 37.7293 46.4675 37.7293 46.4807 37.7293C46.537 37.7326 46.5932 37.7343 46.6494 37.7343C46.7057 37.7343 46.7636 37.7326 46.8231 37.7293C46.833 37.7293 46.8446 37.7293 46.8578 37.7293C47.8237 37.6731 48.6689 37.3258 49.3933 36.6873C48.4373 37.0677 47.574 37.2497 46.8033 37.2331V35.9183C47.0249 35.9083 47.3325 35.7843 47.7261 35.5461C48.1165 35.308 48.4704 35.0334 48.788 34.7225C49.1055 34.4115 49.2759 34.1668 49.299 33.9881C49.3123 33.9021 49.3007 33.8194 49.2643 33.74C49.1948 33.6474 49.1237 33.5598 49.0509 33.4771C49.0377 33.4638 49.0245 33.4506 49.0112 33.4374C48.7102 33.1198 48.3596 32.8817 47.9593 32.7229C47.9527 32.7196 47.9461 32.7163 47.9395 32.713C47.5558 32.5641 47.1258 32.4864 46.6494 32.4798C45.6736 32.493 44.893 32.8056 44.3075 33.4175C44.2943 33.4308 44.2827 33.444 44.2728 33.4572C44.2628 33.4638 44.2562 33.4705 44.2529 33.4771C44.1768 33.5598 44.1041 33.6474 44.0346 33.74C43.9982 33.8194 43.9866 33.9021 43.9999 33.9881C44.023 34.1734 44.2033 34.4496 44.5407 34.8168ZM47.8948 32.8668C47.9875 32.8999 48.0817 32.9495 48.1777 33.0156C48.3728 33.1446 48.4704 33.2571 48.4704 33.353C48.4704 33.4258 48.4241 33.4655 48.3315 33.4721C48.2984 33.4754 48.2604 33.4738 48.2174 33.4672C48.0454 33.4473 47.8965 33.4175 47.7708 33.3778C47.6451 33.3381 47.4896 33.3166 47.3044 33.3133C47.1192 33.3067 47.0265 33.2554 47.0265 33.1595C47.0265 33.0636 47.0844 32.9826 47.2002 32.9164C47.3193 32.8502 47.4632 32.8172 47.6319 32.8172C47.7179 32.8172 47.8055 32.8337 47.8948 32.8668ZM48.3761 33.8492C48.4555 33.836 48.5382 33.8294 48.6242 33.8294C47.9527 34.1436 47.4483 34.567 47.1109 35.0996C47.3325 34.3487 47.7543 33.9319 48.3761 33.8492ZM46.188 35.0996C45.8704 34.5869 45.366 34.1635 44.6747 33.8294C45.4322 33.8294 45.9366 34.2528 46.188 35.0996ZM36.582 4.03888L36.6961 3.65683C34.5824 1.97975 32.2173 0.760805 29.6008 0C29.2965 2.4015 29.4602 4.99816 30.092 7.78998C30.2839 6.64547 30.6246 5.75566 31.1141 5.12055C30.919 4.10504 30.7354 3.02999 30.5634 1.8954C31.4135 2.40811 32.2123 2.9291 32.9599 3.45835C34.3095 3.49474 35.5169 3.68825 36.582 4.03888ZM62.3038 4.49536C62.8761 5.1437 63.2333 5.98224 63.3756 7.01098C63.8651 4.51356 63.9726 2.17656 63.6981 0C59.8577 1.11474 56.5597 3.21854 53.8043 6.31137C56.0272 5.08416 58.0185 4.27043 59.7783 3.87018C60.678 3.19869 61.6638 2.54043 62.7355 1.8954C62.5966 2.80175 62.4527 3.6684 62.3038 4.49536Z" fill="#3C1B24"/>
<path d="M44.6747 33.8294C45.366 34.1635 45.8705 34.5869 46.188 35.0996C45.9366 34.2528 45.4322 33.8294 44.6747 33.8294ZM48.6242 33.8294C48.5382 33.8294 48.4555 33.836 48.3762 33.8493C47.7543 33.932 47.3325 34.3487 47.1109 35.0996C47.4483 34.5671 47.9527 34.1437 48.6242 33.8294ZM40.8491 21.6135L40.6407 21.9807C40.7168 22.0105 40.7863 22.0568 40.8491 22.1196C40.9153 22.1858 40.9649 22.2569 40.998 22.333L41.261 22.2437C41.2544 22.2337 41.2494 22.2238 41.2461 22.2139C41.1435 21.9989 41.0112 21.7988 40.8491 21.6135Z" fill="#09010D"/>
<path d="M48.1777 33.0156C48.0818 32.9495 47.9875 32.8998 47.8949 32.8668C47.8055 32.8337 47.7179 32.8171 47.6319 32.8171C47.4632 32.8171 47.3193 32.8502 47.2002 32.9164C47.0844 32.9825 47.0266 33.0636 47.0266 33.1595C47.0266 33.2554 47.1192 33.3067 47.3044 33.3133C47.4896 33.3166 47.6451 33.3381 47.7708 33.3778C47.8965 33.4175 48.0454 33.4473 48.2174 33.4671C48.2604 33.4737 48.2984 33.4754 48.3315 33.4721C48.4241 33.4655 48.4704 33.4258 48.4704 33.353C48.4704 33.2571 48.3728 33.1446 48.1777 33.0156Z" fill="#836678"/>
<path d="M30.5485 25.3943C30.5584 25.391 30.57 25.3893 30.5832 25.3893L30.5733 25.2107C30.5237 25.2735 30.4724 25.3364 30.4195 25.3992L30.5485 25.3943ZM62.7256 25.2107L62.7157 25.3893C62.7686 25.3926 62.8232 25.3959 62.8794 25.3992C62.8265 25.3364 62.7752 25.2735 62.7256 25.2107Z" fill="#F78633"/>
<path d="M38.6312 13.2133C38.7238 13.1438 38.8198 13.0777 38.919 13.0148C38.059 11.4568 36.8764 10.309 35.3713 9.57135C35.3052 10.9607 35.7517 12.7138 36.711 14.8308C37.2866 14.242 37.9266 13.7029 38.6312 13.2133ZM54.6677 13.2133C55.3722 13.7029 56.0123 14.242 56.5879 14.8308C57.4942 12.9354 57.9391 11.1707 57.9226 9.53662C56.4208 10.2974 55.2482 11.4452 54.4047 12.9801L54.6677 13.2133Z" fill="#85647A"/>
<path d="M34.0416 4.25731C33.6943 3.98938 33.3337 3.72309 32.96 3.45847C32.2124 2.92921 31.4135 2.40822 30.5634 1.89551C30.7354 3.0301 30.919 4.10515 31.1142 5.12066C32.2025 10.8102 33.6099 14.6092 35.3366 16.5179C35.7435 15.9158 36.2016 15.3535 36.7111 14.8308C35.7518 12.7138 35.3052 10.9607 35.3714 9.57137C36.8764 10.309 38.059 11.4568 38.919 13.0148C39.3424 12.737 39.7874 12.4806 40.2538 12.2458C39.3573 9.43079 37.2866 6.76797 34.0416 4.25731ZM62.3039 4.49548C62.4527 3.66851 62.5966 2.80186 62.7355 1.89551C61.6638 2.54054 60.6781 3.1988 59.7783 3.87029C56.2323 6.49342 53.9879 9.28524 53.0452 12.2458C53.5116 12.4806 53.9565 12.7386 54.3799 13.0198L54.4047 12.9801C55.2482 11.4453 56.4209 10.2974 57.9226 9.53664C57.9392 11.1707 57.4943 12.9355 56.5879 14.8308C57.0973 15.3535 57.5555 15.9158 57.9623 16.5179C59.7552 14.5398 61.2024 10.5323 62.3039 4.49548Z" fill="#F1CBBB"/>
<path d="M38.3732 25.0372C38.7569 25.3382 39.258 25.4176 39.8766 25.2753C38.8446 24.9677 38.1102 24.3045 37.6736 23.2856C37.753 24.1457 37.9862 24.7295 38.3732 25.0372ZM54.9257 25.0372C55.3127 24.7295 55.5459 24.1457 55.6253 23.2856C55.1886 24.3045 54.4543 24.9677 53.4222 25.2753C54.0408 25.4176 54.542 25.3382 54.9257 25.0372Z" fill="#83627B"/>
<path d="M37.6736 23.2857L37.1079 23.2361C37.1046 23.2956 37.103 23.3568 37.103 23.4197C37.103 24.1209 37.318 24.7213 37.748 25.2208C38.178 25.7203 38.6957 25.97 39.301 25.97C39.5723 25.97 39.827 25.9204 40.0651 25.8212L39.8766 25.2754C39.258 25.4176 38.7569 25.3382 38.3732 25.0372C37.9862 24.7296 37.753 24.1457 37.6736 23.2857ZM53.4222 25.2754L53.2337 25.8212C53.4718 25.9204 53.7266 25.97 53.9978 25.97C54.6031 25.97 55.1208 25.7203 55.5508 25.2208C55.9809 24.7213 56.1959 24.1209 56.1959 23.4197C56.1959 23.3568 56.1942 23.2956 56.1909 23.2361L55.6253 23.2857C55.5459 24.1457 55.3127 24.7296 54.9256 25.0372C54.5419 25.3382 54.0408 25.4176 53.4222 25.2754Z" fill="#150403"/>
<path d="M40.8491 21.6135C40.4224 21.114 39.9064 20.8643 39.3011 20.8643C38.6957 20.8643 38.1781 21.114 37.748 21.6135C37.3544 22.07 37.141 22.6108 37.108 23.236L37.6736 23.2856C38.1103 24.3044 38.8446 24.9676 39.8766 25.2753L40.0652 25.8211C40.353 25.6954 40.6143 25.4952 40.8491 25.2207C41.2825 24.7212 41.4991 24.1208 41.4991 23.4196C41.4991 22.9896 41.4197 22.5976 41.261 22.2436L40.998 22.3329C41.0278 22.409 41.0427 22.4917 41.0427 22.581C41.0427 22.7597 40.9782 22.9118 40.8491 23.0375C40.7235 23.1665 40.6457 23.1533 40.6159 22.9978C40.5829 22.8424 40.5018 22.7034 40.3728 22.581C40.2405 22.4553 40.1032 22.3793 39.961 22.3528C39.8154 22.3263 39.8055 22.2486 39.9312 22.1196C40.0602 21.9939 40.214 21.931 40.3927 21.931C40.482 21.931 40.5647 21.9476 40.6408 21.9807L40.8491 21.6135ZM55.5509 21.6135C55.1209 21.114 54.6032 20.8643 53.9978 20.8643C53.3925 20.8643 52.8765 21.114 52.4498 21.6135C52.291 21.7954 52.162 21.9906 52.0628 22.199C52.0594 22.2023 52.0578 22.2072 52.0578 22.2139C52.0512 22.2238 52.0462 22.2337 52.0429 22.2436C51.8808 22.5976 51.7998 22.9896 51.7998 23.4196C51.7998 24.1208 52.0164 24.7212 52.4498 25.2207C52.6846 25.4952 52.9459 25.6954 53.2337 25.8211L53.4223 25.2753C54.4543 24.9676 55.1887 24.3044 55.6253 23.2856L56.1909 23.236C56.1579 22.6108 55.9445 22.07 55.5509 21.6135ZM54.112 21.802C54.2377 21.6763 54.3898 21.6135 54.5684 21.6135C54.7471 21.6135 54.9009 21.6763 55.0299 21.802C55.1556 21.931 55.2184 22.0849 55.2184 22.2635C55.2184 22.4421 55.1556 22.5943 55.0299 22.72C54.9009 22.849 54.8165 22.8705 54.7768 22.7845C54.7371 22.6985 54.6528 22.5943 54.5238 22.4719C54.3915 22.3462 54.2575 22.2585 54.1219 22.2089C53.9863 22.156 53.935 22.0915 53.9681 22.0154C53.9978 21.9393 54.0458 21.8682 54.112 21.802Z" fill="#0D0114"/>
<path d="M78.4792 79.3833C78.7075 78.6754 78.8365 78.0916 78.8663 77.6318C78.896 77.1687 78.8861 76.7072 78.8365 76.2474C77.8838 71.4511 74.4834 67.3725 68.6351 64.0117L68.4614 64.1407C68.8121 64.5575 69.0171 64.9941 69.0767 65.4506C68.4317 65.2224 67.5782 65.31 66.5164 65.7136C68.4052 66.2693 70.0211 67.3857 71.3641 69.0628C70.1865 69.1422 68.9113 69.4267 67.5385 69.9162C69.0866 70.9053 70.3717 72.1226 71.3938 73.5681C69.8987 73.5516 68.339 73.9104 66.7149 74.6448C67.2375 74.9491 67.7023 75.2782 68.1091 75.6322C68.1654 75.6818 68.2216 75.7331 68.2778 75.786C68.827 75.9349 69.3744 76.0969 69.9202 76.2723C70.4561 76.4509 70.9704 76.6725 71.4633 76.9371C71.9694 77.2084 72.4259 77.5375 72.8327 77.9245C73.2396 78.3115 73.5869 78.7498 73.8747 79.2394C74.1625 79.7257 74.3593 80.2665 74.4652 80.8619C74.571 81.454 74.5164 81.97 74.3014 82.41C74.0864 82.8466 73.7523 83.098 73.2992 83.1642C73.8516 83.2138 74.3957 83.1542 74.9316 82.9855C75.4972 82.8003 76.0083 82.5373 76.4648 82.1966C76.9179 81.8559 77.3099 81.4788 77.6407 81.0653C77.9682 80.6485 78.2477 80.0879 78.4792 79.3833Z" fill="#F6EDDD"/>
<path d="M35.728 108V93.2H43.008V96.12H39.168V99.22H41.968V101.92H39.168V108H35.728ZM47.8295 108.14C45.4695 108.14 43.6295 106.48 43.6295 102.62C43.6295 98.7 45.4495 97.14 47.8295 97.14C50.1695 97.14 52.0295 98.7 52.0295 102.62C52.0295 106.48 50.1695 108.14 47.8295 108.14ZM47.8295 105.74C48.5095 105.74 48.7495 105.12 48.7495 102.62C48.7495 100.3 48.5495 99.64 47.8295 99.64C47.1495 99.64 46.8895 100.14 46.8895 102.62C46.8895 104.92 47.1095 105.74 47.8295 105.74ZM52.6698 108L55.2498 102.5L52.8498 97.3H56.1498L57.1098 99.82L57.9098 97.3H60.8098L58.4098 102.38L60.9898 108H57.6898L56.6098 105.2L55.5698 108H52.6698Z" fill="#3A2E27"/>
</svg>
