<svg width="99" height="112" viewBox="0 0 99 112" fill="none" xmlns="http://www.w3.org/2000/svg">
<path d="M35.8475 28.9011C35.8475 32.1013 36.8197 34.8323 38.7641 37.0941C40.7031 39.3559 43.0461 40.4869 45.793 40.4869C48.5399 40.4869 50.8828 39.3559 52.8218 37.0941C54.7662 34.8323 55.7384 32.1013 55.7384 28.9011C55.7384 25.7064 54.7662 22.9754 52.8218 20.7082C50.8828 18.4463 48.5399 17.3154 45.793 17.3154C43.0461 17.3154 40.7031 18.4463 38.7641 20.7082C36.8197 22.9754 35.8475 25.7064 35.8475 28.9011ZM40.5981 27.1356C41.5299 26.859 42.6529 26.7207 43.9671 26.7207C45.2813 26.7207 46.4016 26.859 47.328 27.1356C48.2598 27.4177 48.7257 27.7567 48.7257 28.1526C48.7257 28.554 48.2598 28.893 47.328 29.1696C46.4016 29.4517 45.2813 29.5927 43.9671 29.5927C42.6529 29.5927 41.5299 29.4517 40.5981 29.1696C39.6717 28.893 39.2085 28.554 39.2085 28.1526C39.2085 27.7567 39.6717 27.4177 40.5981 27.1356Z" fill="#D38839"/>
<path d="M43.9671 26.7207C42.6528 26.7207 41.5298 26.859 40.598 27.1356C39.6716 27.4177 39.2084 27.7567 39.2084 28.1526C39.2084 28.554 39.6716 28.893 40.598 29.1696C41.5298 29.4517 42.6528 29.5927 43.9671 29.5927C45.2813 29.5927 46.4016 29.4517 47.328 29.1696C48.2598 28.893 48.7257 28.554 48.7257 28.1526C48.7257 27.7567 48.2598 27.4177 47.328 27.1356C46.4016 26.859 45.2813 26.7207 43.9671 26.7207Z" fill="#442C11"/>
<path d="M42.8278 81.0765L40.396 82.0773L39.2649 80.7023L38.6267 81.3776C37.9857 82.099 37.4875 83.2326 37.132 84.7784C36.9543 85.5758 36.8439 86.3026 36.8008 86.9589L36.6392 87.1948C36.5153 87.4009 36.4184 87.6098 36.3483 87.8213C36.1167 88.4884 36.1868 89.058 36.5584 89.5299C36.93 90.0072 37.4094 90.1211 37.9965 89.8716C38.2873 89.7468 38.5432 89.5733 38.764 89.3509L39.0549 89.5055C39.2918 89.6139 39.5315 89.6763 39.7739 89.6926C40.5441 89.7577 41.177 89.3644 41.6725 88.5129C42.5935 89.0878 43.3853 89.18 44.0478 88.7895C44.2524 88.6702 44.4356 88.5074 44.5972 88.3013L44.7668 88.0328L45.2192 88.3257C45.6286 88.4939 46.0918 88.5156 46.6089 88.3908C47.5999 88.2173 48.3136 87.5582 48.7498 86.4138C48.8899 86.0504 48.9922 85.6625 49.0568 85.2503L49.1053 84.7377L49.4689 84.9818C49.8782 85.1391 50.4922 85.2178 51.3109 85.2178C51.7741 85.2178 52.1485 85.0957 52.4339 84.8516C52.6871 84.6293 52.8298 84.3472 52.8621 84.0055C52.8891 83.6746 52.7975 83.3736 52.5874 83.1024C52.3612 82.8041 52.0327 82.6115 51.6018 82.5247C50.8585 82.3783 50.0748 81.8793 49.2507 81.0277L48.2328 79.791C47.4572 79.6283 46.8324 79.3408 46.3584 78.9286C45.7444 79.5578 44.5675 80.2738 42.8278 81.0765ZM60.8201 53.5442L61.2402 54.5612L61.1271 54.789C61.0517 54.9843 61.0032 55.1904 60.9817 55.4073C60.9224 56.1179 61.1675 56.8339 61.7169 57.5553C62.2609 58.2767 62.7699 58.5235 63.2438 58.2956C63.4808 58.1817 63.6639 57.9946 63.7932 57.7343L63.9952 58.0109C64.1622 58.2224 64.3372 58.3879 64.5203 58.5072C65.1182 58.8977 65.6891 58.7811 66.2331 58.1573C67.2242 58.8028 67.9782 58.7675 68.4953 58.0516C68.7538 57.6936 68.9127 57.2678 68.9719 56.7742C69.3759 56.3566 69.7422 55.7301 70.0707 54.8948C70.0815 54.8677 70.0923 54.8378 70.103 54.8053C70.7278 53.1672 70.8463 51.3285 70.4585 49.2891C70.4585 49.6904 70.3777 50.1705 70.2161 50.7291C70.1353 51.0112 70.0572 51.2498 69.9818 51.4451L69.5052 50.2491L69.1174 51.4776C68.8211 52.3346 68.5734 52.8635 68.3741 53.0642C68.1748 53.2649 67.1434 53.3761 65.2798 53.3978L62.549 53.3652L62.4278 54.3253L60.8201 53.5442ZM71.5815 86.9589C71.6838 86.308 71.4226 85.291 70.7978 83.9079L69.8203 82.0203C69.8149 82.0149 69.8095 82.0122 69.8041 82.0122C68.8777 81.4101 67.954 80.8135 67.0329 80.2223L62.5733 81.2962L61.0867 79.7992L59.9556 80.6372C59.2177 81.0874 58.4906 81.3938 57.7742 81.5566C57.6234 82.1044 57.3299 82.6522 56.8936 83.2C56.3766 83.8509 55.8029 84.2848 55.1728 84.5018C54.451 84.7567 53.9851 85.2178 53.7751 85.8849C53.565 86.5792 53.8128 87.0565 54.5184 87.3169C55.1755 87.5555 55.8891 87.5447 56.6593 87.2843C57.1549 87.1216 57.75 86.8124 58.4448 86.3568C58.601 87.7942 59.013 88.681 59.6809 89.0173C60.408 89.3753 61.224 88.9278 62.1289 87.6749C62.619 88.3637 63.225 88.6729 63.9467 88.6024C64.5715 88.5427 65.0563 88.2525 65.401 87.7318C65.9557 88.2145 66.4997 88.4668 67.0329 88.4885C67.3723 88.5047 67.8005 88.4125 68.3175 88.2118C69.1632 88.5752 69.8849 88.6512 70.4828 88.4396C71.0968 88.2173 71.463 87.7237 71.5815 86.9589ZM52.5713 59.6625C51.9842 59.4998 51.4294 59.2286 50.907 58.8489L50.301 58.3363C50.0587 58.8136 49.8001 59.1526 49.5254 59.3533C49.1269 59.1255 48.7094 58.6997 48.2732 58.076L47.7399 57.1973C47.9069 58.6455 48.1493 59.6842 48.4671 60.3134C48.8656 61.089 49.4366 61.4063 50.1798 61.2653C50.5784 62.106 51.0524 62.6023 51.6018 62.7542C52.1942 62.9223 52.8487 62.6864 53.565 62.0464C54.5345 62.8437 55.399 63.0037 56.1584 62.5264C56.5408 62.2877 56.8263 61.9677 57.0148 61.5663L57.2895 61.9406C57.5588 62.1792 57.9035 62.2742 58.3236 62.2253C59.1154 62.1494 59.724 61.3277 60.1495 59.7601C60.2788 59.2611 60.3811 58.7214 60.4565 58.1411L60.5373 57.417L58.6791 59.1743C58.5229 58.735 58.3452 58.2143 58.1459 57.6122C56.3146 59.4835 54.4564 60.1669 52.5713 59.6625ZM39.2568 22.2123L39.475 21.9845C39.7712 21.7133 40.1482 21.2414 40.6061 20.5689C40.8323 20.238 41.0289 19.9315 41.1958 19.6495C40.9696 20.5661 40.4741 21.4855 39.7093 22.4076C38.8098 23.5195 38.282 24.7426 38.1258 26.077C37.9696 27.3679 38.1823 28.5205 38.764 29.5348C40.7515 33.1255 43.0567 34.4679 45.6798 33.5621C46.5954 33.2475 47.4922 32.6753 48.3701 31.8454C49.0326 31.2216 49.5362 30.6087 49.8809 30.0067C50.4411 29.052 50.7481 28.0757 50.8019 27.0777C50.8666 25.9224 50.5784 24.8837 49.9375 23.9616C49.3719 23.1371 48.9249 22.2205 48.5963 21.2116L48.2732 19.9505L48.8145 21.114C49.31 22.0361 49.9025 22.847 50.5919 23.5466C50.9527 23.8667 51.2651 24.2274 51.5291 24.6287C51.5398 24.645 51.5506 24.6586 51.5614 24.6694C51.9815 25.2064 52.2697 25.5318 52.4259 25.6457C52.7598 25.9061 53.1907 26.0227 53.7185 25.9956C54.2356 25.9739 54.6422 24.9325 54.9385 22.8714C55.1539 21.3472 55.2616 19.8556 55.2616 18.3965C55.2616 15.9503 54.8469 13.7265 54.0174 11.725C52.5686 8.21565 50.091 6.48539 46.5846 6.53421C43.1375 6.58845 40.8834 9.21639 39.8224 14.418C39.2892 17.0216 39.1006 19.6197 39.2568 22.2123ZM40.9535 27.8262L39.8951 27.2567L40.5657 27.4926C41.142 27.6716 41.7506 27.8181 42.3915 27.932C44.4329 28.29 46.3934 28.2439 48.2732 27.7937C46.7327 28.5368 45.1088 28.7971 43.4014 28.5747C42.6312 28.4717 41.8152 28.2222 40.9535 27.8262Z" fill="#52524D"/>
<path d="M48.3621 68.1727C47.538 66.8384 46.5119 65.5122 45.2839 64.1942L43.7004 62.6158L44.7507 62.9006C45.6017 63.1772 46.3988 63.5406 47.1421 63.9908C46.1834 62.5426 44.4544 61.4117 41.9553 60.5981C39.1599 59.6868 35.737 59.3017 31.6867 59.4428C28.1157 59.5675 25.5411 60.6496 23.963 62.689C23.1766 63.7142 22.7431 64.723 22.6623 65.7156C23.0124 68.8073 24.2108 71.5085 26.2575 73.8191C28.8374 76.7318 32.7774 79.0641 38.0773 80.8161L37.7218 81.4426C37.3448 81.9687 36.8089 82.5192 36.1141 83.0942C37.0297 82.644 37.8295 82.1097 38.5136 81.4914L38.6267 81.3775L39.2649 80.7022L40.396 82.0772L42.8278 81.0765C44.5675 80.2737 45.7444 79.5577 46.3584 78.9286C46.8324 79.3408 47.4572 79.6283 48.2328 79.791C48.3136 79.8072 48.3998 79.8235 48.4913 79.8398C48.9384 79.9157 49.3316 79.9428 49.6709 79.9211L48.8387 78.7252C51.1709 75.9426 51.012 72.4251 48.3621 68.1727ZM79.0224 56.0175C79.0009 55.8331 78.9336 55.627 78.8204 55.3992C78.5888 54.9435 78.2468 54.6181 77.7944 54.4228C76.3186 53.7882 73.9703 54.5422 70.7494 56.6846C70.604 57.4603 70.2431 58.0434 69.6668 58.4339C69.489 58.5532 69.2978 58.6481 69.0931 58.7187L68.8508 58.7837C68.5761 59.657 68.0967 60.0774 67.4127 60.0448C67.2026 60.0394 66.9818 59.9852 66.7502 59.8821L66.4674 59.7438C65.7726 60.3079 65.129 60.4164 64.5365 60.0692C64.348 59.9608 64.1783 59.8143 64.0275 59.6299L63.8579 59.3858C63.2115 59.7818 62.681 59.7818 62.2663 59.3858C62.137 59.261 62.0239 59.1038 61.9269 58.9139L61.83 58.6617C61.5176 59.0143 61.1433 59.5078 60.707 60.1425C59.8183 61.4171 59.0508 62.7731 58.4044 64.2105C56.3469 68.7938 55.8757 73.312 56.9906 77.7651C57.0875 78.3129 57.3057 78.877 57.645 79.4574C57.812 79.7449 57.9682 79.9781 58.1136 80.1571L57.8389 80.6371C57.6127 81.0168 57.3892 81.3558 57.1683 81.6541C57.3676 81.6379 57.5696 81.6053 57.7743 81.5565C58.4906 81.3938 59.2177 81.0873 59.9556 80.6371L61.0867 79.7991L62.5733 81.2961L67.033 80.2222C67.954 80.8134 68.8777 81.41 69.8041 82.0121C69.8095 82.0121 69.8149 82.0148 69.8203 82.0202L72.0905 83.4847C71.455 82.6874 70.7009 81.8874 69.8284 81.0846C73.6202 76.6044 76.2567 71.8475 77.7378 66.814C78.8097 63.1799 79.2379 59.5811 79.0224 56.0175ZM50.907 58.8488C51.4294 59.2285 51.9842 59.4997 52.5713 59.6624C54.4564 60.1669 56.3146 59.4834 58.1459 57.6122C58.3452 58.2142 58.5229 58.7349 58.6791 59.1743L60.5373 57.4169C60.5697 56.9341 60.4808 56.4351 60.2707 55.9199C59.8614 54.873 59.075 54.2493 57.9116 54.0486C56.6297 53.8316 55.1162 53.9265 53.3711 54.3333C51.9115 54.6696 50.6108 55.1361 49.4689 55.7327C48.6502 56.1558 48.117 56.5273 47.8692 56.8474C47.7453 57.0047 47.7023 57.1213 47.74 57.1972L48.2732 58.0759C48.7095 58.6997 49.1269 59.1255 49.5254 59.3533C49.8001 59.1526 50.0587 58.8136 50.301 58.3363L50.907 58.8488ZM76.8653 36.6456C76.3859 35.7778 75.8042 34.8638 75.1202 33.9038C74.113 26.3101 71.3365 20.021 66.7906 15.0363C65.2394 13.3386 63.4781 11.7927 61.5068 10.3988C60.9575 10.0137 59.6783 9.20548 57.6692 7.97422C57.1252 6.67788 56.2688 5.47104 55.1001 4.35369C54.7338 4.00113 54.3595 3.68111 53.9771 3.39364L53.5085 3.06006L53.8559 3.03565C54.1575 3.02481 54.486 3.05464 54.8415 3.12515C55.9618 3.34211 57.1037 3.90078 58.2671 4.80117C57.3514 3.32584 55.8083 2.26544 53.6377 1.61999C52.9591 1.41387 52.2562 1.26471 51.5291 1.1725L50.6565 1.09114L51.6664 0.806383C52.539 0.605694 53.4708 0.480941 54.4618 0.432125C52.749 -0.191638 50.7292 -0.14011 48.4024 0.586709C47.6753 0.814518 46.959 1.09657 46.2534 1.43286L45.4212 1.86407C45.4428 1.58744 45.4913 1.28912 45.5667 0.969103C45.0227 1.1264 44.5729 1.35963 44.2174 1.6688C43.6896 2.12984 43.2695 2.81327 42.9571 3.71908C41.8152 4.32115 40.738 5.53884 39.7254 7.37216C39.4077 7.9471 39.1195 8.54917 38.861 9.17836C38.7263 9.49295 38.624 9.75059 38.554 9.95128C33.3079 11.9961 29.0798 15.6031 25.8697 20.7722C23.3059 24.9107 21.4477 29.9496 20.2951 35.889C19.471 40.1305 19.0401 44.6108 19.0024 49.3297C18.9863 51.6837 19.0509 53.6174 19.1963 55.1307L20.1497 55.1876C20.1981 56.1368 20.4513 57.4115 20.9091 59.0115C21.1353 59.8089 21.3588 60.5113 21.5797 61.1188L22.735 60.6713C23.3975 60.118 24.095 59.4292 24.8275 58.6047C26.2925 56.9558 27.2108 55.4588 27.5825 54.1137C27.5825 54.873 27.5636 55.692 27.5259 56.5707L28.1238 56.8555C28.6516 57.0779 29.2306 57.2786 29.8608 57.4576C31.8752 58.0434 34.0296 58.3064 36.3241 58.2468C43.6654 58.0569 51.0282 54.694 58.4125 48.1581C58.4718 48.9663 58.7626 49.9426 59.2851 51.0871C59.786 52.1827 60.2977 53.0017 60.8201 53.5441L62.4278 54.3252L62.549 53.3651L65.2798 53.3977C67.1434 53.376 68.1748 53.2648 68.3741 53.0641C68.5734 52.8634 68.8212 52.3346 69.1174 51.4776L69.5052 50.249L69.9819 51.445C70.0573 51.2498 70.1354 51.0111 70.2162 50.7291C70.3777 50.1704 70.4585 49.6904 70.4585 49.289C70.8463 51.3284 70.7278 53.1672 70.103 54.8052C70.9917 54.6805 71.5465 54.5964 71.7674 54.553C72.4514 54.4228 73.025 54.2547 73.4882 54.0486C74.1669 53.7448 74.7351 53.5143 75.1929 53.357C75.8769 53.1183 76.5771 52.9312 77.2935 52.7956C77.2181 52.4702 77.008 52.0444 76.6633 51.5183L76.1624 50.8186L78.3357 51.5101L78.8689 51.6484C79.2783 51.7406 79.6257 51.7732 79.9111 51.7461C80.0835 50.325 79.868 48.5215 79.2648 46.3356C79.0763 45.6522 78.8608 44.9715 78.6185 44.2935L78.3034 43.4799L80 44.3179C79.6122 43.8189 79.2163 43.0405 78.8124 41.9828C78.4515 41.0607 78.1741 40.1631 77.9802 39.2898C77.8132 38.5738 77.4416 37.6924 76.8653 36.6456ZM37.1563 16.2974L36.5503 18.844C36.1733 20.84 36.0575 22.5865 36.2029 24.0836C35.0665 25.2063 34.2397 26.9908 33.7226 29.4371C33.4641 30.6575 33.3214 31.7667 33.2944 32.7647C33.4883 32.065 33.8627 31.3762 34.4174 30.6982C34.6975 30.3619 34.956 30.0934 35.193 29.8927C34.9722 30.5924 34.7864 31.8779 34.6356 33.7492C34.5602 34.6875 34.509 35.5581 34.4821 36.3608C34.606 35.8618 34.8806 35.3818 35.3061 34.9208C35.5162 34.693 35.7155 34.514 35.904 34.3838L36.2514 35.1242C36.553 35.71 36.8977 36.2496 37.2855 36.7432C38.5243 38.3216 39.949 39.1108 41.5594 39.1108C43.4876 39.1108 45.5613 38.9589 47.7804 38.6552C49.994 38.3515 51.5479 38.0043 52.442 37.6138C53.4331 37.1799 54.5803 36.8924 55.8837 36.7514C57.3757 36.5941 58.7034 36.6836 59.8668 37.0199C60.944 37.329 61.9916 37.1609 63.0096 36.5154C63.6397 36.1195 64.1783 35.6069 64.6254 34.9777C64.7762 35.1784 64.8812 35.4496 64.9405 35.7913C64.9674 35.9595 64.9809 36.1086 64.9809 36.2388C65.3794 35.4686 65.7672 34.5601 66.1443 33.5132C66.8983 31.4196 67.2242 29.673 67.1218 28.2736C67.3481 28.4255 67.5339 28.8703 67.6793 29.6079C67.7547 29.9768 67.8086 30.3293 67.8409 30.6656C68.0294 30.0364 68.129 29.2472 68.1398 28.298C68.1506 26.405 67.7143 24.6802 66.831 23.1235C67.5527 24.1161 68.0509 25.3799 68.3256 26.9149C68.6703 28.835 68.4684 30.5463 67.7197 32.0487C67.6928 31.7992 67.6254 31.3436 67.5177 30.6819L67.3642 29.7707L67.2511 30.6087C67.1434 31.2975 67.0087 31.9701 66.8472 32.6264C66.3462 34.7472 65.6864 36.331 64.8678 37.3778C65.1694 37.4646 65.5168 37.6572 65.91 37.9555C66.3839 38.3135 66.8041 38.7447 67.1703 39.2491C68.1667 40.6214 68.5492 42.2323 68.3176 44.0819C67.4612 42.433 66.1227 40.9387 64.3022 39.599C62.0401 37.9338 59.6917 37.1121 57.2572 37.1338C56.2284 37.188 55.2589 37.3209 54.3487 37.5324C53.9717 37.6246 53.0183 37.8904 51.4887 38.3298C49.6466 38.8722 47.6699 39.2329 45.5586 39.4118C42.3539 39.6885 39.5127 39.4498 37.0351 38.6959C34.8753 38.045 33.0763 37.8199 31.6382 38.0206C29.4945 38.3189 27.3697 39.5013 25.2638 41.5679C25.8616 40.3855 27.2189 39.1488 29.3357 37.8579C31.2585 36.6809 32.7343 36.0408 33.763 35.9378C33.7146 35.4659 33.7307 34.8448 33.8115 34.0746L33.9489 33.0657L33.1732 34.2617C33.0063 33.242 32.9874 32.0487 33.1167 30.6819C33.386 27.9482 34.2774 25.7081 35.7909 23.9615C35.667 22.6652 35.7963 21.0597 36.1787 19.145L36.8008 16.6554L35.8475 17.3144C35.8798 16.9076 35.9498 16.4601 36.0575 15.9719C36.273 14.9902 36.58 14.3013 36.9785 13.9054C36.623 14.9034 36.3861 15.7604 36.2676 16.4764L37.1563 16.2974ZM39.2569 22.2123C39.1007 19.6196 39.2892 17.0215 39.8224 14.418C40.8835 9.21633 43.1375 6.58839 46.5846 6.53415C50.091 6.48533 52.5686 8.21559 54.0175 11.7249C54.8469 13.7264 55.2616 15.9502 55.2616 18.3965C55.2616 19.8555 55.1539 21.3472 54.9385 22.8713C54.6422 24.9324 54.2356 25.9738 53.7185 25.9955C53.1907 26.0227 52.7598 25.906 52.4259 25.6457C52.2697 25.5318 51.9815 25.2063 51.5614 24.6694C52.267 25.7487 52.6332 27.0776 52.6602 28.656C52.6817 29.7462 52.5686 30.7171 52.3208 31.5687C52.0838 31.1673 51.8657 30.8663 51.6664 30.6656C51.1224 32.64 50.0775 34.1994 48.5317 35.3438C48.047 35.7072 47.5434 36.0056 47.0209 36.2388L46.3746 36.4747L46.8674 35.9052C47.2229 35.4496 47.4733 35.0211 47.6188 34.6197C45.9114 35.2218 44.2013 35.2028 42.4885 34.5628C41.9499 34.3621 41.4463 34.1126 40.9777 33.8143L40.4283 33.4237L40.501 34.0095C40.5818 34.5465 40.6949 35.1892 40.8404 35.9378C39.58 34.6631 38.7155 33.3234 38.247 31.9186C38.1069 31.4792 38.01 31.0589 37.9561 30.6575L37.9319 30.1937C37.7326 30.4324 37.5333 30.6114 37.334 30.7307C36.957 28.6804 37.0593 26.7902 37.641 25.0599C38.0288 23.9154 38.5674 22.9662 39.2569 22.2123ZM56.3604 31.8047C55.6979 32.5694 54.7284 33.3125 53.4519 34.0339C52.0892 34.8096 50.9393 35.2245 50.0021 35.2787L51.0605 34.8069C51.9223 34.3946 52.7302 33.9471 53.4842 33.4644C55.8918 31.9131 57.3084 30.3022 57.7339 28.6316C57.8039 28.9299 57.8254 29.3286 57.7985 29.8276C57.7823 30.0771 57.7608 30.2968 57.7339 30.4866C58.0086 29.9171 58.2698 29.2364 58.5175 28.4445C59.0131 26.8607 59.1854 25.5074 59.0346 24.3846C59.584 24.8836 60.4619 25.3908 61.6684 25.906C62.2717 26.1664 62.821 26.3779 63.3166 26.5406C62.8911 26.519 62.4225 26.4647 61.9108 26.3779C60.8767 26.2098 60.1361 25.963 59.689 25.6376C59.3174 27.7041 58.9619 29.2038 58.6226 30.1368C57.9655 31.9484 57.0148 33.2827 55.7706 34.1397L56.3604 31.8047Z" fill="#9B4C24"/>
<path d="M73.4882 54.0485C73.025 54.2546 72.4514 54.4227 71.7673 54.5529C71.5465 54.5963 70.9917 54.6804 70.103 54.8051C70.0923 54.8377 70.0815 54.8675 70.0707 54.8946C69.7422 55.7299 69.3759 56.3564 68.9719 56.774C68.9127 57.2676 68.7538 57.6934 68.4953 58.0514C67.9782 58.7674 67.2242 58.8026 66.2331 58.1572C65.6891 58.7809 65.1182 58.8975 64.5203 58.507C64.3372 58.3877 64.1622 58.2222 63.9952 58.0107L63.7932 57.7341C63.6639 57.9944 63.4808 58.1816 63.2438 58.2955C62.7699 58.5233 62.2609 58.2765 61.7169 57.5551C61.1675 56.8337 60.9224 56.1177 60.9817 55.4072C61.0032 55.1902 61.0517 54.9841 61.1271 54.7888L61.2402 54.561L60.8201 53.544C60.2976 53.0016 59.786 52.1826 59.2851 51.0869C58.7626 49.9425 58.4717 48.9661 58.4125 48.158C51.0282 54.6939 43.6654 58.0568 36.3241 58.2466C34.0296 58.3063 31.8752 58.0432 29.8608 57.4575C29.2306 57.2785 28.6516 57.0778 28.1238 56.8554L27.5259 56.5706C27.5636 55.6919 27.5825 54.8729 27.5825 54.1135C27.2108 55.4587 26.2925 56.9557 24.8275 58.6046C24.095 59.4291 23.3975 60.1179 22.735 60.6712C22.5195 62.5425 22.4953 64.2239 22.6623 65.7155C22.7431 64.7229 23.1766 63.7141 23.963 62.6889C25.5411 60.6495 28.1157 59.5674 31.6867 59.4426C35.737 59.3016 39.1599 59.6867 41.9553 60.598C44.4544 61.4116 46.1834 62.5425 47.1421 63.9907C46.3988 63.5405 45.6017 63.1771 44.7507 62.9005L43.7004 62.6157L45.2839 64.1941C46.5119 65.5121 47.538 66.8383 48.362 68.1726C51.012 72.425 51.1709 75.9425 48.8387 78.725L56.9906 77.765C55.8756 73.3119 56.3469 68.7937 58.4044 64.2104C59.0508 62.773 59.8183 61.417 60.707 60.1423C61.1433 59.5077 61.5176 59.0142 61.83 58.6616L61.9269 58.9138C62.0239 59.1036 62.137 59.2609 62.2663 59.3857C62.681 59.7816 63.2115 59.7816 63.8578 59.3857L64.0275 59.6298C64.1783 59.8142 64.348 59.9606 64.5365 60.0691C65.129 60.4163 65.7726 60.3078 66.4674 59.7437L66.7502 59.882C66.9818 59.9851 67.2026 60.0393 67.4127 60.0447C68.0967 60.0773 68.5761 59.6569 68.8508 58.7836L69.0931 58.7185C69.2978 58.648 69.489 58.5531 69.6668 58.4338C70.2431 58.0432 70.6039 57.4602 70.7494 56.6845C73.9702 54.542 76.3186 53.7881 77.7944 54.4227C78.2468 54.618 78.5888 54.9434 78.8204 55.399C78.9335 55.6268 79.0009 55.833 79.0224 56.0174C78.9524 54.8404 78.8177 53.7366 78.6184 52.706L78.3357 51.51L76.1624 50.8185L76.6633 51.5182C77.008 52.0443 77.2181 52.4701 77.2935 52.7955C76.5771 52.9311 75.8769 53.1182 75.1929 53.3569C74.7351 53.5142 74.1668 53.7447 73.4882 54.0485ZM57.0148 61.5662C56.8263 61.9675 56.5408 62.2875 56.1584 62.5262C55.399 63.0035 54.5345 62.8435 53.565 62.0462C52.8487 62.6862 52.1942 62.9222 51.6018 62.754C51.0524 62.6021 50.5784 62.1058 50.1798 61.2651C49.4366 61.4061 48.8656 61.0888 48.4671 60.3132C48.1493 59.684 47.9069 58.6453 47.7399 57.1971C47.7022 57.1212 47.7453 57.0045 47.8692 56.8473C48.117 56.5272 48.6502 56.1557 49.4689 55.7326C50.6107 55.136 51.9115 54.6695 53.3711 54.3332C55.1162 53.9264 56.6297 53.8315 57.9116 54.0485C59.075 54.2491 59.8614 54.8729 60.2707 55.9197C60.4808 56.435 60.5696 56.934 60.5373 57.4168L60.4565 58.1409C60.3811 58.7213 60.2788 59.2609 60.1495 59.76C59.724 61.3275 59.1154 62.1492 58.3236 62.2252C57.9035 62.274 57.5588 62.1791 57.2895 61.9404L57.0148 61.5662ZM53.4519 34.0338C54.7284 33.3124 55.6979 32.5693 56.3604 31.8045L55.7706 34.1396C57.0148 33.2826 57.9655 31.9483 58.6226 30.1367C58.9619 29.2037 59.3174 27.704 59.689 25.6374C60.1361 25.9629 60.8766 26.2097 61.9108 26.3778C62.4225 26.4646 62.891 26.5188 63.3165 26.5405C62.821 26.3778 62.2716 26.1663 61.6684 25.9059C60.4619 25.3906 59.584 24.8835 59.0346 24.3845C59.1854 25.5073 59.0131 26.8605 58.5175 28.4444C58.2698 29.2363 58.0085 29.917 57.7338 30.4865C57.7608 30.2967 57.7823 30.077 57.7985 29.8275C57.8254 29.3285 57.8039 28.9298 57.7338 28.6315C57.3083 30.3021 55.8918 31.913 53.4842 33.4643C52.7302 33.947 51.9223 34.3945 51.0605 34.8067L50.0021 35.2786C50.9393 35.2244 52.0892 34.8095 53.4519 34.0338ZM36.5503 18.8438L37.1563 16.2973L36.2676 16.4763C36.3861 15.7603 36.623 14.9033 36.9785 13.9053C36.58 14.3012 36.2729 14.9901 36.0575 15.9718C35.9498 16.46 35.8798 16.9075 35.8474 17.3143L36.8008 16.6553L36.1787 19.1449C35.7963 21.0596 35.667 22.6651 35.7909 23.9614C34.2774 25.7079 33.386 27.9481 33.1167 30.6818C32.9874 32.0486 33.0063 33.2419 33.1732 34.2616L33.9488 33.0656L33.8115 34.0745C33.7307 34.8447 33.7145 35.4658 33.763 35.9376C32.7343 36.0407 31.2585 36.6807 29.3356 37.8577C27.2189 39.1487 25.8616 40.3853 25.2638 41.5678C27.3697 39.5012 29.4945 38.3188 31.6382 38.0205C33.0763 37.8198 34.8753 38.0449 37.0351 38.6958C39.5127 39.4497 42.3538 39.6884 45.5586 39.4117C47.6699 39.2327 49.6466 38.872 51.4887 38.3296C53.0183 37.8903 53.9717 37.6245 54.3487 37.5323C55.2589 37.3208 56.2284 37.1879 57.2572 37.1336C59.6917 37.1119 62.04 37.9337 64.3022 39.5989C66.1227 40.9386 67.4611 42.4329 68.3175 44.0818C68.5491 42.2322 68.1667 40.6213 67.1703 39.249C66.804 38.7446 66.3839 38.3134 65.91 37.9554C65.5168 37.6571 65.1694 37.4645 64.8677 37.3777C65.6864 36.3309 66.3462 34.7471 66.8471 32.6263C67.0087 31.97 67.1434 31.2974 67.2511 30.6085L67.3642 29.7705L67.5177 30.6818C67.6254 31.3435 67.6927 31.7991 67.7197 32.0486C68.4683 30.5462 68.6703 28.8349 68.3256 26.9148C68.0509 25.3798 67.5527 24.116 66.831 23.1234C67.7143 24.6801 68.1506 26.4049 68.1398 28.2979C68.129 29.2471 68.0294 30.0363 67.8409 30.6655C67.8085 30.3292 67.7547 29.9767 67.6793 29.6078C67.5339 28.8701 67.348 28.4254 67.1218 28.2735C67.2242 29.6729 66.8983 31.4194 66.1442 33.5131C65.7672 34.5599 65.3794 35.4685 64.9809 36.2387C64.9809 36.1085 64.9674 35.9593 64.9405 35.7912C64.8812 35.4495 64.7762 35.1783 64.6254 34.9776C64.1783 35.6068 63.6397 36.1194 63.0095 36.5153C61.9916 37.1608 60.944 37.3289 59.8667 37.0197C58.7034 36.6835 57.3757 36.594 55.8837 36.7513C54.5803 36.8923 53.4331 37.1797 52.442 37.6137C51.5479 38.0042 49.994 38.3513 47.7803 38.6551C45.5613 38.9588 43.4876 39.1107 41.5594 39.1107C39.949 39.1107 38.5243 38.3215 37.2855 36.7431C36.8977 36.2495 36.553 35.7098 36.2514 35.124L35.904 34.3837C35.7155 34.5138 35.5162 34.6928 35.3061 34.9206C34.8806 35.3817 34.6059 35.8617 34.4821 36.3607C34.509 35.558 34.5602 34.6874 34.6356 33.7491C34.7864 31.8778 34.9722 30.5923 35.193 29.8926C34.956 30.0933 34.6975 30.3618 34.4174 30.698C33.8627 31.376 33.4883 32.0649 33.2944 32.7646C33.3214 31.7666 33.4641 30.6574 33.7226 29.437C34.2397 26.9907 35.0665 25.2062 36.2029 24.0834C36.0575 22.5864 36.1733 20.8399 36.5503 18.8438Z" fill="#802908"/>
<path d="M46.2856 21.2525C46.2856 21.0193 46.1994 20.8186 46.0271 20.6505C45.8655 20.4823 45.6689 20.3982 45.4373 20.3982C45.2057 20.3982 45.0037 20.4823 44.8314 20.6505C44.6698 20.8186 44.589 21.0193 44.589 21.2525C44.589 21.4858 44.6698 21.6865 44.8314 21.8546C45.0037 22.0227 45.2057 22.1068 45.4373 22.1068C45.6689 22.1068 45.8655 22.0227 46.0271 21.8546C46.1994 21.6865 46.2856 21.4858 46.2856 21.2525ZM46.4876 16.078C46.4553 16.2624 46.4364 16.4143 46.431 16.5336L47.7803 16.8103C48.9167 16.9676 50.0936 16.9974 51.3109 16.8997C51.2624 16.1567 51.1197 15.5736 50.8827 15.1505C50.4895 14.4508 49.8 14.0359 48.8144 13.9057C47.8718 13.7809 47.1905 14.1823 46.7704 15.1098C46.6465 15.3973 46.5522 15.72 46.4876 16.078ZM41.7371 29.413L42.0845 29.9581C42.4292 30.3269 42.887 30.5249 43.4579 30.552C44.0719 30.5737 44.519 30.5059 44.7991 30.3486C44.9553 30.251 45.1626 30.0177 45.4212 29.6489C44.7048 29.7248 43.8753 29.7086 42.9328 29.6001L41.7371 29.413ZM43.4014 21.1468C43.4014 20.919 43.3421 20.721 43.2236 20.5528C43.1105 20.3901 42.9705 20.3087 42.8035 20.3087C42.6419 20.3087 42.5019 20.3901 42.3834 20.5528C42.2703 20.721 42.2137 20.919 42.2137 21.1468C42.2137 21.3746 42.2703 21.5725 42.3834 21.7407C42.5019 21.9034 42.6419 21.9848 42.8035 21.9848C42.9705 21.9848 43.1105 21.9034 43.2236 21.7407C43.3421 21.5725 43.4014 21.3746 43.4014 21.1468ZM39.9677 15.6305C39.9085 15.7987 39.8627 15.9424 39.8304 16.0617C41.2846 16.3872 42.8116 16.4848 44.4113 16.3546C44.352 15.8882 44.2174 15.4163 44.0073 14.939C43.5926 13.9789 43.0136 13.4745 42.2703 13.4257C41.527 13.3768 40.8968 13.7999 40.3798 14.6949C40.2236 14.9769 40.0862 15.2888 39.9677 15.6305Z" fill="#442C11"/>
<path d="M47.4734 16.7205C48.1251 16.7747 48.758 16.8127 49.372 16.8344C49.5982 16.8452 49.749 16.7693 49.8244 16.6066C49.8944 16.4493 49.8837 16.2676 49.7921 16.0615C49.5767 15.5136 49.1431 15.2153 48.4914 15.1665C47.8666 15.1177 47.433 15.3564 47.1906 15.8825C47.099 16.0886 47.0802 16.273 47.1341 16.4357C47.1771 16.6147 47.2903 16.7096 47.4734 16.7205ZM41.4787 16.2649C42.0981 16.3245 42.7336 16.3761 43.3853 16.4195C43.5631 16.4303 43.6896 16.3544 43.7651 16.1916C43.8351 16.0398 43.8405 15.8554 43.7812 15.6384C43.6089 15.0797 43.2103 14.7814 42.5855 14.7434C41.9338 14.7 41.4652 14.9306 41.1797 15.435C41.0612 15.6357 41.0262 15.8147 41.0747 15.972C41.1232 16.151 41.2578 16.2486 41.4787 16.2649Z" fill="#081A02"/>
<path d="M47.5138 16.0625L47.5057 15.7615L47.2472 16.152C47.161 16.4123 47.3145 16.5615 47.7077 16.5995C47.6107 16.4639 47.5461 16.2849 47.5138 16.0625ZM41.4948 15.6394L41.4787 15.3384L41.2282 15.7289C41.142 15.9947 41.2955 16.1438 41.6887 16.1764C41.5918 16.0408 41.5271 15.8618 41.4948 15.6394Z" fill="#172C10"/>
<path d="M49.3558 15.6312C49.1673 15.4576 48.9572 15.36 48.7256 15.3383C48.5102 15.3383 48.4105 15.4088 48.4267 15.5498C48.4375 15.6908 48.6152 15.7695 48.9599 15.7858C49.1484 15.802 49.3235 15.9241 49.4851 16.1519C49.5659 16.2604 49.6278 16.3688 49.6709 16.4773C49.6978 16.1302 49.5928 15.8481 49.3558 15.6312ZM42.941 15.3708C43.1295 15.3871 43.3045 15.5064 43.4661 15.7288C43.5469 15.8373 43.6088 15.9485 43.6519 16.0624C43.6789 15.7098 43.5738 15.4278 43.3368 15.2162C43.1483 15.0372 42.9356 14.9396 42.6986 14.9233C42.4885 14.9233 42.3916 14.9911 42.4077 15.1267C42.4185 15.2678 42.5962 15.3491 42.941 15.3708Z" fill="#E8FFE1"/>
<path d="M11.8055 108.16C8.8655 108.16 6.8055 106.08 6.8055 100.6C6.8055 95.12 8.8655 93.02 11.8055 93.02C14.7255 93.02 16.7855 95.12 16.7855 100.6C16.7855 106.08 14.7255 108.16 11.8055 108.16ZM11.8055 105.22C12.9455 105.22 13.3055 103.78 13.3055 100.6C13.3055 97.42 12.9455 96.06 11.8055 96.06C10.6455 96.06 10.2855 97.42 10.2855 100.6C10.2855 103.78 10.6455 105.22 11.8055 105.22ZM18.7696 108V97.3H22.0496V98.98H22.0696C22.4496 98.06 23.1696 97.14 24.3496 97.14C24.4696 97.14 24.6096 97.16 24.6096 97.16V100.24C24.4896 100.22 24.2496 100.18 24.0896 100.18C23.1296 100.18 22.3696 100.48 22.0496 100.72V108H18.7696ZM27.9577 108.1C26.7377 108.1 25.6577 107.36 25.6577 105.2C25.6577 102.84 27.8777 101.4 30.3577 100.9V100.62C30.3577 100.02 30.2577 99.82 29.6977 99.82C28.9577 99.82 27.9777 100.42 27.5177 100.8L25.9977 98.72C27.1577 97.68 28.7377 97.14 30.2977 97.14C32.6577 97.14 33.4977 98.24 33.4977 100.46V105.4C33.4977 106.68 33.5577 107.46 33.7177 108H30.5177C30.4177 107.66 30.3577 107.26 30.3577 106.58C29.8377 107.5 29.0977 108.1 27.9577 108.1ZM29.4177 105.48C29.8377 105.48 30.1777 105.24 30.3577 105.12V103.08C29.3977 103.4 28.7977 103.9 28.7977 104.66C28.7977 105.18 29.0377 105.48 29.4177 105.48ZM35.7305 108V97.3H39.0105V98.6C39.4505 97.96 40.4905 97.14 41.6705 97.14C42.8705 97.14 43.7305 97.62 43.7305 99.56V108H40.4505V100.74C40.4505 100.28 40.3105 100.04 39.9905 100.04C39.6305 100.04 39.2505 100.28 39.0105 100.46V108H35.7305ZM52.1892 98.1C52.7292 97.5 53.6092 97.06 54.1892 96.98V99.94C54.1292 99.94 53.6492 99.94 53.2092 99.96C53.2892 100.3 53.3292 100.62 53.3292 101.02C53.3292 103.64 51.6692 104.9 49.5092 104.9C49.1292 104.9 48.7892 104.86 48.4692 104.78C48.3892 104.88 48.3492 104.98 48.3492 105.08C48.3492 105.38 48.4692 105.48 49.0292 105.52L50.2092 105.6C53.1092 105.8 54.0092 106.74 54.0092 108.62C54.0092 110.64 52.0292 112 49.0292 112C46.4092 112 45.1492 111.18 45.1492 109.78C45.1492 108.86 45.6892 108.12 46.6292 107.68C46.0292 107.34 45.7292 106.84 45.7292 106.22C45.7292 105.54 46.2292 104.7 47.0492 104.14C46.1492 103.46 45.6492 102.38 45.6492 101.02C45.6492 98.48 47.3292 97.14 49.5092 97.14C50.5892 97.14 51.5292 97.46 52.1892 98.1ZM49.5292 102.8C50.0692 102.8 50.2892 102.28 50.2892 101.08C50.2892 99.84 50.0892 99.42 49.5292 99.42C48.9492 99.42 48.7492 99.88 48.7492 101.08C48.7492 102.28 48.9692 102.8 49.5292 102.8ZM48.4292 108.06C48.2292 108.44 48.1492 108.78 48.1492 109.1C48.1492 109.9 48.6492 110.14 49.5892 110.14C50.4892 110.14 51.0492 109.74 51.0492 109.06C51.0492 108.46 50.7692 108.22 49.6492 108.14L48.4292 108.06ZM57.9336 108.14C56.7136 108.14 55.8736 107.66 55.8736 105.72V97.3H59.1336V104.6C59.1336 105.06 59.2736 105.3 59.6136 105.3C59.9736 105.3 60.3336 105.06 60.5936 104.88V97.3H63.8736V108H60.5936V106.68C60.1336 107.32 59.0936 108.14 57.9336 108.14ZM69.8124 108.08C67.5924 108.08 66.7324 107.4 66.7324 105.58V99.74H65.5924V97.3H66.7324V93.68H69.9924V97.3H71.7924V99.74H69.9924V104.54C69.9924 105.58 70.2324 105.7 70.9524 105.7C71.2324 105.7 71.6324 105.64 71.6924 105.62V107.94C71.5124 108 70.6324 108.08 69.8124 108.08ZM75.5163 108.1C74.2963 108.1 73.2163 107.36 73.2163 105.2C73.2163 102.84 75.4363 101.4 77.9163 100.9V100.62C77.9163 100.02 77.8163 99.82 77.2563 99.82C76.5163 99.82 75.5363 100.42 75.0763 100.8L73.5563 98.72C74.7163 97.68 76.2963 97.14 77.8563 97.14C80.2163 97.14 81.0563 98.24 81.0563 100.46V105.4C81.0563 106.68 81.1163 107.46 81.2763 108H78.0763C77.9763 107.66 77.9163 107.26 77.9163 106.58C77.3963 107.5 76.6563 108.1 75.5163 108.1ZM76.9763 105.48C77.3963 105.48 77.7363 105.24 77.9163 105.12V103.08C76.9563 103.4 76.3563 103.9 76.3563 104.66C76.3563 105.18 76.5963 105.48 76.9763 105.48ZM83.2891 108V97.3H86.5691V98.6C87.0091 97.96 88.0491 97.14 89.2291 97.14C90.4291 97.14 91.2891 97.62 91.2891 99.56V108H88.0091V100.74C88.0091 100.28 87.8691 100.04 87.5491 100.04C87.1891 100.04 86.8091 100.28 86.5691 100.46V108H83.2891Z" fill="#3A2E27"/>
</svg>
