<svg width="99" height="112" viewBox="0 0 99 112" fill="none" xmlns="http://www.w3.org/2000/svg">
<path d="M39.2123 54.936L39.1887 54.5022C38.8541 54.3286 38.5325 54.1288 38.224 53.9027C38.3548 54.4811 38.4985 55.0202 38.6554 55.5197C38.2423 55.5092 37.7639 55.4303 37.2201 55.2831C36.1273 54.9939 35.2463 54.5206 34.577 53.8632C34.6164 54.0152 34.6557 54.1756 34.6947 54.3444C34.8191 54.8464 34.9498 55.4222 35.0868 56.0719C34.6842 55.972 34.2371 55.8195 33.7456 55.6144C32.7731 55.1989 32.0829 54.7204 31.6751 54.1787C31.7012 54.8624 31.7404 55.4409 31.7927 55.9142C31.6202 55.7932 31.4163 55.6275 31.181 55.4172C30.7156 54.9965 30.3392 54.56 30.0516 54.1077L30.2712 54.6599C30.4803 55.1174 30.7339 55.5697 31.032 56.0167C31.9993 57.4366 33.2594 58.5251 34.8123 59.2824C34.943 58.888 35.0685 58.4936 35.1888 58.0992L35.3221 57.6259L35.5731 57.8941C35.7979 58.115 36.0437 58.3174 36.3103 58.5015C37.1731 59.0852 38.1116 59.385 39.126 59.4007C39.194 59.1062 39.2462 58.7802 39.2828 58.4226L39.3221 57.9809L39.6044 58.2017C39.8449 58.3647 40.0881 58.4804 40.3338 58.5488C39.9428 57.7394 39.6448 56.94 39.4397 56.1508C39.3299 55.7143 39.2541 55.3094 39.2123 54.936ZM71.2747 40.264C71.572 39.9733 71.7916 39.6289 71.9335 39.2306L69.5257 38.9624C69.4315 39.1359 69.3034 39.3147 69.1413 39.4988C68.8172 39.8617 68.4773 40.0641 68.1217 40.1062V40.1141C68.1163 40.13 68.1111 40.1458 68.1061 40.1614C67.9906 40.5174 67.8469 40.8041 67.6747 41.0212L67.9257 41.3762C68.1714 41.7338 68.3597 41.9941 68.4904 42.1571C69.0289 41.8311 69.4132 41.2789 69.6433 40.5006L69.8237 39.4357L70.2394 39.6408C70.5791 39.822 70.919 40.0245 71.259 40.2482C71.264 40.2551 71.2693 40.2603 71.2747 40.264Z" fill="#9B8C85"/>
<path d="M31.0868 50.4477L30.6555 51.1576C29.2856 49.3854 28.5535 47.3397 28.4594 45.0206C28.4333 44.3001 28.4699 43.5928 28.5692 42.8987L28.7339 42.0783C28.3156 42.3675 27.9496 42.6305 27.6359 42.8671C27.2019 42.2571 27.0555 41.3736 27.1967 40.2167C27.2856 39.5015 27.5235 38.5181 27.9104 37.2665C27.8111 37.2507 27.6254 37.3454 27.3535 37.5505C27.2176 37.6504 27.0895 37.7529 26.9692 37.8581L27.0869 34.971C26.1196 37.3007 25.6464 40.1273 25.6673 43.4508C25.6777 45.1179 25.7849 46.5483 25.9889 47.742L26.7732 46.7244C26.7575 49.1645 27.1705 51.1602 28.0124 52.7116C28.4359 53.4846 28.8594 54.0131 29.2829 54.2971L29.7927 53.6266C29.8659 53.7791 29.9522 53.9395 30.0516 54.1078C30.3391 54.5601 30.7156 54.9965 31.181 55.4172C31.4162 55.6276 31.6202 55.7932 31.7927 55.9142C31.7404 55.4409 31.7012 54.8624 31.6751 54.1788C32.0829 54.7205 32.7731 55.199 33.7456 55.6144C34.2371 55.8195 34.6842 55.972 35.0868 56.072C34.9498 55.4223 34.8191 54.8465 34.6946 54.3444C33.7521 54.2739 32.8684 53.6034 32.0437 52.333C31.7875 51.9333 31.5496 51.4994 31.33 51.0314L31.0868 50.4477ZM51.5572 54.8651L51.4317 54.0999C49.5128 53.8685 48.1193 53.553 47.2514 53.1533C47.1991 53.6529 47.1599 54.1525 47.1337 54.6521C46.7625 54.6205 46.339 54.5627 45.8631 54.4785C45.3668 54.3931 44.9302 54.2958 44.5534 54.1867C44.3338 55.3331 44.3573 56.5742 44.6239 57.9099C44.7001 58.2719 44.776 58.5953 44.8514 58.8802C45.2488 58.8749 45.7324 58.7986 46.3024 58.6514C46.8305 58.5199 47.3429 58.349 47.8396 58.1387L47.4474 56.561C48.169 56.9081 49.1442 57.0343 50.3729 56.9397C50.9899 56.8923 51.5337 56.8108 52.0043 56.6951C51.8265 56.1061 51.6775 55.4961 51.5572 54.8651ZM51.2121 50.3925C50.2814 48.8201 49.6226 47.5212 49.2357 46.4957C48.4455 44.3935 48.0167 42.1848 47.9494 39.8696C47.9646 43.3311 48.5947 46.6599 49.8396 49.8561C50.5611 51.7019 51.301 53.1428 52.0592 54.1788C52.5611 54.2366 52.9846 54.2761 53.3297 54.2971L53.518 53.7371C52.948 53.0692 52.3912 52.3119 51.8474 51.4653L51.2121 50.3925ZM30.3574 32.7623C30.3032 32.4694 30.2692 32.1512 30.2555 31.8079L29.6359 38.292L30.2241 38.0159L30.1221 38.5128C30.0489 38.9283 30.0176 39.3516 30.028 39.7828C30.0542 41.1606 30.4594 42.3596 31.2437 43.3798C31.479 43.1958 31.7012 42.9591 31.9104 42.6699L32.0515 43.2221C32.1823 43.6743 32.3391 44.1029 32.5221 44.5079C33.1182 45.8015 33.8816 46.6219 34.8123 46.969C34.828 46.7744 34.8384 46.5325 34.8437 46.2433L34.8515 45.8646L35.7456 46.3931C36.4619 46.7823 37.1051 47.0663 37.675 47.2451C37.1051 47.0505 36.4227 46.664 35.628 46.0855L34.6162 45.273L34.577 46.4562C34.2685 46.2722 33.9365 45.933 33.5809 45.4387C32.8594 44.4553 32.3679 43.1905 32.1064 41.6444L31.2829 42.7094C31.0267 42.336 30.8149 41.8338 30.6476 41.2027C30.3182 39.9406 30.3731 38.668 30.8123 37.3848L30.028 37.6609L30.3574 32.7623ZM68.106 40.1615C68.111 40.1459 68.1163 40.1301 68.1217 40.1141L67.408 39.1202L66.9688 40.2561C66.6394 41.066 66.3675 41.5945 66.1531 41.8416C66.0904 41.6628 65.8289 41.371 65.3688 40.9661L64.7022 40.4218L62.8983 34.9789L65.0394 42.5674C65.0133 42.2729 64.9767 41.9757 64.9296 41.676L64.859 41.3131L65.0473 41.5577C65.1989 41.7733 65.3453 42.0231 65.4865 42.3071C65.774 42.8803 66.0067 43.5166 66.1845 44.216C66.7283 43.8742 67.1257 43.2195 67.3766 42.2518L67.5884 40.8951L67.6747 41.0213C67.8468 40.8041 67.9906 40.5175 68.106 40.1615Z" fill="#271620"/>
<path d="M45.3298 59.9923C45.2139 59.8507 45.1015 59.6298 44.9926 59.3297C43.6488 58.5777 42.6109 58.4778 41.8789 59.0299C41.5129 59.3034 41.2802 59.6531 41.1809 60.0791C41.2521 60.1944 41.3253 60.3101 41.4005 60.4262C41.3586 61.8145 41.4083 62.9136 41.5495 63.7234C41.7011 64.5754 42.0175 65.514 42.4985 66.5395C42.6449 69.4319 42.9011 73.8256 43.2671 79.7207L42.522 81.4482C41.858 82.7629 41.1181 83.8305 40.3024 84.6508C39.56 84.9033 39.0737 85.082 38.8436 85.1872C38.5038 85.3397 38.2711 85.5159 38.1456 85.7157C37.9626 86.005 37.5704 86.4257 36.9691 86.9779L36.9378 87.2855C36.9378 87.5274 36.9822 87.7456 37.0711 87.9402C37.343 88.566 38.0018 88.8368 39.0476 88.7527C40.3809 88.6475 41.4266 88.4556 42.1848 88.1769C43.0318 87.8613 43.5678 87.4222 43.7926 86.8595C44.2841 85.8551 44.6736 85.0242 44.9612 84.3669C45.4893 83.1521 45.7298 82.195 45.6828 81.4956C45.6357 80.7909 45.5547 78.4349 45.4396 74.4277L45.2906 68.6299C45.4945 68.1461 45.688 67.5229 45.871 66.7604C46.237 65.2353 46.3703 63.7813 46.271 62.3982C46.2344 61.7777 46.1115 61.2544 45.9024 60.8285C45.7978 60.6129 45.607 60.3341 45.3298 59.9923ZM53.3533 58.6829L53.0239 59.1483C53.3271 59.6689 53.6513 60.108 53.9964 60.4656C53.8866 61.2912 54.0121 62.201 54.3729 63.1949C54.6918 64.0679 55.1023 64.7883 55.6042 65.3563C55.6827 66.6184 55.9833 72.0902 56.5062 81.7716L56.2474 82.0951C56.0434 82.379 55.8578 82.684 55.6905 83.0101C55.1572 84.0566 54.9062 85.1294 54.9376 86.2285C54.3624 86.7123 53.9598 87.1751 53.7297 87.6168C53.3533 88.3267 53.4291 88.9552 53.9572 89.5021C54.4957 90.0595 55.2696 90.1489 56.2787 89.7703C56.6604 89.6283 57.0134 89.4363 57.3375 89.1944C57.6408 88.9736 57.8343 88.7737 57.9179 88.5949C58.2735 88.9736 58.6918 89.1813 59.1728 89.2181C59.5597 89.2496 59.9127 89.1734 60.2316 88.9893C60.697 88.7211 61.0186 88.3083 61.1963 87.7509C61.4473 86.9726 61.165 86.2416 60.3493 85.558C60.3493 84.7692 60.2473 84.0671 60.0434 83.4518C59.7976 82.7314 59.429 82.1976 58.9375 81.8505L58.8983 64.5675C59.1231 64.2467 59.2513 63.7602 59.2826 63.1081C59.3454 61.8092 58.9035 60.3368 57.9571 58.6908L57.9101 58.1307C56.6228 57.2163 55.4228 57.1111 54.3101 57.8152C53.9598 58.036 53.6409 58.3253 53.3533 58.6829ZM34.1535 0.176075C33.9182 0.270733 33.7587 0.360132 33.6751 0.444273C32.3679 0.01831 31.4659 0.120859 30.9692 0.751915C30.8124 0.94649 30.7078 1.18314 30.6555 1.46185C30.6241 1.60384 30.611 1.72479 30.6163 1.82471L31.3535 1.78527C31.9234 1.82734 32.3966 2.0114 32.7731 2.33744C33.1862 2.69504 33.5051 2.93958 33.73 3.07105C33.8921 3.16044 34.0437 3.20514 34.1849 3.20514C34.4254 3.15256 34.6528 3.1657 34.8672 3.24458C35.0764 3.32873 35.1835 3.44442 35.1888 3.59167C35.1888 3.74943 35.0685 3.89668 34.828 4.0334L34.5378 4.71179C34.3182 5.18508 34.1352 5.47169 33.9888 5.5716C33.8424 5.67152 34.0149 5.6426 34.5064 5.48484C34.7522 5.40595 35.0136 5.31655 35.2907 5.21663L35.2358 5.74515C35.1731 6.17111 35.079 6.57341 34.9535 6.95204C34.5568 8.16982 33.9242 8.92972 33.0555 9.23173C33.0396 9.45153 33.016 9.6724 32.9849 9.89434C32.9274 10.2993 32.713 11.2643 32.3417 12.7893C32.0437 14.0199 31.8398 14.9402 31.73 15.5502C31.4999 16.8228 31.3248 18.2953 31.2045 19.9676C31.0215 22.5181 30.6895 26.0757 30.2084 30.6403C30.2293 30.9243 30.245 31.3134 30.2555 31.8078C30.2693 32.1511 30.3032 32.4693 30.3575 32.7622C30.4037 33.0328 30.4665 33.2825 30.5457 33.5116C30.7757 34.1795 31.1993 34.9446 31.8163 35.8071C31.9208 35.7545 31.9993 35.623 32.0516 35.4127L32.3496 35.6809C32.611 35.8754 32.9038 35.9964 33.228 36.0437C33.3587 35.9964 33.3457 35.857 33.1888 35.6257L32.9143 35.2943L33.4868 35.4994C33.8999 35.6204 34.1796 35.6572 34.326 35.6099C34.4724 35.5625 34.496 35.41 34.3966 35.1524L34.2084 34.7816L34.7966 35.2155L34.8829 35.2312C34.9509 35.226 35.0136 35.1971 35.0711 35.1445C35.2541 34.9657 35.3456 34.5555 35.3456 33.9139C35.4659 34.0927 35.56 34.2058 35.628 34.2531C35.7482 34.332 35.8502 34.2847 35.9339 34.1111C36.0175 33.9481 36.0149 33.6694 35.926 33.275L35.777 32.7307C36.1692 32.757 36.3783 32.7044 36.4044 32.5729C36.4306 32.4414 36.2084 32.2048 35.7378 31.863L35.9888 31.7762C36.1509 31.7078 36.2241 31.6316 36.2084 31.5475C36.1927 31.4738 36.1247 31.4239 36.0044 31.3976C35.8005 31.3608 35.6724 31.3318 35.6201 31.3108C35.4005 31.2161 35.1234 30.9716 34.7888 30.5772C34.3757 30.0829 34.1692 29.6306 34.1692 29.2204C34.1692 28.826 34.1822 28.5236 34.2084 28.3133L34.2476 28.1161L35.0868 17.3881C35.2437 16.6098 35.4398 15.9051 35.675 15.2741C36.1979 13.87 36.5613 12.8261 36.7652 12.1425C37.3247 10.2441 37.628 8.52705 37.675 6.99148C37.7325 5.16142 37.7168 3.97293 37.628 3.42601C37.5286 2.85281 37.2567 2.37162 36.8123 1.98247C36.5299 0.699325 35.9495 0.0393471 35.0711 0.00253554C34.7783 -0.0132409 34.4724 0.0446045 34.1535 0.176075ZM34.0751 1.1621C34.1054 1.13895 34.1498 1.10214 34.2084 1.05167C34.3391 0.941231 34.4698 0.864978 34.6005 0.822908C35.0241 0.670403 35.3979 0.841314 35.7221 1.33564C35.5077 1.03063 35.1888 0.899161 34.7652 0.941231C34.4759 0.970339 34.2458 1.04396 34.0751 1.1621ZM33.3457 1.6985C33.6123 1.58806 33.8711 1.50655 34.1221 1.45396C34.9221 1.28568 35.4816 1.4487 35.8005 1.94303L33.0162 1.84837L33.3457 1.6985Z" fill="#A39A99"/>
<path d="M44.5533 54.1867C44.2141 54.0886 43.924 53.9808 43.6828 53.8632C43.735 54.2577 43.8004 54.6784 43.8788 55.1254C43.4919 55.22 43.0056 55.2673 42.42 55.2673C41.2488 55.2568 40.1717 55.0018 39.1887 54.5022L39.2122 54.936C39.2541 55.3094 39.3299 55.7143 39.4397 56.1508C39.6448 56.94 39.9428 57.7394 40.3338 58.5488C40.5721 59.037 40.8414 59.5261 41.1416 60.016C41.1558 60.039 41.1689 60.0601 41.1808 60.0791C41.2802 59.6532 41.5129 59.3035 41.8789 59.03C42.6109 58.4778 43.6488 58.5778 44.9926 59.3298C44.9633 59.2512 44.9346 59.167 44.9063 59.0773C44.8884 59.0143 44.8701 58.9486 44.8514 58.8801C44.7759 58.5953 44.7001 58.2718 44.6239 57.9099C44.3573 56.5742 44.3337 55.3331 44.5533 54.1867ZM53.518 53.737L53.3297 54.2971C52.9846 54.2761 52.5611 54.2366 52.0591 54.1788L51.4317 54.0999L51.5572 54.865C51.6774 55.4961 51.8265 56.1061 52.0042 56.6951C52.2918 57.6417 52.6317 58.4594 53.0238 59.1483L53.3532 58.6829C53.6408 58.3253 53.9598 58.0361 54.3101 57.8152C55.4228 57.1112 56.6228 57.2164 57.9101 58.1308L57.6983 55.3304C57.5056 55.1995 57.3174 55.0575 57.1336 54.9045L56.7807 54.5732C56.6238 55.0202 56.4016 55.4803 56.114 55.9536C55.2722 55.5224 54.4068 54.7835 53.518 53.737ZM31.8476 4.42L31.9025 4.92484C32.0384 5.31399 32.3679 5.64793 32.8907 5.92664C33.1002 7.01499 33.1551 8.11671 33.0554 9.2318C33.9241 8.92979 34.5568 8.16989 34.9534 6.95211C35.0789 6.57347 35.173 6.17118 35.2358 5.74521L35.2907 5.2167C35.0136 5.31662 34.7521 5.40602 34.5064 5.4849C34.0149 5.64267 33.8423 5.67159 33.9888 5.57167C34.1352 5.47176 34.3182 5.18515 34.5378 4.71186L34.828 4.03347C34.6606 4.13339 34.4463 4.22542 34.1848 4.30956C33.4476 4.53569 32.6685 4.5725 31.8476 4.42ZM34.1221 1.45403C33.8711 1.50662 33.6123 1.58813 33.3456 1.69857L33.0162 1.84844L35.8005 1.9431C35.4815 1.44877 34.9221 1.28575 34.1221 1.45403ZM34.2084 1.05174C34.1498 1.10221 34.1054 1.13902 34.075 1.16217C34.2458 1.04403 34.4759 0.970409 34.7652 0.941301C35.1887 0.89923 35.5077 1.0307 35.7221 1.33571C35.3979 0.841384 35.024 0.670473 34.6005 0.822978C34.4698 0.865048 34.3391 0.9413 34.2084 1.05174Z" fill="#685D5C"/>
<path d="M64.1218 44.208L63.8394 43.8373L63.9335 44.3737C63.9963 44.8154 64.0276 45.2493 64.0276 45.6752C64.0381 47.0268 63.7401 48.0312 63.1335 48.6885C62.9714 48.5413 62.7728 48.3467 62.5375 48.1048L62.2316 47.7814L62.4277 49.359C62.2237 49.4642 61.978 49.5352 61.6904 49.572C61.1048 49.6404 60.5924 49.4931 60.1532 49.1303C60.4408 49.8139 60.6499 50.3267 60.7806 50.6685C60.4983 50.7684 60.1375 50.8052 59.6983 50.7789C58.8146 50.7263 57.9728 50.3871 57.1728 49.7613C57.3035 50.4713 57.4212 51.0629 57.5258 51.5362C57.1754 51.5625 56.7964 51.4994 56.3885 51.3469C55.5781 51.0366 55.0421 50.4292 54.7807 49.5247L54.0748 50.984C53.8029 50.984 53.4709 50.8315 53.0787 50.5265C52.6029 50.1531 52.2422 49.6746 51.9964 49.0908L51.2121 50.3924L51.8474 51.4652C52.3912 52.3118 52.948 53.0691 53.518 53.737C54.4068 54.7835 55.2722 55.5223 56.114 55.9536C56.4016 55.4803 56.6238 55.0201 56.7807 54.5731L57.1336 54.9044C57.3174 55.0574 57.5057 55.1994 57.6983 55.3304C57.8248 55.4136 57.9529 55.4925 58.0826 55.567C59.144 56.1718 60.1479 56.3269 61.0943 56.0325C61.063 55.6854 61.0211 55.3514 60.9689 55.0306L60.8983 54.652L61.2904 54.8492C61.6146 54.9965 61.9283 55.1095 62.2316 55.1884C63.2146 55.4461 63.9335 55.3199 64.3884 54.8098L64.1923 53.8238L64.7414 54.5731C64.9505 54.4364 65.1335 54.0893 65.2904 53.5319C65.6041 52.4223 65.6302 50.8236 65.3688 48.7359C65.6302 49.104 65.8525 49.4721 66.0355 49.8402C66.1714 49.6772 66.2864 49.3511 66.3806 48.8621C66.574 47.8839 66.5636 46.5903 66.3492 44.9811C66.3014 44.7176 66.2465 44.4626 66.1845 44.2159C66.0067 43.5165 65.774 42.8802 65.4865 42.307C65.3453 42.023 65.1989 41.7732 65.0472 41.5576L64.859 41.3131L64.9296 41.6759C64.9767 41.9757 65.0133 42.2728 65.0394 42.5673C65.1492 43.6664 65.0629 44.4841 64.7806 45.0205C64.5662 44.7734 64.3466 44.5025 64.1218 44.208ZM69.808 29.0864L69.3139 29.0627C69.8629 28.195 70.0197 27.8795 69.7844 28.1161C69.5962 28.3054 69.2799 28.4842 68.8354 28.6525C68.3596 28.8366 67.8786 28.947 67.3923 28.9838C67.0472 29.0101 66.6368 28.968 66.161 28.8576C65.659 28.7472 65.2198 28.6972 64.8433 28.7077C64.1741 28.734 63.5989 28.8313 63.1179 28.9996L63.4316 29.0785C63.6564 29.1679 63.8185 29.3204 63.9178 29.536C64.791 29.2836 65.7191 29.2178 66.7021 29.3388L66.1531 29.9698L67.2041 30.0093C67.9832 30.1039 68.5609 30.3143 68.9374 30.6403C68.5714 31.3766 68.2838 31.9156 68.0747 32.2574L68.9923 32.3126C69.6668 32.4388 70.1583 32.7228 70.4668 33.1646C70.1583 33.3802 69.8367 33.5826 69.5021 33.7719L69.0943 33.9928L69.3374 34.3715C69.5256 34.6975 69.6694 35.0446 69.7688 35.4127C70.0982 36.5854 69.9518 37.7292 69.3295 38.8441C69.1518 38.7126 68.9478 38.5417 68.7178 38.3313L68.4276 38.0552L68.3256 39.1833C68.2734 39.5313 68.2054 39.8389 68.1217 40.1062C68.4773 40.0641 68.8171 39.8616 69.1413 39.4988C69.3034 39.3147 69.4315 39.1359 69.5256 38.9624L71.9334 39.2306C72.0569 38.8869 72.1222 38.503 72.1295 38.0789C72.1347 37.7949 72.1112 37.5083 72.0589 37.2191L71.9805 36.872L72.4589 37.014C72.8563 37.0771 73.2589 37.0429 73.6668 36.9114C73.6668 35.6441 73.353 34.3977 72.7256 33.1724C72.5269 32.7886 72.3125 32.4283 72.0825 32.0918L71.7844 31.7052L72.8825 31.7841C72.7047 30.6009 72.0563 29.7937 70.9374 29.3624C70.587 29.2257 70.2106 29.1337 69.808 29.0864Z" fill="#F2E8DE"/>
<path d="M30.1849 3.95448C30.2267 3.965 30.4672 4.03863 30.9064 4.17535C31.262 4.28579 31.5757 4.3673 31.8476 4.41989C32.6685 4.57239 33.4476 4.53558 34.1848 4.30945C34.4463 4.22531 34.6606 4.13328 34.828 4.03337C35.0685 3.89664 35.1887 3.74939 35.1887 3.59163C34.7548 3.67577 34.394 3.71784 34.1064 3.71784C34.0071 3.71784 33.6986 3.69943 33.1809 3.66262C32.6633 3.62055 32.2267 3.59951 31.8711 3.59951C31.479 3.59951 31.0816 3.65999 30.679 3.78094L30.1849 3.95448ZM31.4084 3.0079C31.513 2.96057 31.5653 2.90009 31.5653 2.82647C31.5653 2.75285 31.513 2.68974 31.4084 2.63716C31.3038 2.58983 31.1783 2.56616 31.0319 2.56616C30.8855 2.56616 30.76 2.58983 30.6555 2.63716C30.5509 2.68974 30.4986 2.75285 30.4986 2.82647C30.4986 2.90009 30.5509 2.96057 30.6555 3.0079C30.76 3.06049 30.8855 3.08678 31.0319 3.08678C31.1783 3.08678 31.3038 3.06049 31.4084 3.0079Z" fill="#754542"/>
<path d="M29.4006 2.65286C29.1496 2.68967 28.9483 2.78433 28.7967 2.93683C28.645 3.08934 28.5849 3.2471 28.6163 3.41013C28.6947 3.82557 29.2176 4.007 30.1849 3.95441L30.679 3.78087C31.0816 3.65992 31.479 3.59944 31.8711 3.59944C32.2267 3.59944 32.6633 3.62048 33.1809 3.66255C33.6986 3.69936 34.0071 3.71777 34.1064 3.71777C34.394 3.71777 34.7548 3.6757 35.1888 3.59156C35.1835 3.44431 35.0763 3.32861 34.8672 3.24447C34.6528 3.16559 34.4254 3.15244 34.1848 3.20503C34.0437 3.20503 33.892 3.16033 33.7299 3.07093C33.5051 2.93946 33.1862 2.69493 32.7731 2.33733C32.3966 2.01128 31.9234 1.82723 31.3535 1.78516L30.6163 1.8246C30.4437 1.84037 30.2372 1.97973 29.9967 2.24267C29.7509 2.50561 29.5522 2.64234 29.4006 2.65286ZM31.5653 2.8264C31.5653 2.90002 31.513 2.9605 31.4084 3.00783C31.3038 3.06042 31.1783 3.08671 31.0319 3.08671C30.8855 3.08671 30.7601 3.06042 30.6555 3.00783C30.5509 2.9605 30.4986 2.90002 30.4986 2.8264C30.4986 2.75278 30.5509 2.68967 30.6555 2.63708C30.7601 2.58975 30.8855 2.56609 31.0319 2.56609C31.1783 2.56609 31.3038 2.58975 31.4084 2.63708C31.513 2.68967 31.5653 2.75278 31.5653 2.8264Z" fill="#B7726E"/>
<path d="M70.4668 33.1645C70.1583 32.7227 69.6668 32.4388 68.9923 32.3126L68.0747 32.2573C68.2838 31.9155 68.5714 31.3765 68.9374 30.6403C68.5609 30.3142 67.9832 30.1039 67.2041 30.0092L66.1531 29.9698L66.7021 29.3387C65.7191 29.2177 64.791 29.2835 63.9179 29.5359C63.8185 29.3203 63.6564 29.1678 63.4316 29.0784L63.1179 28.9995C62.7832 29.1152 62.48 29.2677 62.2081 29.457C61.4238 28.847 60.9898 28.5104 60.9061 28.4473C60.148 27.9057 59.3427 27.4324 58.4905 27.0275C55.9598 25.8127 53.0552 25.1895 49.7768 25.158C46.603 25.1264 43.4292 25.6076 40.2554 26.6015C39.3665 26.875 38.3939 27.222 37.3377 27.6427C36.5064 27.974 36.0384 28.1449 35.9338 28.1555C35.6097 28.187 35.2306 28.1897 34.7966 28.1634L34.2476 28.116L34.2084 28.3132C34.1822 28.5236 34.1692 28.826 34.1692 29.2204C34.1692 29.6306 34.3757 30.0828 34.7888 30.5771C35.1234 30.9716 35.4005 31.2161 35.6201 31.3107C35.6724 31.3318 35.8005 31.3607 36.0044 31.3975C36.1247 31.4238 36.1927 31.4738 36.2084 31.5474C36.224 31.6315 36.1508 31.7078 35.9887 31.7762L35.7378 31.8629C36.2084 32.2047 36.4306 32.4414 36.4044 32.5729C36.3783 32.7043 36.1691 32.7569 35.777 32.7306L35.926 33.2749C36.0149 33.6693 36.0175 33.948 35.9338 34.1111C35.8502 34.2846 35.7482 34.3319 35.628 34.2531C35.56 34.2057 35.4659 34.0927 35.3456 33.9139C35.3456 34.5554 35.2541 34.9656 35.0711 35.1444C35.0136 35.197 34.9508 35.2259 34.8829 35.2312L34.7966 35.2154L34.2084 34.7816L34.3966 35.1523C34.4959 35.41 34.4724 35.5625 34.326 35.6098C34.1796 35.6571 33.8999 35.6203 33.4868 35.4994L32.9143 35.2943L33.1888 35.6256C33.3456 35.857 33.3587 35.9963 33.228 36.0437C32.9038 35.9963 32.611 35.8754 32.3496 35.6808L32.0515 35.4126C31.9992 35.623 31.9208 35.7544 31.8162 35.807C31.1993 34.9446 30.7757 34.1794 30.5457 33.5116C30.4665 33.2825 30.4037 33.0327 30.3574 32.7622L30.028 37.6608L30.8123 37.3847C30.3731 38.6678 30.3182 39.9404 30.6476 41.2026C30.8149 41.8336 31.0267 42.3358 31.2829 42.7092L32.1064 41.6443C32.3679 43.1904 32.8594 44.4551 33.5809 45.4385C33.9365 45.9328 34.2685 46.272 34.577 46.4561L34.6162 45.2729L35.628 46.0854C36.4227 46.6638 37.1051 47.0503 37.675 47.2449C37.1051 47.0661 36.4619 46.7821 35.7456 46.393L34.8515 45.8645L34.8437 46.2431C34.8384 46.5324 34.828 46.7743 34.8123 46.9688C33.8816 46.6217 33.1182 45.8014 32.5221 44.5077C32.3391 44.1028 32.1823 43.6742 32.0515 43.2219L31.9104 42.6698C31.7012 42.959 31.479 43.1956 31.2437 43.3797C30.4594 42.3595 30.0542 41.1605 30.028 39.7827C30.0176 39.3515 30.0489 38.9281 30.1221 38.5127L30.2241 38.0157L29.6359 38.2918L30.2555 31.8077C30.245 31.3134 30.2293 30.9242 30.2084 30.6403C28.8908 31.6973 27.8503 33.1408 27.0869 34.9709L26.9692 37.858C27.0895 37.7528 27.2176 37.6502 27.3535 37.5503C27.6254 37.3452 27.8111 37.2506 27.9104 37.2663C27.5235 38.5179 27.2856 39.5013 27.1967 40.2165C27.0555 41.3735 27.2019 42.2569 27.6359 42.867C27.9496 42.6303 28.3156 42.3674 28.7339 42.0781L28.5692 42.8985C28.4699 43.5927 28.4333 44.3 28.4594 45.0204C28.5535 47.3396 29.2856 49.3853 30.6555 51.1575L31.0868 50.4475L31.33 51.0313C31.5496 51.4993 31.7875 51.9331 32.0437 52.3328C32.8684 53.6033 33.7521 54.2738 34.6946 54.3443C34.6556 54.1755 34.6164 54.0151 34.577 53.8631C35.2463 54.5205 36.1273 54.9938 37.2201 55.283C37.7639 55.4302 38.2423 55.5091 38.6554 55.5196C38.4985 55.0201 38.3547 54.481 38.224 53.9026C38.5325 54.1287 38.8541 54.3285 39.1887 54.5021C40.1717 55.0016 41.2488 55.2567 42.42 55.2672C43.0057 55.2672 43.4919 55.2199 43.8789 55.1252C43.8004 54.6782 43.7351 54.2575 43.6828 53.8631C43.924 53.9807 44.2142 54.0885 44.5534 54.1865C44.9302 54.2956 45.3668 54.3929 45.8631 54.4784C46.339 54.5625 46.7625 54.6204 47.1337 54.6519C47.1599 54.1524 47.1991 53.6528 47.2514 53.1532C48.1193 53.5528 49.5128 53.8684 51.4317 54.0998L52.0592 54.1786C51.301 53.1427 50.5611 51.7018 49.8396 49.8559C48.5947 46.6598 47.9646 43.3309 47.9494 39.8694C48.0167 42.1846 48.4455 44.3933 49.2357 46.4955C49.6226 47.521 50.2814 48.8199 51.2121 50.3923L51.9964 49.0908C52.2422 49.6745 52.6029 50.153 53.0788 50.5264C53.4709 50.8314 53.8029 50.9839 54.0748 50.9839L54.7807 49.5246C55.0421 50.4291 55.5781 51.0365 56.3885 51.3468C56.7964 51.4993 57.1754 51.5624 57.5258 51.5361C57.4212 51.0628 57.3035 50.4712 57.1728 49.7613C57.9728 50.3871 58.8146 50.7262 59.6983 50.7788C60.1375 50.8051 60.4983 50.7683 60.7806 50.6684C60.6499 50.3266 60.4408 49.8138 60.1532 49.1302C60.5924 49.4931 61.1048 49.6403 61.6904 49.5719C61.978 49.5351 62.2238 49.4641 62.4277 49.359L62.2316 47.7813L62.5375 48.1047C62.7728 48.3466 62.9715 48.5412 63.1335 48.6885C63.7401 48.0311 64.0381 47.0267 64.0277 45.6752C64.0277 45.2492 63.9963 44.8154 63.9335 44.3736L63.8394 43.8372L64.1218 44.208C64.3466 44.5025 64.5662 44.7733 64.7806 45.0204C65.0629 44.484 65.1492 43.6663 65.0394 42.5672L62.8983 34.9788L64.7022 40.4216L65.3688 40.9659C65.8289 41.3708 66.0904 41.6627 66.1531 41.8415C66.3675 41.5943 66.6394 41.0658 66.9688 40.256L67.408 39.1201L68.1217 40.114V40.1061C68.2054 39.8388 68.2734 39.5312 68.3256 39.1832L68.4276 38.0552L68.7178 38.3312C68.9479 38.5416 69.1518 38.7125 69.3296 38.844C69.9518 37.7291 70.0982 36.5853 69.7688 35.4126C69.6694 35.0445 69.5256 34.6974 69.3374 34.3714L69.0943 33.9927L69.5021 33.7719C69.8367 33.5826 70.1583 33.3801 70.4668 33.1645Z" fill="#3D2536"/>
<path d="M54.3101 88.1528C54.3467 88.442 54.399 88.6155 54.467 88.6734C54.9375 88.4841 55.3375 88.2579 55.6669 87.995C56.3258 87.4691 56.3048 87.0248 55.6042 86.6619C54.8826 86.2885 54.4539 86.491 54.3179 87.2693C54.2656 87.5427 54.263 87.8372 54.3101 88.1528ZM38.4593 85.8731C38.0201 85.6259 37.4998 85.6732 36.8985 86.0151C36.3861 86.3043 36.0306 86.6382 35.8319 87.0169L38.1848 86.8985C38.3939 86.8197 38.5612 86.7171 38.6867 86.5909C38.9429 86.3437 38.8671 86.1045 38.4593 85.8731ZM35.1652 1.72174L34.6868 1.64286C34.5247 1.63234 34.3704 1.64286 34.224 1.67441C33.9365 1.74804 33.8476 1.90843 33.9574 2.15559C34.0829 2.44483 34.326 2.58681 34.6868 2.58156C35.0423 2.5763 35.2907 2.4422 35.4319 2.17926C35.5469 1.96365 35.458 1.81114 35.1652 1.72174Z" fill="#1A0314"/>
<path d="M34.0751 2.11646L34.13 2.26633C34.198 2.37151 34.3183 2.43461 34.4908 2.45565C34.449 2.31366 34.3679 2.21374 34.2477 2.1559L34.0751 2.11646Z" fill="#2C200A"/>
<path d="M35.1732 1.83246L34.8281 1.78513C34.713 1.77987 34.6581 1.81931 34.6634 1.90345C34.6686 1.9876 34.7287 2.0323 34.8438 2.03756C35.1209 2.05859 35.2594 2.13221 35.2594 2.25842C35.4058 2.04281 35.3771 1.90083 35.1732 1.83246Z" fill="#F8EEDD"/>
<path d="M24.3973 108.16C21.4573 108.16 19.3973 106.08 19.3973 100.6C19.3973 95.12 21.4573 93.02 24.3973 93.02C27.3173 93.02 29.3773 95.12 29.3773 100.6C29.3773 106.08 27.3173 108.16 24.3973 108.16ZM24.3973 105.22C25.5373 105.22 25.8973 103.78 25.8973 100.6C25.8973 97.42 25.5373 96.06 24.3973 96.06C23.2373 96.06 22.8773 97.42 22.8773 100.6C22.8773 103.78 23.2373 105.22 24.3973 105.22ZM34.8814 108.18C32.7014 108.18 31.4814 107.06 30.7414 105.46L33.0814 104.36C33.5414 105.38 34.2214 105.82 34.8214 105.82C35.2014 105.82 35.6014 105.66 35.6014 105.2C35.6014 103.86 31.1214 104.02 31.1214 100.32C31.1214 97.98 33.2414 97.08 34.7214 97.08C36.5614 97.08 37.7814 97.8 38.6014 99.58L36.2214 100.72C35.8414 99.86 35.3414 99.54 34.8014 99.54C34.4614 99.54 34.2014 99.74 34.2014 100.12C34.2014 101.56 38.6814 101.34 38.6814 105.02C38.6814 107 37.1814 108.18 34.8814 108.18ZM44.0878 108.08C41.8678 108.08 41.0078 107.4 41.0078 105.58V99.74H39.8678V97.3H41.0078V93.68H44.2678V97.3H46.0678V99.74H44.2678V104.54C44.2678 105.58 44.5078 105.7 45.2278 105.7C45.5078 105.7 45.9078 105.64 45.9678 105.62V107.94C45.7878 108 44.9078 108.08 44.0878 108.08ZM47.9317 108V97.3H51.2117V98.98H51.2317C51.6117 98.06 52.3317 97.14 53.5117 97.14C53.6317 97.14 53.7717 97.16 53.7717 97.16V100.24C53.6517 100.22 53.4117 100.18 53.2517 100.18C52.2917 100.18 51.5317 100.48 51.2117 100.72V108H47.9317ZM55.5942 96.36V93.46H58.8742V96.36H55.5942ZM55.5942 108V97.3H58.8742V108H55.5942ZM64.9798 108.16C62.6598 108.16 60.8598 106.52 60.8598 102.66C60.8598 98.74 62.7398 97.14 65.0398 97.14C67.5798 97.14 68.5398 98.72 68.8598 101.08L65.8398 101.52C65.7198 100.24 65.5398 99.64 65.0198 99.64C64.3798 99.64 64.1198 100.18 64.1198 102.66C64.1198 105.06 64.3198 105.76 64.9998 105.76C65.5598 105.76 65.8398 105.2 65.9598 103.72L68.8798 104.12C68.5998 106.46 67.4998 108.16 64.9798 108.16ZM70.6973 108V93.2H73.9773V98.6C74.4173 97.96 75.4573 97.14 76.6373 97.14C77.8373 97.14 78.6973 97.62 78.6973 99.56V108H75.4173V100.74C75.4173 100.28 75.2773 100.04 74.9573 100.04C74.5973 100.04 74.2173 100.28 73.9773 100.46V108H70.6973Z" fill="#3A2E27"/>
</svg>
