<svg width="99" height="113" viewBox="0 0 99 113" fill="none" xmlns="http://www.w3.org/2000/svg">
<path d="M32.0772 59.473C31.5116 59.7879 31.3874 60.3153 31.7046 61.0553C32.0059 61.7691 32.516 62.4802 33.2349 63.1887C33.7106 63.6505 34.3476 64.1805 35.1458 64.7788C35.1511 64.7788 35.159 64.7788 35.1696 64.7788C35.5555 64.9468 35.9255 64.9389 36.2797 64.7552C36.4964 64.6345 36.6946 64.4482 36.8744 64.1963C37.255 64.1438 37.5563 64.0493 37.7783 63.9129C38.1853 63.6452 38.328 63.1545 38.2065 62.4408C38.4761 62.4303 38.7879 62.2597 39.1421 61.9291C39.5544 61.5303 39.6786 61.1314 39.5148 60.7326C38.965 60.8113 38.3069 60.8218 37.5404 60.764C36.0074 60.6486 34.7176 60.2445 33.671 59.5517C33.1371 59.2001 32.6058 59.1739 32.0772 59.473ZM46.9047 64.7788C46.8149 65.5765 47.1849 66.5737 48.0148 67.7702C48.8712 68.993 49.9998 69.9718 51.4006 70.7065C52.5529 71.31 53.6181 71.6407 54.596 71.6984C54.8656 71.6197 55.1405 71.5278 55.4206 71.4229C55.4682 71.4176 55.5237 71.3783 55.5872 71.3048C55.7087 71.1683 55.7907 70.9348 55.833 70.6042C56.5254 70.4677 56.9615 70.3392 57.1413 70.2184C57.5959 69.9246 57.654 69.447 57.3157 68.7857C57.8655 68.3816 58.2249 67.9749 58.3941 67.5655C58.6689 66.941 58.3703 66.4713 57.4981 66.1564C57.6408 65.9413 57.699 65.7025 57.6725 65.4401C57.6514 65.1724 57.543 64.9468 57.3474 64.7631C56.8822 64.296 56.1765 64.2593 55.2303 64.6529C53.7661 65.2721 52.849 64.7185 52.4789 62.9919C51.9767 63.1965 51.4059 63.3881 50.7662 63.5665C49.4764 63.9234 48.4774 64.0284 47.769 63.8814C47.5681 63.8447 47.3858 63.905 47.2219 64.0625C47.0475 64.2199 46.9417 64.4587 46.9047 64.7788ZM86.7091 38.2341C86.1117 37.6463 85.1999 37.7329 83.9735 38.4939L82.2132 39.5723L82.2053 39.5802C82.2529 39.8636 82.3665 40.5065 82.5463 41.5089C82.6837 42.548 82.6758 43.5215 82.5225 44.4294C82.0837 47.1427 80.4213 49.4203 77.535 51.2624C77.5668 51.2939 77.5932 51.328 77.6143 51.3648C78.5394 52.4668 79.4539 52.6715 80.3578 51.9788C80.7437 52.3094 81.1824 52.48 81.6741 52.4905C82.2925 52.4957 82.6916 52.173 82.8714 51.5222C83.0722 50.798 83.3312 50.3204 83.6484 50.0895C83.9391 49.8638 84.4545 49.7274 85.1946 49.6801C85.8554 49.6329 86.2545 49.255 86.3919 48.5465C86.5135 47.901 86.421 47.4051 86.1144 47.0587C85.8606 46.7648 85.9029 46.3397 86.2413 45.7834C86.5901 45.2061 87.0157 44.928 87.5178 44.949C87.7769 44.9595 87.9962 44.8309 88.176 44.5633C88.3504 44.3009 88.4403 43.9912 88.4455 43.6343C88.4667 42.7212 88.028 42.136 87.1293 41.8789C86.7276 41.6952 86.5426 41.3304 86.5743 40.7846C86.5954 40.3018 86.7355 39.9213 86.9945 39.6432C87.1108 39.5225 87.1452 39.3178 87.0976 39.0292C87.0447 38.7143 86.9152 38.4493 86.7091 38.2341Z" fill="#342C1F"/>
<path d="M24.3065 55.5373C24.4545 55.2067 24.5629 54.876 24.6316 54.5454C24.6369 54.5192 24.6422 54.4877 24.6475 54.4509C24.6633 54.3617 24.6739 54.2699 24.6792 54.1754C24.7479 53.4669 24.621 52.8529 24.2986 52.3333C24.0554 51.945 23.7594 51.6957 23.4105 51.5855C23.4581 52.9185 22.8978 54.9154 21.7295 57.5762C21.9938 57.4397 22.2978 57.2508 22.6414 57.0094C23.318 56.5371 23.873 56.0464 24.3065 55.5373ZM12.4762 50.4677C11.6939 50.7196 11.308 50.9059 11.3186 51.0266C11.0067 51.1683 10.7582 51.3362 10.5732 51.5304C10.2719 51.8558 10.0446 52.3097 9.89132 52.8923C9.73802 53.5115 9.22527 54.3302 8.35306 55.3484C7.55486 56.2878 6.96546 56.8467 6.58486 57.0251C5.68094 57.4345 5.08625 57.9803 4.8008 58.6625C4.49949 59.3658 4.70565 59.9011 5.41927 60.2684C8.9081 62.1945 12.0348 62.7481 14.7995 61.9294C15.7245 61.6461 16.6073 61.2105 17.4478 60.6227C17.5747 60.5335 18.0531 60.1425 18.883 59.4497C19.9983 58.2374 20.889 56.8834 21.5551 55.3877C21.7612 54.9154 21.933 54.4614 22.0705 54.0259L22.2132 53.5063C20.638 51.1027 18.3491 49.9376 15.3466 50.0111C14.3581 50.0321 13.4013 50.1843 12.4762 50.4677ZM13.2612 46.6103C12.2251 47.2086 11.5855 48.0824 11.3424 49.2317C11.2736 49.5781 11.2472 49.9848 11.2631 50.4519C14.4347 49.2554 17.2258 49.237 19.6362 50.3968C20.4344 50.7799 21.1322 51.2706 21.7295 51.8689C22.1736 52.3097 22.4326 52.6456 22.5066 52.8765C22.6123 52.7663 22.7445 52.5065 22.903 52.0972L23.1171 51.5225C22.3665 47.8436 20.5005 45.9228 17.5192 45.7601C16.5888 45.7024 15.6003 45.8257 14.5537 46.1301L13.2612 46.6103Z" fill="#2E2F31"/>
<path d="M31.8787 57.2454L31.958 57.2611C32.8091 57.4973 33.713 57.7544 34.6698 58.0326C36.1499 58.4262 37.6485 58.7043 39.1656 58.867C39.192 58.8723 39.2132 58.8749 39.229 58.8749C39.8422 58.9431 40.4924 58.9956 41.1796 59.0323C40.8202 58.5967 40.5532 58.2687 40.3788 58.0483C40.0933 57.6809 39.7999 57.2664 39.4986 56.8045C39.2766 56.7258 39.0572 56.6523 38.8405 56.5841C38.2908 56.9882 37.1463 57.2139 35.4072 57.2611C33.5465 57.2296 32.3703 57.2244 31.8787 57.2454ZM56.9903 56.2377C56.7313 56.7783 56.3745 57.3267 55.9199 57.883C55.682 58.1664 55.4785 58.3894 55.3094 58.5521C58.2379 57.8279 60.0827 57.3608 60.8439 57.1509C62.6095 56.6733 64.1239 56.1957 65.3873 55.7182C68.1837 54.6686 71.0989 53.0495 74.1332 50.8611C72.653 51.8687 69.973 52.9813 66.093 54.1989C62.1126 55.4479 59.0783 56.1275 56.9903 56.2377Z" fill="#B88B54"/>
<path d="M31.879 57.2453L31.5222 57.1509L31.2129 57.9853C31.012 58.6676 30.9407 59.3393 30.9988 60.0006C31.1733 62.105 32.5556 63.6978 35.1458 64.7789C34.3476 64.1806 33.7106 63.6506 33.2348 63.1888C32.5159 62.4803 32.0058 61.7692 31.7045 61.0554C31.3874 60.3155 31.5116 59.788 32.0772 59.4731C32.6058 59.174 33.1371 59.2002 33.671 59.5519C34.7176 60.2446 36.0074 60.6487 37.5404 60.7642C38.3069 60.8219 38.965 60.8114 39.5147 60.7327C39.4143 60.4808 39.2029 60.2472 38.8804 60.0321C39.0231 59.9166 39.1156 59.7828 39.1579 59.6306C39.2161 59.4364 39.2187 59.1819 39.1659 58.867C37.6487 58.7043 36.1501 58.4261 34.67 58.0325C33.7132 57.7544 32.8093 57.4972 31.9583 57.2611L31.879 57.2453ZM45.6043 61.1971C45.5937 61.1919 45.5779 61.1866 45.5567 61.1814C45.6149 62.147 45.8131 63.2491 46.1514 64.4877C46.5849 66.0306 47.1505 67.3689 47.8483 68.5024C49.6033 71.3469 51.8525 72.4122 54.596 71.6985C53.618 71.6408 52.5529 71.3102 51.4005 70.7066C49.9997 69.9719 48.8711 68.9931 48.0148 67.7703C47.1849 66.5738 46.8148 65.5766 46.9047 64.7789C46.9417 64.4588 47.0474 64.22 47.2219 64.0626C47.3857 63.9051 47.5681 63.8448 47.769 63.8815C48.4773 64.0285 49.4764 63.9235 50.7662 63.5666C51.4058 63.3882 51.9767 63.1966 52.4789 62.992C52.352 62.3727 52.2912 61.6038 52.2965 60.6854C51.8472 60.9321 51.427 61.1289 51.0358 61.2758C49.3812 61.8584 47.5708 61.8321 45.6043 61.1971ZM82.5462 41.509C82.3665 40.5066 82.2529 39.8637 82.2053 39.5803L80.445 40.6745C80.445 40.706 80.4477 40.7375 80.4529 40.769C80.5534 41.8029 80.5375 42.7554 80.4054 43.6266C80.0195 46.0302 78.7165 47.9877 76.4963 49.4992L76.7976 50.1211C77.0249 50.5567 77.2707 50.9371 77.535 51.2625C80.4212 49.4205 82.0837 47.1428 82.5224 44.4295C82.6757 43.5216 82.6837 42.5481 82.5462 41.509Z" fill="#2C2012"/>
<path d="M27.4623 56.9304L26.5505 57.4106C27.5073 57.0747 28.398 56.8963 29.2226 56.8753C29.9045 56.8543 30.671 56.9462 31.5221 57.1508L31.8789 57.2453C32.3705 57.2243 33.5466 57.2295 35.4074 57.261C37.1465 57.2138 38.2909 56.9881 38.8407 56.584C35.7695 55.6236 32.8383 55.4531 30.0472 56.0723C29.6349 56.1668 28.9874 56.3741 28.1046 56.6942L27.4623 56.9304ZM23.7832 47.5154C23.5506 47.5049 23.3815 47.434 23.2758 47.3028C23.5612 48.5938 24.037 49.4047 24.703 49.7353C25.036 49.8927 25.34 49.9216 25.6149 49.8219C26.2069 49.6277 26.5003 49.1711 26.495 48.4521C26.4897 47.9273 26.347 47.3684 26.0668 46.7754C26.014 46.9748 25.8686 47.1218 25.6307 47.2162C25.5567 47.2372 25.2924 47.2949 24.8378 47.3894C24.3515 47.4944 23.9999 47.5364 23.7832 47.5154Z" fill="#D9BC92"/>
<path d="M26.5506 57.4105L27.4624 56.9303L28.1047 56.6941C28.3056 56.5787 28.5329 56.4055 28.7866 56.1746C29.2782 55.7127 29.635 55.2037 29.857 54.6474C28.7734 55.4293 27.9118 55.9804 27.2721 56.3005C26.1885 56.8201 25.015 57.1271 23.7516 57.2215C23.8943 56.9959 24.0608 56.6075 24.2511 56.0565C24.4679 55.4424 24.5947 54.9386 24.6317 54.545C24.563 54.8757 24.4547 55.2063 24.3066 55.5369C24.2274 55.6944 24.1401 55.8518 24.045 56.0092C23.6274 56.6967 23.03 57.3318 22.253 57.9143C22.7922 57.888 23.5058 57.8723 24.3939 57.8671C25.1445 57.8251 25.8634 57.6729 26.5506 57.4105ZM80.445 36.2424C80.0697 35.6231 79.5622 34.9697 78.9226 34.2822C79.2504 35.0957 79.4962 35.7832 79.66 36.3447C79.8345 36.9482 79.9878 37.6515 80.1199 38.4544C80.4529 38.3285 80.786 38.1973 81.119 38.0608C81.0661 37.5203 80.8415 36.9141 80.445 36.2424Z" fill="#462C1B"/>
<path d="M11.3186 51.0264C11.3081 50.9057 11.6939 50.7193 12.4763 50.4674C13.4013 50.184 14.3581 50.0318 15.3466 50.0109C18.3491 49.9374 20.638 51.1025 22.2133 53.5061L22.0706 54.0256C21.9331 54.4612 21.7613 54.9152 21.5552 55.3875C20.8891 56.8832 19.9984 58.2372 18.883 59.4495C19.75 59.3393 20.3684 59.174 20.7385 58.9536C21.2036 58.5862 21.7085 58.2398 22.2529 57.9144C23.03 57.3319 23.6273 56.6969 24.0449 56.0094C24.1401 55.852 24.2273 55.6945 24.3066 55.5371C23.8731 56.0461 23.3181 56.5368 22.6415 57.0092C22.2979 57.2506 21.9939 57.4395 21.7296 57.5759C22.8978 54.9152 23.4582 52.9183 23.4106 51.5853C23.3471 51.559 23.2758 51.5433 23.1965 51.538C23.1701 51.5328 23.1436 51.5275 23.1172 51.5223L22.9031 52.097C22.7445 52.5063 22.6124 52.7661 22.5067 52.8763C22.4326 52.6454 22.1736 52.3095 21.7296 51.8687C21.1323 51.2704 20.4345 50.7797 19.6363 50.3966C17.2258 49.2368 14.4348 49.2551 11.2631 50.4517C11.2737 50.6354 11.2922 50.8269 11.3186 51.0264Z" fill="#26231C"/>
<path d="M90.61 19.0498C89.0823 18.7454 87.5308 18.9501 85.9555 19.6639C84.3327 20.3933 83.2121 21.4377 82.5936 22.797C82.102 23.5999 81.7769 24.1221 81.6183 24.3635C81.1373 25.0667 80.6087 25.6886 80.0325 26.2292C78.4308 27.7406 76.2952 28.827 73.6257 29.4882C67.3775 25.2793 60.384 24.4212 52.6452 26.9141C50.0867 27.738 47.486 28.9241 44.8429 30.4723C43.9866 30.9761 43.0853 31.5429 42.1391 32.1726C41.2616 32.7709 40.6933 33.154 40.4343 33.322C39.1128 33.5214 37.4133 34.117 35.3359 35.1089C34.7227 35.4028 33.6232 35.9854 32.0373 36.8565C31.4664 37.1714 30.8189 37.4312 30.0947 37.6359C29.0269 37.935 28.0014 38.0478 27.0182 37.9744C25.0623 37.3761 23.191 37.2344 21.4043 37.5493C19.7974 37.8379 18.349 38.4703 17.0592 39.4465C15.8751 40.3491 14.9421 41.4538 14.2602 42.7606C13.5941 44.0306 13.2611 45.3138 13.2611 46.6101L14.5536 46.1299C15.6002 45.8255 16.5887 45.7022 17.5191 45.7599C20.5004 45.9226 22.3664 47.8434 23.117 51.5223C23.1435 51.5275 23.1699 51.5328 23.1963 51.538H23.236C23.3258 51.5485 23.384 51.5642 23.4104 51.5852C23.7593 51.6954 24.0553 51.9447 24.2985 52.3331C24.6209 52.8526 24.7478 53.4667 24.6791 54.1752C24.6738 54.2696 24.6632 54.3615 24.6474 54.4507C24.6421 54.4874 24.6368 54.5189 24.6315 54.5452C24.5945 54.9388 24.4676 55.4426 24.2509 56.0566C24.0606 56.6076 23.8941 56.996 23.7514 57.2217C25.0147 57.1272 26.1883 56.8202 27.2719 56.3006C27.9115 55.9805 28.7732 55.4295 29.8568 54.6475C29.6348 55.2038 29.278 55.7129 28.7864 56.1747C28.5326 56.4056 28.3053 56.5788 28.1045 56.6942C28.9873 56.3741 29.6348 56.1668 30.0471 56.0723C32.8382 55.4531 35.7693 55.6236 38.8405 56.584C39.0573 56.6523 39.2766 56.7257 39.4987 56.8045C39.8 57.2663 40.0933 57.6809 40.3788 58.0482C40.5532 58.2687 40.8202 58.5967 41.1796 59.0322C42.776 60.0346 44.235 60.751 45.5565 61.1813C45.5777 61.1866 45.5935 61.1918 45.6041 61.1971C47.5705 61.8321 49.381 61.8583 51.0356 61.2758C51.4268 61.1289 51.847 60.9321 52.2963 60.6854C53.1844 60.1921 54.1887 59.481 55.3094 58.5521C55.4785 58.3894 55.6821 58.1663 55.9199 57.8829C56.3745 57.3266 56.7313 56.7782 56.9904 56.2377C59.0784 56.1274 62.1126 55.4478 66.093 54.1988C69.973 52.9812 72.6531 51.8686 74.1332 50.861L74.2759 50.7587C74.2971 50.7377 74.3208 50.7193 74.3473 50.7036C75.1349 50.3362 75.8512 49.9347 76.4961 49.4991C78.7162 47.9877 80.0193 46.0302 80.4051 43.6265C80.5373 42.7554 80.5532 41.8028 80.4527 40.769C80.4474 40.7375 80.4448 40.706 80.4448 40.6745C80.3972 40.2074 80.2888 39.4674 80.1197 38.4546C79.9875 37.6516 79.8343 36.9484 79.6598 36.3448C79.4959 35.7833 79.2501 35.0958 78.9224 34.2824C79.562 34.9699 80.0695 35.6232 80.4448 36.2425C80.8412 36.9143 81.0659 37.5204 81.1188 38.061C83.6032 37.0428 85.9027 35.8699 88.0171 34.5421C91.4267 32.3957 93.4248 30.3306 94.0116 28.3468C94.8521 25.5916 94.8838 23.3769 94.1067 21.7027C93.4354 20.27 92.2698 19.3857 90.61 19.0498ZM24.7663 45.1144C25.0042 45.1826 25.2183 45.2849 25.4086 45.4214C25.8103 45.2954 26.2966 45.1564 26.8675 45.0042C27.1794 44.9307 27.5653 44.831 28.0252 44.705C28.3371 44.6316 28.604 44.6788 28.826 44.8467C29.0269 45.0042 29.1458 45.2141 29.1828 45.4765C29.2198 45.7494 29.1538 45.9619 28.9846 46.1141C28.7943 46.3031 28.5089 46.3634 28.1283 46.2952C27.6948 46.2375 27.3116 46.2191 26.9785 46.2401C26.8147 46.2506 26.5081 46.2847 26.0588 46.3424C26.0905 46.4999 26.0931 46.6389 26.0667 46.7596C26.0667 46.7649 26.0667 46.7701 26.0667 46.7754C26.3468 47.3684 26.4896 47.9273 26.4949 48.4521C26.5001 49.1711 26.2068 49.6277 25.6147 49.8219C25.3398 49.9216 25.0359 49.8927 24.7029 49.7353C24.0368 49.4047 23.5611 48.5938 23.2756 47.3028C23.2069 47.2241 23.162 47.127 23.1408 47.0115C23.0562 46.576 23.0748 46.1902 23.1963 45.8543C23.3549 45.4293 23.6615 45.1669 24.1161 45.0671C24.2958 45.0252 24.5126 45.0409 24.7663 45.1144Z" fill="#523C2F"/>
<path d="M26.0588 46.3426C26.0059 45.9962 25.805 45.6971 25.4562 45.4452C25.4403 45.4399 25.4244 45.4321 25.4086 45.4216C25.2183 45.2851 25.0042 45.1828 24.7663 45.1146C24.5126 45.0411 24.2959 45.0253 24.1161 45.0673C23.6615 45.167 23.3549 45.4295 23.1964 45.8545C23.0748 46.1904 23.0563 46.5762 23.1409 47.0117C23.162 47.1272 23.2069 47.2243 23.2757 47.303C23.3814 47.4342 23.5505 47.5051 23.7831 47.5156C23.9998 47.5366 24.3514 47.4946 24.8377 47.3896C25.2923 47.2951 25.5566 47.2374 25.6306 47.2164C25.8685 47.122 26.0139 46.975 26.0667 46.7756C26.0667 46.7703 26.0667 46.7651 26.0667 46.7598C26.0931 46.6391 26.0905 46.5001 26.0588 46.3426Z" fill="#11110F"/>
<path d="M25.4563 45.4451C25.8052 45.6971 26.006 45.9962 26.0589 46.3426C26.5082 46.2848 26.8148 46.2507 26.9787 46.2402C27.3117 46.2192 27.6949 46.2376 28.1284 46.2953C28.509 46.3636 28.7944 46.3032 28.9847 46.1143C29.1539 45.9621 29.22 45.7495 29.183 45.4766C29.146 45.2142 29.027 45.0043 28.8262 44.8469C28.6041 44.6789 28.3372 44.6317 28.0253 44.7052C27.5654 44.8311 27.1795 44.9308 26.8677 45.0043C26.2968 45.1565 25.8104 45.2956 25.4087 45.4215C25.4245 45.432 25.4404 45.4399 25.4563 45.4451Z" fill="#1E1B16"/>
<path d="M14.1029 108V93.2H17.9629C20.3029 93.2 22.7829 94.12 22.7829 98.28C22.7829 102.78 20.1229 103.48 17.9229 103.48H17.4829V108H14.1029ZM17.4829 100.7H18.0829C19.0229 100.7 19.4229 100.16 19.4229 98.34C19.4229 96.6 19.0229 96.12 18.0629 96.12H17.4829V100.7ZM24.7895 108V93.2H28.0695V108H24.7895ZM32.3151 108.1C31.0951 108.1 30.0151 107.36 30.0151 105.2C30.0151 102.84 32.2351 101.4 34.7151 100.9V100.62C34.7151 100.02 34.6151 99.82 34.0551 99.82C33.3151 99.82 32.3351 100.42 31.8751 100.8L30.3551 98.72C31.5151 97.68 33.0951 97.14 34.6551 97.14C37.0151 97.14 37.8551 98.24 37.8551 100.46V105.4C37.8551 106.68 37.9151 107.46 38.0751 108H34.8751C34.7751 107.66 34.7151 107.26 34.7151 106.58C34.1951 107.5 33.4551 108.1 32.3151 108.1ZM33.7751 105.48C34.1951 105.48 34.5351 105.24 34.7151 105.12V103.08C33.7551 103.4 33.1551 103.9 33.1551 104.66C33.1551 105.18 33.3951 105.48 33.7751 105.48ZM43.7479 108.08C41.5279 108.08 40.6679 107.4 40.6679 105.58V99.74H39.5279V97.3H40.6679V93.68H43.9279V97.3H45.7279V99.74H43.9279V104.54C43.9279 105.58 44.1679 105.7 44.8879 105.7C45.1679 105.7 45.5679 105.64 45.6279 105.62V107.94C45.4479 108 44.5679 108.08 43.7479 108.08ZM49.0885 112.04C47.9685 112.04 47.2285 111.9 46.7685 111.76L47.3085 109.12C47.5885 109.18 47.9685 109.26 48.4485 109.26C49.1085 109.26 49.3285 109.08 49.4685 108.56L49.6085 108.04L46.9485 97.3H50.3485L50.9885 101.78C51.1085 102.66 51.1485 103.1 51.2885 104.6H51.3685C51.5085 103.22 51.5685 102.64 51.7085 101.8L52.4285 97.3H55.5485L52.5485 108.9C52.0085 111 51.1885 112.04 49.0885 112.04ZM57.0489 112V97.3H60.3289V98.56C60.7289 97.88 61.4489 97.14 62.5489 97.14C64.2489 97.14 65.3289 98.72 65.3289 102.64C65.3289 106.56 64.2289 108.12 62.5289 108.12C61.5489 108.12 60.8089 107.62 60.3289 106.8V112H57.0489ZM61.1889 105.48C61.7889 105.48 62.0089 104.9 62.0089 102.66C62.0089 100.52 61.8289 99.98 61.1689 99.98C60.7889 99.98 60.5089 100.24 60.3289 100.4V105.1C60.5889 105.3 60.8089 105.48 61.1889 105.48ZM69.2285 108.14C68.0085 108.14 67.1685 107.66 67.1685 105.72V97.3H70.4285V104.6C70.4285 105.06 70.5685 105.3 70.9085 105.3C71.2685 105.3 71.6285 105.06 71.8885 104.88V97.3H75.1685V108H71.8885V106.68C71.4285 107.32 70.3885 108.14 69.2285 108.14ZM80.9673 108.18C78.7873 108.18 77.5673 107.06 76.8273 105.46L79.1673 104.36C79.6273 105.38 80.3073 105.82 80.9073 105.82C81.2873 105.82 81.6873 105.66 81.6873 105.2C81.6873 103.86 77.2073 104.02 77.2073 100.32C77.2073 97.98 79.3273 97.08 80.8073 97.08C82.6473 97.08 83.8673 97.8 84.6873 99.58L82.3073 100.72C81.9273 99.86 81.4273 99.54 80.8873 99.54C80.5473 99.54 80.2873 99.74 80.2873 100.12C80.2873 101.56 84.7673 101.34 84.7673 105.02C84.7673 107 83.2673 108.18 80.9673 108.18Z" fill="#3A2E27"/>
</svg>
