<svg width="99" height="130" viewBox="0 0 99 130" fill="none" xmlns="http://www.w3.org/2000/svg">
<path d="M13.04 28.6919C12.4175 29.5928 11.9507 30.5483 11.6394 31.5585C10.815 34.2121 11.1917 36.7101 12.7697 39.0525C14.2603 41.2693 15.6335 43.153 16.8893 44.7037C17.5227 45.4735 18.0032 46.025 18.3308 46.3581L17.0941 26.759L14.678 26.8819C14.1156 27.3242 13.5696 27.9275 13.04 28.6919Z" fill="#8B583A"/>
<path d="M14.678 12.0655L14.7435 11.1318C13.8262 11.1318 13.1601 11.2956 12.7451 11.6232C12.6086 11.7324 12.4831 11.8717 12.3684 12.0409C12.2264 12.2593 12.15 12.374 12.1391 12.3849C12.008 12.5378 12.1145 12.7972 12.4585 13.163C12.6277 13.3486 12.8107 13.5206 13.0072 13.679L14.678 12.0655Z" fill="#070707"/>
<path d="M14.678 26.8819C14.1156 27.3242 13.5696 27.9275 13.04 28.6919C12.4175 29.5928 11.9507 30.5483 11.6394 31.5585C10.815 34.2121 11.1917 36.7101 12.7697 39.0525C14.2603 41.2693 15.6335 43.153 16.8893 44.7037C17.5227 45.4735 18.0032 46.025 18.3308 46.3581L17.0941 26.759L14.678 26.8819Z" stroke="#835539" stroke-width="0.00819015" stroke-linecap="round" stroke-linejoin="round"/>
<path d="M14.7435 11.1318C13.8262 11.1318 13.1601 11.2956 12.7451 11.6232C12.6086 11.7324 12.4831 11.8717 12.3684 12.0409C12.2264 12.2593 12.15 12.374 12.1391 12.3849C12.008 12.5378 12.1145 12.7972 12.4585 13.163C12.6277 13.3486 12.8107 13.5206 13.0072 13.679L14.678 12.0655L14.7435 11.1318Z" stroke="#070707" stroke-width="0.00819015" stroke-linecap="round" stroke-linejoin="round"/>
<path d="M51.7184 61.6851L39.0188 77.1206L46.9658 74.2507M27.6026 81.2386L39.0188 77.1206" stroke="#B9605E" stroke-width="2.29324" stroke-linecap="round" stroke-linejoin="round"/>
<path d="M31.9146 77.0115L39.0189 77.1208L37.6227 83.8055" stroke="#B9605E" stroke-width="2.29324" stroke-linecap="round" stroke-linejoin="round"/>
<path d="M40.1537 56.2363L27.4541 71.6719L35.401 68.8019M16.0378 75.7899L27.4541 71.6719" stroke="#B9605E" stroke-width="2.29324" stroke-linecap="round" stroke-linejoin="round"/>
<path d="M20.3499 71.5623L27.4542 71.6716L26.058 78.3563" stroke="#B9605E" stroke-width="2.29324" stroke-linecap="round" stroke-linejoin="round"/>
<path d="M73.5812 53.7621C73.6576 54.2098 73.7368 54.7094 73.8187 55.2609C75.1182 54.7804 76.3139 54.8377 77.406 55.4329C79.3771 56.503 84.283 59.2495 92.1237 63.6722L92.4677 63.8196C92.757 63.9561 93.0492 64.1199 93.344 64.311C93.5406 64.4366 93.7399 64.4802 93.9419 64.442C94.1657 64.3983 94.2941 64.2646 94.3268 64.0407C94.4087 63.4128 93.7399 62.389 92.3202 60.9694C91.2883 59.9375 89.7977 58.5342 87.8484 56.7597C85.4187 54.5538 83.019 52.4571 80.6493 50.4696C73.9879 44.8949 69.052 41.4277 65.8415 40.0681C63.7776 37.4145 62.3798 35.64 61.6481 34.7445C59.7644 32.4404 57.9762 30.442 56.2836 28.7493C51.6043 24.0646 47.1843 21.1926 43.0237 20.1333C42.101 19.6637 41.5822 19.3935 41.4676 19.3225C41.0854 19.0986 40.725 18.8229 40.3865 18.4953C40.0698 18.184 39.5866 17.6326 38.9368 16.8409C37.9485 15.6287 37.0585 14.5394 36.2668 13.573C35.0492 11.9568 33.7388 10.5918 32.3356 9.47791C30.6539 8.13473 28.9203 7.23381 27.1348 6.77516C22.6685 5.61762 18.1912 7.23927 13.703 11.6401C13.1624 12.3281 12.8048 12.8659 12.6301 13.2536C12.4608 13.6303 12.4007 14.0262 12.4499 14.4411C12.4717 14.6268 12.5864 15.1428 12.7939 15.9891C13.0177 16.8791 13.1924 17.7636 13.318 18.6427C13.662 21.1216 13.8586 23.0272 13.9077 24.3594C13.9623 25.9156 13.8504 27.2888 13.5719 28.4791C12.3762 33.6443 12.3325 38.5093 13.4409 43.0739C14.4237 47.1417 16.2911 50.7044 19.0429 53.7621C22.4227 57.5241 27.0666 60.4343 32.9744 62.4928C36.2559 63.6503 40.1735 64.1117 44.7273 63.8769C48.4128 63.6913 52.4205 63.0606 56.7504 61.985C59.9555 61.1878 63.1333 60.2023 66.2837 59.0283C66.9936 58.7663 67.657 58.5096 68.2739 58.2585C68.2576 58.2475 68.2439 58.2366 68.233 58.2257C67.9163 58.0128 67.6105 57.7889 67.3157 57.5541L66.9553 57.2756L73.401 52.7629L73.5812 53.7621ZM73.2699 55.4902C73.4556 55.4028 73.6385 55.3264 73.8187 55.2609C73.7368 54.7094 73.6576 54.2098 73.5812 53.7621L73.401 52.7629L66.9553 57.2756L67.3157 57.5541C67.6105 57.7889 67.9163 58.0128 68.233 58.2257C68.2439 58.2366 68.2576 58.2475 68.2739 58.2585C68.6179 58.1165 68.9483 57.98 69.265 57.849C69.9802 57.5377 70.4198 57.3302 70.5836 57.2265C70.7583 57.1228 71.1214 56.8634 71.6729 56.4484C72.2516 56.0389 72.784 55.7195 73.2699 55.4902ZM74.1053 57.3248C74.0071 56.5658 73.9115 55.8779 73.8187 55.2609C73.6385 55.3264 73.4556 55.4028 73.2699 55.4902C72.784 55.7195 72.2516 56.0389 71.6729 56.4484C71.1214 56.8634 70.7583 57.1228 70.5836 57.2265C70.4198 57.3302 69.9802 57.5377 69.265 57.849C68.9483 57.98 68.6179 58.1165 68.2739 58.2585C69.2622 58.9246 70.1468 59.3751 70.9276 59.6098L71.4108 59.7081C71.8039 59.7573 72.1643 59.7491 72.4919 59.6835C73.5402 59.4597 74.078 58.6734 74.1053 57.3248Z" fill="#CFCFCF"/>
<path d="M73.8187 55.2605C73.9115 55.8775 74.007 56.5655 74.1053 57.3244C74.078 58.6731 73.5402 59.4593 72.4919 59.6832C72.1642 59.7487 71.8039 59.7569 71.4108 59.7078L70.9275 59.6095C70.1467 59.3747 69.2622 58.9242 68.2739 58.2581C68.6179 58.1161 68.9482 57.9796 69.2649 57.8486C69.9802 57.5374 70.4197 57.3299 70.5835 57.2261C70.7583 57.1224 71.1214 56.863 71.6728 56.4481C72.2516 56.0386 72.784 55.7192 73.2699 55.4898C73.4556 55.4025 73.6385 55.326 73.8187 55.2605Z" stroke="#CFCFCF" stroke-width="0.0163803" stroke-linecap="round" stroke-linejoin="round"/>
<mask id="mask0_1808_2962" style="mask-type:luminance" maskUnits="userSpaceOnUse" x="12" y="6" width="83" height="59">
<path d="M74.1053 57.3248C74.0071 56.5658 73.9115 55.8779 73.8187 55.2609C73.6385 55.3264 73.4556 55.4028 73.2699 55.4902C72.784 55.7195 72.2516 56.0389 71.6729 56.4484C71.1214 56.8634 70.7583 57.1228 70.5836 57.2265C70.4198 57.3302 69.9802 57.5377 69.265 57.849C68.9483 57.98 68.6179 58.1165 68.2739 58.2585C69.2622 58.9246 70.1468 59.3751 70.9276 59.6098L71.4108 59.7081C71.8039 59.7573 72.1643 59.7491 72.4919 59.6835C73.5402 59.4597 74.078 58.6734 74.1053 57.3248ZM73.401 52.7629L73.5812 53.7621C73.6576 54.2098 73.7368 54.7094 73.8187 55.2609C75.1182 54.7804 76.3139 54.8377 77.406 55.4329C79.3771 56.503 84.283 59.2495 92.1237 63.6722L92.4677 63.8196C92.757 63.9561 93.0492 64.1199 93.344 64.311C93.5406 64.4366 93.7399 64.4802 93.9419 64.442C94.1657 64.3983 94.2941 64.2646 94.3268 64.0407C94.4087 63.4128 93.7399 62.389 92.3202 60.9694C91.2883 59.9375 89.7977 58.5342 87.8484 56.7597C85.4187 54.5538 83.019 52.4571 80.6493 50.4696C73.9879 44.8949 69.052 41.4277 65.8415 40.0681C63.7776 37.4145 62.3798 35.64 61.6481 34.7445C59.7644 32.4404 57.9762 30.442 56.2836 28.7493C51.6043 24.0646 47.1843 21.1926 43.0237 20.1333C42.101 19.6637 41.5822 19.3935 41.4676 19.3225C41.0854 19.0986 40.725 18.8229 40.3865 18.4953C40.0698 18.184 39.5866 17.6326 38.9368 16.8409C37.9485 15.6287 37.0585 14.5394 36.2668 13.573C35.0492 11.9568 33.7388 10.5918 32.3356 9.47791C30.6539 8.13473 28.9203 7.23381 27.1348 6.77516C22.6685 5.61762 18.1912 7.23927 13.703 11.6401C13.1624 12.3281 12.8048 12.8659 12.6301 13.2536C12.4608 13.6303 12.4007 14.0262 12.4499 14.4411C12.4717 14.6268 12.5864 15.1428 12.7939 15.9891C13.0177 16.8791 13.1924 17.7636 13.318 18.6427C13.662 21.1216 13.8586 23.0272 13.9077 24.3594C13.9623 25.9156 13.8504 27.2888 13.5719 28.4791C12.3762 33.6443 12.3325 38.5093 13.4409 43.0739C14.4237 47.1417 16.2911 50.7044 19.0429 53.7621C22.4227 57.5241 27.0666 60.4343 32.9744 62.4928C36.2559 63.6503 40.1735 64.1117 44.7273 63.8769C48.4128 63.6913 52.4205 63.0606 56.7504 61.985C59.9555 61.1878 63.1333 60.2023 66.2837 59.0283C66.9936 58.7663 67.657 58.5096 68.2739 58.2585C68.2576 58.2475 68.2439 58.2366 68.233 58.2257C67.9163 58.0128 67.6105 57.7889 67.3157 57.5541L66.9553 57.2756L73.401 52.7629ZM73.5812 53.7621L73.401 52.7629L66.9553 57.2756L67.3157 57.5541C67.6105 57.7889 67.9163 58.0128 68.233 58.2257C68.2439 58.2366 68.2576 58.2475 68.2739 58.2585C68.6179 58.1165 68.9483 57.98 69.265 57.849C69.9802 57.5377 70.4198 57.3302 70.5836 57.2265C70.7583 57.1228 71.1214 56.8634 71.6729 56.4484C72.2516 56.0389 72.784 55.7195 73.2699 55.4902C73.4556 55.4028 73.6385 55.3264 73.8187 55.2609C73.7368 54.7094 73.6576 54.2098 73.5812 53.7621Z" fill="white"/>
</mask>
<g mask="url(#mask0_1808_2962)">
<path d="M32.2947 24.0071C33.2174 23.128 34.2576 22.4346 35.4151 21.9268C35.9993 21.6756 36.488 21.5118 36.8812 21.4354L28.3224 4.50635L13.6866 5.16975L4.38263 20.9931L8.40399 40.0844L13.5556 45.1131C16.4167 49.0662 18.669 51.5014 20.3125 52.4187C20.9513 52.7736 21.6092 52.9675 22.2863 53.0002C22.6849 53.0166 23.2882 52.992 24.0963 52.9265C24.8007 52.9101 25.4504 52.659 26.0456 52.173C26.7445 51.6052 27.3232 50.7425 27.7819 49.5849C28.9012 46.7239 29.1824 42.3394 28.6255 36.4316C28.3416 33.423 28.5982 30.794 29.3954 28.5444C30.0287 26.7481 30.9952 25.2356 32.2947 24.0071Z" fill="#DB6D09"/>
<path d="M13.5556 45.1131C16.4167 49.0662 18.669 51.5014 20.3125 52.4187C20.9513 52.7736 21.6092 52.9675 22.2863 53.0002C22.6849 53.0166 23.2882 52.992 24.0963 52.9265C24.8007 52.9101 25.4504 52.659 26.0456 52.173C26.7445 51.6052 27.3232 50.7425 27.7819 49.5849C28.9012 46.7239 29.1824 42.3394 28.6255 36.4316C28.3416 33.423 28.5982 30.794 29.3954 28.5444C30.0287 26.7481 30.9952 25.2356 32.2947 24.0071C33.2174 23.128 34.2576 22.4346 35.4151 21.9268C35.9993 21.6756 36.488 21.5118 36.8812 21.4354L28.3224 4.50635L13.6866 5.16975L4.38263 20.9931L8.40399 40.0844L13.5556 45.1131Z" stroke="#DB6D09" stroke-width="0.0163803" stroke-linecap="round" stroke-linejoin="round"/>
</g>
<mask id="mask1_1808_2962" style="mask-type:luminance" maskUnits="userSpaceOnUse" x="12" y="6" width="83" height="59">
<path d="M74.1053 57.3248C74.0071 56.5658 73.9115 55.8779 73.8187 55.2609C73.6385 55.3264 73.4556 55.4028 73.2699 55.4902C72.784 55.7195 72.2516 56.0389 71.6729 56.4484C71.1214 56.8634 70.7583 57.1228 70.5836 57.2265C70.4198 57.3302 69.9802 57.5377 69.265 57.849C68.9483 57.98 68.6179 58.1165 68.2739 58.2585C69.2622 58.9246 70.1468 59.3751 70.9276 59.6098L71.4108 59.7081C71.8039 59.7573 72.1643 59.7491 72.4919 59.6835C73.5402 59.4597 74.078 58.6734 74.1053 57.3248ZM73.401 52.7629L73.5812 53.7621C73.6576 54.2098 73.7368 54.7094 73.8187 55.2609C75.1182 54.7804 76.3139 54.8377 77.406 55.4329C79.3771 56.503 84.283 59.2495 92.1237 63.6722L92.4677 63.8196C92.757 63.9561 93.0492 64.1199 93.344 64.311C93.5406 64.4366 93.7399 64.4802 93.9419 64.442C94.1657 64.3983 94.2941 64.2646 94.3268 64.0407C94.4087 63.4128 93.7399 62.389 92.3202 60.9694C91.2883 59.9375 89.7977 58.5342 87.8484 56.7597C85.4187 54.5538 83.019 52.4571 80.6493 50.4696C73.9879 44.8949 69.052 41.4277 65.8415 40.0681C63.7776 37.4145 62.3798 35.64 61.6481 34.7445C59.7644 32.4404 57.9762 30.442 56.2836 28.7493C51.6043 24.0646 47.1843 21.1926 43.0237 20.1333C42.101 19.6637 41.5822 19.3935 41.4676 19.3225C41.0854 19.0986 40.725 18.8229 40.3865 18.4953C40.0698 18.184 39.5866 17.6326 38.9368 16.8409C37.9485 15.6287 37.0585 14.5394 36.2668 13.573C35.0492 11.9568 33.7388 10.5918 32.3356 9.47791C30.6539 8.13473 28.9203 7.23381 27.1348 6.77516C22.6685 5.61762 18.1912 7.23927 13.703 11.6401C13.1624 12.3281 12.8048 12.8659 12.6301 13.2536C12.4608 13.6303 12.4007 14.0262 12.4499 14.4411C12.4717 14.6268 12.5864 15.1428 12.7939 15.9891C13.0177 16.8791 13.1924 17.7636 13.318 18.6427C13.662 21.1216 13.8586 23.0272 13.9077 24.3594C13.9623 25.9156 13.8504 27.2888 13.5719 28.4791C12.3762 33.6443 12.3325 38.5093 13.4409 43.0739C14.4237 47.1417 16.2911 50.7044 19.0429 53.7621C22.4227 57.5241 27.0666 60.4343 32.9744 62.4928C36.2559 63.6503 40.1735 64.1117 44.7273 63.8769C48.4128 63.6913 52.4205 63.0606 56.7504 61.985C59.9555 61.1878 63.1333 60.2023 66.2837 59.0283C66.9936 58.7663 67.657 58.5096 68.2739 58.2585C68.2576 58.2475 68.2439 58.2366 68.233 58.2257C67.9163 58.0128 67.6105 57.7889 67.3157 57.5541L66.9553 57.2756L73.401 52.7629ZM73.5812 53.7621L73.401 52.7629L66.9553 57.2756L67.3157 57.5541C67.6105 57.7889 67.9163 58.0128 68.233 58.2257C68.2439 58.2366 68.2576 58.2475 68.2739 58.2585C68.6179 58.1165 68.9483 57.98 69.265 57.849C69.9802 57.5377 70.4198 57.3302 70.5836 57.2265C70.7583 57.1228 71.1214 56.8634 71.6729 56.4484C72.2516 56.0389 72.784 55.7195 73.2699 55.4902C73.4556 55.4028 73.6385 55.3264 73.8187 55.2609C73.7368 54.7094 73.6576 54.2098 73.5812 53.7621Z" fill="white"/>
</mask>
<g mask="url(#mask1_1808_2962)">
<path d="M54.5718 53.9746C54.7301 53.9746 54.9485 54.062 55.227 54.2367C55.4891 54.406 56.5975 54.9383 58.5522 55.8338C60.567 56.7511 61.9566 57.3572 62.721 57.652C63.4417 57.9305 64.0369 57.865 64.5064 57.4555C64.8504 57.1606 65.1043 56.7101 65.2681 56.1041C65.3719 55.7164 59.9363 51.878 48.9615 44.5887C45.538 42.3119 41.7596 39.8248 37.6263 37.1275L32.4747 33.7695L28.0111 35.7515C42.8025 47.4962 50.6951 53.7426 51.6888 54.4906C52.3495 54.982 52.8901 55.1677 53.3105 55.0475C53.589 54.9711 53.8347 54.7418 54.0476 54.3596C54.1896 54.1029 54.3643 53.9746 54.5718 53.9746Z" fill="#B9605E" fill-opacity="0.439216"/>
<path d="M22.2044 12.762C21.7348 13.2261 21.5001 13.7885 21.5001 14.4491C21.5001 15.1098 21.7348 15.6749 22.2044 16.1445C22.674 16.6141 23.2391 16.8489 23.8998 16.8489C24.5604 16.8489 25.1228 16.6141 25.5869 16.1445C26.0565 15.6749 26.2913 15.1098 26.2913 14.4491C26.2913 13.7885 26.0565 13.2261 25.5869 12.762C25.1228 12.2924 24.5604 12.0576 23.8998 12.0576C23.2391 12.0576 22.674 12.2924 22.2044 12.762Z" fill="#070707"/>
</g>
<mask id="mask2_1808_2962" style="mask-type:luminance" maskUnits="userSpaceOnUse" x="12" y="6" width="83" height="59">
<path d="M74.1053 57.3248C74.0071 56.5658 73.9115 55.8779 73.8187 55.2609C73.6385 55.3264 73.4556 55.4028 73.2699 55.4902C72.784 55.7195 72.2516 56.0389 71.6729 56.4484C71.1214 56.8634 70.7583 57.1228 70.5836 57.2265C70.4198 57.3302 69.9802 57.5377 69.265 57.849C68.9483 57.98 68.6179 58.1165 68.2739 58.2585C69.2622 58.9246 70.1468 59.3751 70.9276 59.6098L71.4108 59.7081C71.8039 59.7573 72.1643 59.7491 72.4919 59.6835C73.5402 59.4597 74.078 58.6734 74.1053 57.3248ZM73.401 52.7629L73.5812 53.7621C73.6576 54.2098 73.7368 54.7094 73.8187 55.2609C75.1182 54.7804 76.3139 54.8377 77.406 55.4329C79.3771 56.503 84.283 59.2495 92.1237 63.6722L92.4677 63.8196C92.757 63.9561 93.0492 64.1199 93.344 64.311C93.5406 64.4366 93.7399 64.4802 93.9419 64.442C94.1657 64.3983 94.2941 64.2646 94.3268 64.0407C94.4087 63.4128 93.7399 62.389 92.3202 60.9694C91.2883 59.9375 89.7977 58.5342 87.8484 56.7597C85.4187 54.5538 83.019 52.4571 80.6493 50.4696C73.9879 44.8949 69.052 41.4277 65.8415 40.0681C63.7776 37.4145 62.3798 35.64 61.6481 34.7445C59.7644 32.4404 57.9762 30.442 56.2836 28.7493C51.6043 24.0646 47.1843 21.1926 43.0237 20.1333C42.101 19.6637 41.5822 19.3935 41.4676 19.3225C41.0854 19.0986 40.725 18.8229 40.3865 18.4953C40.0698 18.184 39.5866 17.6326 38.9368 16.8409C37.9485 15.6287 37.0585 14.5394 36.2668 13.573C35.0492 11.9568 33.7388 10.5918 32.3356 9.47791C30.6539 8.13473 28.9203 7.23381 27.1348 6.77516C22.6685 5.61762 18.1912 7.23927 13.703 11.6401C13.1624 12.3281 12.8048 12.8659 12.6301 13.2536C12.4608 13.6303 12.4007 14.0262 12.4499 14.4411C12.4717 14.6268 12.5864 15.1428 12.7939 15.9891C13.0177 16.8791 13.1924 17.7636 13.318 18.6427C13.662 21.1216 13.8586 23.0272 13.9077 24.3594C13.9623 25.9156 13.8504 27.2888 13.5719 28.4791C12.3762 33.6443 12.3325 38.5093 13.4409 43.0739C14.4237 47.1417 16.2911 50.7044 19.0429 53.7621C22.4227 57.5241 27.0666 60.4343 32.9744 62.4928C36.2559 63.6503 40.1735 64.1117 44.7273 63.8769C48.4128 63.6913 52.4205 63.0606 56.7504 61.985C59.9555 61.1878 63.1333 60.2023 66.2837 59.0283C66.9936 58.7663 67.657 58.5096 68.2739 58.2585C68.2576 58.2475 68.2439 58.2366 68.233 58.2257C67.9163 58.0128 67.6105 57.7889 67.3157 57.5541L66.9553 57.2756L73.401 52.7629ZM73.5812 53.7621L73.401 52.7629L66.9553 57.2756L67.3157 57.5541C67.6105 57.7889 67.9163 58.0128 68.233 58.2257C68.2439 58.2366 68.2576 58.2475 68.2739 58.2585C68.6179 58.1165 68.9483 57.98 69.265 57.849C69.9802 57.5377 70.4198 57.3302 70.5836 57.2265C70.7583 57.1228 71.1214 56.8634 71.6729 56.4484C72.2516 56.0389 72.784 55.7195 73.2699 55.4902C73.4556 55.4028 73.6385 55.3264 73.8187 55.2609C73.7368 54.7094 73.6576 54.2098 73.5812 53.7621Z" fill="white"/>
</mask>
<g mask="url(#mask2_1808_2962)">
<path d="M72.3362 51.1487C74.1217 51.9622 75.2192 52.4673 75.6287 52.6639C77.6435 53.6139 79.5299 54.5776 81.2881 55.555C86.6608 58.5362 90.5129 61.3973 92.8444 64.1383C95.1431 66.8465 97.4582 69.1124 99.7896 70.9361C100.953 71.8425 101.886 72.4813 102.591 72.8526L96.1532 22.6797L42.3849 4.66138L13.3016 5.17736L12.9576 9.9686C13.8968 9.9686 15.2099 10.1652 16.8971 10.5583C18.628 10.9623 19.9165 11.3855 20.7629 11.8278C21.3307 11.5056 22.0023 11.2845 22.7776 11.1644C23.6622 11.0279 24.4512 11.077 25.1446 11.3118C25.9745 11.5902 26.5806 12.109 26.9628 12.8679C27.4051 13.7579 27.5143 14.9455 27.2904 16.4306C29.5236 17.812 30.8504 19.39 31.2708 21.1645C31.7295 23.1192 31.0224 25.1095 29.1496 27.1352C27.6972 28.7623 26.9437 30.3566 26.8891 31.9182C26.8181 33.9002 27.9019 35.7102 30.1406 37.3483C32.3355 38.9535 36.3951 41.8256 42.3193 45.9643C47.7958 49.7864 50.9245 51.9513 51.7052 52.4591C52.3932 52.9068 52.9693 53.0215 53.4334 52.8031C53.9848 52.541 54.2224 51.8257 54.1459 50.6573C55.1014 51.1432 58.0772 52.683 63.0732 55.2765C67.7197 57.6735 70.316 58.9757 70.862 59.1832C71.2005 59.3143 71.5473 59.3716 71.9022 59.3552C72.2625 59.3334 72.5847 59.2378 72.8686 59.0686C73.5347 58.67 73.8296 58.0038 73.7531 57.0702C73.6876 56.2293 73.4856 55.1837 73.1471 53.9333C72.7485 52.5792 72.4782 51.651 72.3362 51.1487Z" fill="#815439"/>
<path d="M12.9576 9.9686C13.8968 9.9686 15.2099 10.1652 16.8971 10.5583C18.628 10.9623 19.9165 11.3855 20.7629 11.8278C21.3307 11.5056 22.0023 11.2845 22.7776 11.1644C23.6622 11.0279 24.4512 11.077 25.1446 11.3118C25.9745 11.5902 26.5806 12.109 26.9628 12.8679C27.4051 13.7579 27.5143 14.9455 27.2904 16.4306C29.5236 17.812 30.8504 19.39 31.2708 21.1645C31.7295 23.1192 31.0224 25.1095 29.1496 27.1352C27.6972 28.7623 26.9437 30.3566 26.8891 31.9182C26.8181 33.9002 27.9019 35.7102 30.1406 37.3483C32.3355 38.9535 36.3951 41.8256 42.3193 45.9643C47.7958 49.7864 50.9245 51.9513 51.7052 52.4591C52.3932 52.9068 52.9693 53.0215 53.4334 52.8031C53.9848 52.541 54.2224 51.8257 54.1459 50.6573C55.1014 51.1432 58.0772 52.683 63.0732 55.2765C67.7197 57.6735 70.316 58.9757 70.862 59.1832C71.2005 59.3143 71.5473 59.3716 71.9022 59.3552C72.2625 59.3334 72.5847 59.2378 72.8686 59.0686C73.5347 58.67 73.8296 58.0038 73.7531 57.0702C73.6876 56.2293 73.4856 55.1837 73.1471 53.9333C72.7485 52.5792 72.4782 51.651 72.3362 51.1487C74.1217 51.9622 75.2192 52.4673 75.6287 52.6639C77.6435 53.6139 79.5299 54.5776 81.2881 55.555C86.6608 58.5362 90.5129 61.3973 92.8444 64.1383C95.1431 66.8465 97.4582 69.1124 99.7896 70.9361C100.953 71.8425 101.886 72.4813 102.591 72.8526L96.1532 22.6797L42.3849 4.66138L13.3016 5.17736L12.9576 9.9686Z" stroke="#815439" stroke-width="1.63803" stroke-linecap="round" stroke-linejoin="round"/>
</g>
<mask id="mask3_1808_2962" style="mask-type:luminance" maskUnits="userSpaceOnUse" x="12" y="6" width="83" height="59">
<path d="M74.1053 57.3248C74.0071 56.5658 73.9115 55.8779 73.8187 55.2609C73.6385 55.3264 73.4556 55.4028 73.2699 55.4902C72.784 55.7195 72.2516 56.0389 71.6729 56.4484C71.1214 56.8634 70.7583 57.1228 70.5836 57.2265C70.4198 57.3302 69.9802 57.5377 69.265 57.849C68.9483 57.98 68.6179 58.1165 68.2739 58.2585C69.2622 58.9246 70.1468 59.3751 70.9276 59.6098L71.4108 59.7081C71.8039 59.7573 72.1643 59.7491 72.4919 59.6835C73.5402 59.4597 74.078 58.6734 74.1053 57.3248ZM73.401 52.7629L73.5812 53.7621C73.6576 54.2098 73.7368 54.7094 73.8187 55.2609C75.1182 54.7804 76.3139 54.8377 77.406 55.4329C79.3771 56.503 84.283 59.2495 92.1237 63.6722L92.4677 63.8196C92.757 63.9561 93.0492 64.1199 93.344 64.311C93.5406 64.4366 93.7399 64.4802 93.9419 64.442C94.1657 64.3983 94.2941 64.2646 94.3268 64.0407C94.4087 63.4128 93.7399 62.389 92.3202 60.9694C91.2883 59.9375 89.7977 58.5342 87.8484 56.7597C85.4187 54.5538 83.019 52.4571 80.6493 50.4696C73.9879 44.8949 69.052 41.4277 65.8415 40.0681C63.7776 37.4145 62.3798 35.64 61.6481 34.7445C59.7644 32.4404 57.9762 30.442 56.2836 28.7493C51.6043 24.0646 47.1843 21.1926 43.0237 20.1333C42.101 19.6637 41.5822 19.3935 41.4676 19.3225C41.0854 19.0986 40.725 18.8229 40.3865 18.4953C40.0698 18.184 39.5866 17.6326 38.9368 16.8409C37.9485 15.6287 37.0585 14.5394 36.2668 13.573C35.0492 11.9568 33.7388 10.5918 32.3356 9.47791C30.6539 8.13473 28.9203 7.23381 27.1348 6.77516C22.6685 5.61762 18.1912 7.23927 13.703 11.6401C13.1624 12.3281 12.8048 12.8659 12.6301 13.2536C12.4608 13.6303 12.4007 14.0262 12.4499 14.4411C12.4717 14.6268 12.5864 15.1428 12.7939 15.9891C13.0177 16.8791 13.1924 17.7636 13.318 18.6427C13.662 21.1216 13.8586 23.0272 13.9077 24.3594C13.9623 25.9156 13.8504 27.2888 13.5719 28.4791C12.3762 33.6443 12.3325 38.5093 13.4409 43.0739C14.4237 47.1417 16.2911 50.7044 19.0429 53.7621C22.4227 57.5241 27.0666 60.4343 32.9744 62.4928C36.2559 63.6503 40.1735 64.1117 44.7273 63.8769C48.4128 63.6913 52.4205 63.0606 56.7504 61.985C59.9555 61.1878 63.1333 60.2023 66.2837 59.0283C66.9936 58.7663 67.657 58.5096 68.2739 58.2585C68.2576 58.2475 68.2439 58.2366 68.233 58.2257C67.9163 58.0128 67.6105 57.7889 67.3157 57.5541L66.9553 57.2756L73.401 52.7629ZM73.5812 53.7621L73.401 52.7629L66.9553 57.2756L67.3157 57.5541C67.6105 57.7889 67.9163 58.0128 68.233 58.2257C68.2439 58.2366 68.2576 58.2475 68.2739 58.2585C68.6179 58.1165 68.9483 57.98 69.265 57.849C69.9802 57.5377 70.4198 57.3302 70.5836 57.2265C70.7583 57.1228 71.1214 56.8634 71.6729 56.4484C72.2516 56.0389 72.784 55.7195 73.2699 55.4902C73.4556 55.4028 73.6385 55.3264 73.8187 55.2609C73.7368 54.7094 73.6576 54.2098 73.5812 53.7621Z" fill="white"/>
</mask>
<g mask="url(#mask3_1808_2962)">
<path d="M70.7312 60.9035L75.0474 59.028L73.8189 55.2605L68.2168 58.34L70.7312 60.9035Z" fill="#815439"/>
<path d="M68.2168 58.34L73.8189 55.2605L75.0474 59.028L70.7312 60.9035L68.2168 58.34Z" stroke="#815439" stroke-width="0.0163803" stroke-linecap="round" stroke-linejoin="round"/>
</g>
<mask id="mask4_1808_2962" style="mask-type:luminance" maskUnits="userSpaceOnUse" x="12" y="6" width="83" height="59">
<path d="M74.1053 57.3248C74.0071 56.5658 73.9115 55.8779 73.8187 55.2609C73.6385 55.3264 73.4556 55.4028 73.2699 55.4902C72.784 55.7195 72.2516 56.0389 71.6729 56.4484C71.1214 56.8634 70.7583 57.1228 70.5836 57.2265C70.4198 57.3302 69.9802 57.5377 69.265 57.849C68.9483 57.98 68.6179 58.1165 68.2739 58.2585C69.2622 58.9246 70.1468 59.3751 70.9276 59.6098L71.4108 59.7081C71.8039 59.7573 72.1643 59.7491 72.4919 59.6835C73.5402 59.4597 74.078 58.6734 74.1053 57.3248ZM73.401 52.7629L73.5812 53.7621C73.6576 54.2098 73.7368 54.7094 73.8187 55.2609C75.1182 54.7804 76.3139 54.8377 77.406 55.4329C79.3771 56.503 84.283 59.2495 92.1237 63.6722L92.4677 63.8196C92.757 63.9561 93.0492 64.1199 93.344 64.311C93.5406 64.4366 93.7399 64.4802 93.9419 64.442C94.1657 64.3983 94.2941 64.2646 94.3268 64.0407C94.4087 63.4128 93.7399 62.389 92.3202 60.9694C91.2883 59.9375 89.7977 58.5342 87.8484 56.7597C85.4187 54.5538 83.019 52.4571 80.6493 50.4696C73.9879 44.8949 69.052 41.4277 65.8415 40.0681C63.7776 37.4145 62.3798 35.64 61.6481 34.7445C59.7644 32.4404 57.9762 30.442 56.2836 28.7493C51.6043 24.0646 47.1843 21.1926 43.0237 20.1333C42.101 19.6637 41.5822 19.3935 41.4676 19.3225C41.0854 19.0986 40.725 18.8229 40.3865 18.4953C40.0698 18.184 39.5866 17.6326 38.9368 16.8409C37.9485 15.6287 37.0585 14.5394 36.2668 13.573C35.0492 11.9568 33.7388 10.5918 32.3356 9.47791C30.6539 8.13473 28.9203 7.23381 27.1348 6.77516C22.6685 5.61762 18.1912 7.23927 13.703 11.6401C13.1624 12.3281 12.8048 12.8659 12.6301 13.2536C12.4608 13.6303 12.4007 14.0262 12.4499 14.4411C12.4717 14.6268 12.5864 15.1428 12.7939 15.9891C13.0177 16.8791 13.1924 17.7636 13.318 18.6427C13.662 21.1216 13.8586 23.0272 13.9077 24.3594C13.9623 25.9156 13.8504 27.2888 13.5719 28.4791C12.3762 33.6443 12.3325 38.5093 13.4409 43.0739C14.4237 47.1417 16.2911 50.7044 19.0429 53.7621C22.4227 57.5241 27.0666 60.4343 32.9744 62.4928C36.2559 63.6503 40.1735 64.1117 44.7273 63.8769C48.4128 63.6913 52.4205 63.0606 56.7504 61.985C59.9555 61.1878 63.1333 60.2023 66.2837 59.0283C66.9936 58.7663 67.657 58.5096 68.2739 58.2585C68.2576 58.2475 68.2439 58.2366 68.233 58.2257C67.9163 58.0128 67.6105 57.7889 67.3157 57.5541L66.9553 57.2756L73.401 52.7629ZM73.5812 53.7621L73.401 52.7629L66.9553 57.2756L67.3157 57.5541C67.6105 57.7889 67.9163 58.0128 68.233 58.2257C68.2439 58.2366 68.2576 58.2475 68.2739 58.2585C68.6179 58.1165 68.9483 57.98 69.265 57.849C69.9802 57.5377 70.4198 57.3302 70.5836 57.2265C70.7583 57.1228 71.1214 56.8634 71.6729 56.4484C72.2516 56.0389 72.784 55.7195 73.2699 55.4902C73.4556 55.4028 73.6385 55.3264 73.8187 55.2609C73.7368 54.7094 73.6576 54.2098 73.5812 53.7621Z" fill="white"/>
</mask>
<g mask="url(#mask4_1808_2962)">
<path d="M14.3911 42.1884C13.9707 40.5995 13.5939 38.6721 13.2609 36.4062C12.9387 33.971 12.6903 32.2155 12.5156 31.1399L11.7621 52.1067L41.5333 68.9702L42.5734 68.8146C43.4525 68.6726 44.3725 68.5143 45.3335 68.3396C48.3912 67.7717 51.2222 67.1329 53.8267 66.4231C57.4741 65.4239 60.4089 64.3455 62.6311 63.188C65.4049 61.7465 66.9828 60.2231 67.365 58.6179C54.7358 60.8074 44.3944 61.296 36.3407 60.0839C29.4828 59.0519 24.2057 56.7669 20.5092 53.2287C18.9367 51.7218 17.6262 49.9691 16.5779 47.9707C15.6879 46.278 14.959 44.3506 14.3911 42.1884Z" fill="#B9605E" fill-opacity="0.317647"/>
</g>
<mask id="mask5_1808_2962" style="mask-type:luminance" maskUnits="userSpaceOnUse" x="12" y="6" width="83" height="59">
<path d="M74.1053 57.3248C74.0071 56.5658 73.9115 55.8779 73.8187 55.2609C73.6385 55.3264 73.4556 55.4028 73.2699 55.4902C72.784 55.7195 72.2516 56.0389 71.6729 56.4484C71.1214 56.8634 70.7583 57.1228 70.5836 57.2265C70.4198 57.3302 69.9802 57.5377 69.265 57.849C68.9483 57.98 68.6179 58.1165 68.2739 58.2585C69.2622 58.9246 70.1468 59.3751 70.9276 59.6098L71.4108 59.7081C71.8039 59.7573 72.1643 59.7491 72.4919 59.6835C73.5402 59.4597 74.078 58.6734 74.1053 57.3248ZM73.401 52.7629L73.5812 53.7621C73.6576 54.2098 73.7368 54.7094 73.8187 55.2609C75.1182 54.7804 76.3139 54.8377 77.406 55.4329C79.3771 56.503 84.283 59.2495 92.1237 63.6722L92.4677 63.8196C92.757 63.9561 93.0492 64.1199 93.344 64.311C93.5406 64.4366 93.7399 64.4802 93.9419 64.442C94.1657 64.3983 94.2941 64.2646 94.3268 64.0407C94.4087 63.4128 93.7399 62.389 92.3202 60.9694C91.2883 59.9375 89.7977 58.5342 87.8484 56.7597C85.4187 54.5538 83.019 52.4571 80.6493 50.4696C73.9879 44.8949 69.052 41.4277 65.8415 40.0681C63.7776 37.4145 62.3798 35.64 61.6481 34.7445C59.7644 32.4404 57.9762 30.442 56.2836 28.7493C51.6043 24.0646 47.1843 21.1926 43.0237 20.1333C42.101 19.6637 41.5822 19.3935 41.4676 19.3225C41.0854 19.0986 40.725 18.8229 40.3865 18.4953C40.0698 18.184 39.5866 17.6326 38.9368 16.8409C37.9485 15.6287 37.0585 14.5394 36.2668 13.573C35.0492 11.9568 33.7388 10.5918 32.3356 9.47791C30.6539 8.13473 28.9203 7.23381 27.1348 6.77516C22.6685 5.61762 18.1912 7.23927 13.703 11.6401C13.1624 12.3281 12.8048 12.8659 12.6301 13.2536C12.4608 13.6303 12.4007 14.0262 12.4499 14.4411C12.4717 14.6268 12.5864 15.1428 12.7939 15.9891C13.0177 16.8791 13.1924 17.7636 13.318 18.6427C13.662 21.1216 13.8586 23.0272 13.9077 24.3594C13.9623 25.9156 13.8504 27.2888 13.5719 28.4791C12.3762 33.6443 12.3325 38.5093 13.4409 43.0739C14.4237 47.1417 16.2911 50.7044 19.0429 53.7621C22.4227 57.5241 27.0666 60.4343 32.9744 62.4928C36.2559 63.6503 40.1735 64.1117 44.7273 63.8769C48.4128 63.6913 52.4205 63.0606 56.7504 61.985C59.9555 61.1878 63.1333 60.2023 66.2837 59.0283C66.9936 58.7663 67.657 58.5096 68.2739 58.2585C68.2576 58.2475 68.2439 58.2366 68.233 58.2257C67.9163 58.0128 67.6105 57.7889 67.3157 57.5541L66.9553 57.2756L73.401 52.7629ZM73.5812 53.7621L73.401 52.7629L66.9553 57.2756L67.3157 57.5541C67.6105 57.7889 67.9163 58.0128 68.233 58.2257C68.2439 58.2366 68.2576 58.2475 68.2739 58.2585C68.6179 58.1165 68.9483 57.98 69.265 57.849C69.9802 57.5377 70.4198 57.3302 70.5836 57.2265C70.7583 57.1228 71.1214 56.8634 71.6729 56.4484C72.2516 56.0389 72.784 55.7195 73.2699 55.4902C73.4556 55.4028 73.6385 55.3264 73.8187 55.2609C73.7368 54.7094 73.6576 54.2098 73.5812 53.7621Z" fill="white"/>
</mask>
<g mask="url(#mask5_1808_2962)">
<path d="M16.9546 21.0669C18.0029 20.0404 18.5844 18.7327 18.6991 17.1438L12.0733 16.5869C11.8658 17.5479 11.7675 18.5143 11.7784 19.4862C11.7948 21.43 12.3463 22.4292 13.4328 22.4838C14.0826 22.5111 14.7132 22.4019 15.3247 22.1562C15.9254 21.9105 16.4686 21.5474 16.9546 21.0669Z" fill="#B9605E" fill-opacity="0.317647"/>
</g>
<path d="M18.0931 15.4976C17.8201 15.4212 17.3396 15.129 16.6516 14.6213C16.0292 14.1571 15.6115 13.805 15.3985 13.5647C15.0163 13.1443 14.8006 12.915 14.7515 12.8768C14.4403 12.6037 14.099 12.4591 13.7277 12.4427C9.9275 12.2079 6.90533 12.6993 4.66123 13.9169C4.38276 14.0589 4.28175 14.2281 4.35819 14.4247C4.43463 14.6103 4.68034 14.8042 5.0953 15.0062C6.02352 15.4594 7.48683 15.8252 9.48523 16.1037C10.3315 16.4695 10.9704 16.7289 11.4017 16.8817C12.0624 17.1274 12.6876 17.3104 13.2773 17.4305C14.6368 17.7089 16.2121 17.7171 18.003 17.455C18.3524 17.4114 18.5981 17.2885 18.7401 17.0865C18.8602 16.9172 18.8957 16.7097 18.8466 16.464C18.8029 16.2456 18.7046 16.0381 18.5517 15.8416C18.4043 15.6505 18.2514 15.5358 18.0931 15.4976Z" fill="#323232"/>
<path d="M13.7277 12.4427C9.9275 12.2079 6.90533 12.6993 4.66123 13.9169C4.38276 14.0589 4.28175 14.2281 4.35819 14.4247C4.43463 14.6103 4.68034 14.8042 5.0953 15.0062C6.02352 15.4594 7.48683 15.8252 9.48523 16.1037C10.3315 16.4695 10.9704 16.7289 11.4017 16.8817C12.0624 17.1274 12.6876 17.3104 13.2773 17.4305C14.6368 17.7089 16.2121 17.7171 18.003 17.455C18.3524 17.4114 18.5981 17.2885 18.7401 17.0865C18.8602 16.9172 18.8957 16.7097 18.8466 16.464C18.8029 16.2456 18.7046 16.0381 18.5517 15.8416C18.4043 15.6505 18.2514 15.5358 18.0931 15.4976C17.8201 15.4212 17.3396 15.129 16.6516 14.6213C16.0292 14.1571 15.6115 13.805 15.3985 13.5647C15.0163 13.1443 14.8006 12.915 14.7515 12.8768C14.4403 12.6037 14.099 12.4591 13.7277 12.4427Z" stroke="#9498A8" stroke-opacity="0.01" stroke-width="0.00819015" stroke-linecap="round" stroke-linejoin="round"/>
<path d="M24.8823 12.7792C24.4237 12.4734 24.107 12.3942 23.9323 12.5417C23.8777 12.5908 23.8285 12.6727 23.7848 12.7874L23.7029 13.0331C23.6538 13.1314 23.7084 13.2105 23.8667 13.2706C24.1834 13.4016 24.3554 13.4753 24.3827 13.4917C24.4373 13.5299 24.5656 13.6036 24.7677 13.7129C24.9697 13.8275 25.1362 13.9449 25.2673 14.065C25.6549 14.4199 25.7641 14.8404 25.5949 15.3263C25.5457 15.4574 25.5212 15.5447 25.5212 15.5884C25.5212 15.6321 25.5403 15.6266 25.5785 15.572C25.6768 15.4301 25.7505 15.2144 25.7996 14.925C25.958 13.9749 25.6522 13.2597 24.8823 12.7792Z" fill="#FDFFEA"/>
<path d="M24.8823 12.7792C24.4237 12.4734 24.107 12.3942 23.9323 12.5417C23.8777 12.5908 23.8285 12.6727 23.7848 12.7874L23.7029 13.0331C23.6538 13.1314 23.7084 13.2105 23.8667 13.2706C24.1834 13.4016 24.3554 13.4753 24.3827 13.4917C24.4373 13.5299 24.5656 13.6036 24.7677 13.7129C24.9697 13.8275 25.1362 13.9449 25.2673 14.065C25.6549 14.4199 25.7641 14.8404 25.5949 15.3263C25.5457 15.4574 25.5212 15.5447 25.5212 15.5884C25.5212 15.6321 25.5403 15.6266 25.5785 15.572C25.6768 15.4301 25.7505 15.2144 25.7996 14.925C25.958 13.9749 25.6522 13.2597 24.8823 12.7792Z" stroke="#FDFFEA" stroke-width="0.00819015" stroke-linecap="round" stroke-linejoin="round"/>
<path d="M9.48492 16.1046C10.9482 16.2028 12.66 16.1428 14.6202 15.9244C15.5429 15.8261 16.0835 15.7551 16.2418 15.7114" stroke="black" stroke-width="0.327606" stroke-linecap="round" stroke-linejoin="round"/>
<path d="M11.7084 108V93.2H19.0284V96.12H15.1484V98.9H17.9084V101.62H15.1484V105.18H19.1684V108H11.7084ZM23.084 108.14C21.864 108.14 21.024 107.66 21.024 105.72V97.3H24.284V104.6C24.284 105.06 24.424 105.3 24.764 105.3C25.124 105.3 25.484 105.06 25.744 104.88V97.3H29.024V108H25.744V106.68C25.284 107.32 24.244 108.14 23.084 108.14ZM31.3028 108V97.3H34.5828V98.98H34.6028C34.9828 98.06 35.7028 97.14 36.8828 97.14C37.0028 97.14 37.1428 97.16 37.1428 97.16V100.24C37.0228 100.22 36.7828 100.18 36.6228 100.18C35.6628 100.18 34.9028 100.48 34.5828 100.72V108H31.3028ZM42.4699 108.14C40.1099 108.14 38.2699 106.48 38.2699 102.62C38.2699 98.7 40.0899 97.14 42.4699 97.14C44.8099 97.14 46.6699 98.7 46.6699 102.62C46.6699 106.48 44.8099 108.14 42.4699 108.14ZM42.4699 105.74C43.1499 105.74 43.3899 105.12 43.3899 102.62C43.3899 100.3 43.1899 99.64 42.4699 99.64C41.7899 99.64 41.5299 100.14 41.5299 102.62C41.5299 104.92 41.7499 105.74 42.4699 105.74ZM48.5567 112V97.3H51.8367V98.56C52.2367 97.88 52.9567 97.14 54.0567 97.14C55.7567 97.14 56.8367 98.72 56.8367 102.64C56.8367 106.56 55.7367 108.12 54.0367 108.12C53.0567 108.12 52.3167 107.62 51.8367 106.8V112H48.5567ZM52.6967 105.48C53.2967 105.48 53.5167 104.9 53.5167 102.66C53.5167 100.52 53.3367 99.98 52.6767 99.98C52.2967 99.98 52.0167 100.24 51.8367 100.4V105.1C52.0967 105.3 52.3167 105.48 52.6967 105.48ZM62.5364 108.16C60.0764 108.16 58.3364 106.5 58.3364 102.66C58.3364 98.74 60.1364 97.14 62.4164 97.14C65.1764 97.14 66.3164 99.32 66.3164 102.76V103.86H61.4564C61.4764 105 61.8164 105.74 62.5764 105.74C63.2564 105.74 63.6364 105.18 63.8964 104.38L66.3564 105.28C65.7364 107.04 64.4564 108.16 62.5364 108.16ZM61.4764 101.78H63.3164C63.3164 100.02 62.9764 99.62 62.4164 99.62C61.9164 99.62 61.4764 100.06 61.4764 101.78ZM70.0534 108.1C68.8334 108.1 67.7534 107.36 67.7534 105.2C67.7534 102.84 69.9734 101.4 72.4534 100.9V100.62C72.4534 100.02 72.3534 99.82 71.7934 99.82C71.0534 99.82 70.0734 100.42 69.6134 100.8L68.0934 98.72C69.2534 97.68 70.8334 97.14 72.3934 97.14C74.7534 97.14 75.5934 98.24 75.5934 100.46V105.4C75.5934 106.68 75.6534 107.46 75.8134 108H72.6134C72.5134 107.66 72.4534 107.26 72.4534 106.58C71.9334 107.5 71.1934 108.1 70.0534 108.1ZM71.5134 105.48C71.9334 105.48 72.2734 105.24 72.4534 105.12V103.08C71.4934 103.4 70.8934 103.9 70.8934 104.66C70.8934 105.18 71.1334 105.48 71.5134 105.48ZM77.8262 108V97.3H81.1062V98.6C81.5462 97.96 82.5862 97.14 83.7662 97.14C84.9662 97.14 85.8262 97.62 85.8262 99.56V108H82.5462V100.74C82.5462 100.28 82.4062 100.04 82.0862 100.04C81.7262 100.04 81.3462 100.28 81.1062 100.46V108H77.8262ZM33.9975 120.16L36.0175 126H32.6375L30.9775 121.2H30.4175V126H27.0775V111.2H31.1575C33.8375 111.2 35.7375 112.58 35.7375 116.14C35.7375 117.52 35.3775 119.2 33.9975 120.16ZM30.4175 118.48H31.0975C31.9175 118.48 32.3975 118.04 32.3975 116.2C32.3975 114.44 31.9175 114.12 31.0775 114.12H30.4175V118.48ZM41.425 126.14C39.065 126.14 37.225 124.48 37.225 120.62C37.225 116.7 39.045 115.14 41.425 115.14C43.765 115.14 45.625 116.7 45.625 120.62C45.625 124.48 43.765 126.14 41.425 126.14ZM41.425 123.74C42.105 123.74 42.345 123.12 42.345 120.62C42.345 118.3 42.145 117.64 41.425 117.64C40.745 117.64 40.485 118.14 40.485 120.62C40.485 122.92 40.705 123.74 41.425 123.74ZM52.9917 126.12C52.0117 126.12 51.2717 125.62 50.7917 124.8V126H47.5117V111.22H50.7917V116.56C51.1917 115.88 51.9117 115.14 53.0117 115.14C54.7117 115.14 55.7917 116.72 55.7917 120.64C55.7917 124.56 54.6917 126.12 52.9917 126.12ZM51.6517 123.48C52.2517 123.48 52.4717 122.9 52.4717 120.66C52.4717 118.52 52.2917 117.98 51.6317 117.98C51.2517 117.98 50.9717 118.24 50.7917 118.4V123.1C51.0517 123.3 51.2717 123.48 51.6517 123.48ZM57.7914 114.36V111.46H61.0714V114.36H57.7914ZM57.7914 126V115.3H61.0714V126H57.7914ZM63.4571 126V115.3H66.7371V116.6C67.1771 115.96 68.2171 115.14 69.3971 115.14C70.5971 115.14 71.4571 115.62 71.4571 117.56V126H68.1771V118.74C68.1771 118.28 68.0371 118.04 67.7171 118.04C67.3571 118.04 66.9771 118.28 66.7371 118.46V126H63.4571Z" fill="#3A2E27"/>
</svg>
