<svg width="99" height="130" viewBox="0 0 99 130" fill="none" xmlns="http://www.w3.org/2000/svg">
<path d="M72.2556 73.2187C79.31 66.0951 82.8371 57.5011 82.8371 47.4366C82.8371 37.3722 79.31 28.7751 72.2556 21.6454C65.2012 14.5218 56.6908 10.96 46.7242 10.96C36.7577 10.96 28.2442 14.5218 21.1838 21.6454C14.1294 28.7751 10.6022 37.3722 10.6022 47.4366C10.6022 57.5011 14.1294 66.0951 21.1838 73.2187C28.2442 80.3484 36.7577 83.9133 46.7242 83.9133C56.6908 83.9133 65.2012 80.3484 72.2556 73.2187Z" fill="#874528"/>
<path d="M87.7206 47.618C87.4854 46.9726 87.0001 46.3059 86.2645 45.6179L77.6274 47.1796L68.7823 48.6683L63.7177 55.3901L76.4517 63.6097L77.2204 63.8197C77.8957 63.9172 78.6434 63.8745 79.4634 63.6919C82.0801 63.1074 84.9109 61.2169 87.9557 58.0204C89.644 56.2486 90.6659 55.0735 91.0217 54.4951C91.299 54.0506 91.2025 53.8862 90.7323 54.0019C90.057 54.2393 89.5776 54.3733 89.2943 54.4037C88.7878 54.4585 88.6551 54.1785 88.8963 53.5635C89.3485 52.425 89.3365 51.5452 88.8601 50.9241C88.5828 50.6258 88.3838 50.4035 88.2632 50.2574C88.0582 50.0078 87.9557 49.746 87.9557 49.472C87.9557 48.6805 87.8774 48.0625 87.7206 47.618Z" fill="#EFC09C"/>
<path d="M53.073 25.8453C47.2003 25.3826 44.1887 25.1969 44.0379 25.2882C43.7968 25.4343 40.975 27.0174 35.5727 30.0373L44.7615 48.8875L64.369 55.0979L71.8936 45.965L64.6584 27.6262L61.8366 26.5577C58.9305 26.308 56.0093 26.0706 53.073 25.8453Z" fill="#2A0601"/>
<path d="M71.17 48.4588C71.9236 48.8728 72.9426 48.8972 74.2268 48.5319C74.9986 48.3066 76.4848 47.6977 78.6856 46.7053C81.1817 45.585 83.286 44.7235 84.9983 44.1207C81.7244 38.3244 77.5731 33.6149 72.5446 29.9922C69.9882 28.1473 67.5373 26.7956 65.1918 25.9372C64.5648 25.7058 64.1065 25.6449 63.8171 25.7545C63.3529 25.925 62.9368 26.5034 62.5691 27.4897C61.7249 30.5462 60.1543 32.4306 57.8571 33.143C56.3015 33.624 54.1641 33.5661 51.4449 32.9695C50.4741 32.7564 49.6933 32.7899 49.1024 33.0699C48.59 33.3135 48.2855 33.7031 48.189 34.2389C48.0925 34.7443 48.192 35.2436 48.4874 35.7367C48.801 36.2543 49.2441 36.6135 49.8169 36.8144L52.6025 37.682C55.1348 38.4431 58.0953 39.2803 61.4838 40.1936C64.8783 41.1069 67.1634 42.2485 68.3392 43.6184C68.924 44.3064 69.1712 44.9 69.0808 45.3993C69.6475 46.9823 70.3439 48.0022 71.17 48.4588Z" fill="#D55A20"/>
<mask id="mask0_1808_2956" style="mask-type:luminance" maskUnits="userSpaceOnUse" x="48" y="25" width="37" height="24">
<path d="M71.17 48.4588C71.9236 48.8728 72.9426 48.8972 74.2268 48.5319C74.9986 48.3066 76.4848 47.6977 78.6856 46.7053C81.1817 45.585 83.286 44.7235 84.9983 44.1207C81.7244 38.3244 77.5731 33.6149 72.5446 29.9922C69.9882 28.1473 67.5373 26.7956 65.1918 25.9372C64.5648 25.7058 64.1065 25.6449 63.8171 25.7545C63.3529 25.925 62.9368 26.5034 62.5691 27.4897C61.7249 30.5462 60.1543 32.4306 57.8571 33.143C56.3015 33.624 54.1641 33.5661 51.4449 32.9695C50.4741 32.7564 49.6933 32.7899 49.1024 33.0699C48.59 33.3135 48.2855 33.7031 48.189 34.2389C48.0925 34.7443 48.192 35.2436 48.4874 35.7367C48.801 36.2543 49.2441 36.6135 49.8169 36.8144L52.6025 37.682C55.1348 38.4431 58.0953 39.2803 61.4838 40.1936C64.8783 41.1069 67.1634 42.2485 68.3392 43.6184C68.924 44.3064 69.1712 44.9 69.0808 45.3993C69.6475 46.9823 70.3439 48.0022 71.17 48.4588Z" fill="white"/>
</mask>
<g mask="url(#mask0_1808_2956)">
<path d="M47.9448 29.5995C45.2195 29.7822 43.1846 30.1445 41.8401 30.6863C39.157 31.764 41.2733 33.1979 48.189 34.9879C55.4062 36.8571 60.3261 36.4979 62.9489 33.9102C63.9196 32.9482 64.6854 31.5722 65.2461 29.7822C65.433 29.1733 65.638 28.3849 65.8611 27.4168C66.1746 26.0347 66.3525 25.2523 66.3947 25.0696L62.8494 23.9919L47.9448 29.5995Z" fill="#FFFFE9"/>
</g>
<mask id="mask1_1808_2956" style="mask-type:luminance" maskUnits="userSpaceOnUse" x="48" y="25" width="37" height="24">
<path d="M71.17 48.4588C71.9236 48.8728 72.9426 48.8972 74.2268 48.5319C74.9986 48.3066 76.4848 47.6977 78.6856 46.7053C81.1817 45.585 83.286 44.7235 84.9983 44.1207C81.7244 38.3244 77.5731 33.6149 72.5446 29.9922C69.9882 28.1473 67.5373 26.7956 65.1918 25.9372C64.5648 25.7058 64.1065 25.6449 63.8171 25.7545C63.3529 25.925 62.9368 26.5034 62.5691 27.4897C61.7249 30.5462 60.1543 32.4306 57.8571 33.143C56.3015 33.624 54.1641 33.5661 51.4449 32.9695C50.4741 32.7564 49.6933 32.7899 49.1024 33.0699C48.59 33.3135 48.2855 33.7031 48.189 34.2389C48.0925 34.7443 48.192 35.2436 48.4874 35.7367C48.801 36.2543 49.2441 36.6135 49.8169 36.8144L52.6025 37.682C55.1348 38.4431 58.0953 39.2803 61.4838 40.1936C64.8783 41.1069 67.1634 42.2485 68.3392 43.6184C68.924 44.3064 69.1712 44.9 69.0808 45.3993C69.6475 46.9823 70.3439 48.0022 71.17 48.4588Z" fill="white"/>
</mask>
<g mask="url(#mask1_1808_2956)">
<path d="M65.02 35.2253C64.5798 35.2253 64.203 35.3806 63.8895 35.6911C63.582 36.0077 63.4282 36.3882 63.4282 36.8327C63.4282 37.2772 63.582 37.6547 63.8895 37.9652C64.203 38.2818 64.5798 38.4401 65.02 38.4401C65.4601 38.4401 65.8339 38.2818 66.1414 37.9652C66.455 37.6547 66.6117 37.2772 66.6117 36.8327C66.6117 36.3882 66.455 36.0077 66.1414 35.6911C65.8339 35.3806 65.4601 35.2253 65.02 35.2253ZM68.4205 31.4626C68.5411 31.3469 68.6014 31.2069 68.6014 31.0425C68.6014 30.8781 68.5411 30.735 68.4205 30.6132C68.306 30.4975 68.1673 30.4397 68.0045 30.4397C67.8417 30.4397 67.7 30.4975 67.5794 30.6132C67.4649 30.735 67.4076 30.8781 67.4076 31.0425C67.4076 31.2069 67.4649 31.3469 67.5794 31.4626C67.7 31.5844 67.8417 31.6452 68.0045 31.6452C68.1673 31.6452 68.306 31.5844 68.4205 31.4626ZM71.6854 40.6959C71.6854 40.4767 71.6101 40.291 71.4593 40.1388C71.3086 39.9866 71.1247 39.9105 70.9077 39.9105C70.6906 39.9105 70.5067 39.9866 70.356 40.1388C70.2052 40.291 70.1299 40.4767 70.1299 40.6959C70.1299 40.9151 70.2052 41.1008 70.356 41.253C70.5067 41.4052 70.6906 41.4813 70.9077 41.4813C71.1247 41.4813 71.3086 41.4052 71.4593 41.253C71.6101 41.1008 71.6854 40.9151 71.6854 40.6959ZM79.7347 39.0703C79.3669 38.6989 78.9237 38.5132 78.4052 38.5132C77.8867 38.5132 77.4435 38.6989 77.0757 39.0703C76.7079 39.4417 76.524 39.8892 76.524 40.4128C76.524 40.9364 76.7079 41.3839 77.0757 41.7553C77.4435 42.1267 77.8867 42.3124 78.4052 42.3124C78.9237 42.3124 79.3669 42.1267 79.7347 41.7553C80.1024 41.3839 80.2863 40.9364 80.2863 40.4128C80.2863 39.8892 80.1024 39.4417 79.7347 39.0703ZM76.0537 38.2392C76.0537 38.0443 75.9844 37.8769 75.8457 37.7369C75.707 37.5968 75.5412 37.5268 75.3483 37.5268C75.1553 37.5268 74.9895 37.5968 74.8509 37.7369C74.7122 37.8769 74.6429 38.0443 74.6429 38.2392C74.6429 38.434 74.7122 38.6014 74.8509 38.7415C74.9895 38.8815 75.1553 38.9515 75.3483 38.9515C75.5412 38.9515 75.707 38.8815 75.8457 38.7415C75.9844 38.6014 76.0537 38.434 76.0537 38.2392ZM69.9399 33.6545C69.9399 34.1111 70.0967 34.4977 70.4102 34.8143C70.7298 35.137 71.1157 35.2984 71.5679 35.2984C72.0201 35.2984 72.4029 35.137 72.7165 34.8143C73.036 34.4977 73.1958 34.1111 73.1958 33.6545C73.1958 33.1978 73.036 32.8082 72.7165 32.4855C72.4029 32.1689 72.0201 32.0106 71.5679 32.0106C71.1157 32.0106 70.7298 32.1689 70.4102 32.4855C70.0967 32.8082 69.9399 33.1978 69.9399 33.6545Z" fill="#FFFFE9"/>
<path d="M73.1958 33.6545C73.1958 34.1111 73.036 34.4977 72.7165 34.8143C72.4029 35.137 72.0201 35.2984 71.5679 35.2984C71.1157 35.2984 70.7298 35.137 70.4102 34.8143C70.0967 34.4977 69.9399 34.1111 69.9399 33.6545C69.9399 33.1978 70.0967 32.8082 70.4102 32.4855C70.7298 32.1689 71.1157 32.0106 71.5679 32.0106C72.0201 32.0106 72.4029 32.1689 72.7165 32.4855C73.036 32.8082 73.1958 33.1978 73.1958 33.6545ZM76.0537 38.2392C76.0537 38.434 75.9844 38.6014 75.8457 38.7415C75.707 38.8815 75.5412 38.9515 75.3483 38.9515C75.1553 38.9515 74.9895 38.8815 74.8509 38.7415C74.7122 38.6014 74.6429 38.434 74.6429 38.2392C74.6429 38.0443 74.7122 37.8769 74.8509 37.7369C74.9895 37.5968 75.1553 37.5268 75.3483 37.5268C75.5412 37.5268 75.707 37.5968 75.8457 37.7369C75.9844 37.8769 76.0537 38.0443 76.0537 38.2392ZM80.2863 40.4128C80.2863 40.9364 80.1024 41.3839 79.7347 41.7553C79.3669 42.1267 78.9237 42.3124 78.4052 42.3124C77.8867 42.3124 77.4435 42.1267 77.0757 41.7553C76.7079 41.3839 76.524 40.9364 76.524 40.4128C76.524 39.8892 76.7079 39.4417 77.0757 39.0703C77.4435 38.6989 77.8867 38.5132 78.4052 38.5132C78.9237 38.5132 79.3669 38.6989 79.7347 39.0703C80.1024 39.4417 80.2863 39.8892 80.2863 40.4128ZM71.6854 40.6959C71.6854 40.9151 71.6101 41.1008 71.4593 41.253C71.3086 41.4052 71.1247 41.4813 70.9077 41.4813C70.6906 41.4813 70.5067 41.4052 70.356 41.253C70.2052 41.1008 70.1299 40.9151 70.1299 40.6959C70.1299 40.4767 70.2052 40.291 70.356 40.1388C70.5067 39.9866 70.6906 39.9105 70.9077 39.9105C71.1247 39.9105 71.3086 39.9866 71.4593 40.1388C71.6101 40.291 71.6854 40.4767 71.6854 40.6959ZM68.6014 31.0425C68.6014 31.2069 68.5411 31.3469 68.4205 31.4626C68.306 31.5844 68.1673 31.6452 68.0045 31.6452C67.8417 31.6452 67.7 31.5844 67.5794 31.4626C67.4649 31.3469 67.4076 31.2069 67.4076 31.0425C67.4076 30.8781 67.4649 30.735 67.5794 30.6132C67.7 30.4975 67.8417 30.4397 68.0045 30.4397C68.1673 30.4397 68.306 30.4975 68.4205 30.6132C68.5411 30.735 68.6014 30.8781 68.6014 31.0425ZM66.6117 36.8327C66.6117 37.2772 66.455 37.6547 66.1414 37.9652C65.8339 38.2818 65.4601 38.4401 65.02 38.4401C64.5798 38.4401 64.203 38.2818 63.8895 37.9652C63.582 37.6547 63.4282 37.2772 63.4282 36.8327C63.4282 36.3882 63.582 36.0077 63.8895 35.6911C64.203 35.3806 64.5798 35.2253 65.02 35.2253C65.4601 35.2253 65.8339 35.3806 66.1414 35.6911C66.455 36.0077 66.6117 36.3882 66.6117 36.8327Z" stroke="#FFFFE9" stroke-width="0.1" stroke-linecap="round" stroke-linejoin="round"/>
</g>
<path d="M86.4729 47.1705C87.6426 46.6104 88.8606 45.831 90.1267 44.8325C90.9528 44.181 91.3839 43.5265 91.42 42.8689C91.4381 42.4914 91.3447 42.1718 91.1397 41.91C90.9829 41.7091 90.6905 41.5903 90.2624 41.5538C89.6112 41.4929 88.8907 41.7212 88.1009 42.2388C85.4479 43.974 83.4703 44.8264 82.168 44.796C79.7984 44.7412 76.6632 44.6559 72.7621 44.5403C70.4408 44.4672 68.7195 44.9025 67.598 45.8463C66.5971 46.6743 65.6415 48.3213 64.731 50.7871L67.6613 52.906L67.8151 52.9699C67.9477 53.0125 68.0803 53.0216 68.213 52.9973C68.629 52.9181 68.9697 52.5406 69.235 51.8648C69.5726 51.0002 70.0489 50.3061 70.6639 49.7825C71.3452 49.198 72.1562 48.8571 73.0968 48.7596C75.2432 48.5405 78.074 48.4126 81.5891 48.3761C83.1869 48.3578 84.8149 47.9559 86.4729 47.1705Z" fill="#FFFFE9"/>
<mask id="mask2_1808_2956" style="mask-type:luminance" maskUnits="userSpaceOnUse" x="64" y="41" width="28" height="13">
<path d="M86.4729 47.1705C87.6426 46.6104 88.8606 45.831 90.1267 44.8325C90.9528 44.181 91.3839 43.5265 91.42 42.8689C91.4381 42.4914 91.3447 42.1718 91.1397 41.91C90.9829 41.7091 90.6905 41.5903 90.2624 41.5538C89.6112 41.4929 88.8907 41.7212 88.1009 42.2388C85.4479 43.974 83.4703 44.8264 82.168 44.796C79.7984 44.7412 76.6632 44.6559 72.7621 44.5403C70.4408 44.4672 68.7195 44.9025 67.598 45.8463C66.5971 46.6743 65.6415 48.3213 64.731 50.7871L67.6613 52.906L67.8151 52.9699C67.9477 53.0125 68.0803 53.0216 68.213 52.9973C68.629 52.9181 68.9697 52.5406 69.235 51.8648C69.5726 51.0002 70.0489 50.3061 70.6639 49.7825C71.3452 49.198 72.1562 48.8571 73.0968 48.7596C75.2432 48.5405 78.074 48.4126 81.5891 48.3761C83.1869 48.3578 84.8149 47.9559 86.4729 47.1705Z" fill="white"/>
</mask>
<g mask="url(#mask2_1808_2956)">
<path d="M91.5738 41.6177L91.2482 40.4487L69.4701 41.4351L62.8137 50.9333L63.1845 51.6456C63.498 52.1753 63.8145 52.5802 64.1341 52.8603C65.1531 53.7614 66.0153 53.253 66.7207 51.3351C67.4563 49.3381 68.5114 47.9712 69.8861 47.2345C70.688 46.8022 71.6588 46.586 72.7983 46.586C76.4883 46.586 79.6356 46.5982 82.2403 46.6225C83.9346 46.6408 85.6499 46.0898 87.3864 44.9695C88.0074 44.5677 89.4032 43.4504 91.5738 41.6177Z" fill="#D55A20"/>
</g>
<path d="M93.3914 47.8843C93.8195 47.1354 93.9009 46.5935 93.6356 46.2587C93.3824 45.936 93.0598 45.7868 92.6679 45.8112C92.1494 45.8355 91.4349 46.1308 90.5244 46.697C87.6665 48.621 85.2789 49.5222 83.3615 49.4004C82.3848 49.3273 81.5196 49.2695 80.7659 49.2269C79.3611 49.1416 78.0075 49.0899 76.7051 49.0716C75.1435 49.0533 73.802 49.3243 72.6805 49.8844C71.541 50.4507 70.531 51.3609 69.6507 52.6151L69.5603 53.1083C69.5121 53.4919 69.5211 53.8207 69.5874 54.0947C69.8045 54.9532 70.5612 55.0688 71.8575 54.4417C73.4251 53.6867 74.634 53.227 75.4842 53.0627C76.3705 52.8861 78.1763 52.7613 80.9016 52.6882C83.3857 52.6212 85.4266 52.3503 87.0244 51.8754C88.0735 51.5649 89.3728 50.9834 90.9224 50.131C92.068 49.5039 92.891 48.755 93.3914 47.8843Z" fill="#FFFFE9"/>
<mask id="mask3_1808_2956" style="mask-type:luminance" maskUnits="userSpaceOnUse" x="69" y="45" width="25" height="10">
<path d="M93.3914 47.8843C93.8195 47.1354 93.9009 46.5935 93.6356 46.2587C93.3824 45.936 93.0598 45.7868 92.6679 45.8112C92.1494 45.8355 91.4349 46.1308 90.5244 46.697C87.6665 48.621 85.2789 49.5222 83.3615 49.4004C82.3848 49.3273 81.5196 49.2695 80.7659 49.2269C79.3611 49.1416 78.0075 49.0899 76.7051 49.0716C75.1435 49.0533 73.802 49.3243 72.6805 49.8844C71.541 50.4507 70.531 51.3609 69.6507 52.6151L69.5603 53.1083C69.5121 53.4919 69.5211 53.8207 69.5874 54.0947C69.8045 54.9532 70.5612 55.0688 71.8575 54.4417C73.4251 53.6867 74.634 53.227 75.4842 53.0627C76.3705 52.8861 78.1763 52.7613 80.9016 52.6882C83.3857 52.6212 85.4266 52.3503 87.0244 51.8754C88.0735 51.5649 89.3728 50.9834 90.9224 50.131C92.068 49.5039 92.891 48.755 93.3914 47.8843Z" fill="white"/>
</mask>
<g mask="url(#mask3_1808_2956)">
<path d="M93.8527 45.5646L89.7286 44.834L72.7981 46.8067L67.6611 52.9074L67.9595 53.2545C68.2188 53.5163 68.4931 53.7264 68.7825 53.8847C69.693 54.39 70.5612 54.2835 71.3872 53.565C72.3459 52.737 73.2684 52.1098 74.1547 51.6836C74.9747 51.2818 75.7043 51.0809 76.3434 51.0809C76.7534 51.0809 77.5221 51.093 78.6496 51.1174C79.9881 51.1113 81.7397 51.0382 83.9042 50.8982C86.1893 50.7521 88.2062 50.1189 89.9547 48.9986C90.9375 48.3654 92.2368 47.2207 93.8527 45.5646Z" fill="#D55A20"/>
</g>
<path d="M85.822 56.8519C87.3354 56.444 88.9452 55.7012 90.6515 54.6235C91.6102 54.0208 92.5327 53.351 93.419 52.6143C93.8953 52.2246 94.2481 51.7862 94.4772 51.2992C94.7545 50.7207 94.7274 50.2824 94.3958 49.984C94.0642 49.6857 93.6602 49.6157 93.1839 49.774C92.8523 49.8836 92.2915 50.1971 91.5017 50.7147C90.7721 51.1957 89.934 51.6279 88.9874 52.0115C87.8539 52.4743 86.3164 52.9796 84.375 53.5276C82.1501 54.1547 80.287 54.6327 78.7857 54.9614C77.0252 55.345 75.3068 55.6221 73.6306 55.7925L74.2818 58.0849C74.7943 59.5644 75.2525 60.1885 75.6565 59.9571C76.0243 59.7501 76.4162 59.5614 76.8322 59.3909C77.4352 59.1291 77.8874 58.9281 78.1888 58.7881C78.6471 58.5689 79.6298 58.2919 81.1372 57.957C83.356 57.4638 84.9176 57.0955 85.822 56.8519Z" fill="#FFFFE9"/>
<mask id="mask4_1808_2956" style="mask-type:luminance" maskUnits="userSpaceOnUse" x="73" y="49" width="22" height="12">
<path d="M85.822 56.8519C87.3354 56.444 88.9452 55.7012 90.6515 54.6235C91.6102 54.0208 92.5327 53.351 93.419 52.6143C93.8953 52.2246 94.2481 51.7862 94.4772 51.2992C94.7545 50.7207 94.7274 50.2824 94.3958 49.984C94.0642 49.6857 93.6602 49.6157 93.1839 49.774C92.8523 49.8836 92.2915 50.1971 91.5017 50.7147C90.7721 51.1957 89.934 51.6279 88.9874 52.0115C87.8539 52.4743 86.3164 52.9796 84.375 53.5276C82.1501 54.1547 80.287 54.6327 78.7857 54.9614C77.0252 55.345 75.3068 55.6221 73.6306 55.7925L74.2818 58.0849C74.7943 59.5644 75.2525 60.1885 75.6565 59.9571C76.0243 59.7501 76.4162 59.5614 76.8322 59.3909C77.4352 59.1291 77.8874 58.9281 78.1888 58.7881C78.6471 58.5689 79.6298 58.2919 81.1372 57.957C83.356 57.4638 84.9176 57.0955 85.822 56.8519Z" fill="white"/>
</mask>
<g mask="url(#mask4_1808_2956)">
<path d="M86.0029 55.0254C87.9444 54.4835 89.6386 53.7072 91.0857 52.6965C91.9841 52.0694 93.2683 50.946 94.9384 49.3265L95.047 49.2169L93.9979 46.9519L81.3724 51.4818L71.5686 55.9752L71.7676 56.5962C71.9484 57.0772 72.1715 57.4943 72.4368 57.8474C73.2749 58.9616 74.3481 59.19 75.6565 58.5324C77.0493 57.8383 78.629 57.2081 80.3956 56.6419C81.1674 56.3983 83.0365 55.8595 86.0029 55.0254Z" fill="#D55A20"/>
</g>
<path d="M91.2479 57.6112C90.5485 57.2703 89.5959 57.1637 88.39 57.2916C87.0334 57.4316 85.7552 57.6782 84.5553 58.0313C83.4278 58.354 82.1858 58.8259 80.8291 59.4469C79.8162 59.9097 78.8153 60.3328 77.8265 60.7164C76.7774 61.1243 76.1262 61.3831 75.873 61.4927C75.3605 61.7241 75.466 62.3907 76.1896 63.4928C76.5513 64.0408 76.9643 64.5674 77.4286 65.0728C79.5449 63.7759 81.411 62.7621 83.0269 62.0315C85.1673 61.0695 87.0515 60.5124 88.6794 60.3602C91.0429 60.141 92.1644 59.4835 92.0438 58.3875C92.0136 58.1074 91.7483 57.8487 91.2479 57.6112Z" fill="#FFFFE9"/>
<mask id="mask5_1808_2956" style="mask-type:luminance" maskUnits="userSpaceOnUse" x="75" y="57" width="18" height="9">
<path d="M91.2479 57.6112C90.5485 57.2703 89.5959 57.1637 88.39 57.2916C87.0334 57.4316 85.7552 57.6782 84.5553 58.0313C83.4278 58.354 82.1858 58.8259 80.8291 59.4469C79.8162 59.9097 78.8153 60.3328 77.8265 60.7164C76.7774 61.1243 76.1262 61.3831 75.873 61.4927C75.3605 61.7241 75.466 62.3907 76.1896 63.4928C76.5513 64.0408 76.9643 64.5674 77.4286 65.0728C79.5449 63.7759 81.411 62.7621 83.0269 62.0315C85.1673 61.0695 87.0515 60.5124 88.6794 60.3602C91.0429 60.141 92.1644 59.4835 92.0438 58.3875C92.0136 58.1074 91.7483 57.8487 91.2479 57.6112Z" fill="white"/>
</mask>
<g mask="url(#mask5_1808_2956)">
<path d="M77.2839 63.1731C78.5983 62.1685 79.6293 61.4683 80.377 61.0725C81.3598 60.5489 82.6802 60.0557 84.3383 59.593C86.0265 59.1242 87.5248 58.8472 88.8332 58.7619C89.9727 58.6828 91.2359 58.7406 92.6226 58.9354L93.7803 58.3509L90.7053 55.9033L79.8524 57.876L73.9557 61.0543L74.1366 61.6388C74.3054 62.0954 74.5013 62.482 74.7244 62.7986C75.4359 63.8093 76.2891 63.9342 77.2839 63.1731Z" fill="#D55A20"/>
</g>
<path d="M84.7635 55.83C84.8781 55.7813 85.0017 55.6352 85.1343 55.3916C85.273 55.1359 85.2429 54.9045 85.0439 54.6975C84.6641 54.3018 83.7174 53.8025 82.2041 53.1997C80.6244 52.5665 78.8005 52.256 76.7324 52.2682C75.0985 52.2743 73.4253 52.4752 71.713 52.8709L69.47 55.1724L70.8447 55.6291C71.93 55.8787 72.8947 55.8726 73.7388 55.6108C74.7216 55.3125 75.5507 55.1207 76.226 55.0354C76.8289 54.9624 77.7062 54.9319 78.8578 54.9441C79.8345 54.9563 80.7058 55.0385 81.4715 55.1907C81.7971 55.2577 82.4633 55.4342 83.4702 55.7204C84.0852 55.897 84.5163 55.9335 84.7635 55.83Z" fill="#FFFFE9"/>
<mask id="mask6_1808_2956" style="mask-type:luminance" maskUnits="userSpaceOnUse" x="69" y="52" width="17" height="4">
<path d="M84.7635 55.83C84.8781 55.7813 85.0017 55.6352 85.1343 55.3916C85.273 55.1359 85.2429 54.9045 85.0439 54.6975C84.6641 54.3018 83.7174 53.8025 82.2041 53.1997C80.6244 52.5665 78.8005 52.256 76.7324 52.2682C75.0985 52.2743 73.4253 52.4752 71.713 52.8709L69.47 55.1724L70.8447 55.6291C71.93 55.8787 72.8947 55.8726 73.7388 55.6108C74.7216 55.3125 75.5507 55.1207 76.226 55.0354C76.8289 54.9624 77.7062 54.9319 78.8578 54.9441C79.8345 54.9563 80.7058 55.0385 81.4715 55.1907C81.7971 55.2577 82.4633 55.4342 83.4702 55.7204C84.0852 55.897 84.5163 55.9335 84.7635 55.83Z" fill="white"/>
</mask>
<g mask="url(#mask6_1808_2956)">
<path d="M85.6047 55.7205L86.9794 55.6109L86.3101 52.0673L77.5374 49.2544L66.1419 51.9943L65.7891 52.6336C65.5721 53.1267 65.5238 53.5499 65.6444 53.903C66.0303 55.0355 68.02 55.2547 71.6135 54.5606C75.4301 53.8178 78.4508 53.623 80.6757 53.9761C81.562 54.11 82.4423 54.3505 83.3165 54.6976C83.6361 54.8194 84.3988 55.1603 85.6047 55.7205Z" fill="#D55A20"/>
</g>
<path d="M73.9377 55.254C72.9972 54.2859 71.9511 53.4426 70.7994 52.7242C69.889 52.1579 69.1323 51.7865 68.5294 51.61C67.8059 51.403 66.1418 50.8824 63.5371 50.0482C60.5827 49.1045 58.8703 48.5596 58.4 48.4135C57.6524 48.1821 57.2273 48.0451 57.1248 48.0025C56.757 47.8503 56.4284 47.6311 56.139 47.3449C55.5843 46.7787 54.6498 45.2778 53.3354 42.8424C52.1295 40.6079 50.8181 38.9061 49.4012 37.7371C48.6294 37.1039 47.7702 36.6138 46.8236 36.2667C46.3413 36.0719 45.9524 35.9167 45.657 35.801C45.1324 35.594 44.3154 35.323 43.206 34.9881C42.5609 34.7933 42.0936 34.4067 41.8042 33.8283C41.5389 33.2986 41.4786 32.7384 41.6233 32.1478C41.774 31.539 42.0996 31.0854 42.6001 30.787C43.1608 30.4521 43.8451 30.3913 44.6531 30.6044C45.2862 30.7627 46.6609 31.1249 48.7772 31.6912C50.797 32.2148 52.2863 32.5497 53.2449 32.6958C54.3965 32.8724 55.4969 32.8115 56.546 32.5131C57.5469 32.227 58.5568 31.7094 59.5758 30.9605C60.4621 30.3091 61.1585 29.0731 61.665 27.2526C62.081 25.767 62.2588 24.5067 62.1985 23.4716C62.1684 22.9541 62.0146 22.2691 61.7373 21.4167C61.3755 20.2964 60.8811 19.1791 60.2541 18.0649C58.4694 14.9111 55.9521 12.3569 52.7023 10.4025C50.8392 9.28216 48.6144 8.42063 46.0278 7.81786C43.5135 7.22727 40.8455 6.92588 38.0238 6.9137C31.9643 6.88935 26.6072 8.05531 21.9525 10.4116C16.7732 13.0358 12.6733 16.6615 9.65256 21.2888C6.16758 26.6285 4.5095 32.8084 4.67833 39.8286C4.76877 43.5974 5.41391 47.3236 6.61375 51.0072C7.83169 54.7334 9.55307 58.2374 11.7779 61.5191C16.5773 68.5941 23.0136 73.815 31.087 77.182C38.1233 80.1167 46.1966 81.0178 55.307 79.8853C60.3053 79.2643 64.8937 78.1805 69.072 76.634C71.2426 75.8303 73.0333 74.7131 74.4442 73.2823C76.6811 71.0112 77.8176 68.11 77.8538 64.5786C77.89 61.0777 76.5846 57.9695 73.9377 55.254Z" fill="#FFFFE9"/>
<mask id="mask7_1808_2956" style="mask-type:luminance" maskUnits="userSpaceOnUse" x="4" y="6" width="74" height="75">
<path d="M73.9377 55.254C72.9972 54.2859 71.9511 53.4426 70.7994 52.7242C69.889 52.1579 69.1323 51.7865 68.5294 51.61C67.8059 51.403 66.1418 50.8824 63.5371 50.0482C60.5827 49.1045 58.8703 48.5596 58.4 48.4135C57.6524 48.1821 57.2273 48.0451 57.1248 48.0025C56.757 47.8503 56.4284 47.6311 56.139 47.3449C55.5843 46.7787 54.6498 45.2778 53.3354 42.8424C52.1295 40.6079 50.8181 38.9061 49.4012 37.7371C48.6294 37.1039 47.7702 36.6138 46.8236 36.2667C46.3413 36.0719 45.9524 35.9167 45.657 35.801C45.1324 35.594 44.3154 35.323 43.206 34.9881C42.5609 34.7933 42.0936 34.4067 41.8042 33.8283C41.5389 33.2986 41.4786 32.7384 41.6233 32.1478C41.774 31.539 42.0996 31.0854 42.6001 30.787C43.1608 30.4521 43.8451 30.3913 44.6531 30.6044C45.2862 30.7627 46.6609 31.1249 48.7772 31.6912C50.797 32.2148 52.2863 32.5497 53.2449 32.6958C54.3965 32.8724 55.4969 32.8115 56.546 32.5131C57.5469 32.227 58.5568 31.7094 59.5758 30.9605C60.4621 30.3091 61.1585 29.0731 61.665 27.2526C62.081 25.767 62.2588 24.5067 62.1985 23.4716C62.1684 22.9541 62.0146 22.2691 61.7373 21.4167C61.3755 20.2964 60.8811 19.1791 60.2541 18.0649C58.4694 14.9111 55.9521 12.3569 52.7023 10.4025C50.8392 9.28216 48.6144 8.42063 46.0278 7.81786C43.5135 7.22727 40.8455 6.92588 38.0238 6.9137C31.9643 6.88935 26.6072 8.05531 21.9525 10.4116C16.7732 13.0358 12.6733 16.6615 9.65256 21.2888C6.16758 26.6285 4.5095 32.8084 4.67833 39.8286C4.76877 43.5974 5.41391 47.3236 6.61375 51.0072C7.83169 54.7334 9.55307 58.2374 11.7779 61.5191C16.5773 68.5941 23.0136 73.815 31.087 77.182C38.1233 80.1167 46.1966 81.0178 55.307 79.8853C60.3053 79.2643 64.8937 78.1805 69.072 76.634C71.2426 75.8303 73.0333 74.7131 74.4442 73.2823C76.6811 71.0112 77.8176 68.11 77.8538 64.5786C77.89 61.0777 76.5846 57.9695 73.9377 55.254Z" fill="white"/>
</mask>
<g mask="url(#mask7_1808_2956)">
<path d="M38.6026 70.3688C38.2408 70.0035 37.8037 69.8208 37.2912 69.8208C36.7787 69.8208 36.3386 70.0035 35.9708 70.3688C35.609 70.7402 35.4281 71.1846 35.4281 71.7022C35.4281 72.2197 35.609 72.6611 35.9708 73.0264C36.3386 73.3978 36.7787 73.5835 37.2912 73.5835C37.8037 73.5835 38.2408 73.3978 38.6026 73.0264C38.9704 72.6611 39.1543 72.2197 39.1543 71.7022C39.1543 71.1846 38.9704 70.7402 38.6026 70.3688ZM37.5987 67.8481C37.5987 67.5559 37.4962 67.3062 37.2912 67.0992C37.0862 66.8922 36.839 66.7887 36.5496 66.7887C36.2602 66.7887 36.013 66.8922 35.808 67.0992C35.603 67.3062 35.5005 67.5559 35.5005 67.8481C35.5005 68.1404 35.603 68.39 35.808 68.597C36.013 68.804 36.2602 68.9075 36.5496 68.9075C36.839 68.9075 37.0862 68.804 37.2912 68.597C37.4962 68.39 37.5987 68.1404 37.5987 67.8481ZM20.6321 47.8471C20.6321 47.1774 20.3969 46.6051 19.9266 46.1301C19.4563 45.6552 18.8896 45.4178 18.2263 45.4178C17.5631 45.4178 16.9963 45.6552 16.5261 46.1301C16.0558 46.6051 15.8206 47.1774 15.8206 47.8471C15.8206 48.5169 16.0558 49.0892 16.5261 49.5641C16.9963 50.039 17.5631 50.2765 18.2263 50.2765C18.8896 50.2765 19.4563 50.039 19.9266 49.5641C20.3969 49.0892 20.6321 48.5169 20.6321 47.8471ZM19.8 42.6414C19.5588 42.891 19.4382 43.1894 19.4382 43.5364C19.4382 43.8835 19.5588 44.1788 19.8 44.4223C20.0472 44.6719 20.3426 44.7967 20.6863 44.7967C21.03 44.7967 21.3224 44.6719 21.5636 44.4223C21.8108 44.1788 21.9344 43.8835 21.9344 43.5364C21.9344 43.1894 21.8108 42.891 21.5636 42.6414C21.3224 42.3978 21.03 42.2761 20.6863 42.2761C20.3426 42.2761 20.0472 42.3978 19.8 42.6414ZM33.8002 46.3493C33.8002 45.9901 33.6736 45.6826 33.4204 45.4269C33.1732 45.1773 32.8717 45.0525 32.5159 45.0525C32.1602 45.0525 31.8557 45.1773 31.6025 45.4269C31.3553 45.6826 31.2317 45.9901 31.2317 46.3493C31.2317 46.7086 31.3553 47.013 31.6025 47.2626C31.8557 47.5183 32.1602 47.6462 32.5159 47.6462C32.8717 47.6462 33.1732 47.5183 33.4204 47.2626C33.6736 47.013 33.8002 46.7086 33.8002 46.3493ZM43.6763 62.0761C43.6763 61.863 43.601 61.6804 43.4502 61.5282C43.3055 61.382 43.1276 61.309 42.9166 61.309C42.7056 61.309 42.5247 61.382 42.374 61.5282C42.2293 61.6804 42.1569 61.863 42.1569 62.0761C42.1569 62.2892 42.2293 62.4688 42.374 62.615C42.5247 62.7672 42.7056 62.8433 42.9166 62.8433C43.1276 62.8433 43.3055 62.7672 43.4502 62.615C43.601 62.4688 43.6763 62.2892 43.6763 62.0761ZM47.1945 49.8838C47.0196 50.0664 46.9322 50.2826 46.9322 50.5322C46.9322 50.7818 47.0196 50.9949 47.1945 51.1715C47.3753 51.3541 47.5894 51.4455 47.8366 51.4455C48.0838 51.4455 48.2948 51.3541 48.4697 51.1715C48.6506 50.9949 48.741 50.7818 48.741 50.5322C48.741 50.2826 48.6506 50.0664 48.4697 49.8838C48.2948 49.7072 48.0838 49.6189 47.8366 49.6189C47.5894 49.6189 47.3753 49.7072 47.1945 49.8838ZM46.064 48.3403C46.064 47.8471 45.8891 47.424 45.5394 47.0708C45.1957 46.7238 44.7797 46.5503 44.2913 46.5503C43.8029 46.5503 43.3839 46.7238 43.0342 47.0708C42.6905 47.424 42.5187 47.8471 42.5187 48.3403C42.5187 48.8335 42.6905 49.2536 43.0342 49.6006C43.3839 49.9538 43.8029 50.1303 44.2913 50.1303C44.7797 50.1303 45.1957 49.9538 45.5394 49.6006C45.8891 49.2536 46.064 48.8335 46.064 48.3403ZM52.856 29.965C52.6872 29.7945 52.4792 29.7092 52.232 29.7092C51.9848 29.7092 51.7738 29.7945 51.5989 29.965C51.4301 30.1415 51.3457 30.3546 51.3457 30.6043C51.3457 30.8539 51.4301 31.064 51.5989 31.2344C51.7738 31.411 51.9848 31.4993 52.232 31.4993C52.4792 31.4993 52.6872 31.411 52.856 31.2344C53.0309 31.064 53.1183 30.8539 53.1183 30.6043C53.1183 30.3546 53.0309 30.1415 52.856 29.965ZM29.6761 36.1936C29.6761 35.9135 29.5796 35.6761 29.3867 35.4812C29.1938 35.2864 28.9586 35.189 28.6813 35.189C28.4039 35.189 28.1688 35.2864 27.9758 35.4812C27.7829 35.6761 27.6864 35.9135 27.6864 36.1936C27.6864 36.4737 27.7829 36.7111 27.9758 36.9059C28.1688 37.1008 28.4039 37.1982 28.6813 37.1982C28.9586 37.1982 29.1938 37.1008 29.3867 36.9059C29.5796 36.7111 29.6761 36.4737 29.6761 36.1936ZM35.7175 28.3576C35.7175 28.1567 35.6452 27.9831 35.5005 27.837C35.3618 27.697 35.193 27.627 34.994 27.627C34.7951 27.627 34.6232 27.697 34.4785 27.837C34.3398 27.9831 34.2705 28.1567 34.2705 28.3576C34.2705 28.5585 34.3398 28.729 34.4785 28.869C34.6232 29.0151 34.7951 29.0882 34.994 29.0882C35.193 29.0882 35.3618 29.0151 35.5005 28.869C35.6452 28.729 35.7175 28.5585 35.7175 28.3576Z" fill="#E1AD94"/>
</g>
<mask id="mask8_1808_2956" style="mask-type:luminance" maskUnits="userSpaceOnUse" x="4" y="6" width="74" height="75">
<path d="M73.9377 55.254C72.9972 54.2859 71.9511 53.4426 70.7994 52.7242C69.889 52.1579 69.1323 51.7865 68.5294 51.61C67.8059 51.403 66.1418 50.8824 63.5371 50.0482C60.5827 49.1045 58.8703 48.5596 58.4 48.4135C57.6524 48.1821 57.2273 48.0451 57.1248 48.0025C56.757 47.8503 56.4284 47.6311 56.139 47.3449C55.5843 46.7787 54.6498 45.2778 53.3354 42.8424C52.1295 40.6079 50.8181 38.9061 49.4012 37.7371C48.6294 37.1039 47.7702 36.6138 46.8236 36.2667C46.3413 36.0719 45.9524 35.9167 45.657 35.801C45.1324 35.594 44.3154 35.323 43.206 34.9881C42.5609 34.7933 42.0936 34.4067 41.8042 33.8283C41.5389 33.2986 41.4786 32.7384 41.6233 32.1478C41.774 31.539 42.0996 31.0854 42.6001 30.787C43.1608 30.4521 43.8451 30.3913 44.6531 30.6044C45.2862 30.7627 46.6609 31.1249 48.7772 31.6912C50.797 32.2148 52.2863 32.5497 53.2449 32.6958C54.3965 32.8724 55.4969 32.8115 56.546 32.5131C57.5469 32.227 58.5568 31.7094 59.5758 30.9605C60.4621 30.3091 61.1585 29.0731 61.665 27.2526C62.081 25.767 62.2588 24.5067 62.1985 23.4716C62.1684 22.9541 62.0146 22.2691 61.7373 21.4167C61.3755 20.2964 60.8811 19.1791 60.2541 18.0649C58.4694 14.9111 55.9521 12.3569 52.7023 10.4025C50.8392 9.28216 48.6144 8.42063 46.0278 7.81786C43.5135 7.22727 40.8455 6.92588 38.0238 6.9137C31.9643 6.88935 26.6072 8.05531 21.9525 10.4116C16.7732 13.0358 12.6733 16.6615 9.65256 21.2888C6.16758 26.6285 4.5095 32.8084 4.67833 39.8286C4.76877 43.5974 5.41391 47.3236 6.61375 51.0072C7.83169 54.7334 9.55307 58.2374 11.7779 61.5191C16.5773 68.5941 23.0136 73.815 31.087 77.182C38.1233 80.1167 46.1966 81.0178 55.307 79.8853C60.3053 79.2643 64.8937 78.1805 69.072 76.634C71.2426 75.8303 73.0333 74.7131 74.4442 73.2823C76.6811 71.0112 77.8176 68.11 77.8538 64.5786C77.89 61.0777 76.5846 57.9695 73.9377 55.254Z" fill="white"/>
</mask>
<g mask="url(#mask8_1808_2956)">
<path d="M19.7276 70.2228L19.7457 70.7616C19.7759 71.1817 19.8482 71.544 19.9628 71.8484C20.3245 72.8226 21.0179 73.0357 22.0429 72.4877C23.1583 71.8911 24.3069 71.0874 25.4887 70.0767C26.4715 69.2365 27.204 68.5058 27.6864 67.8848C28.0783 67.3855 28.0753 67.0507 27.6773 66.8802C27.2854 66.7097 26.9026 66.8497 26.5287 67.3003C26.1007 67.8178 25.1752 68.4145 23.7522 69.0903C22.1605 69.8453 20.8189 70.2228 19.7276 70.2228ZM28.437 57.3455C28.7445 55.8659 28.8681 54.5751 28.8079 53.4731C28.7476 52.3833 28.5305 51.8353 28.1567 51.8292C27.7346 51.817 27.2161 52.5172 26.6011 53.9298C25.3289 56.8584 23.5201 59.2268 21.1747 61.0351C18.9197 62.7643 16.4476 63.7719 13.7585 64.0581L13.9213 65.0171C14.0841 65.766 14.2982 66.4357 14.5635 67.0263C15.4076 68.8955 16.5984 69.5713 18.1359 69.0538C18.7509 68.8468 19.5889 68.5728 20.6501 68.2318C21.5123 67.9274 22.2328 67.5834 22.8116 67.1998C24.2527 66.2439 25.6123 64.4752 26.8905 61.8936C27.5718 60.5237 28.0873 59.0076 28.437 57.3455ZM6.27006 52.5416L6.53234 53.7471C6.75542 54.6969 6.99961 55.5432 7.2649 56.286C8.10902 58.6728 8.98327 59.5921 9.88768 59.0442C11.0393 58.3501 12.2361 57.2572 13.4782 55.7655C14.7745 54.219 15.2659 53.2174 14.9524 52.7608C14.7051 52.4015 14.3434 52.1945 13.8671 52.1397C12.824 52.024 12.0281 51.8901 11.4794 51.7379C10.2615 51.403 9.39327 51.2721 8.87474 51.3452C8.30798 51.4243 7.43975 51.8231 6.27006 52.5416ZM32.8325 39.1162C32.9108 38.5074 32.1843 38.55 30.6528 39.2441C29.2299 39.8895 27.5869 41.6461 25.7238 44.5138C24.741 46.0298 23.6588 47.8777 22.477 50.0574C21.7053 51.3299 20.216 52.9556 18.0092 54.9344C15.4347 57.2541 12.8963 59.0624 10.3942 60.3593L12.4924 62.9896C15.079 62.3624 17.6686 60.6729 20.2612 57.9208C21.2983 56.8188 22.1906 55.6894 22.9383 54.5325C23.6497 53.4427 24.0989 52.5355 24.2858 51.8109C24.6295 50.4836 25.7208 48.4287 27.5598 45.6462C29.3384 42.9551 30.6106 41.3568 31.3764 40.8515C31.7381 40.614 32.0637 40.3248 32.3531 39.9839C32.6425 39.6429 32.8023 39.3537 32.8325 39.1162ZM18.8594 38.1482C19.6372 37.5576 20.2853 37.1375 20.8039 36.8878C21.443 36.5773 22.3625 36.2668 23.5623 35.9563C24.6596 35.6701 25.0365 35.3322 24.6928 34.9425C24.5722 34.8025 24.3763 34.6777 24.1049 34.5681C23.8577 34.4707 23.6527 34.422 23.4899 34.422C23.2548 34.3976 23.0287 34.3885 22.8116 34.3946C22.4016 34.4067 21.9344 34.4889 21.4098 34.6411C19.8301 35.1039 17.7259 36.1998 15.0971 37.929C12.203 39.8286 9.88768 40.9276 8.15122 41.2259C6.76446 41.4634 5.46212 41.1925 4.24419 40.4131L4.20801 42.1575C4.20198 43.5518 4.24117 44.8152 4.32558 45.9476C4.60294 49.5764 5.29933 51.2386 6.41476 50.9342C8.61549 50.3314 11.1237 48.8945 13.9394 46.6235C14.7172 45.9963 15.6276 44.5016 16.6707 42.1392C17.2435 40.8424 17.6143 40.0265 17.7831 39.6916C18.1811 38.9001 18.5398 38.3856 18.8594 38.1482ZM12.0221 38.8971C12.8662 38.4465 13.7827 37.792 14.7715 36.9335C15.0368 36.696 15.9653 35.8345 17.557 34.3489C19.2754 32.7415 21.0179 31.813 22.7845 31.5634C23.5623 31.4538 24.7621 31.5299 26.384 31.7917C26.8182 31.8587 27.1106 31.8282 27.2613 31.7004C27.4 31.5847 27.394 31.4142 27.2432 31.1889C26.8754 30.6349 26.1308 30.2513 25.0093 30.0382C23.7372 29.8007 22.3172 29.9834 20.7496 30.5861C18.9589 31.2802 17.1953 32.4614 15.4588 34.1297C13.6982 35.8223 11.8683 36.9487 9.96908 37.5089C8.28688 38.002 6.40271 38.0934 4.31654 37.7828C4.05125 37.8255 3.75279 37.8803 3.42118 37.9472C2.76398 38.0873 2.2756 38.2365 1.95604 38.3948C0.931046 38.894 1.79023 39.372 4.5336 39.8286C7.46387 40.3157 9.96004 40.0052 12.0221 38.8971ZM20.1617 29.3075C20.1617 28.7839 19.9386 28.4673 19.4925 28.3577C18.9257 28.3334 18.5217 28.309 18.2806 28.2847C17.8947 28.3334 17.5691 28.3425 17.3038 28.3121C16.8335 28.2573 16.1462 27.9559 15.2418 27.4079C14.0902 26.7138 12.8752 26.3455 11.597 26.3028C10.1439 26.2602 8.22357 26.6042 5.83594 27.3348L5.54653 27.481L4.62404 28.9331C3.93066 30.1021 3.38802 31.1767 2.99611 32.157C1.742 35.2987 2.23038 36.9304 4.46124 37.0522C6.83079 37.1801 8.67578 37.0309 9.99621 36.6047C10.8162 36.3368 11.5759 35.8771 12.2753 35.2256C12.824 34.7081 13.6591 34.0171 14.7805 33.1525C15.9743 32.227 16.8275 31.6273 17.34 31.3533C17.7017 31.1585 18.3077 30.8997 19.1578 30.577C19.8271 30.2421 20.1617 29.819 20.1617 29.3075ZM39.9863 11.6263C39.5643 10.4086 39.1 8.60638 38.5935 6.21965L37.9604 3.00488L28.627 7.02334C29.6098 8.64291 30.9362 10.1133 32.6064 11.4345C33.5168 12.1591 34.1107 12.6492 34.388 12.9049C35.0091 13.4894 35.5246 14.1287 35.9346 14.8228C36.3506 15.523 36.8993 16.1014 37.5806 16.5581C37.9544 16.8138 38.6176 17.1578 39.5703 17.5901C40.4807 18.0102 41.1892 18.3968 41.6956 18.7499C42.4915 19.3162 43.1849 20.0316 43.7758 20.8962C44.8791 22.5157 45.2891 22.7471 45.0058 21.5903L44.2551 19.371C43.7125 18.5673 43.1276 17.6418 42.5006 16.5946C41.2465 14.5001 40.4084 12.844 39.9863 11.6263Z" fill="#D55A20"/>
<path d="M28.627 7.02335C29.6098 8.64291 30.9362 10.1133 32.6064 11.4345C33.5168 12.1591 34.1107 12.6492 34.388 12.9049C35.0091 13.4894 35.5246 14.1287 35.9346 14.8228C36.3506 15.523 36.8993 16.1014 37.5806 16.5581C37.9544 16.8138 38.6176 17.1578 39.5703 17.5901C40.4807 18.0102 41.1892 18.3968 41.6956 18.7499C42.4915 19.3162 43.1849 20.0316 43.7758 20.8962C44.8791 22.5157 45.2891 22.7471 45.0058 21.5903L44.2551 19.371C43.7125 18.5673 43.1276 17.6418 42.5006 16.5946C41.2465 14.5001 40.4084 12.844 39.9863 11.6263C39.5643 10.4086 39.1 8.60638 38.5935 6.21965L37.9604 3.00488L28.627 7.02335ZM5.83594 27.3348C8.22357 26.6042 10.1439 26.2602 11.597 26.3028C12.8752 26.3455 14.0902 26.7138 15.2418 27.4079C16.1462 27.9559 16.8335 28.2573 17.3038 28.3121C17.5691 28.3425 17.8947 28.3334 18.2806 28.2847C18.5217 28.309 18.9257 28.3334 19.4925 28.3577C19.9386 28.4673 20.1617 28.7839 20.1617 29.3075C20.1617 29.819 19.8271 30.2421 19.1578 30.577C18.3077 30.8997 17.7017 31.1585 17.34 31.3533C16.8275 31.6273 15.9743 32.227 14.7805 33.1525C13.6591 34.0171 12.824 34.7081 12.2753 35.2256C11.5759 35.8771 10.8162 36.3368 9.99621 36.6047C8.67578 37.0309 6.83079 37.1801 4.46124 37.0522C2.23038 36.9304 1.742 35.2987 2.99611 32.157C3.38802 31.1767 3.93066 30.1021 4.62404 28.9331L5.54653 27.481L5.83594 27.3348ZM4.31654 37.7828C6.40271 38.0934 8.28688 38.002 9.96908 37.5089C11.8683 36.9487 13.6982 35.8223 15.4588 34.1297C17.1953 32.4614 18.9589 31.2802 20.7496 30.5861C22.3172 29.9834 23.7372 29.8007 25.0093 30.0382C26.1308 30.2513 26.8754 30.6349 27.2432 31.1889C27.394 31.4142 27.4 31.5847 27.2613 31.7004C27.1106 31.8282 26.8182 31.8587 26.384 31.7917C24.7621 31.5299 23.5623 31.4538 22.7845 31.5634C21.0179 31.813 19.2754 32.7415 17.557 34.3489C15.9653 35.8345 15.0368 36.696 14.7715 36.9335C13.7827 37.792 12.8662 38.4465 12.0221 38.8971C9.96004 40.0052 7.46387 40.3157 4.5336 39.8286C1.79023 39.372 0.931046 38.894 1.95604 38.3948C2.2756 38.2364 2.76398 38.0873 3.42118 37.9472C3.75279 37.8803 4.05125 37.8255 4.31654 37.7828ZM4.24419 40.4131C5.46212 41.1925 6.76446 41.4634 8.15122 41.2259C9.88768 40.9276 12.203 39.8286 15.0971 37.929C17.7259 36.1998 19.8301 35.1039 21.4098 34.6411C21.9344 34.4889 22.4016 34.4067 22.8116 34.3946C23.0287 34.3885 23.2548 34.3976 23.4899 34.422C23.6527 34.422 23.8577 34.4707 24.1049 34.5681C24.3763 34.6777 24.5722 34.8025 24.6928 34.9425C25.0365 35.3322 24.6596 35.6701 23.5623 35.9563C22.3625 36.2668 21.443 36.5773 20.8039 36.8878C20.2853 37.1375 19.6372 37.5576 18.8594 38.1482C18.5398 38.3856 18.1811 38.9001 17.7831 39.6916C17.6143 40.0265 17.2435 40.8424 16.6707 42.1392C15.6276 44.5016 14.7172 45.9963 13.9394 46.6235C11.1237 48.8945 8.61549 50.3314 6.41476 50.9342C5.29933 51.2386 4.60293 49.5764 4.32558 45.9476C4.24117 44.8152 4.20198 43.5518 4.20801 42.1575L4.24419 40.4131ZM10.3942 60.3593C12.8963 59.0624 15.4347 57.2541 18.0092 54.9344C20.216 52.9556 21.7053 51.3299 22.477 50.0574C23.6588 47.8777 24.741 46.0298 25.7238 44.5138C27.5869 41.6461 29.2299 39.8895 30.6528 39.2441C32.1843 38.55 32.9108 38.5074 32.8325 39.1162C32.8023 39.3537 32.6425 39.6429 32.3531 39.9839C32.0637 40.3248 31.7381 40.614 31.3764 40.8515C30.6106 41.3568 29.3384 42.9551 27.5598 45.6462C25.7208 48.4287 24.6295 50.4836 24.2858 51.8109C24.0989 52.5355 23.6497 53.4427 22.9383 54.5325C22.1906 55.6894 21.2983 56.8188 20.2612 57.9208C17.6686 60.6729 15.079 62.3624 12.4924 62.9896L10.3942 60.3593ZM6.27006 52.5416C7.43975 51.8231 8.30798 51.4243 8.87474 51.3452C9.39327 51.2721 10.2615 51.403 11.4794 51.7379C12.0281 51.8901 12.824 52.024 13.8671 52.1397C14.3434 52.1945 14.7051 52.4015 14.9524 52.7608C15.2659 53.2174 14.7745 54.219 13.4782 55.7655C12.2361 57.2572 11.0393 58.3501 9.88768 59.0442C8.98327 59.5921 8.10902 58.6728 7.2649 56.286C6.99961 55.5432 6.75542 54.6969 6.53234 53.7471L6.27006 52.5416ZM13.7585 64.0581C16.4476 63.7719 18.9197 62.7643 21.1747 61.0351C23.5201 59.2268 25.3289 56.8584 26.6011 53.9298C27.2161 52.5172 27.7346 51.817 28.1567 51.8292C28.5305 51.8353 28.7476 52.3833 28.8079 53.4731C28.8681 54.5751 28.7445 55.8659 28.437 57.3455C28.0873 59.0076 27.5718 60.5237 26.8905 61.8936C25.6123 64.4752 24.2527 66.2439 22.8116 67.1998C22.2328 67.5834 21.5123 67.9274 20.6501 68.2318C19.5889 68.5728 18.7509 68.8468 18.1359 69.0538C16.5984 69.5713 15.4076 68.8955 14.5635 67.0263C14.2982 66.4357 14.0841 65.766 13.9213 65.0171L13.7585 64.0581ZM19.7276 70.2228C20.8189 70.2228 22.1605 69.8453 23.7522 69.0903C25.1752 68.4145 26.1007 67.8178 26.5287 67.3003C26.9026 66.8497 27.2854 66.7097 27.6773 66.8802C28.0753 67.0506 28.0783 67.3855 27.6864 67.8848C27.204 68.5058 26.4715 69.2364 25.4887 70.0767C24.3069 71.0874 23.1583 71.8911 22.0429 72.4877C21.0179 73.0357 20.3245 72.8226 19.9628 71.8484C19.8482 71.544 19.7759 71.1818 19.7457 70.7616L19.7276 70.2228Z" stroke="#D55A20" stroke-linecap="round" stroke-linejoin="round"/>
</g>
<mask id="mask9_1808_2956" style="mask-type:luminance" maskUnits="userSpaceOnUse" x="4" y="6" width="74" height="75">
<path d="M73.9377 55.254C72.9972 54.2859 71.9511 53.4426 70.7994 52.7242C69.889 52.1579 69.1323 51.7865 68.5294 51.61C67.8059 51.403 66.1418 50.8824 63.5371 50.0482C60.5827 49.1045 58.8703 48.5596 58.4 48.4135C57.6524 48.1821 57.2273 48.0451 57.1248 48.0025C56.757 47.8503 56.4284 47.6311 56.139 47.3449C55.5843 46.7787 54.6498 45.2778 53.3354 42.8424C52.1295 40.6079 50.8181 38.9061 49.4012 37.7371C48.6294 37.1039 47.7702 36.6138 46.8236 36.2667C46.3413 36.0719 45.9524 35.9167 45.657 35.801C45.1324 35.594 44.3154 35.323 43.206 34.9881C42.5609 34.7933 42.0936 34.4067 41.8042 33.8283C41.5389 33.2986 41.4786 32.7384 41.6233 32.1478C41.774 31.539 42.0996 31.0854 42.6001 30.787C43.1608 30.4521 43.8451 30.3913 44.6531 30.6044C45.2862 30.7627 46.6609 31.1249 48.7772 31.6912C50.797 32.2148 52.2863 32.5497 53.2449 32.6958C54.3965 32.8724 55.4969 32.8115 56.546 32.5131C57.5469 32.227 58.5568 31.7094 59.5758 30.9605C60.4621 30.3091 61.1585 29.0731 61.665 27.2526C62.081 25.767 62.2588 24.5067 62.1985 23.4716C62.1684 22.9541 62.0146 22.2691 61.7373 21.4167C61.3755 20.2964 60.8811 19.1791 60.2541 18.0649C58.4694 14.9111 55.9521 12.3569 52.7023 10.4025C50.8392 9.28216 48.6144 8.42063 46.0278 7.81786C43.5135 7.22727 40.8455 6.92588 38.0238 6.9137C31.9643 6.88935 26.6072 8.05531 21.9525 10.4116C16.7732 13.0358 12.6733 16.6615 9.65256 21.2888C6.16758 26.6285 4.5095 32.8084 4.67833 39.8286C4.76877 43.5974 5.41391 47.3236 6.61375 51.0072C7.83169 54.7334 9.55307 58.2374 11.7779 61.5191C16.5773 68.5941 23.0136 73.815 31.087 77.182C38.1233 80.1167 46.1966 81.0178 55.307 79.8853C60.3053 79.2643 64.8937 78.1805 69.072 76.634C71.2426 75.8303 73.0333 74.7131 74.4442 73.2823C76.6811 71.0112 77.8176 68.11 77.8538 64.5786C77.89 61.0777 76.5846 57.9695 73.9377 55.254Z" fill="white"/>
</mask>
<g mask="url(#mask9_1808_2956)">
<path d="M44.436 6.3383L42.0122 6.65795C41.6203 7.5347 41.6776 9.00205 42.1841 11.06C42.7629 13.4163 43.7426 15.3585 45.1234 16.8868C46.3895 18.2871 47.0889 18.5794 47.2216 17.7635C47.2578 17.52 47.2517 17.0968 47.2035 16.494C47.1432 15.8852 47.1251 15.5047 47.1492 15.3524C47.1794 15.1454 47.3663 14.36 47.71 12.9962C48.0114 11.8028 48.1622 10.9808 48.1622 10.5303C48.1622 9.38563 47.8728 8.19227 47.2939 6.9502C47.0528 6.43267 46.1001 6.2287 44.436 6.3383ZM53.1454 10.028L50.4775 9.06903C49.8202 10.4755 49.2686 11.9276 48.8224 13.4254C48.2978 15.1728 48.0536 16.5702 48.0898 17.6174C48.1381 19.0299 48.4998 20.1442 49.1751 20.96C49.965 21.9159 50.8332 21.7515 51.7798 20.4668C52.7566 19.1395 53.673 17.5139 54.5292 15.5899C55.307 13.8364 55.717 12.6126 55.7592 11.9185C55.7893 11.401 54.9181 10.7708 53.1454 10.028ZM61.4841 19.3252L59.5577 14.7314C58.8703 15.7421 58.1076 17.1425 57.2695 18.9325C56.4013 20.7652 55.7532 22.0073 55.3251 22.6587C54.5533 23.9008 54.0167 24.7319 53.7152 25.152C53.251 25.7974 52.6782 26.3545 51.9969 26.8233C50.9116 27.5722 50.3056 28.041 50.179 28.2298C49.9137 28.6255 50.375 28.8386 51.5627 28.8691C52.7143 28.8995 53.8388 28.5707 54.9362 27.8827C55.2738 27.6696 56.0546 27.0486 57.2786 26.0196C57.8514 25.5386 58.3066 25.289 58.6442 25.2707C58.8794 25.2586 59.3165 25.3377 59.9556 25.5082C60.5827 25.6178 61.0771 25.6178 61.4389 25.5082C61.8187 25.3925 62.2408 25.1003 62.705 24.6314C63.0969 24.2357 62.69 22.4669 61.4841 19.3252ZM20.5959 18.7681C19.3659 17.6783 17.7983 15.8578 15.893 13.3067C13.9153 15.389 12.0884 17.4317 10.4123 19.4348C7.05994 23.4411 6.13745 25.2464 7.64479 24.8506C9.2486 24.4305 10.7921 24.3453 12.2753 24.5949C12.8903 24.6984 14.4339 25.1246 16.9059 25.8735C18.5218 26.3606 19.9025 26.6011 21.0481 26.595C21.4521 26.595 22.869 26.4519 25.2988 26.1658C26.7157 26.0014 28.1778 26.1536 29.6852 26.6224C30.0409 26.732 30.475 26.869 30.9875 27.0334C31.3493 27.1186 31.5995 27.0973 31.7382 26.9694C31.919 26.8111 31.9793 26.5554 31.919 26.2023C31.8588 25.8126 31.6568 25.4016 31.3131 24.9694C30.4087 23.8308 28.838 22.8901 26.6011 22.1473C24.2617 21.374 22.26 20.2477 20.5959 18.7681ZM29.0883 11.2792C27.9306 10.0128 27.2222 8.93508 26.9629 8.04615C26.7519 7.31552 25.6153 7.46164 23.5533 8.48452C22.9081 8.80722 22.2087 9.19689 21.4551 9.65353L20.5235 10.238C21.6872 12.5334 22.8961 14.2321 24.1502 15.3342C26.0374 16.9842 28.5667 17.9888 31.7382 18.348C33.3782 18.5368 34.4906 18.4454 35.0754 18.074C35.5578 17.7635 35.6512 17.2795 35.3558 16.6219C35.1086 16.0739 34.6413 15.4955 33.954 14.8867C33.3209 14.3204 32.7511 13.9399 32.2446 13.7451C31.3161 13.3858 30.264 12.5639 29.0883 11.2792Z" fill="#D55A20"/>
<path d="M20.5235 10.238C21.6872 12.5334 22.8961 14.2321 24.1502 15.3342C26.0374 16.9842 28.5667 17.9888 31.7382 18.348C33.3782 18.5368 34.4906 18.4454 35.0754 18.074C35.5578 17.7635 35.6512 17.2795 35.3558 16.6219C35.1086 16.0739 34.6413 15.4955 33.954 14.8867C33.3209 14.3204 32.7511 13.9399 32.2446 13.7451C31.3161 13.3858 30.264 12.5639 29.0883 11.2792C27.9306 10.0128 27.2222 8.93508 26.9629 8.04615C26.7519 7.31552 25.6153 7.46164 23.5533 8.48452C22.9081 8.80722 22.2087 9.19689 21.4551 9.65353L20.5235 10.238ZM15.893 13.3067C17.7983 15.8578 19.3659 17.6783 20.5959 18.7681C22.26 20.2477 24.2617 21.374 26.6011 22.1473C28.838 22.8901 30.4087 23.8308 31.3131 24.9694C31.6568 25.4016 31.8588 25.8126 31.919 26.2023C31.9793 26.5554 31.919 26.8111 31.7382 26.9695C31.5995 27.0973 31.3493 27.1186 30.9875 27.0334C30.475 26.869 30.0409 26.732 29.6852 26.6224C28.1778 26.1536 26.7157 26.0014 25.2988 26.1658C22.869 26.4519 21.4521 26.595 21.0481 26.595C19.9025 26.6011 18.5218 26.3606 16.9059 25.8735C14.4339 25.1246 12.8903 24.6984 12.2753 24.5949C10.7921 24.3453 9.2486 24.4305 7.64479 24.8506C6.13745 25.2464 7.05994 23.4411 10.4123 19.4348C12.0884 17.4317 13.9153 15.389 15.893 13.3067ZM59.5577 14.7314C58.8703 15.7421 58.1076 17.1425 57.2695 18.9325C56.4013 20.7652 55.7531 22.0073 55.3251 22.6587C54.5533 23.9008 54.0167 24.7319 53.7152 25.152C53.251 25.7974 52.6782 26.3545 51.9969 26.8233C50.9116 27.5722 50.3056 28.041 50.179 28.2298C49.9137 28.6255 50.375 28.8386 51.5627 28.8691C52.7143 28.8995 53.8388 28.5707 54.9362 27.8827C55.2738 27.6696 56.0546 27.0486 57.2786 26.0196C57.8514 25.5386 58.3066 25.289 58.6442 25.2707C58.8794 25.2586 59.3165 25.3377 59.9556 25.5082C60.5827 25.6178 61.0771 25.6178 61.4389 25.5082C61.8187 25.3925 62.2408 25.1003 62.705 24.6314C63.0969 24.2357 62.69 22.4669 61.4841 19.3252L59.5577 14.7314ZM50.4775 9.06903C49.8202 10.4755 49.2686 11.9276 48.8224 13.4254C48.2978 15.1728 48.0536 16.5702 48.0898 17.6174C48.1381 19.0299 48.4998 20.1442 49.1751 20.96C49.965 21.9159 50.8332 21.7515 51.7798 20.4668C52.7566 19.1395 53.673 17.5139 54.5292 15.5899C55.307 13.8364 55.717 12.6126 55.7592 11.9185C55.7893 11.401 54.9181 10.7708 53.1454 10.028L50.4775 9.06903ZM42.0122 6.65795C41.6203 7.5347 41.6776 9.00205 42.1841 11.06C42.7629 13.4163 43.7426 15.3585 45.1234 16.8868C46.3895 18.2871 47.0889 18.5794 47.2216 17.7635C47.2578 17.52 47.2517 17.0968 47.2035 16.494C47.1432 15.8852 47.1251 15.5047 47.1492 15.3524C47.1794 15.1454 47.3663 14.36 47.71 12.9962C48.0114 11.8028 48.1622 10.9808 48.1622 10.5303C48.1622 9.38563 47.8728 8.19227 47.2939 6.9502C47.0528 6.43267 46.1001 6.2287 44.436 6.3383L42.0122 6.65795Z" stroke="#D55A20" stroke-linecap="round" stroke-linejoin="round"/>
</g>
<mask id="mask10_1808_2956" style="mask-type:luminance" maskUnits="userSpaceOnUse" x="4" y="6" width="74" height="75">
<path d="M73.9377 55.254C72.9972 54.2859 71.9511 53.4426 70.7994 52.7242C69.889 52.1579 69.1323 51.7865 68.5294 51.61C67.8059 51.403 66.1418 50.8824 63.5371 50.0482C60.5827 49.1045 58.8703 48.5596 58.4 48.4135C57.6524 48.1821 57.2273 48.0451 57.1248 48.0025C56.757 47.8503 56.4284 47.6311 56.139 47.3449C55.5843 46.7787 54.6498 45.2778 53.3354 42.8424C52.1295 40.6079 50.8181 38.9061 49.4012 37.7371C48.6294 37.1039 47.7702 36.6138 46.8236 36.2667C46.3413 36.0719 45.9524 35.9167 45.657 35.801C45.1324 35.594 44.3154 35.323 43.206 34.9881C42.5609 34.7933 42.0936 34.4067 41.8042 33.8283C41.5389 33.2986 41.4786 32.7384 41.6233 32.1478C41.774 31.539 42.0996 31.0854 42.6001 30.787C43.1608 30.4521 43.8451 30.3913 44.6531 30.6044C45.2862 30.7627 46.6609 31.1249 48.7772 31.6912C50.797 32.2148 52.2863 32.5497 53.2449 32.6958C54.3965 32.8724 55.4969 32.8115 56.546 32.5131C57.5469 32.227 58.5568 31.7094 59.5758 30.9605C60.4621 30.3091 61.1585 29.0731 61.665 27.2526C62.081 25.767 62.2588 24.5067 62.1985 23.4716C62.1684 22.9541 62.0146 22.2691 61.7373 21.4167C61.3755 20.2964 60.8811 19.1791 60.2541 18.0649C58.4694 14.9111 55.9521 12.3569 52.7023 10.4025C50.8392 9.28216 48.6144 8.42063 46.0278 7.81786C43.5135 7.22727 40.8455 6.92588 38.0238 6.9137C31.9643 6.88935 26.6072 8.05531 21.9525 10.4116C16.7732 13.0358 12.6733 16.6615 9.65256 21.2888C6.16758 26.6285 4.5095 32.8084 4.67833 39.8286C4.76877 43.5974 5.41391 47.3236 6.61375 51.0072C7.83169 54.7334 9.55307 58.2374 11.7779 61.5191C16.5773 68.5941 23.0136 73.815 31.087 77.182C38.1233 80.1167 46.1966 81.0178 55.307 79.8853C60.3053 79.2643 64.8937 78.1805 69.072 76.634C71.2426 75.8303 73.0333 74.7131 74.4442 73.2823C76.6811 71.0112 77.8176 68.11 77.8538 64.5786C77.89 61.0777 76.5846 57.9695 73.9377 55.254Z" fill="white"/>
</mask>
<g mask="url(#mask10_1808_2956)">
<path d="M39.6789 5.16009C39.299 4.75824 38.8438 4.52992 38.3132 4.47512C37.7826 4.42032 37.3575 4.55732 37.038 4.8861C36.6823 5.26359 36.5556 5.80547 36.6581 6.51175C36.8752 8.00345 37.1887 9.3399 37.5987 10.5211C38.0027 11.6779 38.6026 12.987 39.3985 14.4482C39.8748 15.3189 41.0747 17.0998 42.998 19.7909C44.6079 22.0437 45.4128 23.3406 45.4128 23.6815C45.4128 23.8398 45.4429 24.1869 45.5032 24.7227C45.5454 25.2646 45.5334 25.7304 45.467 26.12C45.262 27.3195 44.5204 28.041 43.2422 28.2845C42.5609 28.4185 41.964 28.321 41.4515 27.9923C41.2043 27.8279 40.6315 27.2982 39.7331 26.4031C37.4962 24.1747 34.5901 22.1959 31.0146 20.4668C26.4625 18.2688 23.484 16.5336 22.0791 15.261C21.4521 14.6948 20.9727 14.089 20.6411 13.4436C20.4663 13.1087 20.21 12.4542 19.8724 11.48C19.6312 10.7798 19.2845 10.2471 18.8323 9.88178C18.4102 9.54082 18.0244 9.43427 17.6747 9.56213C17.3069 9.69608 17.1079 10.0553 17.0778 10.6398C17.0416 11.3156 17.2496 12.1802 17.7018 13.2335C18.5338 15.1636 20.5657 17.0633 23.7975 18.9325C25.2023 19.7483 27.3428 20.7712 30.2188 22.0011C32.2627 22.8779 34.0384 23.986 35.5457 25.3255C37.7947 27.3286 38.5996 29.3013 37.9605 31.2436C37.6048 32.3151 37.2761 33.0732 36.9747 33.5176C36.7154 33.9073 36.4019 34.1478 36.0341 34.2391C36.004 34.2452 35.594 34.2848 34.8041 34.3579C34.1771 34.4127 33.5651 34.5679 32.9682 34.8236C31.5874 35.4081 30.9001 35.9561 30.9061 36.4676C30.9061 36.6685 31.0297 36.8116 31.2769 36.8968C31.5241 36.982 31.8226 36.9851 32.1723 36.9059C32.8235 36.7537 33.541 36.7233 34.3248 36.8146C34.9759 36.8938 35.6211 37.046 36.2602 37.2713C36.8451 37.4783 37.3214 37.9349 37.6892 38.6412C38.063 39.3657 38.0931 39.9563 37.7796 40.413C37.2852 41.1375 37.0621 41.8072 37.1103 42.4222C37.1767 43.2563 37.858 43.5608 39.1543 43.3355C39.92 43.2015 40.6164 43.168 41.2435 43.235C41.9248 43.302 42.8865 43.5181 44.1285 43.8835C45.8228 44.3766 50.6885 45.9353 58.7256 48.5595C56.9771 46.1423 55.1683 43.6034 53.2992 40.9427C49.561 35.6152 47.3904 32.3456 46.7875 31.134C46.1785 29.9102 46.6126 28.7077 48.0898 27.5265C48.8736 26.8994 49.9589 26.2266 51.3457 25.5081C52.1235 24.9662 52.5486 24.4883 52.6209 24.0743C52.6993 23.6054 51.9848 23.6937 50.4775 24.3391C49.0425 24.9541 48.0446 24.7805 47.4839 23.8185C47.303 23.5019 47.1432 23.0544 47.0045 22.476C46.8357 21.7332 46.7393 21.3314 46.7151 21.2705C46.5403 20.7651 46.0489 19.9462 45.2409 18.8137C44.222 17.4316 43.4593 16.3752 42.9528 15.6446C42.2052 14.5669 41.5902 13.197 41.1078 11.5348C40.6375 9.92135 40.3843 8.36877 40.3481 6.87706C40.33 6.18906 40.1069 5.61673 39.6789 5.16009Z" fill="#D55A20"/>
<path d="M58.7256 48.5595C50.6885 45.9353 45.8228 44.3766 44.1285 43.8835C42.8865 43.5181 41.9248 43.302 41.2435 43.235C40.6164 43.168 39.92 43.2015 39.1543 43.3355C37.858 43.5608 37.1767 43.2563 37.1103 42.4222C37.0621 41.8072 37.2852 41.1375 37.7796 40.413C38.0931 39.9563 38.063 39.3657 37.6892 38.6412C37.3214 37.9349 36.8451 37.4783 36.2602 37.2713C35.6211 37.046 34.9759 36.8938 34.3248 36.8146C33.541 36.7233 32.8235 36.7537 32.1723 36.9059C31.8226 36.9851 31.5241 36.982 31.2769 36.8968C31.0297 36.8116 30.9061 36.6685 30.9061 36.4676C30.9001 35.9561 31.5874 35.4081 32.9682 34.8236C33.5651 34.5679 34.1771 34.4127 34.8041 34.3579C35.594 34.2848 36.004 34.2452 36.0341 34.2391C36.4019 34.1478 36.7154 33.9073 36.9747 33.5176C37.2761 33.0732 37.6048 32.3151 37.9605 31.2436C38.5996 29.3013 37.7947 27.3286 35.5457 25.3255C34.0384 23.986 32.2627 22.8779 30.2188 22.0011C27.3428 20.7712 25.2023 19.7483 23.7975 18.9325C20.5657 17.0633 18.5338 15.1636 17.7018 13.2335C17.2496 12.1802 17.0416 11.3156 17.0778 10.6398C17.1079 10.0553 17.3069 9.69608 17.6747 9.56213C18.0244 9.43427 18.4102 9.54082 18.8323 9.88178C19.2845 10.2471 19.6312 10.7798 19.8724 11.48C20.21 12.4542 20.4663 13.1087 20.6411 13.4436C20.9727 14.089 21.4521 14.6948 22.0791 15.261C23.484 16.5336 26.4625 18.2688 31.0146 20.4668C34.5901 22.1959 37.4962 24.1747 39.7331 26.4031C40.6315 27.2982 41.2043 27.8279 41.4515 27.9923C41.964 28.321 42.5609 28.4185 43.2422 28.2845C44.5204 28.041 45.262 27.3195 45.467 26.12C45.5334 25.7304 45.5454 25.2646 45.5032 24.7227C45.4429 24.1869 45.4128 23.8398 45.4128 23.6815C45.4128 23.3406 44.6079 22.0437 42.998 19.7909C41.0747 17.0998 39.8748 15.3189 39.3985 14.4482C38.6026 12.987 38.0027 11.6779 37.5987 10.5211C37.1887 9.3399 36.8752 8.00345 36.6581 6.51175C36.5556 5.80547 36.6823 5.26359 37.038 4.8861C37.3575 4.55732 37.7826 4.42032 38.3132 4.47512C38.8438 4.52992 39.299 4.75824 39.6789 5.16009C40.1069 5.61673 40.33 6.18906 40.3481 6.87706C40.3843 8.36877 40.6375 9.92135 41.1078 11.5348C41.5902 13.197 42.2052 14.5669 42.9528 15.6446C43.4593 16.3752 44.222 17.4316 45.2409 18.8137C46.0489 19.9462 46.5403 20.7651 46.7151 21.2705C46.7393 21.3314 46.8357 21.7332 47.0045 22.476C47.1432 23.0544 47.303 23.5019 47.4839 23.8185C48.0446 24.7805 49.0425 24.9541 50.4775 24.3391C51.9848 23.6937 52.6993 23.6054 52.6209 24.0743C52.5486 24.4883 52.1235 24.9662 51.3457 25.5081C49.9589 26.2266 48.8736 26.8994 48.0898 27.5265C46.6126 28.7077 46.1785 29.9102 46.7875 31.134C47.3904 32.3456 49.561 35.6152 53.2992 40.9427C55.1683 43.6034 56.9771 46.1423 58.7256 48.5595Z" stroke="#D55A20" stroke-linecap="round" stroke-linejoin="round"/>
</g>
<path d="M65.7621 46.3667C66.0938 45.3378 65.928 44.3088 65.2647 43.2798C64.6015 42.2569 63.6338 41.5355 62.3616 41.1153C61.0894 40.7013 59.8865 40.7104 58.753 41.1427C57.6255 41.5811 56.896 42.3148 56.5643 43.3438C56.2327 44.3727 56.3955 45.3987 57.0527 46.4215C57.722 47.4505 58.6927 48.172 59.9649 48.586C61.2371 49.0061 62.437 48.997 63.5644 48.5586C64.698 48.1263 65.4305 47.3957 65.7621 46.3667Z" fill="#FFFFE9"/>
<mask id="mask11_1808_2956" style="mask-type:luminance" maskUnits="userSpaceOnUse" x="56" y="40" width="10" height="9">
<path d="M65.7621 46.3667C66.0938 45.3378 65.928 44.3088 65.2647 43.2798C64.6015 42.2569 63.6338 41.5355 62.3616 41.1153C61.0894 40.7013 59.8865 40.7104 58.753 41.1427C57.6255 41.5811 56.896 42.3148 56.5643 43.3438C56.2327 44.3727 56.3955 45.3987 57.0527 46.4215C57.722 47.4505 58.6927 48.172 59.9649 48.586C61.2371 49.0061 62.437 48.997 63.5644 48.5586C64.698 48.1263 65.4305 47.3957 65.7621 46.3667Z" fill="white"/>
</mask>
<g mask="url(#mask11_1808_2956)">
<path d="M64.1162 44.8872C64.1162 44.0835 63.8358 43.3985 63.2751 42.8323C62.7143 42.266 62.036 41.9829 61.2401 41.9829C60.8844 41.9829 60.5498 42.0407 60.2363 42.1564C59.8564 42.2965 59.5127 42.5217 59.2052 42.8323C58.6445 43.3985 58.3641 44.0835 58.3641 44.8872C58.3641 45.6909 58.6445 46.3758 59.2052 46.9421C59.561 47.3013 59.9679 47.5479 60.4262 47.6818C60.4744 47.694 60.5287 47.7092 60.589 47.7275C60.794 47.7701 61.011 47.7914 61.2401 47.7914C62.024 47.7914 62.6962 47.5144 63.257 46.9603C63.263 46.9542 63.269 46.9481 63.2751 46.9421C63.8358 46.3758 64.1162 45.6909 64.1162 44.8872Z" fill="#2A0601"/>
<path d="M60.589 47.7276L60.8965 46.6956" stroke="#2A0601" stroke-width="0.1" stroke-linecap="round" stroke-linejoin="round"/>
<path d="M59.8926 49.399L60.4262 47.682L60.4533 47.5815" stroke="#2A0601" stroke-width="11" stroke-linecap="round" stroke-linejoin="round"/>
</g>
<path d="M62.6779 44.3776C62.913 44.8403 63.0788 45.1265 63.1753 45.236C63.3683 44.7916 63.3321 44.3258 63.0668 43.8387C62.8075 43.376 62.4458 43.0655 61.9815 42.9072C61.7765 42.828 61.5926 42.8067 61.4298 42.8432C61.2851 42.8798 61.1917 42.9559 61.1494 43.0716C61.0469 43.3516 61.27 43.5891 61.8187 43.7839C62.2649 43.9422 62.5513 44.1401 62.6779 44.3776Z" fill="#E6F0FF"/>
<path d="M61.9815 42.9072C62.4458 43.0655 62.8075 43.376 63.0668 43.8387C63.3321 44.3258 63.3683 44.7916 63.1753 45.236C63.0788 45.1265 62.913 44.8403 62.6779 44.3776C62.5513 44.1401 62.2649 43.9422 61.8187 43.7839C61.27 43.5891 61.0469 43.3516 61.1494 43.0716C61.1917 42.9559 61.2851 42.8798 61.4298 42.8432C61.5926 42.8067 61.7765 42.828 61.9815 42.9072Z" stroke="#E6F0FF" stroke-width="2" stroke-linecap="round" stroke-linejoin="round"/>
<path d="M58.8253 44.5505C58.7469 45.1046 58.8796 45.6313 59.2232 46.1305C59.585 46.6541 60.0704 46.9738 60.6793 47.0895C60.9326 47.1382 61.017 47.1351 60.9326 47.0803C60.6793 46.9525 60.4502 46.8216 60.2452 46.6876C59.3107 46.0727 58.8374 45.3603 58.8253 44.5505Z" stroke="#1A345B" stroke-width="2" stroke-linecap="round" stroke-linejoin="round"/>
<path d="M23.3117 108.2C20.1117 108.2 19.1517 106.04 18.7517 103.38L21.6917 102.88C21.9517 104.44 22.3317 105.36 23.3317 105.36C24.0717 105.36 24.3117 104.82 24.3117 104.34C24.3117 102.06 19.0117 101.12 19.0117 97C19.0117 94.52 20.6717 92.98 23.3117 92.98C25.9917 92.98 27.0317 94.74 27.6117 97.42L24.6117 98.14C24.3117 96.66 23.9517 95.92 23.1717 95.92C22.6517 95.92 22.3517 96.26 22.3517 96.8C22.3517 98.94 27.6517 99.98 27.6517 104.16C27.6517 106.54 25.9317 108.2 23.3117 108.2ZM29.7578 108V93.2H33.0378V98.6C33.4778 97.96 34.5178 97.14 35.6978 97.14C36.8978 97.14 37.7578 97.62 37.7578 99.56V108H34.4778V100.74C34.4778 100.28 34.3378 100.04 34.0178 100.04C33.6578 100.04 33.2778 100.28 33.0378 100.46V108H29.7578ZM43.7766 108.16C41.3166 108.16 39.5766 106.5 39.5766 102.66C39.5766 98.74 41.3766 97.14 43.6566 97.14C46.4166 97.14 47.5566 99.32 47.5566 102.76V103.86H42.6966C42.7166 105 43.0566 105.74 43.8166 105.74C44.4966 105.74 44.8766 105.18 45.1366 104.38L47.5966 105.28C46.9766 107.04 45.6966 108.16 43.7766 108.16ZM42.7166 101.78H44.5566C44.5566 100.02 44.2166 99.62 43.6566 99.62C43.1566 99.62 42.7166 100.06 42.7166 101.78ZM49.5336 108V93.2H52.8136V108H49.5336ZM55.2992 108V93.2H58.5792V108H55.2992ZM64.7649 108.16C62.3049 108.16 60.5649 106.5 60.5649 102.66C60.5649 98.74 62.3649 97.14 64.6449 97.14C67.4049 97.14 68.5449 99.32 68.5449 102.76V103.86H63.6849C63.7049 105 64.0449 105.74 64.8049 105.74C65.4849 105.74 65.8649 105.18 66.1249 104.38L68.5849 105.28C67.9649 107.04 66.6849 108.16 64.7649 108.16ZM63.7049 101.78H65.5449C65.5449 100.02 65.2049 99.62 64.6449 99.62C64.1449 99.62 63.7049 100.06 63.7049 101.78ZM72.8419 108.12C71.1219 108.12 70.0419 106.58 70.0419 102.66C70.0419 98.74 71.1419 97.14 72.8419 97.14C73.8619 97.14 74.6019 97.76 75.0419 98.4V93.2H78.3219V105.4C78.3219 106.68 78.3819 107.46 78.5619 108H75.2019C75.1219 107.68 75.0419 106.9 75.0419 106.84C74.6219 107.48 73.8819 108.12 72.8419 108.12ZM74.2019 105.44C74.5819 105.44 74.7819 105.26 75.0419 105.06V100.36C74.8619 100.2 74.5619 99.96 74.2019 99.96C73.5419 99.96 73.3619 100.48 73.3619 102.64C73.3619 104.86 73.5619 105.44 74.2019 105.44ZM6.61455 126.16C4.29455 126.16 2.49455 124.52 2.49455 120.66C2.49455 116.74 4.37455 115.14 6.67456 115.14C9.21456 115.14 10.1746 116.72 10.4946 119.08L7.47455 119.52C7.35456 118.24 7.17455 117.64 6.65456 117.64C6.01455 117.64 5.75455 118.18 5.75455 120.66C5.75455 123.06 5.95455 123.76 6.63455 123.76C7.19455 123.76 7.47455 123.2 7.59456 121.72L10.5146 122.12C10.2346 124.46 9.13455 126.16 6.61455 126.16ZM16.1321 126.16C13.6721 126.16 11.9321 124.5 11.9321 120.66C11.9321 116.74 13.7321 115.14 16.0121 115.14C18.7721 115.14 19.9121 117.32 19.9121 120.76V121.86H15.0521C15.0721 123 15.4121 123.74 16.1721 123.74C16.8521 123.74 17.2321 123.18 17.4921 122.38L19.9521 123.28C19.3321 125.04 18.0521 126.16 16.1321 126.16ZM15.0721 119.78H16.9121C16.9121 118.02 16.5721 117.62 16.0121 117.62C15.5121 117.62 15.0721 118.06 15.0721 119.78ZM21.7891 130V115.3H25.0691V116.56C25.4691 115.88 26.1891 115.14 27.2891 115.14C28.9891 115.14 30.0691 116.72 30.0691 120.64C30.0691 124.56 28.9691 126.12 27.2691 126.12C26.2891 126.12 25.5491 125.62 25.0691 124.8V130H21.7891ZM25.9291 123.48C26.5291 123.48 26.7491 122.9 26.7491 120.66C26.7491 118.52 26.5691 117.98 25.9091 117.98C25.5291 117.98 25.2491 118.24 25.0691 118.4V123.1C25.3291 123.3 25.5491 123.48 25.9291 123.48ZM31.9688 126V111.2H35.2488V116.6C35.6888 115.96 36.7288 115.14 37.9088 115.14C39.1088 115.14 39.9688 115.62 39.9688 117.56V126H36.6888V118.74C36.6888 118.28 36.5488 118.04 36.2288 118.04C35.8688 118.04 35.4888 118.28 35.2488 118.46V126H31.9688ZM44.0475 126.1C42.8275 126.1 41.7475 125.36 41.7475 123.2C41.7475 120.84 43.9675 119.4 46.4475 118.9V118.62C46.4475 118.02 46.3475 117.82 45.7875 117.82C45.0475 117.82 44.0675 118.42 43.6075 118.8L42.0875 116.72C43.2475 115.68 44.8275 115.14 46.3875 115.14C48.7475 115.14 49.5875 116.24 49.5875 118.46V123.4C49.5875 124.68 49.6475 125.46 49.8075 126H46.6075C46.5075 125.66 46.4475 125.26 46.4475 124.58C45.9275 125.5 45.1875 126.1 44.0475 126.1ZM45.5075 123.48C45.9275 123.48 46.2675 123.24 46.4475 123.12V121.08C45.4875 121.4 44.8875 121.9 44.8875 122.66C44.8875 123.18 45.1275 123.48 45.5075 123.48ZM51.9203 126V111.2H55.2003V126H51.9203ZM61.386 126.14C59.026 126.14 57.186 124.48 57.186 120.62C57.186 116.7 59.006 115.14 61.386 115.14C63.726 115.14 65.586 116.7 65.586 120.62C65.586 124.48 63.726 126.14 61.386 126.14ZM61.386 123.74C62.066 123.74 62.306 123.12 62.306 120.62C62.306 118.3 62.106 117.64 61.386 117.64C60.706 117.64 60.446 118.14 60.446 120.62C60.446 122.92 60.666 123.74 61.386 123.74ZM67.4727 130V115.3H70.7527V116.56C71.1527 115.88 71.8727 115.14 72.9727 115.14C74.6727 115.14 75.7527 116.72 75.7527 120.64C75.7527 124.56 74.6527 126.12 72.9527 126.12C71.9727 126.12 71.2327 125.62 70.7527 124.8V130H67.4727ZM71.6127 123.48C72.2127 123.48 72.4327 122.9 72.4327 120.66C72.4327 118.52 72.2527 117.98 71.5927 117.98C71.2127 117.98 70.9327 118.24 70.7527 118.4V123.1C71.0127 123.3 71.2327 123.48 71.6127 123.48ZM81.4524 126.14C79.0924 126.14 77.2524 124.48 77.2524 120.62C77.2524 116.7 79.0724 115.14 81.4524 115.14C83.7924 115.14 85.6524 116.7 85.6524 120.62C85.6524 124.48 83.7924 126.14 81.4524 126.14ZM81.4524 123.74C82.1324 123.74 82.3724 123.12 82.3724 120.62C82.3724 118.3 82.1724 117.64 81.4524 117.64C80.7724 117.64 80.5124 118.14 80.5124 120.62C80.5124 122.92 80.7324 123.74 81.4524 123.74ZM89.9591 126.12C88.2391 126.12 87.1591 124.58 87.1591 120.66C87.1591 116.74 88.2591 115.14 89.9591 115.14C90.9791 115.14 91.7191 115.76 92.1591 116.4V111.2H95.4391V123.4C95.4391 124.68 95.4991 125.46 95.6791 126H92.3191C92.2391 125.68 92.1591 124.9 92.1591 124.84C91.7391 125.48 90.9991 126.12 89.9591 126.12ZM91.3191 123.44C91.6991 123.44 91.8991 123.26 92.1591 123.06V118.36C91.9791 118.2 91.6791 117.96 91.3191 117.96C90.6591 117.96 90.4791 118.48 90.4791 120.64C90.4791 122.86 90.6791 123.44 91.3191 123.44Z" fill="#3A2E27"/>
</svg>
