<svg width="99" height="113" viewBox="0 0 99 113" fill="none" xmlns="http://www.w3.org/2000/svg">
<path d="M30.7695 9.20799C29.4679 8.12993 28.1025 7.56639 26.6731 7.51738C25.8764 7.49288 25.0157 7.64908 24.0912 7.98598C22.7349 8.48213 21.5276 8.84353 20.4692 9.07017C18.2675 9.5357 16.3698 9.57245 14.7763 9.18042C13.1401 8.77615 11.6257 9.20493 10.2328 10.4668C9.35698 11.2508 8.54196 12.3626 7.78776 13.802C6.68688 15.8969 6.13948 18.0377 6.14556 20.2245C6.15164 24.1019 7.96415 27.4678 11.5831 30.3222C13.201 31.6269 14.9861 32.4385 16.9385 32.757C18.0394 32.9408 19.2984 32.9531 20.7156 32.7938C20.0587 33.5595 19.5022 34.7754 19.046 36.4415C18.5351 38.3281 18.3192 40.276 18.3982 42.2851C18.4956 44.674 19.0156 46.8608 19.9583 48.8454C20.8607 50.7424 22.1167 52.3778 23.7263 53.7518C24.8094 54.5229 25.7339 55.1814 26.4998 55.7272C30.475 58.2326 34.8968 59.96 39.7652 60.9093C44.3512 61.8098 49.5272 62.0425 55.2931 61.6076C50.549 61.8098 45.9174 61.3289 41.3983 60.1651C37.0434 59.0503 33.2298 57.4209 29.9575 55.277C26.6488 53.1086 24.2676 50.6554 22.814 47.9174C21.2812 45.0201 20.9467 42.0768 21.8104 39.0876C23.1424 34.4752 27.0016 30.4631 33.3879 27.0512C36.575 25.3423 39.6314 24.0957 42.5569 23.3117L43.2594 23.1831C41.9882 22.8645 40.0997 22.9626 37.5938 23.4771C35.4285 23.9242 33.7863 24.4296 32.6672 24.9931C33.3788 24.0314 33.8715 22.7972 34.1452 21.2903C34.4067 19.857 34.4432 18.3471 34.2547 16.7606C34.0722 15.168 33.689 13.7163 33.1051 12.4054C32.4786 11.015 31.7001 9.94917 30.7695 9.20799ZM18.9821 18.8555C19.2802 18.9045 19.4292 19.0944 19.4292 19.4251C19.4292 19.8662 19.5265 20.3501 19.7211 20.8769C19.9887 21.6119 20.3932 22.1999 20.9345 22.641L21.0258 23.7435L21.6735 23.5414C22.1784 23.3086 22.6011 22.9625 22.9417 22.5031C23.1546 22.8094 23.261 23.0697 23.261 23.2841L23.8723 23.1831C24.3649 23.0116 24.8302 22.6471 25.2681 22.0897C25.4202 22.2122 25.5601 22.35 25.6878 22.5031L26.1349 22.3286C26.4694 22.1754 26.7309 22.0039 26.9195 21.814C26.6701 22.1877 26.518 22.4021 26.4633 22.4572C26.293 22.6287 26.0041 22.7972 25.5966 22.9625L25.3138 22.595C25.186 22.7482 24.9975 22.9135 24.7481 23.0912C24.2554 23.4403 23.7141 23.6731 23.1241 23.7895C23.0268 23.6731 22.9447 23.5383 22.8778 23.3852L22.8048 23.1922C22.6832 23.3331 22.5068 23.4801 22.2757 23.6333C21.8134 23.9396 21.3056 24.1294 20.7521 24.2029L20.4875 23.2382C20.0313 23.8079 19.7303 24.2183 19.5843 24.4694C19.2862 24.9839 19.1129 25.5383 19.0642 26.1324C18.9913 25.4219 18.6202 24.6195 17.9512 23.7252L17.3673 23.0544L17.3308 24.2489C16.7226 24.1754 16.1843 23.9855 15.716 23.6792L15.1868 23.2382C15.126 23.422 15.0348 23.6057 14.9131 23.7895C14.2076 23.6731 13.6176 23.4311 13.1432 23.0636L12.6323 22.5491L12.3586 22.8707C11.9936 22.7298 11.7382 22.5797 11.5922 22.4205C11.5496 22.3776 11.4097 22.1601 11.1725 21.7681C11.4219 22.0744 11.6774 22.2888 11.9389 22.4113C12.0727 22.4725 12.1822 22.5031 12.2673 22.5031C12.389 22.3194 12.5106 22.1203 12.6323 21.9059C13.1432 22.5981 13.6632 23.0207 14.1924 23.1739C14.4539 23.2474 14.6637 23.2535 14.8219 23.1922L14.9587 22.4113C15.3176 22.8523 15.7677 23.2076 16.309 23.4771C16.5827 23.6118 16.8169 23.7007 17.0115 23.7435L16.9659 22.595C17.2031 22.4174 17.4433 22.154 17.6866 21.8049C18.1732 21.1004 18.4347 20.3133 18.4712 19.4435C18.5138 19.0025 18.6841 18.8065 18.9821 18.8555ZM40.2487 70.4282C37.2867 67.9351 33.8471 67.1848 29.9302 68.1771C29.3463 69.1817 28.7563 69.9963 28.1602 70.6211C27.7284 71.0744 27.1628 71.5461 26.4633 72.0361C25.7334 72.5445 25.2316 72.9182 24.9579 73.157C24.5261 73.5368 24.2068 73.9319 24 74.3423L23.8449 75.0774C23.7597 75.6654 23.7628 76.2105 23.854 76.7128C24.1399 78.3054 25.2529 79.1385 27.1932 79.212C27.1932 79.6408 27.1628 80.0695 27.1019 80.4983L29.8389 79.7633L30.0214 80.774L31.9373 80.1308L32.4026 82.5748L33.6708 81.9684L33.9901 82.6851C34.2759 83.2241 34.6044 83.6406 34.9754 83.9347C36.1614 84.8718 37.5512 84.4002 39.1448 82.5197C39.5705 82.7647 40.0936 83.0342 40.714 83.3282L40.2396 81.1415L41.4256 81.8765L41.973 80.3972L42.9766 81.8765L44.4363 80.9577L45.376 81.555C46.0755 81.8673 46.6138 81.7908 46.9909 81.3252C47.4531 80.7617 47.5687 80.14 47.3376 79.4601C47.0943 78.7618 46.5225 78.0941 45.6224 77.4571C44.4302 76.6118 43.7277 75.6164 43.5149 74.4709C42.8215 73.0253 41.7328 71.6778 40.2487 70.4282ZM24.7755 67.635C23.1333 68.8785 21.5367 69.5186 19.9857 69.5553C19.0916 69.8493 18.5047 70.2352 18.2249 70.713C17.9877 71.1357 18.0029 71.5859 18.2705 72.0637C18.5138 72.4986 18.9183 72.8722 19.4839 73.1846C20.0557 73.5031 20.6487 73.6746 21.263 73.6991C21.3238 74.3117 21.3238 74.8323 21.263 75.2611L22.8504 74.7282C23.112 74.1095 23.5529 73.5521 24.1733 73.056C24.5018 72.7926 25.2043 72.3301 26.2808 71.6686C26.9681 71.2459 27.7984 70.2781 28.7715 68.7651L30.0214 66.6151L27.5581 64.5754C26.8708 65.7392 25.9433 66.7591 24.7755 67.635ZM91.4308 62.3335C91.7045 62.1865 91.9174 62.0211 92.0694 61.8373L89.2321 58.5572L81.0302 57.9783C77.5694 60.0855 72.3599 61.9996 65.4018 63.7209C63.2305 64.2599 61.0135 64.7469 58.7509 65.1818L56.0048 65.6688C56.1793 66.9901 56.2705 68.1937 56.2785 69.2797C57.3246 70.4619 59.204 71.4664 61.9167 72.2934C63.0358 72.6364 64.006 72.8385 64.8271 72.8998C65.6907 72.9733 66.1925 72.8691 66.3324 72.5874C66.5575 72.128 66.7004 71.7574 66.7612 71.4756C66.9072 70.8141 66.9802 70.4802 66.9802 70.4741C70.3376 73.4572 74.805 75.4571 80.3824 76.4739C82.3956 76.8415 84.348 77.0405 86.2396 77.0712C87.8332 77.0957 88.9553 77.013 89.6061 76.8231C89.5331 76.2902 89.1773 75.5337 88.5387 74.5536L87.599 73.2397L90.4637 74.0942C92.5438 74.6149 94.0218 74.7588 94.8977 74.5261C95.0741 73.9013 95.0224 73.0407 94.7426 71.9442C94.4689 70.8906 94.0948 70.0055 93.6204 69.2889C94.1921 69.442 94.5601 69.3042 94.7243 68.8754L94.8064 68.1863C92.6168 65.6075 90.9138 63.7056 89.6974 62.4805C90.3056 62.6704 90.8834 62.6214 91.4308 62.3335Z" fill="#E7E9EB"/>
<path d="M12.6323 21.9059C12.5106 22.1203 12.389 22.3194 12.2674 22.5031C12.1822 22.5031 12.0727 22.4725 11.9389 22.4112C11.6774 22.2887 11.4219 22.0743 11.1725 21.7681C11.4098 22.1601 11.5496 22.3775 11.5922 22.4204C11.7382 22.5797 11.9936 22.7298 12.3586 22.8706L12.6323 22.5491L13.1432 23.0636C13.6176 23.4311 14.2076 23.6731 14.9131 23.7894C15.0348 23.6057 15.126 23.4219 15.1868 23.2382L15.716 23.6792C16.1843 23.9855 16.7226 24.1753 17.3308 24.2488L17.3673 23.0544C17.3562 23.0415 17.3441 23.0292 17.3308 23.0176C17.2104 22.8762 17.0888 22.7354 16.9659 22.595L17.0115 23.7435C16.8169 23.7006 16.5827 23.6118 16.309 23.4771C15.7677 23.2075 15.3176 22.8523 14.9587 22.4112L14.8219 23.1922C14.6638 23.2535 14.4539 23.2474 14.1924 23.1738C13.6632 23.0207 13.1432 22.5981 12.6323 21.9059ZM28.3883 62.848C28.3765 62.8423 28.3643 62.8361 28.3519 62.8296C28.1511 63.436 27.8866 64.0179 27.5581 64.5753L30.0214 66.6151L28.7715 68.7651C27.7984 70.2781 26.9681 71.2459 26.2808 71.6685C25.2043 72.3301 24.5018 72.7926 24.1733 73.0559C23.553 73.5521 23.112 74.1095 22.8505 74.7282L24 74.3423C24.2068 73.9319 24.5261 73.5368 24.958 73.157C25.2317 72.9181 25.7334 72.5445 26.4633 72.0361C27.1628 71.546 27.7284 71.0744 28.1603 70.6211C28.7563 69.9963 29.3463 69.1816 29.9302 68.1771C33.8472 67.1848 37.2867 67.9351 40.2487 70.4281C41.7328 71.6777 42.8215 73.0253 43.5149 74.4709C43.4176 73.938 43.4145 73.3561 43.5058 72.7252C43.5065 72.7289 43.5065 72.7289 43.5058 72.7252C41.4139 70.9478 39.352 68.6661 37.3201 65.88C34.1391 65.2001 31.1618 64.1894 28.3883 62.848ZM89.2321 58.5571L86.3217 55.2127L75.2825 54.4409C73.8349 55.5557 71.919 56.692 69.5347 57.8497C64.7541 60.1589 60.0069 61.4116 55.2931 61.6076C55.3357 61.8097 55.4391 62.3273 55.6033 63.1604C55.7632 64.0129 55.8939 64.8275 55.9957 65.6044C55.999 65.626 56.002 65.6474 56.0048 65.6687L58.7509 65.1818C61.0135 64.7469 63.2305 64.2599 65.4018 63.7208C72.3599 61.9996 77.5694 60.0854 81.0302 57.9783L89.2321 58.5571Z" fill="#B4B1AF"/>
<path d="M19.4292 19.4252C19.4292 19.0944 19.2802 18.9045 18.9821 18.8555C18.6841 18.8065 18.5138 19.0025 18.4712 19.4435C18.4347 20.3133 18.1732 21.1004 17.6866 21.8049C17.4433 22.154 17.2031 22.4174 16.9659 22.595C17.0888 22.7354 17.2104 22.8763 17.3308 23.0177C17.344 23.0293 17.3562 23.0415 17.3673 23.0544L17.9512 23.7252C18.6203 24.6195 18.9913 25.4219 19.0643 26.1325C19.1129 25.5383 19.2863 24.9839 19.5843 24.4694C19.7303 24.2183 20.0313 23.8079 20.4875 23.2382C20.7308 22.9258 20.8798 22.7267 20.9345 22.641C20.3932 22.2 19.9888 21.6119 19.7211 20.8769C19.5265 20.3501 19.4292 19.8662 19.4292 19.4252Z" fill="#464543"/>
<path d="M86.3217 55.2127L89.6974 55.4516L85.0262 49.2864C80.4268 43.5353 75.7952 38.684 71.1313 34.7325C69.6412 33.4645 68.1358 32.2854 66.6153 31.1951C63.1605 28.7082 59.7393 26.7695 56.3515 25.379C52.8907 23.9579 49.6367 23.1678 46.5895 23.0085C46.2932 22.9913 46.0042 22.979 45.7228 22.9718C42.6451 22.1693 40.565 21.4067 39.4824 20.6839C39.1418 20.4573 38.9228 20.249 38.8255 20.0591L38.7799 19.8386C38.6339 19.2383 38.3724 18.488 37.9953 17.5875C37.235 15.7805 36.2709 14.1267 35.1031 12.626C31.3443 7.81754 26.2139 5.41333 19.712 5.41333C13.2101 5.41333 8.8096 8.66285 6.51051 15.1619C5.79281 17.1894 5.32752 19.4221 5.11464 21.86C5.01124 23.0728 4.97779 24.0866 5.01428 24.9013L5.11464 26.0957C5.2302 27.1248 5.3853 28.209 5.57993 29.3483C6.01785 31.8413 6.61087 34.2884 7.35899 36.6896L7.7148 37.6084C8.04324 38.3924 8.42338 39.2193 8.85522 40.0891C10.2359 42.8578 11.8933 45.5193 13.8275 48.0736C20.0131 56.2326 27.7832 61.7393 37.1377 64.5938C37.235 64.753 37.2775 64.9215 37.2654 65.0991C37.2471 65.3625 37.2654 65.6228 37.3201 65.8801C39.352 68.6661 41.4139 70.9478 43.5058 72.7252C43.5065 72.7289 43.5065 72.7289 43.5058 72.7252C43.7895 72.9699 44.0724 73.2026 44.3542 73.4235C47.5048 75.8921 50.33 76.8568 52.8298 76.3178C54.5329 75.9502 55.6064 74.5904 56.0504 72.2383C56.2133 71.3748 56.2893 70.3886 56.2785 69.2797C56.2705 68.1938 56.1793 66.9901 56.0048 65.6688C56.002 65.6475 55.999 65.626 55.9957 65.6045C50.276 65.757 45.0514 65.2302 40.3217 64.0241C32.9135 62.1314 27.3817 58.7073 23.7263 53.7518C22.1167 52.3778 20.8607 50.7424 19.9584 48.8454C19.0156 46.8608 18.4956 44.674 18.3983 42.2851C18.3192 40.276 18.5351 38.3281 19.046 36.4415C19.5022 34.7754 20.0587 33.5595 20.7156 32.7938C19.2984 32.9531 18.0394 32.9408 16.9385 32.7571C14.9861 32.4385 13.201 31.6269 11.5831 30.3222C7.96417 27.4678 6.15166 24.1019 6.14558 20.2245C6.1395 18.0378 6.6869 15.8969 7.78779 13.8021C8.54198 12.3626 9.357 11.2508 10.2328 10.4668C11.6257 9.20494 13.1402 8.77617 14.7763 9.18044C16.3698 9.57247 18.2675 9.53572 20.4693 9.07019C21.5276 8.84355 22.7349 8.48215 24.0912 7.98599C25.0157 7.6491 25.8764 7.4929 26.6732 7.5174C28.1025 7.5664 29.4679 8.12994 30.7696 9.20801C31.7001 9.94918 32.4787 11.015 33.1051 12.4055C33.689 13.7163 34.0722 15.168 34.2547 16.7606C34.4432 18.3471 34.4067 19.857 34.1452 21.2903C33.8715 22.7972 33.3788 24.0314 32.6672 24.9931C33.7863 24.4296 35.4285 23.9243 37.5938 23.4771C40.0997 22.9626 41.9882 22.8646 43.2594 23.1831L42.5569 23.3117C39.6314 24.0958 36.575 25.3423 33.388 27.0513C27.0016 30.4631 23.1424 34.4752 21.8104 39.0876C20.9467 42.0768 21.2812 45.0201 22.814 47.9174C24.2676 50.6554 26.6488 53.1087 29.9576 55.277C33.2298 57.4209 37.0434 59.0503 41.3983 60.1651C45.9174 61.3289 50.549 61.8098 55.2932 61.6076C60.0069 61.4116 64.7541 60.159 69.5347 57.8497C71.919 56.692 73.8349 55.5558 75.2825 54.4409L86.3217 55.2127Z" fill="#DDDDDD"/>
<path d="M85.0262 49.2864L88.7851 49.3323C84.6005 43.1273 79.6495 38.2423 73.9322 34.6773C72.144 33.5625 70.3893 32.6468 68.668 31.9301L66.6153 31.1951C68.1358 32.2854 69.6412 33.4645 71.1314 34.7325C75.7952 38.684 80.4268 43.5353 85.0262 49.2864ZM55.9957 65.6044C55.894 64.8276 55.7632 64.0129 55.6034 63.1604C55.4392 62.3274 55.3358 61.8098 55.2932 61.6076C49.5272 62.0425 44.3512 61.8098 39.7652 60.9093C34.8968 59.96 30.475 58.2326 26.4998 55.7272C28.3556 57.0738 27.8356 56.7277 24.9397 54.689C24.9302 54.6829 24.9211 54.6768 24.9124 54.6706C24.4979 54.3784 24.1026 54.0722 23.7263 53.7518C27.3818 58.7072 32.9136 62.1313 40.3217 64.0241C45.0514 65.2302 50.2761 65.757 55.9957 65.6044ZM8.85524 40.0891C8.4234 39.2193 8.04326 38.3924 7.71482 37.6083L7.35901 36.6895C7.7057 37.7737 8.07975 38.8487 8.48118 39.9146C12.6112 50.7899 19.2317 58.4282 28.3428 62.8296H28.3519C28.3643 62.8362 28.3765 62.8423 28.3884 62.848C31.1619 64.1895 34.1391 65.2002 37.3201 65.8801C37.2654 65.6228 37.2472 65.3625 37.2654 65.0991C37.2776 64.9214 37.235 64.753 37.1377 64.5937C27.7832 61.7393 20.0131 56.2326 13.8275 48.0736C11.8933 45.5193 10.2359 42.8578 8.85524 40.0891Z" fill="#ACA8A5"/>
<path d="M11.6832 13.8021L11.4551 13.701C11.2544 13.6336 11.0416 13.6061 10.8165 13.6183C10.0988 13.6673 9.39935 14.1114 8.71814 14.9506L8.90061 15.0884L8.85499 15.511C8.83674 15.8663 8.85803 16.2093 8.91885 16.5401C9.13173 17.6059 9.73387 18.3777 10.7253 18.8555C11.7106 19.3333 12.7142 19.3088 13.736 18.782C14.0523 18.6166 14.3533 18.4114 14.6392 18.1664L14.9676 17.8448H15.7431C15.8161 17.5386 15.8374 17.2047 15.807 16.8433C15.7401 16.1144 15.4299 15.606 14.8764 15.3181C13.9945 14.8587 12.9301 14.3534 11.6832 13.8021ZM12.4314 14.7301L13.7816 15.3824L13.8911 15.4375L14.1374 15.5478L14.922 15.9153L15.1136 16.2093C15.2231 16.4482 15.2201 16.6718 15.1045 16.8801C14.624 17.8234 13.9124 18.4084 12.9696 18.635C12.258 18.8065 11.6619 18.7728 11.1814 18.5339C10.7435 18.3134 10.3573 17.9643 10.0228 17.4865C9.57878 16.8556 9.38719 16.1634 9.44801 15.41C9.88593 14.7974 10.3664 14.4299 10.8895 14.3074H11.5464L12.3949 14.7209L12.4314 14.7301ZM26.8007 13.701L26.5726 13.8021C25.3257 14.3534 24.2613 14.8587 23.3794 15.3181C22.8259 15.606 22.5157 16.1144 22.4488 16.8433C22.4184 17.2047 22.4397 17.5386 22.5127 17.8448H23.2882L23.6166 18.1664C23.9025 18.4114 24.2035 18.6166 24.5198 18.782C25.5416 19.3088 26.5452 19.3333 27.5305 18.8555C28.5219 18.3777 29.1241 17.6059 29.3369 16.5401C29.3978 16.2093 29.4191 15.8663 29.4008 15.511L29.3552 15.0884L29.5377 14.9506C28.8565 14.1114 28.157 13.6673 27.4393 13.6183C27.2142 13.6061 27.0014 13.6336 26.8007 13.701ZM25.8245 14.7301L25.8518 14.7117L26.7094 14.3074H27.3663C27.8894 14.4299 28.3699 14.7974 28.8078 15.41C28.8686 16.1634 28.677 16.8556 28.233 17.4865C27.8985 17.9643 27.5123 18.3134 27.0744 18.5339C26.5939 18.7728 25.9978 18.8065 25.2862 18.635C24.3434 18.4084 23.6318 17.8234 23.1513 16.8801C23.0357 16.6718 23.0327 16.4482 23.1422 16.2093L23.3338 15.9153L24.1184 15.5478L24.3556 15.4284L24.4742 15.3732L25.8245 14.7301Z" fill="#464543"/>
<path d="M14.1374 15.5478L13.8911 15.4375C13.9702 15.5968 14.0097 15.7744 14.0097 15.9704C14.0097 16.3257 13.888 16.6258 13.6448 16.8708C13.3954 17.122 13.0943 17.2476 12.7415 17.2476C12.3888 17.2476 12.0907 17.122 11.8474 16.8708C11.5981 16.6258 11.4734 16.3257 11.4734 15.9704C11.4734 15.6151 11.5981 15.3119 11.8474 15.0608C12.0178 14.8893 12.2124 14.779 12.4313 14.73L12.3949 14.7208L11.5464 14.3074H10.8895C10.3664 14.4299 9.88593 14.7974 9.448 15.4099C9.38718 16.1634 9.57877 16.8555 10.0228 17.4864C10.3573 17.9642 10.7435 18.3134 11.1814 18.5339C11.6619 18.7728 12.258 18.8065 12.9696 18.635C13.9124 18.4083 14.624 17.8233 15.1045 16.88C15.2201 16.6718 15.2231 16.4482 15.1136 16.2093L14.922 15.9153L14.1374 15.5478ZM25.8518 14.7116L25.8244 14.73C26.045 14.7806 26.2396 14.8908 26.4083 15.0608C26.6577 15.3119 26.7824 15.6151 26.7824 15.9704C26.7824 16.3257 26.6577 16.6258 26.4083 16.8708C26.1651 17.122 25.867 17.2476 25.5143 17.2476C25.1615 17.2476 24.8604 17.122 24.611 16.8708C24.3678 16.6258 24.2461 16.3257 24.2461 15.9704C24.2461 15.7762 24.2826 15.5955 24.3556 15.4283L24.1184 15.5478L23.3338 15.9153L23.1422 16.2093C23.0327 16.4482 23.0357 16.6718 23.1513 16.88C23.6318 17.8233 24.3434 18.4083 25.2862 18.635C25.9978 18.8065 26.5939 18.7728 27.0744 18.5339C27.5123 18.3134 27.8985 17.9642 28.233 17.4864C28.677 16.8555 28.8686 16.1634 28.8078 15.4099C28.3699 14.7974 27.8894 14.4299 27.3663 14.3074H26.7094L25.8518 14.7116Z" fill="#FEC000"/>
<path d="M13.7816 15.3823L12.4313 14.73C12.2124 14.779 12.0177 14.8892 11.8474 15.0607C11.5981 15.3119 11.4734 15.6151 11.4734 15.9704C11.4734 16.3256 11.5981 16.6258 11.8474 16.8708C12.0907 17.1219 12.3888 17.2475 12.7415 17.2475C13.0943 17.2475 13.3954 17.1219 13.6447 16.8708C13.888 16.6258 14.0097 16.3256 14.0097 15.9704C14.0097 15.7744 13.9702 15.5967 13.8911 15.4375L13.7816 15.3823ZM26.4083 15.0607C26.2396 14.8908 26.0449 14.7805 25.8244 14.73L24.4742 15.3731L24.3556 15.4283C24.2826 15.5955 24.2461 15.7762 24.2461 15.9704C24.2461 16.3256 24.3677 16.6258 24.611 16.8708C24.8604 17.1219 25.1615 17.2475 25.5142 17.2475C25.867 17.2475 26.165 17.1219 26.4083 16.8708C26.6577 16.6258 26.7824 16.3256 26.7824 15.9704C26.7824 15.6151 26.6577 15.3119 26.4083 15.0607Z" fill="#0A0800"/>
<path d="M75.547 49.0473C75.7964 49.1698 76.0701 49.2311 76.3681 49.2311C76.9034 49.2311 77.3596 49.0381 77.7366 48.6522C78.1198 48.2725 78.3114 47.8131 78.3114 47.274C78.3114 46.735 78.1198 46.2756 77.7366 45.8958C77.6758 45.8346 77.615 45.7794 77.5542 45.7304L75.547 49.0473ZM69.2702 37.9022C69.2702 37.3631 69.0786 36.9037 68.6954 36.524C68.6346 36.4627 68.5737 36.4076 68.5129 36.3586L66.5058 39.6755C66.7552 39.798 67.0289 39.8592 67.3269 39.8592C67.8621 39.8592 68.3183 39.6663 68.6954 39.2804C69.0786 38.9006 69.2702 38.4412 69.2702 37.9022ZM62.2178 36.1564C62.157 36.0952 62.0962 36.0401 62.0353 35.9911L60.0282 39.308C60.2776 39.4305 60.5513 39.4917 60.8493 39.4917C61.3845 39.4917 61.8407 39.2988 62.2178 38.9129C62.601 38.5331 62.7926 38.0737 62.7926 37.5347C62.7926 36.9956 62.601 36.5362 62.2178 36.1564ZM56.1964 38.9129C56.5796 38.5331 56.7712 38.0737 56.7712 37.5347C56.7712 36.9956 56.5796 36.5362 56.1964 36.1564C56.1356 36.0952 56.0747 36.0401 56.0139 35.9911L54.0068 39.308C54.2561 39.4305 54.5298 39.4917 54.8279 39.4917C55.3631 39.4917 55.8193 39.2988 56.1964 38.9129ZM70.5201 42.9556C70.4592 42.8944 70.3984 42.8392 70.3376 42.7902L68.3305 46.1071C68.5798 46.2296 68.8535 46.2909 69.1516 46.2909C69.6868 46.2909 70.143 46.0979 70.5201 45.7121C70.9032 45.3323 71.0948 44.8729 71.0948 44.3338C71.0948 43.7948 70.9032 43.3354 70.5201 42.9556ZM61.8529 42.9556C61.792 42.8944 61.7312 42.8392 61.6704 42.7902L59.6633 46.1071C59.9126 46.2296 60.1863 46.2909 60.4844 46.2909C61.0196 46.2909 61.4758 46.0979 61.8529 45.7121C62.236 45.3323 62.4276 44.8729 62.4276 44.3338C62.4276 43.7948 62.236 43.3354 61.8529 42.9556ZM70.2464 54.1743C70.6295 53.7945 70.8211 53.3351 70.8211 52.7961C70.8211 52.257 70.6295 51.7976 70.2464 51.4178C70.1855 51.3566 70.1247 51.3015 70.0639 51.2525L68.0568 54.5694C68.3061 54.6919 68.5798 54.7531 68.8779 54.7531C69.4131 54.7531 69.8693 54.5602 70.2464 54.1743ZM61.8529 50.4899C61.792 50.4286 61.7312 50.3735 61.6704 50.3245L59.6633 53.6414C59.9126 53.7639 60.1863 53.8251 60.4844 53.8251C61.0196 53.8251 61.4758 53.6322 61.8529 53.2463C62.236 52.8665 62.4276 52.4071 62.4276 51.8681C62.4276 51.329 62.236 50.8696 61.8529 50.4899ZM53.8243 55.9476C54.0737 56.0701 54.3474 56.1313 54.6454 56.1313C55.1806 56.1313 55.6368 55.9384 56.0139 55.5525C56.3971 55.1727 56.5887 54.7133 56.5887 54.1743C56.5887 53.6352 56.3971 53.1758 56.0139 52.7961C55.9531 52.7348 55.8923 52.6797 55.8314 52.6307L53.8243 55.9476ZM50.6311 56.7469C51.0143 56.3672 51.2059 55.9078 51.2059 55.3687C51.2059 54.8297 51.0143 54.3703 50.6311 53.9905C50.5703 53.9293 50.5095 53.8741 50.4487 53.8251L48.4415 57.142C48.6909 57.2645 48.9646 57.3258 49.2626 57.3258C49.7979 57.3258 50.254 57.1328 50.6311 56.7469ZM51.5435 47.8253C51.9266 47.4455 52.1182 46.9861 52.1182 46.4471C52.1182 45.9081 51.9266 45.4487 51.5435 45.0689C51.4826 45.0076 51.4218 44.9525 51.361 44.9035L49.3539 48.2204C49.6032 48.3429 49.8769 48.4042 50.175 48.4042C50.7102 48.4042 51.1664 48.2112 51.5435 47.8253ZM46.5986 49.5802C46.5986 49.0412 46.407 48.5818 46.0238 48.202C45.963 48.1408 45.9022 48.0856 45.8414 48.0366L43.8342 51.3535C44.0836 51.476 44.3573 51.5373 44.6553 51.5373C45.1906 51.5373 45.6467 51.3443 46.0238 50.9584C46.407 50.5787 46.5986 50.1193 46.5986 49.5802ZM44.1535 42.1379C44.0927 42.0766 44.0319 42.0215 43.9711 41.9725L41.9639 45.2894C42.2133 45.4119 42.487 45.4732 42.785 45.4732C43.3203 45.4732 43.7764 45.2802 44.1535 44.8943C44.5367 44.5145 44.7283 44.0551 44.7283 43.5161C44.7283 42.9771 44.5367 42.5177 44.1535 42.1379ZM38.342 51.9691C38.2811 51.9079 38.2203 51.8528 38.1595 51.8037L36.1523 55.1206C36.4017 55.2432 36.6754 55.3044 36.9734 55.3044C37.5087 55.3044 37.9649 55.1115 38.342 54.7256C38.7251 54.3458 38.9167 53.8864 38.9167 53.3473C38.9167 52.8083 38.7251 52.3489 38.342 51.9691ZM55.8314 31.9575C56.3667 31.9575 56.8229 31.7645 57.2 31.3786C57.5831 30.9989 57.7747 30.5395 57.7747 30.0004C57.7747 29.4614 57.5831 29.002 57.2 28.6222C57.1391 28.561 57.0783 28.5058 57.0175 28.4568L55.0103 31.7737C55.2597 31.8962 55.5334 31.9575 55.8314 31.9575ZM50.4487 33.7584C50.3878 33.6971 50.327 33.642 50.2662 33.593L48.2591 36.9099C48.5084 37.0324 48.7821 37.0936 49.0802 37.0936C49.6154 37.0936 50.0716 36.9007 50.4487 36.5148C50.8318 36.135 51.0234 35.6756 51.0234 35.1366C51.0234 34.5975 50.8318 34.1381 50.4487 33.7584ZM36.1523 49.5802C36.1523 49.0412 35.9608 48.5818 35.5776 48.202C35.5167 48.1408 35.4559 48.0856 35.3951 48.0366L33.388 51.3535C33.6373 51.476 33.911 51.5373 34.2091 51.5373C34.7443 51.5373 35.2005 51.3443 35.5776 50.9584C35.9608 50.5787 36.1523 50.1193 36.1523 49.5802ZM49.0802 31.3143C49.6154 31.3143 50.0716 31.1214 50.4487 30.7355C50.8318 30.3557 51.0234 29.8963 51.0234 29.3573C51.0234 28.8182 50.8318 28.3588 50.4487 27.9791C50.3878 27.9178 50.327 27.8627 50.2662 27.8137L48.2591 31.1306C48.5084 31.2531 48.7821 31.3143 49.0802 31.3143ZM41.8909 38.481C42.4262 38.481 42.8823 38.2881 43.2594 37.9022C43.6426 37.5224 43.8342 37.063 43.8342 36.524C43.8342 35.9849 43.6426 35.5255 43.2594 35.1458C43.1986 35.0845 43.1378 35.0294 43.077 34.9804L41.0698 38.2973C41.3192 38.4198 41.5929 38.481 41.8909 38.481ZM37.7672 42.1379C37.7064 42.0766 37.6455 42.0215 37.5847 41.9725L35.5776 45.2894C35.8269 45.4119 36.1006 45.4732 36.3987 45.4732C36.9339 45.4732 37.3901 45.2802 37.7672 44.8943C38.1504 44.5145 38.342 44.0551 38.342 43.5161C38.342 42.9771 38.1504 42.5177 37.7672 42.1379ZM38.7707 33.4092C38.7099 33.348 38.6491 33.2928 38.5883 33.2438L36.5811 36.5607C36.8305 36.6832 37.1042 36.7445 37.4022 36.7445C37.9375 36.7445 38.3936 36.5515 38.7707 36.1656C39.1539 35.7859 39.3455 35.3265 39.3455 34.7874C39.3455 34.2484 39.1539 33.789 38.7707 33.4092ZM44.8834 29.541C44.8226 29.4798 44.7618 29.4246 44.7009 29.3756L42.6938 32.6925C42.9432 32.815 43.2169 32.8763 43.5149 32.8763C44.0501 32.8763 44.5063 32.6834 44.8834 32.2975C45.2666 31.9177 45.4582 31.4583 45.4582 30.9192C45.4582 30.3802 45.2666 29.9208 44.8834 29.541ZM45.7957 24.0282C45.7349 23.9669 45.6741 23.9118 45.6133 23.8628L43.6061 27.1797C43.8555 27.3022 44.1292 27.3635 44.4272 27.3635C44.9625 27.3635 45.4186 27.1705 45.7957 26.7846C46.1789 26.4048 46.3705 25.9454 46.3705 25.4064C46.3705 24.8674 46.1789 24.408 45.7957 24.0282ZM39.9842 28.0709C39.9842 27.5319 39.7926 27.0725 39.4094 26.6927C39.3486 26.6315 39.2877 26.5763 39.2269 26.5273L37.2198 29.8442C37.4691 29.9667 37.7428 30.028 38.0409 30.028C38.5761 30.028 39.0323 29.835 39.4094 29.4491C39.7926 29.0694 39.9842 28.61 39.9842 28.0709ZM33.388 33.2438C33.9232 33.2438 34.3794 33.0509 34.7565 32.665C35.1396 32.2852 35.3312 31.8258 35.3312 31.2868C35.3312 30.7477 35.1396 30.2883 34.7565 29.9085C34.6956 29.8473 34.6348 29.7922 34.574 29.7432L32.5669 33.0601C32.8162 33.1826 33.0899 33.2438 33.388 33.2438ZM30.952 38.3708C30.8912 38.3095 30.8304 38.2544 30.7696 38.2054L28.7624 41.5223C29.0118 41.6448 29.2855 41.706 29.5835 41.706C30.1188 41.706 30.5749 41.5131 30.952 41.1272C31.3352 40.7474 31.5268 40.288 31.5268 39.749C31.5268 39.2099 31.3352 38.7505 30.952 38.3708ZM26.8191 46.6676C27.3544 46.6676 27.8105 46.4747 28.1876 46.0888C28.5708 45.709 28.7624 45.2496 28.7624 44.7105C28.7624 44.1715 28.5708 43.7121 28.1876 43.3323C28.1268 43.2711 28.066 43.216 28.0052 43.167L25.998 46.4838C26.2474 46.6064 26.5211 46.6676 26.8191 46.6676ZM26.0893 40.0154C26.4724 39.6357 26.664 39.1763 26.664 38.6372C26.664 38.0982 26.4724 37.6388 26.0893 37.259C26.0284 37.1978 25.9676 37.1426 25.9068 37.0936L23.8997 40.4105C24.149 40.533 24.4227 40.5943 24.7208 40.5943C25.256 40.5943 25.7122 40.4013 26.0893 40.0154ZM30.3408 33.74C30.7239 33.3602 30.9155 32.9008 30.9155 32.3618C30.9155 31.8227 30.7239 31.3633 30.3408 30.9836C30.2817 30.924 30.2208 30.8689 30.1583 30.8182L28.1512 34.1351C28.4016 34.2576 28.6753 34.3188 28.9723 34.3188C29.5075 34.3188 29.9637 34.1259 30.3408 33.74Z" fill="#656261"/>
<path d="M46.2337 78.0168C45.9722 78.1516 45.7532 78.2863 45.5768 78.4211C45.4369 78.5129 45.3488 78.6661 45.3123 78.8805C45.2819 79.0887 45.3123 79.2786 45.4035 79.4501C45.6529 79.8973 46.106 79.8942 46.7629 79.441C47.4563 78.9632 48.0189 78.8897 48.4507 79.2204C48.8156 79.5022 49.1958 80.1883 49.5911 81.2786C49.6702 78.7549 49.0255 77.5206 47.657 77.5758C47.2251 77.5941 46.7507 77.7412 46.2337 78.0168ZM37.4844 83.6767C37.971 82.3781 38.1748 81.3643 38.0957 80.6354C38.0105 79.8085 37.7003 79.3797 37.1651 79.3491C36.642 79.3184 36.2832 79.6247 36.0885 80.2679C35.9365 80.9233 35.9973 81.9769 36.271 83.4286C36.4109 84.1575 36.563 84.819 36.7272 85.4132C36.9887 84.9109 37.2411 84.3321 37.4844 83.6767ZM26.2809 77.0521C26.506 76.8744 26.5759 76.5804 26.4908 76.17C26.3995 75.7412 26.1593 75.4043 25.77 75.1593C25.3138 74.8592 24.7391 74.7826 24.0457 74.9296C23.0665 75.1991 22.3487 75.9097 21.8926 77.0612C21.4486 78.1761 21.4364 79.1837 21.8561 80.0841C22.2271 78.7182 22.6194 77.7534 23.033 77.1899C23.6473 76.3568 24.3802 76.2466 25.2317 76.8591C25.6818 77.1837 26.0316 77.2481 26.2809 77.0521ZM20.0953 69.9772C19.7303 69.6893 19.189 69.5025 18.4713 69.4167C17.2427 69.5454 16.3638 70.2804 15.8347 71.6219C15.3542 72.8347 15.3207 73.9373 15.7343 74.9296C16.0627 73.7106 16.4976 72.7428 17.039 72.0262C17.7141 71.138 18.4044 70.8807 19.11 71.2544C19.481 71.4504 19.8125 71.4871 20.1044 71.3646C20.3781 71.2544 20.5241 71.0614 20.5423 70.7858C20.5606 70.4856 20.4116 70.2161 20.0953 69.9772Z" fill="#464543"/>
<path d="M11.0637 108.2C7.8637 108.2 6.9037 106.04 6.5037 103.38L9.4437 102.88C9.7037 104.44 10.0837 105.36 11.0837 105.36C11.8237 105.36 12.0637 104.82 12.0637 104.34C12.0637 102.06 6.7637 101.12 6.7637 97C6.7637 94.52 8.4237 92.98 11.0637 92.98C13.7437 92.98 14.7837 94.74 15.3637 97.42L12.3637 98.14C12.0637 96.66 11.7037 95.92 10.9237 95.92C10.4037 95.92 10.1037 96.26 10.1037 96.8C10.1037 98.94 15.4037 99.98 15.4037 104.16C15.4037 106.54 13.6837 108.2 11.0637 108.2ZM17.5098 108V97.3H20.7898V98.6C21.2298 97.96 22.2698 97.14 23.4498 97.14C24.6498 97.14 25.5098 97.62 25.5098 99.56V108H22.2298V100.74C22.2298 100.28 22.0898 100.04 21.7698 100.04C21.4098 100.04 21.0298 100.28 20.7898 100.46V108H17.5098ZM31.5285 108.14C29.1685 108.14 27.3285 106.48 27.3285 102.62C27.3285 98.7 29.1485 97.14 31.5285 97.14C33.8685 97.14 35.7285 98.7 35.7285 102.62C35.7285 106.48 33.8685 108.14 31.5285 108.14ZM31.5285 105.74C32.2085 105.74 32.4485 105.12 32.4485 102.62C32.4485 100.3 32.2485 99.64 31.5285 99.64C30.8485 99.64 30.5885 100.14 30.5885 102.62C30.5885 104.92 30.8085 105.74 31.5285 105.74ZM38.5809 108.04L36.6209 97.3H39.6809L40.1409 100.74C40.2609 101.58 40.3209 102.26 40.4209 103.38H40.5009C40.6209 102.3 40.7409 101.56 40.8809 100.7L41.4609 97.3H44.0609L44.6409 100.8C44.7809 101.62 44.8409 102.16 45.0009 103.36H45.0809C45.2209 102.12 45.2809 101.62 45.3809 100.8L45.8409 97.3H48.3809L46.4209 108.04H43.5609L42.5409 102.18H42.4609L41.4409 108.04H38.5809ZM51.4596 112.04C50.3396 112.04 49.5996 111.9 49.1396 111.76L49.6796 109.12C49.9596 109.18 50.3396 109.26 50.8196 109.26C51.4796 109.26 51.6996 109.08 51.8396 108.56L51.9796 108.04L49.3196 97.3H52.7196L53.3596 101.78C53.4796 102.66 53.5196 103.1 53.6596 104.6H53.7396C53.8796 103.22 53.9396 102.64 54.0796 101.8L54.7996 97.3H57.9196L54.9196 108.9C54.3796 111 53.5596 112.04 51.4596 112.04ZM68.5965 108.16C65.6565 108.16 63.5965 106.08 63.5965 100.6C63.5965 95.12 65.6565 93.02 68.5965 93.02C71.5165 93.02 73.5765 95.12 73.5765 100.6C73.5765 106.08 71.5165 108.16 68.5965 108.16ZM68.5965 105.22C69.7365 105.22 70.0965 103.78 70.0965 100.6C70.0965 97.42 69.7365 96.06 68.5965 96.06C67.4365 96.06 67.0765 97.42 67.0765 100.6C67.0765 103.78 67.4365 105.22 68.5965 105.22ZM76.7606 108.04L74.8006 97.3H77.8606L78.3206 100.74C78.4406 101.58 78.5006 102.26 78.6006 103.38H78.6806C78.8006 102.3 78.9206 101.56 79.0606 100.7L79.6406 97.3H82.2406L82.8206 100.8C82.9606 101.62 83.0206 102.16 83.1806 103.36H83.2606C83.4006 102.12 83.4606 101.62 83.5606 100.8L84.0206 97.3H86.5606L84.6006 108.04H81.7406L80.7206 102.18H80.6406L79.6206 108.04H76.7606ZM88.184 108V93.2H91.464V108H88.184Z" fill="#3A2E27"/>
</svg>
