<svg width="99" height="112" viewBox="0 0 99 112" fill="none" xmlns="http://www.w3.org/2000/svg">
<path d="M18.8676 76.5342L19.0491 77.3117C19.8031 77.9594 20.5919 78.0558 21.4155 77.6011L22.1021 77.1925C21.3614 76.655 21.2082 75.7811 21.6425 74.5708L20.7345 74.6956C20.5253 75.6042 19.903 76.2171 18.8676 76.5342ZM41.0952 74.4289C41.0282 74.3752 40.962 74.3279 40.8965 74.2871C40.6911 74.1569 40.4925 74.0888 40.3007 74.0828C40.2943 74.0828 40.2867 74.0828 40.278 74.0828C39.8732 74.0828 39.493 74.2663 39.1374 74.6332C38.9162 74.862 38.7686 75.0852 38.6948 75.3028C38.662 75.3974 38.6431 75.49 38.638 75.5809C38.638 75.597 38.638 75.6121 38.638 75.6263C38.638 75.643 38.6721 75.7697 38.7402 76.0065C38.7511 76.0341 38.7606 76.055 38.7686 76.0689C38.7795 76.0832 38.7908 76.0965 38.8026 76.1086C39.1725 76.5254 39.5168 76.828 39.8354 77.0166C40.5655 77.4478 41.5227 77.6635 42.7068 77.6635C42.7851 77.6635 42.8608 77.6616 42.9337 77.6578C42.8215 77.5918 42.7288 77.5067 42.6557 77.4024C42.5383 77.2359 42.5118 77.1016 42.5762 76.9995C42.6412 76.8976 42.6733 76.7879 42.6727 76.6704C42.6752 76.5532 42.6677 76.4454 42.65 76.347L42.6443 76.3072C42.6793 76.2122 42.7209 76.1176 42.7692 76.0235C42.2552 75.7379 41.9393 75.4939 41.8215 75.2915C41.6134 74.9396 41.3713 74.6521 41.0952 74.4289ZM69.9905 72.8457C69.9402 72.924 69.8589 73.0091 69.7465 73.1011C69.3618 73.4164 69.0289 73.6207 68.7477 73.7139C68.713 73.7245 68.679 73.732 68.6456 73.7366C68.7601 74.6437 69.1403 75.459 69.7862 76.1824C69.9799 76.304 70.1955 76.3494 70.4331 76.3186C70.5323 76.3069 70.6344 76.2823 70.7395 76.2448C71.1208 76.0365 71.257 75.7338 71.1481 75.3369C71.0862 75.0843 70.9991 74.8214 70.8871 74.5481C70.6788 74.0197 70.3799 73.4522 69.9905 72.8457Z" fill="#211712"/>
<path d="M11.3884 66.4788C10.8408 66.7005 10.8483 67.3871 11.4111 68.5387C13.541 71.0575 15.9395 73.3614 18.6065 75.4505C18.8976 75.7335 18.9771 76.0664 18.8449 76.4492L18.8676 76.5343C19.903 76.2172 20.5253 75.6043 20.7345 74.6957C20.763 74.5703 20.7838 74.4398 20.7969 74.3042C20.7174 74.1769 20.3731 74.0369 19.7642 73.8843C17.6697 72.1135 15.869 70.0706 14.3619 67.7556C14.1334 66.8602 13.5243 66.3476 12.5346 66.2178C12.2308 66.1968 11.8487 66.2838 11.3884 66.4788ZM63.4135 58.4265C62.2929 58.6885 61.8862 59.1633 62.1935 59.8509C64.5433 63.6951 66.5029 67.7184 68.0724 71.9208C68.2337 72.3388 68.298 72.7285 68.2654 73.0898C68.0943 73.3792 68.0678 73.574 68.1859 73.6743C68.2911 73.7638 68.4443 73.7846 68.6456 73.7367C68.679 73.7321 68.713 73.7246 68.7477 73.714C69.0289 73.6208 69.3618 73.4165 69.7465 73.1012C69.8589 73.0092 69.9402 72.9241 69.9905 72.8458C70.1187 72.6566 70.0676 72.5072 69.8372 72.3975C69.5158 72.2476 69.302 71.9204 69.196 71.4158C67.6874 66.7464 65.7599 62.4167 63.4135 58.4265ZM39.2906 71.5236C39.2687 71.5596 39.246 71.5956 39.2225 71.6314L38.1784 72.6756C37.9779 73.6585 37.9495 74.3905 38.0933 74.8717C38.2366 75.3564 38.4182 75.5928 38.638 75.581C38.6431 75.4901 38.662 75.3975 38.6948 75.3029C38.7686 75.0853 38.9162 74.8621 39.1374 74.6333C39.493 74.2664 39.8732 74.0829 40.278 74.0829C40.2867 74.0829 40.2943 74.0829 40.3007 74.0829C40.4434 73.9536 40.5133 73.7096 40.5107 73.3509C43.1209 69.9468 45.5364 66.455 47.7572 62.8754C47.2332 61.9019 46.3214 61.5009 45.022 61.6724C43.2095 64.7647 41.8306 67.1348 40.8852 68.7828C39.9393 70.4339 39.4078 71.3475 39.2906 71.5236Z" fill="#251B17"/>
<path d="M55.0094 48.2859C54.9559 48.2144 54.903 48.1425 54.8505 48.0702C53.4853 46.1344 52.2293 45.6521 51.0825 46.6232C49.9355 47.5945 49.5534 48.6424 49.9362 49.7669C50.3232 50.8912 50.762 51.2846 51.2527 50.9473C51.4519 50.7179 51.7924 50.7368 52.2742 51.004C52.8292 51.3157 53.5707 51.955 54.4986 52.922L59.5491 58.1768L60.701 59.4649C61.2199 59.9517 61.7174 60.0803 62.1935 59.8508C61.8862 59.1632 62.2929 58.6884 63.4135 58.4265C63.5791 58.0174 63.5791 57.535 63.4135 56.9794C63.0947 56.515 62.4024 56.2805 61.3366 56.2758C59.1403 53.7213 57.0312 51.058 55.0094 48.2859ZM19.3555 58.7102C18.8922 58.9551 18.3531 59.341 17.7383 59.8678C17.0802 60.4249 16.3804 61.0416 15.6387 61.7178C14.8875 62.4107 14.0931 63.1655 13.2553 63.9819C12.4327 64.456 11.7555 64.6735 11.2238 64.6345C10.6744 64.8863 10.3566 65.4349 10.2704 66.2802C10.1887 67.1257 10.4308 67.7764 10.9968 68.2323C11.1057 68.3182 11.2438 68.4203 11.411 68.5387C10.8483 67.3871 10.8408 66.7005 11.3883 66.4788C11.8486 66.2838 12.2307 66.1968 12.5346 66.2178C13.5243 66.3475 14.1333 66.8601 14.3619 67.7556C15.7233 65.7735 17.3425 64.0144 19.2194 62.4782C19.6501 62.1248 20.0947 61.7824 20.5529 61.451C21.0898 61.3984 21.6308 61.2206 22.1758 60.9176C22.7408 60.6181 22.9602 60.2133 22.8341 59.7033C22.3561 58.8525 21.6222 58.3852 20.6323 58.3016C20.266 58.3198 19.8405 58.456 19.3555 58.7102ZM44.2502 48.4788C44.1447 48.2928 43.9348 48.1755 43.6203 48.127C41.1845 48.267 40.269 49.4984 40.8738 51.8212C41.6813 52.2725 42.3887 52.857 42.9961 53.5746C44.3312 55.1482 45.19 57.3613 45.5724 60.214L45.2263 60.5488C44.7415 61.215 44.6734 61.5895 45.022 61.6724C46.3214 61.5009 47.2331 61.9019 47.7572 62.8754C47.9142 62.9471 48.0712 62.8866 48.2282 62.6938C48.5701 62.2056 48.7309 61.7838 48.7105 61.4283C48.6898 61.0729 48.6406 60.7873 48.563 60.5715C47.8843 57.3066 47.0464 54.4712 46.0491 52.0652C45.8499 51.5885 45.6437 51.1269 45.4306 50.6806C45.3833 50.579 45.3342 50.4769 45.283 50.3741C44.9544 49.7022 44.6101 49.0704 44.2502 48.4788ZM79.5182 75.5753C79.1928 75.2045 78.8221 74.8621 78.4059 74.5482C77.2445 73.6667 76.0358 73.226 74.7798 73.226C73.7092 73.226 72.7635 73.4227 71.9425 73.8161C71.4015 74.0734 71.0497 74.3174 70.887 74.5482C70.9991 74.8215 71.0861 75.0844 71.1481 75.3369C71.257 75.7339 71.1208 76.0365 70.7395 76.2449C70.6344 76.2824 70.5322 76.307 70.4331 76.3186C70.6262 76.3792 70.8304 76.4094 71.0459 76.4094C71.4507 76.4094 72.1222 76.243 73.0604 75.9101C73.9948 75.5734 74.7647 75.405 75.37 75.405C76.5995 75.405 78.1563 75.7058 80.0402 76.3073V76.2959C79.9608 76.1181 79.7868 75.8779 79.5182 75.5753ZM26.7893 77.6749C27.5819 78.1448 28.0604 78.0767 28.225 77.4706C27.3284 76.3332 26.0914 75.4007 24.5138 74.673C23.7582 74.3211 22.801 74.2871 21.6424 74.5709C21.2082 75.7812 21.3614 76.6551 22.1021 77.1925C22.9463 76.9123 23.8277 76.812 24.7465 76.8918C25.32 76.9448 26.001 77.2059 26.7893 77.6749ZM51.5535 75.7001C51.2282 75.4126 50.9463 75.2197 50.708 75.1213C49.8492 74.7619 49.208 74.5198 48.7843 74.3949C48.1638 74.2096 47.568 74.1169 46.9968 74.1169C45.7256 74.1169 44.6777 74.3874 43.853 74.9284C43.3503 75.2584 42.989 75.6234 42.7691 76.0236C42.7209 76.1177 42.6792 76.2122 42.6443 76.3073L42.6557 76.313C42.6545 76.325 42.6526 76.3364 42.65 76.347C42.6676 76.4454 42.6752 76.5533 42.6727 76.6705C42.6733 76.7879 42.6411 76.8976 42.5762 76.9996C42.5118 77.1016 42.5383 77.2359 42.6557 77.4025C42.7288 77.5068 42.8215 77.5919 42.9337 77.6579C43.1381 77.7789 43.4067 77.8395 43.7395 77.8395C44.1973 77.8395 44.8801 77.6673 45.7881 77.3231C46.696 76.975 47.4186 76.801 47.9558 76.801L48.3189 76.8294C48.6329 76.8294 49.1739 76.9239 49.9419 77.1131C50.7099 77.2985 51.1809 77.3912 51.3549 77.3912C51.7218 77.3912 51.9753 77.3476 52.1153 77.2606C52.2326 77.185 52.2912 77.0601 52.2912 76.8861L52.2515 76.7669C52.2401 76.7518 52.2345 76.7348 52.2345 76.7159C52.2345 76.6175 52.2042 76.5248 52.1437 76.4378C52.0793 76.3697 52.0472 76.3281 52.0472 76.313C52.0472 76.1957 51.8826 75.9914 51.5535 75.7001ZM65.7685 13.1711C65.3978 13.4397 65.1008 13.7726 64.8776 14.1698C64.2647 14.3893 63.684 14.673 63.1355 15.021C62.5907 15.3766 62.1329 15.8174 61.7622 16.3432C61.3763 16.8918 61.0775 17.4838 60.8656 18.1194C60.6689 18.7247 60.5194 19.3394 60.4173 19.9637C60.3227 20.5463 60.2735 21.1307 60.2698 21.7171C60.2698 21.9819 60.2716 22.2486 60.2754 22.5172C60.2906 22.8426 60.2792 23.166 60.2414 23.4876C60.2376 23.5368 60.2319 23.5841 60.2244 23.6295C60.1906 23.7294 60.1414 23.8164 60.0768 23.8905C59.736 24.3253 59.422 24.715 59.1348 25.0595C59.1035 25.097 59.0714 25.1329 59.0384 25.1673C58.9796 25.2423 58.9209 25.3142 58.8624 25.3829C57.9408 26.4579 57.3298 27.0065 57.0295 27.0286C56.6049 27.0656 56.4706 27.2794 56.6266 27.6698C56.6513 27.7261 56.6759 27.7791 56.7004 27.8287C56.8516 28.1242 57.0464 28.3039 57.2849 28.3678C57.5631 28.4429 57.8393 28.2689 58.1134 27.8457C58.1179 27.8401 58.1217 27.8344 58.1247 27.8287C58.4054 27.4789 58.6854 27.1328 58.9646 26.7903C59.2353 26.4491 59.5039 26.1086 59.7704 25.7688C59.8226 25.7027 59.8737 25.6365 59.9236 25.5702C59.9645 25.5211 60.0042 25.4719 60.0428 25.4227C60.1367 25.3032 60.2275 25.1822 60.3152 25.0595C60.5189 24.7821 60.7099 24.4964 60.8883 24.2026C60.9337 24.127 60.964 24.0456 60.9791 23.9586C61.0025 23.8257 61.0158 23.6933 61.0188 23.5614C60.8751 21.6169 61.0529 19.7934 61.5522 18.091C61.9911 16.5929 62.9633 15.6377 64.469 15.2253C64.6619 15.6112 64.974 15.7795 65.4053 15.7304C65.8252 15.6547 66.2054 15.4788 66.5459 15.2026C66.8561 14.9529 67.0604 14.6408 67.1588 14.2663C67.2723 13.8312 67.2515 13.4075 67.0964 12.9952C67.0737 12.9271 67.0339 12.8855 66.9772 12.8703C66.5535 12.7909 66.1506 12.8911 65.7685 13.1711Z" fill="#150F0C"/>
<path d="M44.1765 39.1157C44.0736 39.0215 43.9563 38.9326 43.8247 38.8489C43.3439 38.56 42.8464 38.2914 42.3323 38.0431C36.7393 35.3583 29.3074 35.3034 20.0366 37.8786L18.7087 38.395C9.3529 42.9043 4.45 48.2574 4 54.4542C4.1201 54.8205 4.63271 55.2064 5.53784 55.6119C5.55306 55.6174 5.56629 55.6231 5.57756 55.6289C7.10044 56.3002 9.70133 57.0246 13.3802 57.8023C18.8508 58.2607 24.3363 57.0728 29.8367 54.2386C35.3375 51.4094 39.4724 48.4094 42.2415 45.2386C42.9122 44.4753 43.4513 43.7716 43.8587 43.1276C44.0407 42.8398 44.1959 42.5636 44.3241 42.2991C45.0164 40.8967 44.9672 39.8355 44.1765 39.1157ZM20.4395 40.6932C20.3445 40.6673 20.2575 40.6427 20.1784 40.6194C20.1179 40.5816 20.0876 40.4587 20.0876 40.2506C20.0876 39.9025 20.2579 39.5829 20.5983 39.2916C20.9956 38.9511 21.5082 38.7808 22.1362 38.7808C22.4842 38.7808 22.768 38.8357 22.9874 38.9454C23.2333 39.0665 23.3562 39.2405 23.3562 39.4675C23.3562 39.9479 22.9609 40.2998 22.1702 40.523C21.6898 40.6592 21.2301 40.7273 20.7913 40.7273C20.6513 40.7273 20.534 40.7159 20.4395 40.6932ZM17.8178 41.2607C18.5556 41.3554 18.9509 41.7337 19.0038 42.3956C19.0564 43.0573 18.8464 43.6077 18.3739 44.0469C17.9051 44.4861 17.4133 44.8568 16.8985 45.1592C16.3839 45.4617 15.8372 45.7095 15.2585 45.9025C14.6002 46.122 13.9571 46.1144 13.3291 45.8798C13.0567 45.7739 12.8354 45.598 12.6652 45.3521C12.4571 44.6636 12.5725 44.0375 13.0113 43.4738C13.4161 42.9631 13.8966 42.5318 14.4527 42.18C14.9256 41.8849 15.4287 41.6409 15.9622 41.4479C16.5637 41.2361 17.1822 41.1737 17.8178 41.2607ZM9.92434 48.9441C9.53475 48.3656 9.53286 47.7584 9.91866 47.1226C10.3081 46.4863 10.7166 46.2025 11.1444 46.2714C11.5721 46.3402 11.8029 46.5861 11.8367 47.0091C11.8707 47.4325 11.708 47.9376 11.3487 48.5242C11.0044 49.0879 10.5296 49.2279 9.92434 48.9441ZM53.0063 22.9145C52.37 23.1283 51.9765 23.8187 51.8259 24.9858V30.6207C51.7642 31.8468 51.5694 32.5997 51.2415 32.8792C50.8488 32.4322 50.6048 32.4076 50.5094 32.8054C50.3674 33.3962 49.8151 33.7234 48.8524 33.7871C45.5223 34.0079 43.3848 35.3282 42.4401 37.7481C42.5522 37.7129 43.1273 37.955 44.1652 38.4744C45.2023 38.993 45.8266 39.4886 46.0378 39.9612C46.2533 40.4341 46.2306 40.837 45.9697 41.1699C45.7162 41.4952 45.5346 41.8603 45.4249 42.2651C45.3433 42.5734 45.4228 43.347 45.6633 44.586C46.8328 45.1581 48.4595 44.8082 50.5435 43.5362C52.6307 42.2647 53.5557 40.5794 53.3184 38.4801C53.2387 36.9419 52.868 35.5573 52.2061 34.3262C53.1089 35.0389 53.9885 36.0319 54.8449 37.3054L55.4464 38.1964C56.7968 39.3442 58.1266 39.9079 59.4357 39.8874C60.1971 39.8766 61.088 39.6553 62.1084 39.2235C63.4276 38.5675 64.485 37.8506 65.2805 37.0728C65.9063 36.5015 66.4038 35.6919 66.773 34.644C67.9468 34.0233 68.8982 33.8114 69.6273 34.0085C69.7623 33.5354 69.7888 33.0625 69.7068 32.5898C69.0015 33.0558 68.3394 33.1901 67.7206 32.9927C67.3741 32.9041 67.0469 32.7849 66.7389 32.6352C66.0417 32.3002 65.4497 31.8103 64.9628 31.1655C64.2553 30.2386 63.9035 29.185 63.9073 28.0047C63.9098 27.6144 63.9627 27.2399 64.0662 26.8811C63.9107 26.7282 63.4492 26.7282 62.6816 26.8811C61.3434 26.2033 60.4241 25.7664 59.9237 25.5703C59.8738 25.6366 59.8227 25.7028 59.7705 25.7689C59.5039 26.1087 59.2353 26.4492 58.9647 26.7903C58.6855 27.1328 58.4055 27.4789 58.1248 27.8288C58.1218 27.8344 58.118 27.8401 58.1135 27.8458C57.8394 28.2689 57.5632 28.4429 57.285 28.3679C57.0465 28.3039 56.8516 28.1242 56.7005 27.8288C56.676 27.7791 56.6514 27.7261 56.6267 27.6699C56.4706 27.2794 56.6049 27.0657 57.0296 27.0286C57.3299 27.0065 57.9409 26.458 58.8625 25.383C58.921 25.3142 58.9796 25.2424 59.0384 25.1674C58.6235 24.9995 57.9539 24.7573 57.0296 24.441C56.7478 24.0283 56.3581 23.6443 55.8606 23.289C54.9344 22.7928 53.9829 22.6679 53.0063 22.9145ZM54.6008 27.3748C54.8014 27.4353 54.9848 27.5394 55.1513 27.6869C55.3215 27.8382 55.4691 28.0028 55.5939 28.1806C55.715 28.347 55.819 28.523 55.906 28.7083C56.0044 28.9051 56.0933 29.1112 56.1727 29.3269C56.2446 29.516 56.2824 29.7146 56.2862 29.9227C56.2673 29.8887 56.2503 29.8546 56.2351 29.8206C56.099 29.5633 55.9609 29.3174 55.8209 29.0829C55.6847 28.8483 55.522 28.627 55.3329 28.4189C55.1437 28.2109 54.9224 28.0368 54.6689 27.8969C54.4155 27.7455 54.1525 27.7266 53.8802 27.8401C53.6948 27.9233 53.5624 28.0501 53.4829 28.2203C53.3732 28.4662 53.2862 28.7235 53.2219 28.9921C53.1538 29.2682 53.1103 29.5501 53.0914 29.8376C53.0735 30.0842 53.0622 30.3282 53.0573 30.5696C53.0559 30.4722 53.0503 30.3738 53.0403 30.2745C53.0214 30.0513 53.0176 29.8262 53.029 29.5993C53.0403 29.3836 53.0668 29.1718 53.1084 28.9637C53.15 28.7443 53.1973 28.5343 53.2503 28.3338C53.307 28.1295 53.3959 27.9479 53.517 27.789C53.6494 27.6188 53.8121 27.4977 54.005 27.4259C54.2017 27.3426 54.4003 27.3256 54.6008 27.3748ZM61.7055 28.2203C62.1823 28.3933 62.6098 28.6884 62.988 29.1056C63.6122 29.7903 63.9243 30.6075 63.9243 31.557C63.9243 32.5066 63.6122 33.318 62.988 33.9914C62.3638 34.6648 61.6053 35.0015 60.7125 35.0015C59.8121 35.0015 59.0403 34.6592 58.3972 33.9744C57.7541 33.2859 57.4325 32.4574 57.4325 31.4889C57.4325 30.5167 57.7541 29.6938 58.3972 29.0204C58.4156 29.0012 58.4345 28.9823 58.4539 28.9637C59.085 28.3325 59.8379 28.026 60.7125 28.0444C61.0643 28.0519 61.3954 28.1105 61.7055 28.2203Z" fill="#512D2A"/>
<path d="M9.91868 47.1226C9.53288 47.7584 9.53477 48.3656 9.92435 48.9442C10.5296 49.2279 11.0044 49.0879 11.3487 48.5242C11.708 47.9376 11.8707 47.4326 11.8367 47.0091C11.8029 46.5862 11.5721 46.3403 11.1444 46.2714C10.7166 46.2025 10.3081 46.4863 9.91868 47.1226ZM19.0038 42.3956C18.9509 41.7337 18.5556 41.3554 17.8178 41.2607C17.1822 41.1737 16.5637 41.2361 15.9622 41.448C15.4288 41.6409 14.9256 41.8849 14.4527 42.18C13.8966 42.5318 13.4162 42.9631 13.0114 43.4738C12.5725 44.0375 12.4571 44.6636 12.6652 45.3521C12.8354 45.598 13.0568 45.7739 13.3291 45.8799C13.9571 46.1144 14.6003 46.122 15.2585 45.9026C15.8372 45.7095 16.3839 45.4617 16.8985 45.1592C17.4133 44.8569 17.9051 44.4861 18.3739 44.0469C18.8465 43.6077 19.0564 43.0573 19.0038 42.3956ZM20.1784 40.6195C20.2576 40.6427 20.3446 40.6673 20.4395 40.6932C20.5341 40.7159 20.6513 40.7273 20.7913 40.7273C21.2301 40.7273 21.6898 40.6592 22.1702 40.523C22.9609 40.2998 23.3562 39.948 23.3562 39.4675C23.3562 39.2405 23.2333 39.0665 22.9874 38.9454C22.768 38.8357 22.4842 38.7809 22.1362 38.7809C21.5082 38.7809 20.9956 38.9511 20.5984 39.2916C20.2579 39.5829 20.0876 39.9026 20.0876 40.2506C20.0876 40.4587 20.1179 40.5816 20.1784 40.6195ZM60.2471 34.3603C59.9747 34.1447 59.7175 33.9139 59.4754 33.668C59.1576 33.354 58.9117 32.9927 58.7377 32.5841C58.5826 32.2247 58.5126 31.8389 58.5277 31.4265C58.3159 31.6043 58.1797 31.7954 58.1191 31.9997C58.0359 32.2985 58.0378 32.5974 58.1248 32.8963C58.2761 33.3918 58.5599 33.7891 58.976 34.0879C59.3354 34.349 59.7345 34.4606 60.1734 34.4227L60.2471 34.3603Z" fill="#8C3630"/>
<path d="M42.3946 37.8672C42.3907 37.8834 42.385 37.8985 42.3776 37.9126C42.3639 37.958 42.3488 38.0015 42.3322 38.0432C42.8463 38.2914 43.3438 38.56 43.8246 38.849C43.9562 38.9326 44.0735 39.0215 44.1765 39.1157C44.9672 39.8356 45.0164 40.8967 44.324 42.2992C44.1958 42.5637 44.0407 42.8398 43.8587 43.1277C43.4512 43.7717 42.9121 44.4753 42.2414 45.2386C39.4724 48.4095 35.3375 51.4095 29.8366 54.2386C24.3363 57.0728 18.8508 58.2607 13.3802 57.8023C9.70128 57.0246 7.1004 56.3002 5.57751 55.6289C8.90419 59.197 12.2579 61.2266 15.6387 61.7178C16.3804 61.0417 17.0803 60.425 17.7383 59.8679C18.3532 59.341 18.8923 58.9552 19.3556 58.7103C19.8405 58.4561 20.2661 58.3199 20.6324 58.3017C21.6222 58.3853 22.3561 58.8525 22.8341 59.7033C22.9602 60.2134 22.7408 60.6182 22.1759 60.9177C21.6308 61.2207 21.0898 61.3985 20.5529 61.4511C20.0947 61.7825 19.6502 62.1248 19.2194 62.4782C27.4121 63.3568 35.3377 60.3889 42.9962 53.5747C42.3888 52.8571 41.6813 52.2726 40.8738 51.8212C40.269 49.4984 41.1845 48.267 43.6204 48.127C43.9348 48.1756 44.1448 48.2929 44.2502 48.4789C44.6101 49.0705 44.9544 49.7023 45.283 50.3742C45.3342 50.477 45.3834 50.5791 45.4306 50.6806C45.6437 51.127 45.8499 51.5885 46.0491 52.0652C48.3591 52.28 50.4341 51.9262 52.2742 51.0041C51.7924 50.7369 51.4519 50.7179 51.2528 50.9473C50.762 51.2847 50.3232 50.8912 49.9362 49.767C49.5534 48.6425 49.9355 47.5946 51.0825 46.6232C52.2293 45.6522 53.4853 46.1345 54.8505 48.0703C54.903 48.1425 54.956 48.2144 55.0094 48.2859C57.469 45.7891 58.392 43.5287 57.7786 41.5047C58.2847 41.4266 58.8295 41.2923 59.4129 41.1018C61.1556 40.5349 62.9564 39.7254 64.8152 38.673C67.5842 37.1164 69.1883 35.5615 69.6273 34.0085C68.8982 33.8114 67.9467 34.0233 66.7729 34.644C66.4038 35.692 65.9063 36.5015 65.2805 37.0728C64.4849 37.8506 63.4276 38.5675 62.1084 39.2235C61.0879 39.6553 60.197 39.8767 59.4356 39.8874C58.1265 39.9079 56.7968 39.3442 55.4463 38.1964L54.8448 37.3055C53.9885 36.0319 53.1089 35.0389 52.2061 34.3263C52.8679 35.5574 53.2387 36.942 53.3183 38.4801C53.5556 40.5794 52.6306 42.2648 50.5434 43.5362C48.4595 44.8082 46.8327 45.1581 45.6632 44.586C45.4227 43.347 45.3433 42.5734 45.4249 42.2651C45.5346 41.8603 45.7162 41.4952 45.9697 41.1699C46.2306 40.837 46.2533 40.4341 46.0378 39.9612C45.8265 39.4886 45.2023 38.993 44.1651 38.4744C43.1272 37.9551 42.5522 37.7129 42.44 37.7481C42.4264 37.7875 42.4113 37.8272 42.3946 37.8672ZM55.1512 27.6869C54.9848 27.5394 54.8013 27.4353 54.6008 27.3748C54.4003 27.3256 54.2017 27.3427 54.005 27.4259C53.812 27.4978 53.6494 27.6188 53.517 27.7891C53.3959 27.948 53.307 28.1295 53.2502 28.3338C53.1973 28.5343 53.15 28.7443 53.1084 28.9637C53.0668 29.1718 53.0403 29.3836 53.0289 29.5993C53.0176 29.8263 53.0214 30.0514 53.0403 30.2746C53.0502 30.3739 53.0559 30.4722 53.0573 30.5696C53.0621 30.3283 53.0735 30.0843 53.0914 29.8376C53.1103 29.5501 53.1538 29.2683 53.2219 28.9921C53.2862 28.7235 53.3732 28.4662 53.4829 28.2203C53.5623 28.0501 53.6948 27.9234 53.8801 27.8401C54.1525 27.7266 54.4154 27.7456 54.6689 27.8969C54.9224 28.0369 55.1437 28.2109 55.3328 28.4189C55.522 28.627 55.6847 28.8483 55.8209 29.0829C55.9608 29.3174 56.0989 29.5633 56.2351 29.8206C56.2502 29.8546 56.2673 29.8887 56.2862 29.9227C56.2824 29.7147 56.2446 29.516 56.1727 29.3269C56.0932 29.1113 56.0043 28.9051 55.906 28.7084C55.819 28.523 55.7149 28.3471 55.5939 28.1806C55.469 28.0028 55.3215 27.8382 55.1512 27.6869Z" fill="#2F1C19"/>
<path d="M62.988 29.1054C62.6098 28.6882 62.1823 28.3932 61.7055 28.2201C61.3954 28.1103 61.0643 28.0517 60.7124 28.0442C59.8379 28.0259 59.085 28.3323 58.4539 28.9635C58.4345 28.9822 58.4156 29.0011 58.3972 29.0203C57.7541 29.6937 57.4325 30.5165 57.4325 31.4887C57.4325 32.4572 57.7541 33.2857 58.3972 33.9742C59.0403 34.659 59.8121 35.0014 60.7124 35.0014C61.6053 35.0014 62.3638 34.6647 62.988 33.9913C63.6122 33.3179 63.9243 32.5064 63.9243 31.5568C63.9243 30.6073 63.6122 29.7901 62.988 29.1054ZM61.4728 28.8387C61.7377 28.8387 61.9627 28.9314 62.1481 29.1167C62.3335 29.3021 62.4262 29.5272 62.4262 29.792C62.4262 30.0567 62.3524 30.2308 62.2049 30.3141C62.0611 30.4014 61.8682 30.4165 61.6261 30.3595C61.3839 30.3025 61.138 30.259 60.8884 30.229C60.6424 30.2026 60.5195 30.0569 60.5195 29.792C60.5195 29.5272 60.6122 29.3021 60.7976 29.1167C60.9829 28.9314 61.208 28.8387 61.4728 28.8387ZM59.4754 33.6678C59.7175 33.9137 59.9747 34.1445 60.2471 34.3601L60.1734 34.4225C59.7345 34.4604 59.3354 34.3488 58.976 34.0877C58.5599 33.7889 58.2761 33.3917 58.1248 32.8961C58.0378 32.5972 58.0359 32.2983 58.1191 31.9995C58.1796 31.7952 58.3159 31.6041 58.5277 31.4263C58.5126 31.8387 58.5826 32.2246 58.7377 32.584C58.9117 32.9925 59.1576 33.3538 59.4754 33.6678Z" fill="#120D0D"/>
<path d="M62.1482 29.1169C61.9628 28.9316 61.7377 28.8389 61.4729 28.8389C61.2081 28.8389 60.983 28.9316 60.7976 29.1169C60.6122 29.3023 60.5195 29.5274 60.5195 29.7922C60.5195 30.0571 60.6425 30.2028 60.8884 30.2292C61.1381 30.2591 61.384 30.3026 61.6261 30.3597C61.8682 30.4167 62.0611 30.4016 62.2049 30.3143C62.3524 30.2309 62.4262 30.0569 62.4262 29.7922C62.4262 29.5274 62.3335 29.3023 62.1482 29.1169Z" fill="#ECBBBA"/>
<path d="M93.9999 23.5444L92.2067 25.105C90.0157 26.7893 88.249 27.8372 86.9066 28.2487C84.8588 28.8791 82.9654 29.0078 81.2263 28.6346C78.8875 28.0448 76.8485 27.8064 75.109 27.9196C73.3699 28.0356 71.8434 28.5218 70.5296 29.378C68.845 30.4836 67.5815 31.5693 66.7389 32.6352C67.0469 32.7849 67.3741 32.9041 67.7206 32.9927C68.3394 33.1901 69.0014 33.0558 69.7067 32.5898L72.1638 30.4391C73.8313 29.6454 75.2008 29.2955 76.2723 29.3893C76.4309 29.4024 77.4126 29.4856 79.2174 29.639C81.0255 29.796 82.3647 29.9019 83.2351 29.9568C84.1088 30.0145 85.605 29.6872 87.7237 28.9751C89.8426 28.2639 91.9346 26.4537 93.9999 23.5444Z" fill="#7B3A32"/>
<path d="M90.7371 23.7429C89.8253 24.3937 88.8266 24.9782 87.7408 25.4964C86.6588 26.0182 85.6166 26.3492 84.6141 26.4894C83.6159 26.633 82.3278 26.6557 80.7497 26.5575C79.1752 26.4646 77.6998 26.1771 76.3235 25.695C74.9469 25.2164 73.1953 24.84 71.0687 24.5657C68.9425 24.2912 66.7218 24.8133 64.4067 26.1319C64.3499 26.1963 64.3046 26.2662 64.2705 26.3419C64.1898 26.5175 64.1217 26.6972 64.0662 26.881C63.9628 27.2398 63.9098 27.6143 63.9073 28.0046C63.9035 29.1849 64.2554 30.2385 64.9628 31.1654C65.4497 31.8102 66.0418 32.3001 66.739 32.6351C67.5815 31.5692 68.8451 30.4835 70.5296 29.3778C71.8435 28.5216 73.37 28.0355 75.1091 27.9195C76.8485 27.8063 78.8876 28.0446 81.2264 28.6345C82.9654 29.0076 84.8589 28.879 86.9067 28.2486C88.249 27.8371 90.0158 26.7891 92.2068 25.1048L94 23.5443C93.8306 22.9932 93.0134 22.8608 91.5485 23.1471C91.2799 23.3476 91.0094 23.5462 90.7371 23.7429Z" fill="#8D5251"/>
<path d="M6.99729 108.2C3.79729 108.2 2.83729 106.04 2.43729 103.38L5.37729 102.88C5.63729 104.44 6.01729 105.36 7.01729 105.36C7.75729 105.36 7.99729 104.82 7.99729 104.34C7.99729 102.06 2.69729 101.12 2.69729 97C2.69729 94.52 4.35729 92.98 6.99729 92.98C9.67729 92.98 10.7173 94.74 11.2973 97.42L8.29729 98.14C7.99729 96.66 7.63729 95.92 6.85729 95.92C6.33729 95.92 6.03729 96.26 6.03729 96.8C6.03729 98.94 11.3373 99.98 11.3373 104.16C11.3373 106.54 9.61729 108.2 6.99729 108.2ZM17.1034 108.08C14.8834 108.08 14.0234 107.4 14.0234 105.58V99.74H12.8834V97.3H14.0234V93.68H17.2834V97.3H19.0834V99.74H17.2834V104.54C17.2834 105.58 17.5234 105.7 18.2434 105.7C18.5234 105.7 18.9234 105.64 18.9834 105.62V107.94C18.8034 108 17.9234 108.08 17.1034 108.08ZM22.8073 108.1C21.5873 108.1 20.5073 107.36 20.5073 105.2C20.5073 102.84 22.7273 101.4 25.2073 100.9V100.62C25.2073 100.02 25.1073 99.82 24.5473 99.82C23.8073 99.82 22.8273 100.42 22.3673 100.8L20.8473 98.72C22.0073 97.68 23.5873 97.14 25.1473 97.14C27.5073 97.14 28.3473 98.24 28.3473 100.46V105.4C28.3473 106.68 28.4073 107.46 28.5673 108H25.3673C25.2673 107.66 25.2073 107.26 25.2073 106.58C24.6873 107.5 23.9473 108.1 22.8073 108.1ZM24.2673 105.48C24.6873 105.48 25.0273 105.24 25.2073 105.12V103.08C24.2473 103.4 23.6473 103.9 23.6473 104.66C23.6473 105.18 23.8873 105.48 24.2673 105.48ZM36.8201 98.1C37.3601 97.5 38.2401 97.06 38.8201 96.98V99.94C38.7601 99.94 38.2801 99.94 37.8401 99.96C37.9201 100.3 37.9601 100.62 37.9601 101.02C37.9601 103.64 36.3001 104.9 34.1401 104.9C33.7601 104.9 33.4201 104.86 33.1001 104.78C33.0201 104.88 32.9801 104.98 32.9801 105.08C32.9801 105.38 33.1001 105.48 33.6601 105.52L34.8401 105.6C37.7401 105.8 38.6401 106.74 38.6401 108.62C38.6401 110.64 36.6601 112 33.6601 112C31.0401 112 29.7801 111.18 29.7801 109.78C29.7801 108.86 30.3201 108.12 31.2601 107.68C30.6601 107.34 30.3601 106.84 30.3601 106.22C30.3601 105.54 30.8601 104.7 31.6801 104.14C30.7801 103.46 30.2801 102.38 30.2801 101.02C30.2801 98.48 31.9601 97.14 34.1401 97.14C35.2201 97.14 36.1601 97.46 36.8201 98.1ZM34.1601 102.8C34.7001 102.8 34.9201 102.28 34.9201 101.08C34.9201 99.84 34.7201 99.42 34.1601 99.42C33.5801 99.42 33.3801 99.88 33.3801 101.08C33.3801 102.28 33.6001 102.8 34.1601 102.8ZM33.0601 108.06C32.8601 108.44 32.7801 108.78 32.7801 109.1C32.7801 109.9 33.2801 110.14 34.2201 110.14C35.1201 110.14 35.6801 109.74 35.6801 109.06C35.6801 108.46 35.4001 108.22 34.2801 108.14L33.0601 108.06ZM45.4349 108V93.2H49.6549C51.8149 93.2 53.9949 93.9 53.9949 96.9C53.9949 99.2 53.0349 100 51.9349 100.32V100.36C53.2549 100.7 54.2749 101.48 54.2749 103.96C54.2749 107 52.1149 108 49.8349 108H45.4349ZM48.7749 99.26H49.5549C50.2549 99.26 50.6749 98.96 50.6749 97.6C50.6749 96.26 50.2749 96 49.5549 96H48.7749V99.26ZM48.7749 105.42H49.6149C50.4749 105.42 50.9149 104.88 50.9149 103.5C50.9149 102.02 50.4149 101.58 49.5749 101.58H48.7749V105.42ZM60.0754 108.16C57.6154 108.16 55.8754 106.5 55.8754 102.66C55.8754 98.74 57.6754 97.14 59.9554 97.14C62.7154 97.14 63.8554 99.32 63.8554 102.76V103.86H58.9954C59.0154 105 59.3554 105.74 60.1154 105.74C60.7954 105.74 61.1754 105.18 61.4354 104.38L63.8954 105.28C63.2754 107.04 61.9954 108.16 60.0754 108.16ZM59.0154 101.78H60.8554C60.8554 100.02 60.5154 99.62 59.9554 99.62C59.4554 99.62 59.0154 100.06 59.0154 101.78ZM69.5325 108.16C67.0725 108.16 65.3325 106.5 65.3325 102.66C65.3325 98.74 67.1325 97.14 69.4125 97.14C72.1725 97.14 73.3125 99.32 73.3125 102.76V103.86H68.4525C68.4725 105 68.8125 105.74 69.5725 105.74C70.2525 105.74 70.6325 105.18 70.8925 104.38L73.3525 105.28C72.7325 107.04 71.4525 108.16 69.5325 108.16ZM68.4725 101.78H70.3125C70.3125 100.02 69.9725 99.62 69.4125 99.62C68.9125 99.62 68.4725 100.06 68.4725 101.78ZM78.8495 108.08C76.6295 108.08 75.7695 107.4 75.7695 105.58V99.74H74.6295V97.3H75.7695V93.68H79.0295V97.3H80.8295V99.74H79.0295V104.54C79.0295 105.58 79.2695 105.7 79.9895 105.7C80.2695 105.7 80.6695 105.64 80.7295 105.62V107.94C80.5495 108 79.6695 108.08 78.8495 108.08ZM82.7934 108V93.2H86.0734V108H82.7934ZM92.259 108.16C89.799 108.16 88.059 106.5 88.059 102.66C88.059 98.74 89.859 97.14 92.139 97.14C94.899 97.14 96.039 99.32 96.039 102.76V103.86H91.179C91.199 105 91.539 105.74 92.299 105.74C92.979 105.74 93.359 105.18 93.619 104.38L96.079 105.28C95.459 107.04 94.179 108.16 92.259 108.16ZM91.199 101.78H93.039C93.039 100.02 92.699 99.62 92.139 99.62C91.639 99.62 91.199 100.06 91.199 101.78Z" fill="#3A2E27"/>
</svg>
