<svg width="99" height="112" viewBox="0 0 99 112" fill="none" xmlns="http://www.w3.org/2000/svg">
<path d="M29.2062 75.1954L28.1217 72.3807L21.0267 70.4739L19.9782 71.5453L19.933 73.6064C20.15 74.575 20.2885 75.0592 20.3488 75.0592C20.3789 75.0592 21.4304 75.3256 23.5031 75.8583C25.5699 76.3789 26.6123 76.6119 26.6304 76.5574C26.6424 76.5151 27.0823 76.2881 27.9499 75.8764C28.8056 75.4709 29.2243 75.2439 29.2062 75.1954ZM29.9745 44.2691C29.1671 43.3672 28.7393 42.8859 28.6911 42.8254C28.6007 42.7043 27.6908 42.438 25.9615 42.0264L25.5729 43.3066C25.2957 44.2389 25.121 44.9198 25.0487 45.3496C24.9764 45.7794 25.1029 46.3878 25.4283 47.1747C25.591 47.5682 25.7597 47.9193 25.9344 48.228L26.8382 49.363L31.4929 50.1348C31.4628 49.4689 31.4297 48.7909 31.3935 48.1009C31.3152 46.7147 31.2579 45.955 31.2218 45.8218C31.1856 45.6947 30.7699 45.1771 29.9745 44.2691Z" fill="#7E3115"/>
<path d="M82.5496 51.3874C82.7002 51.2542 82.7635 50.9939 82.7394 50.6065C82.6851 49.8377 82.2152 48.8359 81.3294 47.601C80.4437 46.3662 79.7086 45.4915 79.1241 44.9769C78.3649 44.4079 77.6388 43.8208 76.9459 43.2154C75.1081 42.1258 73.5867 41.7778 72.3816 42.1712C71.3753 42.5102 70.6975 43.3092 70.348 44.5683C70.0347 45.7003 70.0557 46.8535 70.4112 48.0278C70.7788 49.2385 71.3603 49.9649 72.1556 50.207C72.7582 50.437 73.5144 51.0181 74.4242 51.9503C74.8822 52.4164 75.2768 52.8614 75.6082 53.2851L77.217 55.0194L80.29 55.8638L82.5496 51.3874Z" fill="#0F0117"/>
<path d="M43.5858 88.3517C43.8243 88.2133 44.0562 88.065 44.2817 87.9068C45.1313 87.0169 45.4326 86.2663 45.1856 85.6549C45.0892 85.4189 44.9205 85.2585 44.6794 85.1737C44.5804 85.138 44.478 85.1198 44.3721 85.1192C43.8961 85.7126 43.4021 86.2635 42.8899 86.7718C41.3955 88.2488 40.091 89.1447 38.9763 89.4594C40.4831 89.6352 42.0196 89.266 43.5858 88.3517ZM31.4023 66.9956C30.3237 65.5428 29.3536 64.6833 28.492 64.4169C28.6515 65.1418 28.8021 65.8955 28.9439 66.6778C29.1582 67.2446 29.3691 67.7652 29.5766 68.2396L30.0646 69.4382C30.4442 70.4127 30.7666 71.348 31.0317 72.2439C31.8934 75.1071 32.041 77.0108 31.4746 77.9552C30.9504 78.8389 29.9532 79.9497 28.4829 81.2875C26.9223 82.704 26.0818 83.4969 25.9613 83.6664C25.5877 84.1931 25.3678 84.641 25.3015 85.0103C25.2352 85.4158 25.3346 85.8184 25.5998 86.2179C25.7474 86.639 26.0306 86.9962 26.4493 87.2893C25.2384 85.4449 25.8921 83.6683 28.4106 81.9594C29.194 81.4267 30.1219 80.9334 31.1944 80.4794C31.406 80.3886 31.6048 80.3069 31.7909 80.2342C32.0795 80.0984 32.3356 80.0046 32.5592 79.9527L32.7399 71.5901L33.0834 72.1077C33.3847 72.5314 33.7131 72.94 34.0686 73.3335C35.1953 74.5925 36.3673 75.4672 37.5844 75.9576C37.7477 75.6264 37.9194 75.2571 38.0996 74.8498L38.8859 72.9612C36.5362 71.353 34.4454 69.428 32.6134 67.1863C32.8004 67.847 32.8486 68.4826 32.758 69.0931C32.3905 68.4212 31.9386 67.722 31.4023 66.9956ZM27.5972 60.9938L28.4829 61.702C28.823 61.9857 29.1454 62.2733 29.45 62.5646C28.6485 61.1576 27.9194 59.6594 27.2628 58.0701C27.1371 57.7653 27.0136 57.4596 26.8922 57.153C26.8959 57.1518 26.8959 57.1487 26.8922 57.1439C26.9284 58.0337 27.1634 59.317 27.5972 60.9938ZM48.0959 39.1565L46.704 38.5845C46.2515 39.0373 45.7665 39.3914 45.2488 39.6468C44.9536 40.5911 44.4264 41.4507 43.6671 42.2255C42.3536 43.5573 40.6393 44.205 38.5244 44.1686C36.4516 44.1323 34.7886 43.3484 33.5353 41.8169C33.1437 41.3387 32.8183 40.8121 32.5592 40.237L32.279 39.5288C31.7951 39.3313 31.3161 39.065 30.8419 38.7297C29.7773 39.5002 28.9067 40.5655 28.2299 41.9259C29.2403 42.9572 30.138 43.6715 30.9233 44.0688L31.2758 45.004C31.6072 45.7486 32.0048 46.4296 32.4688 47.047C33.945 49.0143 35.8129 49.9586 38.0725 49.8799C40.4586 49.8012 42.3355 49.0748 43.7033 47.7007C44.6192 46.7746 45.2729 45.5942 45.6646 44.1596L47.662 42.4616C47.8174 41.3783 47.962 40.2766 48.0959 39.1565Z" fill="#EEB990"/>
<path d="M51.3587 87.9067C51.8889 87.8583 52.3408 87.7493 52.7144 87.5798C53.5037 87.9975 54.3443 88.0913 55.2361 87.8613C55.6819 87.7463 56.0465 87.5889 56.3297 87.3891C56.6671 87.6131 57.1009 87.7433 57.6312 87.7796C57.8963 87.7977 58.1283 87.7917 58.3271 87.7614L61.617 87.0895C62.0388 86.8958 62.3461 86.581 62.5389 86.1452C62.7318 85.7094 62.7438 85.2917 62.5751 84.8922C62.1292 83.857 60.8307 83.5423 58.6796 83.9479C55.9862 84.4563 53.6996 84.6198 51.8196 84.4382C49.6324 84.2202 48.4544 83.5423 48.2857 82.4043C48.0808 83.1367 47.7946 83.8268 47.427 84.4745C47.186 84.8861 46.8094 85.437 46.2973 86.127C46.6769 86.6961 47.183 87.0471 47.8157 87.1803C48.129 87.253 48.4062 87.2651 48.6472 87.2166C49.4004 87.7856 50.3042 88.0157 51.3587 87.9067ZM26.4494 87.2893C26.5604 87.3709 26.6809 87.4465 26.8109 87.5163C27.1182 87.6797 27.4074 87.7917 27.6786 87.8522C28.3594 89.0629 29.3024 89.6077 30.5075 89.4866C31.1101 89.4261 31.6433 89.2445 32.1073 88.9418C33.0111 89.9285 34.1108 90.2251 35.4062 89.8316C36.057 89.6319 36.6143 89.3353 37.0783 88.9418L38.9763 89.4594C40.091 89.1446 41.3955 88.2487 42.8899 86.7717C43.4021 86.2634 43.8961 85.7125 44.3721 85.1192C44.2354 85.1192 44.0938 85.1525 43.9473 85.219C42.5735 85.8486 41.1997 86.2723 39.8259 86.4902C37.1024 86.9261 34.4391 86.6234 31.8361 85.5822C29.2151 84.535 28.4197 83.3244 29.45 81.9503C29.8055 81.4781 30.3509 81.0302 31.086 80.6064C31.3393 80.4584 31.5743 80.3343 31.7909 80.2341C31.6048 80.3068 31.406 80.3885 31.1944 80.4793C30.1219 80.9333 29.194 81.4267 28.4106 81.9593C25.8921 83.6682 25.2384 85.4449 26.4494 87.2893ZM30.0646 69.4381L29.5766 68.2395C29.3691 67.7652 29.1582 67.2446 28.9439 66.6778C29.2417 68.319 29.5008 70.0865 29.7212 71.9805C30.2334 76.3691 30.1249 79.0265 29.3958 79.9527C28.4498 81.1573 27.0971 82.15 25.3377 82.9309C23.3191 83.8268 20.9963 84.3171 18.3692 84.4018C16.0373 84.4805 14.6424 84.0447 14.1845 83.0943C14.0399 82.7977 13.9977 82.4678 14.058 82.1046L14.1935 81.6506C13.5669 82.2438 13.118 82.7675 12.8468 83.2215C12.2443 84.2445 12.172 85.1706 12.6299 85.9999C13.0939 86.8474 13.8591 87.0714 14.9256 86.6718C15.5643 87.4285 16.3446 87.6706 17.2665 87.3982C17.7305 87.2651 18.1282 87.0532 18.4596 86.7626C19.2911 87.3316 20.1286 87.4406 20.9722 87.0895C21.394 86.92 21.7314 86.69 21.9845 86.3994C22.6232 86.8898 23.4185 87.0078 24.3706 86.7535C24.8466 86.6264 25.2563 86.4479 25.5998 86.2178C25.3346 85.8183 25.2352 85.4158 25.3015 85.0102C25.3678 84.641 25.5877 84.193 25.9613 83.6664C26.0818 83.4969 26.9224 82.7039 28.483 81.2874C29.9532 79.9496 30.9504 78.8389 31.4746 77.9551C32.041 77.0108 31.8934 75.107 31.0317 72.2438C30.7666 71.3479 30.4442 70.4127 30.0646 69.4381ZM47.662 42.4615L45.6646 44.1595C45.2729 45.5941 44.6192 46.7745 43.7033 47.7007C42.3355 49.0748 40.4586 49.8012 38.0725 49.8799C35.8129 49.9586 33.9451 49.0142 32.4688 47.0469C32.0048 46.4295 31.6072 45.7485 31.2758 45.0039L30.9233 44.0687C30.1381 43.6714 29.2403 42.9571 28.2299 41.9258C27.7545 42.895 27.3749 44.0118 27.0911 45.2763C27.9229 47.1773 28.878 48.5786 29.9562 49.4803C29.4561 49.3956 28.8776 49.1625 28.2208 48.7812C27.6709 48.4568 27.1647 48.0664 26.7024 47.6099C26.6298 48.2506 26.5756 48.9195 26.5397 49.6165C26.4743 50.8911 26.4653 52.1229 26.5126 53.3121L26.7567 53.4483C27.2929 53.7933 27.7629 54.1898 28.1666 54.6378C29.4681 56.0784 29.8688 57.7794 29.3687 59.7407C29.1458 58.9538 28.8385 58.0851 28.4468 57.1347C27.8175 55.5959 27.1788 54.4125 26.5307 53.5845C26.5897 54.8189 26.7102 56.0053 26.8922 57.1438C26.8959 57.1487 26.8959 57.1517 26.8922 57.1529C27.0136 57.4596 27.1371 57.7653 27.2628 58.07C27.9194 59.6594 28.6485 61.1575 29.45 62.5646C29.7872 62.8867 30.1035 63.2136 30.3991 63.5452C31.5515 64.8332 32.2896 66.0469 32.6134 67.1862C34.4454 69.428 36.5362 71.3529 38.8859 72.9611C40.0011 70.6921 41.0194 68.3192 41.9409 65.8424C41.0009 65.9453 39.8892 66.6838 38.6058 68.0579C37.9671 68.748 37.4217 69.426 36.9698 70.0918C37.0662 68.0882 38.0484 66.4266 39.9163 65.1069C40.8563 64.4532 41.7842 63.9962 42.7001 63.7359C43.5858 61.1693 44.3782 58.5088 45.0771 55.7546C45.075 55.7539 45.072 55.7539 45.0681 55.7546C44.491 56.2106 43.8975 56.7282 43.2876 57.3073C42.1969 58.3484 41.2811 59.3412 40.5399 60.2855C40.4556 58.5603 41.504 56.932 43.6852 55.4005C44.239 55.0099 44.8114 54.674 45.4025 54.3926C45.8086 52.7112 46.1821 50.986 46.5232 49.217C45.4999 49.4394 44.4696 49.4969 43.4322 49.3895C44.6026 49.0302 45.7173 48.5308 46.7763 47.8914C47.0996 46.128 47.3948 44.3181 47.662 42.4615ZM45.2398 39.6468C45.2283 39.6538 45.2133 39.6599 45.1946 39.6649C44.3305 40.0777 43.3725 40.2139 42.3205 40.0735C41.5311 39.9706 40.7388 39.7164 39.9434 39.3108C39.377 39.0202 38.9341 38.7327 38.6148 38.4482C37.5543 39.1443 36.5541 39.5953 35.6141 39.8011C34.4693 40.0493 33.3576 39.9585 32.279 39.5287L32.5592 40.237C32.8183 40.812 33.1437 41.3387 33.5353 41.8169C34.7886 43.3483 36.4516 44.1323 38.5244 44.1686C40.6394 44.2049 42.3536 43.5572 43.6672 42.2255C44.4264 41.4506 44.9536 40.5911 45.2488 39.6468C45.247 39.6462 45.244 39.6462 45.2398 39.6468ZM55.697 16.1932C55.2993 15.6787 54.6938 15.37 53.8803 15.2671C53.091 15.1702 52.3348 15.2852 51.6117 15.6121C50.8224 15.9693 50.2771 16.4989 49.9758 17.2011C49.6324 18.0123 49.6715 18.9475 50.0933 20.0068C51.3767 23.2272 50.4428 25.8604 47.2915 27.9064C46.5383 28.3967 46.0864 29.0293 45.9357 29.8041C45.7911 30.5547 45.9719 31.1631 46.478 31.6292C47.2674 32.3495 47.8127 33.0396 48.114 33.6994C48.6141 34.789 48.5508 35.8877 47.9241 36.9954C47.549 37.6182 47.1423 38.1479 46.704 38.5844L48.0959 39.1564L48.5568 39.3471C49.3883 38.3907 50.0451 37.2103 50.5272 35.8059C50.5333 35.7882 50.5393 35.7701 50.5452 35.7515C50.5449 35.7498 50.5449 35.7468 50.5452 35.7424C50.688 35.3301 50.8055 34.9185 50.8977 34.5075L50.9971 33.9899L52.7596 34.226C54.1153 34.3047 55.2451 34.1352 56.1489 33.7175C57.0527 32.1982 57.3239 29.9887 56.9624 27.0892C56.8479 26.1812 56.6792 25.2581 56.4562 24.3198L56.1489 23.1848L58.3181 22.186C58.1554 21.5383 57.9234 20.7998 57.6222 19.9705C57.0196 18.324 56.3779 17.0649 55.697 16.1932ZM23.1594 15.2943C22.0508 15.5728 21.3277 15.9935 20.9903 16.5564C20.3938 17.4281 19.8515 18.5813 19.3634 20.0159C19.1224 20.7362 18.9416 21.3688 18.8211 21.9136L20.8095 23.1848L20.5655 24.4106C20.3907 25.4154 20.2582 26.3809 20.1678 27.3071C19.8786 30.2914 20.0925 32.3707 20.8095 33.545C21.7736 34.1625 22.816 34.4591 23.9367 34.4349C24.2561 34.4228 24.9611 34.3077 26.0517 34.0898C26.2385 34.6709 26.4584 35.4972 26.7115 36.5687C26.9563 37.396 27.2907 38.0679 27.7147 38.5844C27.7506 38.6284 27.7867 38.6707 27.8232 38.7115C28.0039 38.9113 28.1967 39.0929 28.4016 39.2563C29.0042 39.1352 29.7272 38.8931 30.5708 38.5299C29.5766 37.7672 29.1427 36.5747 29.2693 34.9524C29.3175 34.3471 29.441 33.7751 29.6398 33.2363C29.8266 32.7399 30.0164 32.4191 30.2093 32.2738C30.9685 31.7048 31.4354 31.1267 31.6102 30.5396C31.9235 29.4984 31.3059 28.5299 29.7573 27.634C28.251 26.7623 27.3773 25.2581 27.1363 23.1212C27.064 22.4554 27.0579 21.7683 27.1182 21.0601L27.2266 20.1884C27.317 19.5104 27.3411 18.7992 27.299 18.0546C27.2086 16.5716 26.8229 15.6787 26.1421 15.376C25.3166 15.0249 24.3224 14.9977 23.1594 15.2943ZM47.4632 16.3385C45.1675 14.9039 43.5436 14.9432 42.5916 16.4566C42.1156 17.2132 41.8716 18.1121 41.8595 19.1533L42.7633 25.1461C42.8838 25.3277 43.2454 25.5698 43.8479 25.8725C44.7337 26.2054 45.6254 26.1388 46.5232 25.6727C47.3909 25.2248 48.0718 24.5074 48.5659 23.5208C49.0961 22.4796 49.2949 21.3597 49.1624 20.1612C49.0118 18.8113 48.4454 17.5371 47.4632 16.3385ZM30.9685 25.7998C31.8663 26.2659 32.758 26.3325 33.6438 25.9996C34.2463 25.6969 34.6079 25.4548 34.7284 25.2732L35.6322 19.2804C35.6201 18.2393 35.3761 17.3403 34.9001 16.5837C33.9481 15.0704 32.3242 15.031 30.0285 16.4656C29.0463 17.6642 28.4799 18.9384 28.3293 20.2883C28.1967 21.4869 28.3956 22.6067 28.9258 23.6479C29.4199 24.6346 30.1008 25.3519 30.9685 25.7998Z" fill="#FFF9E7"/>
<path d="M52.859 78.155C52.0878 78.0521 51.3617 77.8645 50.6808 77.5921L49.8945 77.2198C51.4157 78.6018 53.0154 79.2617 54.6938 79.1992C54.0221 78.9106 53.4678 78.5686 53.0308 78.1732C52.9755 78.1692 52.9182 78.1632 52.859 78.155ZM28.483 61.7021L27.5972 60.9939L28.492 64.417C29.3537 64.6834 30.3238 65.543 31.4023 66.9957C31.9386 67.7221 32.3905 68.4213 32.7581 69.0932C32.8486 68.4827 32.8004 67.8472 32.6134 67.1864C32.2896 66.0471 31.5515 64.8334 30.3991 63.5454C30.1035 63.2137 29.7872 62.8869 29.4501 62.5647C29.1454 62.2734 28.823 61.9858 28.483 61.7021ZM53.8081 68.9298C53.8905 68.6216 53.9688 68.2978 54.043 67.9582C53.501 68.4875 53.037 69.0626 52.6512 69.6834C53.0324 69.4165 53.418 69.1653 53.8081 68.9298Z" fill="#76240D"/>
<path d="M49.8131 74.7046C49.8365 74.635 49.8606 74.5654 49.8854 74.4957C48.7707 74.2778 47.4873 74.1961 46.0352 74.2506C43.1309 74.3535 40.8321 75.0859 39.139 76.4479L40.4947 76.1665C41.5914 75.9546 42.6277 75.7911 43.6039 75.6761C46.719 75.3129 48.605 75.4915 49.2618 76.2119C49.4511 75.7218 49.6349 75.2194 49.8131 74.7046ZM57.0075 78.6816C58.2789 78.1671 59.3273 77.4528 60.1528 76.5387C57.8008 77.921 55.4268 78.4658 53.0307 78.1731C53.4678 78.5685 54.0221 78.9105 54.6938 79.1992C55.4493 79.1734 56.2206 79.0009 57.0075 78.6816ZM20.0864 68.6029L20.0593 69.1204L20.8185 69.6107C21.4512 69.9921 22.0839 70.325 22.7166 70.6095C24.7592 71.5296 26.4493 71.8111 27.787 71.454C26.6 71.1876 24.9942 70.21 22.9696 68.5211L20.2943 66.0605C20.1919 67.0169 20.1226 67.8644 20.0864 68.6029ZM20.8366 62.5465C20.705 63.2653 20.6025 63.8616 20.5293 64.3353C21.1981 65.0556 22.108 65.7215 23.2589 66.3329C24.4459 66.9685 25.3678 67.253 26.0245 67.1864C24.6748 66.6053 23.4215 65.5762 22.2646 64.0992C21.9031 63.6391 21.5717 63.1609 21.2704 62.6646L20.927 62.0562L20.8366 62.5465ZM21.9845 57.371C21.9872 57.375 21.9872 57.378 21.9845 57.38L22.7708 58.052C23.4276 58.4999 24.1054 58.7148 24.8044 58.6966C24.1476 58.3576 23.53 57.8431 22.9516 57.153L22.2918 56.2269C22.2328 56.4461 22.1726 56.664 22.111 56.8806L21.9845 57.371ZM26.7566 53.4484L26.5126 53.3122C26.5194 53.4065 26.5254 53.4973 26.5307 53.5846C27.1788 54.4126 27.8175 55.5961 28.4468 57.1349C28.8384 58.0852 29.1457 58.9539 29.3687 59.7408C29.8688 57.7796 29.4681 56.0786 28.1666 54.6379C27.7629 54.1899 27.2929 53.7935 26.7566 53.4484ZM54.043 67.9582C53.9688 68.2977 53.8905 68.6216 53.808 68.9297C56.3588 67.4083 59.1305 66.5821 62.1232 66.4509C63.8465 66.3722 65.2835 66.4963 66.4344 66.8232C62.7649 64.6682 59.3665 64.4987 56.2393 66.3147C55.4029 66.8013 54.6708 67.3492 54.043 67.9582ZM51.3225 70.3735C51.3306 70.346 51.3397 70.3187 51.3496 70.2917C50.5 70.0193 49.4697 69.8892 48.2586 69.9013C45.8484 69.9316 43.7575 70.6761 41.986 72.135L43.152 71.8807C44.098 71.687 44.9867 71.5478 45.8182 71.463C48.4875 71.1846 50.0993 71.4661 50.6537 72.3075C50.876 71.6834 51.099 71.0388 51.3225 70.3735ZM54.5943 57.4708L50.256 59.5592L54.3593 59.1143C54.4597 58.5304 54.538 57.9826 54.5943 57.4708ZM46.3696 67.6404L48.828 67.3771C50.5457 67.2926 51.6333 67.4833 52.0908 67.9491C52.0997 67.9321 52.1057 67.914 52.1088 67.8946C52.2217 67.5406 52.3332 67.1835 52.4432 66.8232L52.5246 66.5508C52.145 66.2965 51.6057 66.1482 50.9067 66.1059C49.5028 66.0332 47.9904 66.5447 46.3696 67.6404ZM36.9698 70.092C37.4217 69.4261 37.967 68.7481 38.6057 68.0581C39.8892 66.684 41.0009 65.9455 41.9408 65.8426C42.2028 65.149 42.4558 64.4468 42.7001 63.736C41.7842 63.9963 40.8562 64.4533 39.9163 65.1071C38.0484 66.4267 37.0662 68.0883 36.9698 70.092ZM46.5774 53.9115C46.1789 54.0489 45.7873 54.2093 45.4025 54.3927C44.8114 54.6741 44.239 55.0101 43.6852 55.4006C41.504 56.9321 40.4556 58.5604 40.5399 60.2856C41.281 59.3413 42.1969 58.3486 43.2875 57.3074C43.8975 56.7283 44.491 56.2107 45.0681 55.7547C45.072 55.754 45.075 55.754 45.0771 55.7547C46.5758 54.576 47.9707 53.8163 49.2618 53.4757C48.4966 53.4091 47.6018 53.5543 46.5774 53.9115ZM61.5989 48.4817C60.8819 47.5071 60.1046 46.5598 59.2671 45.6397L59.0683 46.8019C58.8875 47.7523 58.6736 48.6754 58.4265 49.5713C57.6191 52.4527 56.6129 54.5259 55.4078 55.791C56.7635 55.1857 58.2036 53.7874 59.728 51.5961C60.4873 50.4944 61.1109 49.4563 61.5989 48.4817ZM55.5795 42.1348C54.9354 41.5942 54.2485 41.0706 53.5188 40.564C53.0006 41.6778 52.1902 42.8824 51.0875 44.1778C49.7728 45.7187 48.3358 46.9566 46.7763 47.8915C45.7173 48.5309 44.6026 49.0303 43.4321 49.3897C44.4695 49.497 45.4999 49.4395 46.5232 49.2172C47.698 48.9606 48.8639 48.4884 50.021 47.8007C52.1964 46.5027 54.0492 44.6141 55.5795 42.1348ZM71.6223 69.9195C70.5679 69.5563 69.3206 69.411 67.8805 69.4836C64.9883 69.6349 62.563 70.8063 60.6047 72.9976L61.9243 72.4255C63.0149 72.0018 64.0724 71.6991 65.0967 71.5175C68.3783 70.9258 70.7403 71.6129 72.1827 73.5787C72.1488 72.9978 72.0886 72.4136 72.0019 71.8262C71.9055 71.1846 71.779 70.549 71.6223 69.9195ZM74.5146 69.2748C74.5138 69.2788 74.5138 69.2818 74.5146 69.2839L75.1563 69.2385C75.6745 69.2142 76.1686 69.2233 76.6385 69.2657C78.1268 69.3989 79.0578 69.8256 79.4314 70.546C79.4133 69.523 78.7746 68.6997 77.5152 68.0762C77.1236 67.8825 76.6928 67.7191 76.2228 67.5859L75.6353 67.4497C75.6006 67.5173 75.5645 67.5839 75.5268 67.6495C75.5216 67.6649 75.5156 67.6801 75.5088 67.6949C75.2068 68.2559 74.8754 68.7825 74.5146 69.2748ZM76.4578 65.4794C76.4573 65.4837 76.4573 65.4868 76.4578 65.4884C77.1748 65.0587 77.9581 64.7984 78.8077 64.7076C79.2958 64.6591 80.0309 64.6137 81.013 64.5714C80.296 64.0992 79.3862 63.8752 78.2835 63.8994L76.8464 64.081C76.7801 64.4019 76.6506 64.868 76.4578 65.4794ZM64.8617 53.9751C64.3375 52.8611 63.75 51.7745 63.0993 50.7154C62.9185 52.2045 62.1684 53.9327 60.8488 55.9C59.71 57.601 58.5139 58.9872 57.2606 60.0586C58.9959 59.9618 60.7855 58.9206 62.6293 56.9351C63.5498 55.9379 64.2939 54.9512 64.8617 53.9751ZM66.8592 59.3685C66.8607 59.3621 66.8607 59.356 66.8592 59.3504C66.6664 58.6785 66.5067 58.1518 66.3802 57.7705C66.1934 57.1833 65.9855 56.6022 65.7565 56.0271C65.2805 57.0804 64.6448 58.1791 63.8495 59.3231C62.2527 61.6234 60.6439 63.0187 59.0231 63.509L59.5744 63.6634C60.0504 63.736 60.5716 63.7027 61.138 63.5635C62.9456 63.1277 64.8527 61.7293 66.8592 59.3685ZM77.687 56.018L76.6837 55.8909C76.7922 56.3025 76.8826 56.7384 76.9549 57.1984L77.8949 57.5526C78.6601 57.7826 79.3922 57.8976 80.0911 57.8976C82.3326 57.8794 83.8299 56.6748 84.5831 54.2838L83.9414 52.3861C83.5361 54.3718 82.2074 55.5522 79.9556 55.9272C79.2506 56.0423 78.4944 56.0725 77.687 56.018ZM77.1899 59.5047C77.1949 59.5472 77.1979 59.5895 77.1989 59.6319C77.2096 59.8905 77.2156 60.1538 77.217 60.4218C77.2188 60.577 77.2188 60.7314 77.217 60.8849L85.0712 60.8032C85.1307 60.3861 85.1729 59.9654 85.1977 59.5411C84.1451 59.1011 82.5242 58.9589 80.3352 59.1143L77.1899 59.5047Z" fill="#7E3115"/>
<path d="M34.0686 73.3334C33.7131 72.9399 33.3847 72.5313 33.0834 72.1076L32.74 71.59L32.5592 79.9527C33.3124 79.7771 34.0234 79.5229 34.6922 79.19C35.578 78.7541 36.2227 78.2517 36.6264 77.6827C36.8925 77.3136 37.2118 76.7385 37.5844 75.9575C36.3673 75.4672 35.1953 74.5925 34.0686 73.3334ZM24.7863 49.435C24.6718 49.6166 24.5543 49.8405 24.4338 50.1069L26.0246 56.9259C27.059 61.0141 28.0321 64.2647 28.9439 66.6778C28.8021 65.8954 28.6515 65.1418 28.492 64.4169L27.5972 60.9937C27.1634 59.317 26.9284 58.0337 26.8922 57.1438C26.2326 55.4298 25.6933 53.6925 25.2744 51.9319L24.7863 49.435ZM27.8232 38.7115C27.7867 38.6707 27.7506 38.6284 27.7147 38.5844L26.7115 40.2279H26.7205L28.0762 41.7715C28.1286 41.8258 28.1798 41.8773 28.2299 41.9258C28.9067 40.5655 29.7774 39.5001 30.8419 38.7297C30.7528 38.6668 30.6624 38.6002 30.5708 38.5299C29.7272 38.8931 29.0042 39.1353 28.4016 39.2563C28.1967 39.0929 28.0039 38.9113 27.8232 38.7115ZM54.8836 61.2571C54.9159 60.4871 54.928 59.7547 54.9197 59.0597L54.3594 59.1142C54.0219 61.1057 53.4103 63.5845 52.5246 66.5507L52.4433 66.8231C52.3332 67.1834 52.2217 67.5405 52.1088 67.8945C52.1057 67.9138 52.0997 67.932 52.0908 67.949C52.0935 67.9529 52.0935 67.9559 52.0908 67.958C52.09 67.9693 52.087 67.9784 52.0817 67.9853C52.0765 68.0085 52.0704 68.0297 52.0637 68.0488C52.0515 68.088 52.0395 68.1274 52.0275 68.1669C52.0156 68.2062 52.0036 68.2455 51.9913 68.2849C51.9181 68.5158 51.8428 68.7458 51.7654 68.975C51.721 69.1243 51.6758 69.2726 51.6298 69.4199L51.3496 70.2825V70.2916C51.3397 70.3186 51.3306 70.3458 51.3225 70.3733C51.099 71.0386 50.876 71.6833 50.6537 72.3074C50.4966 72.7441 50.3399 73.1708 50.1837 73.5876C50.0852 73.8931 49.9858 74.1928 49.8854 74.4865V74.4956C49.8606 74.5653 49.8365 74.6349 49.8131 74.7045C49.6349 75.2192 49.4511 75.7216 49.2618 76.2117C47.8829 79.8298 46.2531 82.7989 44.3721 85.1192C44.478 85.1198 44.5804 85.1379 44.6794 85.1736C44.9205 85.2584 45.0892 85.4188 45.1856 85.6549C45.4326 86.2663 45.1313 87.0169 44.2818 87.9067C44.2918 87.9018 44.3008 87.8958 44.3089 87.8885L46.2973 86.127C46.8094 85.437 47.186 84.8861 47.427 84.4745C47.7946 83.8268 48.0808 83.1367 48.2857 82.4043C49.7559 81.0846 51.9642 80.4611 54.9107 80.5338C55.929 80.558 56.9563 80.667 57.9927 80.8607C58.8122 81.012 59.4027 81.1633 59.7642 81.3147C60.0173 81.4236 60.2402 81.4206 60.433 81.3056C60.6018 81.2087 60.7132 81.0574 60.7675 80.8516C60.8277 80.6458 60.8096 80.4642 60.7132 80.3068C60.6168 80.1312 60.4511 80.0435 60.2161 80.0435C59.6136 80.0435 59.1285 80.0314 58.761 80.0072C58.1825 79.9708 57.4022 79.8921 56.4201 79.7711C55.7771 79.6103 55.2017 79.4196 54.6938 79.199C53.0154 79.2615 51.4157 78.6017 49.8945 77.2196L50.6808 77.5919C51.3617 77.8643 52.0878 78.0519 52.859 78.1548C52.9182 78.163 52.9755 78.1691 53.0307 78.173C52.4033 77.605 52.0267 76.927 51.901 76.1391C51.7262 75.0374 52.1179 73.3697 53.0759 71.136C53.3451 70.5129 53.5892 69.7775 53.808 68.9296C53.418 69.1651 53.0324 69.4163 52.6511 69.6832C53.037 69.0624 53.501 68.4874 54.043 67.958C54.1257 67.5862 54.204 67.1957 54.278 66.7867C54.5974 65.0252 54.7992 63.182 54.8836 61.2571ZM50.5452 35.7515C50.5393 35.7701 50.5333 35.7882 50.5272 35.8059C50.0451 37.2103 49.3883 38.3907 48.5568 39.3471L48.0959 39.1564C47.962 40.2765 47.8174 41.3782 47.6621 42.4616L47.9242 42.2436C49.5557 40.7134 50.6764 39.3212 51.2864 38.0669L50.5452 35.7515ZM85.3333 60.8031H85.0712C84.5473 64.7267 82.7728 68.5373 79.7477 72.2347C78.41 73.8752 76.973 75.3007 75.4365 76.5114C74.147 77.5404 73.2643 78.0822 72.7883 78.1367C73.1257 77.1137 73.2432 75.6367 73.1408 73.7057L72.8787 71.1088C72.6617 71.3086 72.4509 71.4871 72.246 71.6445L72.002 71.8261C72.0886 72.4135 72.1489 72.9976 72.1827 73.5785C72.3276 76.1998 71.9269 78.7755 70.9806 81.3056C75.4395 79.9678 79.0096 77.1227 81.6909 72.7704C82.884 70.8334 83.7968 68.7329 84.4295 66.4689C84.9575 64.5758 85.2588 62.6872 85.3333 60.8031Z" fill="#D25305"/>
<path d="M21.9845 57.38C21.9726 57.4338 21.9575 57.4882 21.9393 57.5434C21.5476 59.087 21.2102 60.5913 20.927 62.0562L21.2704 62.6645C21.5717 63.1609 21.9031 63.6391 22.2647 64.0992C23.4215 65.5762 24.6748 66.6052 26.0246 67.1863C25.3678 67.2529 24.4459 66.9684 23.2589 66.3328C22.108 65.7214 21.1981 65.0556 20.5293 64.3352C20.5269 64.3595 20.5239 64.3837 20.5203 64.4079C20.4419 64.8921 20.3666 65.443 20.2943 66.0604L22.9696 68.5211C24.9942 70.21 26.6 71.1876 27.787 71.4539C26.4493 71.8111 24.7592 71.5296 22.7166 70.6095C22.0839 70.325 21.4512 69.992 20.8185 69.6107L20.0593 69.1204L19.978 71.5447L22.7798 73.17C24.9068 74.2838 26.6211 74.9073 27.9226 75.0405C27.3622 75.2281 26.609 75.3099 25.663 75.2857C23.765 75.2312 21.8519 74.6712 19.9238 73.6059C19.9148 74.4489 19.9208 75.1329 19.9418 75.6579C19.972 76.3601 20.0503 77.0653 20.1768 77.7736C19.6165 77.8825 18.7187 78.3335 17.4834 79.1265C16.2181 79.9376 15.1215 80.779 14.1935 81.6507L14.058 82.1047C13.9977 82.4679 14.0399 82.7978 14.1845 83.0944C14.6424 84.0448 16.0373 84.4806 18.3692 84.4019C20.9963 84.3172 23.3191 83.8269 25.3376 82.931C27.0971 82.1501 28.4498 81.1574 29.3958 79.9528C30.1249 79.0266 30.2333 76.3692 29.7212 71.9806C29.5008 70.0866 29.2417 68.3191 28.9439 66.6779C28.0321 64.2648 27.059 61.0141 26.0246 56.926L24.4338 50.1069C23.7469 51.5234 23.0329 53.5634 22.2918 56.2268L22.9516 57.153C23.53 57.8431 24.1476 58.3576 24.8044 58.6966C24.1054 58.7147 23.4276 58.4998 22.7708 58.0519L21.9845 57.38ZM26.7024 47.61C26.0656 46.9824 25.5113 46.2288 25.0394 45.3491C24.7428 46.8679 24.6584 48.2299 24.7863 49.435L25.2744 51.932C25.6933 53.6926 26.2326 55.4299 26.8922 57.1439C26.7102 56.0054 26.5897 54.819 26.5307 53.5846C26.3771 53.394 26.2235 53.2215 26.0697 53.067L26.5126 53.3122C26.4653 52.123 26.4743 50.8912 26.5397 49.6166C26.5755 48.9196 26.6298 48.2507 26.7024 47.61ZM28.2299 41.9259C28.1798 41.8773 28.1285 41.8259 28.0762 41.7715L26.7205 40.228C26.4489 40.7861 26.1958 41.3854 25.9613 42.0258L26.1963 42.8611C26.4072 43.5512 26.6512 44.2262 26.9284 44.886C26.9831 45.0185 27.0374 45.1487 27.0911 45.2764C27.3748 44.0119 27.7544 42.8951 28.2299 41.9259ZM51.2954 38.1033L51.2864 38.0669C50.6764 39.3212 49.5557 40.7135 47.9241 42.2437L47.662 42.4616C47.3948 44.3181 47.0996 46.1281 46.7763 47.8914C48.3358 46.9565 49.7728 45.7186 51.0875 44.1777C52.1902 42.8823 53.0006 41.6777 53.5188 40.5639C53.0609 40.2491 52.627 39.9677 52.2173 39.7195L51.7292 39.438L51.2954 38.1033ZM33.1015 5.4699C31.7337 4.48321 30.2062 3.57522 28.5191 2.74592C26.5186 1.76528 24.6959 1.10245 23.051 0.757407C18.7187 -0.138482 16.432 1.31128 16.191 5.1067L17.2756 5.8331C16.7513 6.43843 16.3838 7.48262 16.1729 8.96568C16.0644 9.71024 16.0102 10.3912 16.0102 11.0087L19.1103 11.0632L17.9534 15.5123L18.1523 15.7484C18.321 15.9361 18.5138 16.0995 18.7307 16.2387C19.4116 16.6806 20.1648 16.7865 20.9903 16.5565C21.3277 15.9936 22.0507 15.5729 23.1594 15.2944C24.3224 14.9978 25.3166 15.025 26.142 15.3761C26.8229 15.6788 27.2086 16.5717 27.2989 18.0547C27.3411 18.7993 27.317 19.5105 27.2266 20.1885L27.1182 21.0602C27.0579 21.7684 27.0639 22.4555 27.1362 23.1213C27.3773 25.2581 28.251 26.7624 29.7573 27.6341C31.3059 28.53 31.9235 29.4985 31.6102 30.5396C31.4354 31.1268 30.9685 31.7049 30.2092 32.2739C30.0164 32.4192 29.8266 32.74 29.6398 33.2364C29.441 33.7751 29.3175 34.3472 29.2693 34.9525C29.1427 36.5748 29.5766 37.7673 30.5708 38.53C30.6624 38.6003 30.7528 38.6669 30.8419 38.7298C31.3161 39.065 31.7951 39.3313 32.279 39.5288C33.3575 39.9586 34.4693 40.0494 35.6141 39.8012C36.5541 39.5954 37.5543 39.1444 38.6148 38.4483C38.9341 38.7328 39.377 39.0203 39.9434 39.3109C40.7388 39.7165 41.5311 39.9707 42.3204 40.0736C43.3725 40.214 44.3305 40.0778 45.1946 39.665C45.2132 39.6599 45.2283 39.6539 45.2398 39.6468L46.704 38.5845C47.1423 38.148 47.549 37.6183 47.9241 36.9955C48.5508 35.8877 48.6141 34.7891 48.1139 33.6995C47.8127 33.0397 47.2674 32.3496 46.478 31.6292C45.9719 31.1631 45.7911 30.5548 45.9357 29.8042C46.0864 29.0294 46.5383 28.3968 47.2915 27.9065C50.4428 25.8604 51.3767 23.2273 50.0933 20.0069C49.6715 18.9476 49.6324 18.0123 49.9758 17.2012C50.2771 16.499 50.8224 15.9694 51.6117 15.6122C52.3348 15.2853 53.091 15.1703 53.8803 15.2672C54.6938 15.3701 55.2993 15.6788 55.697 16.1933C56.4863 16.272 57.2666 16.0965 58.0379 15.6667C58.4235 15.4548 58.7278 15.2339 58.9508 15.0039L57.7758 10.3731L58.6163 10.4003C59.3093 10.4003 59.9932 10.361 60.668 10.2823C60.7463 8.99898 60.5596 7.78226 60.1076 6.63213C59.963 6.26894 59.8034 5.93601 59.6286 5.63334L59.4027 5.2883L59.7552 5.14302C60.0384 5.0038 60.3125 4.84036 60.5776 4.65271C60.656 1.46262 58.9508 -0.0870302 55.462 0.00376935C54.2449 0.0279826 52.8711 0.258009 51.3406 0.693846C50.2379 1.00862 49.2497 1.35971 48.376 1.74712C47.2674 2.24349 46.3033 2.8004 45.4838 3.41783C44.9114 3.84762 44.2185 4.47111 43.405 5.2883C39.9163 4.22292 36.4818 4.28345 33.1015 5.4699ZM27.5339 6.2871L28.4558 7.69449L26.1692 10.0734C25.8076 10.473 25.4732 10.8513 25.1659 11.2084C24.8285 11.5958 24.5242 11.9621 24.2531 12.3071C23.6626 13.0638 23.2257 13.7054 22.9425 14.2321L22.0839 13.3604C21.403 12.6279 20.8065 11.8803 20.2943 11.1176C18.6494 8.68421 18.1221 6.55647 18.7126 4.73443C18.8211 4.40755 18.9657 4.09278 19.1465 3.79011C20.0985 2.71868 21.1409 2.22836 22.2737 2.31916C23.1956 2.3918 24.1597 2.84579 25.1659 3.68115C25.1719 3.6872 25.178 3.69326 25.184 3.69931C25.9794 4.35912 26.7627 5.22172 27.5339 6.2871ZM33.6438 25.9997C32.758 26.3326 31.8662 26.266 30.9684 25.7999C30.1008 25.352 29.4199 24.6347 28.9258 23.648C28.3956 22.6068 28.1967 21.4869 28.3293 20.2884C28.4799 18.9385 29.0463 17.6643 30.0285 16.4657C32.3242 15.0311 33.948 15.0704 34.9001 16.5838C35.3761 17.3404 35.6201 18.2393 35.6322 19.2805L34.7283 25.2733C34.6078 25.4549 34.2463 25.697 33.6438 25.9997ZM57.6854 3.29071C57.8662 3.59338 58.0108 3.90815 58.1192 4.23503C58.7097 6.05707 58.1825 8.18481 56.5376 10.6182C56.0254 11.381 55.4289 12.1285 54.748 12.861L53.8894 13.7327C53.6086 13.2042 53.1687 12.5595 52.5698 11.7986C52.3023 11.4593 52.0011 11.0931 51.666 10.7C51.3588 10.3464 51.0244 9.97105 50.6627 9.57404L48.376 7.19509L49.2979 5.7877C50.0693 4.72449 50.8526 3.85887 51.6479 3.19083C51.6538 3.18991 51.6598 3.18688 51.666 3.18175C52.6722 2.3464 53.6363 1.8924 54.5582 1.81976C55.691 1.72896 56.7334 2.21928 57.6854 3.29071ZM42.5916 16.4566C43.5436 14.9433 45.1675 14.904 47.4632 16.3386C48.4453 17.5372 49.0117 18.8114 49.1624 20.1613C49.2949 21.3598 49.0961 22.4797 48.5659 23.5208C48.0718 24.5075 47.3909 25.2249 46.5232 25.6728C45.6254 26.1389 44.7336 26.2055 43.8479 25.8726C43.2454 25.5699 42.8838 25.3278 42.7633 25.1462L41.8595 19.1534C41.8715 18.1122 42.1156 17.2133 42.5916 16.4566ZM34.8368 30.358L35.6231 34.6983C35.8323 34.7086 36.0462 34.8388 36.2648 35.0887C36.5661 35.4277 37.0632 35.6971 37.7561 35.8968C38.1056 35.9937 38.422 36.0572 38.7052 36.0875C39.386 36.0875 39.9675 35.9755 40.4495 35.7515C40.7327 35.6123 41.0852 35.3611 41.507 34.9979C41.628 34.8937 41.7425 34.8271 41.8505 34.7981L42.6097 30.358L42.5012 35.3157C42.5193 35.4731 42.459 35.6547 42.3204 35.8605C42.2698 35.934 42.2095 36.0096 42.1397 36.0875C41.7842 36.481 41.4528 36.7867 41.1455 37.0046C40.7478 37.283 40.3109 37.4798 39.8349 37.5948C39.8171 37.5991 39.799 37.6021 39.7807 37.6039C39.4468 37.6825 39.0883 37.7219 38.7052 37.7219C38.3699 37.7219 38.0385 37.6735 37.711 37.5766C37.3006 37.4596 36.8969 37.2659 36.4998 36.9955C35.9937 36.6505 35.5538 36.2267 35.1803 35.7243L35.1441 35.6698C35.0236 35.4822 34.9754 35.3187 34.9995 35.1795L34.8368 30.358ZM76.8464 64.081L78.2835 63.8994C79.3862 63.8752 80.296 64.0992 81.013 64.5713C80.0309 64.6137 79.2958 64.6591 78.8077 64.7075C77.9581 64.7983 77.1748 65.0586 76.4578 65.4884C76.126 66.3728 75.8519 67.0266 75.6353 67.4497L76.2228 67.5859C76.6928 67.719 77.1236 67.8825 77.5152 68.0762C78.7746 68.6997 79.4133 69.5229 79.4314 70.5459C79.0578 69.8256 78.1268 69.3988 76.6385 69.2656C76.1686 69.2233 75.6745 69.2142 75.1563 69.2384L74.5146 69.2838C74.0228 69.9513 73.4775 70.5596 72.8787 71.1089L73.1408 73.7057C73.2432 75.6367 73.1257 77.1138 72.7883 78.1368C73.2643 78.0823 74.147 77.5405 75.4365 76.5115C76.973 75.3008 78.41 73.8752 79.7477 72.2348C82.7728 68.5373 84.5473 64.7268 85.0712 60.8031L77.217 60.8849C77.1989 62.0289 77.0754 63.0943 76.8464 64.081ZM67.9619 62.1651L67.3653 61.4206C67.2278 60.7659 67.0591 60.0819 66.8592 59.3685C64.8527 61.7293 62.9457 63.1276 61.138 63.5634C60.5716 63.7027 60.0504 63.736 59.5744 63.6633L59.0231 63.509C60.6439 63.0186 62.2527 61.6234 63.8495 59.3231C64.6448 58.179 65.2805 57.0803 65.7565 56.0271C65.5035 55.3733 65.2052 54.6893 64.8617 53.975C64.2939 54.9511 63.5498 55.9378 62.6293 56.9351C60.7855 58.9206 58.9959 59.9617 57.2606 60.0586C58.5139 58.9871 59.71 57.6009 60.8488 55.9C62.1684 53.9326 62.9185 52.2044 63.0993 50.7153C62.5932 49.8981 62.093 49.1536 61.599 48.4816C61.1109 49.4562 60.4873 50.4944 59.728 51.5961C58.2036 53.7874 56.7635 55.1857 55.4078 55.791C56.6129 54.5259 57.6191 52.4526 58.4265 49.5712C58.6736 48.6753 58.8875 47.7522 59.0683 46.8018L59.2671 45.6396C58.1222 44.3866 56.9051 43.2274 55.6157 42.162C55.6055 42.1535 55.5935 42.1444 55.5795 42.1347C54.0492 44.614 52.1964 46.5027 50.021 47.8006C48.8639 48.4884 47.698 48.9606 46.5232 49.2171C46.1821 50.9861 45.8085 52.7113 45.4025 54.3927C45.7873 54.2093 46.1789 54.0489 46.5774 53.9114C47.6018 53.5543 48.4966 53.409 49.2618 53.4756C47.9707 53.8162 46.5758 54.5759 45.0771 55.7547C44.3781 58.5089 43.5858 61.1694 42.7001 63.736C42.4558 64.4468 42.2028 65.149 41.9408 65.8425C41.0194 68.3193 40.0011 70.6922 38.8859 72.9612L38.0996 74.8498C37.9194 75.2572 37.7477 75.6264 37.5844 75.9576C37.2118 76.7386 36.8925 77.3136 36.6264 77.6828C36.2227 78.2518 35.5779 78.7542 34.6922 79.19C34.0234 79.523 33.3124 79.7772 32.5592 79.9528C32.3356 80.0046 32.0795 80.0984 31.7909 80.2342C31.5743 80.3344 31.3393 80.4584 31.086 80.6065C30.3508 81.0302 29.8055 81.4782 29.45 81.9503C28.4197 83.3244 29.215 84.5351 31.8361 85.5823C34.4391 86.6235 37.1024 86.9262 39.8259 86.4903C41.1997 86.2724 42.5735 85.8487 43.9473 85.2191C44.0938 85.1526 44.2354 85.1193 44.3721 85.1192C46.253 82.799 47.8829 79.8298 49.2618 76.2118C48.605 75.4915 46.719 75.3129 43.6039 75.6761C42.6277 75.7911 41.5914 75.9545 40.4947 76.1664L39.139 76.4479C40.8322 75.0859 43.1309 74.3534 46.0352 74.2505C47.4873 74.1961 48.7707 74.2778 49.8854 74.4957V74.4866C49.9857 74.1929 50.0852 73.8932 50.1837 73.5877C50.3399 73.1709 50.4966 72.7441 50.6537 72.3074C50.0993 71.466 48.4875 71.1845 45.8182 71.463C44.9867 71.5477 44.098 71.687 43.152 71.8807L41.986 72.1349C43.7575 70.6761 45.8484 69.9315 48.2586 69.9012C49.4697 69.8891 50.5 70.0193 51.3496 70.2917V70.2826L51.6298 69.42C51.6758 69.2727 51.721 69.1244 51.7654 68.9751C51.8427 68.7459 51.9181 68.5159 51.9913 68.285C52.0035 68.2456 52.0156 68.2063 52.0275 68.167C52.0394 68.1275 52.0515 68.0881 52.0636 68.0489C52.0704 68.0298 52.0764 68.0086 52.0817 67.9854C52.087 67.9785 52.09 67.9694 52.0908 67.9581C52.0935 67.956 52.0935 67.953 52.0908 67.9491C51.6333 67.4832 50.5457 67.2926 48.828 67.377L46.3696 67.6403C47.9904 66.5447 49.5028 66.0332 50.9067 66.1058C51.6057 66.1482 52.145 66.2965 52.5246 66.5507C53.4103 63.5846 54.0219 61.1058 54.3593 59.1143L50.256 59.5592L54.5943 57.4708C54.6666 56.8189 54.7028 56.2287 54.7028 55.7002C54.7691 56.2753 54.8203 56.8231 54.8564 57.3437C54.8927 57.8878 54.9138 58.4598 54.9197 59.0598C54.9279 59.7547 54.9159 60.4872 54.8836 61.2571C54.7992 63.1821 54.5974 65.0253 54.278 66.7868C54.204 67.1958 54.1256 67.5863 54.043 67.9581C54.6708 67.3491 55.4029 66.8013 56.2393 66.3147C59.3665 64.4987 62.7649 64.6682 66.4344 66.8231C65.2835 66.4963 63.8465 66.3722 62.1232 66.4509C59.1305 66.582 56.3588 67.4083 53.808 68.9297C53.5892 69.7776 53.3451 70.513 53.0759 71.1361C52.1179 73.3698 51.7262 75.0375 51.9009 76.1392C52.0267 76.9271 52.4032 77.605 53.0307 78.1731C55.4268 78.4658 57.8008 77.921 60.1528 76.5387C59.3274 77.4527 58.2789 78.167 57.0075 78.6816C56.2206 79.0008 55.4493 79.1733 54.6938 79.1991C55.2016 79.4197 55.7771 79.6104 56.4201 79.7712C57.4022 79.8922 58.1825 79.9709 58.761 80.0072C59.1285 80.0314 59.6136 80.0436 60.2161 80.0436C60.4511 80.0436 60.6168 80.1313 60.7132 80.3069C60.8096 80.4642 60.8277 80.6459 60.7674 80.8517C60.7132 81.0575 60.6017 81.2088 60.433 81.3057C60.2402 81.4207 60.0173 81.4237 59.7642 81.3148C59.4027 81.1634 58.8122 81.0121 57.9927 80.8607C56.9563 80.667 55.929 80.5581 54.9107 80.5339C51.9642 80.4612 49.7559 81.0847 48.2857 82.4043C48.4544 83.5424 49.6324 84.2203 51.8196 84.4382C53.6996 84.6198 55.9862 84.4564 58.6796 83.9479C60.8307 83.5424 62.1292 83.8571 62.5751 84.8922C62.7438 85.2918 62.7317 85.7094 62.5389 86.1453C62.3461 86.5811 62.0388 86.8959 61.617 87.0896C64.0091 86.5872 65.7144 86.2028 66.7327 85.9364C67.751 85.6701 68.7632 84.8166 69.7695 83.3759C70.2756 82.6616 70.6794 81.9715 70.9806 81.3057C71.9269 78.7755 72.3276 76.1999 72.1827 73.5786C70.7403 71.6128 68.3783 70.9258 65.0967 71.5175C64.0724 71.6991 63.0149 72.0017 61.9243 72.4255L60.6048 72.9975C62.563 70.8062 64.9883 69.6349 67.8805 69.4836C69.3206 69.4109 70.5679 69.5562 71.6223 69.9194C71.1403 67.9763 70.3781 66.0967 69.3357 64.2807C69.0241 63.7373 68.6987 63.2198 68.3595 62.7281C68.2303 62.537 68.0977 62.3493 67.9619 62.1651ZM76.9549 57.1984C77.0778 57.9217 77.1561 58.6875 77.1899 59.4956C77.193 59.5002 77.193 59.5032 77.1899 59.5047L80.3352 59.1143C82.5242 58.9588 84.1451 59.1011 85.1977 59.541C85.2428 58.9197 85.2549 58.2931 85.2339 57.6615C85.2321 57.648 85.2291 57.6329 85.2248 57.6161C85.2259 57.5982 85.2259 57.58 85.2248 57.5616L84.5831 54.2837C83.8299 56.6748 82.3326 57.8794 80.0911 57.8975C79.3922 57.8975 78.6601 57.7825 77.8949 57.5525L76.9549 57.1984ZM83.9414 52.386V52.3769C83.5032 51.2696 82.964 50.183 82.3236 49.1172C82.0645 48.6814 81.7331 48.1759 81.3294 47.6009L81.5915 48.3545C81.7722 48.972 81.8897 49.5682 81.944 50.1433C82.1067 51.9774 81.5855 53.2547 80.3804 53.975C79.3801 54.5622 78.4402 54.7347 77.5604 54.4926C76.8449 54.2993 76.152 53.8271 75.4816 53.0761C75.9938 53.8509 76.3945 54.7892 76.6837 55.8909L77.687 56.018C78.4944 56.0725 79.2506 56.0422 79.9556 55.9272C82.2074 55.5522 83.5361 54.3718 83.9414 52.386Z" fill="#E17008"/>
<path d="M54.8565 57.3438L54.5944 57.4709C54.538 57.9826 54.4597 58.5305 54.3594 59.1143L54.9197 59.0599C54.9139 58.4599 54.8928 57.8879 54.8565 57.3438Z" fill="#78250D"/>
<path d="M35.1441 35.6697L35.1803 35.7242C35.5538 36.2266 35.9937 36.6504 36.4998 36.9954C36.8969 37.2658 37.3006 37.4595 37.711 37.5765C37.6406 37.0716 37.2158 36.5632 36.4366 36.0511C35.6628 35.5384 35.232 35.4113 35.1441 35.6697ZM42.1397 36.0874C42.2095 36.0095 42.2698 35.9339 42.3204 35.8604C41.8264 35.8422 41.2901 36.0299 40.7116 36.4234C40.1299 36.815 39.8196 37.2085 39.7807 37.6038C39.799 37.602 39.8171 37.599 39.8349 37.5947C40.3109 37.4797 40.7478 37.2829 41.1455 37.0045C41.4528 36.7866 41.7842 36.4809 42.1397 36.0874Z" fill="#BA3612"/>
<path d="M42.5013 35.3158L42.6097 30.3582L41.8505 34.7983C42.0432 34.7451 42.215 34.8117 42.3657 34.998C42.444 35.0949 42.4892 35.2008 42.5013 35.3158ZM35.6232 34.6984L34.8369 30.3582L34.9995 35.1796C35.0176 35.0404 35.102 34.9223 35.2526 34.8255C35.3744 34.7416 35.498 34.6993 35.6232 34.6984Z" fill="#D35405"/>
<path d="M35.6231 34.6982C35.4979 34.6991 35.3744 34.7415 35.2526 34.8254C35.1019 34.9222 35.0176 35.0403 34.9995 35.1795C34.9754 35.3187 35.0236 35.4821 35.1441 35.6698C35.232 35.4113 35.6628 35.5385 36.4366 36.0512C37.2158 36.5632 37.6406 37.0717 37.711 37.5766C38.0385 37.6734 38.3699 37.7219 38.7052 37.7219C39.0883 37.7219 39.4468 37.6825 39.7807 37.6038C39.8196 37.2085 40.1299 36.8151 40.7116 36.4234C41.2901 36.03 41.8264 35.8423 42.3204 35.8605C42.459 35.6547 42.5193 35.4731 42.5012 35.3157C42.4892 35.2007 42.444 35.0947 42.3656 34.9979C42.2149 34.8115 42.0432 34.7449 41.8505 34.7981C41.7425 34.8271 41.628 34.8937 41.507 34.9979C41.0852 35.3611 40.7327 35.6123 40.4495 35.7515C39.9675 35.9755 39.386 36.0875 38.7052 36.0875C38.422 36.0572 38.1056 35.9936 37.7561 35.8968C37.0632 35.697 36.5661 35.4277 36.2648 35.0887C36.0462 34.8387 35.8323 34.7086 35.6231 34.6982Z" fill="#FF5E26"/>
<path d="M54.7751 3.72664C54.3427 3.41102 53.8426 3.2052 53.2748 3.1092C52.6996 3.00686 52.1573 3.0341 51.6479 3.19092C50.8526 3.85896 50.0692 4.72458 49.2979 5.78779L48.376 7.19518L50.6627 9.57413C51.0244 9.97114 51.3588 10.3464 51.6659 10.7C52.1776 6.81682 53.214 4.49236 54.7751 3.72664ZM28.4558 7.69458L27.5339 6.28719C26.7627 5.22181 25.9793 4.35921 25.184 3.6994C24.6718 3.53596 24.1295 3.50569 23.5571 3.6086C22.9907 3.70545 22.4906 3.91429 22.0568 4.23512C23.6174 4.99178 24.6537 7.31625 25.1659 11.2085C25.4732 10.8514 25.8076 10.473 26.1691 10.0735L28.4558 7.69458Z" fill="#723F2C"/>
<path d="M54.8655 3.7992C54.8352 3.77527 54.8051 3.75106 54.7751 3.72656C53.214 4.49228 52.1776 6.81675 51.666 10.7C52.0011 11.0931 52.3023 11.4593 52.5698 11.7986C53.4254 11.3325 54.2178 10.5153 54.9468 9.34706C55.3144 8.76594 55.5946 8.23022 55.7874 7.7399C56.2815 6.0026 55.9742 4.68904 54.8655 3.7992ZM21.9664 4.2986C20.8577 5.18844 20.5504 6.502 21.0445 8.2393C21.2373 8.72962 21.5175 9.26534 21.8851 9.84645C22.6141 11.0147 23.4035 11.835 24.2531 12.3071C24.5242 11.9621 24.8285 11.5959 25.1659 11.2084C24.6538 7.31617 23.6174 4.9917 22.0568 4.23504C22.0267 4.2532 21.9965 4.27439 21.9664 4.2986Z" fill="#7A5546"/>
<path d="M54.7751 3.72656C54.8051 3.75106 54.8353 3.77527 54.8655 3.7992C55.9742 4.68904 56.2815 6.00261 55.7874 7.7399C55.5946 8.23022 55.3144 8.76594 54.9469 9.34706C54.2178 10.5153 53.4254 11.3325 52.5698 11.7986C53.1688 12.5596 53.6086 13.2042 53.8894 13.7327L54.748 12.861C55.4289 12.1285 56.0254 11.381 56.5376 10.6182C58.1825 8.18482 58.7098 6.05708 58.1193 4.23504C57.2757 3.55102 56.3749 3.30889 55.4168 3.50864C55.1934 3.55511 54.9795 3.62775 54.7751 3.72656ZM22.0568 4.23504C21.8519 4.13213 21.638 4.05647 21.4151 4.00804C20.457 3.80828 19.5562 4.05041 18.7127 4.73444C18.1222 6.55648 18.6494 8.68422 20.2944 11.1176C20.8065 11.8804 21.403 12.6279 22.0839 13.3604L22.9426 14.2321C23.2257 13.7054 23.6626 13.0638 24.2531 12.3071C23.4035 11.835 22.6142 11.0147 21.8851 9.84645C21.5175 9.26534 21.2373 8.72962 21.0445 8.2393C20.5504 6.502 20.8577 5.18844 21.9664 4.2986C21.9966 4.27439 22.0267 4.2532 22.0568 4.23504Z" fill="#EEBD9F"/>
<path d="M58.1193 4.23499C58.0108 3.90811 57.8662 3.59334 57.6854 3.29068C56.7334 2.21924 55.691 1.72892 54.5582 1.81972C53.6363 1.89236 52.6722 2.34636 51.666 3.18172C51.6598 3.18685 51.6538 3.18987 51.6479 3.1908C52.1573 3.03398 52.6996 3.00674 53.2748 3.10908C53.8426 3.20508 54.3427 3.41089 54.7751 3.72651C54.9794 3.6277 55.1933 3.55506 55.4168 3.50859C56.3749 3.30884 57.2757 3.55097 58.1193 4.23499ZM22.0568 4.23499C22.4906 3.91417 22.9907 3.70533 23.5571 3.60847C24.1295 3.50557 24.6718 3.53583 25.184 3.69927C25.178 3.69322 25.172 3.68717 25.1659 3.68111C24.1597 2.84576 23.1956 2.39176 22.2737 2.31912C21.1409 2.22832 20.0985 2.71864 19.1465 3.79007C18.9657 4.09274 18.8211 4.40751 18.7126 4.73439C19.5562 4.05036 20.457 3.80823 21.4151 4.00799C21.638 4.05642 21.8519 4.13208 22.0568 4.23499Z" fill="#DE8C63"/>
<path d="M52.091 18.3901C52.79 19.177 53.3534 20.0547 53.7812 21.0233C54.2271 22.0402 54.6278 23.375 54.9833 25.0275C55.8509 22.5699 55.628 20.7267 54.3144 19.4978C53.6577 18.8804 52.9165 18.5111 52.091 18.3901ZM50.889 23.838C50.5756 25.0063 50.1117 25.8871 49.4971 26.4803C48.8644 27.0978 47.9124 27.5639 46.641 27.8786C49.0331 28.5808 50.4581 28.1177 50.9161 26.4894C51.0607 25.9809 51.0998 25.3877 51.0336 24.7097L50.889 23.838ZM51.3861 21.4319C50.892 21.0808 50.5094 20.9113 50.2382 20.9234C50.0032 20.9355 49.8917 21.0717 49.9038 21.332C49.9158 21.5862 50.0364 21.8677 50.2653 22.1764C50.5184 22.5154 50.8317 22.7817 51.2053 22.9755C51.8922 23.3326 52.2417 24.0166 52.2537 25.0275C52.2658 25.7055 52.1423 26.4137 51.8832 27.1522C52.3411 26.6922 52.6635 26.108 52.8502 25.3998C53.2299 23.9833 52.7418 22.6607 51.3861 21.4319ZM46.415 17.4821C46.8911 16.4288 46.7555 15.8537 46.0083 15.7569C45.689 15.7145 45.3787 15.8447 45.0774 16.1473C44.6556 16.5711 44.514 17.2127 44.6526 18.0723C44.7912 18.95 45.1286 19.4918 45.6649 19.6976C46.0264 19.8429 46.4572 19.8308 46.9573 19.6613C47.5418 19.4676 47.9997 19.2042 48.3311 18.8713C48.8373 18.3628 48.8764 17.7938 48.4486 17.1643C48.2619 17.0008 48.0419 16.9978 47.7888 17.1552C47.578 17.2823 47.3912 17.4821 47.2285 17.7545C47.0357 18.0753 46.7826 18.2751 46.4693 18.3538C46.1318 18.4325 46.1138 18.1419 46.415 17.4821ZM39.772 13.9772C39.3743 13.6503 39.1152 13.3507 38.9947 13.0783L39.2749 14.0226C39.5761 14.8338 40.01 15.6842 40.5764 16.5741C41.2512 17.6334 41.667 18.381 41.8236 18.8168C41.9803 19.2406 42.0918 19.9306 42.158 20.8871C42.4111 20.3544 42.5587 19.9337 42.6009 19.625C42.6551 19.1952 42.5979 18.6019 42.4292 17.8453C42.2665 17.1189 42.0466 16.5317 41.7694 16.0838C41.6368 15.8659 41.3295 15.4845 40.8475 14.9397C40.6728 14.7399 40.3142 14.4191 39.772 13.9772ZM37.5486 13.9591C37.0063 14.401 36.6477 14.7218 36.473 14.9215C35.991 15.4663 35.6837 15.8477 35.5511 16.0656C35.2739 16.5136 35.054 17.1007 34.8913 17.8271C34.7226 18.5838 34.6654 19.177 34.7196 19.6068C34.7618 19.9155 34.9094 20.3362 35.1625 20.8689C35.2287 19.9125 35.3402 19.2224 35.4969 18.7987C35.6535 18.3628 36.0693 17.6153 36.7442 16.5559C37.3105 15.6661 37.7444 14.8156 38.0457 14.0045L38.3258 13.0601C38.2053 13.3325 37.9462 13.6322 37.5486 13.9591ZM41.679 12.4518C41.1729 11.7799 40.8957 11.3682 40.8475 11.2169C41.2211 11.4469 41.7604 11.6285 42.4653 11.7617C43.0799 11.8767 43.5951 11.9221 44.0109 11.8979C44.3483 11.8797 44.7761 12.1461 45.2943 12.6969C45.7643 13.1994 46.1499 13.7502 46.4512 14.3495C46.6741 14.8035 46.885 14.9336 47.0839 14.7399L47.3098 14.3041C47.2074 13.7714 46.8489 13.1782 46.2343 12.5244C45.5474 11.792 44.8062 11.3107 44.0109 11.0807C43.089 10.8144 42.3268 10.5238 41.7242 10.209C41.0494 9.864 40.6366 9.51896 40.486 9.17392C40.3112 8.76835 40.0823 8.59886 39.7991 8.66545C39.4918 8.73203 39.3291 9.08312 39.311 9.71872C39.2869 10.4935 39.5189 11.4651 40.0069 12.6334C40.5613 13.9409 41.203 14.8459 41.9321 15.3483C42.6491 15.8386 43.0438 15.9264 43.1161 15.6116C43.1763 15.3755 43.0528 14.8943 42.7455 14.1679C42.5648 13.7321 42.2093 13.16 41.679 12.4518ZM41.7694 8.02985L41.444 8.24777L42.6642 9.01957C42.6883 8.88639 42.6943 8.74111 42.6823 8.58373C42.6582 8.27501 42.5618 8.07222 42.393 7.97537C42.2243 7.87852 42.0164 7.89668 41.7694 8.02985ZM39.7268 7.33977L40.8113 7.92997C40.8415 7.83312 40.8596 7.72416 40.8656 7.60309C40.8716 7.36701 40.8113 7.20055 40.6848 7.1037C40.5583 7.00684 40.3594 7.01592 40.0883 7.13093L39.7268 7.33977ZM37.5576 7.11278C37.3708 7.09462 37.1539 7.09462 36.9068 7.11278C36.4188 7.15515 36.0331 7.27319 35.75 7.46689C35.4668 7.6606 35.2016 7.98445 34.9546 8.43845L34.6654 9.05589L37.5576 7.11278ZM51.1239 17.3005C50.9974 17.0402 50.8136 16.7738 50.5726 16.5014C50.4581 16.3622 50.3527 16.2502 50.2563 16.1655C49.961 16.7103 49.8164 17.3731 49.8224 18.154C49.8285 18.9651 50.0333 19.286 50.437 19.1165C51.3047 18.7412 51.5337 18.1358 51.1239 17.3005ZM23.5393 21.0051C23.9671 20.0366 24.5305 19.1588 25.2295 18.3719C24.404 18.493 23.6628 18.8622 23.0061 19.4797C21.6925 20.7085 21.4696 22.5517 22.3372 25.0094C22.6927 23.3568 23.0934 22.0221 23.5393 21.0051ZM26.4316 23.8199L26.2869 24.6916C26.2207 25.3695 26.2598 25.9628 26.4044 26.4712C26.8624 28.0996 28.2874 28.5626 30.6795 27.8605C29.4081 27.5457 28.4561 27.0796 27.8234 26.4622C27.2088 25.8689 26.7449 24.9882 26.4316 23.8199ZM27.0823 20.9052C26.8112 20.8931 26.4285 21.0626 25.9345 21.4137C24.5787 22.6425 24.0907 23.9652 24.4703 25.3816C24.6571 26.0899 24.9794 26.674 25.4374 27.1341C25.1783 26.3956 25.0547 25.6873 25.0668 25.0094C25.0788 23.9985 25.4283 23.3144 26.1152 22.9573C26.4888 22.7636 26.8021 22.4972 27.0552 22.1583C27.2842 21.8495 27.4047 21.5681 27.4167 21.3138C27.4288 21.0535 27.3173 20.9173 27.0823 20.9052ZM29.5317 17.137C29.2786 16.9797 29.0587 16.9827 28.8719 17.1461C28.4441 17.7757 28.4832 18.3447 28.9894 18.8532C29.3208 19.1861 29.7787 19.4494 30.3632 19.6431C30.8633 19.8126 31.2941 19.8247 31.6556 19.6794C32.1919 19.4736 32.5293 18.9318 32.6679 18.0541C32.8065 17.1945 32.6649 16.5529 32.2431 16.1292C31.9419 15.8265 31.6315 15.6964 31.3122 15.7387C30.565 15.8356 30.4295 16.4106 30.9055 17.4639C31.2067 18.1237 31.1887 18.4143 30.8512 18.3356C30.5379 18.2569 30.2848 18.0571 30.092 17.7363C29.9293 17.4639 29.7426 17.2642 29.5317 17.137ZM30.8512 9.0922C30.1222 9.9094 29.6913 10.43 29.5588 10.654C29.384 10.9566 29.378 11.226 29.5407 11.4621C29.7034 11.6982 29.9203 11.6255 30.1915 11.2442C30.4746 10.8507 30.788 10.315 31.1314 9.637C31.4568 9.0014 31.7159 8.4324 31.9087 7.92997C31.5713 8.29317 31.2188 8.68058 30.8512 9.0922ZM33.3096 11.0626C32.5143 11.2926 31.7731 11.7738 31.0862 12.5063C30.4716 13.16 30.1131 13.7532 30.0107 14.2859L30.2366 14.7218C30.4355 14.9155 30.6464 14.7853 30.8693 14.3313C31.1706 13.7321 31.5562 13.1812 32.0262 12.6788C32.5444 12.1279 32.9722 11.8616 33.3096 11.8797C33.7254 11.904 34.2406 11.8586 34.8552 11.7435C35.5601 11.6104 36.0994 11.4288 36.473 11.1988C36.4248 11.3501 36.1476 11.7617 35.6415 12.4336C35.1112 13.1419 34.7557 13.7139 34.575 14.1497C34.2677 14.8761 34.1442 15.3574 34.2044 15.5935C34.2767 15.9082 34.6714 15.8204 35.3884 15.3301C36.1175 14.8277 36.7592 13.9227 37.3136 12.6152C37.8016 11.4469 38.0336 10.4754 38.0095 9.70056C37.9914 9.06497 37.8287 8.71387 37.5214 8.64729C37.2382 8.5807 37.0093 8.75019 36.8345 9.15577C36.6839 9.5008 36.2712 9.84584 35.5963 10.1909C34.9938 10.5057 34.2315 10.7962 33.3096 11.0626ZM26.7479 16.4833C26.5069 16.7557 26.3231 17.022 26.1966 17.2823C25.7868 18.1177 26.0158 18.723 26.8835 19.0983C27.2872 19.2678 27.492 18.947 27.4981 18.1358C27.5041 17.355 27.3595 16.6921 27.0642 16.1473C26.9678 16.2321 26.8624 16.3441 26.7479 16.4833ZM32.9481 7.95721L33.4452 7.64849C33.873 7.40031 34.334 7.17634 34.8281 6.97658C36.3947 6.33493 37.9673 6.06253 39.546 6.15938C40.7451 6.21991 42.143 6.78287 43.7397 7.84825C44.9027 8.62913 45.8245 9.39789 46.5054 10.1546C46.879 10.5722 47.1532 10.7205 47.3279 10.5995C47.4424 10.5208 47.4996 10.3422 47.4996 10.0638C47.4996 9.79136 47.3851 9.49475 47.1562 9.17392C46.7826 8.65939 46.1077 8.03591 45.1316 7.30346C42.613 5.42088 39.9678 4.66119 37.1961 5.02439C35.8946 5.19388 34.7979 5.73262 33.9062 6.64062C33.623 6.92512 33.3789 7.23081 33.1741 7.55769L32.9481 7.95721Z" fill="#7E3115"/>
<path d="M42.7723 23.1761C42.7723 23.164 42.7723 23.1519 42.7723 23.1398L42.6639 24.4564C42.6217 25.3644 42.6669 25.894 42.7995 26.0454C42.9501 26.1967 43.3267 26.1604 43.9292 25.9364C44.2305 25.8214 44.5167 25.6912 44.7879 25.546C44.2872 25.4728 43.8474 25.2458 43.4683 24.865C43.0043 24.3989 42.7723 23.8359 42.7723 23.1761ZM44.8602 21.124C44.3601 21.124 43.9323 21.2996 43.5767 21.6507C43.2212 22.0078 43.0435 22.4406 43.0435 22.9491C43.0435 23.4455 43.2212 23.8722 43.5767 24.2294C43.9323 24.5865 44.3601 24.7651 44.8602 24.7651C45.3663 24.7651 45.7911 24.5865 46.1346 24.2294C46.4961 23.8722 46.6769 23.4455 46.6769 22.9491C46.6769 22.4406 46.4961 22.0078 46.1346 21.6507C45.7911 21.2996 45.3663 21.124 44.8602 21.124ZM33.9601 24.865C33.5805 25.2463 33.1406 25.4733 32.6405 25.546C32.9117 25.6912 33.1979 25.8214 33.4991 25.9364C34.1017 26.1604 34.4783 26.1967 34.6289 26.0454C34.7615 25.894 34.8067 25.3644 34.7645 24.4564L34.656 23.1398C34.656 23.1519 34.656 23.164 34.656 23.1761C34.656 23.8359 34.4241 24.3989 33.9601 24.865ZM32.5682 21.124C32.0621 21.124 31.6373 21.2996 31.2938 21.6507C30.9323 22.0078 30.7515 22.4406 30.7515 22.9491C30.7515 23.4455 30.9323 23.8722 31.2938 24.2294C31.6373 24.5865 32.0621 24.7651 32.5682 24.7651C33.0683 24.7651 33.4961 24.5865 33.8516 24.2294C34.2071 23.8722 34.3849 23.4455 34.3849 22.9491C34.3849 22.4406 34.2071 22.0078 33.8516 21.6507C33.4961 21.2996 33.0683 21.124 32.5682 21.124Z" fill="#0F0117"/>
<path d="M45.1584 20.7791C44.5017 20.7791 43.9383 21.0121 43.4683 21.4782C43.0128 21.9358 42.7808 22.4897 42.7723 23.1398C42.7723 23.1519 42.7723 23.164 42.7723 23.1762C42.7723 23.836 43.0043 24.3989 43.4683 24.865C43.8474 25.2458 44.2872 25.4728 44.7879 25.546C44.9079 25.5642 45.0314 25.5733 45.1584 25.5733C45.8212 25.5733 46.3816 25.3372 46.8395 24.865C47.3095 24.3989 47.5445 23.836 47.5445 23.1762C47.5445 22.5103 47.3095 21.9443 46.8395 21.4782C46.3816 21.0121 45.8212 20.7791 45.1584 20.7791ZM43.5767 21.6507C43.9322 21.2996 44.3601 21.1241 44.8602 21.1241C45.3663 21.1241 45.7911 21.2996 46.1346 21.6507C46.4961 22.0079 46.6769 22.4407 46.6769 22.9492C46.6769 23.4455 46.4961 23.8723 46.1346 24.2294C45.7911 24.5866 45.3663 24.7652 44.8602 24.7652C44.3601 24.7652 43.9322 24.5866 43.5767 24.2294C43.2212 23.8723 43.0435 23.4455 43.0435 22.9492C43.0435 22.4407 43.2212 22.0079 43.5767 21.6507ZM33.9601 21.4782C33.4901 21.0121 32.9267 20.7791 32.2699 20.7791C31.6071 20.7791 31.0468 21.0121 30.5888 21.4782C30.1188 21.9443 29.8839 22.5103 29.8839 23.1762C29.8839 23.836 30.1188 24.3989 30.5888 24.865C31.0468 25.3372 31.6071 25.5733 32.2699 25.5733C32.3965 25.5733 32.52 25.5642 32.6405 25.546C33.1406 25.4734 33.5805 25.2464 33.9601 24.865C34.424 24.3989 34.656 23.836 34.656 23.1762C34.656 23.1641 34.656 23.1519 34.656 23.1398C34.65 22.4921 34.418 21.9383 33.9601 21.4782ZM31.2938 21.6507C31.6373 21.2996 32.0621 21.1241 32.5682 21.1241C33.0683 21.1241 33.4961 21.2996 33.8516 21.6507C34.2071 22.0079 34.3849 22.4407 34.3849 22.9492C34.3849 23.4455 34.2071 23.8723 33.8516 24.2294C33.4961 24.5866 33.0683 24.7652 32.5682 24.7652C32.0621 24.7652 31.6373 24.5866 31.2938 24.2294C30.9323 23.8723 30.7515 23.4455 30.7515 22.9492C30.7515 22.4407 30.9323 22.0079 31.2938 21.6507Z" fill="#6B7248"/>
<path d="M44.3452 24.5013L43.0256 23.6387L43.3329 24.3197C43.6462 24.7918 44.0861 25.0794 44.6525 25.1823C45.2189 25.2852 45.1164 25.0582 44.3452 24.5013ZM30.3088 23.6387L30.6161 24.3197C30.9295 24.7918 31.3693 25.0794 31.9357 25.1823C32.5021 25.2852 32.3997 25.0582 31.6284 24.5013L30.3088 23.6387Z" fill="#C2AA3B"/>
<path d="M45.1948 21.0508L45.1044 21.4957C45.1345 21.7984 45.3755 21.9679 45.8275 22.0042C46.2251 22.0405 46.5776 22.3371 46.8849 22.894C46.9994 23.0998 47.0597 23.2027 47.0657 23.2027C47.0958 23.2148 47.1049 23.0877 47.0928 22.8214C47.0747 22.2766 46.8548 21.8407 46.433 21.5139C46.0775 21.2294 45.6648 21.075 45.1948 21.0508ZM33.7163 21.5139C33.3607 21.2294 32.948 21.075 32.478 21.0508L32.3876 21.4957C32.4178 21.7984 32.6588 21.9679 33.1107 22.0042C33.5084 22.0405 33.8609 22.3371 34.1682 22.894C34.2826 23.0998 34.3429 23.2027 34.3489 23.2027C34.3791 23.2148 34.3881 23.0877 34.376 22.8214C34.358 22.2766 34.138 21.8407 33.7163 21.5139Z" fill="#F1E3FF"/>
<path d="M32.1434 38.2491C32.1495 38.3339 32.1826 38.4307 32.2429 38.5397C32.508 39.0119 32.9267 39.0391 33.4992 38.6214L34.2765 37.8587L33.0201 37.777C32.4176 37.8072 32.1254 37.9646 32.1434 38.2491ZM31.5198 36.642C31.5198 36.6541 31.5198 36.6662 31.5198 36.6783C31.5017 37.2655 31.8723 37.4652 32.6315 37.2776L33.7793 36.8145L32.6676 36.2152C31.9386 35.9428 31.5559 36.0851 31.5198 36.642ZM46.0532 36.6511C46.0528 36.6369 46.0528 36.6217 46.0532 36.6057C46.0171 36.0555 45.6345 35.9163 44.9054 36.188L43.7937 36.7873L44.9415 37.2503C45.7007 37.438 46.0713 37.2382 46.0532 36.6511ZM45.4296 38.2219C45.4476 37.9351 45.1553 37.7777 44.5529 37.7497L43.2966 37.8315L44.0739 38.5942C44.6463 39.0119 45.0651 38.9846 45.3302 38.5125C45.3914 38.4034 45.4245 38.3066 45.4296 38.2219ZM45.4296 34.8714C45.4222 34.7885 45.389 34.7008 45.3302 34.6081C45.0651 34.1904 44.6614 34.2691 44.1191 34.8442L43.387 35.8339L44.5981 35.5978C45.1841 35.4094 45.4613 35.1672 45.4296 34.8714ZM32.2429 34.6353C32.1826 34.7261 32.1495 34.8139 32.1434 34.8986C32.1133 35.1952 32.3905 35.4374 32.9749 35.625L34.1861 35.8611L33.454 34.8714C32.9117 34.2963 32.508 34.2176 32.2429 34.6353Z" fill="#7E3115"/>
<path d="M13.3078 33.2733C14.5611 32.7346 16.3205 32.4137 18.5861 32.3108C22.8763 32.1111 27.3954 32.9737 32.1434 34.8986C32.4025 35.0076 32.6616 35.1165 32.9207 35.2255M45.4296 34.8714C50.1769 32.9453 54.696 32.0827 58.9869 32.2836C61.2525 32.3865 63.0119 32.7073 64.2652 33.2461M45.4296 34.8714C45.1718 34.9778 44.9127 35.0867 44.6523 35.1983M54.1876 41.3726C53.4284 40.8581 52.4674 40.3405 51.3044 39.8199C49.2142 38.8764 47.2559 38.3437 45.4296 38.2219C45.2293 38.2073 45.0305 38.1982 44.8331 38.1946M60.6951 38.3308C59.5563 37.8405 58.053 37.4047 56.1851 37.0233C52.772 36.332 49.3947 36.1943 46.0532 36.6102C45.736 36.6488 45.4197 36.6927 45.1042 36.7418M32.4688 36.7691C32.1555 36.7207 31.8391 36.6783 31.5198 36.642C28.1757 36.2243 24.7984 36.3605 21.388 37.0506C19.5201 37.4319 18.0167 37.8678 16.8779 38.3581M32.74 38.2219C32.5411 38.2279 32.3423 38.237 32.1434 38.2491C30.3177 38.3702 28.3594 38.9029 26.2686 39.8472C25.1057 40.3678 24.1446 40.8853 23.3854 41.3999" stroke="white" stroke-width="3" stroke-linecap="round" stroke-linejoin="round"/>
<path d="M13.0894 108V96.12H10.5894V93.2H19.0294V96.12H16.5294V108H13.0894ZM20.8813 96.36V93.46H24.1613V96.36H20.8813ZM20.8813 108V97.3H24.1613V108H20.8813ZM32.7869 98.1C33.3269 97.5 34.2069 97.06 34.7869 96.98V99.94C34.7269 99.94 34.2469 99.94 33.8069 99.96C33.8869 100.3 33.9269 100.62 33.9269 101.02C33.9269 103.64 32.2669 104.9 30.1069 104.9C29.7269 104.9 29.3869 104.86 29.0669 104.78C28.9869 104.88 28.9469 104.98 28.9469 105.08C28.9469 105.38 29.0669 105.48 29.6269 105.52L30.8069 105.6C33.7069 105.8 34.6069 106.74 34.6069 108.62C34.6069 110.64 32.6269 112 29.6269 112C27.0069 112 25.7469 111.18 25.7469 109.78C25.7469 108.86 26.2869 108.12 27.2269 107.68C26.6269 107.34 26.3269 106.84 26.3269 106.22C26.3269 105.54 26.8269 104.7 27.6469 104.14C26.7469 103.46 26.2469 102.38 26.2469 101.02C26.2469 98.48 27.9269 97.14 30.1069 97.14C31.1869 97.14 32.1269 97.46 32.7869 98.1ZM30.1269 102.8C30.6669 102.8 30.8869 102.28 30.8869 101.08C30.8869 99.84 30.6869 99.42 30.1269 99.42C29.5469 99.42 29.3469 99.88 29.3469 101.08C29.3469 102.28 29.5669 102.8 30.1269 102.8ZM29.0269 108.06C28.8269 108.44 28.7469 108.78 28.7469 109.1C28.7469 109.9 29.2469 110.14 30.1869 110.14C31.0869 110.14 31.6469 109.74 31.6469 109.06C31.6469 108.46 31.3669 108.22 30.2469 108.14L29.0269 108.06ZM40.136 108.16C37.676 108.16 35.936 106.5 35.936 102.66C35.936 98.74 37.736 97.14 40.016 97.14C42.776 97.14 43.916 99.32 43.916 102.76V103.86H39.056C39.076 105 39.416 105.74 40.176 105.74C40.856 105.74 41.236 105.18 41.496 104.38L43.956 105.28C43.336 107.04 42.056 108.16 40.136 108.16ZM39.076 101.78H40.916C40.916 100.02 40.576 99.62 40.016 99.62C39.516 99.62 39.076 100.06 39.076 101.78ZM45.793 108V97.3H49.073V98.98H49.093C49.473 98.06 50.193 97.14 51.373 97.14C51.493 97.14 51.633 97.16 51.633 97.16V100.24C51.513 100.22 51.273 100.18 51.113 100.18C50.153 100.18 49.393 100.48 49.073 100.72V108H45.793ZM62.626 108.16C59.586 108.16 57.786 106.08 57.786 100.6C57.786 95.12 59.626 93.02 62.626 93.02C65.706 93.02 66.926 94.82 67.106 98.74L63.866 99.02C63.726 96.66 63.446 96.06 62.626 96.06C61.546 96.06 61.266 97.32 61.266 100.6C61.266 103.94 61.586 105.26 62.646 105.26C63.506 105.26 63.806 104.68 63.986 102.18L67.226 102.48C66.886 105.56 65.846 108.16 62.626 108.16ZM71.1055 108.14C69.8855 108.14 69.0455 107.66 69.0455 105.72V97.3H72.3055V104.6C72.3055 105.06 72.4455 105.3 72.7855 105.3C73.1455 105.3 73.5055 105.06 73.7655 104.88V97.3H77.0455V108H73.7655V106.68C73.3055 107.32 72.2655 108.14 71.1055 108.14ZM84.8042 108.12C83.8242 108.12 83.0842 107.62 82.6042 106.8V108H79.3242V93.22H82.6042V98.56C83.0042 97.88 83.7242 97.14 84.8242 97.14C86.5242 97.14 87.6042 98.72 87.6042 102.64C87.6042 106.56 86.5042 108.12 84.8042 108.12ZM83.4642 105.48C84.0642 105.48 84.2842 104.9 84.2842 102.66C84.2842 100.52 84.1042 99.98 83.4442 99.98C83.0642 99.98 82.7842 100.24 82.6042 100.4V105.1C82.8642 105.3 83.0842 105.48 83.4642 105.48Z" fill="#3A2E27"/>
</svg>
